<svg xmlns="http://www.w3.org/2000/svg" width="24" height="24" fill="none"><path stroke="#000" stroke-linecap="square" stroke-miterlimit="10" d="m20.949 21.453-1.129-12A.5.5 0 0 0 19.323 9h-4.85a.5.5 0 0 0-.5.5v4a1 1 0 0 1-1 1H11.16a.5.5 0 0 0-.498.453l-.61 6.5a.5.5 0 0 0 .497.547h2.987a.5.5 0 0 0 .495-.433l.72-5.29a.801.801 0 0 1 .27-.445.751.751 0 0 1 .957 0 .801.801 0 0 1 .27.444l.72 5.291a.5.5 0 0 0 .496.433h2.987a.5.5 0 0 0 .498-.547Z"/><path stroke="#000" stroke-linecap="square" stroke-miterlimit="10" d="m13.769 1.595-.213.453.213-.453a1 1 0 0 0-.426-.095h-1.297c-.573 0-.946.456-1.043.886C10.813 3.23 9.999 3.9 9 3.9c-1 0-1.813-.67-2.003-1.514-.097-.43-.47-.886-1.042-.886H4.657a1 1 0 0 0-.426.095L2.074 2.613a1 1 0 0 0-.574.904V6.3a1 1 0 0 0 1 1h1.545v6.2a1 1 0 0 0 1 1h7.91a1 1 0 0 0 1-1V7.3H15.5a1 1 0 0 0 1-1V3.517a1 1 0 0 0-.574-.904z"/></svg>