<svg xmlns="http://www.w3.org/2000/svg" width="24" height="24" fill="none"><path fill="#000" d="M9.126 18.9v-10h2.813a.614.614 0 0 0 .304-.08.522.522 0 0 0 .208-.213.45.45 0 0 0 .044-.28.478.478 0 0 0-.133-.256l-3.938-4a.563.563 0 0 0-.19-.126.623.623 0 0 0-.465 0 .563.563 0 0 0-.191.126l-3.938 4a.477.477 0 0 0-.133.256.45.45 0 0 0 .044.28.522.522 0 0 0 .208.213.61.61 0 0 0 .304.08h2.813v10c0 .266.118.52.33.708A1.2 1.2 0 0 0 8 19.9a1.2 1.2 0 0 0 .796-.292.947.947 0 0 0 .33-.708m6.374-14v10H13a.5.5 0 0 0-.376.83l3.5 4a.5.5 0 0 0 .753 0l3.5-4a.5.5 0 0 0-.376-.83h-2.5v-10a1 1 0 0 0-2 0"/></svg>