<svg xmlns="http://www.w3.org/2000/svg" width="24" height="24" fill="none"><path fill="#000" d="M16.728 22H7.36c-1.884 0-3.52-1.468-3.848-3.544L2.04 10.268a1.556 1.556 0 0 1-.04-.4 1.2 1.2 0 0 1 .452-.936 1.36 1.36 0 0 1 .94-.364h17.224c.134-.006.27.008.4.04a1.376 1.376 0 0 1 .94 1.628l-1.464 8.22C20.204 20.492 18.608 22 16.728 22M3.676 10.188l1.432 8c.204 1.26 1.148 2.156 2.212 2.156h9.408c1.064 0 2-.896 2.208-2.156l1.432-8zm13.256-1.832a.824.824 0 0 1-.8-.8 3.96 3.96 0 0 0-4.108-3.928A3.96 3.96 0 0 0 7.932 7.54a.818.818 0 1 1-1.636 0A5.6 5.6 0 0 1 12.024 2c3.232 0 5.728 2.444 5.728 5.54a.82.82 0 0 1-.82.816"/><path fill="#000" d="M7.072 10.88a.691.691 0 1 0 .008 1.383.691.691 0 0 0-.008-1.383m9.9 0a.692.692 0 1 0 .008 1.383.692.692 0 0 0-.008-1.383"/></svg>