<svg xmlns="http://www.w3.org/2000/svg" width="24" height="24" fill="none"><path fill="#000" d="M16.932 8.357a.824.824 0 0 1-.8-.8 3.96 3.96 0 0 0-4.108-3.928A3.96 3.96 0 0 0 7.932 7.54a.818.818 0 1 1-1.636 0A5.6 5.6 0 0 1 12.024 2c3.232 0 5.728 2.444 5.728 5.54a.82.82 0 0 1-.82.816"/><path fill="#000" fill-rule="evenodd" d="M16.728 22H7.36c-1.884 0-3.52-1.467-3.848-3.543L2.04 10.269a1.556 1.556 0 0 1-.04-.4 1.2 1.2 0 0 1 .452-.936 1.36 1.36 0 0 1 .94-.364h17.224c.134-.006.27.007.4.04a1.376 1.376 0 0 1 .94 1.628l-1.464 8.22C20.204 20.493 18.608 22 16.728 22M7.072 10.88a.692.692 0 1 0 .008 1.385.692.692 0 0 0-.008-1.384m9.517.12a.692.692 0 1 1 .774 1.146.692.692 0 0 1-.774-1.147" clip-rule="evenodd"/></svg>