<svg xmlns="http://www.w3.org/2000/svg" xml:space="preserve" id="Ebene_1" width="24" height="24" x="0" y="0" version="1.1"><style>.st0{fill:none;stroke:#000;stroke-width:1.6;stroke-linecap:round;stroke-miterlimit:10}</style><path d="M5.75 16.03h-2.4a.1.1 0 0 1-.1-.1V6.24c0-.05.04-.1.1-.1h10.73c.05 0 .1.04.1.1l.02 8.92m1.45.87H9.3m4.93-8.57h3.64c.08 0 .15.04.19.11l2.56 4.23c.07.12.11.25.11.39v2.99c0 .47-.37.86-.84.86h-.74" class="st0"/><ellipse cx="17.41" cy="16.06" class="st0" rx="1.76" ry="1.8"/><ellipse cx="7.54" cy="16.06" class="st0" rx="1.76" ry="1.8"/></svg>