<svg xmlns="http://www.w3.org/2000/svg" width="24" height="24" fill="none"><path fill="#000" d="m19.8 10.3-2-.3c-.1-.3-.2-.5-.3-.8l1.2-1.6c.1-.1.1-.2 0-.3l-2-2c-.1-.1-.2-.1-.3 0l-1.6 1.2c-.3-.1-.5-.2-.8-.3l-.3-2c0-.1-.1-.2-.2-.2h-2.9c-.1 0-.2.1-.2.2l-.3 2c-.3 0-.6.2-.9.3L7.7 5.3c-.1-.1-.2-.1-.3 0l-2 2c-.1.1-.1.2 0 .3l1.2 1.6c-.2.3-.4.6-.4.8l-2 .3c-.1 0-.2.1-.2.2v2.9c0 .1.1.2.2.2l2 .3c.1.3.2.5.3.8l-1.2 1.6c-.1.1-.1.2 0 .3l2 2c.1.1.2.1.3 0l1.6-1.2c.3.1.5.2.8.3l.3 2c0 .1.1.2.2.2h2.9c.1 0 .2-.1.2-.2l.3-2c.3-.1.5-.2.8-.3l1.6 1.2c.1.1.2.1.3 0l2-2c.1-.1.1-.2 0-.3l-1.2-1.6c.1-.3.2-.5.3-.8l2-.3c.1 0 .2-.1.2-.2v-2.9c.1-.1 0-.1-.1-.2M12 15.1c-1.7 0-3.1-1.4-3.1-3.1 0-1.7 1.4-3.1 3.1-3.1 1.7 0 3.1 1.4 3.1 3.1 0 1.7-1.4 3.1-3.1 3.1"/></svg>