<svg xmlns="http://www.w3.org/2000/svg" width="24" height="24" fill="none"><path fill="#000" d="m7.902 13.012-5.66 4.108.87 1.297 6.11-4.667zm6.876.738 6.11 4.667.861-1.297-5.633-4.094z"/><path stroke="#000" stroke-miterlimit="10" stroke-width="1.6" d="M21.192 16.55v.032l.002.032c.077.96-.588 1.586-1.325 1.586H4.234c-.754 0-1.434-.659-1.434-1.533V7.333c0-.874.68-1.533 1.434-1.533h15.524c.754 0 1.434.659 1.434 1.533z"/><mask id="a" fill="#fff"><path d="m21.545 6.4-8.935 6.3a.979.979 0 0 1-1.117 0L2.558 6.4"/></mask><path fill="#000" d="m12.61 12.7.914 1.313.008-.005zm-1.117 0-.922 1.308.008.005zm9.13-7.608-8.935 6.3 1.844 2.616 8.935-6.3zm-8.927 6.295a.621.621 0 0 1 .712 0l-1.83 2.626a2.578 2.578 0 0 0 2.946 0zm.72.005-8.936-6.3-1.844 2.616 8.935 6.3z" mask="url(#a)"/></svg>