<svg xmlns="http://www.w3.org/2000/svg" width="24" height="24" fill="none"><path fill="#000" fill-rule="evenodd" d="M12 20a8 8 0 1 0 0-16 8 8 0 0 0 0 16m0-1.6a6.4 6.4 0 1 0 0-12.8 6.4 6.4 0 0 0 0 12.8" clip-rule="evenodd"/><circle cx="12" cy="12" r="4" fill="#000"/><rect width="1.6" height="3" x="11" y="2" fill="#000" rx=".8"/><rect width="1.6" height="3" x="11" y="19" fill="#000" rx=".8"/><rect width="1.6" height="3" x="22" y="11" fill="#000" rx=".8" transform="rotate(90 22 11)"/><rect width="1.6" height="3" x="5" y="11" fill="#000" rx=".8" transform="rotate(90 5 11)"/></svg>