<svg xmlns="http://www.w3.org/2000/svg" width="24" height="24" fill="none"><path fill="#000" fill-rule="evenodd" d="M11.246 4.031A5.527 5.527 0 0 0 8.033 3H8a5.84 5.84 0 0 0-4.308 1.89A6.623 6.623 0 0 0 2 9.394c0 1.767.64 3.361 2 5.02 1.155 1.373 2.743 2.726 4.585 4.297l.023.019.241.205c.555.471 1.167.991 1.795 1.542.288.252.64.417 1.014.48l2.372-4.35-3.133-3.58a.8.8 0 0 1-.029-1.018l3.138-4.034zm2.829 15.837a271.2 271.2 0 0 1 1.342-1.146c1.844-1.559 3.44-2.933 4.583-4.3 1.36-1.655 2-3.25 2-5.016a6.623 6.623 0 0 0-1.692-4.516A5.827 5.827 0 0 0 16 3h-.04c-1.03 0-2.035.29-2.903.829l2.599 3.712a.8.8 0 0 1-.024.95l-3.095 3.98 3.066 3.502a.8.8 0 0 1 .1.91z" clip-rule="evenodd"/></svg>