<svg xmlns="http://www.w3.org/2000/svg" width="24" height="24" fill="none"><path fill="#000" d="M8 3a5.84 5.84 0 0 0-4.31 1.89A6.623 6.623 0 0 0 2 9.394c0 1.767.64 3.361 2 5.02 1.16 1.379 2.756 2.737 4.608 4.316.616.523 1.316 1.115 2.036 1.747.375.328.857.508 1.356.507h.024c.496 0 .976-.18 1.348-.508.728-.635 1.428-1.23 2.044-1.754 1.844-1.559 3.44-2.933 4.584-4.3 1.36-1.655 2-3.25 2-5.016a6.622 6.622 0 0 0-1.692-4.516A5.827 5.827 0 0 0 16 3h-.04a5.511 5.511 0 0 0-3.428 1.199 6.47 6.47 0 0 0-.532.464 7.235 7.235 0 0 0-.532-.464A5.527 5.527 0 0 0 8.031 3z"/></svg>