<svg xmlns="http://www.w3.org/2000/svg" width="24" height="24" fill="none"><path fill="#000" d="M17.055 11.716a1.776 1.776 0 0 0-1.15.26l-.912.544c-.415.241-.86.432-1.325.568a5.525 5.525 0 0 1-3.299 0 5.72 5.72 0 0 1-1.308-.568l-.9-.56a1.769 1.769 0 0 0-1.14-.257l-.01.001c-.297.035-.59.105-.87.208-.42.151-.803.381-1.129.676-.33.297-.611.641-.833 1.02-.228.38-.413.782-.55 1.2a9.144 9.144 0 0 0-.375 1.336c-.079.4-.137.848-.175 1.284-.037.408-.053.818-.046 1.228-.033.44.032.882.19 1.296.16.413.408.79.731 1.104l.042.044.05.04c.63.544 1.444.85 2.29.86.084.005.167.005.25 0H17.73c.854 0 1.678-.3 2.32-.84l.1-.084.084-.092a3.12 3.12 0 0 0 .628-1.112c.129-.408.17-.837.121-1.26 0-.4-.02-.8-.046-1.156-.037-.452-.1-.9-.179-1.336a9.569 9.569 0 0 0-.341-1.32 6.204 6.204 0 0 0-.546-1.2 4.32 4.32 0 0 0-.787-1.004 3.424 3.424 0 0 0-1.12-.668 3.614 3.614 0 0 0-.876-.208zM12.002 2a5.06 5.06 0 0 0-2.732.794 4.767 4.767 0 0 0-1.813 2.118 4.546 4.546 0 0 0-.28 2.728c.19.916.657 1.757 1.345 2.417a4.982 4.982 0 0 0 2.518 1.293 5.104 5.104 0 0 0 2.84-.27 4.877 4.877 0 0 0 2.207-1.74c.54-.777.827-1.69.826-2.624a4.627 4.627 0 0 0-1.44-3.334A5.02 5.02 0 0 0 12.004 2"/></svg>