<svg xmlns="http://www.w3.org/2000/svg" width="24" height="24" fill="none"><mask id="a" fill="#fff"><path d="M18 7.946c0 2.975-2.686 8.989-5.22 12.907a.93.93 0 0 1-1.566.004C8.682 17.012 6 11.372 6 7.946 6 4.662 8.686 2 12 2s6 2.662 6 5.946"/></mask><path fill="#000" d="m12.78 20.853-1.343-.868zm-1.566.004 1.336-.88zM16.4 7.946c0 1.144-.555 3.136-1.536 5.483-.954 2.282-2.215 4.68-3.427 6.556l2.687 1.737c1.321-2.043 2.67-4.611 3.693-7.06.995-2.383 1.783-4.885 1.783-6.716zm-3.85 12.031a41.843 41.843 0 0 1-3.42-6.36c-.966-2.268-1.53-4.29-1.53-5.67H4.4c0 2.046.777 4.557 1.785 6.925a45.03 45.03 0 0 0 3.693 6.866zM7.6 7.946C7.6 5.559 9.556 3.6 12 3.6V.4C7.816.4 4.4 3.765 4.4 7.946zM12 3.6c2.444 0 4.4 1.96 4.4 4.346h3.2C19.6 3.765 16.184.4 12 .4zm-.563 16.385a.67.67 0 0 1 1.113-.008l-2.672 1.76c1.005 1.528 3.244 1.536 4.246-.015z" mask="url(#a)"/><circle cx="12" cy="8" r="2.2" stroke="#000" stroke-width="1.6"/></svg>