<svg xmlns="http://www.w3.org/2000/svg" width="24" height="24" fill="none"><path fill="#000" fill-rule="evenodd" d="M7 6H5a1 1 0 0 0-1 1v14a1 1 0 0 0 1 1h14a1 1 0 0 0 1-1V7a1 1 0 0 0-1-1h-2v2a1 1 0 0 1-1 1H8a1 1 0 0 1-1-1zm.8 5a.8.8 0 0 0 0 1.6h8.4a.8.8 0 0 0 0-1.6zM7 15.8a.8.8 0 0 1 .8-.8h8.4a.8.8 0 0 1 0 1.6H7.8a.8.8 0 0 1-.8-.8" clip-rule="evenodd"/><path stroke="#000" stroke-width="1.6" d="M7.8 8V5.333c0-.11.09-.2.2-.2h.663c.896 0 1.532-.64 1.82-1.252.28-.593.756-1.081 1.517-1.081.761 0 1.236.488 1.516 1.081l.724-.341-.724.341c.289.612.925 1.252 1.821 1.252H16c.11 0 .2.09.2.2V8a.2.2 0 0 1-.2.2H8a.2.2 0 0 1-.2-.2Z"/></svg>