<svg xmlns="http://www.w3.org/2000/svg" width="24" height="24" fill="none"><path stroke="#000" stroke-width="1.6" d="M7.8 8V5.333c0-.11.09-.2.2-.2h.663c.896 0 1.532-.64 1.82-1.252.28-.593.756-1.081 1.517-1.081.761 0 1.236.488 1.516 1.081l.724-.341-.724.341c.289.612.925 1.252 1.821 1.252H16c.11 0 .2.09.2.2V8a.2.2 0 0 1-.2.2H8a.2.2 0 0 1-.2-.2Z"/><path stroke="#000" stroke-width="1.6" d="M16.8 6.8H19c.11 0 .2.09.2.2v14a.2.2 0 0 1-.2.2H5a.2.2 0 0 1-.2-.2V7c0-.11.09-.2.2-.2h2.803A1.5 1.5 0 0 0 9.3 8.2h5.4a1.5 1.5 0 0 0 1.497-1.4z"/><rect width="10" height="1.6" x="7" y="11" fill="#000" rx=".8"/><rect width="10" height="1.6" x="7" y="15" fill="#000" rx=".8"/></svg>