<svg xmlns="http://www.w3.org/2000/svg" width="24" height="24" fill="none"><path fill="#000" d="m21.763 20.616-5.779-5.772a7.784 7.784 0 0 0 1.923-5.04v-.032a7.72 7.72 0 0 0-2.32-5.467A8.08 8.08 0 0 0 10.009 2h-.102a8.09 8.09 0 0 0-5.58 2.303A7.728 7.728 0 0 0 2 9.768v.036a7.727 7.727 0 0 0 2.317 5.483 8.089 8.089 0 0 0 5.59 2.313h.102a7.892 7.892 0 0 0 4.768-1.6l5.82 5.756a.82.82 0 0 0 .586.243.835.835 0 0 0 .767-.505.784.784 0 0 0-.187-.878M9.956 15.948h-.05a6.377 6.377 0 0 1-4.456-1.804 6.09 6.09 0 0 1-1.846-4.356c0-1.634.664-3.2 1.846-4.356a6.377 6.377 0 0 1 4.457-1.804h.102c1.672 0 3.275.649 4.457 1.804a6.09 6.09 0 0 1 1.845 4.356 6.09 6.09 0 0 1-1.845 4.356 6.377 6.377 0 0 1-4.457 1.804z"/></svg>