<svg xmlns="http://www.w3.org/2000/svg" xml:space="preserve" id="Ebene_1" width="24" height="24" x="0" y="0" style="enable-background:new 0 0 24 24" version="1.1"><style>.st0{fill:none;stroke:#000;stroke-width:1.6;stroke-linecap:round;stroke-linejoin:round;stroke-miterlimit:22.9256}</style><path d="M12 20.65c-4.61-1.99-7.71-5.78-7.71-10.11 0-2.22.03-4.45.03-6.68C5 4.67 6.39 5.23 8 5.23c1.92 0 3.53-.79 4-1.87.47 1.08 2.09 1.87 4 1.87 1.6 0 2.99-.56 3.68-1.37 0 2.23.03 4.45.03 6.68 0 4.33-3.1 8.11-7.71 10.11" class="st0"/><path d="m8.22 12.04 2.49 3.24 5.07-6.56" class="st0"/></svg>