<svg xmlns="http://www.w3.org/2000/svg" xml:space="preserve" width="24" height="24"><path d="M6.45 11.84s.52-2.37.5-1.73l-.1 3.54-.12 4.62c0 .33-.06.57.18.76.29.24 1.08.42 1.52.48 1.28.15 2.3.25 3.65.25.96 0 4.32-.1 5.01-.77.28-.28.17-1.39.16-1.86 0 0-.14-5.48-.19-6.84-.01-.24.63 1.66.63 1.66s2-1.11 2.33-1.35c1.08-.79.94-.28-.73-2.8L17.8 5.59c-.08-.12-.08-.13-.18-.25-.13-.15-.07-.11-.28-.2l-2.12-.67c-.87-.27-.54-.2-1.37.07-1.3.42-2.93.39-4.17-.15-.27-.14-.16-.16-.47-.09l-2.36.74c-.52.17-.46.18-.72.55l-2.5 3.67c-.58.91-.54.41 1.24 1.66zm8.32-7.05" style="fill-rule:evenodd;clip-rule:evenodd;fill:none;stroke:#000;stroke-width:1.6;stroke-miterlimit:10"/></svg>