<svg xmlns="http://www.w3.org/2000/svg" width="24" height="24"><path d="m11.909 4.9 1.8 3.6c.3.6.8.9 1.4 1l3.9.6-2.8 2.8c-.4.4-.6 1-.5 1.7l.7 3.9-3.6-2c-.3-.1-.6-.2-.9-.2-.3 0-.6.1-.9.2l-3.5 1.8.7-3.8c.1-.6-.1-1.2-.5-1.7l-2.8-2.8 3.8-.5c.6-.1 1.1-.5 1.4-1zm0-1.9c-.1 0-.2 0-.2.1L9.209 8c-.1.3-.3.5-.6.5l-5.4.8c-.2 0-.3.3-.1.4l3.8 3.8c.2.2.3.5.3.8l-.9 5.4c0 .2.1.3.3.3h.1l4.8-2.5c.1-.1.3-.1.4-.1.1 0 .3 0 .4.1l4.8 2.5h.1c.2 0 .3-.1.3-.3l-.9-5.4c0-.3 0-.6.3-.8l3.9-3.8c.2-.1.1-.4-.1-.4l-5.5-.8c-.3 0-.5-.2-.7-.5l-2.4-4.9c0-.1-.1-.1-.2-.1"/></svg>