<?xml version="1.0" encoding="UTF-8"?><svg id="b" xmlns="http://www.w3.org/2000/svg" xmlns:xlink="http://www.w3.org/1999/xlink" viewBox="0 0 467.93 289.05"><defs><clipPath id="c"><rect width="467.93" height="289.05" style="fill:none; stroke-width:0px;"/></clipPath><clipPath id="d"><rect width="467.93" height="244.03" style="fill:none; stroke-width:0px;"/></clipPath><mask id="e" x="163.01" y="170.53" width="133.41" height="70.63" maskUnits="userSpaceOnUse"><g id="f"><rect x="163.01" y="170.53" width="133.41" height="70.63" style="fill:#fff; stroke-width:0px;"/><path d="m207.03,232.09c-11.21-.83-22.04-2.17-32.56-4.17-17.24-3.32,39.27-24.26,57.23-32.3,5.44,5.09,59.91,27.21,59.41,36.43-.37,6.71-39.83,3.38-50.63,2.92-1.24-.04-2.47-.12-3.7-.21-3.58-.27-7.06-.66-10.51-1.06-3.49-.4-6.94-.81-10.37-1.06-.68-.04-1.36-.09-2.03-.13-2.3-.12-4.6-.26-6.87-.43m29.04-60.21c-.72,1.73-1.47,3.15-2.43,4.75-2.28,3.85-3.17,7-3.9,10.85-.03.16-.06.3-.09.41-.34.6-.84,1.33-1.52,2.24-1.12,1.49-2.71,2.54-4.29,3.49-17,10.26-36.98,14.92-53.44,26.06-2.99,2.02-6.14,5.82-4.08,8.89.75,1.11,1.91,1.97,3.2,2.25,10.9,2.52,27.33,4.42,43.73,5.62,16.4,1.19,32.86,1.7,43.72,1.37,15.59-.46,16.21,1.16,31.8.71,1.43-.04,2.93-.1,4.14-.87,2.28-1.45,2.55-4.81,1.84-7.49-2.17-8.18-18.51-14.46-25.86-18.43-8.53-4.63-17.09-9.26-25.61-13.86-3.12-1.68-6.44-3.57-8.01-6.8-1.33-2.73-1.89-4.39-2.05-5.59,1.4-4.02,3.96-9.13,6.11-13.4-1.08-.07-2.17-.16-3.23-.25" style="stroke-width:0px;"/></g></mask></defs><g style="clip-path:url(#c);"><path d="m49.77,67.92c-14.79,18.02-20.66,39.93-28.54,63.12-2.2,5.28-2.25,31.37-2.15,40.87.19,17.35,2.22,35.98,7.69,51.92,7.5,21.84,19.14,38.74,35.87,49.57,10.18,6.59,20.59,6.21,31.76,6.13,12.27-.08,24.53-1.14,36.71-3.03,12.62-1.96,24.7-6.1,36.89-10.52,11.72-4.25,24.64-3.22,36.53-.53,43.67,9.88,88.29,23.61,132.82,23.61,20.56,0,40.86-1.15,61.32-3.78l.27-.04c13.7-1.76,28.18-3.63,38.29-16.92,14.93-19.64,28.69-66.1,13.65-90.51-23.82-38.66-61.63-66.74-97.43-83.1-25.77-11.77-59.43-11.4-84.44,3.63-48.67,29.25-100.68-15.15-146.05-34.36-22.68-9.6-53.62-19.88-73.17,3.94Z" style="fill:#f4f4f5; stroke-width:0px;"/><g style="clip-path:url(#d);"><path d="m467.31,167.27c-2.45,3.06-10.08,3.49-16.28,3.45-104.61-.7-212.48-2.05-316.54-2.35h-3.32c-39.31-.1-78.08-.05-115.91.25-4.77.04-10.14.08-13.53-1.72-3.39-1.81-1.56-5.9,3.18-5.6,6.69-1.47,18.68-1.9,30.59-2.09,34.57-.55,50.34.28,78.11.41-.87.58-1.65,1.17-2.37,1.79-.49.42-.44,1.2.52,1.36.94.15,1.92-.16,2.7-.49,1.75-.73,3.3-1.61,4.58-2.56.03-.02.07-.05.12-.08,3.12,0,6.38,0,9.84-.02,1.65,0,3.33-.02,5.07-.03,1.28,0,2.62-.02,4.04-.03,29.37-.22,83.74-.46,111.66-.69,27.32-.22,66.19-.05,89.13.52,17.43.44,81.4.74,106.23-.08,5.36-.19,11.01-.33,15.85.92,4.86,1.25,8.44,4.41,6.32,7.06h0Z" style="fill:#e4e4e7; stroke-width:0px;"/><path d="m465.18,166.16c-6.38,2.27-14.74,2.15-21.72,2.26-9.08.15-18.17.15-27.25.13-18.31-.04-36.63-.29-54.95-.53-36.71-.47-73.38-.49-110.09-.08-32.62.36-65.22.47-97.84.25-26.76-.18-53.53-.38-80.29-.6-19.51-.15-39.02-.31-58.53-.48-1.22-.01-2.45-.02-3.65-.03-1.21,0-3.27,2.02-1.59,2.03,17.84.16,35.7.31,53.55.44,26.86.22,53.71.42,80.57.61,31.49.22,62.96.27,94.45-.06,36.99-.39,73.94-.64,110.94-.18,18.46.23,36.94.5,55.4.62,9.24.05,18.46.07,27.7,0,8.27-.05,16.71.06,24.87-.93,2.84-.35,5.66-.84,8.25-1.76,1.21-.43,2.33-2.47.19-1.71h-.03Z" style="fill:#d4d4d8; stroke-width:0px;"/><path d="m71.69,160.97c-1.18,2.2-2.37,4.59-1.77,6.81.29,1.09,1.59,2.19,2.83,1.61.68-.32.97-.99,1.21-1.6,1.02-2.61,2.03-5.44,1.03-7.92-.37-.9-1.49-1.81-2.53-1.28-1.21.62-.6,2.05-.77,2.37h0Z" style="fill:#d4d4d8; stroke-width:0px;"/><path d="m74.09,158.5c-.6,4.81-1.05,9.67-1.83,14.45-.46,2.8-1.59.18-4.41,1.08-1.65.52-1.96.13-3.17-1.15-1.22-1.33-2.73-1.25-2.98-2.96-.31-1.97,1.16,1.73.35-.09-.77-1.71-.06-5.42,0-7.31.06-2.36-.22-4.57,1.46-6.18.71-.68.01-1.25.85-1.66-.55-12.22.4-24.59,1.08-36.84,1.65-30.32,1.61-60.75-.15-91.07-.38-6.5-.83-13.11.46-19.47.29-1.49.74-3.05,1.81-4.08,1.09-1.03,2.99-1.3,3.98-.18.65.74.75,1.8.78,2.79.24,6.28-.77,12.53-1.3,18.8-1.77,20.86,1.81,41.82,1.15,62.76-.72,22.26-6.23,44.67-2.99,66.62,1.34.24,2.61.8,3.83,1.43.81.43.85,1.19.59,1.93.96-.25.65-.12.47,1.16Z" style="fill:#faddc8; stroke-width:0px;"/><path d="m114.36,165.52c1.65,0,3.4-.09,4.85-.72,1.08-.47,1.95-1.1,2.53-1.89.1-.14.21-.29.31-.43.09-.12.24-.25.29-.37-.04.09-.18.2-.01.04.13-.13-.29.22-.06.05-.22.12-.28.16-.16.1.1-.05.06-.03-.15.07l-.16.05c.15-.03.13-.03-.01,0,.84-.09,1.64-.56,2.02-1.08.15-.21.31-.46.21-.69-.09-.19-.35-.29-.63-.26-1.31.14-2.42.77-3.15,1.52-.32.33-.56.67-.81,1.02-.07.11-.16.29-.29.38.28-.19.04-.07-.03,0,.06-.07.29-.24.07-.07-.15.11.38-.23.1-.06-.24.13.27-.1.09-.03-.07.03-.15.05-.22.08-.29.12.32-.08,0,0-.16.04-.32.08-.49.11-.1.02-.21.04-.31.05.18-.03.1-.02-.03,0-.77.09-1.53.1-2.3.1-.35,0-.81.19-1.08.34-.35.19-.74.46-.94.75-.28.38-.41.95.43.95l-.06-.02Z" style="fill:#d4d4d8; stroke-width:0px;"/><path d="m215.33,164.46c1.65-.92,3.33-1.8,5.04-2.66.37-.18.72-.47.94-.75.13-.16.32-.49.21-.69-.31-.53-1.3-.13-1.71.07-1.71.85-3.39,1.74-5.04,2.66-.37.21-.71.45-.94.75-.13.16-.32.49-.21.69.29.5,1.31.15,1.71-.07Z" style="fill:#d4d4d8; stroke-width:0px;"/><path d="m308.82,165.33c2.8-1.16,5.41-2.52,7.81-4.05.4-.25,1.18-1,.65-1.37-.53-.37-1.58.22-1.96.45-.13.08-.25.16-.38.24-.06.04-.13.08-.19.11.35-.24.12-.07.03-.02-.26.15-.52.31-.78.46-.56.32-1.13.63-1.71.94-.57.31-1.13.58-1.72.84-.07.03-.15.06-.21.1-.22.1,0-.03.06-.02-.09,0-.35.15-.43.19-.32.15-.65.28-.99.42-.41.18-.78.39-1.08.66-.21.18-.47.5-.49.75,0,.57.83.52,1.36.3h.03Z" style="fill:#d4d4d8; stroke-width:0px;"/><path d="m123.18,158.43c-1,.41-4.24,4.94-6.2,6.31-.87.6-3.43,1.19-4.49.91-1.08-.3-1.12-1.76-.57-2.54.81-1.15,1.68-2.27,2.65-3.35,2.84-3.18,6.44-5.84,10.76-7.02,5.78-1.59,12.97-1.31,15.77,3.46.38.63.66,1.28.85,1.95-1.58.01-3.08.04-4.51.06-1.95.03-3.82.04-5.67.06-1.08-.99-5.98-.91-8.58.15Z" style="fill:#c6c8bf; stroke-width:0px;"/><path d="m222.18,156.96c-1,.41-4.24,4.94-6.2,6.31-.87.6-3.43,1.19-4.49.91-1.08-.3-1.12-1.76-.57-2.54.81-1.15,1.68-2.27,2.65-3.35,2.84-3.18,6.44-5.84,10.76-7.02,5.78-1.59,12.97-1.31,15.77,3.46.38.63.66,1.28.86,1.95-1.58.01-3.08.04-4.51.06-1.94.03-3.82.04-5.67.06-1.08-.99-5.98-.91-8.58.15Z" style="fill:#b8d8e0; stroke-width:0px;"/><g style="mask:url(#e);"><path d="m240.52,233.65l-.03.88.04-.88h-.01Zm-12.05-46.42h-.05s0,0,0,0h.05s.03.01.03.01h-.03Zm12.05,46.42l-.03.88.04-.88h-.01Zm-12.1-46.42c-.01.05-.01.09-.03.13.03-.04.05-.08.08-.12h-.05Zm.05,0h0s.03.01.03.01h-.03Zm12.05,46.42l-.03.88.04-.88h-.01Z" style="fill:#b8d8e0; stroke-width:0px;"/></g><path d="m292.91,230.54c-.63-2.38-2.25-4.51-4.29-6.4-2.05-1.9-4.62-3.62-7.3-5.19s-5.52-3-8.12-4.28c-2.63-1.28-4.98-2.39-6.79-3.37-8.53-4.63-17.09-9.26-25.61-13.85h0c-3.19-1.71-6.09-3.43-7.47-6.23-1.18-2.43-1.69-3.91-1.87-4.89,1.39-3.88,3.82-8.75,5.94-12.94l.88-1.75-1.96-.14c-1.06-.07-2.15-.16-3.2-.25l-.9-.13-.45.96c-.69,1.65-1.41,3.02-2.34,4.58-2.39,4.03-3.32,7.34-4.07,11.27h.05s.03.03.03.03h-.03s-.05.08-.08.12c-.3.51-.73,1.15-1.35,1.97-.95,1.26-2.33,2.2-3.91,3.15h-.01c-8.41,5.07-17.54,8.76-26.75,12.62-9.17,3.83-18.39,7.82-26.75,13.48-1.61,1.09-3.31,2.67-4.34,4.49-1.03,1.82-1.5,4.11-.09,6.21.92,1.35,2.34,2.45,3.99,2.8h.01c11.01,2.55,27.51,4.45,43.92,5.65,16.43,1.19,32.93,1.7,43.85,1.37,7.73-.24,11.73.07,15.76.35,4.08.29,8.19.59,16.04.35,1.36-.04,3.24-.08,4.8-1.07,1.54-.97,2.33-2.55,2.63-4.13.31-1.58.17-3.3-.22-4.8Zm-7.29,3.11c-.95.47-2.42.86-4.34,1.18-3.81.6-9.02.8-14.64.77-11.24-.05-23.71-.99-29.18-1.23l-.04.88.03-.88c-1.22-.04-2.43-.12-3.65-.2-3.54-.26-7-.67-10.45-1.06-3.48-.39-6.96-.81-10.42-1.07h-.01c-.34-.01-.68-.04-1.02-.07-.34-.01-.68-.04-1.02-.07h-.01c-2.29-.12-4.58-.26-6.84-.42h0c-11.17-.81-21.93-2.15-32.38-4.15-1.01-.18-1.61-.43-1.94-.64-.21-.13-.24-.21-.24-.21.01-.03.01-.07.04-.13.05-.1.13-.27.29-.48.31-.42.82-.94,1.57-1.54,3.01-2.45,8.88-5.56,16-8.89,7.09-3.32,15.28-6.79,22.82-9.93,7.13-2.97,13.73-5.66,18.23-7.66.89.67,2.18,1.43,3.71,2.28,2.03,1.12,4.63,2.45,7.56,3.92,5.89,2.94,13.16,6.46,20.27,10.11,7.12,3.66,13.98,7.42,19.04,10.82,2.52,1.71,4.55,3.3,5.91,4.7.68.69,1.15,1.32,1.45,1.86.3.54.38.92.37,1.16-.01.09-.09.47-1.11.95Z" style="fill:#b8d8e0; stroke-width:0px;"/><path d="m387.76,227.68c-.73-2.35-2.44-4.41-4.56-6.2-2.13-1.81-4.77-3.42-7.52-4.87s-5.64-2.75-8.3-3.92c-2.68-1.17-5.08-2.18-6.93-3.08-8.72-4.26-17.48-8.51-26.18-12.73h0c-3.26-1.57-6.24-3.16-7.73-5.9-1.28-2.38-1.85-3.83-2.08-4.81,1.22-3.94,3.44-8.91,5.37-13.18l.8-1.79-1.97-.06c-1.06-.02-2.15-.06-3.21-.11l-.9-.09-.41.98c-.62,1.68-1.28,3.08-2.14,4.67-2.22,4.13-3,7.47-3.58,11.44h.05s.03.02.03.02h-.03s-.05.08-.07.12c-.28.52-.68,1.18-1.26,2.03-.9,1.3-2.23,2.3-3.77,3.32h-.01c-8.18,5.43-17.14,9.51-26.18,13.77-8.99,4.22-18.03,8.61-26.14,14.63-1.56,1.15-3.19,2.81-4.14,4.67-.95,1.86-1.33,4.17.18,6.21.97,1.31,2.44,2.34,4.11,2.62h.01c11.11,2.07,27.67,3.25,44.12,3.75,16.46.48,32.98.28,43.87-.52,7.71-.57,11.72-.44,15.76-.33,4.09.11,8.21.23,16.04-.34,1.36-.1,3.24-.22,4.75-1.28,1.5-1.03,2.22-2.65,2.45-4.24.25-1.59.03-3.3-.43-4.79Zm-7.14,3.42c-.93.51-2.38.97-4.29,1.36-3.78.77-8.98,1.19-14.59,1.4-11.23.43-23.73.03-29.21.03v.88s-.01-.88-.01-.88c-1.22.01-2.44-.01-3.65-.04-3.55-.11-7.02-.36-10.49-.61-3.49-.24-6.99-.51-10.46-.62h-.01c-.34,0-.68,0-1.02-.02-.34,0-.68,0-1.02-.02h-.01c-2.29-.02-4.58-.06-6.85-.12h0c-11.19-.33-22.01-1.19-32.53-2.74-1.01-.14-1.63-.36-1.96-.56-.21-.12-.24-.2-.24-.2.01-.03.01-.07.03-.13.05-.11.12-.28.27-.5.3-.43.78-.98,1.5-1.61,2.9-2.57,8.63-5.94,15.6-9.58,6.94-3.63,14.97-7.44,22.37-10.9,6.99-3.27,13.48-6.25,17.88-8.45.92.63,2.24,1.33,3.81,2.11,2.07,1.04,4.73,2.24,7.72,3.59,6.01,2.69,13.42,5.89,20.69,9.22,7.27,3.35,14.29,6.8,19.49,9.98,2.6,1.6,4.69,3.1,6.11,4.44.71.66,1.21,1.27,1.53,1.79.32.52.42.9.42,1.15,0,.09-.07.47-1.07,1Z" style="fill:#d3cbf3; stroke-width:0px;"/><path d="m197.57,220.97c-.98-2.26-2.9-4.13-5.2-5.68-2.31-1.57-5.11-2.89-7.99-4.04s-5.9-2.14-8.67-3.02c-2.79-.87-5.28-1.62-7.22-2.32-9.12-3.31-18.29-6.6-27.39-9.87h0c-3.41-1.22-6.54-2.48-8.31-5.04-1.53-2.23-2.25-3.62-2.58-4.56.79-4.05,2.47-9.22,3.94-13.68l.6-1.86-1.96.15c-1.06.09-2.14.17-3.21.23l-.95-.02-.26,1.05c-.44,1.73-.95,3.2-1.63,4.88-1.77,4.34-2.19,7.75-2.34,11.76h.05s.03.01.03.01h-.03s-.04.09-.06.13c-.22.55-.55,1.25-1.04,2.15-.76,1.38-1.97,2.52-3.4,3.7h-.01c-7.56,6.28-16.03,11.29-24.56,16.47-8.49,5.16-17.02,10.48-24.43,17.33-1.43,1.31-2.87,3.13-3.62,5.08-.75,1.95-.87,4.29.84,6.16,1.11,1.2,2.68,2.07,4.36,2.17h.01c11.27.88,27.86.29,44.27-.97,16.42-1.28,32.82-3.23,43.57-5.19,7.61-1.39,11.61-1.69,15.64-2,4.08-.32,8.18-.64,15.91-2.04,1.34-.24,3.2-.56,4.59-1.78,1.38-1.19,1.92-2.87,1.98-4.48.07-1.61-.32-3.28-.94-4.71Zm-6.74,4.17c-.87.61-2.26,1.21-4.12,1.81-3.67,1.16-8.8,2.14-14.36,2.95-11.12,1.63-23.6,2.56-29.04,3.14l.09.87-.1-.87c-1.21.14-2.42.25-3.64.35-3.54.27-7.02.38-10.49.51-3.5.13-7,.24-10.47.5h-.01c-.34.04-.68.06-1.02.09-.34.04-.68.06-1.02.09h-.01c-2.28.23-4.57.43-6.83.61h0c-11.17.87-22.01,1.15-32.64.73-1.02-.03-1.66-.19-2.01-.34-.23-.1-.26-.17-.26-.17,0-.03,0-.07.02-.14.04-.11.09-.29.21-.52.25-.46.67-1.05,1.32-1.76,2.61-2.87,7.95-6.82,14.49-11.18,6.51-4.34,14.09-8.99,21.09-13.22,6.61-4,12.73-7.65,16.88-10.3.98.53,2.37,1.08,4.01,1.7,2.17.81,4.94,1.73,8.06,2.75,6.26,2.03,13.97,4.42,21.55,6.97,7.58,2.56,14.93,5.25,20.44,7.85,2.75,1.32,4.99,2.58,6.55,3.76.78.58,1.34,1.13,1.71,1.62.38.49.51.85.54,1.1,0,.09-.02.48-.96,1.11Z" style="fill:#c6c8bf; stroke-width:0px;"/><path d="m314.57,158.43c-1,.41-4.24,4.94-6.2,6.31-.87.6-3.43,1.19-4.49.91-1.08-.3-1.12-1.76-.58-2.54.81-1.15,1.68-2.27,2.65-3.35,2.84-3.18,6.44-5.84,10.76-7.02,5.78-1.59,12.97-1.31,15.77,3.46.38.63.66,1.28.85,1.95-1.58.01-3.08.04-4.51.06-1.94.03-3.82.04-5.67.06-1.08-.99-5.98-.91-8.58.15Z" style="fill:#d3cbf3; stroke-width:0px;"/><path d="m64.57,158.24c.46-1.28.91-2.56,1.46-3.82.15-.35.34-.68.5-1.02.06-.12-.16.25-.06.1.01-.03.03-.06.06-.09.04-.06.19-.25,0-.03-.19.22-.04.06,0,0-.25.28-.53.52-.77.69-.24.18-.44.31-.74.4.03,0,.06-.01.1-.03-.28.04-.07.02.04.03.03,0,.07.01.1.03-.1-.06.03,0,0,0,.09.04.16.09.25.15.41.28.8.6,1.21.88.72.49,1.53.84,2.37,1.06.19.06.62-.21.75-.3.35-.22.71-.5,1-.78.15-.15,1.03-1.02.55-1.15-.78-.21-1.44-.52-2.12-.96-.44-.29-.84-.66-1.3-.94-.6-.37-1.11-.21-1.69.15-1.09.65-1.92,1.62-2.48,2.76-.68,1.39-1.16,2.87-1.69,4.32-.24.63.59.22.84.07.35-.22.71-.49,1-.78.22-.22.52-.49.63-.8l-.03.04Z" style="fill:#f0d0be; stroke-width:0px;"/><path d="m69.48,156.29c2.48.44,2.7,3.57,2.65,5.59-.06,2.79-.65,5.56-1.3,8.27-.22.9-.49,1.78-.65,2.7-.06.34.77-.19.83-.22.31-.22.84-.6.91-1.03.4-2.12,1.05-4.2,1.43-6.34.47-2.61.97-5.66.07-8.23-.4-1.15-1.18-1.99-2.4-2.21-.38-.07-.93.49-1.16.72-.09.09-.69.71-.37.77v-.02Z" style="fill:#f0d0be; stroke-width:0px;"/><path d="m69.59,5.13c-4.11,18.99-3.49,38.51-2.17,57.76,1.33,19.25,3.18,38.65,3.01,58.05-.1,11-.85,21.99-2.62,32.86,0,.07.81-.32.87-.63,3.17-19.41,3.02-39.15,1.9-58.75-1.09-19.22-3.36-38.42-3.29-57.68.03-10.82.88-21.64,3.18-32.24,0-.06-.8.32-.87.63h-.01Z" style="fill:#f0d0be; stroke-width:0px;"/><path d="m66.85,171.11c.29-5.35.91-10.67,1.86-15.95,0-.07-.81.32-.87.63-.94,5.28-1.56,10.6-1.86,15.95,0,.1.85-.34.87-.63Z" style="fill:#f0d0be; stroke-width:0px;"/><path d="m66.06,172.61c-2.77-22.32-.8-44.78,1.55-67.04,2.34-22.26,4.39-44.46,4.36-66.9-.01-12.69-.55-25.39-1.5-38.05,0-.15-.88.35-.87.63,1.69,22.63,2.03,45.38.59,68.05-1.41,22.22-4.8,44.25-5.98,66.5-.66,12.49-.56,25.02.97,37.43.01.16.9-.35.87-.63h.01Z" style="fill:#f0d0be; stroke-width:0px;"/><path d="m69.64,1.64c-6.6,6.09-6.1,15.41-4.7,23.53,1.78,10.33,3.26,20.65,4.07,31.11,1.59,20.82,1.15,41.75,0,62.58-.66,11.82-1.55,23.62-2.45,35.42,0,.1.84-.32.87-.63,3.05-40.1,6.12-80.73-.16-120.68-1.56-9.89-5.84-23.35,2.78-31.31.56-.52-.1-.31-.4-.03h-.01Z" style="fill:#f0d0be; stroke-width:0px;"/><path d="m382.94,168.54v-8.47c0-.57-.83-.49-1.36-.3-.65.25-1.55.84-1.55,1.41v8.47c0,.57.82.49,1.35.3.65-.25,1.55-.84,1.55-1.41Z" style="fill:#d4d4d8; stroke-width:0px;"/><path d="m393.86,158.5c-.6,4.81-1.05,9.67-1.83,14.45-.46,2.8-.91,5.6-3.73,6.5-1.65.52-1.96.13-3.17-1.15-1.22-1.33-2.73-1.25-2.98-2.96-.31-1.98.49-3.7-.32-5.51-.77-1.71-.06-5.42,0-7.31.06-2.36-.22-4.57,1.46-6.18.71-.68.01-1.25.86-1.66-.55-12.22.4-24.59,1.08-36.84,1.65-30.32,1.61-60.75-.15-91.07-.38-6.5-.82-13.11.46-19.47.29-1.49.74-3.05,1.81-4.08,1.09-1.03,2.99-1.3,3.98-.18.65.74.75,1.8.78,2.79.24,6.28-.77,12.53-1.3,18.8-1.77,20.86,1.81,41.82,1.15,62.76-.72,22.26-6.23,44.67-2.99,66.62,1.34.24,2.61.8,3.83,1.43.81.43.85,1.19.59,1.93.96-.25.65-.12.47,1.16Z" style="fill:#faddc8; stroke-width:0px;"/><path d="m383.87,158.28c.46-1.27.9-2.55,1.46-3.77.09-.19.18-.38.28-.56.04-.07.07-.15.12-.21.09-.18-.03.04.09-.13.04-.06.09-.12.12-.16-.07.12-.12.12,0,.01-.13.13-.21.21-.34.31-.27.21.21-.1-.24.16-.03,0-.24.12-.1.06-.18.09-.04.04-.04.03.09,0,.18,0,.27.03.19.04.32.12.52.24.53.31,1.02.68,1.55,1,.91.55,1.89.97,2.9,1.25.13.03.41-.15.5-.19.24-.15.47-.32.68-.53.1-.1.69-.68.37-.77-.97-.28-1.9-.68-2.77-1.21-.56-.34-1.09-.75-1.66-1.06-.49-.27-.9-.32-1.41-.07-.96.46-1.68,1.33-2.17,2.25-.72,1.37-1.21,2.87-1.74,4.33-.15.43.38.15.56.04.37-.22.94-.62,1.09-1.05v-.02Z" style="fill:#f0d0be; stroke-width:0px;"/><path d="m390.72,156.29c2.87.55,2.28,5.71,2.12,7.71-.34,3.91-1.18,7.77-2.11,11.57-.28,1.14-.62,2.27-.83,3.42-.06.34.77-.19.83-.22.32-.22.84-.6.91-1.03.53-2.83,1.39-5.6,1.94-8.43.74-3.7,1.62-7.89.88-11.65-.25-1.27-.8-2.59-2.21-2.87-.55-.1-1.8,1.44-1.53,1.49h-.02Z" style="fill:#f0d0be; stroke-width:0px;"/><path d="m388.47,155.64c-4.69-10.36-2.71-21.89-.88-32.67,1.96-11.59,3.33-23.23,4.14-34.95,1.62-23.54,1.21-47.17.44-70.73-.1-3.13-.21-6.27-.32-9.39-.06-1.68-.1-3.36-.18-5.06-.03-.77.06-2.21-.77-2.68-1.66-.96-2.33,2.76-.66,1.39.49-.4.31-.63-.19-.22.41-.34-.06-.57-.32-.57.72,0,.94,1.09,1.02,1.55.18,1.08.1,2.24.13,3.32.09,2.65.19,5.29.28,7.95.18,5.29.35,10.6.49,15.89.28,10.6.41,21.2.28,31.8-.27,21.12-1.78,42.18-5.32,63.02-1.8,10.6-3.58,21.91,1.02,32.06.04.12.96-.46.84-.71l.02.02Z" style="fill:#f0d0be; stroke-width:0px;"/><path d="m389.59.93c-10.2,16.13-5.61,35.79-2,53.19,2.12,10.26,3.37,20.45,3.26,30.94-.13,10.53-1.21,21.01-2.17,31.47-1.09,11.78-2.18,23.56-3.26,35.34,0,.1.84-.32.87-.63.96-10.33,1.92-20.67,2.86-31,.94-10.33,2.03-20.46,2.45-30.74.41-10.27-.13-20.37-2.02-30.46-1.89-10.08-4.45-19.46-5.17-29.41-.72-10,.47-20.43,5.94-29.06.27-.43-.62.16-.74.35h-.01Z" style="fill:#f0d0be; stroke-width:0px;"/><path d="m385.3,150.31c.86-9.75,1.73-19.5,2.58-29.25.85-9.74,2.02-19.31.93-29.03-1.08-9.55-2.3-18.96-2.4-28.6-.1-9.79.49-19.58,1.46-29.31,1.08-10.85,2.59-21.66,4.13-32.46,0-.09-.83.32-.87.63-2.73,19.28-5.45,38.64-5.58,58.16-.06,9.64.72,19.15,1.97,28.7.62,4.7,1.06,9.39.93,14.14-.13,4.75-.66,9.83-1.09,14.74-.97,10.97-1.93,21.94-2.9,32.9,0,.1.84-.32.87-.63h-.02Z" style="fill:#f0d0be; stroke-width:0px;"/><path d="m385.96,155.76c-1.3,6.83-1.99,13.75-2.08,20.7,0,.12.85-.34.87-.63.09-6.94.78-13.87,2.08-20.7,0-.07-.81.32-.87.63Z" style="fill:#f0d0be; stroke-width:0px;"/><path d="m386.92,176.83c1.61-6.97,2.31-14.09,2.14-21.24,0-.13-.87.34-.87.63.19,7.15-.53,14.28-2.14,21.24,0,.06.8-.32.87-.63Z" style="fill:#f0d0be; stroke-width:0px;"/><path d="m69.46,172.55c1.3-6.05,1.86-12.22,1.65-18.4,0-.13-.87.34-.87.63.19,6.18-.35,12.35-1.65,18.4,0,.06.8-.32.87-.63Z" style="fill:#f0d0be; stroke-width:0px;"/><path d="m60.99,159.98l-.04,5.87c0,1.47-.37,3.49.59,4.75,1.92,2.52,5.85.78,8.28,2.26.25.15.94-.65.84-.71-2.43-1.47-6.17.19-8.18-2.12-1.06-1.22-.69-3.3-.68-4.79l.04-5.87c0-.12-.87.34-.87.63h.01Z" style="fill:#f0d0be; stroke-width:0px;"/></g></g></svg>