<?xml version="1.0" encoding="utf-8"?>
<!-- Generator: Adobe Illustrator 25.2.1, SVG Export Plug-In . SVG Version: 6.00 Build 0)  -->
<svg version="1.1" xmlns="http://www.w3.org/2000/svg" xmlns:xlink="http://www.w3.org/1999/xlink" x="0px" y="0px"
	 viewBox="0 0 1132.86 331.24" style="enable-background:new 0 0 1132.86 331.24;" xml:space="preserve">
<g id="Ebene_1">
	<path d="M275.75,134.14v4.43c26.47,0,38.58,16.74,38.58,42.7l5.05-0.05c0-23.38,19.06-42.64,47.38-42.64v-4.43H275.75z
		 M1034.49,134.14v4.43c27.19,4.94,52.64,34.04,52.64,87.86s-25.44,82.92-52.64,87.92v4.38c51.55,0,90.49-40.38,90.49-92.29
		S1086.04,134.14,1034.49,134.14z M632.71,129.55l-0.88,4.07c23.59,4.84,42.59,42.03,42.59,92.81s-19,87.97-42.59,92.81l0.88,4.07
		c44.86-9.27,79.57-49.08,79.57-96.88C712.28,178.69,677.57,138.82,632.71,129.55z M553.3,226.43c0-50.78,19.06-87.97,42.64-92.81
		l-0.88-4.07c-44.91,9.27-79.57,49.13-79.57,96.88c0,47.79,34.66,87.61,79.57,96.88l0.88-4.07
		C572.35,314.4,553.3,277.21,553.3,226.43z M212.3,134.14h-64.07v4.43c19.26,0,29,5.61,37.13,15.97l129.17,164.19h4.38v-49.7
		L212.3,134.14z M887.6,259.7c0,30.03-19.83,54.64-50.68,54.64v4.38h55.78V259.7H887.6z M428.09,271.65V134.14h-35.23v137.51
		c0,25.96-12.1,42.7-38.58,42.7v4.38h112.38v-4.38C440.2,314.35,428.09,297.61,428.09,271.65z M454.2,134.14v4.43
		c26.88,0,47.33,19.26,47.33,42.64l5.1,0.05v-47.12H454.2z M916.03,134.14v4.43c26.47,0,38.63,16.74,38.63,42.64v90.44
		c0,25.91-12.15,42.7-38.63,42.7v4.38h73.8V157.06c0-12.77,6.54-18.49,17.77-18.49v-4.43H916.03z M729.64,134.14v4.43
		c26.47,0,38.58,16.74,38.58,42.64v90.44c0,25.91-12.1,42.7-38.58,42.7v4.38h73.8V181.21c0-25.91,12.1-42.64,38.58-42.64v-4.43
		H729.64z M162.6,302.24c-3.45,2.11-14.27,8.7-29.56,8.7c-29.1,0-51.35-15.61-51.35-54.59v-75.14c0-25.91,12.1-42.64,38.58-42.64
		v-4.43H7.88v4.43c26.47,0,38.58,16.74,38.58,42.64v75.14c0,40.17,29.97,65.1,71.54,65.1c28.33,0,44.4-13.65,47.12-15.86
		L162.6,302.24z M849.44,11.66c-26.16,0-44.7,17.61-44.7,43.83c0,26.22,18.54,43.83,44.7,43.83c26.22,0,44.76-17.61,44.76-43.83
		C894.19,29.28,875.65,11.66,849.44,11.66z M849.44,82.17c-14.37,0-24.05-11.69-24.05-26.68c0-14.99,9.68-26.63,24.05-26.63
		c14.37,0,24.1,11.64,24.1,26.63C873.54,70.48,863.81,82.17,849.44,82.17z M646.57,14.39H616.9v82.2h30.59
		c27.91,0,46.09-16.74,46.09-41.3C693.59,28.61,675.36,14.39,646.57,14.39z M645.64,79.7h-9.37V31.08h9.84
		c14.99,0,26.83,6.9,26.83,24.21C672.94,72.08,661.71,79.7,645.64,79.7z M542.79,14.39v49.85c0,9.22-5.25,16.94-16.07,16.94
		c-10.66,0-16.12-7.57-16.12-16.94V14.39h-19.73v51.25c0,18.95,13.24,33.17,35.85,33.17c20.86,0,35.9-13.18,35.9-33.17V14.39H542.79
		z M295.89,36.8c0-5.46,4.43-8.34,11.49-8.34c6.8,0,12.67,4.17,14.52,6.44L334,21.86c-3.5-3.14-13.24-9.53-26.27-9.53
		c-16.17,0-31.16,8.03-31.16,25.8c0,28.53,39.45,20.81,39.45,35.38c0,4.89-3.3,9.01-11.43,9.06c-8.6,0.05-15.71-5.56-18.33-8.7
		L274.1,87.06c3.76,4.12,14.06,11.59,30.49,11.59c18.18,0,31.47-9.79,31.47-27.35C336.06,43.85,295.89,49.78,295.89,36.8z
		 M739.17,14.39v82.2h19.93v-82.2H739.17z M378.39,14.39v16.89h23.23v65.31h19.83V31.29h23.23V14.39H378.39z"/>
</g>
<g id="Ebene_2">
</g>
</svg>
