<svg xmlns="http://www.w3.org/2000/svg" height="55" fill="none" viewBox="0 0 461 92"><path fill="#000" d="M179.747 75.226h-56.899v-4.054h.337c3.393 0 5.708-.249 6.876-.741 1.068-.447 1.447-.855 1.447-2.25 0-.715-.647-2.54-2.236-6.297l-5.413-13.039h-25.82l-1.764 4.328c-2.426 5.801-4.072 10.093-4.22 12.192-.106 1.447-.06 3.232 1.222 4.208 1.388 1.058 3.215 1.593 5.429 1.593h.336v4.055H49.394v-4.055h2.821c2.95 0 5.015-.373 6.134-1.108 1.095-.72 1.803-1.861 2.1-3.398.334-1.722.47-4.733.47-10.399V39.344h-36.76v16.917c0 5.299.122 8.211.417 10.042.266 1.642.944 2.873 2.009 3.663 1.081.797 3.212 1.2 6.332 1.2h2.187v4.055H2.177v-4.055h2.187c2.984 0 5.066-.373 6.188-1.108 1.098-.72 1.814-1.864 2.128-3.4.352-1.72.496-4.73.496-10.397V21.18c0-5.647-.165-9.336-.496-10.962-.314-1.547-.973-2.626-1.957-3.205-1.02-.598-3.337-.903-6.887-.903h-1.66v-3.1h32.928v3.1h-1.659c-3.418 0-5.678.281-6.716.83-.998.53-1.681 1.547-2.025 3.024-.36 1.55-.545 5.325-.545 11.216v13.856h36.763V21.18c0-5.65-.158-9.34-.47-10.965-.297-1.547-.945-2.626-1.93-3.205-1.016-.597-3.333-.903-6.887-.903h-2.241V3.01h33.298v3.1H81.3c-3.453 0-5.73.281-6.768.83-.998.53-1.68 1.547-2.025 3.024-.363 1.55-.547 5.323-.547 11.216v35.087c0 5.298.114 8.21.393 10.045.25 1.639.924 2.87 2.008 3.656.372.27.89.503 1.537.687a8.917 8.917 0 0 0 4.833-.376c.117-.048.238-.1.36-.154a8.94 8.94 0 0 0 .542-.254c.139-.073.277-.143.41-.216.27-.155.593-.347.91-.577a8.049 8.049 0 0 0 1.275-1.146c1.268-1.426 3.222-4.006 5.542-9.94.177-.527 1.009-2.54 2.543-6.128l20.92-49.854h2.509l24.04 57.029 3.277 7.489c.694 1.585 1.64 2.859 2.811 3.784 1.892 1.314 4.098 1.839 6.424 1.533 1.013-.181 1.816-.46 2.369-.822 1.097-.72 1.805-1.863 2.1-3.397.312-1.607.469-5.428.469-11.36V21.18c0-5.65-.157-9.34-.469-10.965-.295-1.547-.954-2.623-1.954-3.202-1.035-.6-3.364-.903-6.917-.903h-1.659V3.024l9.313-.328c7.18-.246 12.843-.367 16.827-.367 7.402 0 13.187.59 17.201 1.755 4.044 1.174 7.408 3.286 9.996 6.275 2.6 3.005 3.917 6.84 3.917 11.405 0 3.946-.897 7.484-2.664 10.51-1.773 3.035-4.348 5.371-7.655 6.94-3.288 1.56-9.129 2.353-17.355 2.353h-7.544V56.27c0 5.296.114 8.206.393 10.045.25 1.64.925 2.87 2.009 3.657 1.1.798 3.239 1.203 6.359 1.203h2.716zM99.869 44.502h22.34l-11.181-26.635zm68.402-7.205h4.792c4.069 0 7.397-.411 9.891-1.223 2.697-.879 4.586-1.639 6.164-4.1 1.648-2.57 2.485-5.79 2.485-9.58 0-5.785-1.431-10.08-4.258-12.763-2.83-2.686-7.511-4.049-13.913-4.049-2.185 0-3.917.06-5.161.179zm70.21 37.929h-33.507v-4.054h2.239c2.984 0 5.066-.373 6.185-1.11 1.098-.719 1.805-1.86 2.101-3.396.333-1.723.471-4.733.471-10.4V21.18c0-5.65-.16-9.34-.471-10.965-.298-1.547-.952-2.623-1.954-3.202-1.036-.6-3.364-.903-6.918-.903h-1.656V3.024l9.311-.328c7.18-.246 12.842-.367 16.827-.367 7.399 0 13.186.59 17.198 1.755 4.044 1.174 7.408 3.286 9.996 6.275 2.599 3.004 3.917 6.84 3.917 11.405 0 3.946-.895 7.484-2.665 10.51-1.77 3.035-4.345 5.369-7.654 6.94-3.291 1.56-9.129 2.353-17.358 2.353h-7.538V56.27c0 5.301.114 8.212.393 10.045.249 1.64.924 2.87 2.008 3.657 1.101.798 3.239 1.203 6.359 1.203h2.716zm-11.476-37.93h4.792c4.071 0 7.4-.41 9.891-1.222 2.702-.879 4.589-1.639 6.166-4.1 1.651-2.57 2.488-5.793 2.488-9.58 0-5.785-1.434-10.08-4.258-12.763-2.83-2.686-7.513-4.049-13.913-4.049-2.185 0-3.919.06-5.163.179zm85.947 37.93h-31.233v-4.054h1.499c2.984 0 5.066-.373 6.185-1.11 1.098-.718 1.805-1.862 2.101-3.396.333-1.718.469-4.73.469-10.4V47.55l-17.822-29.202c-3.599-5.855-6.02-9.393-7.191-10.51-1.13-1.076-3.225-1.658-6.226-1.726l-.328-.008V3.01h29.753v3.1h-.336c-3.515 0-7.708.62-7.708 3.567 0 .912.81 2.667 2.548 5.526l16.151 26.505 13.832-23.211c2.193-3.646 3.375-6.272 3.727-8.265.22-1.258.32-1.831-.943-2.616-1.109-.687-3.182-1.506-6.774-1.506h-.336v-3.1h24.097v3.054l-.29.04c-3.155.447-5.733 1.631-7.663 3.522-1.962 1.925-4.518 5.482-7.587 10.567l-16.027 26.67v9.404c0 5.698.165 8.87.548 10.602.347 1.566 1.092 2.68 2.217 3.316 1.16.654 3.515.987 7.001.987h.336zm59.485.227h-16.548l.659-2.01h1.024c1.123 0 2.082-.202 2.857-.608.765-.4 1.285-.86 1.553-1.368.299-.566.618-1.558 1.144-3.308l7.346-24.228c.588-1.904.853-2.824.853-3.25 0-1.218-1.119-1.81-3.415-1.81h-1.295l.52-1.915h15.439l-.52 1.915h-.949c-.867 0-1.664.154-2.366.46-.681.297-1.171.708-1.459 1.227-.208.382-.685 1.418-1.501 4.114l-7.121 23.33c-.466 1.528-.685 2.486-.685 3.013 0 .841.357 1.436 1.084 1.82.764.403 1.65.609 2.643.609h1.393zm36.231 13.423c-2.076 0-3.846-.706-5.272-2.099-1.393-1.363-2.865-3.54-4.372-6.47-2.022-3.883-3.705-6.344-5.006-7.312-1.301-.958-2.548-1.445-3.697-1.445-2.724 0-4.448 1.093-5.286 3.34-.504 1.342-1.176 2.024-2.003 2.024-.807 0-1.255-.474-1.255-1.34 0-1.36.792-2.947 2.415-4.867 2.069-2.437 5.514-5.59 10.246-9.377 7.243-5.775 12.273-9.95 14.957-12.401 2.42-2.215 4.35-4.173 5.743-5.829-.948.233-1.602.233-2.702.233h-.084c-1.651 0-3.659-.235-5.98-.703-2.247-.47-4.147-.709-5.648-.709-3.139 0-5.107 1.169-6.02 3.568l-.054.149-1.93-.136.103-.265c1.095-2.831 2.618-5.052 4.523-6.605 1.92-1.557 3.882-2.35 5.836-2.35 1.889 0 4.353.974 7.319 2.9 2.111 1.374 3.634 2.069 4.523 2.069 1.372 0 2.326-.915 2.922-2.797.467-1.46 1.079-2.172 1.862-2.172.846 0 1.31.514 1.31 1.45 0 .449-.225 1.117-.683 2.045-.448.911-1.605 2.453-3.532 4.72a62.735 62.735 0 0 1-6.096 6.239c-2.917 2.59-6.885 5.882-11.802 9.774-5.732 4.566-9.213 7.546-11.037 9.453 1.195-.455 2.234-.552 3.635-.552 1.45 0 2.876.333 4.231.993a12.287 12.287 0 0 1 3.554 2.583c.997 1.052 2.355 2.769 4.035 5.103 2.749 3.762 5.064 5.442 7.514 5.442 2.645 0 4.226-1.458 4.827-4.463l.036-.17h1.889l-.041.249c-.493 3.064-1.526 5.468-3.079 7.156-1.534 1.682-3.575 2.572-5.901 2.572"/><path fill="#000" d="M450.074 75.453h-32.51l.637-2.023h.973c1.122 0 2.076-.205 2.843-.606.757-.4 1.28-.862 1.559-1.374.295-.54.61-1.433 1.165-3.288l7.373-24.228c.501-1.664.81-2.791.81-3.281 0-1.198-1.116-1.78-3.415-1.78H428.1l.539-1.914h27.71l.149 9.02h-1.697l-.038-.163c-.529-2.112-1.068-3.34-1.987-4.533-.818-1.06-1.962-1.882-2.908-2.093-.949-.211-2.919-.317-5.847-.317h-4.795l-4.697 15.363h2.467c2.577 0 4.551-.357 5.862-1.069 1.394-.749 2.497-2.204 3.586-4.709l.055-.13h1.897l-4.659 15.366h-1.887l.052-.255c.203-.976.306-1.923.306-2.82 0-1.49-.187-2.527-.545-3.09-.358-.556-.816-.897-1.407-1.043-.612-.157-1.753-.233-3.382-.233h-2.963l-3.526 11.668c-.553 1.866-.618 2.561-.618 2.926 0 .947.404 1.615 1.192 1.985.841.398 2.337.598 4.454.598h2.222c3.752 0 6.714-.69 8.796-2.047 2.133-1.393 3.597-3.148 4.887-5.864l.06-.116h1.786zm-112.432.679c-3.426 0-6.397-1.634-8.833-4.852a11.116 11.116 0 0 0-1.678 3.567l-.043.16h-2.004l1.426-12.725h1.743l.008.203c.176 3.997 1.084 6.634 2.944 8.549 1.762 1.81 3.813 2.723 6.109 2.723 1.941 0 3.649-.651 5.074-1.95 1.358-1.23 2.02-2.82 2.02-4.852 0-1.395-.315-2.199-.968-3.362-.645-1.15-1.816-2.515-3.475-4.06-2.724-2.569-4.594-4.67-5.567-6.25-.981-1.598-1.48-3.486-1.48-5.612 0-2.877 1.119-5.541 3.328-7.922 2.134-2.298 4.619-3.467 7.389-3.467 3.144 0 5.551 1.55 7.164 4.604.656-1.115 1.166-2.38 1.518-3.768l.041-.162h1.675l-1.551 11.6h-1.775v-.211c-.016-2.475-.315-4.038-1.063-5.574-.683-1.412-1.569-2.5-2.629-3.23a6.096 6.096 0 0 0-3.523-1.098c-1.89 0-3.427.733-4.557 2.177-1.011 1.29-1.447 2.792-1.447 5.02 0 1.458.789 2.718 1.667 3.992.816 1.185 1.894 2.326 4.12 4.363 2.672 2.46 4.374 4.514 5.057 6.11.64 1.487.949 3.077.949 4.86 0 3.11-1.255 5.806-3.735 8.016-2.331 2.088-4.995 3.15-7.904 3.15"/></svg>