<svg xmlns="http://www.w3.org/2000/svg" width="164" height="55" fill="none"><path fill="#000" d="M67.292 35.61a10.726 10.726 0 0 0-3.658-2.312c-1.293-.486-2.71-.733-4.21-.733-3.021 0-5.72 1.053-7.805 3.045a10.211 10.211 0 0 0-2.44 3.625c-.569 1.425-.857 3.032-.857 4.777 0 3.211 1.151 5.99 3.33 8.036C53.678 53.95 56.395 55 59.303 55c1.598 0 3.07-.248 4.373-.737a10.087 10.087 0 0 0 3.43-2.154c2.218-2.041 3.391-4.968 3.391-8.463 0-3.212-1.138-6.065-3.206-8.035m-3.19 15.543c-1.013 1.914-2.747 2.885-4.677 2.885-1.933 0-3.671-.977-4.688-2.904-.931-1.764-1.423-4.28-1.423-7.275 0-3.231.541-5.881 1.566-7.664 1.018-1.771 2.708-2.669 4.545-2.669 2.006 0 3.777 1.042 4.787 3.095.866 1.76 1.324 4.221 1.324 7.115 0 3.078-.496 5.642-1.434 7.417m46.845.179c-.515-.664-1.011-1.343-1.498-1.994-2.026-2.706-3.944-5.267-6.075-7.684 1.863-1.586 5.721-5.607 6.265-6.151 1.597-1.598 4.418-1.57 4.418-1.57v-.784h-8.769v.776s2.72.093 2.72.907c0 1.821-8.006 8.465-8.131 8.465v-7.821c0-.687.494-1.018 1.007-1.204.591-.214 2.328-.336 2.328-.336v-.787H92.475v.788s1.717.094 2.301.386c.515.256 1.104.593 1.104 1.243v16.671c0 .618-.555.878-1.096 1.118-.472.21-2.31.3-2.31.3v.786h10.646v-.787s-1.767-.129-2.236-.354c-.5-.23-1.008-.625-1.008-1.245v-7.768l.729.005a91.462 91.462 0 0 1 4.002 4.932c1.983 2.648 1.975 3.3 1.992 3.437.128 1.066-1.968.999-1.968.999v.781h10.733v-.786c-.389-.024-2.632-.022-4.418-2.323m22.303 1.527c-.59.637-2.54.61-4.237.61 0 0-2.306.097-2.84-.388-.34-.309-.503-.814-.503-1.983v-7.22h2.248c1.528 0 2.03.432 2.381.838l.008.008c.172.184.454.724.702 1.344.269.669.452 1.303.492 1.696l.027.265h.864v-9.104h-.851l-.038.25c-.12.782-.723 2.456-1.183 2.89l-.015.015c-.309.336-.776.844-2.387.844h-2.249v-8.863h2.673c.952 0 2.108.061 2.808.149.544.07 1.297.695 2.066 1.714.656.869 1.417 2.235 1.505 2.833h.82v-5.62h-17.698v.79s1.622.064 2.46.386l.006.003c.528.19.743.549.743 1.237v16.604c0 .639-.213.97-.736 1.144l-.006.002c-.522.236-2.467.33-2.467.33v.79h18.889l.433-6.65h-.777s-1.714 3.548-3.138 5.087m20.915-19.716v.79c1.295.037 2.649.272 3.081.616.594.493.921 1.963.921 4.14v9.516l-11.882-15.062h-6.977v.799c.32.04 2.301.216 3.07.902.556.495.932 1.441.932 2.297v11.984c0 2.246-.264 3.456-.854 3.922-.538.404-2.905.64-2.905.64v.771h8.807v-.786c-1.248-.066-2.705-.382-3.087-.683-.409-.323-.885-1.056-.885-3.953V36.97l13.872 17.643h.986V38.66c0-1.307.11-3.577.845-4.098l.005-.004c.543-.402 2.086-.57 2.909-.642v-.771zm-73.127 20.16h-.002c-.516-.203-1.061-.586-1.061-1.24l.004-18.923h-7.556v.783s1.66.067 2.489.398l.004.001c.544.2 1.08.558 1.08 1.238v16.553c0 .629-.544.984-1.083 1.188l-.005.002c-.408.195-2.41.36-2.41.36v.77h11.025v-.778s-2.043-.157-2.485-.352m51.973-26.352c-.815-.477-1.112-1.03-1.42-1.8-.561-1.375-9.945-25.141-9.945-25.141h-1.169c-.53 1.485-7.456 18.386-9.782 23.897-.642 1.52-1.356 2.47-2.119 2.975-.827.547-2.544.563-2.544.563v1.044h10.302v-1.044s-4.461-.03-4.41-1.402c.013-.34.113-.958.585-2.186.302-.786 1.382-3.774 1.968-5.273h8.92l2.584 6.828c.199.535.172.888.14 1.031-.182.808-1.834.808-4.208 1.002v1.044h13.62v-1.045s-1.707-.015-2.522-.493m-17.98-9.793 3.961-9.805 3.822 9.805zM32.604 53.04l-.002-.002c-.823-.323-1.483-.928-1.483-1.962V23.072H19.748v.913s2.308.104 3.617.595l.005.001c.856.314 1.554.9 1.554 1.96v24.61c0 .982-.71 1.564-1.557 1.886l-.006.002c-.61.26-3.5.532-3.5.532v.9h16.357v-.908s-3.038-.233-3.614-.524m1.576-29.967v.844c5.28.654 6.825 5.13 6.843 7.235.022 2.683-.549 7.87-6.843 8.438v.816c10.829 0 12.974-5.658 12.974-9.167 0-4.956-2.67-8.39-12.974-8.166"/><path fill="#000" d="M21.868 39.606c-5.152-1.39-9.693-4.886-9.682-10.795V4.37c0-1.684.627-2.282 1.793-2.677.856-.29 3.475-.607 4.357-.634V.01L0 0v1.108c.8.037 3.234.178 4.178.668 1.058.55 1.747 1.315 1.747 2.595v23.35c0 6.763 6.385 12.013 15.943 12.685zM30.748.015V1.06c1.799.035 4.522.497 5.716 1.32 1.194.87 1.778 3.48 1.778 11.043l.355 6.549h.818l.355-6.549c0-7.3.584-10.172 1.777-11.043 1.194-.823 3.918-1.285 5.717-1.32V.015zm51.512 33.13v.572c3.915.517 4.915 3.367 4.888 4.909-.032 1.792-.18 5.409-4.888 5.725v.553c7.1 0 8.569-3.839 8.569-6.22 0-3.361-1.578-5.69-8.57-5.54m-7.487-13.588c-.43 1.181-3.01 5.624-4.173 6.827-.78.776-3.01.841-5.228.841-1.798 0-2.879-.08-3.44-.5-.493-.369-1.04-1.09-1.04-2.66V3.025c0-.92.673-1.407 1.354-1.623.8-.255 3.142-.32 3.142-.32V.035h-14.42v1.046c1.203.035 2.587.229 3.213.506.835.368 1.362 1.043 1.362 1.776v22.2c0 .856-.672 1.18-1.362 1.446-.553.212-2.059.388-3.209.437v1.043H75.2l.569-8.933zm27.596 0c-.431 1.181-3.01 5.624-4.173 6.827-.78.776-3.01.841-5.228.841-1.798 0-2.879-.08-3.441-.5-.492-.369-1.04-1.09-1.04-2.66V3.025c0-.92.673-1.407 1.355-1.623.8-.255 3.141-.32 3.141-.32V.035h-14.42v1.046c1.204.035 2.588.229 3.214.506.835.368 1.362 1.043 1.362 1.776v22.2c0 .856-.672 1.18-1.363 1.446-.552.212-2.058.388-3.208.437v1.043h24.227l.57-8.933z"/></svg>