<?xml version="1.0" encoding="UTF-8"?>
<svg id="Ebene_1" xmlns="http://www.w3.org/2000/svg" xmlns:xlink="http://www.w3.org/1999/xlink" viewBox="0 0 526.04 514.58">
    <defs>
        <style>.cls-1{fill:#fff;}.cls-2{fill:#070606;}.cls-3{clip-path:url(#clippath);}.cls-4{fill:none;}</style>
        <clipPath id="clippath">
            <rect class="cls-4" x="12.5" y="6.77" width="501.04" height="501.04"/>
        </clipPath>
    </defs>
    <rect class="cls-2" width="526.04" height="514.58"/>
    <g class="cls-3">
        <path class="cls-1"
              d="M348.88,418.63c0-14.52,3.58-21.09,8.55-21.09,7.22,0,10.26,12.11,10.26,23.13,0,12.36-3.31,21.09-8.68,21.09-7.29,0-10.13-12.1-10.13-23.13m-7.75,
              2.42c0,9.05,3.58,23.57,16.62,23.57,11.39,0,17.69-10.65,17.69-26.44,0-10.13-3.51-23.51-16.63-23.51-12.26,0-17.68,11.53-17.68,26.37m-15.33,11.02c0,
              5.86-4.01,9.62-8.98,9.62s-9.3-4.27-9.3-9.94c0-6.49,4.07-10.38,7.51-12.36,5.67,3.31,10.76,6.3,10.76,12.67m-7.83-17.32c-5.8-3.25-8.54-5.86-8.54-9.81,
              0-3.56,2.23-7.52,7.77-7.52,3.82,0,7,2.8,7,7.58,0,6.43-4.39,8.92-6.23,9.75m3.63,1.46c3.51-1.33,9.36-5.09,9.36-11.78,0-6.18-5.29-9.75-13.06-9.75-10.82,
              0-15.09,6.57-15.09,11.53,0,5.41,3.95,8.91,9.23,11.66-6.18,2.48-11.72,7.2-11.72,14.27,0,7.83,6.57,12.48,15.99,12.48,10.71,0,16.89-6.62,16.89-14.15,
              0-7.9-7.08-11.85-11.6-14.27m-35.92,15.86c0,5.86-4.02,9.62-8.98,9.62s-9.3-4.27-9.3-9.94c0-6.49,4.08-10.38,7.52-12.36,5.67,3.31,10.76,6.3,10.76,
              12.67m-7.84-17.32c-5.79-3.25-8.54-5.86-8.54-9.81,0-3.56,2.23-7.52,7.77-7.52,3.82,0,7.01,2.8,7.01,7.58,0,6.43-4.4,8.92-6.25,9.75m3.63,1.46c3.51-1.33,
              9.36-5.09,9.36-11.78,0-6.18-5.29-9.75-13.06-9.75-10.84,0-15.1,6.57-15.1,11.53,0,5.41,3.95,8.91,9.24,11.66-6.18,2.48-11.72,7.2-11.72,14.27,0,7.83,
              6.56,12.48,15.99,12.48,10.7,0,16.87-6.62,16.87-14.15,0-7.9-7.06-11.85-11.59-14.27M216.84,63.19c0-2.73-2.73-3.51-8.18-3.51-15.21,0-39.76,1.17-49.11,
              1.17-10.13,0-34.69-1.17-55.34-1.17-5.85,0-8.58,.78-8.58,3.51s2.34,3.51,6.62,3.51c5.46,0,12.08,.39,15.2,1.17,12.87,2.73,15.98,8.97,16.76,22.22,.78,
              12.47,.78,23.38,.78,82.62v111.86c0,76.39,.39,115.37-29.23,145.38-7.79,7.79-13.64,12.08-18.71,14.81-6.63,3.52-8.58,5.07-8.58,7.02s1.56,3.12,3.12,
              3.12c1.94,0,5.07-.77,7.79-2.33,8.18-3.9,14.42-7.02,19.48-10.13,37.42-23,58.08-49.89,66.26-73.67,7.79-21.82,9.36-46.77,9.36-68.99,
              0-19.48-1.18-38.19-1.18-54.95v-72.11c0-59.24,0-70.15,.78-82.62,.78-13.65,3.89-20.27,14.42-22.22,4.67-.78,7.02-1.17,11.3-1.17,4.67,0,7.02-.78,
              7.02-3.51m27.62,332.32c-2.23,1.66-14.46,9.69-14.72,9.81-.32,.19-.64,.51-.64,.89s.32,.7,.52,.7c.25,0,.57-.12,.88-.25,1.4-.57,6.18-3.06,7.39-3.06,
              .95,0,.95,.77,.95,2.3v8.35l.06,10.13c.07,6.11-.06,11.53-.31,14.33-.19,2.04-.51,2.93-2.55,3.38-1.14,.25-4.4,.44-5.1,.44-.26,0-.51,.2-.51,.64s.38,
              .57,1.08,.57c4.07,0,9.42-.19,10.88-.19,1.73,0,5.8,.19,10.65,.19,.7,0,1.01-.12,1.01-.57s-.31-.64-.57-.64c-.52,
              0-3.26-.19-4.21-.38-2.04-.45-2.36-1.4-2.55-3.44-.26-2.8-.26-8.22-.26-14.33v-11.78c0-9.75,.38-16.06,.38-16.56,0-.64-.19-1.34-.77-1.34-.51,0-1.08,
              .45-1.66,.83M447.57,128.28c0-20.65-10.91-38.19-19.48-46.38-6.24-5.84-23.77-22.21-72.49-22.21-17.93,0-40.53,1.17-56.52,1.17-10.91,
              0-35.46-1.17-56.13-1.17-5.84,0-8.57,.78-8.57,3.51s2.33,3.51,6.62,3.51c5.46,0,12.08,.39,15.2,1.17,12.86,2.73,15.98,8.97,16.76,22.22,.78,12.47,
              .78,23.38,.78,82.62v68.6c0,35.86,0,66.64-1.95,83.02-1.56,11.29-3.51,19.87-11.3,21.43-3.51,.78-8.19,1.56-14.03,1.56-4.67,0-6.23,1.17-6.23,3.12,
              0,2.72,2.73,3.89,7.8,3.89,15.6,0,40.15-1.17,49.11-1.17,10.13,0,34.69,1.17,60.4,1.17,4.28,0,7.41-1.17,7.41-3.89,0-1.95-1.94-3.12-6.23-3.12-5.84,
              0-14.42-.78-19.88-1.56-11.7-1.56-14.03-10.13-15.2-21.05-1.94-16.76-1.94-47.55-1.94-83.41V85.41c0-4.29,1.17-6.63,3.12-7.41,3.51-1.17,9.35-1.57,
              15.2-1.57,8.97,0,24.95,2.34,38.98,15.21,21.82,19.49,23,45.6,23,58.46,0,39.76-30.41,64.31-52.24,64.31-8.18,0-10.91,1.17-10.91,4.29,0,2.73,2.73,3.12,
              4.68,3.51,1.94,.39,6.23,.39,8.18,.39,55.35,0,95.88-38.97,95.88-94.32"/>
    </g>
</svg>
