<svg xmlns="http://www.w3.org/2000/svg" xml:space="preserve" style="enable-background:new 0 0 1132.86 331.24" viewBox="0 0 1132.86 331.24"><path d="M275.75 134.14v4.43c26.47 0 38.58 16.74 38.58 42.7l5.05-.05c0-23.38 19.06-42.64 47.38-42.64v-4.43h-91.01zm758.74 0v4.43c27.19 4.94 52.64 34.04 52.64 87.86s-25.44 82.92-52.64 87.92v4.38c51.55 0 90.49-40.38 90.49-92.29s-38.94-92.3-90.49-92.3m-401.78-4.59-.88 4.07c23.59 4.84 42.59 42.03 42.59 92.81s-19 87.97-42.59 92.81l.88 4.07c44.86-9.27 79.57-49.08 79.57-96.88 0-47.74-34.71-87.61-79.57-96.88m-79.41 96.88c0-50.78 19.06-87.97 42.64-92.81l-.88-4.07c-44.91 9.27-79.57 49.13-79.57 96.88 0 47.79 34.66 87.61 79.57 96.88l.88-4.07c-23.59-4.84-42.64-42.03-42.64-92.81m-341-92.29h-64.07v4.43c19.26 0 29 5.61 37.13 15.97l129.17 164.19h4.38v-49.7zM887.6 259.7c0 30.03-19.83 54.64-50.68 54.64v4.38h55.78V259.7zm-459.51 11.95V134.14h-35.23v137.51c0 25.96-12.1 42.7-38.58 42.7v4.38h112.38v-4.38c-26.46 0-38.57-16.74-38.57-42.7m26.11-137.51v4.43c26.88 0 47.33 19.26 47.33 42.64l5.1.05v-47.12zm461.83 0v4.43c26.47 0 38.63 16.74 38.63 42.64v90.44c0 25.91-12.15 42.7-38.63 42.7v4.38h73.8V157.06c0-12.77 6.54-18.49 17.77-18.49v-4.43zm-186.39 0v4.43c26.47 0 38.58 16.74 38.58 42.64v90.44c0 25.91-12.1 42.7-38.58 42.7v4.38h73.8V181.21c0-25.91 12.1-42.64 38.58-42.64v-4.43zM162.6 302.24c-3.45 2.11-14.27 8.7-29.56 8.7-29.1 0-51.35-15.61-51.35-54.59v-75.14c0-25.91 12.1-42.64 38.58-42.64v-4.43H7.88v4.43c26.47 0 38.58 16.74 38.58 42.64v75.14c0 40.17 29.97 65.1 71.54 65.1 28.33 0 44.4-13.65 47.12-15.86zM849.44 11.66c-26.16 0-44.7 17.61-44.7 43.83s18.54 43.83 44.7 43.83c26.22 0 44.76-17.61 44.76-43.83-.01-26.21-18.55-43.83-44.76-43.83m0 70.51c-14.37 0-24.05-11.69-24.05-26.68s9.68-26.63 24.05-26.63c14.37 0 24.1 11.64 24.1 26.63 0 14.99-9.73 26.68-24.1 26.68M646.57 14.39H616.9v82.2h30.59c27.91 0 46.09-16.74 46.09-41.3.01-26.68-18.22-40.9-47.01-40.9m-.93 65.31h-9.37V31.08h9.84c14.99 0 26.83 6.9 26.83 24.21 0 16.79-11.23 24.41-27.3 24.41M542.79 14.39v49.85c0 9.22-5.25 16.94-16.07 16.94-10.66 0-16.12-7.57-16.12-16.94V14.39h-19.73v51.25c0 18.95 13.24 33.17 35.85 33.17 20.86 0 35.9-13.18 35.9-33.17V14.39zM295.89 36.8c0-5.46 4.43-8.34 11.49-8.34 6.8 0 12.67 4.17 14.52 6.44L334 21.86c-3.5-3.14-13.24-9.53-26.27-9.53-16.17 0-31.16 8.03-31.16 25.8 0 28.53 39.45 20.81 39.45 35.38 0 4.89-3.3 9.01-11.43 9.06-8.6.05-15.71-5.56-18.33-8.7L274.1 87.06c3.76 4.12 14.06 11.59 30.49 11.59 18.18 0 31.47-9.79 31.47-27.35 0-27.45-40.17-21.52-40.17-34.5m443.28-22.41v82.2h19.93v-82.2zm-360.78 0v16.89h23.23v65.31h19.83v-65.3h23.23v-16.9z"/></svg>