<svg xmlns="http://www.w3.org/2000/svg" xml:space="preserve" style="enable-background:new 0 0 284.73 28.95" viewBox="0 0 284.73 28.95"><path d="M36.14.37h4.59v28.34h-4.59zm34.81 0v21.21L53.1.47l-.08-.1h-4.2V28.7h4.35V7.57L71.02 28.6l.08.1h4.16V.37zm25.18 5.61 4 8.82h-8.05zm15.16 22.32L98.33.53l-.08-.17H94.2l-.08.17L81.17 28.3l-.19.41h4.74l.08-.17 4.61-10.12h11.41l4.61 10.12.07.17h4.98zm20.7-3.52V.33h-4.6v28.36h18.89l1.88-3.91zm35.03-18.84 4.01 8.84h-8.06zm15.17 22.34L169.22.49l-.07-.17h-4.06l-.08.17-12.97 27.79-.19.41h4.75l.08-.17 4.61-10.12h11.42l4.61 10.12.08.17h4.99zM212.91.5V.22h-4.36v.29l.05 11.51c0 2.7 0 5.04-.05 5.97-.26 5.14-2.95 7.34-8.99 7.34-5.69 0-8.62-2.27-8.71-6.76-.04-2.31-.1-5.66-.1-8.17 0-3.26.09-9.82.1-9.88V.23h-4.74v11.28c0 3.48 0 6.76.09 8.28.43 6.09 4.92 9.18 13.35 9.18 4.82 0 12.96-1.34 13.35-10.28.05-1.44.09-4.71.09-6.6.01-2.97-.08-11.5-.08-11.59m12.91 3.27c.66-.02 2.41-.07 3.98-.07 3 0 4.98.51 6.2 1.6 1.04.89 1.56 2.12 1.56 3.65 0 1.97-1.05 3.25-1.93 3.97-1.23 1.02-2.81 1.44-5.45 1.44-1.16 0-3.55-.08-4.35-.11V3.77zm22.5 21.58s-.37.04-.82.04c-1.72 0-3.06-.57-6.86-4.08-1.68-1.55-3.05-3.12-4.21-4.51 2.09-.82 6.06-3.04 6.06-8.1 0-2.31-.79-4.23-2.36-5.7-2-1.81-5.09-2.68-9.47-2.68l-9.14.04h-.28v28.36h4.59V17.75c.93.03 3.87.11 4.97.11.27 0 .66-.02.86-.03.51.61 3.17 3.83 5.46 6.21 3.29 3.41 5.96 4.81 9.2 4.81 1.05 0 2.04-.16 2.08-.17l.24-.04 1.74-3.39zM269.37 5.9l4.01 8.83h-8.06zm15.17 22.35L271.57.46l-.08-.17h-4.06l-.08.17-12.74 27.83-.19.41h4.75l.08-.17 4.61-10.12 11.19-.05 4.61 10.12.07.17h4.99zM23.55 19.94v5.03c-.63.1-2.53.36-5.2.36-8.66 0-13.43-4.03-13.43-11.34 0-3.05 1.05-5.6 3.03-7.39 2.21-1.97 5.11-2.77 10.03-2.77 5.09 0 8.8 1.31 8.84 1.33l.49.15.79-3.84-.19-.07C27.75 1.34 24.05 0 17.64 0 12.61 0 9.1.78 6.28 2.52 2.23 5.02 0 9.23 0 14.39c0 8.98 6.8 14.55 17.74 14.55 4.13 0 6.49-.42 8.77-.82l1.4-.24.24-.04V15.33h-4.6v2.02z" style="fill:#3d4548"/></svg>