<?xml version="1.0" encoding="utf-8"?>
<!-- Generator: Adobe Illustrator 25.3.1, SVG Export Plug-In . SVG Version: 6.00 Build 0)  -->
<svg version="1.1" id="Ebene_1" xmlns="http://www.w3.org/2000/svg" xmlns:xlink="http://www.w3.org/1999/xlink" x="0px" y="0px"
	 viewBox="0 0 70 30" width="70" height="30" style="enable-background:new 0 0 70 30;" xml:space="preserve">
<style type="text/css">
	.st0{fill:#2A6CB4;}
</style>
<path class="st0" d="M41.4,9.9l0.6-1.7H45V5H25v20h20v-3.2h-2.8l-1-1.2l-1.1,1.2h-7.8v-6.4h-2.6L33,8.2h3.1l0.8,1.7V8.2h3.9
	L41.4,9.9L41.4,9.9z M39.2,11.1l0-0.7l0.3,0.7l1.3,3.5h1.3l1.3-3.5l0.3-0.7v4.2H45V9.2h-2.3l-1,2.7l-0.3,0.7l-0.3-0.7l-1-2.7h-2.3
	v5.3h1.4V11.1L39.2,11.1z M36.3,14.5h1.6l-2.3-5.3h-1.8l-2.4,5.3h1.5l0.4-1h2.6L36.3,14.5L36.3,14.5z M34.3,11l0.3-0.7l0.3,0.7
	l0.6,1.3h-1.6L34.3,11L34.3,11z M33.4,15.5v5.3h4.5v-1.2h-3.1v-0.9h3v-1.1h-3v-0.9h3.1v-1.2H33.4L33.4,15.5z M42.8,20.8h1.8
	l-2.5-2.7l2.5-2.6h-1.7l-1.6,1.7l-1.6-1.7h-1.8l2.5,2.7l-2.5,2.6h1.7l1.6-1.7L42.8,20.8L42.8,20.8z M43.5,18.1l1.5,1.5v-3L43.5,18.1
	L43.5,18.1z"/>
</svg>
