<svg xmlns="http://www.w3.org/2000/svg" xml:space="preserve" width="70" height="30" style="enable-background:new 0 0 70 30"><path d="m41.4 9.9.6-1.7h3V5H25v20h20v-3.2h-2.8l-1-1.2-1.1 1.2h-7.8v-6.4h-2.6L33 8.2h3.1l.8 1.7V8.2h3.9zm-2.2 1.2v-.7l.3.7 1.3 3.5h1.3l1.3-3.5.3-.7v4.2H45V9.2h-2.3l-1 2.7-.3.7-.3-.7-1-2.7h-2.3v5.3h1.4zm-2.9 3.4h1.6l-2.3-5.3h-1.8l-2.4 5.3h1.5l.4-1h2.6zm-2-3.5.3-.7.3.7.6 1.3h-1.6zm-.9 4.5v5.3h4.5v-1.2h-3.1v-.9h3v-1.1h-3v-.9h3.1v-1.2zm9.4 5.3h1.8l-2.5-2.7 2.5-2.6h-1.7l-1.6 1.7-1.6-1.7h-1.8l2.5 2.7-2.5 2.6h1.7l1.6-1.7zm.7-2.7 1.5 1.5v-3z" style="fill:#2a6cb4"/></svg>