<?xml version="1.0" encoding="utf-8"?>
<!-- Generator: Adobe Illustrator 25.0.1, SVG Export Plug-In . SVG Version: 6.00 Build 0)  -->
<svg version="1.1" id="Ebene_1" xmlns="http://www.w3.org/2000/svg" xmlns:xlink="http://www.w3.org/1999/xlink" x="0px" y="0px"
	 width="80" height="40" viewBox="0 0 80 40" style="enable-background:new 0 0 80 40;" xml:space="preserve">
<style type="text/css">
	.st0{clip-path:url(#SVGID_2_);fill:none;stroke:#888888;stroke-miterlimit:10;}
	.st1{fill:#016FD0;}
	.st2{fill:#FFFFFF;}
</style>
<g>
	<defs>
		<rect id="SVGID_1_" x="4" y="4" width="72" height="32"/>
	</defs>
	<clipPath id="SVGID_2_">
		<use xlink:href="#SVGID_1_"  style="overflow:visible;"/>
	</clipPath>
	<rect x="4.8" y="5.1" class="st0" width="70.4" height="29.7"/>
</g>
<g id="layer1" transform="translate(-55.5,-1002.3452)">
	<path id="path3078" class="st1" d="M77.5,1012.2h35.9v10.9l-1.8,1.6l1.8,1.4v6.4H77.5v-10.3l1.1-0.7l-1.1-0.7V1012.2z"/>
	<path id="path3082" class="st2" d="M84.5,1029.1v-5.6h6l0.6,0.8l0.7-0.8h21.7v5.2c0,0-0.6,0.4-1.2,0.4h-12l-0.7-0.9v0.9h-2.4v-1.5
		c0,0-0.3,0.2-1,0.2h-0.8v1.3h-3.6l-0.6-0.9l-0.6,0.9H84.5z"/>
	<path id="path3080" class="st2" d="M77.5,1019.2l1.3-3.1h2.3l0.8,1.8v-1.8h2.9l0.5,1.3l0.4-1.3h13v0.6c0,0,0.7-0.6,1.8-0.6l4.2,0
		l0.8,1.7v-1.7h2.4l0.7,1v-1h2.4v5.6h-2.4l-0.6-1v1h-3.6l-0.4-0.9h-1l-0.4,0.9h-2.4c-1,0-1.6-0.6-1.6-0.6v0.6h-3.6l-0.7-0.9v0.9
		H80.8l-0.4-0.9h-1l-0.4,0.9h-1.7V1019.2z"/>
	<path id="path3046" class="st1" d="M79.3,1016.8l-1.8,4.2h1.2l0.3-0.8H81l0.3,0.8h1.2l-1.8-4.2H79.3L79.3,1016.8z M80,1017.8
		l0.6,1.5h-1.2L80,1017.8z"/>
	<path id="path3048" class="st1" d="M82.6,1021v-4.2l1.7,0l1,2.7l1-2.7h1.7v4.2h-1.1v-3.1l-1.1,3.1h-0.9l-1.1-3.1v3.1H82.6z"/>
	<path id="path3050" class="st1" d="M88.6,1021v-4.2h3.4v0.9h-2.4v0.7H92v0.9h-2.3v0.7h2.4v0.9H88.6z"/>
	<path id="path3052" class="st1" d="M92.7,1016.8v4.2h1.1v-1.5h0.4l1.3,1.5h1.3l-1.4-1.6c0.6,0,1.2-0.5,1.2-1.3
		c0-0.9-0.7-1.4-1.5-1.4H92.7L92.7,1016.8z M93.7,1017.7H95c0.3,0,0.5,0.2,0.5,0.4c0,0.3-0.3,0.4-0.5,0.4h-1.2V1017.7L93.7,1017.7z"
		/>
	<path id="path3054" class="st1" d="M98,1021h-1.1v-4.2H98V1021z"/>
	<path id="path3056" class="st1" d="M100.6,1021h-0.2c-1.1,0-1.8-0.9-1.8-2.1c0-1.2,0.7-2.1,2.1-2.1h1.2v1h-1.2c-0.6,0-1,0.5-1,1.1
		c0,0.8,0.5,1.2,1.1,1.2h0.3L100.6,1021z"/>
	<path id="path3058" class="st1" d="M102.9,1016.8l-1.8,4.2h1.2l0.3-0.8h1.9l0.3,0.8h1.2l-1.8-4.2H102.9L102.9,1016.8z
		 M103.5,1017.8l0.6,1.5H103L103.5,1017.8L103.5,1017.8z"/>
	<path id="path3060" class="st1" d="M106.2,1021v-4.2h1.3l1.7,2.7v-2.7h1.1v4.2H109l-1.8-2.7v2.7H106.2z"/>
	<path id="path3062" class="st1" d="M85.2,1028.4v-4.2h3.4v0.9h-2.4v0.7h2.3v0.9h-2.3v0.7h2.4v0.9H85.2z"/>
	<path id="path3064" class="st1" d="M102.1,1028.4v-4.2h3.4v0.9h-2.4v0.7h2.3v0.9h-2.3v0.7h2.4v0.9H102.1z"/>
	<path id="path3066" class="st1" d="M88.8,1028.4l1.7-2.1l-1.7-2.1h1.3l1,1.3l1-1.3h1.3l-1.7,2.1l1.7,2.1H92l-1-1.3l-1,1.3H88.8z"/>
	<path id="path3068" class="st1" d="M93.5,1024.2v4.2h1.1v-1.3h1.1c0.9,0,1.7-0.5,1.7-1.5c0-0.8-0.6-1.4-1.5-1.4H93.5L93.5,1024.2z
		 M94.6,1025.1h1.2c0.3,0,0.5,0.2,0.5,0.5c0,0.3-0.2,0.5-0.5,0.5h-1.2V1025.1L94.6,1025.1z"/>
	<path id="path3072" class="st1" d="M97.8,1024.2v4.2h1.1v-1.5h0.4l1.3,1.5h1.3l-1.4-1.6c0.6,0,1.2-0.5,1.2-1.3
		c0-0.9-0.7-1.4-1.5-1.4H97.8L97.8,1024.2z M98.9,1025.1h1.2c0.3,0,0.5,0.2,0.5,0.4c0,0.3-0.3,0.4-0.5,0.4h-1.2V1025.1z"/>
	<path id="path3074" class="st1" d="M106,1028.4v-0.9h2.1c0.3,0,0.4-0.2,0.4-0.4c0-0.2-0.1-0.4-0.4-0.4h-1c-0.8,0-1.3-0.5-1.3-1.3
		c0-0.7,0.4-1.3,1.7-1.3h2.1l-0.4,0.9h-1.8c-0.3,0-0.4,0.2-0.4,0.3c0,0.2,0.1,0.4,0.4,0.4h1c0.9,0,1.3,0.5,1.3,1.2
		c0,0.7-0.4,1.3-1.4,1.3H106z"/>
	<path id="path3076" class="st1" d="M109.9,1028.4v-0.9h2.1c0.3,0,0.4-0.2,0.4-0.4c0-0.2-0.1-0.4-0.4-0.4h-1c-0.8,0-1.3-0.5-1.3-1.3
		c0-0.7,0.4-1.3,1.7-1.3h2.1l-0.4,0.9h-1.8c-0.3,0-0.4,0.2-0.4,0.3c0,0.2,0.1,0.4,0.4,0.4h1c0.9,0,1.3,0.5,1.3,1.2
		c0,0.7-0.4,1.3-1.4,1.3H109.9z"/>
</g>
</svg>
