<?xml version="1.0" encoding="utf-8"?>
<!-- Generator: Adobe Illustrator 25.2.1, SVG Export Plug-In . SVG Version: 6.00 Build 0)  -->
<svg version="1.1" id="Ebene_1" xmlns="http://www.w3.org/2000/svg" xmlns:xlink="http://www.w3.org/1999/xlink" x="0px" y="0px" width="80" height="40" viewBox="0 0 80 40" style="enable-background:new 0 0 80 40;" xml:space="preserve">
<style type="text/css">
	.st0{clip-path:url(#SVGID_2_);fill:none;stroke:#888888;stroke-miterlimit:10;}
	.st1{fill-rule:evenodd;clip-rule:evenodd;fill:#FBFBFB;}
	.st2{fill-rule:evenodd;clip-rule:evenodd;fill:#146C9C;}
	.st3{fill-rule:evenodd;clip-rule:evenodd;fill:#8CB4CC;}
	.st4{fill-rule:evenodd;clip-rule:evenodd;fill:#83B4CC;}
	.st5{fill-rule:evenodd;clip-rule:evenodd;fill:#65A3BD;}
</style>
    <g>
	<defs>
		<rect id="SVGID_1_" x="4" y="4" width="72" height="32"/>
	</defs>
        <clipPath id="SVGID_2_">
		<use xlink:href="#SVGID_1_"  style="overflow:visible;"/>
	</clipPath>
        <rect x="4.8" y="5.1" class="st0" width="70.4" height="29.7"/>
</g>
    <g id="svgg">
	<path id="path0" class="st1" d="M41,15.3c0,0,0,1.2,0,2.6v2.6l5,0l5,0l0.2-0.1c1.2-0.3,2-1.3,2-2.5c0-0.5,0-0.6-0.2-1
		c-0.3-0.7-1-1.3-1.9-1.5l-0.2,0l-4.9,0C43.3,15.3,41,15.3,41,15.3 M31,15.4c-1.9,0.2-3.4,1.5-3.9,3.3c-0.2,0.6-0.2,0.8-0.2,2
		c0,1.2,0,1.3,0.2,1.9c0.4,1.6,1.7,2.9,3.3,3.3c0.3,0.1,0.3,0.1,0.5,0.1c0.6,0.1,5.4,0.1,5.9,0c2.4-0.4,4-2.3,4-4.7l0-0.5l-3.5,0
		l-3.5,0v-0.2v-0.2l3.5,0l3.5,0l0-0.4c0-0.7-0.1-1.2-0.4-1.8c-0.7-1.6-2.1-2.7-3.8-2.9C36.3,15.4,31.4,15.4,31,15.4 M41,20.9
		c0,0,0,1.2,0,2.6l0,2.6h4.8c5.2,0,5,0,5.3-0.1c1.5-0.4,2.4-2.1,1.7-3.6c-0.3-0.6-0.8-1.2-1.4-1.4C51.3,21,51.2,21,51,20.9l-0.2,0
		l-4.9,0C42,20.9,41,20.9,41,20.9"/>
        <path id="path1" class="st2" d="M24,20v9h16h16v-9v-9H40H24V20 M50.9,15.3c0,0,0.1,0,0.2,0c0.7,0.1,1.4,0.7,1.8,1.4
		c0.6,1.1,0.2,2.6-0.7,3.3c0,0-0.1,0.1-0.1,0.1c-0.2,0.2-0.6,0.4-1,0.4l-0.2,0h-4.9H41l0-2.6l0-2.6l4.9,0
		C49.2,15.3,50.8,15.3,50.9,15.3 M36.4,15.4c0.2,0,0.4,0,0.5,0.1c0.2,0,0.5,0.1,0.6,0.1c0,0,0.1,0,0.2,0.1c0.1,0,0.2,0.1,0.2,0.1
		c0,0,0.1,0,0.2,0.1c0.7,0.3,1.5,1,1.9,1.6c0,0,0,0.1,0.1,0.1c0.1,0.1,0.2,0.2,0.2,0.3c0,0,0,0.1,0.1,0.1c0.1,0.1,0.2,0.3,0.2,0.4
		c0,0.1,0.1,0.1,0.1,0.2c0,0.1,0.1,0.4,0.2,0.6c0.1,0.4,0.1,0.7,0.1,1.2v0.4l-3.5,0l-3.5,0v0.1v0.1h3.5h3.5l0,0.5
		c0,1.6-0.7,2.9-1.9,3.8c-0.1,0.1-0.2,0.1-0.2,0.1c-0.1,0-0.3,0.2-0.4,0.2c0,0-0.1,0.1-0.2,0.1c-0.5,0.3-1.1,0.4-1.8,0.5
		c-0.4,0-5.2,0-5.5,0c-0.3,0-0.5-0.1-0.5-0.1c0,0-0.1,0-0.2-0.1c-0.1,0-0.2-0.1-0.2-0.1c0,0-0.1,0-0.1,0c0,0,0,0-0.1,0
		c0,0-0.1,0-0.1,0c0,0-0.4-0.2-0.6-0.3c-0.3-0.2-0.6-0.4-0.9-0.7c-0.3-0.3-0.5-0.5-0.7-0.9c-0.1-0.1-0.2-0.3-0.3-0.5
		c-0.1-0.2-0.1-0.1-0.2-0.4c0-0.1-0.1-0.4-0.2-0.6c0-0.1,0-0.2-0.1-0.7c0-0.1,0-0.5,0-1c0-0.9,0-1.2,0.2-1.7c0.3-1,1-2.1,2-2.7
		c0.4-0.3,0.7-0.4,1.2-0.6c0.3-0.1,0.7-0.2,1-0.2C31.7,15.3,36,15.3,36.4,15.4 M50.9,20.9c2.1,0.4,3,3,1.4,4.5
		c-0.2,0.2-0.5,0.4-0.8,0.5c-0.5,0.2-0.3,0.2-5.8,0.2l-4.7,0l0-2.6l0-2.6h4.9C50.6,20.9,50.7,20.9,50.9,20.9"/>
        <path id="path2" class="st3" d="M41,15.3c0,0,3.3,0,7.9,0c1,0-0.4,0-3.1,0C43.2,15.3,41,15.3,41,15.3 M50.7,15.4
		C50.7,15.4,50.8,15.4,50.7,15.4C50.8,15.3,50.8,15.3,50.7,15.4C50.7,15.3,50.7,15.3,50.7,15.4 M32.7,15.4c0.6,0,1.7,0,2.3,0
		c0.6,0,0.1,0-1.2,0C32.6,15.4,32,15.4,32.7,15.4 M31,15.4C31.1,15.4,31.1,15.4,31,15.4C31.1,15.4,31.1,15.4,31,15.4
		C31,15.4,31,15.4,31,15.4 M36.6,15.4C36.6,15.4,36.7,15.4,36.6,15.4C36.7,15.4,36.7,15.4,36.6,15.4C36.6,15.4,36.6,15.4,36.6,15.4
		 M52.2,16c0,0,0.1,0.1,0.1,0.1l0.1,0.1l-0.1-0.1C52.3,16,52.2,16,52.2,16 M39.4,16.8c0.1,0.1,0.2,0.2,0.2,0.2S39.5,16.8,39.4,16.8
		c-0.1-0.1-0.1-0.2-0.2-0.2C39.3,16.6,39.3,16.7,39.4,16.8 M28.2,16.8L28.2,16.8L28.2,16.8C28.3,16.7,28.3,16.7,28.2,16.8
		C28.3,16.7,28.3,16.8,28.2,16.8 M53.1,17.9c0,0.1,0,0.2,0,0.1c0-0.1,0-0.2,0-0.2C53.1,17.8,53.1,17.8,53.1,17.9 M52.5,19.7
		L52.5,19.7L52.5,19.7C52.5,19.7,52.5,19.6,52.5,19.7C52.5,19.6,52.5,19.6,52.5,19.7 M40.8,19.7C40.8,19.8,40.8,19.8,40.8,19.7
		C40.8,19.8,40.8,19.7,40.8,19.7C40.8,19.7,40.8,19.7,40.8,19.7 M26.9,19.8C26.9,19.9,26.9,19.9,26.9,19.8
		C26.9,19.9,26.9,19.8,26.9,19.8C26.9,19.8,26.9,19.8,26.9,19.8 M52.2,19.9L52.2,19.9L52.2,19.9C52.3,19.9,52.3,19.8,52.2,19.9
		C52.3,19.8,52.3,19.8,52.2,19.9 M26.9,20.7c0,0.4,0,0.6,0,0.4c0-0.2,0-0.6,0-0.8C26.9,20.1,26.9,20.3,26.9,20.7 M40.8,20.3l0,0.2
		l-3.5,0l-3.5,0l0,0.2l0,0.2l0-0.2l0-0.2h3.5c2.9,0,3.5,0,3.5,0C40.8,20.5,40.8,20.4,40.8,20.3l0-0.2L40.8,20.3 M43.4,20.6
		c1.3,0,3.5,0,4.9,0c1.3,0,0.2,0-2.4,0C43.2,20.5,42.1,20.6,43.4,20.6 M40.8,21.2c0,0.1,0,0.2,0,0.1c0-0.1,0-0.2,0-0.3
		C40.8,20.9,40.8,21,40.8,21.2 M52.3,21.6C52.4,21.7,52.4,21.7,52.3,21.6C52.5,21.7,52.4,21.7,52.3,21.6
		C52.3,21.6,52.3,21.5,52.3,21.6C52.3,21.5,52.3,21.6,52.3,21.6 M26.9,21.7C26.9,21.7,26.9,21.7,26.9,21.7
		C26.9,21.7,26.9,21.6,26.9,21.7C26.9,21.6,26.9,21.6,26.9,21.7 M53.1,23.5c0,0.1,0,0.2,0,0.1c0-0.1,0-0.2,0-0.2
		C53.1,23.3,53.1,23.4,53.1,23.5 M39.6,24.6L39.6,24.6L39.6,24.6C39.6,24.6,39.6,24.5,39.6,24.6C39.6,24.5,39.6,24.5,39.6,24.6
		 M28.3,24.7c0.1,0.1,0.2,0.2,0.2,0.2C28.5,25,28.4,24.9,28.3,24.7c-0.1-0.1-0.2-0.2-0.2-0.2S28.2,24.6,28.3,24.7 M39.2,24.9
		L39.2,24.9L39.2,24.9C39.3,24.9,39.3,24.9,39.2,24.9C39.3,24.9,39.3,24.9,39.2,24.9 M30.5,26C30.6,26,30.6,26,30.5,26
		C30.6,26,30.6,26,30.5,26C30.6,26,30.5,26,30.5,26C30.5,26,30.5,26,30.5,26 M50.8,26.1C50.8,26.1,50.9,26.1,50.8,26.1
		C50.9,26.1,50.9,26.1,50.8,26.1C50.8,26.1,50.8,26.1,50.8,26.1 M50.6,26.1C50.6,26.1,50.7,26.1,50.6,26.1
		C50.7,26.1,50.7,26.1,50.6,26.1C50.6,26.1,50.6,26.1,50.6,26.1 M31.4,26.1c0,0,0.1,0,0.1,0C31.6,26.1,31.5,26.1,31.4,26.1
		C31.4,26.1,31.3,26.1,31.4,26.1 M36.2,26.1c0,0,0.1,0,0.2,0C36.4,26.1,36.3,26.1,36.2,26.1C36.2,26.1,36.1,26.1,36.2,26.1"/>
        <path id="path3" class="st4" d="M43.4,15.3c1.3,0,3.5,0,4.8,0s0.2,0-2.4,0S42.1,15.3,43.4,15.3 M41,17.9c0,1.4,0,2,0,1.3
		c0-0.7,0-1.8,0-2.5C41,15.9,41,16.5,41,17.9 M40.8,20C40.8,20.1,40.8,20.1,40.8,20C40.8,20.1,40.8,20,40.8,20
		C40.8,20,40.8,20,40.8,20 M35.1,20.9c3.4,0,5.7,0,5.7,0c0,0-1.6,0-3.5,0S34.4,20.9,35.1,20.9 M43.4,20.9c1.3,0,3.5,0,4.8,0
		c1.3,0,0.2,0-2.4,0S42.1,20.9,43.4,20.9 M41,23.5c0,1.4,0,2,0,1.3c0-0.7,0-1.9,0-2.6C41,21.5,41,22.1,41,23.5 M40.8,21.5
		C40.8,21.5,40.8,21.6,40.8,21.5C40.8,21.5,40.8,21.5,40.8,21.5C40.8,21.4,40.8,21.4,40.8,21.5 M52.3,25.4L52.3,25.4L52.3,25.4
		C52.4,25.3,52.4,25.3,52.3,25.4C52.4,25.3,52.4,25.3,52.3,25.4"/>
        <path id="path4" class="st5" d="M50.6,15.3c0,0,0.1,0,0.1,0c0.1,0,0.1,0,0.1,0C50.7,15.3,50.5,15.3,50.6,15.3 M32.7,15.4
		c0.6,0,1.7,0,2.3,0c0.6,0,0.1,0-1.2,0C32.6,15.3,32,15.3,32.7,15.4 M50.9,15.4C50.9,15.4,50.9,15.4,50.9,15.4
		C50.9,15.3,50.9,15.3,50.9,15.4C50.9,15.3,50.9,15.3,50.9,15.4 M31.3,15.4C31.4,15.4,31.4,15.4,31.3,15.4
		C31.4,15.4,31.4,15.4,31.3,15.4C31.3,15.4,31.3,15.4,31.3,15.4 M36.3,15.4C36.3,15.4,36.4,15.4,36.3,15.4
		C36.4,15.4,36.4,15.4,36.3,15.4C36.3,15.4,36.3,15.4,36.3,15.4 M51.2,15.4C51.2,15.4,51.2,15.4,51.2,15.4
		C51.3,15.4,51.3,15.4,51.2,15.4C51.2,15.4,51.2,15.4,51.2,15.4C51.2,15.4,51.2,15.4,51.2,15.4 M37.4,15.5
		C37.4,15.5,37.4,15.6,37.4,15.5C37.4,15.6,37.4,15.5,37.4,15.5C37.4,15.5,37.4,15.5,37.4,15.5C37.3,15.5,37.3,15.5,37.4,15.5
		 M38.1,15.8C38.1,15.8,38.1,15.8,38.1,15.8C38.1,15.8,38.1,15.8,38.1,15.8C38.1,15.8,38,15.8,38.1,15.8C38,15.8,38,15.8,38.1,15.8
		 M52.4,16.1c0.1,0.1,0.1,0.1,0.1,0.1C52.5,16.2,52.4,16.1,52.4,16.1c0-0.1-0.1-0.1-0.1-0.1C52.2,16,52.3,16,52.4,16.1 M39.4,16.8
		c0.1,0.1,0.2,0.2,0.2,0.2S39.5,16.8,39.4,16.8c-0.1-0.1-0.1-0.2-0.1-0.2C39.3,16.6,39.3,16.7,39.4,16.8 M28.2,16.8L28.2,16.8
		L28.2,16.8C28.3,16.7,28.3,16.7,28.2,16.8C28.3,16.7,28.3,16.7,28.2,16.8 M28.1,17L28.1,17L28.1,17C28.1,16.9,28.2,16.9,28.1,17
		C28.1,16.9,28.1,16.9,28.1,17 M53,17.3C53,17.3,53.1,17.3,53,17.3C53.1,17.3,53.1,17.4,53,17.3C53.1,17.3,53.1,17.3,53,17.3
		C53,17.3,53,17.2,53,17.3 M53.1,17.6C53.1,17.7,53.1,17.7,53.1,17.6C53.1,17.6,53.1,17.6,53.1,17.6C53.1,17.6,53.1,17.6,53.1,17.6
		 M53.1,17.9C53.1,18,53.1,18.1,53.1,17.9C53.1,18,53.1,17.9,53.1,17.9C53.1,17.8,53.1,17.8,53.1,17.9 M53.1,18.2
		C53.1,18.3,53.1,18.3,53.1,18.2C53.1,18.3,53.1,18.2,53.1,18.2C53.1,18.2,53.1,18.2,53.1,18.2 M26.9,19.7
		C26.9,19.7,26.9,19.7,26.9,19.7C26.9,19.7,26.9,19.7,26.9,19.7C26.9,19.6,26.9,19.7,26.9,19.7 M52.4,19.7L52.4,19.7L52.4,19.7
		C52.5,19.7,52.5,19.6,52.4,19.7C52.5,19.6,52.5,19.6,52.4,19.7 M40.8,19.8C40.8,19.9,40.8,19.9,40.8,19.8
		C40.8,19.8,40.8,19.8,40.8,19.8C40.8,19.7,40.8,19.8,40.8,19.8 M26.9,19.8C26.9,19.9,26.9,19.9,26.9,19.8
		C26.9,19.9,26.9,19.8,26.9,19.8C26.9,19.8,26.9,19.8,26.9,19.8 M52.3,19.9C52.2,19.9,52.2,20,52.3,19.9
		C52.2,20,52.2,19.9,52.3,19.9C52.3,19.8,52.4,19.8,52.3,19.9C52.4,19.8,52.3,19.8,52.3,19.9 M26.9,20.7c0,0.4,0,0.6,0,0.4
		c0-0.2,0-0.6,0-0.8C26.9,20.1,26.9,20.3,26.9,20.7 M37.3,20.6l-3.5,0L37.3,20.6c2.3,0,3.5,0,3.5,0c0,0,0,0,0,0
		C40.8,20.5,39.3,20.6,37.3,20.6 M41,20.6c0,0,2.2,0,4.8,0l4.8,0l-4.8,0C43.2,20.6,41,20.6,41,20.6 M50.8,20.6
		C50.8,20.6,50.8,20.6,50.8,20.6C50.9,20.5,50.8,20.5,50.8,20.6C50.8,20.5,50.8,20.5,50.8,20.6 M50.6,20.9c0,0,0.1,0,0.1,0
		C50.8,20.9,50.7,20.9,50.6,20.9C50.6,20.9,50.6,20.9,50.6,20.9 M52.4,21.6C52.4,21.7,52.4,21.7,52.4,21.6
		C52.4,21.7,52.4,21.7,52.4,21.6L52.4,21.6L52.4,21.6 M40.8,21.7C40.8,21.8,40.8,21.8,40.8,21.7C40.8,21.7,40.8,21.6,40.8,21.7
		C40.8,21.6,40.8,21.6,40.8,21.7 M26.9,21.7C26.9,21.7,26.9,21.7,26.9,21.7C26.9,21.7,26.9,21.6,26.9,21.7
		C26.9,21.6,26.9,21.6,26.9,21.7 M40.7,22.5C40.7,22.5,40.7,22.5,40.7,22.5C40.7,22.6,40.7,22.6,40.7,22.5
		C40.7,22.6,40.7,22.5,40.7,22.5C40.7,22.5,40.7,22.5,40.7,22.5 M53,22.8C53,22.8,53.1,22.9,53,22.8C53.1,22.9,53.1,22.9,53,22.8
		C53.1,22.9,53.1,22.8,53,22.8C53,22.8,53,22.8,53,22.8 M27.2,23.1C27.2,23.1,27.2,23.1,27.2,23.1C27.2,23.2,27.2,23.2,27.2,23.1
		C27.2,23.1,27.2,23,27.2,23.1 M53.1,23.2C53.1,23.2,53.1,23.2,53.1,23.2C53.1,23.2,53.1,23.2,53.1,23.2
		C53.1,23.1,53.1,23.2,53.1,23.2 M53.1,23.5C53.1,23.6,53.1,23.6,53.1,23.5C53.1,23.5,53.1,23.4,53.1,23.5
		C53.1,23.3,53.1,23.4,53.1,23.5 M53.1,23.8C53.1,23.8,53.1,23.8,53.1,23.8C53.1,23.8,53.1,23.8,53.1,23.8
		C53.1,23.7,53.1,23.7,53.1,23.8 M39.6,24.6L39.6,24.6L39.6,24.6C39.6,24.6,39.7,24.5,39.6,24.6C39.7,24.5,39.7,24.5,39.6,24.6
		 M28.3,24.8c0.1,0.1,0.2,0.2,0.2,0.2C28.5,24.9,28.4,24.9,28.3,24.8c-0.1-0.1-0.2-0.2-0.2-0.2S28.2,24.7,28.3,24.8 M39.3,24.9
		C39.2,24.9,39.2,25,39.3,24.9C39.2,25,39.2,24.9,39.3,24.9C39.3,24.9,39.4,24.8,39.3,24.9C39.4,24.8,39.3,24.9,39.3,24.9 M28.5,25
		C28.5,25,28.5,25,28.5,25l0.1,0.1L28.5,25C28.5,25,28.5,24.9,28.5,25 M52.5,25.2L52.5,25.2L52.5,25.2
		C52.6,25.2,52.6,25.1,52.5,25.2C52.5,25.1,52.5,25.2,52.5,25.2 M52.2,25.5L52.2,25.5L52.2,25.5C52.3,25.4,52.3,25.4,52.2,25.5
		C52.3,25.4,52.3,25.4,52.2,25.5 M36.9,26.1C36.9,26.1,36.9,26.1,36.9,26.1C36.9,26.1,37,26.1,36.9,26.1C37,26,37,26,36.9,26.1
		 M41,26.1c0,0,2.2,0,4.8,0l4.8,0l-4.8,0C43.1,26.1,41,26.1,41,26.1 M31.2,26.1C31.2,26.1,31.2,26.1,31.2,26.1
		C31.3,26.1,31.3,26.1,31.2,26.1C31.2,26.1,31.1,26.1,31.2,26.1 M36.5,26.1C36.5,26.1,36.5,26.1,36.5,26.1
		C36.6,26.1,36.6,26.1,36.5,26.1C36.5,26.1,36.5,26.1,36.5,26.1 M32.6,26.2c0.7,0,1.8,0,2.5,0c0.7,0,0.1,0-1.3,0
		S31.9,26.1,32.6,26.2"/>
</g>
</svg>
