<svg xmlns="http://www.w3.org/2000/svg" xml:space="preserve" id="Ebene_1" width="40" height="40" x="0" y="0" style="enable-background:new 0 0 50 36" version="1.1" viewBox="0 0 50 36"><style>.st0{stroke-width:2}.st0,.st1{fill:none;stroke:#000;stroke-miterlimit:10}</style><path d="M26.7 30H4.2c-.3 0-.5-.1-.5-.3V11.4c0-.1.1-.1.2-.1h29.3c.3 0 .5.1.5.3v7.6" class="st0"/><path d="M8.4 3.9h22.9c.2 0 .4.2.5.4l2.1 6.7c.1.2-.1.4-.3.4H4c-.2 0-.4-.2-.3-.5L8 4.1c.1-.1.3-.2.4-.2zm12.8 0-.4 7.5" class="st0"/><path d="m27.2 24.1.4.5c-.6.4-.9.9-.9 1.4 0 1.7 4.2 3.5 10.3 3.5s10.3-1.9 10.3-3.5c0-.4-.2-.9-.7-1.2l.4-.5c.6.6.9 1.1.9 1.7 0 2.4-4.8 4.2-10.9 4.2S26 28.3 26 26c0-.7.4-1.3 1.2-1.9z" class="st1"/><path d="m27.2 27.3.4.5c-.6.4-.9.9-.9 1.4 0 1.7 4.2 3.5 10.3 3.5s10.3-1.9 10.3-3.5c0-.4-.2-.9-.7-1.2l.4-.5c.6.6.9 1.1.9 1.7 0 2.4-4.8 4.2-10.9 4.2s-11-1.9-11-4.2c0-.7.4-1.3 1.2-1.9zm9.8-8.7c6.2 0 10.9 1.9 10.9 4.2 0 2.4-4.8 4.2-10.9 4.2s-11-1.9-11-4.3c0-2.2 4.1-3.9 9.7-4.2.5.1.9.1 1.3.1zm0 7.7c6.2 0 10.3-1.9 10.3-3.5 0-1.7-4.2-3.5-10.3-3.5h-1.2c-5.1.2-9.1 1.7-9.1 3.5 0 1.7 4.1 3.5 10.3 3.5m2-16.4c1.5.8 4.3 4.3 5 5.2" class="st1"/><path d="m37.7 13.2-.5-3.8c0-.2.1-.3.3-.4l3.7-1.3m5.6 5.2-1.7 3.7c-.1.3-.4.4-.6.3l-4-1.4" class="st1"/></svg>