<?xml version="1.0" encoding="utf-8"?>
<!-- Generator: Adobe Illustrator 23.0.6, SVG Export Plug-In . SVG Version: 6.00 Build 0)  -->
<svg version="1.1" id="Ebene_1" height="40" width="40" xmlns="http://www.w3.org/2000/svg" xmlns:xlink="http://www.w3.org/1999/xlink" x="0px" y="0px"
	 viewBox="0 0 50 36" style="enable-background:new 0 0 50 36;" xml:space="preserve">
<style type="text/css">
	.st0{fill:none;stroke:#000000;stroke-width:2;stroke-miterlimit:10;}
	.st1{fill:none;stroke:#000000;stroke-miterlimit:10;}
</style>
<path class="st0" d="M26.7,30H4.2c-0.3,0-0.5-0.1-0.5-0.3V11.4c0-0.1,0.1-0.1,0.2-0.1h29.3c0.3,0,0.5,0.1,0.5,0.3v7.6"/>
<path class="st0" d="M8.4,3.9h22.9c0.2,0,0.4,0.2,0.5,0.4l2.1,6.7c0.1,0.2-0.1,0.4-0.3,0.4H4c-0.2,0-0.4-0.2-0.3-0.5L8,4.1
	C8.1,4,8.3,3.9,8.4,3.9z"/>
<line class="st0" x1="21.2" y1="3.9" x2="20.8" y2="11.4"/>
<g>
	<g>
		<g>
			<path class="st1" d="M27.2,24.1l0.4,0.5C27,25,26.7,25.5,26.7,26c0,1.7,4.2,3.5,10.3,3.5s10.3-1.9,10.3-3.5
				c0-0.4-0.2-0.9-0.7-1.2l0.4-0.5c0.6,0.6,0.9,1.1,0.9,1.7c0,2.4-4.8,4.2-10.9,4.2S26,28.3,26,26C26,25.3,26.4,24.7,27.2,24.1z"/>
		</g>
	</g>
</g>
<g>
	<g>
		<g>
			<path class="st1" d="M27.2,27.3l0.4,0.5c-0.6,0.4-0.9,0.9-0.9,1.4c0,1.7,4.2,3.5,10.3,3.5s10.3-1.9,10.3-3.5
				c0-0.4-0.2-0.9-0.7-1.2l0.4-0.5c0.6,0.6,0.9,1.1,0.9,1.7c0,2.4-4.8,4.2-10.9,4.2S26,31.5,26,29.2C26,28.5,26.4,27.9,27.2,27.3z"
				/>
		</g>
	</g>
</g>
<g>
	<g>
		<g>
			<path class="st1" d="M37,18.6c6.2,0,10.9,1.9,10.9,4.2c0,2.4-4.8,4.2-10.9,4.2S26,25.1,26,22.7c0-2.2,4.1-3.9,9.7-4.2
				C36.2,18.6,36.6,18.6,37,18.6z M37,26.3c6.2,0,10.3-1.9,10.3-3.5c0-1.7-4.2-3.5-10.3-3.5c-0.4,0-0.8,0-1.2,0
				c-5.1,0.2-9.1,1.7-9.1,3.5C26.7,24.5,30.8,26.3,37,26.3"/>
		</g>
	</g>
</g>
<path class="st1" d="M39,9.9c1.5,0.8,4.3,4.3,5,5.2"/>
<path class="st1" d="M37.7,13.2l-0.5-3.8c0-0.2,0.1-0.3,0.3-0.4l3.7-1.3"/>
<path class="st1" d="M46.8,12.9l-1.7,3.7c-0.1,0.3-0.4,0.4-0.6,0.3l-4-1.4"/>
</svg>
