<svg xmlns="http://www.w3.org/2000/svg" width="90" height="40" fill="none"><path fill="#000" fill-rule="evenodd" d="M77.298 26.907v-1.579h-.38v.915a.664.664 0 0 0-.554-.256.92.92 0 0 0 0 1.838.664.664 0 0 0 .553-.256v.213h.38zm-11.352-.875h.622l-.001.35h-.622v.79c0 .174.061.293.252.293a.703.703 0 0 0 .337-.098l.11.326a.895.895 0 0 1-.474.135c-.45 0-.608-.242-.608-.649v-.798h-.356v-.349h.356v-.53h.384zm-5.067.652v1.099h-.385v-.975c0-.296-.124-.46-.384-.46a.413.413 0 0 0-.429.464v.97h-.384v-.974c0-.296-.128-.46-.38-.46a.409.409 0 0 0-.43.464v.97h-.384v-1.75h.381v.216a.578.578 0 0 1 .513-.26c.235-.01.457.11.578.312a.678.678 0 0 1 .616-.312.652.652 0 0 1 .688.696m8.938-.696a.517.517 0 0 0-.461.256v-.212h-.377v1.75h.38v-.98c0-.29.125-.451.374-.451a.62.62 0 0 1 .237.044l.118-.356a.815.815 0 0 0-.271-.047zm-5.623 0c.25-.008.497.055.711.183l-.16.308a1.127 1.127 0 0 0-.545-.15c-.209 0-.333.087-.333.204 0 .118.132.15.296.172l.18.026c.38.05.61.216.61.524 0 .335-.293.572-.798.572a1.263 1.263 0 0 1-.758-.228l.178-.296a.93.93 0 0 0 .582.183c.261 0 .4-.077.4-.212 0-.098-.1-.153-.308-.182l-.18-.026c-.392-.056-.604-.232-.604-.517 0-.348.286-.56.73-.56m10.915 0a.517.517 0 0 0-.462.256v-.212h-.376v1.75h.38v-.98c0-.29.124-.451.373-.451a.62.62 0 0 1 .237.044l.119-.356a.815.815 0 0 0-.271-.047zm-4.645 1.587a.884.884 0 0 1-.263-.667.884.884 0 0 1 .934-.92.917.917 0 0 1 .629.209l-.182.308a.769.769 0 0 0-.458-.158.562.562 0 0 0 0 1.122.77.77 0 0 0 .458-.158l.182.308a.918.918 0 0 1-.63.209.884.884 0 0 1-.67-.253m3.304-.667v-.875h-.38v.212a.664.664 0 0 0-.554-.256.921.921 0 0 0 0 1.839.664.664 0 0 0 .554-.256v.212h.38zm-.873-.499a.53.53 0 1 0-.04 1.06.53.53 0 0 0 .04-1.06m-5.145-.42a.92.92 0 0 0 .037 1.837c.26.01.516-.078.718-.245l-.188-.282a.83.83 0 0 1-.51.183.486.486 0 0 1-.523-.43h1.304l.003-.07a.918.918 0 0 0 .004-.076.839.839 0 0 0-.83-.92zm.436.764a.435.435 0 0 0-.443-.425.45.45 0 0 0-.465.425zm8.238-.345a.53.53 0 1 0-.04 1.059.53.53 0 0 0 .04-1.059m-13.41.499v-.875h-.38v.212a.664.664 0 0 0-.554-.256.921.921 0 0 0 0 1.838.664.664 0 0 0 .553-.256v.213h.38zm-.874-.499a.53.53 0 0 0-.548.499l.016-.005a.525.525 0 0 0 .515.565.53.53 0 0 0 .017-1.059" clip-rule="evenodd"/><path fill="#FF5F00" d="M64.78 12.691h5.77v10.367h-5.77z"/><path fill="#EB001B" d="M65.147 17.875a6.582 6.582 0 0 1 2.52-5.184 6.593 6.593 0 1 0 0 10.367 6.581 6.581 0 0 1-2.52-5.183"/><path fill="#F79E1B" d="M78.335 17.876a6.592 6.592 0 0 1-10.667 5.182 6.593 6.593 0 0 0 0-10.366 6.592 6.592 0 0 1 10.667 5.182z"/><path fill="#282F67" fill-rule="evenodd" d="m25.548 16.344-.296 1.718c-.889-.486-2.927-.58-2.927.32 0 .362.47.622 1.032.934.838.465 1.883 1.044 1.883 2.242 0 2.003-2.133 2.738-3.555 2.738a5.843 5.843 0 0 1-2.37-.45l.307-1.802c.854.676 3.437.866 3.437-.213 0-.444-.487-.687-1.062-.973-.82-.41-1.818-.906-1.818-2.203 0-2.205 2.466-2.655 3.497-2.655a6.03 6.03 0 0 1 1.872.344m-11.354-.214-1.991 5.512-.237-1.186-.7-3.555a.89.89 0 0 0-1.019-.77H7v.142c.77.19 1.505.498 2.18.912l1.814 6.957h2.169l3.319-8.012zm3.84 8.012H15.95l1.303-8.012h2.086zm14.471 0h-1.92l-.19-1.197h-2.642l-.439 1.186h-2.169l3.106-7.408a.96.96 0 0 1 .96-.592h1.623zm-4.219-2.82 1.102-3 .616 3z" clip-rule="evenodd"/><path fill="#F8AA1A" d="m12.57 20.764-.699-3.555a.89.89 0 0 0-1.02-.77H7.605v.142a8.059 8.059 0 0 1 3.046 1.493 6.221 6.221 0 0 1 1.92 2.69"/></svg>