<?xml version="1.0" encoding="utf-8"?>
<!-- Generator: Adobe Illustrator 26.5.0, SVG Export Plug-In . SVG Version: 6.00 Build 0)  -->
<svg version="1.1" id="Ebene_1" xmlns="http://www.w3.org/2000/svg" xmlns:xlink="http://www.w3.org/1999/xlink" x="0px" y="0px"
	 viewBox="0 0 70 30" width="70" height="30" style="enable-background:new 0 0 70 30;" xml:space="preserve">
<style type="text/css">
	.st0{clip-path:url(#SVGID_00000052819632077461242830000006748884290953468811_);}
	.st1{clip-path:url(#SVGID_00000062153115391968995540000002125430959515660172_);fill:#FFFFFF;}
	.st2{clip-path:url(#SVGID_00000062153115391968995540000002125430959515660172_);fill:#DC0D19;}
</style>
<g>
	<g>
		<defs>
			<rect id="SVGID_5_" x="17.84" y="3.66" width="34.32" height="22.69"/>
		</defs>
		<clipPath id="SVGID_00000072971828905353942390000001062661239006395056_">
			<use xlink:href="#SVGID_5_"  style="overflow:visible;"/>
		</clipPath>
		<g style="clip-path:url(#SVGID_00000072971828905353942390000001062661239006395056_);">
			<defs>
				<rect id="SVGID_7_" x="17.84" y="3.66" width="34.32" height="22.69"/>
			</defs>
			<clipPath id="SVGID_00000116216561316732962390000008612784674568659587_">
				<use xlink:href="#SVGID_7_"  style="overflow:visible;"/>
			</clipPath>
			<path style="clip-path:url(#SVGID_00000116216561316732962390000008612784674568659587_);fill:#FFFFFF;" d="M28.18,4.87
				c-5.59,0-10.13,4.54-10.13,10.13c0,5.59,4.55,10.13,10.13,10.13h13.65c5.59,0,10.13-4.55,10.13-10.13
				c0-5.59-4.54-10.13-10.13-10.13H28.18z"/>
			<path style="clip-path:url(#SVGID_00000116216561316732962390000008612784674568659587_);fill:#FFFFFF;" d="M41.83,25.34H28.18
				c-5.7,0-10.34-4.64-10.34-10.34c0-5.7,4.64-10.34,10.34-10.34h13.65c5.7,0,10.34,4.64,10.34,10.34
				C52.16,20.7,47.53,25.34,41.83,25.34 M28.18,4.87c-5.59,0-10.13,4.54-10.13,10.13c0,5.59,4.55,10.13,10.13,10.13h13.65
				c5.59,0,10.13-4.55,10.13-10.13c0-5.59-4.54-10.13-10.13-10.13H28.18z"/>
			<path style="clip-path:url(#SVGID_00000116216561316732962390000008612784674568659587_);fill:#DC0D19;" d="M44.21,14.38
				l4.54,5.4c0.94-1.36,1.49-3,1.49-4.78c0-1.87-0.61-3.6-1.65-5L44.21,14.38z"/>
			<path style="clip-path:url(#SVGID_00000116216561316732962390000008612784674568659587_);fill:#DC0D19;" d="M31.35,9.54
				c3.39,0,5.94,0.86,6.2,3.72l3.57-3.72h7.1c-1.54-1.81-3.84-2.96-6.4-2.96H28.18c-2.56,0-4.86,1.15-6.4,2.96H31.35z"/>
			<path style="clip-path:url(#SVGID_00000116216561316732962390000008612784674568659587_);fill:#DC0D19;" d="M25.77,13.14
				l-1.21,3.33h4.88c1.44,0,1.88-0.6,2.2-1.75c0.32-1.14-0.48-1.58-1.47-1.58H25.77z"/>
			<path style="clip-path:url(#SVGID_00000116216561316732962390000008612784674568659587_);fill:#DC0D19;" d="M41.15,20.23
				l-3.77-4.77c-0.7,3.25-2.98,4.77-7.26,4.77h-8.53c1.54,1.94,3.92,3.18,6.59,3.18h13.65c2.66,0,5.04-1.24,6.59-3.18H41.15z"/>
		</g>
	</g>
</g>
</svg>
