<svg xmlns="http://www.w3.org/2000/svg" xmlns:xlink="http://www.w3.org/1999/xlink" xml:space="preserve" width="70" height="30" style="enable-background:new 0 0 70 30" viewBox="0 0 70 30"><defs><path id="a" d="M17.84 3.66h34.32v22.69H17.84z"/></defs><clipPath id="b"><use xlink:href="#a" style="overflow:visible"/></clipPath><g style="clip-path:url(#b)"><defs><path id="c" d="M17.84 3.66h34.32v22.69H17.84z"/></defs><clipPath id="d"><use xlink:href="#c" style="overflow:visible"/></clipPath><path d="M28.18 4.87c-5.59 0-10.13 4.54-10.13 10.13 0 5.59 4.55 10.13 10.13 10.13h13.65c5.59 0 10.13-4.55 10.13-10.13 0-5.59-4.54-10.13-10.13-10.13z" style="clip-path:url(#d);fill:#fff"/><path d="M41.83 25.34H28.18c-5.7 0-10.34-4.64-10.34-10.34S22.48 4.66 28.18 4.66h13.65c5.7 0 10.34 4.64 10.34 10.34-.01 5.7-4.64 10.34-10.34 10.34M28.18 4.87c-5.59 0-10.13 4.54-10.13 10.13 0 5.59 4.55 10.13 10.13 10.13h13.65c5.59 0 10.13-4.55 10.13-10.13 0-5.59-4.54-10.13-10.13-10.13z" style="clip-path:url(#d);fill:#fff"/><path d="m44.21 14.38 4.54 5.4c.94-1.36 1.49-3 1.49-4.78 0-1.87-.61-3.6-1.65-5zM31.35 9.54c3.39 0 5.94.86 6.2 3.72l3.57-3.72h7.1a8.389 8.389 0 0 0-6.4-2.96H28.18c-2.56 0-4.86 1.15-6.4 2.96zm-5.58 3.6-1.21 3.33h4.88c1.44 0 1.88-.6 2.2-1.75.32-1.14-.48-1.58-1.47-1.58zm15.38 7.09-3.77-4.77c-.7 3.25-2.98 4.77-7.26 4.77h-8.53a8.39 8.39 0 0 0 6.59 3.18h13.65a8.42 8.42 0 0 0 6.59-3.18z" style="clip-path:url(#d);fill:#dc0d19"/></g></svg>