<svg xmlns="http://www.w3.org/2000/svg" xml:space="preserve" id="Ebene_1" width="70" height="30" x="0" y="0" style="enable-background:new 0 0 70 30" version="1.1"><style>.st0{fill:#fff}.st2{fill:#020203}</style><path d="M22.5 5.6v18.7c0 .9.7 1.6 1.6 1.6h11.2c8.5 0 12.1-4.7 12.1-11s-3.7-11-12.1-11H24.2c-.9.1-1.7.8-1.7 1.7" class="st0"/><path d="M30 8.6v13.8h6c5.5 0 7.8-3.1 7.8-7.5 0-4.2-2.4-7.4-7.8-7.4h-5c-.5.1-1 .5-1 1.1" style="fill:#cb0766"/><path d="M35.3 24.5h-9.7c-.9 0-1.6-.7-1.6-1.6V7.1c0-.9.7-1.6 1.6-1.6h9.7C44.6 5.5 46 11.4 46 15c0 6.1-3.8 9.5-10.7 9.5M25.6 6c-.6 0-1 .5-1 1v15.9c0 .6.5 1 1 1h9.7c6.5 0 10.1-3.2 10.1-9 0-7.8-6.3-9-10.1-9z" class="st2"/><path d="M32.1 13.1c.2 0 .4 0 .6.1.2.1.3.2.5.3.1.1.2.3.3.5.1.2.1.4.1.7 0 .2 0 .5-.1.7-.1.2-.2.4-.3.5-.1.1-.3.3-.5.4-.2.1-.4.1-.7.1h-1.4v-3.3zm0 2.7h.3c.1 0 .2-.1.3-.2s.1-.2.2-.3c0-.1.1-.3.1-.5v-.4c0-.1-.1-.3-.2-.3s-.2-.2-.3-.2c-.1 0-.3-.1-.4-.1h-.5v2.1zm4.5-2.7v.6h-1.7v.7h1.6v.6h-1.6v.8h1.8v.6h-2.5v-3.3zm2.5 0 1.2 3.3h-.8l-.3-.7H38l-.3.7H37l1.2-3.3zm0 2-.4-1.2-.4 1.2zm2.4-2v2.7h1.6v.6h-2.3v-3.3z" class="st0"/><circle cx="27.3" cy="14.8" r="1.5" class="st2"/><path d="M28.4 22.4c-1.3 0-2.3-1-2.3-2.3v-1.8c0-.6.5-1.2 1.2-1.2.6 0 1.2.5 1.2 1.2z" class="st2"/></svg>