<?xml version="1.0" encoding="utf-8"?>
<!-- Generator: Adobe Illustrator 25.3.1, SVG Export Plug-In . SVG Version: 6.00 Build 0)  -->
<svg version="1.1" id="Ebene_1" xmlns="http://www.w3.org/2000/svg" xmlns:xlink="http://www.w3.org/1999/xlink" x="0px" y="0px"
	 viewBox="0 0 70 30" style="enable-background:new 0 0 70 30;" xml:space="preserve">
<style type="text/css">
	.st0{fill:#FFFFFF;}
	.st1{fill:#CB0766;}
	.st2{fill:#020203;}
</style>
<g>
	<g>
		<path class="st0" d="M22.5,5.6v18.7c0,0.9,0.7,1.6,1.6,1.6h11.2c8.5,0,12.1-4.7,12.1-11c0-6.3-3.7-11-12.1-11H24.2
			C23.3,4,22.5,4.7,22.5,5.6z"/>
		<path class="st1" d="M30,8.6v13.8h6c5.5,0,7.8-3.1,7.8-7.5c0-4.2-2.4-7.4-7.8-7.4h-5C30.5,7.6,30,8,30,8.6z"/>
		<g>
			<g>
				<path class="st2" d="M35.3,24.5h-9.7c-0.9,0-1.6-0.7-1.6-1.6V7.1c0-0.9,0.7-1.6,1.6-1.6h9.7C44.6,5.5,46,11.4,46,15
					C46,21.1,42.2,24.5,35.3,24.5z M25.6,6c-0.6,0-1,0.5-1,1v15.9c0,0.6,0.5,1,1,1h9.7c6.5,0,10.1-3.2,10.1-9c0-7.8-6.3-9-10.1-9
					L25.6,6L25.6,6z"/>
			</g>
		</g>
	</g>
	<g>
		<path class="st0" d="M32.1,13.1c0.2,0,0.4,0,0.6,0.1c0.2,0.1,0.3,0.2,0.5,0.3c0.1,0.1,0.2,0.3,0.3,0.5c0.1,0.2,0.1,0.4,0.1,0.7
			c0,0.2,0,0.5-0.1,0.7c-0.1,0.2-0.2,0.4-0.3,0.5c-0.1,0.1-0.3,0.3-0.5,0.4c-0.2,0.1-0.4,0.1-0.7,0.1h-1.4v-3.3L32.1,13.1L32.1,13.1
			z M32.1,15.8c0.1,0,0.2,0,0.3,0c0.1,0,0.2-0.1,0.3-0.2s0.1-0.2,0.2-0.3c0-0.1,0.1-0.3,0.1-0.5c0-0.2,0-0.3,0-0.4s-0.1-0.3-0.2-0.3
			s-0.2-0.2-0.3-0.2c-0.1,0-0.3-0.1-0.4-0.1h-0.5v2.1L32.1,15.8L32.1,15.8z"/>
		<path class="st0" d="M36.6,13.1v0.6h-1.7v0.7h1.6V15h-1.6v0.8h1.8v0.6h-2.5v-3.3L36.6,13.1L36.6,13.1z"/>
		<path class="st0" d="M39.1,13.1l1.2,3.3h-0.8l-0.3-0.7h-1.2l-0.3,0.7h-0.7l1.2-3.3L39.1,13.1z M39.1,15.1l-0.4-1.2h0l-0.4,1.2
			H39.1z"/>
		<path class="st0" d="M41.5,13.1v2.7h1.6v0.6h-2.3v-3.3L41.5,13.1z"/>
	</g>
	<g>
		<circle class="st2" cx="27.3" cy="14.8" r="1.5"/>
	</g>
	<path class="st2" d="M28.4,22.4L28.4,22.4c-1.3,0-2.3-1-2.3-2.3v-1.8c0-0.6,0.5-1.2,1.2-1.2l0,0c0.6,0,1.2,0.5,1.2,1.2L28.4,22.4
		L28.4,22.4z"/>
</g>
</svg>
