<svg xmlns="http://www.w3.org/2000/svg" xml:space="preserve" id="Ebene_1" width="40" height="40" x="0" y="0" style="enable-background:new 0 0 50 36" version="1.1" viewBox="0 0 50 36"><style>.st0{stroke-width:2;fill:none;stroke:#000;stroke-miterlimit:10}</style><path d="M30.8 8.1c-2-1.7-3.8-3-4.3-3.4-1.6-1.1-3.1-.6-4.3.1h-.1l-4.6 3.4m-5.7 4.6C10.3 14 9 14.9 8.5 15.4c-.2.2-.4.4-.4.7v14.8c0 .8.8 1.5 2.1 1.9s23.5.2 26 .2 2.9-.8 3.3-1.5c.5-.8.5-14.5.5-15.3 0-.3-1.3-1.5-3.1-3.1" class="st0"/><path d="m8.3 15.9 11.3 6.4-5.9 5.7 5.9-5.7h9.6L35 28l-5.8-5.7L40 16.2" class="st0"/><path d="m11.8 17.8.1-9.7h25v9.8" class="st0"/><path d="M32.5 11.7H15.4zm0 3H15.4zm0 2.7H15.4z" style="fill:none;stroke:#000;stroke-miterlimit:10"/></svg>