<svg xmlns="http://www.w3.org/2000/svg" width="40" height="40" fill="none"><path fill="#FD6000" fill-rule="evenodd" d="M31.113 14.373c-.027.32.06.638.245.9a.808.808 0 0 0 1.227 0c.186-.255.274-.568.248-.883a1.285 1.285 0 0 0-.256-.867.79.79 0 0 0-.615-.293.766.766 0 0 0-.602.288c-.182.246-.27.55-.247.855m-.44 1.881.517.077c.01.136.074.261.18.348a.88.88 0 0 0 .539.147c.2.013.4-.039.57-.148a.726.726 0 0 0 .27-.413c.037-.225.05-.453.04-.68-.21.263-.53.414-.868.41a1.183 1.183 0 0 1-1-.467 1.795 1.795 0 0 1-.353-1.118 2.08 2.08 0 0 1 .162-.827c.096-.237.26-.44.47-.585a1.27 1.27 0 0 1 .724-.207c.36-.005.7.161.915.448v-.377h.49v2.707c.021.352-.03.706-.15 1.038a1.09 1.09 0 0 1-.471.482c-.246.125-.52.185-.796.176a1.5 1.5 0 0 1-.905-.252.853.853 0 0 1-.334-.759m-3.262-.26V12.86h.478v.445c.217-.337.596-.533.997-.516.178-.001.356.034.52.103a.82.82 0 0 1 .357.266c.08.118.137.252.163.392.025.171.036.344.031.516v1.927h-.53v-1.905a1.43 1.43 0 0 0-.062-.487.51.51 0 0 0-.22-.256.699.699 0 0 0-.371-.095.86.86 0 0 0-.586.215 1.063 1.063 0 0 0-.246.816v1.712zm-1.306 0v-.46c-.215.339-.593.54-.994.53a1.268 1.268 0 0 1-.517-.106.853.853 0 0 1-.357-.267 1.001 1.001 0 0 1-.164-.393 2.684 2.684 0 0 1-.033-.496v-1.94h.531v1.736c-.006.188.005.376.033.561a.554.554 0 0 0 .212.328.659.659 0 0 0 .4.12.875.875 0 0 0 .45-.123.68.68 0 0 0 .297-.333 1.67 1.67 0 0 0 .086-.611v-1.68h.531v3.133zm-5.412 0V12.86h.478v.445c.216-.337.596-.533.996-.516.179-.001.356.034.52.103a.82.82 0 0 1 .356.266c.082.118.138.252.165.392.025.171.035.344.03.516v1.927h-.531v-1.905a1.43 1.43 0 0 0-.062-.487.51.51 0 0 0-.22-.256.7.7 0 0 0-.37-.095.86.86 0 0 0-.586.215 1.062 1.062 0 0 0-.246.816v1.712zm-3.36.001v-4.324h.53v1.552c.231-.28.577-.438.94-.431.209-.005.417.042.604.137.161.082.29.216.366.38.085.223.122.462.11.701v1.985h-.53V14.01a.82.82 0 0 0-.173-.58.642.642 0 0 0-.488-.18.861.861 0 0 0-.444.122.691.691 0 0 0-.296.331 1.523 1.523 0 0 0-.088.578v1.714zm-.977-1.15.523.07c-.04.325-.195.625-.439.844-.24.206-.549.315-.865.306a1.345 1.345 0 0 1-1.034-.42 1.705 1.705 0 0 1-.39-1.206 2.18 2.18 0 0 1 .167-.888 1.17 1.17 0 0 1 .512-.57c.229-.127.486-.193.748-.19a1.3 1.3 0 0 1 .834.258c.224.185.372.445.416.732l-.516.08a.857.857 0 0 0-.262-.475.676.676 0 0 0-.452-.159.824.824 0 0 0-.652.287 1.364 1.364 0 0 0-.25.91 1.41 1.41 0 0 0 .242.918.788.788 0 0 0 .63.286.744.744 0 0 0 .523-.192.952.952 0 0 0 .265-.59zm-5-.717h1.748a1.062 1.062 0 0 0-.2-.593.814.814 0 0 0-.659-.307.844.844 0 0 0-.615.246.969.969 0 0 0-.275.654m1.743.858.548.068c-.07.296-.24.56-.482.746a1.446 1.446 0 0 1-.896.266 1.432 1.432 0 0 1-1.089-.424 1.654 1.654 0 0 1-.403-1.187 1.731 1.731 0 0 1 .407-1.226 1.378 1.378 0 0 1 1.056-.437 1.34 1.34 0 0 1 1.026.427 1.7 1.7 0 0 1 .399 1.204l-.003.142h-2.337c-.001.29.103.57.292.79.169.18.407.28.654.274a.812.812 0 0 0 .498-.154c.156-.127.27-.297.329-.489zm-5.86-1.408h1.23c.208.008.415-.02.614-.082a.653.653 0 0 0 .336-.258.703.703 0 0 0 .115-.389.644.644 0 0 0-.223-.503 1.042 1.042 0 0 0-.703-.198h-1.37zm-.572 2.416V11.67h1.917a2.55 2.55 0 0 1 .88.116.96.96 0 0 1 .48.412c.12.197.182.422.18.652.007.288-.1.567-.298.776a1.507 1.507 0 0 1-.92.4c.124.056.24.129.345.216.182.171.341.364.475.575l.751 1.178h-.719l-.572-.9a8.013 8.013 0 0 0-.413-.595 1.297 1.297 0 0 0-.29-.29.857.857 0 0 0-.262-.116 1.717 1.717 0 0 0-.318-.02H7.24v1.92z" clip-rule="evenodd"/><path fill="#DDD" fill-rule="evenodd" d="M33.333 20H6.667v2.5h26.666zm0 5.833H6.667v2.5h26.666z" clip-rule="evenodd"/></svg>