<?xml version="1.0" encoding="utf-8"?>
<!-- Generator: Adobe Illustrator 23.0.6, SVG Export Plug-In . SVG Version: 6.00 Build 0)  -->
<svg version="1.1" id="Ebene_1" xmlns="http://www.w3.org/2000/svg" xmlns:xlink="http://www.w3.org/1999/xlink" x="0px" y="0px"
	 viewBox="0 0 50 36" style="enable-background:new 0 0 50 36;" xml:space="preserve">
<style type="text/css">
	.st0{fill:none;stroke:#000000;stroke-width:2;stroke-miterlimit:10;}
	.st1{fill:none;stroke:#000000;stroke-miterlimit:10;}
</style>
<path class="st0" d="M17.5,8.3"/>
<path class="st0" d="M30.8,8.1c-2-1.7-3.8-3-4.3-3.4c-1.6-1.1-3.1-0.6-4.3,0.1c0,0,0,0-0.1,0l-4.6,3.4"/>
<path class="st0" d="M11.8,12.8c-1.5,1.2-2.8,2.1-3.3,2.6c-0.2,0.2-0.4,0.4-0.4,0.7v14c0,0,0,0,0,0.8s0.8,1.5,2.1,1.9
	s23.5,0.2,26,0.2c2.5,0,2.9-0.8,3.3-1.5C40,30.7,40,17,40,16.2c0-0.3-1.3-1.5-3.1-3.1"/>
<polyline class="st0" points="8.3,15.9 19.6,22.3 13.7,28 19.6,22.3 29.2,22.3 35,28 29.2,22.3 40,16.2 "/>
<polyline class="st0" points="11.8,17.8 11.9,8.1 36.5,8.1 36.9,8.1 36.9,17.9 "/>
<path class="st1" d="M32.5,11.7H15.4H32.5z"/>
<path class="st1" d="M32.5,14.7H15.4H32.5z"/>
<path class="st1" d="M32.5,17.4H15.4H32.5z"/>
</svg>
