<?xml version="1.0" encoding="utf-8"?>
<!-- Generator: Adobe Illustrator 25.3.1, SVG Export Plug-In . SVG Version: 6.00 Build 0)  -->
<svg version="1.1" id="Ebene_1" xmlns="http://www.w3.org/2000/svg" xmlns:xlink="http://www.w3.org/1999/xlink" x="0px" y="0px"
	 viewBox="0 0 70 30" width="70" height="30" style="enable-background:new 0 0 70 30;" xml:space="preserve">
<style type="text/css">
	.st0{fill:#F5B1C6;}
	.st1{fill:#020203;}
</style>
<g id="Lager_2">
	<g id="Layer_1">
		<path class="st0" d="M16.1,5h37.8c3.2,0,5.8,2.6,5.8,5.8v8.4c0,3.2-2.6,5.8-5.8,5.8H16.1c-3.2,0-5.8-2.6-5.8-5.8v-8.4
			C10.3,7.6,12.9,5,16.1,5z"/>
		<path class="st1" d="M49.9,13.8c-1.4-1-3.3-0.6-4.3,0.8c-1,1.4-0.6,3.3,0.8,4.3c1,0.7,2.4,0.7,3.4,0v0.4h1.7v-5.8h-1.7V13.8z
			 M48.3,17.8c-0.8,0-1.5-0.7-1.4-1.6c0-0.8,0.7-1.5,1.6-1.4c0.8,0,1.4,0.7,1.4,1.5C49.8,17.1,49.1,17.8,48.3,17.8z"/>
		<rect x="24.2" y="10.8" class="st1" width="1.8" height="8.4"/>
		<path class="st1" d="M42,13.2c-0.7,0-1.4,0.3-1.8,0.8v-0.7h-1.7v5.8h1.8v-3.1c-0.1-0.7,0.5-1.3,1.1-1.3c0.1,0,0.1,0,0.2,0
			c0.8,0,1.2,0.5,1.2,1.3v3.1h1.7v-3.7C44.5,14.2,43.4,13.2,42,13.2z"/>
		<path class="st1" d="M31.5,13.8c-1.4-1-3.3-0.6-4.3,0.8s-0.6,3.3,0.8,4.3c1,0.7,2.4,0.7,3.4,0v0.4h1.7v-5.8h-1.7V13.8z M30,17.8
			c-0.8,0-1.5-0.7-1.4-1.6c0-0.8,0.7-1.5,1.6-1.4c0.8,0,1.4,0.7,1.4,1.5C31.5,17.1,30.8,17.8,30,17.8L30,17.8z"/>
		<path class="st1" d="M36,14.1v-0.8h-1.8v5.8H36v-2.7c0-0.9,1-1.4,1.7-1.4c0,0,0,0,0,0v-1.7C37,13.4,36.4,13.7,36,14.1z"/>
		<path class="st1" d="M53.5,17.1c-0.6,0-1.1,0.5-1.1,1.1c0,0.6,0.5,1.1,1.1,1.1c0.6,0,1.1-0.5,1.1-1.1
			C54.5,17.6,54.1,17.1,53.5,17.1C53.5,17.1,53.5,17.1,53.5,17.1z"/>
		<path class="st1" d="M23,10.8h-1.9c0,1.5-0.7,3-1.9,3.9l-0.7,0.6l2.9,3.9h2.4L21,15.6C22.3,14.3,23,12.6,23,10.8z"/>
		<rect x="16.3" y="10.8" class="st1" width="1.9" height="8.4"/>
	</g>
</g>
</svg>
