<svg xmlns="http://www.w3.org/2000/svg" xml:space="preserve" width="70" height="30" style="enable-background:new 0 0 70 30"><path d="M16.1 5h37.8c3.2 0 5.8 2.6 5.8 5.8v8.4c0 3.2-2.6 5.8-5.8 5.8H16.1c-3.2 0-5.8-2.6-5.8-5.8v-8.4c0-3.2 2.6-5.8 5.8-5.8" style="fill:#f5b1c6"/><path d="M49.9 13.8c-1.4-1-3.3-.6-4.3.8s-.6 3.3.8 4.3c1 .7 2.4.7 3.4 0v.4h1.7v-5.8h-1.7v.3zm-1.6 4c-.8 0-1.5-.7-1.4-1.6 0-.8.7-1.5 1.6-1.4.8 0 1.4.7 1.4 1.5-.1.8-.8 1.5-1.6 1.5m-24.1-7H26v8.4h-1.8zM42 13.2c-.7 0-1.4.3-1.8.8v-.7h-1.7v5.8h1.8V16c-.1-.7.5-1.3 1.1-1.3h.2c.8 0 1.2.5 1.2 1.3v3.1h1.7v-3.7c0-1.2-1.1-2.2-2.5-2.2m-10.5.6c-1.4-1-3.3-.6-4.3.8s-.6 3.3.8 4.3c1 .7 2.4.7 3.4 0v.4h1.7v-5.8h-1.7v.3zm-1.5 4c-.8 0-1.5-.7-1.4-1.6 0-.8.7-1.5 1.6-1.4.8 0 1.4.7 1.4 1.5-.1.8-.8 1.5-1.6 1.5m6-3.7v-.8h-1.8v5.8H36v-2.7c0-.9 1-1.4 1.7-1.4v-1.7c-.7.1-1.3.4-1.7.8m17.5 3c-.6 0-1.1.5-1.1 1.1 0 .6.5 1.1 1.1 1.1.6 0 1.1-.5 1.1-1.1-.1-.6-.5-1.1-1.1-1.1M23 10.8h-1.9c0 1.5-.7 3-1.9 3.9l-.7.6 2.9 3.9h2.4L21 15.6c1.3-1.3 2-3 2-4.8m-6.7 0h1.9v8.4h-1.9z" style="fill:#020203"/></svg>