<svg width="80" height="40" viewBox="0 0 80 40" fill="none" xmlns="http://www.w3.org/2000/svg">
<path d="M59.1308 10H20.8692C17.6277 10 15 12.5985 15 15.804V24.196C15 27.4015 17.6277 30 20.8692 30H59.1308C62.3723 30 65 27.4015 65 24.196V15.804C65 12.5985 62.3723 10 59.1308 10Z" fill="#FFB3C7"/>
<path d="M55.0386 18.7633C54.5732 18.4496 54.0301 18.2675 53.4677 18.2364C52.9054 18.2052 52.3451 18.3263 51.8472 18.5867C51.3493 18.847 50.9326 19.2366 50.6419 19.7137C50.3513 20.1908 50.1977 20.7372 50.1977 21.2942C50.1977 21.8511 50.3513 22.3975 50.6419 22.8746C50.9326 23.3517 51.3493 23.7413 51.8472 24.0017C52.3451 24.262 52.9054 24.3831 53.4677 24.352C54.0301 24.3208 54.5732 24.1387 55.0386 23.825V24.1959H56.7958V18.392H55.0386V18.7633ZM53.4404 22.7875C53.1452 22.7719 52.861 22.6712 52.6231 22.4976C52.3851 22.324 52.2039 22.0853 52.1017 21.811C51.9995 21.5366 51.9809 21.2387 52.0482 20.954C52.1155 20.6693 52.2657 20.4103 52.4802 20.2091C52.6948 20.008 52.9642 19.8734 53.2553 19.8221C53.5464 19.7708 53.8463 19.805 54.1179 19.9204C54.3895 20.0359 54.6209 20.2276 54.7836 20.4717C54.9462 20.7159 55.0329 21.0019 55.0328 21.2942C55.0216 21.701 54.8476 22.0867 54.549 22.3666C54.2504 22.6466 53.8517 22.798 53.4404 22.7875V22.7875Z" fill="black"/>
<path d="M30.9404 15.8055H29.1013V24.196H30.9404V15.8055Z" fill="black"/>
<path d="M47.0771 18.236C46.7316 18.2158 46.3863 18.279 46.071 18.4201C45.7557 18.5612 45.4798 18.776 45.2671 19.046V18.3924H43.5171V24.1961H45.2881V21.146C45.2745 20.9708 45.2992 20.7948 45.3606 20.6298C45.4219 20.4649 45.5184 20.315 45.6436 20.1902C45.7688 20.0655 45.9196 19.9689 46.0859 19.9069C46.2522 19.845 46.43 19.8192 46.6073 19.8313C47.3796 19.8313 47.8235 20.2875 47.8235 21.134V24.1961H49.5789V20.5052C49.5788 19.1545 48.4928 18.236 47.0771 18.236Z" fill="black"/>
<path d="M36.5 18.7633C36.0346 18.4496 35.4915 18.2675 34.9291 18.2364C34.3668 18.2052 33.8065 18.3263 33.3086 18.5867C32.8107 18.847 32.394 19.2366 32.1033 19.7137C31.8127 20.1908 31.6591 20.7372 31.6591 21.2942C31.6591 21.8511 31.8127 22.3975 32.1033 22.8746C32.394 23.3517 32.8107 23.7413 33.3086 24.0017C33.8065 24.262 34.3668 24.3831 34.9291 24.352C35.4915 24.3208 36.0346 24.1387 36.5 23.825V24.1959H38.2573V18.392H36.5V18.7633ZM34.9018 22.7875C34.6065 22.772 34.3223 22.6712 34.0844 22.4977C33.8464 22.3242 33.6651 22.0855 33.5629 21.8111C33.4607 21.5367 33.4421 21.2388 33.5093 20.9541C33.5766 20.6693 33.7268 20.4104 33.9413 20.2092C34.1558 20.008 34.4253 19.8734 34.7164 19.8221C35.0075 19.7708 35.3074 19.8049 35.579 19.9204C35.8506 20.0359 36.0821 20.2275 36.2447 20.4717C36.4073 20.7159 36.494 21.0019 36.494 21.2942C36.4828 21.7009 36.3088 22.0866 36.0102 22.3666C35.7117 22.6466 35.313 22.7979 34.9017 22.7875H34.9018Z" fill="black"/>
<path d="M40.9756 19.1481V18.3922H39.1765V24.1961H40.9795V21.4865C40.9795 20.5723 41.9816 20.0808 42.677 20.0808C42.684 20.0808 42.6907 20.0815 42.6978 20.0816V18.3925C42.372 18.3839 42.0483 18.4472 41.7504 18.5779C41.4525 18.7086 41.1878 18.9034 40.9756 19.1481V19.1481Z" fill="black"/>
<path d="M58.6615 22.1375C58.4434 22.1375 58.2301 22.2014 58.0488 22.3213C57.8674 22.4411 57.726 22.6115 57.6426 22.8108C57.5591 23.0101 57.5372 23.2294 57.5798 23.441C57.6224 23.6525 57.7274 23.8469 57.8817 23.9994C58.0359 24.1519 58.2324 24.2558 58.4464 24.2979C58.6603 24.34 58.8821 24.3184 59.0836 24.2358C59.2852 24.1533 59.4574 24.0135 59.5786 23.8341C59.6998 23.6547 59.7645 23.4439 59.7645 23.2281C59.7645 23.0849 59.736 22.9431 59.6806 22.8107C59.6251 22.6784 59.5439 22.5581 59.4415 22.4569C59.339 22.3556 59.2174 22.2752 59.0836 22.2204C58.9498 22.1656 58.8064 22.1374 58.6615 22.1375V22.1375Z" fill="black"/>
<path d="M27.8338 15.804H25.9279C25.9309 16.5598 25.754 17.3057 25.4117 17.9814C25.0694 18.6572 24.5712 19.2439 23.9573 19.6941L23.2023 20.2534L26.128 24.1986H28.5333L25.8414 20.5684C26.4762 19.9445 26.9793 19.2019 27.3213 18.384C27.6634 17.5661 27.8376 16.6891 27.8338 15.804V15.804Z" fill="black"/>
<path d="M22.9694 15.804H21.0602V24.1983H22.9694V15.804Z" fill="black"/>
</svg>
