<?xml version="1.0" encoding="utf-8"?>
<!-- Generator: Adobe Illustrator 25.3.1, SVG Export Plug-In . SVG Version: 6.00 Build 0)  -->
<svg version="1.1" id="Ebene_1" xmlns="http://www.w3.org/2000/svg" xmlns:xlink="http://www.w3.org/1999/xlink" x="0px" y="0px"
	 viewBox="0 0 70 30" style="enable-background:new 0 0 70 30;" xml:space="preserve">
<style type="text/css">
	.st0{fill:none;}
	.st1{fill:#EB621D;}
	.st2{fill:#E41522;}
	.st3{fill:#F59E1F;}
</style>
<g>
	<rect x="13.8" y="-0.1" class="st0" width="42.5" height="30.1"/>
	<g>
		<rect x="30.6" y="7.1" class="st1" width="8.8" height="15.8"/>
		<path class="st2" d="M31.2,15c0-3.1,1.4-6,3.8-7.9c-4.4-3.4-10.7-2.7-14.1,1.7c-3.4,4.4-2.7,10.7,1.7,14.1c3.6,2.9,8.8,2.9,12.4,0
			C32.6,21,31.2,18.1,31.2,15z"/>
		<path class="st3" d="M51.2,15c0,5.5-4.5,10-10,10c-2.2,0-4.4-0.8-6.2-2.1c4.4-3.4,5.1-9.7,1.7-14.1c-0.5-0.6-1.1-1.2-1.7-1.7
			c4.4-3.4,10.7-2.7,14.1,1.7C50.5,10.6,51.2,12.8,51.2,15z"/>
		<path class="st3" d="M50.3,21.2v-0.3h0.1v-0.1h-0.3v0.1h0.1L50.3,21.2L50.3,21.2z M50.9,21.2v-0.4h-0.1l-0.1,0.3l-0.1-0.3h-0.1
			v0.4h0.1v-0.3l0.1,0.3h0.1l0.1-0.3L50.9,21.2L50.9,21.2z"/>
	</g>
</g>
</svg>
