<svg xmlns="http://www.w3.org/2000/svg" xml:space="preserve" width="70" height="30" style="enable-background:new 0 0 70 30" viewBox="0 0 70 30"><path d="M13.8-.1h42.5V30H13.8z" style="fill:none"/><path d="M30.6 7.1h8.8v15.8h-8.8z" style="fill:#eb621d"/><path d="M31.2 15c0-3.1 1.4-6 3.8-7.9-4.4-3.4-10.7-2.7-14.1 1.7-3.4 4.4-2.7 10.7 1.7 14.1 3.6 2.9 8.8 2.9 12.4 0-2.4-1.9-3.8-4.8-3.8-7.9" style="fill:#e41522"/><path d="M51.2 15c0 5.5-4.5 10-10 10-2.2 0-4.4-.8-6.2-2.1 4.4-3.4 5.1-9.7 1.7-14.1-.5-.6-1.1-1.2-1.7-1.7 4.4-3.4 10.7-2.7 14.1 1.7 1.4 1.8 2.1 4 2.1 6.2m-.9 6.2v-.3h.1v-.1h-.3v.1h.1zm.6 0v-.4h-.1l-.1.3-.1-.3h-.1v.4h.1v-.3l.1.3h.1l.1-.3z" style="fill:#f59e1f"/></svg>