<svg xmlns="http://www.w3.org/2000/svg" xml:space="preserve" id="Ebene_1" width="70" height="30" x="0" y="0" style="enable-background:new 0 0 70 30" version="1.1"><style>.st0{fill-rule:evenodd;clip-rule:evenodd}.st0,.st1{fill:#d2333a}</style><path d="M17.8 16.5h4.9l-.2 1.1-4.1 3.9h3.4l-.2 1.2h-5l.2-1.2 3.9-3.8h-3.1zm-5.4-1.9c-.1-.1-.3-.2-.4-.3-.2-.1-.4-.1-.6-.2-.2 0-.5-.1-.7-.1H6.8l-1.4 8.6h1.3l.5-3.2h2.6s1 0 1.7-.3.9-1.2.9-1.2.1-.3.1-.7c.1-.4.1-.9.2-1.2v-.4c0-.2 0-.5-.2-.8.1 0 0-.1-.1-.2m-1 1.5s-.1.7-.3 1.5c-.1.3-.3.5-.6.5-.5.1-.9.1-.9.1H7.4l.5-2.9h3c.2 0 .4.1.4.1.1.1.1.2.1.3zm17.9-2h1.3l-1.4 8.6h-1.3zm6.9 2.4h1.2l.4 4.4 1.9-4.4h1.5l.5 4.4 1.9-4.4h1.2l-2.7 6.2h-1.5l-.4-4.3-1.9 4.3h-1.5z" class="st0"/><path d="M26.9 16.6c-.4-.1-1-.1-1.5-.1s-.7 0-.9.1c0 0-.9.1-1.4.8s-.7 2-.7 2-.3 1.5-.2 2.1c.1.5.3 1 .8 1.2.6.2 1.1.2 1.1.2s1 .1 1.8-.1 1.2-.7 1.2-.7.2-.2.3-.5c.1-.3.2-.5.2-.5l.1-.3h-1.3s-.1.9-.8 1c-.7.1-1.1.1-1.2 0-.1 0-.9 0-.8-.6 0-.7.1-.9.1-.9h4.2l.2-1c.1-1.5-.1-2.4-1.2-2.7m-.2 2.2h-2.9l.1-.5s.1-.4.3-.5c.2-.2.5-.2.7-.2.2 0 .9-.1 1.4 0 .2 0 .3.1.4.3.1.4 0 .9 0 .9m4.7 2.2c0 .1 0 0 0 0m3.4-4.4c-.4-.1-1-.1-1.5-.1s-.7 0-.9.1c0 0-.9.1-1.4.8s-.7 2-.7 2-.3 1.5-.2 2.1c.1.5.3 1 .8 1.2.6.2 1.1.2 1.1.2s1 .1 1.8-.1c.8-.3 1.2-.8 1.2-.8s.2-.2.3-.5c.1-.3.2-.5.2-.5l.1-.3h-1.3s-.1.9-.8 1c-.7.1-1.1.1-1.2 0-.1 0-.9 0-.8-.6 0-.7.1-.9.1-.9h4.2l.2-1c0-1.4-.1-2.3-1.2-2.6m-.3 2.2h-2.9l.1-.5s.1-.4.3-.5c.2-.2.5-.2.7-.2.2 0 .9-.1 1.4 0 .2 0 .3.1.4.3.1.4 0 .9 0 .9" class="st1"/><path d="m46.3 16.5.8 4.5 2.3-4.5h1.3L47.4 23s-.6 1.2-1 1.5c-.4.3-.6.4-.9.5-.3 0-.4.1-.7 0l-.3-.1.2-1.2s.5.1.8 0c.3-.1.6-.6.6-.6l.2-.3-1.3-6.3z" class="st0"/><path d="M51.3 17.1h1.3l.1-.5s.1-.9.5-1.1c.1-.1.3-.1.5-.1.4-.1.8-.1 1.2-.1.6 0 .8 0 1.3.1.6.1.4.6.4.6l-.1.8s-.1.4-.2.6c-.1.2-.4.3-.6.4l-2 .5-1.2.3s-.7.2-1.1.7c-.4.5-.6 1-.6 1.2-.1.3-.4 2.1-.4 2.1h6.5l.2-1.3H52l.1-.5s.1-.5.3-.7c.1-.1.1-.1.5-.3.2-.1 1.1-.3 1.1-.3l1.9-.5s1.1-.3 1.5-.8c.4-.6.6-1.7.6-1.7s.1-1.1 0-1.4c-.1-.3-.4-.7-.8-.9-.4-.2-.8-.3-1.9-.3-1.2 0-1.7.1-2.3.3-.6.2-.9.6-1.1 1.2-.5.6-.6 1.7-.6 1.7m12.1 2.4.9-5.4h-1.6l-5 5.4-.2 1.4h4.4l-.3 1.9h1.3l.3-1.9h1.2l.2-1.3zm-1.3 0h-2.8l3.4-3.7zm-46.9-4.7h4.1s.9-.7 1.6-1.2c.7-.5 1.8-1.2 1.8-1.2l-2.3-1.1s-2 1.2-2.8 1.8c-.8.5-2.4 1.7-2.4 1.7m8.9-3.2-1.9-1.3s1.7-1 4-1.9c2.3-.9 3.5-1.3 3.5-1.3l.4 1.9s-2.2.7-3.5 1.3c-1.3.5-2.5 1.3-2.5 1.3m7.4-3-.3-1.9s2.4-.6 4.5-1c2.2-.4 5-.6 5-.6l-1 2.9s-2.5-.3-4.9 0c-1.8.2-3.3.6-3.3.6m9.7-.4L42.8 5s3.5-.1 6.5.4 5.8 1.2 5.7 1.2l-7.6 4s-1.8-1.1-4-1.8c-1.2-.4-2.2-.6-2.2-.6m7.6 3.3 1.7 1.3h13.8s0-.4-.4-1.1c-.2-.4-.6-.8-1.1-1.2-.2-.2-.8-.7-1.3-1-1.2-.8-1.9-1.1-3.2-1.7z" style="fill-rule:evenodd;clip-rule:evenodd;fill:#b3b3b1"/><path d="M16.1 16.5c-.5 0-1 .2-1.4.4l.1-.4h-1.4l-1.1 6.2h1.4l.6-3.4c.1-.7.6-1.6 1.7-1.6h.7l.2-1.2z" class="st1"/></svg>