<?xml version="1.0" encoding="utf-8"?>
<!-- Generator: Adobe Illustrator 25.3.1, SVG Export Plug-In . SVG Version: 6.00 Build 0)  -->
<svg version="1.1" id="Ebene_1" xmlns="http://www.w3.org/2000/svg" xmlns:xlink="http://www.w3.org/1999/xlink" x="0px" y="0px"
	 viewBox="0 0 70 30" width="70" height="30" style="enable-background:new 0 0 70 30;" xml:space="preserve">
<style type="text/css">
	.st0{fill-rule:evenodd;clip-rule:evenodd;fill:#D2333A;}
	.st1{fill:#D2333A;}
	.st2{fill-rule:evenodd;clip-rule:evenodd;fill:#B3B3B1;}
</style>
<g>
	<polygon class="st0" points="17.8,16.5 22.7,16.5 22.5,17.6 18.4,21.5 21.8,21.5 21.6,22.7 16.6,22.7 16.8,21.5 20.7,17.7 
		17.6,17.7 	"/>
	<path class="st0" d="M12.4,14.6c-0.1-0.1-0.3-0.2-0.4-0.3c-0.2-0.1-0.4-0.1-0.6-0.2c-0.2,0-0.5-0.1-0.7-0.1c-0.2,0-0.3,0-0.3,0H8.4
		H6.8l-1.4,8.6h1.3l0.5-3.2l2.6,0c0,0,1,0,1.7-0.3s0.9-1.2,0.9-1.2s0.1-0.3,0.1-0.7c0.1-0.4,0.1-0.9,0.2-1.2c0-0.1,0-0.2,0-0.2
		s0-0.1,0-0.2c0-0.2,0-0.5-0.2-0.8C12.6,14.8,12.5,14.7,12.4,14.6z M11.4,16.1c0,0-0.1,0.7-0.3,1.5c-0.1,0.3-0.3,0.5-0.6,0.5
		c-0.5,0.1-0.9,0.1-0.9,0.1l-2.2,0l0.5-2.9l2,0c0,0,0.1,0,0.3,0c0.2,0,0.5,0,0.7,0c0.2,0,0.4,0.1,0.4,0.1c0.1,0.1,0.1,0.2,0.1,0.3
		C11.4,16,11.4,16.1,11.4,16.1z"/>
	<polygon class="st0" points="29.3,14.1 30.6,14.1 29.2,22.7 27.9,22.7 	"/>
	<polygon class="st0" points="36.2,16.5 37.4,16.5 37.8,20.9 39.7,16.5 41.2,16.5 41.7,20.9 43.6,16.5 44.8,16.5 42.1,22.7 
		40.6,22.7 40.2,18.4 38.3,22.7 36.8,22.7 	"/>
	<g>
		<path class="st1" d="M26.9,16.6c-0.4-0.1-1-0.1-1.5-0.1c-0.5,0-0.7,0-0.9,0.1c0,0-0.9,0.1-1.4,0.8s-0.7,2-0.7,2s-0.3,1.5-0.2,2.1
			c0.1,0.5,0.3,1,0.8,1.2c0.6,0.2,1.1,0.2,1.1,0.2s1,0.1,1.8-0.1c0.8-0.2,1.2-0.7,1.2-0.7s0.2-0.2,0.3-0.5c0.1-0.3,0.2-0.5,0.2-0.5
			l0.1-0.3l-1.3,0c0,0-0.1,0.9-0.8,1c-0.7,0.1-1.1,0.1-1.2,0c-0.1,0-0.9,0-0.8-0.6c0,0,0,0,0,0c0-0.7,0.1-0.9,0.1-0.9l4.2,0l0.2-1
			C28.2,17.8,28,16.9,26.9,16.6z M26.7,18.8l-2.9,0l0.1-0.5c0,0,0.1-0.4,0.3-0.5c0.2-0.2,0.5-0.2,0.7-0.2c0.2,0,0.9-0.1,1.4,0
			c0.2,0,0.3,0.1,0.4,0.3C26.8,18.3,26.7,18.8,26.7,18.8z"/>
		<path class="st1" d="M23.5,21C23.5,21,23.5,21,23.5,21C23.5,21,23.5,21,23.5,21z"/>
	</g>
	<g>
		<path class="st1" d="M31.4,21C31.4,21,31.4,21,31.4,21C31.4,21.1,31.4,21,31.4,21z"/>
		<path class="st1" d="M34.8,16.6c-0.4-0.1-1-0.1-1.5-0.1c-0.5,0-0.7,0-0.9,0.1c0,0-0.9,0.1-1.4,0.8s-0.7,2-0.7,2s-0.3,1.5-0.2,2.1
			c0.1,0.5,0.3,1,0.8,1.2c0.6,0.2,1.1,0.2,1.1,0.2s1,0.1,1.8-0.1C34.6,22.5,35,22,35,22s0.2-0.2,0.3-0.5c0.1-0.3,0.2-0.5,0.2-0.5
			l0.1-0.3l-1.3,0c0,0-0.1,0.9-0.8,1c-0.7,0.1-1.1,0.1-1.2,0c-0.1,0-0.9,0-0.8-0.6c0,0,0,0,0,0c0-0.7,0.1-0.9,0.1-0.9l4.2,0l0.2-1
			C36,17.8,35.9,16.9,34.8,16.6z M34.5,18.8l-2.9,0l0.1-0.5c0,0,0.1-0.4,0.3-0.5c0.2-0.2,0.5-0.2,0.7-0.2c0.2,0,0.9-0.1,1.4,0
			c0.2,0,0.3,0.1,0.4,0.3C34.6,18.3,34.5,18.8,34.5,18.8z"/>
	</g>
	<path class="st0" d="M46.3,16.5l0.8,4.5l2.3-4.5l1.3,0L47.4,23c0,0-0.6,1.2-1,1.5c-0.4,0.3-0.6,0.4-0.9,0.5c-0.3,0-0.4,0.1-0.7,0
		l-0.3-0.1l0.2-1.2c0,0,0.5,0.1,0.8,0c0.3-0.1,0.6-0.6,0.6-0.6l0.2-0.3L45,16.5L46.3,16.5L46.3,16.5z"/>
	<path class="st2" d="M51.3,17.1l1.3,0l0.1-0.5c0,0,0.1-0.9,0.5-1.1c0.1-0.1,0.3-0.1,0.5-0.1c0.4-0.1,0.8-0.1,1.2-0.1
		c0.6,0,0.8,0,1.3,0.1c0.6,0.1,0.4,0.6,0.4,0.6l-0.1,0.8c0,0-0.1,0.4-0.2,0.6c-0.1,0.2-0.4,0.3-0.6,0.4c-0.4,0.1-2,0.5-2,0.5
		l-1.2,0.3c0,0-0.7,0.2-1.1,0.7c-0.4,0.5-0.6,1-0.6,1.2c-0.1,0.3-0.4,2.1-0.4,2.1l6.5,0l0.2-1.3l-5.1,0l0.1-0.5c0,0,0.1-0.5,0.3-0.7
		c0.1-0.1,0.1-0.1,0.5-0.3c0.2-0.1,1.1-0.3,1.1-0.3l1.9-0.5c0,0,1.1-0.3,1.5-0.8c0.4-0.6,0.6-1.7,0.6-1.7s0.1-1.1,0-1.4
		c-0.1-0.3-0.4-0.7-0.8-0.9c-0.4-0.2-0.8-0.3-1.9-0.3c-1.2,0-1.7,0.1-2.3,0.3c-0.6,0.2-0.9,0.6-1.1,1.2C51.4,16,51.3,17.1,51.3,17.1
		L51.3,17.1z"/>
	<path class="st2" d="M63.4,19.5l0.9-5.4h-1.6l-5,5.4l-0.2,1.4h4.4l-0.3,1.9l1.3,0l0.3-1.9l1.2,0l0.2-1.3L63.4,19.5z M62.1,19.5
		l-2.8,0l3.4-3.7L62.1,19.5z"/>
	<path class="st2" d="M15.2,14.8h4.1c0,0,0.9-0.7,1.6-1.2c0.7-0.5,1.8-1.2,1.8-1.2l-2.3-1.1c0,0-2,1.2-2.8,1.8
		C16.8,13.6,15.2,14.8,15.2,14.8L15.2,14.8z"/>
	<path class="st2" d="M24.1,11.6l-1.9-1.3c0,0,1.7-1,4-1.9c2.3-0.9,3.5-1.3,3.5-1.3L30.1,9c0,0-2.2,0.7-3.5,1.3
		C25.3,10.8,24.1,11.6,24.1,11.6L24.1,11.6z"/>
	<path class="st2" d="M31.5,8.6l-0.3-1.9c0,0,2.4-0.6,4.5-1c2.2-0.4,5-0.6,5-0.6L39.7,8c0,0-2.5-0.3-4.9,0C33,8.2,31.5,8.6,31.5,8.6
		L31.5,8.6z"/>
	<path class="st2" d="M41.2,8.2L42.8,5c0,0,3.5-0.1,6.5,0.4c3,0.5,5.8,1.2,5.7,1.2l-7.6,4c0,0-1.8-1.1-4-1.8
		C42.2,8.4,41.2,8.2,41.2,8.2L41.2,8.2z"/>
	<path class="st2" d="M48.8,11.5l1.7,1.3h13.8c0,0,0-0.4-0.4-1.1c-0.2-0.4-0.6-0.8-1.1-1.2c-0.2-0.2-0.8-0.7-1.3-1
		c-1.2-0.8-1.9-1.1-3.2-1.7L48.8,11.5L48.8,11.5z"/>
	<path class="st1" d="M16.1,16.5c-0.5,0-1,0.2-1.4,0.4l0.1-0.4h-1.4l-1.1,6.2h1.4l0.6-3.4c0.1-0.7,0.6-1.6,1.7-1.6l0.7,0l0.2-1.2
		H16.1z"/>
</g>
</svg>
