<svg width="40" height="40" viewBox="0 0 40 40" fill="none" xmlns="http://www.w3.org/2000/svg">
<path fill-rule="evenodd" clip-rule="evenodd" d="M7.20063 16.3603H9.41337H9.41456C10.0083 16.3053 10.5966 16.5112 11.0264 16.9245C11.3292 17.3344 11.4327 17.8583 11.3085 18.3526C11.2661 18.9705 10.9733 19.5443 10.4978 19.9412C10.0224 20.3382 9.4055 20.5238 8.78996 20.4551H8.08952C7.93804 20.4557 7.80941 20.5662 7.78611 20.7159L7.54433 22.2448C7.52103 22.3944 7.3924 22.505 7.24093 22.5055H6.18493C6.13081 22.5059 6.0793 22.4823 6.04412 22.4412C6.00894 22.4001 5.99368 22.3456 6.00241 22.2922L6.89722 16.6187C6.92157 16.47 7.04992 16.3607 7.20063 16.3603ZM8.35502 19.225C8.94169 19.225 9.54732 19.225 9.66821 18.4309V18.4321C9.72588 18.221 9.6868 17.9952 9.56154 17.8158C9.36717 17.587 8.99028 17.587 8.59088 17.587H8.4368C8.34619 17.5877 8.26941 17.654 8.25547 17.7435L8.0208 19.225H8.35502Z" fill="#253B80"/>
<path fill-rule="evenodd" clip-rule="evenodd" d="M14.9672 18.4074H16.0268V18.4063C16.0804 18.4063 16.1314 18.4298 16.1663 18.4706C16.2011 18.5114 16.2164 18.5654 16.2081 18.6184L15.6357 22.2451C15.6124 22.3948 15.4837 22.5053 15.3323 22.5058H14.3782C14.3242 22.5058 14.273 22.4821 14.2379 22.4411C14.2028 22.4001 14.1874 22.3458 14.1957 22.2925L14.2431 21.9974C13.8572 22.3905 13.3279 22.6096 12.777 22.6042C12.2733 22.637 11.782 22.4385 11.4425 22.0649C11.0792 21.6064 10.935 21.0117 11.0478 20.4377C11.1991 19.2392 12.2057 18.3324 13.4134 18.3067C13.8765 18.2536 14.3382 18.4177 14.6638 18.7512L14.7373 18.8578L14.7847 18.5615C14.7998 18.4725 14.8769 18.4073 14.9672 18.4074ZM13.3542 21.4806C13.9511 21.4946 14.4645 21.0606 14.55 20.4697V20.4685C14.6032 20.2047 14.5377 19.9308 14.3711 19.7195C14.1907 19.5223 13.9316 19.4162 13.6647 19.4303C13.0689 19.4232 12.5605 19.8596 12.4772 20.4495C12.4067 20.7107 12.4692 20.9897 12.6445 21.1958C12.8197 21.4018 13.0851 21.5083 13.3542 21.4806Z" fill="#253B80"/>
<path d="M21.6695 18.4074H20.6052C20.5033 18.4072 20.408 18.4574 20.3504 18.5414L18.8807 20.7043L18.2597 18.6255C18.2204 18.4949 18.0998 18.4057 17.9634 18.4063H16.9181C16.8584 18.4062 16.8024 18.4348 16.7676 18.4833C16.7329 18.5317 16.7236 18.5939 16.7427 18.6504L17.916 22.0922L16.8138 23.6483C16.774 23.7047 16.7689 23.7785 16.8005 23.8398C16.8322 23.9011 16.8953 23.9397 16.9643 23.9399H18.0274C18.1282 23.9398 18.2226 23.8902 18.2798 23.8071L21.8212 18.6966C21.8604 18.6401 21.8651 18.5665 21.8332 18.5055C21.8013 18.4446 21.7383 18.4063 21.6695 18.4063V18.4074Z" fill="#253B80"/>
<path fill-rule="evenodd" clip-rule="evenodd" d="M22.9814 16.3604H25.1941C25.7879 16.3051 26.3763 16.5111 26.806 16.9246C27.1094 17.3342 27.2133 17.8582 27.0892 18.3527C27.0469 18.9708 26.7539 19.5449 26.2782 19.9418C25.8025 20.3388 25.1853 20.5242 24.5695 20.4552H23.8703C23.7188 20.4557 23.5902 20.5663 23.5669 20.716L23.3132 22.3243C23.2969 22.4287 23.2068 22.5057 23.1011 22.5056H21.9657C21.9116 22.5059 21.8601 22.4824 21.8249 22.4413C21.7897 22.4002 21.7744 22.3457 21.7832 22.2923L22.678 16.6188C22.7023 16.47 22.8307 16.3607 22.9814 16.3604ZM24.1358 19.2251C24.7225 19.2251 25.3293 19.2251 25.449 18.431L25.4502 18.4322C25.5078 18.2211 25.4688 17.9953 25.3435 17.8159C25.1479 17.5871 24.771 17.5871 24.3716 17.5871H24.2188C24.1275 17.5867 24.0498 17.6533 24.0362 17.7436L23.8016 19.2251H24.1358Z" fill="#179BD7"/>
<path fill-rule="evenodd" clip-rule="evenodd" d="M30.7491 18.4076H31.8075V18.4064C31.8612 18.4065 31.9123 18.43 31.9473 18.4707C31.9823 18.5114 31.9979 18.5654 31.99 18.6185L31.4176 22.2452C31.3943 22.3949 31.2656 22.5054 31.1142 22.5059H30.1601C30.1061 22.5059 30.0548 22.4823 30.0198 22.4413C29.9847 22.4002 29.9693 22.3459 29.9776 22.2926L30.025 21.9975C29.6388 22.3909 29.109 22.61 28.5577 22.6043C28.054 22.6369 27.5629 22.4384 27.2232 22.0651C26.8605 21.6062 26.7167 21.0117 26.8297 20.4378C26.9805 19.2395 27.9867 18.3326 29.1942 18.3068C29.6576 18.2533 30.1198 18.4174 30.4457 18.7513L30.5192 18.8579L30.5666 18.5616C30.5812 18.4723 30.6586 18.407 30.7491 18.4076ZM29.1349 21.4807C29.7318 21.4947 30.2452 21.0607 30.3307 20.4697L30.3295 20.4686C30.3836 20.2049 30.3186 19.9308 30.1518 19.7195C29.9714 19.5224 29.7122 19.4163 29.4454 19.4303C28.8498 19.4238 28.3417 19.8599 28.2578 20.4496C28.1867 20.7108 28.2491 20.9902 28.4244 21.1964C28.5998 21.4026 28.8657 21.509 29.1349 21.4807Z" fill="#179BD7"/>
<path d="M33.0567 16.5158L32.1489 22.2924C32.1402 22.3456 32.1553 22.3999 32.1902 22.441C32.2251 22.4821 32.2763 22.5058 32.3302 22.5057H33.2428C33.3949 22.5063 33.5245 22.3954 33.5474 22.245L34.4422 16.5727C34.4505 16.5196 34.4352 16.4655 34.4004 16.4245C34.3656 16.3835 34.3147 16.3598 34.2609 16.3594H33.2381C33.1475 16.36 33.0707 16.4263 33.0567 16.5158Z" fill="#179BD7"/>
</svg>
