<?xml version="1.0" encoding="utf-8"?>
<!-- Generator: Adobe Illustrator 25.3.1, SVG Export Plug-In . SVG Version: 6.00 Build 0)  -->
<svg version="1.1" id="Ebene_1" xmlns="http://www.w3.org/2000/svg" xmlns:xlink="http://www.w3.org/1999/xlink" x="0px" y="0px"
	 viewBox="0 0 70 30" style="enable-background:new 0 0 70 30;" xml:space="preserve">
<style type="text/css">
	.st0{clip-path:url(#SVGID_2_);}
	.st1{fill-rule:evenodd;clip-rule:evenodd;fill:#2F3372;}
	.st2{clip-path:url(#SVGID_4_);}
	.st3{fill-rule:evenodd;clip-rule:evenodd;fill:#04B1D2;}
</style>
<g id="surface1">
	<g>
		<defs>
			<rect id="SVGID_1_" x="23.2" y="11.4" width="22.5" height="11.1"/>
		</defs>
		<clipPath id="SVGID_2_">
			<use xlink:href="#SVGID_1_"  style="overflow:visible;"/>
		</clipPath>
		<g class="st0">
			<path class="st1" d="M40.5,19.7l-1.7-5.5H41l0.5,2.5c0,0,0,0.1,0,0.1c0.1,0.3,0.1,0.6,0.1,0.9c0-0.1,0.1-0.3,0.2-0.5
				c0.1-0.2,0.2-0.4,0.3-0.6l1.3-2.5h2.3L41,22.5h-2.3L40.5,19.7z M35.5,19.2c-0.3,0.3-0.6,0.6-1,0.7c-0.4,0.2-0.7,0.2-1.2,0.2
				c-0.7,0-1.3-0.2-1.7-0.8c-0.4-0.5-0.7-1.1-0.7-1.9c0-1,0.3-1.8,0.9-2.5c0.6-0.7,1.4-1,2.3-1c0.4,0,0.8,0.1,1.1,0.3
				c0.3,0.2,0.6,0.4,0.9,0.8l0.1-0.8h2l-1,5.8h-2L35.5,19.2z M33.2,17.3c0,0.4,0.1,0.7,0.4,0.9c0.2,0.2,0.6,0.3,0.9,0.3
				c0.4,0,0.8-0.2,1.1-0.5c0.3-0.3,0.4-0.7,0.4-1.2c0-0.4-0.1-0.6-0.4-0.9c-0.2-0.2-0.5-0.3-0.9-0.3c-0.4,0-0.8,0.2-1.1,0.5
				C33.3,16.4,33.2,16.8,33.2,17.3z M23.2,19.9l1.4-8.4H27c0.7,0,1.2,0,1.5,0.1c0.3,0.1,0.6,0.1,0.9,0.3c0.5,0.2,0.8,0.5,1,0.9
				c0.2,0.4,0.3,0.8,0.3,1.4c0,0.5-0.1,1-0.4,1.5c-0.2,0.4-0.6,0.8-1,1c-0.2,0.1-0.5,0.2-0.9,0.3C28.3,17,27.8,17,27,17h-1l-0.5,2.9
				H23.2z M26.4,15.2h0.2c0.8,0,1.3-0.1,1.6-0.2c0.3-0.2,0.4-0.4,0.4-0.8c0-0.3-0.1-0.5-0.3-0.7c-0.2-0.1-0.6-0.2-1.1-0.2h-0.4
				L26.4,15.2"/>
		</g>
	</g>
	<g>
		<defs>
			<rect id="SVGID_3_" x="45.8" y="11.1" width="18.2" height="9.2"/>
		</defs>
		<clipPath id="SVGID_4_">
			<use xlink:href="#SVGID_3_"  style="overflow:visible;"/>
		</clipPath>
		<g class="st2">
			<path class="st3" d="M62,11.1h2L62.6,20h-2L62,11.1z M57.3,19.2c-0.3,0.3-0.6,0.6-0.9,0.7c-0.3,0.2-0.7,0.2-1.1,0.2
				c-0.7,0-1.2-0.2-1.6-0.8C53.3,19,53,18.3,53,17.5c0-1,0.3-1.8,0.8-2.5c0.6-0.7,1.3-1,2.1-1c0.4,0,0.7,0.1,1.1,0.3
				c0.3,0.2,0.6,0.4,0.8,0.8l0.1-0.8h1.9L59,20h-1.9L57.3,19.2z M55.1,17.3c0,0.4,0.1,0.7,0.3,0.9c0.2,0.2,0.5,0.3,0.9,0.3
				c0.4,0,0.7-0.2,1-0.5c0.3-0.3,0.4-0.7,0.4-1.2c0-0.4-0.1-0.6-0.3-0.9c-0.2-0.2-0.5-0.3-0.9-0.3c-0.4,0-0.7,0.2-1,0.5
				C55.2,16.5,55.1,16.8,55.1,17.3z M45.8,20l1.3-8.4h2.3c0.6,0,1.1,0,1.4,0.1c0.3,0.1,0.6,0.1,0.8,0.3c0.4,0.2,0.7,0.5,0.9,0.9
				c0.2,0.4,0.3,0.8,0.3,1.4c0,0.5-0.1,1-0.3,1.5c-0.2,0.4-0.5,0.8-0.9,1c-0.2,0.1-0.5,0.2-0.8,0.3c-0.3,0.1-0.8,0.1-1.4,0.1h-0.9
				L48,20H45.8z M48.7,15.3h0.2c0.7,0,1.2-0.1,1.4-0.2c0.3-0.2,0.4-0.4,0.4-0.8c0-0.3-0.1-0.5-0.3-0.7c-0.2-0.1-0.6-0.2-1-0.2H49
				L48.7,15.3"/>
		</g>
	</g>
	<path class="st3" d="M9.2,21.6l1.6-10.4c0-0.3,0.2-0.5,0.4-0.5h2.7c0.8,0,1.5,0,1.9,0.1c0.4,0.1,0.8,0.2,1.1,0.3
		c0.6,0.3,1,0.7,1.3,1.2c0.3,0.5,0.4,1.1,0.4,1.8c0,0.7-0.1,1.3-0.5,1.9c-0.3,0.6-0.7,1.1-1.2,1.4c-0.3,0.2-0.7,0.3-1.1,0.4
		c-0.7,0.2-1.7,0.3-2.5,0.3c-0.3,0.1-0.4,0.3-0.5,0.7l-0.4,2.8c-0.1,0.2-0.2,0.4-0.5,0.4l-2.4,0C9.2,22,9.1,21.9,9.2,21.6"/>
	<path class="st1" d="M6,20.1l1.8-12c0-0.3,0.2-0.6,0.5-0.6h3.1c1,0,1.7,0.2,2.1,0.1c5.1-0.3,4.5,5.3,1.3,7.7
		c-0.3,0.2-0.8,0.3-1.2,0.5c-0.8,0.3-2,0.3-2.8,0.3c-0.4,0.1-0.5,0.4-0.6,0.8l-0.5,3.2c-0.1,0.3-0.3,0.5-0.5,0.5l-2.8,0
		C6.1,20.6,6,20.4,6,20.1"/>
</g>
</svg>
