<svg xmlns="http://www.w3.org/2000/svg" xmlns:xlink="http://www.w3.org/1999/xlink" xml:space="preserve" id="Ebene_1" width="70" height="30" x="0" y="0" style="enable-background:new 0 0 70 30" version="1.1" viewBox="0 0 70 30"><style>.st1,.st3{fill-rule:evenodd;clip-rule:evenodd;fill:#2f3372}.st3{fill:#04b1d2}</style><g id="surface1"><defs><path id="SVGID_1_" d="M23.2 11.4h22.5v11.1H23.2z"/></defs><clipPath id="SVGID_2_"><use xlink:href="#SVGID_1_" style="overflow:visible"/></clipPath><path d="m40.5 19.7-1.7-5.5H41l.5 2.5v.1c.1.3.1.6.1.9 0-.1.1-.3.2-.5l.3-.6 1.3-2.5h2.3L41 22.5h-2.3zm-5-.5c-.3.3-.6.6-1 .7-.4.2-.7.2-1.2.2-.7 0-1.3-.2-1.7-.8-.4-.5-.7-1.1-.7-1.9 0-1 .3-1.8.9-2.5.6-.7 1.4-1 2.3-1 .4 0 .8.1 1.1.3.3.2.6.4.9.8l.1-.8h2l-1 5.8h-2zm-2.3-1.9c0 .4.1.7.4.9.2.2.6.3.9.3.4 0 .8-.2 1.1-.5.3-.3.4-.7.4-1.2 0-.4-.1-.6-.4-.9-.2-.2-.5-.3-.9-.3s-.8.2-1.1.5c-.3.3-.4.7-.4 1.2m-10 2.6 1.4-8.4H27c.7 0 1.2 0 1.5.1.3.1.6.1.9.3.5.2.8.5 1 .9.2.4.3.8.3 1.4 0 .5-.1 1-.4 1.5-.2.4-.6.8-1 1-.2.1-.5.2-.9.3H26l-.5 2.9zm3.2-4.7h.2c.8 0 1.3-.1 1.6-.2.3-.2.4-.4.4-.8 0-.3-.1-.5-.3-.7-.2-.1-.6-.2-1.1-.2h-.4z" class="st1" style="clip-path:url(#SVGID_2_)"/><defs><path id="SVGID_3_" d="M45.8 11.1H64v9.2H45.8z"/></defs><clipPath id="SVGID_4_"><use xlink:href="#SVGID_3_" style="overflow:visible"/></clipPath><path d="M62 11.1h2L62.6 20h-2zm-4.7 8.1c-.3.3-.6.6-.9.7-.3.2-.7.2-1.1.2-.7 0-1.2-.2-1.6-.8-.4-.3-.7-1-.7-1.8 0-1 .3-1.8.8-2.5.6-.7 1.3-1 2.1-1 .4 0 .7.1 1.1.3.3.2.6.4.8.8l.1-.8h1.9L59 20h-1.9zm-2.2-1.9c0 .4.1.7.3.9.2.2.5.3.9.3s.7-.2 1-.5c.3-.3.4-.7.4-1.2 0-.4-.1-.6-.3-.9-.2-.2-.5-.3-.9-.3s-.7.2-1 .5c-.3.4-.4.7-.4 1.2M45.8 20l1.3-8.4h2.3c.6 0 1.1 0 1.4.1.3.1.6.1.8.3.4.2.7.5.9.9.2.4.3.8.3 1.4 0 .5-.1 1-.3 1.5-.2.4-.5.8-.9 1-.2.1-.5.2-.8.3-.3.1-.8.1-1.4.1h-.9L48 20zm2.9-4.7h.2c.7 0 1.2-.1 1.4-.2.3-.2.4-.4.4-.8 0-.3-.1-.5-.3-.7-.2-.1-.6-.2-1-.2H49z" class="st3" style="clip-path:url(#SVGID_4_)"/><path d="m9.2 21.6 1.6-10.4c0-.3.2-.5.4-.5h2.7c.8 0 1.5 0 1.9.1.4.1.8.2 1.1.3.6.3 1 .7 1.3 1.2.3.5.4 1.1.4 1.8s-.1 1.3-.5 1.9c-.3.6-.7 1.1-1.2 1.4-.3.2-.7.3-1.1.4-.7.2-1.7.3-2.5.3-.3.1-.4.3-.5.7l-.4 2.8c-.1.2-.2.4-.5.4H9.5c-.3 0-.4-.1-.3-.4" class="st3"/><path d="m6 20.1 1.8-12c0-.3.2-.6.5-.6h3.1c1 0 1.7.2 2.1.1 5.1-.3 4.5 5.3 1.3 7.7-.3.2-.8.3-1.2.5-.8.3-2 .3-2.8.3-.4.1-.5.4-.6.8l-.5 3.2c-.1.3-.3.5-.5.5H6.4c-.3 0-.4-.2-.4-.5" class="st1"/></g></svg>