<svg xmlns="http://www.w3.org/2000/svg" width="40" height="40" fill="none" viewBox="0 0 40 40"><path fill="#191919" fill-rule="evenodd" d="M28.578 10.755h-3.911v-.978H22.71v.978h-5.867v-.978H14.89v.978h-3.911a.977.977 0 0 0-.978.978v16.622c0 .54.437.978.978.978h17.6c.54 0 .978-.437.978-.978V11.733a.977.977 0 0 0-.978-.978m-13.69 1.956v.977h1.957v-.977h5.866v.977h1.956v-.977H27.6v2.933H11.956v-2.933zm-2.932 14.666V17.6H27.6v9.777z" clip-rule="evenodd"/><path fill="#179BD7" d="M21.032 20.019c-.397 0-.724.115-.981.346-.257.228-.423.56-.498.996h1.967v.86h-2.04l-.01.17v.23l.01.161h1.733v.87h-1.65c.166.79.688 1.186 1.567 1.186.465 0 .913-.093 1.343-.278v1.25c-.378.192-.855.288-1.431.288-.798 0-1.454-.217-1.968-.65-.514-.433-.838-1.032-.972-1.797h-.668v-.869h.576a1.84 1.84 0 0 1-.02-.302l.01-.26h-.566v-.859h.649c.12-.787.444-1.41.972-1.865.527-.459 1.186-.688 1.977-.688a3.79 3.79 0 0 1 1.719.4l-.479 1.133a4.639 4.639 0 0 0-.63-.235 2.116 2.116 0 0 0-.61-.087"/></svg>