<svg xmlns="http://www.w3.org/2000/svg" width="70" height="30" fill="none"><path fill="#005DA0" d="M35.44 15.866a4.379 4.379 0 0 1-2.005-.465l.19-1.207c.57.292 1.159.458 1.797.458.71 0 1.02-.25 1.02-.682 0-.982-2.98-.566-2.98-2.653 0-1.057.708-1.913 2.349-1.913.63 0 1.314.125 1.814.325l-.181 1.18c-.536-.166-1.072-.266-1.564-.266-.803 0-1.019.266-1.019.598 0 .973 2.98.524 2.98 2.636.001 1.233-.889 1.99-2.4 1.99m8.018-1.34v1.223h-4.406V9.514h4.405v1.238h-2.946v1.24h2.393v1.113h-2.393v1.422zm3.611-.807h-.864v2.029h-1.46V9.514h2.324c1.797 0 2.531.681 2.531 2.136 0 1.314-.726 2.07-2.531 2.07m0-3.034h-.864v1.912h.864c.717 0 1.028-.175 1.028-.956 0-.748-.276-.956-1.028-.956m6.983 3.85h-2.35l-.363 1.214h-1.537l2.236-6.236h1.737l2.264 6.236h-1.624zm-1.348-3.31-.648 2.138h1.65l-.622-2.137-.174-.657h-.026zm-17.317 8.571-.016.587h-1.905v-2.896h.682v2.31zm1.822.363-.013-.004c-.148.17-.381.267-.658.267-.461 0-.754-.252-.754-.776 0-.433.313-.73.867-.73.18 0 .337.027.465.066v-.135c0-.236-.128-.344-.461-.344-.268 0-.445.039-.67.127l-.052-.479c.245-.1.521-.154.834-.154.718 0 .967.297.967.938v1.449h-.477zm-.094-.78a1.02 1.02 0 0 0-.345-.05c-.276 0-.405.105-.405.309 0 .228.14.309.345.309.212 0 .405-.124.405-.274zm1.964 1.05a1.65 1.65 0 0 1-.762-.162l.065-.494c.2.111.485.166.694.166.249 0 .353-.097.353-.236 0-.375-1.127-.159-1.127-.977 0-.42.297-.722.922-.722.244 0 .486.047.69.127l-.052.49a1.95 1.95 0 0 0-.65-.119c-.205 0-.317.078-.317.197 0 .355 1.111.143 1.111.95 0 .468-.268.78-.927.78m2.15-1.938v1.197c0 .182.096.259.289.259a.696.696 0 0 0 .193-.028l.036.436a1.217 1.217 0 0 1-.417.066c-.486 0-.723-.27-.723-.714v-1.216h-.272v-.448h.3l.105-.53.49-.042v.57h.541v.449h-.542zm1.745 1.938c-.293 0-.558-.054-.762-.162l.064-.494c.2.111.486.166.694.166.25 0 .354-.097.354-.236 0-.375-1.128-.159-1.128-.977 0-.42.297-.722.923-.722.244 0 .485.047.69.127l-.053.49c-.2-.08-.469-.119-.65-.119-.204 0-.316.078-.316.197 0 .355 1.11.143 1.11.95 0 .468-.268.78-.926.78m3.038-1.814a1.315 1.315 0 0 0-.413-.073c-.453 0-.601.182-.601.676 0 .502.212.699.59.699.16 0 .313-.031.44-.089l.045.467c-.144.086-.361.135-.621.135-.719 0-1.1-.394-1.1-1.212 0-.776.334-1.212 1.112-1.212.204 0 .433.042.585.1zm2.05 1.767v-1.49c0-.24-.125-.363-.39-.363a.526.526 0 0 0-.413.178v1.675h-.621V17.38l.621-.031v.532l-.008.309.012.008a.95.95 0 0 1 .606-.201c.514 0 .814.332.814.895v1.49zm1.275.001v-2.325l.497-.023.057.39h.012c.152-.281.39-.42.666-.42.109 0 .2.015.264.035l-.04.59a.92.92 0 0 0-.264-.038c-.325 0-.566.228-.566.617v1.174zm2.412-2.591c-.24 0-.357-.066-.357-.254 0-.166.116-.259.357-.259.245 0 .353.089.353.259s-.108.254-.353.254m-.321 2.591v-2.325l.638-.027v2.352zm1.532 0v-1.895h-.305v-.444h.305v-.101c0-.352.252-.641.835-.641.136 0 .288.02.393.05l-.036.386a1.121 1.121 0 0 0-.232-.023c-.245 0-.337.092-.337.243v.085h.517v.444h-.517v1.895zm2.416-1.892v1.197c0 .182.096.259.288.259a.695.695 0 0 0 .193-.028l.036.436a1.216 1.216 0 0 1-.416.066c-.486 0-.723-.27-.723-.714v-1.216h-.273v-.448h.301l.104-.53.49-.042v.57h.54v.449h-.54z"/><path fill="#AEB1BC" d="m22.39 10.874-2.78-2.011-2.782-2.013a.451.451 0 0 0-.615.083l-2.449 3.138a.406.406 0 0 0-.074.16.414.414 0 0 0 .16.442l1.658 1.199 2.239 1.619 1.657 1.198c.146.106.339.11.486.026a.428.428 0 0 0 .139-.114l2.449-3.137a.412.412 0 0 0-.087-.591m-5.743-3.782 1.657 1.198 1.12.81 1.12.81 1.657 1.197a.134.134 0 0 1 .03.192l-.397.527-1.876-1.357L17.926 9l-1.875-1.356.397-.527a.147.147 0 0 1 .2-.025m3.135 7.345a.134.134 0 0 1-.084.046.15.15 0 0 1-.104-.026l-1.666-1.205-2.23-1.612-1.667-1.206a.136.136 0 0 1-.054-.089.129.129 0 0 1 .022-.09l.455-.583s.499-.62.937-1.182l1.876 1.356 2.031 1.47 1.876 1.356c-.438.561-.937 1.183-.937 1.183z"/><path fill="#005DA0" d="m22.89 15.671 4.196-5.4.429-.544.012-.018c.031-.04.025-.094-.017-.123l-1.188-.828a.092.092 0 0 0-.127.023l-.013.016-.16.197-5.183 6.677H15.13l-2.139 6.785h14.28l-2.017-6.785zm-9.51 6.516 1.955-6.246h5.294l-.456.589-.657.873-.075.129-.069.15-.071.169-.073.179-.071.195-.07.192-.066.193-.064.19-.058.18-.054.166-.048.144-.036.12-.028.093-.023.057s-.004.013-.015.028c-.013.017-.094.088-.16.04-.062-.044-.055-.203-.05-.278l.059-.693c.006-.08-.097-.127-.163-.09a1.819 1.819 0 0 0-.626.583l.045-.158c.067-.238.162-.485.198-.73.021-.139-.016-.305-.186-.332-.191-.03-.316.163-.41.29-.283.384-.45.872-.8 1.207-.133.126-.28.218-.47.166-.22-.06-.306.19.083.224.382.033.666-.356.84-.628.126-.198.237-.404.36-.603a3.67 3.67 0 0 1 .189-.28c.029-.038.084-.141.135-.155.068-.018.051.02.046.071-.01.117-.06.236-.092.348a226.246 226.246 0 0 0-.325 1.155c-.034.119.13.174.199.08.272-.373.408-.69.743-.94l-.02.247c-.012.136-.039.28-.03.415.016.222.191.376.409.279.114-.052.197-.128.197-.128l.013-.009.046-.033.084-.054.115-.076.127-.091.14-.096.166-.112.167-.119.168-.118.168-.119.164-.12.153-.111.14-.111.124-.093.099-.087.077-.07.002-.005.003.002.521-.594 1.335-1.717h2.368l1.843 6.245H13.38z"/><path fill="#005DA0" d="m28.053 9.983-.158-.113a.073.073 0 0 0-.099.013l-1.995 2.554a.067.067 0 0 0 .014.096l.157.113a.073.073 0 0 0 .1-.013l1.994-2.554a.067.067 0 0 0-.014-.096M20.04 20.858h3.968l-.084-.302h-7.767l-.085.302z"/></svg>