<svg xmlns="http://www.w3.org/2000/svg" xml:space="preserve" width="70" height="30" style="enable-background:new 0 0 70 30"><path d="m29.4 7.8-6.1 14.5h-4l-3-11.6c-.2-.7-.3-1-.9-1.3-.9-.5-2.4-.9-3.7-1.2l.1-.4h6.4c.8 0 1.5.5 1.7 1.5l1.6 8.4 3.9-9.9zM45 17.5c0-3.8-5.3-4-5.3-5.8 0-.5.5-1.1 1.6-1.2.5-.1 2-.1 3.7.6l.7-3.1c-.9-.3-2.1-.6-3.5-.6-3.7 0-6.3 2-6.3 4.8 0 2.1 1.9 3.3 3.3 3.9 1.5.7 2 1.2 1.9 1.8 0 1-1.2 1.4-2.2 1.4-1.9 0-3-.5-3.9-.9l-.7 3.2c.9.4 2.5.8 4.2.8 3.9.1 6.4-1.8 6.5-4.9m9.8 4.8h3.5l-3-14.5H52c-.7 0-1.3.4-1.6 1.1l-5.6 13.4h3.9l.8-2.2h4.8zm-4.2-5.2 2-5.4 1.1 5.4zM34.8 7.8l-3.1 14.5h-3.8L31 7.8z" style="fill:#2e4999"/></svg>