<?xml version="1.0" encoding="utf-8"?>
<!-- Generator: Adobe Illustrator 25.3.1, SVG Export Plug-In . SVG Version: 6.00 Build 0)  -->
<svg version="1.1" id="Ebene_1" xmlns="http://www.w3.org/2000/svg" xmlns:xlink="http://www.w3.org/1999/xlink" x="0px" y="0px"
	 viewBox="0 0 70 30" style="enable-background:new 0 0 70 30;" xml:space="preserve">
<style type="text/css">
	.st0{fill:#2E4999;}
</style>
<path class="st0" d="M29.4,7.8l-6.1,14.5h-4l-3-11.6c-0.2-0.7-0.3-1-0.9-1.3c-0.9-0.5-2.4-0.9-3.7-1.2l0.1-0.4h6.4
	c0.8,0,1.5,0.5,1.7,1.5l1.6,8.4l3.9-9.9L29.4,7.8L29.4,7.8z M45,17.5c0-3.8-5.3-4-5.3-5.8c0-0.5,0.5-1.1,1.6-1.2
	c0.5-0.1,2-0.1,3.7,0.6l0.7-3.1c-0.9-0.3-2.1-0.6-3.5-0.6c-3.7,0-6.3,2-6.3,4.8c0,2.1,1.9,3.3,3.3,3.9c1.5,0.7,2,1.2,1.9,1.8
	c0,1-1.2,1.4-2.2,1.4c-1.9,0-3-0.5-3.9-0.9l-0.7,3.2c0.9,0.4,2.5,0.8,4.2,0.8C42.4,22.5,44.9,20.6,45,17.5 M54.8,22.3h3.5l-3-14.5
	H52c-0.7,0-1.3,0.4-1.6,1.1l-5.6,13.4h3.9l0.8-2.2h4.8L54.8,22.3z M50.6,17.1l2-5.4l1.1,5.4H50.6z M34.8,7.8l-3.1,14.5h-3.8L31,7.8
	L34.8,7.8L34.8,7.8z"/>
</svg>
