<svg xmlns="http://www.w3.org/2000/svg" width="24" height="24" fill="none" viewBox="0 0 176 176"><path fill="url(#a)" d="M88.4 0c-1 0-1.9.2-2.7.6L16.8 38.2 94 83.1c.7.4 1.3 1.3 1.3 2.2v65.5c0 .9-.5 1.7-1.3 2.2l-4.2 2.3c-.4.2-.8.3-1.2.3h-.1c-.5 0-.9-.1-1.3-.3L83 153c-.8-.5-1.2-1.3-1.3-2.2V92.3c-.1-.5-.3-.9-.7-1.1L13 51.6v77.5c0 1.7 1.2 3.9 2.7 4.7l70 41.3c.8.4 1.8.7 2.7.7.9 0 1.9-.2 2.7-.7l70-41.3c1.6-1.1 2.6-2.8 2.7-4.7V51.6l-46.1 26.8c-.8.4-1.7.4-2.5 0l-4-2.4c-.4-.2-.7-.6-.9-.9V75c-.3-.4-.4-.8-.4-1.3l-.1-4.8c0-.9.5-1.7 1.2-2.2l49.1-28.6L91.2.6c-.9-.4-1.8-.6-2.8-.6"/><defs><linearGradient id="a" x1="13.125" x2="164" y1="87.918" y2="87.918" gradientUnits="userSpaceOnUse"><stop stop-color="#F25C19"/><stop offset=".379" stop-color="#F25C19"/><stop offset="1" stop-color="#FAB217"/></linearGradient></defs></svg>