<svg width="75" height="74" viewBox="0 0 75 74" fill="none" xmlns="http://www.w3.org/2000/svg">
<g id="cookie">
<path id="Exclude" d="M68.7697 33.2105C68.7697 33.9415 68.8731 34.777 68.8731 35.4036V35.7169C68.9764 36.3435 68.9764 36.8657 68.9764 37.3879C69.0798 38.4322 69.1831 39.581 69.2865 40.521C69.2865 40.8343 69.3898 41.0431 69.3898 41.3564C69.4932 42.5052 69.5965 43.5496 69.4932 44.6984C69.1831 48.9802 66.2894 53.1576 63.2924 57.2306C62.9823 57.6484 62.6723 58.0661 62.4656 58.3794C61.4321 59.7371 60.502 61.0947 59.4686 62.2435C58.1251 63.8101 56.6782 64.9589 55.2314 65.481C53.9912 66.0032 52.8544 66.5254 51.7176 66.9431C51.6142 67.0476 51.4075 67.0476 51.3042 67.152C50.8908 67.3609 50.3741 67.4653 49.754 67.6742H49.5473C48.9272 67.7786 48.1005 67.9875 47.2737 68.3008C45.7235 68.9274 44.0699 68.9274 42.003 68.823C41.4863 68.823 40.9695 68.823 40.4528 68.823C39.2127 68.823 38.0758 68.823 36.939 68.823C33.4253 68.823 30.1182 68.9274 26.7077 68.5097C26.7077 68.5097 26.7077 68.5097 26.6044 68.5097C26.6044 68.5097 26.501 68.5097 26.3977 68.4052C26.2943 68.3008 26.0877 68.1963 25.881 68.0919C25.6743 67.9875 25.4676 67.7786 25.1575 67.6742C25.0542 67.6742 25.0542 67.5697 24.9508 67.5697C24.7442 67.4653 24.5375 67.2564 24.3308 67.152C24.2274 67.152 24.1241 67.0476 24.0207 66.9431C23.814 66.8387 23.6073 66.6298 23.4006 66.5254C23.194 66.4209 22.8839 66.2121 22.5739 66.0032C22.3672 65.8988 21.8505 65.6899 21.2304 65.5855C21.2304 65.5855 21.127 65.5855 21.0237 65.481C20.817 65.3766 20.6103 65.2722 20.4036 65.0633C20.3003 65.0633 20.1969 64.9589 20.0936 64.8544L19.9902 64.75C19.7835 64.2278 19.4735 63.7056 18.9568 63.3923C16.3731 61.8258 15.0296 60.8859 14.0995 58.6927C13.6861 57.8572 13.4794 57.0218 13.1694 55.873C13.066 55.6641 13.066 55.3508 12.9627 55.1419C12.5493 53.7843 12.0325 52.2177 11.1024 50.8601C9.03549 47.727 7.58864 44.8028 7.58864 41.6697C7.58864 39.9988 7.4853 38.1189 7.4853 36.3435C7.4853 34.8814 7.38195 33.5238 7.38195 32.2706C7.38195 29.1375 7.4853 26.2133 8.00203 23.498C8.41541 21.3048 9.44888 18.6939 10.8957 16.3964C12.3426 14.0988 14.0995 12.3234 15.8564 11.6968C16.8898 11.279 17.9233 10.6524 18.6467 10.1302C18.8534 10.0258 19.0601 9.92136 19.1634 9.81692C20.0936 9.29474 20.6103 9.08587 21.0237 9.08587C21.9538 9.08587 22.6772 8.877 23.2973 8.66813C23.6073 8.5637 23.814 8.45926 24.0207 8.35483C24.2274 8.25039 24.4341 8.14595 24.6408 8.14595C25.2609 7.93708 26.0877 7.72821 27.0178 7.51934C27.9479 7.31047 29.0847 7.1016 30.2215 6.68386C30.5316 6.57942 30.7382 6.47499 31.0483 6.37055C31.8751 6.05725 32.2884 5.84837 32.8052 5.84837C32.8052 5.84837 32.9085 5.84837 33.2186 5.84837H33.3219C33.5286 5.84837 33.8386 5.84837 34.1487 5.95281C34.4587 5.95281 34.9755 5.95281 35.3888 5.95281C35.8022 5.95281 36.5256 5.74394 37.1457 5.22176C37.2491 5.22176 37.3524 5.22176 37.6625 5.22176C37.9725 5.22176 38.2825 5.22176 38.5926 5.22176H38.6959C39.006 5.22176 39.4194 5.22176 39.8327 5.22176C40.1428 5.22176 40.4528 5.3262 40.9695 5.6395C41.1762 5.74394 41.4863 5.95281 41.7963 6.16168L41.8997 6.26612C42.3131 6.47499 42.7264 6.78829 43.1398 6.99716C44.2766 7.62378 45.4134 8.45926 46.6536 9.50362C46.8603 9.71249 47.067 9.92136 47.377 10.0258C48.4105 10.8613 49.444 11.8012 50.6841 12.6367C52.0276 13.5766 53.5778 14.9343 54.818 16.0831C55.5414 16.8141 56.4715 17.4407 57.0916 17.9629C57.2983 18.0673 57.505 18.2762 57.6083 18.3806C58.4351 19.0072 58.9518 19.5294 59.1585 19.9472C59.5719 20.5738 59.8819 21.2004 60.192 21.827C60.8121 22.9758 61.4321 24.0201 62.0522 25.1689L62.1556 25.3778C62.569 26.3177 62.7756 26.7355 62.879 27.0488L68.7697 33.2105ZM10.379 62.1391C11.6192 64.2278 13.1693 65.5855 14.9262 66.8387C15.1329 67.4653 15.6497 68.0919 16.3731 68.3008C16.5798 68.4052 16.7865 68.5097 17.1999 68.823C17.3032 68.9274 17.5099 69.0318 17.7166 69.1363C18.3367 69.554 19.2668 70.1806 20.5069 70.3895C20.6103 70.3895 20.6103 70.4939 20.7136 70.4939C20.817 70.5984 21.0237 70.7028 21.2304 70.8072C21.3337 70.9117 21.5404 71.0161 21.7471 71.1205C21.8505 71.225 21.9538 71.225 22.1605 71.3294C22.5739 71.5383 23.0906 71.956 23.504 72.1649C24.1241 72.5826 25.1575 73.1048 26.191 73.2093C29.9115 73.627 33.7353 73.627 37.2491 73.5226C38.3859 73.5226 39.4193 73.5226 40.4528 73.5226C40.8662 73.5226 41.1762 73.5226 41.5896 73.5226C43.7599 73.5226 46.4469 73.627 49.0306 72.5826C49.444 72.3738 49.9607 72.2693 50.6841 72.1649H50.7875C51.5109 71.956 52.441 71.7472 53.3711 71.3294L53.7845 71.1205C54.9213 71.0161 55.9548 70.4939 56.9882 70.0762C59.5719 69.1363 61.5355 67.3609 63.189 65.481C64.4292 64.0189 65.566 62.4524 66.5995 61.0947C66.9095 60.7814 67.1162 60.3637 67.3229 60.0504L67.4262 59.946C70.2166 56.0818 74.0404 50.8601 74.5571 44.9072C74.6605 43.3407 74.5571 41.8786 74.3505 40.6254C74.3505 40.3121 74.2471 39.9988 74.2471 39.6855C74.1438 38.7456 74.0404 38.0145 73.9371 37.0746C73.9371 36.448 73.8337 35.8214 73.8337 35.1947V34.8814C73.7304 34.2548 73.7304 33.6282 73.7304 33.0016C73.7304 31.9572 73.317 31.1218 73.1103 30.704V30.5996C73.0069 30.3907 73.0069 30.0774 73.0069 30.0774C72.9036 29.0331 72.3869 27.4665 72.2835 27.3621C72.1802 26.9443 71.9735 26.2133 71.9735 26.2133C71.6634 25.2734 71.3534 24.229 71.1467 23.6024C67.4262 14.3076 59.7786 6.89273 50.4774 3.13305C50.1674 2.92418 49.8573 2.71531 49.5473 2.61087C49.2373 2.50644 48.9272 2.29757 48.6172 2.0887L48.5138 1.98426C48.2038 1.77539 47.7904 1.56652 47.4804 1.35765C46.5503 0.835471 45.4134 0.313293 43.8632 0.313293C43.6566 0.313293 43.3465 0.313293 43.0365 0.313293H42.9331C42.5197 0.313293 42.1064 0.313293 41.5896 0.313293C40.9695 0.313293 40.0394 0.417729 39.2127 0.731035C38.1792 0.731035 37.1457 0.835471 36.2156 0.939906C36.1123 0.939906 35.9056 0.939906 35.8022 1.04434C32.1851 1.46208 28.878 2.29757 25.6743 3.8641C25.3642 3.96853 25.0542 4.07297 24.9508 4.07297C23.0906 4.17741 21.7471 5.11733 20.7136 5.74394C20.4036 5.95281 20.0936 6.16168 19.7835 6.37055C19.1634 6.78829 18.6467 7.1016 18.13 7.31047C15.0296 8.5637 12.5493 11.1746 10.689 13.9943C5.10833 16.6052 3.76482 19.8427 3.24809 22.558C3.14474 23.0802 3.0414 23.7068 2.93805 24.229C1.38785 28.1976 0.664429 32.5839 0.664429 37.179C0.664429 46.7871 4.3849 55.5597 10.379 62.1391Z" fill="#FBD07D" stroke="#737898" stroke-width="0.5" stroke-miterlimit="10"/>
<path id="bg" d="M36.7324 1.25319C53.8879 -0.939958 73.4204 17.023 73.4204 37.2834C73.4204 57.5439 57.195 73.0004 37.1458 73.0004C17.0966 73.0004 1.28455 57.4395 1.28455 37.2834C1.28455 17.1274 19.1635 3.55077 36.7324 1.25319Z" fill="#EEBC5B"/>
<path id="Exclude 1" d="M35.4921 9.08591C35.8021 9.08591 36.5256 8.87704 37.1456 8.4593C37.249 8.4593 37.3523 8.4593 37.559 8.4593C37.7657 8.4593 38.0758 8.4593 38.3858 8.4593H38.4891C38.7992 8.4593 39.1092 8.4593 39.5226 8.4593C39.8327 8.4593 40.0393 8.56373 40.5561 8.7726C40.7628 8.87704 40.9695 9.08591 41.2795 9.19035L41.3829 9.29478C41.6929 9.50365 42.1063 9.71252 42.5197 10.0258C43.5531 10.548 44.5866 11.3835 45.6201 12.3234C45.8267 12.5323 46.0334 12.6367 46.2401 12.8456C47.1702 13.5766 48.1004 14.4121 49.1338 15.1432C50.374 15.9787 51.8208 17.2319 52.8543 18.2762C53.4744 18.9028 54.3012 19.5295 54.9212 19.9472C55.1279 20.0516 55.2313 20.1561 55.438 20.2605C56.1614 20.7827 56.5748 21.3049 56.8848 21.7226C57.1949 22.3492 57.5049 22.8714 57.8149 23.3936C58.435 24.4379 58.9517 25.3778 59.4685 26.4222L59.5718 26.6311C59.9852 27.4666 60.1919 27.7799 60.1919 28.1976C60.2952 29.1375 60.7086 29.973 60.9153 30.3907V30.4952C61.122 31.0174 61.2254 31.2262 61.2254 31.3307C61.3287 32.1661 61.6388 32.7928 61.8454 33.2105V33.3149C61.9488 33.5238 61.9488 33.6282 62.0521 33.7327C62.0521 34.4637 62.1555 35.0903 62.1555 35.717V35.9258C62.1555 36.448 62.2588 36.9702 62.2588 37.3879C62.2588 38.3278 62.4655 39.3722 62.5689 40.2077C62.5689 40.4166 62.6722 40.7299 62.6722 40.9387C62.7756 41.9831 62.8789 42.923 62.7756 43.8629C62.4655 47.727 59.8819 51.4867 57.1949 55.142C56.8848 55.4553 56.6781 55.873 56.3681 56.1863C55.438 57.4395 54.6112 58.5883 53.6811 59.7371C52.4409 61.0948 51.2008 62.1391 49.8573 62.6613C48.7204 63.0791 47.687 63.6012 46.6535 64.019C46.5502 64.1234 46.4468 64.1234 46.2401 64.2278C45.8267 64.4367 45.4134 64.5412 44.7933 64.6456H44.5866C44.0699 64.75 43.2431 64.9589 42.5197 65.2722C41.0728 65.7944 39.626 65.7944 37.7657 65.7944C37.3523 65.7944 36.8356 65.7944 36.3189 65.7944C35.2854 65.7944 34.1486 65.7944 33.1151 65.7944C29.9114 65.7944 26.9143 65.8988 23.9173 65.4811C23.9173 65.4811 23.814 65.4811 23.814 65.3766C23.7106 65.2722 23.5039 65.2722 23.2972 65.0633C23.0905 64.9589 22.8838 64.75 22.6771 64.6456C22.5738 64.6456 22.5738 64.5412 22.4705 64.5412C22.2638 64.4367 22.0571 64.3323 21.9537 64.1234C21.8504 64.1234 21.8504 64.019 21.6437 63.9145C21.5403 63.8101 21.3336 63.7057 21.1269 63.4968C20.9203 63.3924 20.7136 63.1835 20.4035 63.0791C20.1968 62.9746 19.7834 62.7657 19.2667 62.6613C19.2667 62.6613 19.1634 62.6613 19.06 62.5569C18.9567 62.4524 18.75 62.348 18.4399 62.1391C18.3366 62.1391 18.3366 62.0347 18.2332 61.9303L18.1299 61.8258C17.9232 61.3036 17.6132 60.8859 17.1998 60.677C14.8228 59.2149 13.686 58.3795 12.7559 56.3952C12.4458 55.6641 12.1358 54.8286 11.9291 53.8887C11.8258 53.6799 11.8258 53.471 11.7224 53.2621C11.4124 52.1133 10.8956 50.6512 10.0689 49.398C8.20864 46.5782 6.86514 43.8629 6.86514 41.0432C6.86514 39.5811 6.76179 37.9101 6.76179 36.2391C6.76179 34.9859 6.65845 33.7327 6.65845 32.5839C6.65845 29.7641 6.76179 27.1532 7.17518 24.6468C7.58856 22.6625 8.51868 20.2605 9.75884 18.1718C11.1023 16.0831 12.6525 14.5166 14.3061 13.8899C15.2362 13.5766 16.1663 12.95 16.8897 12.5323C17.0964 12.4278 17.1998 12.3234 17.3031 12.219C18.1299 11.6968 18.6466 11.4879 19.06 11.4879C19.8868 11.4879 20.5069 11.2791 21.0236 11.0702C21.2303 10.9657 21.437 10.8613 21.6437 10.7569C21.8504 10.6524 21.9537 10.6524 22.1604 10.548C22.7805 10.3391 23.4006 10.2347 24.3307 10.0258C25.1575 9.81696 26.1909 9.71252 27.2244 9.29478C27.5344 9.19035 27.7411 9.08591 27.9478 8.98147C28.6712 8.66817 29.0846 8.56373 29.498 8.56373C29.498 8.56373 29.6014 8.56373 29.808 8.56373H29.9114C30.1181 8.56373 30.4281 8.56373 30.6348 8.66817C34.6653 9.08591 35.0787 9.19035 35.4921 9.08591ZM13.376 59.5282C14.6161 61.4081 15.7529 62.6613 17.3031 63.8101C18.2332 64.4367 19.2667 65.3766 19.2667 65.3766C19.3701 65.4811 24.124 67.6742 24.5374 67.8831C25.1575 68.1964 26.1909 68.823 27.121 68.9274C30.4281 69.3452 33.7352 70.3895 36.939 70.3895C37.9724 70.3895 38.9025 70.3895 39.8327 70.3895C40.1427 70.3895 40.5561 70.3895 40.8661 70.3895C42.8297 70.3895 45.31 70.494 47.5836 69.5541C47.997 69.4496 48.4104 69.3452 49.0305 69.1363H49.1338C49.7539 69.0319 50.5807 68.823 51.4075 68.4053L51.8208 68.1964C52.8543 67.7787 53.7844 67.3609 54.7145 66.9432C56.9882 66.1077 58.8484 64.4367 60.2952 62.7657C61.4321 61.5125 62.4655 60.0504 63.3956 58.7972C63.6023 58.4839 63.809 58.1706 64.1191 57.8573L64.2224 57.7528C66.8061 54.3065 70.2165 49.5024 70.6299 44.1762C70.7332 42.7141 70.6299 41.4609 70.5265 40.3121C70.5265 39.9988 70.4232 39.6855 70.4232 39.4766C70.3199 38.6411 70.2165 37.9101 70.2165 37.1791C70.2165 36.5524 70.1132 36.0303 70.1132 35.5081V35.2992C70.0098 34.6726 70.0098 34.1504 70.0098 33.6282C70.0098 32.6883 69.5964 31.9573 69.4931 31.5395V31.4351C69.3897 31.2262 69.3897 31.1218 69.2864 31.0174C69.2864 30.9129 69.2864 30.9129 69.2864 30.9129C69.183 29.973 68.7697 29.1375 68.563 28.7198V28.6153C68.563 28.5109 68.4596 28.5109 68.4596 28.4065C68.3563 28.0932 68.2529 27.6754 68.1496 27.3621C68.0462 26.5266 67.6328 25.6912 67.3228 25.0645C64.0157 16.6053 57.2982 9.92139 48.9271 6.57946C48.6171 6.37059 48.4104 6.26615 48.1004 6.05728C47.8937 5.95285 47.5836 5.74397 47.2736 5.5351L47.1703 5.43067C46.8602 5.2218 46.5502 5.01293 46.2401 4.80406C45.4134 4.38631 44.3799 3.86414 43.0364 3.86414C42.8297 3.86414 42.623 3.86414 42.313 3.86414H42.2096C41.8996 3.86414 41.4862 3.86414 41.0728 3.86414C40.5561 3.86414 39.7293 3.96857 38.9025 4.28188C37.9724 4.28188 37.0423 4.38631 36.2155 4.49075C36.1122 4.49075 35.9055 4.49075 35.8021 4.59518C35.0787 7.62381 30.6348 7.41494 27.7411 8.7726C27.5344 8.87704 22.3671 9.08591 22.3671 9.08591C21.747 9.50365 21.1269 10.1303 20.6102 10.2347C17.8199 11.3835 15.9596 13.5766 14.4094 16.0831C12.7559 18.5895 10.689 20.9916 10.1722 23.498C10.0689 24.0202 8.72537 25.5867 8.72537 26.0045C8.51868 29.8686 6.86514 36.1347 7.58856 40.1032C5.21159 47.5182 8.62203 53.471 13.376 59.5282ZM13.376 59.5282C19.3701 66.0032 27.2244 70.3895 36.6289 70.3895C54.7145 70.3895 69.3897 55.5597 69.3897 37.3879C69.3897 34.3593 68.9764 31.3307 68.1496 28.5109C67.9429 28.0932 67.9429 27.8843 67.8395 27.7799C67.8395 27.6754 67.8395 27.571 67.8395 27.4666C67.6328 26.7355 67.3228 25.9 67.0128 25.169C66.9094 25.0645 66.9094 24.9601 66.8061 24.7512C66.8061 24.6468 66.7027 24.6468 66.7027 24.5424C66.0827 23.3936 65.4626 22.1403 64.8425 21.096C64.5325 20.5738 64.3258 20.1561 64.0157 19.6339C63.2923 18.3807 62.2588 17.4407 61.4321 16.8141C61.122 16.6053 60.9153 16.3964 60.7086 16.292C60.1919 15.8742 59.7785 15.5609 59.3651 15.2476C58.125 13.9944 56.4714 12.6367 55.0246 11.5924C54.1978 10.9657 53.371 10.3391 52.4409 9.60809C52.2342 9.39922 52.0275 9.19035 51.7175 8.98147C50.7874 8.25043 49.7539 7.41494 48.6171 6.68389C44.8966 5.2218 40.7628 4.38631 36.5256 4.38631C36.0088 4.38631 35.5954 4.38631 35.0787 4.38631C34.872 4.49075 34.6653 4.59518 34.4586 4.69962C34.3553 4.69962 34.3553 4.69962 34.2519 4.69962C34.0453 4.69962 33.8386 4.69962 33.6319 4.69962H33.5285C33.4252 4.69962 33.2185 4.69962 33.1151 4.69962C33.0118 4.69962 32.8051 4.69962 32.5984 4.69962C32.4951 4.69962 32.3917 4.69962 32.185 4.69962C32.0817 4.69962 31.875 4.69962 31.7716 4.80406C30.7382 5.01293 30.1181 7.51938 30.0147 7.51938C29.3947 7.72825 27.2244 7.93712 27.2244 7.93712C26.3976 8.04156 22.6771 8.87704 22.6771 8.87704C14.9262 12.5323 9.24211 17.8585 6.24506 25.9C5.93502 28.302 5.31494 30.8085 5.31494 33.2105C5.31494 34.6726 5.41829 35.9258 5.41829 37.1791C5.41829 38.6411 5.72833 40.2077 5.93502 41.6698C6.45175 44.8028 7.58856 49.5024 9.4488 52.4266C9.96553 53.1577 10.2756 53.9932 10.5856 55.142C10.5856 55.3508 10.689 55.5597 10.689 55.7686L11.2057 56.2907C11.5157 57.2307 11.7224 57.4395 12.2392 58.4839C12.7559 58.7972 13.2726 59.2149 13.376 59.5282Z" fill="#FBD07D"/>
<path id="edge" d="M8.41532 34.777C7.89859 57.0218 28.0512 67.4653 24.124 68.4052C20.6102 68.4052 4.48816 59.006 4.48816 33.7326C4.48816 12.95 22.0571 7.83264 25.5708 7.83264C29.0846 7.83264 8.82871 11.4879 8.41532 34.777Z" fill="#E3B863"/>
<g id="choc">
<path id="Ellipse" d="M11.929 55.2464C13.2989 55.2464 14.4094 54.1242 14.4094 52.7399C14.4094 51.3556 13.2989 50.2335 11.929 50.2335C10.5592 50.2335 9.44873 51.3556 9.44873 52.7399C9.44873 54.1242 10.5592 55.2464 11.929 55.2464Z" fill="#B37768"/>
<path id="Ellipse 2" d="M30.5313 7.41494C31.9012 7.41494 33.0117 6.29277 33.0117 4.90849C33.0117 3.52421 31.9012 2.40204 30.5313 2.40204C29.1615 2.40204 28.051 3.52421 28.051 4.90849C28.051 6.29277 29.1615 7.41494 30.5313 7.41494Z" fill="#B37768"/>
<path id="Ellipse 3" d="M64.8424 30.0774C66.2122 30.0774 67.3227 28.9552 67.3227 27.571C67.3227 26.1867 66.2122 25.0645 64.8424 25.0645C63.4725 25.0645 62.3621 26.1867 62.3621 27.571C62.3621 28.9552 63.4725 30.0774 64.8424 30.0774Z" fill="#B37768"/>
<path id="Ellipse 4" d="M44.7934 66.1077C46.9623 66.1077 48.7205 64.3309 48.7205 62.1391C48.7205 59.9474 46.9623 58.1706 44.7934 58.1706C42.6245 58.1706 40.8662 59.9474 40.8662 62.1391C40.8662 64.3309 42.6245 66.1077 44.7934 66.1077Z" fill="#B37768"/>
<path id="Ellipse 5" d="M25.1574 66.6299C26.7555 66.6299 28.0511 65.3207 28.0511 63.7057C28.0511 62.0907 26.7555 60.7815 25.1574 60.7815C23.5592 60.7815 22.2637 62.0907 22.2637 63.7057C22.2637 65.3207 23.5592 66.6299 25.1574 66.6299Z" fill="#B37768"/>
<path id="Ellipse 6" d="M49.6506 11.6968C51.8195 11.6968 53.5777 9.92002 53.5777 7.72825C53.5777 5.53648 51.8195 3.7597 49.6506 3.7597C47.4816 3.7597 45.7234 5.53648 45.7234 7.72825C45.7234 9.92002 47.4816 11.6968 49.6506 11.6968Z" fill="#B37768"/>
<path id="Ellipse 7" d="M59.4684 53.2621C61.0666 53.2621 62.3621 51.9529 62.3621 50.3379C62.3621 48.7229 61.0666 47.4137 59.4684 47.4137C57.8703 47.4137 56.5747 48.7229 56.5747 50.3379C56.5747 51.9529 57.8703 53.2621 59.4684 53.2621Z" fill="#B37768"/>
<path id="Ellipse 8" d="M29.0846 54.8286C30.6828 54.8286 31.9783 53.5194 31.9783 51.9044C31.9783 50.2894 30.6828 48.9802 29.0846 48.9802C27.4865 48.9802 26.1909 50.2894 26.1909 51.9044C26.1909 53.5194 27.4865 54.8286 29.0846 54.8286Z" fill="#B37768"/>
<path id="Ellipse 9" d="M17.3031 21.5137C18.9013 21.5137 20.1968 20.2045 20.1968 18.5895C20.1968 16.9745 18.9013 15.6653 17.3031 15.6653C15.705 15.6653 14.4094 16.9745 14.4094 18.5895C14.4094 20.2045 15.705 21.5137 17.3031 21.5137Z" fill="#B37768"/>
<path id="Ellipse 10" d="M8.41532 35.0904C10.5842 35.0904 12.3425 33.3136 12.3425 31.1218C12.3425 28.93 10.5842 27.1533 8.41532 27.1533C6.24641 27.1533 4.48816 28.93 4.48816 31.1218C4.48816 33.3136 6.24641 35.0904 8.41532 35.0904Z" fill="#B37768"/>
</g>
<g id="face">
<path id="Ellipse 2 1" d="M31.565 26.3177C32.3641 26.3177 33.0119 25.6631 33.0119 24.8557C33.0119 24.0482 32.3641 23.3936 31.565 23.3936C30.7659 23.3936 30.1182 24.0482 30.1182 24.8557C30.1182 25.6631 30.7659 26.3177 31.565 26.3177Z" fill="#737898"/>
<path id="Ellipse 2.2" d="M46.9637 34.4637C46.9637 36.5524 43.5532 39.6855 40.3495 39.6855C37.1458 39.6855 34.4587 36.5524 34.4587 34.4637C34.4587 32.375 37.1458 33.0016 40.3495 33.0016C43.5532 33.0016 46.9637 32.375 46.9637 34.4637Z" fill="#737898"/>
<path id="Ellipse 2.1" d="M49.1339 25.4822C49.9329 25.4822 50.5807 24.8276 50.5807 24.0201C50.5807 23.2126 49.9329 22.558 49.1339 22.558C48.3348 22.558 47.687 23.2126 47.687 24.0201C47.687 24.8276 48.3348 25.4822 49.1339 25.4822Z" fill="#737898"/>
</g>
</g>
</svg>
