<svg xmlns="http://www.w3.org/2000/svg" width="40" height="40" fill="none" viewBox="0 0 40 40"><path fill="#EA8571" d="M39.764 17.066 38.232 6.26a5.312 5.312 0 0 0-1.488-2.96 5.271 5.271 0 0 0-2.949-1.495L23.037.265a1.792 1.792 0 0 0-1.536.498L.744 21.618c-.724.722-.686 1.93.08 2.699l14.994 15.062c.766.768 1.969.807 2.688.085L39.268 18.61a1.81 1.81 0 0 0 .495-1.543M31.416 8.65a2.527 2.527 0 0 1-.544-2.75c.19-.46.512-.855.925-1.132A2.504 2.504 0 0 1 35.514 5.9a2.534 2.534 0 0 1-.544 2.75 2.51 2.51 0 0 1-1.776.739 2.502 2.502 0 0 1-1.777-.74"/><path fill="#F9AB98" d="M39.764 17.066 38.232 6.26a5.312 5.312 0 0 0-1.486-2.96 5.272 5.272 0 0 0-2.95-1.495L23.037.265a1.792 1.792 0 0 0-1.536.498L1.524 20.918c-.72.722-.681 1.93.084 2.699l14.995 15.061c.765.77 1.968.808 2.686.086l19.979-20.156a1.808 1.808 0 0 0 .496-1.542m-8.346-8.417a2.526 2.526 0 0 1-.544-2.75c.19-.46.512-.855.925-1.132A2.504 2.504 0 0 1 35.514 5.9a2.533 2.533 0 0 1-.544 2.75 2.512 2.512 0 0 1-1.776.739 2.501 2.501 0 0 1-1.776-.74"/><path fill="#EA8571" d="M31.628 8.554c-.837-.88-.978-2.253-.204-3.229.837-1.052 2.403-1.099 3.34-.156.852.858.96 2.27.2 3.226-.852 1.074-2.379 1.072-3.34.157-.13-.125-.553.052-.413.187 1.699 1.619 4.784.485 4.72-1.982-.066-2.523-3.35-3.4-4.875-1.535a2.662 2.662 0 0 0 .155 3.517c.123.131.55-.041.417-.185"/><path fill="#fff" d="M15.563 21.922c.549.55 1.01.905 1.386 1.067.376.162.685.121.928-.122.487-.486.187-1.272-.9-2.359-1.086-1.086-1.873-1.386-2.359-.9-.243.243-.283.552-.121.928.162.375.517.838 1.066 1.386m2.475-2.497c.847.848 1.331 1.637 1.453 2.37.121.726-.115 1.385-.707 1.978-.56.56-1.214.775-1.962.646-.747-.136-1.53-.613-2.347-1.43-1.684-1.683-1.938-3.112-.763-4.287.578-.578 1.241-.803 1.989-.674.748.121 1.526.587 2.337 1.398m6.01.465c.549.548 1.013.906 1.392 1.071.383.162.696.122.94-.121.482-.483.176-1.27-.918-2.365-1.079-1.079-1.86-1.377-2.342-.895-.243.243-.287.553-.133.928.159.372.512.833 1.061 1.382m2.486-2.486c.847.847 1.33 1.635 1.447 2.364.118.73-.116 1.387-.701 1.972-.56.56-1.212.777-1.956.652-.747-.129-1.532-.604-2.353-1.425-1.683-1.683-1.936-3.114-.757-4.293.567-.567 1.225-.79 1.972-.668.752.118 1.534.584 2.348 1.398M19.248 13.4l3.596 12.556-1.072 1.072-3.596-12.557z"/></svg>