<svg width="136" height="136" viewBox="0 0 136 136" fill="none" xmlns="http://www.w3.org/2000/svg">
<path d="M37.7385 121.31C35.091 120.738 3.28103 115.581 5.62478 77.5502C7.96853 39.5189 10.906 28.0814 23.2735 23.8964C35.641 19.7114 65.6998 -0.0873122 89.2898 18.7389C95.4148 23.6264 101.654 28.3552 107.615 33.4702C115.805 40.5002 124.227 48.6164 128.25 59.2502C130.146 64.2702 130.857 69.6602 130.329 75.0002C129.712 81.2764 128.845 87.3814 127.265 93.5002C126.727 95.5835 126.189 97.6669 125.651 99.7502C125.329 101 125.004 102.258 124.495 103.435C121.224 111.023 117.097 116.001 110.184 120.041C104.184 123.541 96.7485 123.455 90.121 123.069C63.7673 121.533 50.3273 124.033 37.7385 121.31Z" fill="#F9F9F9"/>
<path d="M90.8235 21.6968H47.666C43.7323 21.6968 40.541 24.773 40.541 28.5718V111.776C40.541 115.569 43.7298 118.644 47.666 118.644H90.8235C94.7585 118.644 97.9485 115.569 97.9485 111.776V28.5668C97.9472 24.773 94.7585 21.6968 90.8235 21.6968Z" fill="white"/>
<path d="M90.8247 118.894H47.666C43.601 118.894 40.291 115.7 40.291 111.775V28.5664C40.291 24.6402 43.5985 21.4414 47.666 21.4414H90.8247C94.8897 21.4414 98.1997 24.6352 98.1997 28.5664V111.775C98.1972 115.7 94.8897 118.894 90.8247 118.894ZM47.666 21.9464C43.876 21.9464 40.791 24.9164 40.791 28.5714V111.775C40.791 115.425 43.8735 118.394 47.666 118.394H90.8247C94.6135 118.394 97.6997 115.425 97.6997 111.775V28.5664C97.6997 24.9164 94.616 21.9414 90.8247 21.9414L47.666 21.9464Z" fill="#6A79A8"/>
<path d="M74.1388 28.6703H64.32C63.9835 28.6703 63.6608 28.5366 63.4229 28.2987C63.1849 28.0608 63.0513 27.738 63.0513 27.4016C63.0513 27.0651 63.1849 26.7424 63.4229 26.5044C63.6608 26.2665 63.9835 26.1328 64.32 26.1328H74.1388C74.4753 26.1328 74.798 26.2665 75.036 26.5044C75.2739 26.7424 75.4076 27.0651 75.4076 27.4016C75.4076 27.738 75.2739 28.0608 75.036 28.2987C74.798 28.5366 74.4753 28.6703 74.1388 28.6703ZM64.32 26.6328C64.1161 26.6328 63.9206 26.7138 63.7764 26.858C63.6323 27.0021 63.5513 27.1977 63.5513 27.4016C63.5513 27.6054 63.6323 27.801 63.7764 27.9451C63.9206 28.0893 64.1161 28.1703 64.32 28.1703H74.1388C74.3427 28.1703 74.5382 28.0893 74.6824 27.9451C74.8266 27.801 74.9076 27.6054 74.9076 27.4016C74.9076 27.1977 74.8266 27.0021 74.6824 26.858C74.5382 26.7138 74.3427 26.6328 74.1388 26.6328H64.32Z" fill="#6A79A8"/>
<path d="M72.7371 116.81H65.9721C65.6 116.818 65.23 116.752 64.884 116.615C64.5379 116.478 64.2227 116.273 63.9567 116.013C63.6908 115.752 63.4795 115.441 63.3352 115.098C63.191 114.755 63.1167 114.387 63.1167 114.015C63.1167 113.642 63.191 113.274 63.3352 112.931C63.4795 112.588 63.6908 112.277 63.9567 112.016C64.2227 111.756 64.5379 111.551 64.884 111.414C65.23 111.278 65.6 111.211 65.9721 111.219H72.7371C73.1092 111.211 73.4791 111.278 73.8252 111.414C74.1712 111.551 74.4865 111.756 74.7524 112.016C75.0184 112.277 75.2296 112.588 75.3739 112.931C75.5181 113.274 75.5924 113.642 75.5924 114.015C75.5924 114.387 75.5181 114.755 75.3739 115.098C75.2296 115.441 75.0184 115.752 74.7524 116.013C74.4865 116.273 74.1712 116.478 73.8252 116.615C73.4791 116.752 73.1092 116.818 72.7371 116.81V116.81ZM65.9721 111.719C65.6661 111.712 65.3618 111.766 65.077 111.878C64.7922 111.99 64.5328 112.158 64.3139 112.372C64.0949 112.586 63.921 112.841 63.8022 113.123C63.6834 113.405 63.6222 113.708 63.6222 114.015C63.6222 114.321 63.6834 114.624 63.8022 114.906C63.921 115.188 64.0949 115.443 64.3139 115.657C64.5328 115.871 64.7922 116.039 65.077 116.151C65.3618 116.263 65.6661 116.317 65.9721 116.31H72.7371C73.043 116.317 73.3474 116.263 73.6321 116.151C73.9169 116.039 74.1764 115.871 74.3953 115.657C74.6142 115.443 74.7882 115.188 74.9069 114.906C75.0257 114.624 75.0869 114.321 75.0869 114.015C75.0869 113.708 75.0257 113.405 74.9069 113.123C74.7882 112.841 74.6142 112.586 74.3953 112.372C74.1764 112.158 73.9169 111.99 73.6321 111.878C73.3474 111.766 73.043 111.712 72.7371 111.719H65.9721Z" fill="#6A79A8"/>
<g clip-path="url(#clip0)">
<path d="M47.2334 118.838L89.7997 119.284C93.9834 119.328 97.2559 110.956 97.1034 100.659L96.2122 40.8263C96.0684 31.0901 92.6834 23.2838 88.6572 23.3263L47.6871 23.7051C43.7359 23.7426 40.4784 31.5201 40.4046 41.1463L39.9496 100.283C39.8709 110.454 43.1296 118.794 47.2334 118.838Z" fill="white"/>
<path d="M96.6594 70.9097L67.2031 119.046L89.7981 119.283C93.9819 119.327 97.2544 110.956 97.1019 100.658L96.6594 70.9097Z" fill="#F0F9FC"/>
<path d="M40.0796 83.3179L75.7996 23.4429L47.6921 23.7054C43.7408 23.7429 40.4833 31.5204 40.4096 41.1466L40.0796 83.3179Z" fill="#F0F9FC"/>
<path d="M95.5273 33.9312L44.8286 117.792C45.5786 118.45 46.3874 118.827 47.2336 118.836L52.7624 118.895L96.3073 47.1912L96.2123 40.8261C96.1844 38.5123 95.9552 36.2053 95.5273 33.9312V33.9312Z" fill="#F0F9FC"/>
</g>
<path d="M94.7674 109.598H43.7236C43.6573 109.598 43.5937 109.571 43.5469 109.525C43.5 109.478 43.4736 109.414 43.4736 109.348V33.3828C43.4736 33.3165 43.5 33.2529 43.5469 33.206C43.5937 33.1592 43.6573 33.1328 43.7236 33.1328H94.7674C94.8337 33.1328 94.8973 33.1592 94.9442 33.206C94.9911 33.2529 95.0174 33.3165 95.0174 33.3828V109.348C95.0174 109.414 94.9911 109.478 94.9442 109.525C94.8973 109.571 94.8337 109.598 94.7674 109.598ZM43.9736 109.098H94.5174V33.6328H43.9736V109.098Z" fill="#6A79A8"/>
<path d="M82.4634 83.9585H56.3309C51.8933 83.9585 48.2959 87.5559 48.2959 91.9935V91.9947C48.2959 96.4323 51.8933 100.03 56.3309 100.03H82.4634C86.901 100.03 90.4984 96.4323 90.4984 91.9947V91.9935C90.4984 87.5559 86.901 83.9585 82.4634 83.9585Z" fill="#EFEFEF"/>
<path d="M82.9976 83.9585H56.9976C52.8554 83.9585 49.4976 87.3163 49.4976 91.4585C49.4976 95.6006 52.8554 98.9584 56.9976 98.9584H82.9976C87.1397 98.9584 90.4976 95.6006 90.4976 91.4585C90.4976 87.3163 87.1397 83.9585 82.9976 83.9585Z" fill="white"/>
<path d="M82.5786 99.852H59.0223C56.7798 99.852 54.5986 99.9845 52.5611 98.8095C51.333 98.1019 50.3176 97.0775 49.6209 95.8432C48.9242 94.609 48.5718 93.2102 48.6005 91.7932C48.6293 90.3762 49.0381 88.9929 49.7843 87.7879C50.5305 86.5829 51.5866 85.6005 52.8423 84.9433C53.2011 84.7533 52.6698 84.642 52.4673 84.7508C50.2411 85.9308 48.5998 88.0508 48.1336 90.542C47.9182 91.7072 47.9581 92.9052 48.2505 94.0535C48.5429 95.2018 49.0809 96.273 49.8273 97.1933C50.5485 98.068 51.4413 98.7856 52.4508 99.3016C53.4602 99.8176 54.5647 100.121 55.6961 100.193C56.2736 100.231 56.8598 100.21 57.4373 100.21H82.3498C82.5848 100.21 82.9873 99.8558 82.5811 99.8558L82.5786 99.852Z" fill="#6A79A8"/>
<path d="M54.2885 84.4534C56.271 83.9534 58.5535 84.1909 60.5785 84.1909H80.1685C80.881 84.1909 81.5948 84.1909 82.3085 84.1909C84.2376 84.1662 86.1077 84.8558 87.559 86.127C89.0102 87.3983 89.94 89.1613 90.1694 91.0769C90.3989 92.9924 89.9118 94.9252 88.8019 96.5032C87.692 98.0812 86.0377 99.193 84.1573 99.6246C83.7823 99.7134 83.8973 100.15 84.2735 100.062C89.3548 98.8734 92.2873 93.2159 90.0073 88.4371C89.4696 87.3221 88.6899 86.3411 87.725 85.5657C86.7601 84.7902 85.6344 84.2398 84.4298 83.9547C83.5035 83.7372 82.576 83.7334 81.6335 83.7334H57.6335C56.4585 83.7334 55.3298 83.7334 54.1735 84.0247C53.7985 84.1209 53.9135 84.5571 54.2898 84.4609L54.2885 84.4534Z" fill="#6A79A8"/>
<path d="M58.0234 88.2731V95.7731C58.0234 96.0593 58.6322 95.9493 58.6322 95.7131V88.2131C58.6322 87.9268 58.0234 88.0381 58.0234 88.2731Z" fill="#6A79A8"/>
<path d="M55.4007 89.4771L60.7032 94.7808C60.9032 94.9796 61.4732 94.7283 61.2557 94.5096L55.952 89.207C55.7532 89.0083 55.1832 89.2596 55.4007 89.4771V89.4771Z" fill="#6A79A8"/>
<path d="M54.4635 92.1771H61.9635C62.2072 92.1771 62.5984 91.8096 62.1922 91.8096H54.6922C54.4422 91.8096 54.0572 92.1771 54.4635 92.1771V92.1771Z" fill="#6A79A8"/>
<path d="M55.9507 94.6246L61.2494 89.3234C61.3819 89.1909 60.8094 89.2522 60.7007 89.3609L55.3982 94.6634C55.2657 94.7959 55.8382 94.7359 55.9469 94.6272L55.9507 94.6246Z" fill="#6A79A8"/>
<path d="M69.125 88.2806V95.7806C69.125 96.0306 69.7288 95.9056 69.7288 95.7056V88.2056C69.7288 87.9556 69.125 88.0806 69.125 88.2806Z" fill="#6A79A8"/>
<path d="M66.4999 89.4771L71.8036 94.7808C72.0036 94.9796 72.5736 94.7283 72.3549 94.5096L67.0524 89.2071C66.8524 89.0071 66.2824 89.2596 66.4999 89.4771Z" fill="#6A79A8"/>
<path d="M65.6522 92.2255H73.1522C73.5047 92.2255 73.6097 91.7617 73.1997 91.7617H65.6997C65.3472 91.7617 65.2434 92.2255 65.6522 92.2255Z" fill="#6A79A8"/>
<path d="M67.0486 94.6246L72.3524 89.3208C72.4774 89.1958 71.9124 89.2521 71.8036 89.3596L66.4999 94.6646C66.3749 94.7896 66.9399 94.7333 67.0474 94.6258L67.0486 94.6246Z" fill="#6A79A8"/>
<path d="M80.1636 88.3245V95.8245C80.1636 95.9195 80.7673 95.8345 80.7673 95.6633V88.1633C80.7673 88.0683 80.1636 88.152 80.1636 88.3245Z" fill="#6A79A8"/>
<path d="M77.5283 89.4405L82.8309 94.7492C82.9334 94.8505 83.4759 94.6242 83.4021 94.5505L78.0983 89.2492C77.9971 89.1467 77.4546 89.3742 77.5283 89.4467V89.4405Z" fill="#6A79A8"/>
<path d="M76.5225 92.1249H84.0225C84.16 92.1249 84.7087 91.8623 84.4087 91.8623H76.9087C76.7712 91.8623 76.2225 92.1249 76.5225 92.1249Z" fill="#6A79A8"/>
<path d="M78.0911 94.6383L83.3948 89.3358C83.5498 89.1796 82.9611 89.2271 82.8398 89.3483L77.5361 94.6521C77.3811 94.8071 77.9698 94.7608 78.0911 94.6383Z" fill="#6A79A8"/>
<path d="M69.3751 48.7671C68.4347 48.7669 67.5036 48.952 66.6347 49.3118C65.7659 49.6715 64.9764 50.1989 64.3114 50.8638C63.6464 51.5286 63.1189 52.318 62.759 53.1868C62.3991 54.0556 62.2139 54.9867 62.2139 55.9271V60.2946H64.2789V55.9808C64.2789 54.6292 64.8158 53.333 65.7715 52.3772C66.7273 51.4215 68.0235 50.8846 69.3751 50.8846V50.8846C70.0443 50.8846 70.7069 51.0164 71.3252 51.2725C71.9434 51.5287 72.5051 51.9041 72.9783 52.3773C73.4514 52.8506 73.8267 53.4124 74.0826 54.0307C74.3386 54.649 74.4703 55.3116 74.4701 55.9808V56.7496C74.4699 56.7999 74.4797 56.8498 74.4989 56.8963C74.518 56.9429 74.5462 56.9852 74.5817 57.0209C74.6172 57.0565 74.6595 57.0848 74.7059 57.1041C74.7524 57.1234 74.8023 57.1333 74.8526 57.1333H76.1526C76.2029 57.1333 76.2528 57.1234 76.2993 57.1041C76.3458 57.0848 76.388 57.0565 76.4235 57.0209C76.459 56.9852 76.4872 56.9429 76.5063 56.8963C76.5255 56.8498 76.5353 56.7999 76.5351 56.7496V55.9321C76.5359 54.9914 76.3513 54.0597 75.9918 53.1903C75.6324 52.321 75.1051 51.531 74.4401 50.8656C73.7752 50.2002 72.9856 49.6723 72.1165 49.3123C71.2474 48.9522 70.3158 48.7669 69.3751 48.7671V48.7671Z" fill="#EFEFEF"/>
<path d="M69.3751 48.7671C66.1364 48.7671 63.0889 51.9721 63.0889 55.9271V60.2946H64.2789V55.9808C64.2789 54.6292 64.8158 53.333 65.7715 52.3772C66.7273 51.4215 68.0235 50.8846 69.3751 50.8846H69.0001C73.2614 50.6221 75.3451 53.1658 75.3451 55.9808V56.7496C75.3449 56.7999 75.3547 56.8498 75.3739 56.8963C75.393 56.9429 75.4212 56.9852 75.4567 57.0209C75.4922 57.0565 75.5344 57.0848 75.5809 57.1041C75.6274 57.1234 75.6773 57.1333 75.7276 57.1333H76.1526C76.2029 57.1333 76.2528 57.1234 76.2993 57.1041C76.3458 57.0848 76.388 57.0565 76.4235 57.0209C76.459 56.9852 76.4872 56.9429 76.5063 56.8963C76.5255 56.8498 76.5353 56.7999 76.5351 56.7496V55.9321C76.5359 54.9914 76.3513 54.0597 75.9918 53.1903C75.6324 52.321 75.1051 51.531 74.4401 50.8656C73.7752 50.2002 72.9856 49.6723 72.1165 49.3123C71.2474 48.9522 70.3158 48.7669 69.3751 48.7671V48.7671Z" fill="white"/>
<path d="M64.5849 57.9696C64.5849 56.8371 64.4662 55.6171 64.7912 54.5183C65.3724 52.5533 67.2024 51.1058 69.2674 51.0908C71.2987 51.0771 73.1637 52.4108 73.8599 54.3096C74.1324 55.0596 74.1662 55.8096 74.1662 56.5908C74.1662 57.1458 74.4062 57.3346 74.9449 57.3346C75.3874 57.3346 76.0062 57.4471 76.4299 57.2796C76.9724 57.0658 76.8437 56.4483 76.8412 55.9771C76.8535 54.24 76.2559 52.5537 75.1524 51.2121C72.8862 48.4958 68.8874 47.7983 65.7974 49.4871C64.1066 50.4111 62.8363 51.9504 62.2499 53.7858C61.8187 55.1483 61.9149 56.5808 61.9149 57.9896C61.9149 58.2896 62.5249 58.1871 62.5249 57.9358C62.5249 56.8971 62.4499 55.8196 62.6112 54.7896C62.896 52.9703 63.8897 51.338 65.3749 50.2496C68.4612 48.0096 72.8487 48.8746 74.9999 51.9821C75.5207 52.7366 75.8885 53.586 76.0824 54.4821C76.2387 55.1996 76.1874 55.8983 76.2424 56.6183C76.2424 56.6183 76.2737 56.8896 76.2799 56.8758C76.2487 56.9496 76.3049 56.8821 76.1549 56.9208C75.8962 56.9858 75.5437 56.9208 75.2799 56.9208C74.9924 56.9208 74.8474 56.9483 74.7937 56.6346C74.7762 56.4074 74.7762 56.1792 74.7937 55.9521C74.7437 52.5083 71.4912 50.0321 68.1499 50.8271C67.2727 51.039 66.4614 51.4645 65.7884 52.0658C65.1154 52.667 64.6015 53.4254 64.2924 54.2733C63.8724 55.4671 63.9937 56.7733 63.9937 58.0233C63.9937 58.3221 64.6024 58.2196 64.6024 57.9683L64.5849 57.9696Z" fill="#6A79A8"/>
<path d="M71.9872 71.1511H66.7635C65.1884 71.1511 63.6779 70.5254 62.5641 69.4117C61.4504 68.2979 60.8247 66.7874 60.8247 65.2123V59.8748C60.8247 59.5838 60.9403 59.3046 61.1462 59.0988C61.352 58.893 61.6311 58.7773 61.9222 58.7773H76.8285C77.1195 58.7773 77.3987 58.893 77.6045 59.0988C77.8103 59.3046 77.926 59.5838 77.926 59.8748V65.2123C77.926 66.7874 77.3003 68.2979 76.1865 69.4117C75.0728 70.5254 73.5623 71.1511 71.9872 71.1511V71.1511Z" fill="#F7E080"/>
<path d="M71.9874 70.4348H68.1536C66.5792 70.4348 65.0692 69.8097 63.9556 68.6967C62.842 67.5838 62.2158 66.0742 62.2148 64.4998V59.8748C62.2148 59.5838 62.3305 59.3046 62.5363 59.0988C62.7421 58.893 63.0213 58.7773 63.3124 58.7773H76.8287C77.1197 58.7773 77.3989 58.893 77.6047 59.0988C77.8105 59.3046 77.9262 59.5838 77.9262 59.8748V64.4998C77.9252 66.0742 77.299 67.5838 76.1854 68.6967C75.0718 69.8097 73.5618 70.4348 71.9874 70.4348V70.4348Z" fill="#FFEEA7"/>
<path d="M76.6327 68.5311C75.7277 69.8286 74.3739 70.7386 72.7877 70.9448C72.1627 71.0273 71.4977 70.9873 70.8627 70.9873C69.3489 70.9873 67.7652 71.1248 66.2577 70.9536C63.5402 70.6461 61.3827 68.361 61.1489 65.6523C61.0239 64.1873 61.1264 62.6785 61.1264 61.2098C61.1264 60.691 61.0152 60.0198 61.1727 59.511C61.3639 58.886 61.8514 58.9348 62.3452 58.9348H76.1427C76.7064 58.9348 77.2914 58.8973 77.5514 59.5598C77.7664 60.1098 77.6252 60.911 77.6252 61.4835C77.6252 63.4573 77.9077 65.7235 77.1489 67.5873C77.0764 67.7648 77.6739 67.6973 77.7514 67.506C78.4752 65.7273 78.2289 63.6123 78.2289 61.7285C78.2289 61.0885 78.2677 60.436 78.2289 59.7973C78.1827 59.0185 77.5777 58.6248 76.8539 58.6085C73.5877 58.5335 70.3102 58.6085 67.0427 58.6085H62.5427C62.1352 58.6085 61.7339 58.5873 61.3502 58.7585C60.6139 59.0873 60.5302 59.7273 60.5302 60.4285C60.5302 62.0423 60.5139 63.656 60.5302 65.2685C60.5408 66.5514 60.9556 67.7982 61.7157 68.8317C62.4758 69.8651 63.5425 70.6325 64.7639 71.0248C66.4127 71.5436 68.3577 71.3136 70.0614 71.3136C70.6652 71.3136 71.2714 71.3211 71.8764 71.3136C73.2672 71.3072 74.6207 70.8633 75.7452 70.0448C76.31 69.6245 76.8016 69.1139 77.2002 68.5336C77.3502 68.3186 76.7489 68.3761 76.6402 68.5336L76.6327 68.5311Z" fill="#6A79A8"/>
<path d="M70.8745 67.9866H67.8745L68.5895 64.5679C68.3717 64.445 68.1907 64.2662 68.065 64.05C67.9393 63.8338 67.8736 63.588 67.8745 63.3379C67.8745 62.9732 68.0194 62.6235 68.2772 62.3656C68.5351 62.1078 68.8848 61.9629 69.2495 61.9629C69.6142 61.9629 69.9639 62.1078 70.2218 62.3656C70.4797 62.6235 70.6245 62.9732 70.6245 63.3379C70.6245 63.8679 70.3358 64.3291 70.152 64.5679L70.8745 67.9866Z" fill="white"/>
<path d="M68.8262 64.3947C68.2824 64.0472 68.0074 63.3622 68.3062 62.7547C68.382 62.5944 68.4984 62.4566 68.6437 62.3549C68.789 62.2532 68.9583 62.1911 69.1349 62.1747C69.3115 62.1583 69.4893 62.1882 69.6508 62.2614C69.8124 62.3346 69.9521 62.4486 70.0562 62.5922C70.4637 63.1135 70.3537 63.786 70.0249 64.316C69.8749 64.5585 69.8562 64.566 69.8999 64.816C70.0674 65.9072 70.3549 66.9922 70.5812 68.0735L70.9099 67.7735H67.9099L68.1874 67.9685C68.3616 67.1402 68.5349 66.3118 68.7074 65.4835C68.7687 65.1885 68.1524 65.2635 68.0962 65.5297C67.922 66.3581 67.7487 67.1868 67.5762 68.016C67.5437 68.1697 67.7512 68.211 67.8549 68.211H70.8549C70.9999 68.211 71.2199 68.086 71.1849 67.911C71.0241 67.1427 70.8633 66.3731 70.7024 65.6022C70.6399 65.3022 70.4524 64.8522 70.4799 64.5422C70.5634 64.4566 70.6333 64.3589 70.6874 64.2522C70.8596 63.9422 70.9459 63.5918 70.9374 63.2372C70.8874 62.0297 69.5624 61.396 68.5212 61.906C68.2597 62.0323 68.0369 62.2264 67.8759 62.468C67.7148 62.7096 67.6215 62.99 67.6055 63.2799C67.5896 63.5698 67.6516 63.8587 67.7851 64.1166C67.9187 64.3744 68.1189 64.5918 68.3649 64.746C68.5862 64.8885 69.1149 64.5835 68.8312 64.3997L68.8262 64.3947Z" fill="#6A79A8"/>
<defs>
<clipPath id="clip0">
<rect width="51" height="76" fill="white" transform="translate(43.7993 33.5)"/>
</clipPath>
</defs>
</svg>
