<svg xmlns="http://www.w3.org/2000/svg" width="136" height="136" fill="none" viewBox="0 0 136 136"><path fill="#F9F9F9" d="M37.739 121.31c-2.648-.572-34.458-5.729-32.114-43.76 2.344-38.031 5.281-49.469 17.649-53.654C35.64 19.711 65.7-.087 89.29 18.74c6.125 4.887 12.364 9.616 18.325 14.731 8.19 7.03 16.612 15.146 20.635 25.78A34.866 34.866 0 0 1 130.329 75c-.617 6.276-1.484 12.381-3.064 18.5l-1.614 6.25c-.322 1.25-.647 2.508-1.156 3.685-3.271 7.588-7.398 12.566-14.311 16.606-6 3.5-13.435 3.414-20.063 3.028-26.354-1.536-39.794.964-52.382-1.759"/><path fill="#F7E080" d="m31.306 48.1-.073 46.465 73.455.116.073-46.466z"/><path fill="#FFEEA7" d="M36.207 89.672c-1.741-1.625-1.388-4.64-1.29-6.777.125-2.8.164-5.603.192-8.405.049-4.583.038-9.167-.032-13.75-.03-2.038-.014-4.086-.174-6.119-.044-.559-1.172-6.277-1.177-6.275 1.392-.912 5.455-.229 7.288-.226l7.702.012 20.34.034 34.046.054h1.662l-.008 5.514-.034 20.39-.015 9.9c0 2.595-.43 5.375-.329 7.896-6.875 1.092-14.237.307-21.139-.068-7.338-.398-14.686-.676-22.036-.742-7.156-.065-14.68.892-21.774-.17-1.01-.15-2.028-.406-2.875-.981a2.825 2.825 0 0 1-.347-.287"/><path fill="#F7E080" d="m31.31 48.101 73.455.119L69.4 78.26a2.643 2.643 0 0 1-3.324.079l-31.73-24.472z"/><path fill="#FFF8C1" d="m31.31 48.101 73.455.119L68.23 76.927z"/><path fill="#6A79A6" d="m104.517 48.16-3.638 2.858-8.734 6.864-10.516 8.263-9.133 7.18-3.013 2.368c-.435.342-1.083.69-1.433 1.125a.434.434 0 0 1-.063.05l.525-.062-3.678-2.875-8.838-6.89-10.625-8.3-9.233-7.209-3.044-2.375-.947-.74c-.143-.111-.327-.321-.5-.387a.343.343 0 0 1-.063-.05l-.394.305 7.33.012 17.534.028 21.264.035 18.314.028c2.958 0 5.932.1 8.89.015h.125c.242 0 .636-.365.228-.366l-7.33-.011L80.01 48l-21.264-.038-18.315-.03c-2.957 0-5.93-.099-8.888-.014h-.125c-.083 0-.585.155-.394.304l3.678 2.875 8.832 6.89 10.625 8.299 9.238 7.214 3.043 2.375c.473.368.936.81 1.444 1.125a.773.773 0 0 1 .064.048c.156.125.382.05.524-.062l3.637-2.861 8.734-6.864L91.359 59l9.138-7.178 3.013-2.369c.438-.343 1.078-.69 1.433-1.125a.377.377 0 0 1 .062-.05c.275-.216-.323-.248-.488-.118"/><path fill="#6A79A6" d="M31.009 48.189 31 52.814l-.019 11.106-.021 13.375-.019 11.625c0 1.278-.002 2.555-.006 3.831v1.186c0 .168-.064.478 0 .636a.291.291 0 0 1 0 .08c0 .066.144.063.177.063l7.33.013 17.532.017 21.262.035 18.315.029c2.955 0 5.938.125 8.89.015h.125c.125 0 .427-.064.427-.225l.007-4.59.019-11.089c.006-4.454.014-8.908.021-13.36l.019-11.605v-4.995c0-.163.061-.466 0-.625a.268.268 0 0 1 0-.08c0-.137-.604-.04-.604.162l-.007 4.59-.018 11.09c-.007 4.452-.015 8.905-.021 13.36l-.019 11.603v4.997c0 .167-.059.458 0 .624a.268.268 0 0 1 0 .08l.428-.225-7.33-.01-17.54-.03-21.262-.034-18.312-.03-6.032-.008h-1.875c-.308 0-.675-.055-.98 0a.79.79 0 0 1-.126 0l.178.063.007-4.626.018-11.106.021-13.375.019-11.625c0-1.277.002-2.554.006-3.83v-1.187c0-.168.063-.478 0-.635a.246.246 0 0 1 0-.081c0-.138-.604-.04-.604.162z"/></svg>