<svg xmlns="http://www.w3.org/2000/svg" width="136" height="136" fill="none" viewBox="0 0 136 136"><path fill="#F9F9F9" d="M37.739 121.31c-2.648-.572-34.458-5.729-32.114-43.76 2.344-38.031 5.281-49.469 17.649-53.654C35.64 19.711 65.7-.087 89.29 18.74c6.125 4.887 12.364 9.616 18.325 14.731 8.19 7.03 16.612 15.146 20.635 25.78A34.866 34.866 0 0 1 130.329 75c-.617 6.276-1.484 12.375-3.064 18.5l-1.614 6.25c-.322 1.25-.647 2.508-1.156 3.685-3.271 7.588-7.398 12.566-14.311 16.606-6 3.5-13.435 3.414-20.063 3.028-26.354-1.536-39.794.964-52.382-1.759"/><path fill="#E3E3E3" d="M13.712 98.796c-1.695-.33-2.32-.726-1.5-1.203 5.67-3.312 31.097-3.357 43.432-3.425 15.515-.083 31.659-.262 45.625.457 5.845.3 19.093.531 21.359 1.625 5.941 2.875-36.338 3.924-43.179 4-11.407.137-56.057.431-65.737-1.454"/><path fill="#E3E3E3" d="M115.537 97.125h-98.64A4.902 4.902 0 0 1 12 92.229v-.294a.287.287 0 0 1 .287-.288h107.865a.288.288 0 0 1 .288.288v.287a4.91 4.91 0 0 1-4.903 4.903"/><path fill="#E3E3E3" d="M111.074 92.735V38.293c0-.987-.775-1.793-1.723-1.793H23.162c-.947 0-1.722.806-1.722 1.792v54.443z"/><path fill="#fff" d="M112.547 91.609v-52.34a1.725 1.725 0 0 0-1.722-1.722H24.636a1.728 1.728 0 0 0-1.722 1.723v52.339z"/><path fill="#6A79A8" d="M112.85 91.527V40.442c0-.416.018-.836 0-1.25-.054-1.25-1.082-1.776-2.186-1.776H26.469c-1.506 0-3.774-.209-3.856 1.941-.062 1.58 0 3.175 0 4.75V91.69c0 .06.145.053.173.053h86c1.16 0 2.328.037 3.488 0h.147c.182 0 .655-.268.25-.268h-86c-1.136 0-2.353-.125-3.486 0a1.85 1.85 0 0 1-.149 0l.175.053V40.705c0-.5-.02-1 0-1.493.032-.79.5-1.453 1.328-1.53.111-.01.23 0 .341 0h83.936c1.367 0 3.362-.31 3.43 1.702.058 1.698 0 3.41 0 5.11V91.69c.004.12.604.028.604-.162"/><path fill="#fff" d="M117.047 97.125h-98.64a4.901 4.901 0 0 1-4.896-4.896v-.294a.287.287 0 0 1 .288-.288h107.865a.288.288 0 0 1 .286.287v.287a4.908 4.908 0 0 1-4.903 4.904"/><path fill="#6A79A8" d="M117.205 96.919H19.217c-.594 0-1.172.01-1.75-.14a4.819 4.819 0 0 1-3.5-3.875c-.024-.143.026-.945-.063-1.024-.009-.007-.3 0-.25-.021.021-.011.074 0 .098 0 1.275-.061 2.568 0 3.845 0h102.697c.273 0 .896-.125 1.148 0 .382.186 0 1.525-.098 1.857-.562 1.834-2.204 3.172-4.139 3.207-.272 0-.838.422-.313.412 1.652-.029 3.25-.716 4.313-2.009a5.056 5.056 0 0 0 1.062-2.292c.085-.478.313-1.466-.359-1.583a5.089 5.089 0 0 0-.816-.006H15.319c-.421 0-.846-.017-1.267 0-.325.014-.74.075-.893.403-.104.223-.044.607-.027.84.031.451.126.897.28 1.322.29.792.775 1.498 1.408 2.055 1.625 1.423 3.587 1.27 5.56 1.27h96.512c.275-.004.84-.416.313-.416"/><path fill="#6A79A8" d="M54.965 91.73c.365 1.691 1.953 1.598 3.29 1.598h18.457c1.487 0 3.374.21 3.788-1.702.034-.155-.175-.196-.277-.196H55.294c-.342 0-.464.439-.054.439h24.928l-.279-.196c-.326 1.512-1.962 1.217-3.125 1.217h-17.56c-1.296 0-3.267.375-3.635-1.321-.06-.276-.665-.12-.604.161"/><path fill="#fff" d="M107.624 41.708H26.327v47.42h81.297z"/><path fill="#6A79A8" d="M107.648 41.471H29.68c-1.06 0-2.139-.058-3.197 0h-.134c-.125 0-.329.108-.329.25v45.484c0 .598-.085 1.265 0 1.859v.084c0 .16.144.216.284.216h77.966c1.06 0 2.139.06 3.198 0h.133c.125 0 .33-.108.33-.25V43.63c0-.597.084-1.266 0-1.858a.603.603 0 0 1 0-.085c0-.33-.613-.25-.613.038V88.43c0 .17-.06.473 0 .634a.391.391 0 0 1 0 .084l.33-.25h-80.07c-.335 0-.767-.074-1.095 0a.598.598 0 0 1-.134 0l.285.216V42.406c0-.17.06-.473 0-.633a.238.238 0 0 1 0-.085l-.33.25h77.966c1.06 0 2.139.06 3.198 0h.133c.355.005.455-.467.047-.467"/><path fill="#EFEFEF" d="M107.624 41.702H26.365v4.716h81.259z"/><path fill="#6A79A8" d="M107.75 46.277H27.718c-.349 0-.75-.055-1.094 0a.999.999 0 0 1-.134 0l.177.06v-4.712l-.428.222h80.031c.349 0 .75.055 1.094 0a.81.81 0 0 1 .134 0l-.177-.06V46.5c0 .132.604.036.604-.161v-4.714c0-.064-.144-.06-.176-.06H36.5c-3.282 0-6.593-.125-9.875 0h-.134c-.114 0-.427.065-.427.222V46.5c0 .064.145.06.176.06h71.25c3.284 0 6.59.112 9.875 0h.135c.186-.001.65-.283.25-.283"/><path fill="#fff" d="M30.207 45.154c.607 0 1.098-.49 1.098-1.094 0-.604-.491-1.094-1.098-1.094-.607 0-1.1.49-1.1 1.094 0 .604.493 1.094 1.1 1.094"/><path fill="#6A79A8" d="M31.607 43.98c-.09-1.671-2.794-1.442-2.8.141-.008 1.69 2.715 1.464 2.798-.1.013-.232-.59-.11-.6.08-.026.46-.31.974-.848.875-.444-.085-.74-.542-.742-.97 0-.5.383-1 .922-.823.423.14.643.538.666.963.01.174.622.055.604-.166"/><path fill="#fff" d="M33.502 45.154c.606 0 1.098-.49 1.098-1.094 0-.604-.492-1.094-1.098-1.094-.607 0-1.1.49-1.1 1.094 0 .604.493 1.094 1.1 1.094"/><path fill="#6A79A8" d="M34.903 43.98c-.091-1.682-2.8-1.467-2.801.139 0 1.7 2.715 1.493 2.8-.094.015-.256-.593-.141-.604.071-.024.451-.318.973-.849.863a.975.975 0 0 1-.737-.957c0-.5.39-.98.923-.813.424.132.64.53.664.952.011.205.616.08.604-.161"/><path fill="#fff" d="M36.798 45.154c.607 0 1.099-.49 1.099-1.094 0-.604-.492-1.094-1.099-1.094s-1.099.49-1.099 1.094c0 .604.492 1.094 1.099 1.094"/><path fill="#6A79A8" d="M38.198 43.98c-.089-1.65-2.794-1.363-2.8.161-.008 1.666 2.719 1.343 2.8-.161 0-.073-.594-.008-.604.161-.029.541-.42 1.09-1.015.789a1.067 1.067 0 0 1-.577-.95c0-.513.407-1.061.965-.815a1.09 1.09 0 0 1 .625.976c.007.091.615-.005.606-.161"/><path fill="#EFEFEF" d="M90.59 60.489H64.458a8.035 8.035 0 0 0-8.035 8.035v.001a8.035 8.035 0 0 0 8.035 8.035H90.59a8.035 8.035 0 0 0 8.035-8.035v-.001a8.035 8.035 0 0 0-8.035-8.035"/><path fill="#fff" d="M65.125 60.489h26a7.5 7.5 0 0 1 7.5 7.5 7.5 7.5 0 0 1-7.5 7.5h-26a7.5 7.5 0 0 1-7.5-7.5 7.5 7.5 0 0 1 7.5-7.5"/><path fill="#6A79A8" d="M90.705 76.381H67.149c-2.242 0-4.423.134-6.46-1.041a7.91 7.91 0 0 1 .281-13.867c.358-.19-.172-.3-.375-.192-2.225 1.18-3.867 3.3-4.334 5.791a8.191 8.191 0 0 0 1.694 6.652 8.286 8.286 0 0 0 5.875 3c.578.037 1.163.016 1.741.016h24.903c.235 0 .638-.355.231-.355zM62.417 60.984c1.98-.5 4.264-.263 6.29-.263h21.728a7.816 7.816 0 0 1 1.849 15.428c-.375.088-.26.525.117.437 5.08-1.189 8.013-6.846 5.734-11.625a8.321 8.321 0 0 0-5.577-4.484c-.928-.217-1.855-.22-2.797-.22h-24c-1.173 0-2.302 0-3.46.292-.375.096-.258.532.118.436z"/><path fill="#6A79A8" d="M66.151 64.804v7.5c0 .286.608.176.608-.06V64.75c0-.286-.608-.176-.608.06z"/><path fill="#6A79A8" d="m63.527 66.008 5.304 5.304c.199.198.769-.054.551-.272l-5.303-5.302c-.2-.2-.77.052-.552.27"/><path fill="#6A79A8" d="M62.591 68.708h7.5c.244 0 .635-.368.228-.368h-7.5c-.243 0-.634.368-.228.368"/><path fill="#6A79A8" d="m64.077 71.157 5.304-5.303c.133-.133-.44-.072-.549.037l-5.303 5.303c-.133.132.44.072.548-.037m13.173-6.346v7.5c0 .25.604.125.604-.075v-7.5c0-.25-.604-.125-.604.075"/><path fill="#6A79A8" d="m74.625 66.008 5.303 5.304c.2.198.77-.053.552-.272l-5.303-5.302c-.199-.2-.769.052-.551.27z"/><path fill="#6A79A8" d="M73.78 68.756h7.5c.353 0 .456-.463.048-.463h-7.5c-.353 0-.453.463-.048.463"/><path fill="#6A79A8" d="m75.177 71.156 5.303-5.303c.125-.125-.44-.07-.548.038l-5.307 5.304c-.125.131.442.069.55-.039zm13.113-6.301v7.5c0 .095.604.01.604-.163v-7.5c0-.093-.604-.01-.604.163"/><path fill="#6A79A8" d="m85.655 65.971 5.304 5.304c.101.101.644-.125.571-.199l-5.304-5.302c-.1-.103-.643.125-.57.197"/><path fill="#6A79A8" d="M84.649 68.655h7.5c.139 0 .686-.262.387-.262h-7.5c-.138 0-.686.262-.387.262"/><path fill="#6A79A8" d="m86.219 71.17 5.302-5.303c.157-.157-.433-.11-.555.012l-5.302 5.303c-.156.156.434.11.555-.013"/><path fill="#EFEFEF" d="M44.144 56.081a7.161 7.161 0 0 0-7.162 7.162v4.367h2.067v-4.314a5.094 5.094 0 0 1 5.093-5.096 5.095 5.095 0 0 1 5.095 5.095v.764a.387.387 0 0 0 .384.384h1.299a.385.385 0 0 0 .384-.384v-.818a7.161 7.161 0 0 0-7.162-7.16z"/><path fill="#fff" d="M44.143 56.082c-3.237 0-6.285 3.206-6.285 7.16v4.368h1.19v-4.313a5.094 5.094 0 0 1 5.094-5.097h-.375c4.263-.262 6.346 2.281 6.346 5.096v.764a.384.384 0 0 0 .383.384h.424a.382.382 0 0 0 .383-.384v-.817a7.161 7.161 0 0 0-7.16-7.162z"/><path fill="#6A79A8" d="M39.354 65.285c0-1.132-.125-2.352.205-3.451.58-1.966 2.412-3.413 4.477-3.428 2.031-.013 3.896 1.32 4.591 3.22.273.75.308 1.5.308 2.28 0 .555.239.75.779.75.44 0 1.06.113 1.483-.055.544-.213.415-.83.413-1.302a7.43 7.43 0 0 0-1.689-4.765c-2.267-2.716-6.265-3.414-9.356-1.725a7.508 7.508 0 0 0-3.553 4.299c-.43 1.362-.333 2.795-.333 4.203 0 .3.608.198.608-.053 0-1.04-.073-2.117.087-3.147a6.97 6.97 0 0 1 2.763-4.536c3.087-2.241 7.474-1.375 9.625 1.733.52.754.888 1.604 1.082 2.5.156.717.105 1.416.16 2.136 0 0 .032.271.038.257-.03.074.024 0-.125.045-.258.065-.61 0-.875 0-.287 0-.432.028-.487-.286a4.769 4.769 0 0 1 0-.682c-.049-3.444-3.303-5.92-6.643-5.125a5.47 5.47 0 0 0-3.857 3.446c-.42 1.192-.3 2.5-.3 3.75 0 .299.61.196.61-.055z"/><path fill="#F7E080" d="M46.756 78.466h-5.224a5.94 5.94 0 0 1-5.94-5.938v-5.344a1.099 1.099 0 0 1 1.099-1.098h14.906a1.098 1.098 0 0 1 1.098 1.098v5.344a5.939 5.939 0 0 1-5.939 5.938"/><path fill="#FFEEA7" d="M46.756 77.75h-3.834a5.94 5.94 0 0 1-5.94-5.939v-4.625a1.1 1.1 0 0 1 1.1-1.097h13.515a1.098 1.098 0 0 1 1.098 1.097v4.625a5.939 5.939 0 0 1-5.939 5.94"/><path fill="#6A79A8" d="M51.401 75.846c-.906 1.298-2.259 2.208-3.845 2.414-.631.082-1.29.042-1.926.042-1.514 0-3.097.137-4.604-.033-2.718-.308-4.875-2.593-5.109-5.302-.125-1.465-.022-2.973-.022-4.442 0-.52-.112-1.19.046-1.699.191-.625.677-.577 1.172-.577H50.91c.565 0 1.149-.037 1.409.625.216.548.075 1.35.075 1.923 0 1.974.28 4.24-.477 6.104-.072.178.525.11.603-.081.73-1.778.48-3.893.48-5.776 0-.64.037-1.293 0-1.932-.048-.778-.653-1.172-1.375-1.19-3.267-.073-6.544 0-9.812 0h-4.5c-.406 0-.807-.02-1.19.152-.737.327-.82.967-.82 1.67 0 1.613-.018 3.227 0 4.84a6.098 6.098 0 0 0 4.233 5.756c1.649.519 3.589.285 5.296.285.605 0 1.21.007 1.815 0a6.632 6.632 0 0 0 3.875-1.269 6.426 6.426 0 0 0 1.455-1.511c.15-.215-.452-.158-.56 0z"/><path fill="#fff" d="M45.641 75.303h-2.993l.713-3.419a1.405 1.405 0 0 1-.713-1.231 1.375 1.375 0 0 1 2.75 0c0 .531-.29.992-.474 1.231z"/><path fill="#6A79A8" d="M43.595 71.71c-.545-.348-.82-1.032-.52-1.641a1.02 1.02 0 0 1 1.75-.161c.406.521.297 1.194-.031 1.724-.15.242-.17.25-.132.5.168 1.09.455 2.176.682 3.25l.328-.3h-3l.28.196c.172-.829.346-1.657.52-2.485.06-.295-.557-.22-.612.046l-.52 2.486c-.033.154.175.195.279.195h3c.145 0 .365-.125.328-.3-.16-.77-.32-1.54-.482-2.308-.063-.3-.25-.75-.221-1.06a1.16 1.16 0 0 0 .207-.29c.173-.31.259-.66.25-1.016-.05-1.208-1.375-1.84-2.416-1.33a1.626 1.626 0 0 0-.16 2.84c.221.143.75-.162.466-.346z"/></svg>