<svg width="136" height="136" viewBox="0 0 136 136" fill="none" xmlns="http://www.w3.org/2000/svg">
<path d="M37.7385 121.31C35.091 120.738 3.28103 115.581 5.62478 77.5502C7.96853 39.5189 10.906 28.0814 23.2735 23.8964C35.641 19.7114 65.6998 -0.0873135 89.2898 18.7389C95.4148 23.6264 101.654 28.3552 107.615 33.4702C115.805 40.5002 124.227 48.6164 128.25 59.2502C130.146 64.2702 130.857 69.6602 130.329 75.0002C129.712 81.2764 128.845 87.3814 127.265 93.5002C126.727 95.5835 126.189 97.6669 125.651 99.7502C125.329 101 125.004 102.258 124.495 103.435C121.224 111.023 117.097 116.001 110.184 120.041C104.184 123.541 96.7485 123.455 90.121 123.069C63.7673 121.533 50.3273 124.033 37.7385 121.31Z" fill="#F9F9F9"/>
<path d="M13.711 98.7965C12.016 98.4665 11.3923 98.0703 12.211 97.594C17.881 94.2815 43.3085 94.2365 55.6435 94.169C71.1586 94.0853 87.3023 93.9065 101.269 94.6253C107.114 94.9253 120.361 95.1565 122.627 96.2503C128.569 99.1253 86.2898 100.174 79.4486 100.25C68.0411 100.388 23.391 100.682 13.711 98.7965Z" fill="#E3E3E3"/>
<path d="M115.54 97.1249H16.8992C15.601 97.1236 14.3564 96.6073 13.4385 95.6894C12.5205 94.7715 12.0043 93.5269 12.0029 92.2287V91.935C12.0029 91.8587 12.0332 91.7856 12.0871 91.7317C12.1411 91.6777 12.2142 91.6475 12.2904 91.6475H120.155C120.232 91.6475 120.305 91.6777 120.359 91.7317C120.413 91.7856 120.443 91.8587 120.443 91.935V92.2225C120.441 93.5222 119.924 94.7682 119.005 95.6872C118.086 96.6063 116.84 97.1233 115.54 97.1249Z" fill="#E3E3E3"/>
<path d="M111.074 92.735V38.2925C111.074 37.3062 110.299 36.5 109.351 36.5H23.1624C22.2149 36.5 21.4399 37.3062 21.4399 38.2925V92.735H111.074Z" fill="#E3E3E3"/>
<path d="M112.547 91.6115V39.2728C112.546 38.8164 112.364 38.379 112.041 38.0563C111.719 37.7335 111.281 37.5516 110.825 37.5503H24.6361C24.1796 37.5516 23.7423 37.7335 23.4195 38.0563C23.0968 38.379 22.9149 38.8164 22.9136 39.2728V91.6115H112.547Z" fill="white"/>
<path d="M112.85 91.5275V40.4424C112.85 40.0262 112.867 39.6062 112.85 39.1924C112.796 37.9424 111.767 37.4162 110.663 37.4162H26.4684C24.9622 37.4162 22.6947 37.2074 22.6122 39.3574C22.5509 40.9374 22.6122 42.5324 22.6122 44.1074V91.6887C22.6122 91.75 22.7572 91.7425 22.7859 91.7425H108.786C109.946 91.7425 111.113 91.7787 112.273 91.7425C112.322 91.7425 112.372 91.7425 112.421 91.7425C112.602 91.7425 113.076 91.4737 112.671 91.4737H26.6709C25.5347 91.4737 24.3172 91.3487 23.1847 91.4737C23.1351 91.4762 23.0855 91.4762 23.0359 91.4737L23.2109 91.5275V40.7049C23.2109 40.2049 23.1909 39.7049 23.2109 39.2124C23.2422 38.4224 23.7109 37.7587 24.5384 37.6824C24.6497 37.6724 24.7684 37.6824 24.8797 37.6824H108.816C110.182 37.6824 112.177 37.3724 112.246 39.3837C112.303 41.0824 112.246 42.7937 112.246 44.4949V91.6887C112.25 91.81 112.85 91.7175 112.85 91.5275Z" fill="#6A79A8"/>
<path d="M117.047 97.1249H18.4075C17.1093 97.1236 15.8647 96.6073 14.9468 95.6894C14.0288 94.7715 13.5126 93.5269 13.5112 92.2287V91.935C13.5112 91.8587 13.5415 91.7856 13.5954 91.7317C13.6494 91.6777 13.7225 91.6475 13.7987 91.6475H121.664C121.701 91.6475 121.739 91.6549 121.774 91.6694C121.808 91.6838 121.84 91.705 121.867 91.7317C121.893 91.7585 121.914 91.7902 121.929 91.825C121.943 91.8599 121.95 91.8973 121.95 91.935V92.2225C121.949 93.5223 121.432 94.7685 120.513 95.6876C119.594 96.6067 118.347 97.1236 117.047 97.1249V97.1249Z" fill="white"/>
<path d="M117.205 96.9188H19.2161C18.6224 96.9188 18.0449 96.9288 17.4661 96.7788C16.572 96.5377 15.7663 96.0439 15.1456 95.3567C14.5249 94.6694 14.1154 93.8178 13.9661 92.9038C13.9424 92.7613 13.9924 91.9588 13.9036 91.8801C13.8949 91.8726 13.6036 91.8801 13.6536 91.8588C13.6749 91.8476 13.7274 91.8588 13.7511 91.8588C15.0261 91.7976 16.3199 91.8588 17.5961 91.8588H120.294C120.566 91.8588 121.19 91.7338 121.441 91.8588C121.824 92.0451 121.441 93.3838 121.344 93.7163C120.781 95.5501 119.14 96.8876 117.205 96.9226C116.932 96.9226 116.366 97.3451 116.891 97.3351C118.544 97.3063 120.141 96.6188 121.205 95.3263C121.747 94.6644 122.112 93.8755 122.266 93.0338C122.351 92.5563 122.58 91.5676 121.907 91.4513C121.636 91.4274 121.363 91.4253 121.091 91.4451H15.3186C14.8974 91.4451 14.4724 91.4276 14.0511 91.4451C13.7261 91.4588 13.3124 91.5201 13.1586 91.8476C13.0549 92.0713 13.1149 92.4551 13.1311 92.6876C13.1627 93.1394 13.2574 93.5845 13.4124 94.0101C13.7024 94.802 14.1863 95.5085 14.8199 96.0651C16.4449 97.4876 18.4061 97.3351 20.3799 97.3351H116.891C117.166 97.3313 117.731 96.9188 117.205 96.9188Z" fill="#6A79A8"/>
<path d="M54.9648 91.7302C55.3298 93.4214 56.9173 93.3276 58.2548 93.3276H76.711C78.1985 93.3276 80.086 93.5376 80.4998 91.6264C80.5335 91.4714 80.3248 91.4302 80.2223 91.4302H55.2935C54.951 91.4302 54.8298 91.8689 55.2398 91.8689H80.1673L79.8885 91.6727C79.5623 93.1851 77.926 92.8901 76.7635 92.8901H59.2035C57.9073 92.8901 55.936 93.2651 55.5685 91.5689C55.5085 91.2927 54.9035 91.4489 54.9648 91.7302Z" fill="#6A79A8"/>
<path d="M107.624 41.707H26.3262V89.1283H107.624V41.707Z" fill="white"/>
<path d="M107.647 41.4709H29.6797C28.6197 41.4709 27.541 41.4122 26.4822 41.4709C26.4385 41.4709 26.3935 41.4709 26.3485 41.4709C26.2235 41.4709 26.0197 41.5784 26.0197 41.7209V87.2047C26.0197 87.8022 25.9347 88.4697 26.0197 89.0634C26.0216 89.0913 26.0216 89.1193 26.0197 89.1472C26.0197 89.3072 26.1635 89.3634 26.3035 89.3634H104.27C105.33 89.3634 106.408 89.4234 107.467 89.3634C107.512 89.3634 107.557 89.3634 107.601 89.3634C107.726 89.3634 107.931 89.2559 107.931 89.1134V43.6309C107.931 43.0334 108.015 42.3647 107.931 41.7722C107.929 41.7439 107.929 41.7155 107.931 41.6872C107.931 41.3572 107.317 41.4372 107.317 41.7259V88.4297C107.317 88.5997 107.257 88.9022 107.317 89.0634C107.321 89.0912 107.321 89.1194 107.317 89.1472L107.647 88.8972H27.5772C27.2422 88.8972 26.811 88.8234 26.4822 88.8972C26.4377 88.9016 26.3929 88.9016 26.3485 88.8972L26.6335 89.1134V42.4059C26.6335 42.2359 26.6935 41.9322 26.6335 41.7722C26.6291 41.744 26.6291 41.7154 26.6335 41.6872L26.3035 41.9372H104.27C105.33 41.9372 106.408 41.9972 107.467 41.9372C107.512 41.9372 107.557 41.9372 107.601 41.9372C107.956 41.9422 108.056 41.4709 107.647 41.4709Z" fill="#6A79A8"/>
<path d="M107.623 41.7026H26.3647V46.4189H107.623V41.7026Z" fill="#EFEFEF"/>
<path d="M107.75 46.2773H27.7172C27.3685 46.2773 26.9672 46.2223 26.6235 46.2773C26.5789 46.2805 26.5343 46.2805 26.4897 46.2773L26.666 46.3373V41.6248L26.2385 41.8473H106.27C106.618 41.8473 107.02 41.9023 107.363 41.8473C107.408 41.8436 107.453 41.8436 107.497 41.8473L107.321 41.7873V46.4998C107.321 46.6323 107.925 46.5361 107.925 46.3386V41.6248C107.925 41.5611 107.781 41.5648 107.748 41.5648H36.4997C33.2172 41.5648 29.906 41.4398 26.6247 41.5648C26.5797 41.5648 26.536 41.5648 26.491 41.5648C26.376 41.5648 26.0635 41.6298 26.0635 41.7873V46.4998C26.0635 46.5636 26.2085 46.5598 26.2397 46.5598H97.4897C100.773 46.5598 104.08 46.6723 107.365 46.5598C107.41 46.5598 107.455 46.5598 107.498 46.5598C107.686 46.5586 108.15 46.2773 107.75 46.2773Z" fill="#6A79A8"/>
<path d="M30.2062 45.1538C30.813 45.1538 31.3049 44.6641 31.3049 44.0601C31.3049 43.456 30.813 42.9663 30.2062 42.9663C29.5994 42.9663 29.1074 43.456 29.1074 44.0601C29.1074 44.6641 29.5994 45.1538 30.2062 45.1538Z" fill="white"/>
<path d="M31.6057 43.9801C31.5157 42.3089 28.8119 42.5376 28.8057 44.1214C28.7982 45.8114 31.5207 45.5851 31.6044 44.0201C31.6169 43.7889 31.0132 43.9114 31.0032 44.1014C30.9782 44.5601 30.6944 45.0751 30.1557 44.9764C29.7119 44.8914 29.4157 44.4339 29.4144 44.0051C29.4144 43.5051 29.7969 43.0051 30.3357 43.1826C30.7594 43.3226 30.9794 43.7214 31.0019 44.1464C31.0119 44.3201 31.6244 44.2014 31.6057 43.9801Z" fill="#6A79A8"/>
<path d="M33.5011 45.1538C34.1079 45.1538 34.5998 44.6641 34.5998 44.0601C34.5998 43.456 34.1079 42.9663 33.5011 42.9663C32.8943 42.9663 32.4023 43.456 32.4023 44.0601C32.4023 44.6641 32.8943 45.1538 33.5011 45.1538Z" fill="white"/>
<path d="M34.9023 43.98C34.8111 42.2975 32.1023 42.5125 32.1011 44.1187C32.1011 45.82 34.8161 45.6125 34.9023 44.025C34.9161 43.7687 34.3086 43.8837 34.2973 44.0962C34.2736 44.5475 33.9798 45.0687 33.4486 44.9587C33.2362 44.9052 33.048 44.7817 32.9142 44.6083C32.7805 44.4349 32.7089 44.2215 32.7111 44.0025C32.7111 43.5025 33.1023 43.0225 33.6348 43.1887C34.0586 43.3212 34.2748 43.72 34.2986 44.1412C34.3098 44.3462 34.9148 44.2212 34.9023 43.98Z" fill="#6A79A8"/>
<path d="M36.7975 45.1538C37.4043 45.1538 37.8962 44.6641 37.8962 44.0601C37.8962 43.456 37.4043 42.9663 36.7975 42.9663C36.1907 42.9663 35.6987 43.456 35.6987 44.0601C35.6987 44.6641 36.1907 45.1538 36.7975 45.1538Z" fill="white"/>
<path d="M38.1975 43.9797C38.1087 42.3297 35.4037 42.6172 35.3975 44.141C35.39 45.8072 38.1162 45.4835 38.1975 43.9797C38.1975 43.9072 37.6037 43.9722 37.5937 44.141C37.565 44.6822 37.1737 45.231 36.5787 44.9297C36.4044 44.8398 36.2583 44.7035 36.1564 44.5359C36.0545 44.3683 36.0008 44.1759 36.0012 43.9797C36.0012 43.4672 36.4087 42.9185 36.9662 43.1647C37.1517 43.2522 37.3087 43.3902 37.4193 43.5629C37.5298 43.7356 37.5894 43.9359 37.5912 44.141C37.5987 44.2322 38.2062 44.136 38.1975 43.9797Z" fill="#6A79A8"/>
<path d="M83.2324 83.8228H50.8774V86.1565H83.2324V83.8228Z" fill="#EFEFEF"/>
<path d="M60.0475 85.074H73.6975C73.9062 85.074 74.345 84.7603 73.94 84.7603H60.29C60.0812 84.7603 59.6437 85.074 60.0475 85.074Z" fill="white"/>
<path d="M47.3148 83.0264H86.6248C86.9423 83.0264 87.036 82.6089 86.6685 82.6089H47.3573C47.0398 82.6089 46.946 83.0264 47.3148 83.0264V83.0264Z" fill="#F9F9F9"/>
<path d="M102.68 52.0073H82.9263V62.3186H102.921V52.0073H102.68Z" fill="#EFEFEF"/>
<path d="M100.47 59.3374H85.5084C85.3121 59.3374 84.8571 59.6311 85.2584 59.6311H100.222C100.417 59.6311 100.872 59.3374 100.472 59.3374H100.47Z" fill="white"/>
<path d="M100.375 56.9424H94.0773C93.7323 56.9424 93.6136 57.3849 94.0236 57.3849H100.319C100.664 57.3849 100.782 56.9424 100.372 56.9424H100.375Z" fill="white"/>
<path d="M91.6059 56.939H85.4097C85.0622 56.939 84.9497 57.389 85.3584 57.389H91.5547C91.9022 57.389 92.0159 56.939 91.6059 56.939Z" fill="white"/>
<path d="M91.6795 54.6152H85.3845C85.032 54.6152 84.927 55.0777 85.3357 55.0777H91.632C91.9832 55.0777 92.0882 54.6152 91.6795 54.6152Z" fill="white"/>
<path d="M102.68 68.5H82.9263V78.8125H102.921V68.5H102.68Z" fill="#EFEFEF"/>
<path d="M51.0609 68.5H31.0659V78.8113H51.0609V68.5Z" fill="#EFEFEF"/>
<path d="M46.7332 75.6577H35.4995C35.2782 75.6577 34.857 75.9927 35.2632 75.9927H46.4995C46.722 75.9927 47.142 75.6577 46.737 75.6577H46.7332Z" fill="white"/>
<path d="M46.5884 73.4502H35.4921C35.2221 73.4502 34.8671 73.8589 35.2746 73.8589H46.3746C46.6446 73.8589 46.9996 73.4502 46.5921 73.4502H46.5884Z" fill="white"/>
<path d="M46.7236 71.1313H35.4486C35.1773 71.1313 34.8236 71.5426 35.2323 71.5426H46.5073C46.7773 71.5426 47.1323 71.1313 46.7236 71.1313Z" fill="white"/>
<path d="M51.0609 51.9761H31.0659V62.2873H51.0609V51.9761Z" fill="#EFEFEF"/>
<path d="M46.8109 59.1787H35.5784C35.4534 59.1787 34.8959 59.4287 35.1872 59.4287H46.4184C46.5434 59.4287 47.1022 59.1787 46.8109 59.1787Z" fill="white"/>
<path d="M46.5972 56.959H35.4997C35.2722 56.959 34.8597 57.3027 35.2659 57.3027H46.3622C46.591 57.3027 47.0035 56.959 46.5972 56.959Z" fill="white"/>
<path d="M46.7412 54.6724H35.4662C35.2774 54.6724 34.8124 54.9536 35.2162 54.9536H46.4912C46.6787 54.9536 47.1437 54.6724 46.7412 54.6724Z" fill="white"/>
<path d="M79.4901 52.1011H54.4976V56.6198H79.4901V52.1011Z" fill="#EFEFEF"/>
<path d="M76.9238 59.9062H57.0651C55.8197 59.9062 54.8101 60.9158 54.8101 62.1613V75.1463C54.8101 76.3917 55.8197 77.4013 57.0651 77.4013H76.9238C78.1692 77.4013 79.1788 76.3917 79.1788 75.1463V62.1613C79.1788 60.9158 78.1692 59.9062 76.9238 59.9062Z" fill="#EF8F7F"/>
<path d="M75.8012 61.2637H58.1862C57.1355 61.2637 56.2837 62.1155 56.2837 63.1662V74.1424C56.2837 75.1931 57.1355 76.0449 58.1862 76.0449H75.8012C76.8519 76.0449 77.7037 75.1931 77.7037 74.1424V63.1662C77.7037 62.1155 76.8519 61.2637 75.8012 61.2637Z" fill="#F9AB98"/>
<path d="M77.1174 59.7773H57.6174C56.4049 59.7773 55.1374 60.1598 54.6611 61.4023C54.3511 62.2173 54.5099 63.3236 54.5099 64.1723V73.9648C54.5099 75.0898 54.3999 76.2723 55.4261 77.0473C56.1649 77.6036 57.0411 77.5248 57.9049 77.5248H75.8749C76.7499 77.5248 77.6149 77.5561 78.3899 77.0473C79.5024 76.3173 79.4861 75.1873 79.4861 74.0273V64.2998C79.4861 63.4398 79.6224 62.4373 79.4311 61.5861C79.1874 60.4936 78.2061 59.8161 77.1236 59.7773C76.9849 59.7773 76.4336 60.0273 76.7349 60.0361C77.9624 60.0811 78.8424 61.0423 78.8824 62.2486C78.8911 62.4986 78.8824 62.7486 78.8824 63.0061V67.1311C78.8824 69.7973 78.9124 72.4661 78.8824 75.1311C78.8711 76.1073 78.2961 77.1561 77.2261 77.2686C77.0475 77.278 76.8685 77.278 76.6899 77.2686H63.9399C61.7474 77.2686 59.5536 77.2923 57.3611 77.2686C55.9424 77.2523 55.1199 76.1623 55.1111 74.8248C55.1111 73.7073 55.1111 72.5898 55.1111 71.4711V62.5861C55.1111 61.3823 55.5274 60.0948 56.9724 60.0361C57.7399 60.0061 58.5136 60.0361 59.2824 60.0361H76.7286C76.8661 60.0361 77.4149 59.7773 77.1174 59.7773Z" fill="#6A79A8"/>
<path d="M62.6572 69.5001C62.6518 69.7137 62.6037 69.924 62.5159 70.1188C62.4079 70.3617 62.2576 70.5834 62.0722 70.7738C61.8532 70.9988 61.5903 71.1762 61.2997 71.2951C60.9515 71.435 60.5786 71.5031 60.2034 71.4951C59.9135 71.4979 59.6241 71.4677 59.3409 71.4051C59.0923 71.3493 58.854 71.2548 58.6347 71.1251C58.4147 70.9911 58.2179 70.8222 58.0522 70.6251C57.8911 70.4326 57.755 70.2205 57.6472 69.9938C57.5346 69.7545 57.4507 69.5028 57.3972 69.2438C57.3399 68.9667 57.3118 68.6843 57.3134 68.4013C57.3066 67.9603 57.3777 67.5215 57.5234 67.1051C57.6529 66.7399 57.8578 66.406 58.1247 66.1251C58.3832 65.8534 58.6969 65.6403 59.0447 65.5001C59.4023 65.3568 59.7844 65.2846 60.1697 65.2876C60.6187 65.2793 61.0632 65.3788 61.4659 65.5776C61.8119 65.7416 62.1124 65.9879 62.3409 66.2951C62.5239 66.526 62.6301 66.8083 62.6447 67.1026C62.647 67.2409 62.5949 67.3747 62.4997 67.4751C62.4555 67.526 62.4007 67.5667 62.3392 67.5943C62.2777 67.6219 62.2109 67.6358 62.1434 67.6351C62.0171 67.6441 61.892 67.6048 61.7934 67.5251C61.6885 67.4117 61.6013 67.2832 61.5347 67.1438C61.4041 66.8805 61.2125 66.6521 60.9759 66.4776C60.7412 66.3245 60.4648 66.2476 60.1847 66.2576C59.9552 66.2497 59.7271 66.2971 59.5198 66.3959C59.3124 66.4946 59.1319 66.6419 58.9934 66.8251C58.6976 67.2034 58.5497 67.7422 58.5497 68.4413C58.5373 68.838 58.604 69.2332 58.7459 69.6038C58.8548 69.8873 59.0492 70.1297 59.3022 70.2976C59.5545 70.4537 59.8468 70.5332 60.1434 70.5263C60.4591 70.5368 60.7697 70.4456 61.0297 70.2663C61.285 70.0739 61.4753 69.8077 61.5747 69.5038C61.6173 69.3654 61.6824 69.235 61.7672 69.1176C61.8123 69.0651 61.8693 69.0242 61.9335 68.9983C61.9976 68.9724 62.0671 68.9623 62.1359 68.9688C62.2054 68.9673 62.2745 68.9799 62.339 69.0059C62.4035 69.0319 62.462 69.0708 62.5109 69.1201C62.5606 69.1696 62.5993 69.2291 62.6245 69.2945C62.6497 69.36 62.6608 69.43 62.6572 69.5001Z" fill="white"/>
<path d="M63.6709 70.8122V65.971C63.658 65.7894 63.7108 65.6093 63.8196 65.4635C63.8695 65.4061 63.9317 65.3609 64.0017 65.3312C64.0717 65.3015 64.1475 65.2882 64.2234 65.2922C64.2996 65.2892 64.3756 65.3028 64.4462 65.3319C64.5167 65.361 64.5801 65.405 64.6321 65.4609C64.7458 65.6056 64.8011 65.7875 64.7871 65.971V70.8122C64.8013 70.9956 64.745 71.1776 64.6296 71.3209C64.5782 71.3769 64.5153 71.4211 64.4451 71.4505C64.375 71.4798 64.2993 71.4936 64.2234 71.4909C64.1479 71.4936 64.0728 71.4791 64.0038 71.4486C63.9347 71.418 63.8734 71.3723 63.8246 71.3147C63.7135 71.1717 63.6588 70.9929 63.6709 70.8122V70.8122Z" fill="white"/>
<path d="M66.4994 66.4336C66.3535 66.4369 66.2114 66.3862 66.1007 66.2911C66.0479 66.2391 66.006 66.1771 65.9773 66.1087C65.9487 66.0404 65.934 65.967 65.934 65.8929C65.934 65.8188 65.9487 65.7455 65.9773 65.6771C66.006 65.6088 66.0479 65.5468 66.1007 65.4948C66.2082 65.3957 66.3494 65.3412 66.4957 65.3423C66.6365 65.3409 66.7731 65.3902 66.8807 65.4811C66.9375 65.5314 66.9821 65.5941 67.0111 65.6642C67.0402 65.7344 67.0528 65.8103 67.0482 65.8861C67.0521 65.9611 67.0395 66.036 67.0112 66.1056C66.9829 66.1751 66.9396 66.2376 66.8844 66.2886C66.779 66.3838 66.6415 66.4356 66.4994 66.4336V66.4336ZM67.0519 67.5873V70.8136C67.0651 70.9969 67.0079 71.1784 66.8919 71.3211C66.8406 71.3769 66.7779 71.4211 66.708 71.4507C66.6381 71.4802 66.5627 71.4944 66.4869 71.4923C66.4115 71.495 66.3364 71.4805 66.2673 71.4499C66.1983 71.4194 66.137 71.3736 66.0882 71.3161C65.979 71.1731 65.9249 70.9956 65.9357 70.8161V67.6261C65.922 67.4462 65.9764 67.2677 66.0882 67.1261C66.1384 67.0708 66.2001 67.0271 66.269 66.9982C66.3379 66.9693 66.4123 66.9557 66.4869 66.9586C66.5624 66.9561 66.6376 66.9698 66.7074 66.9987C66.7773 67.0276 66.8402 67.071 66.8919 67.1261C67.005 67.2524 67.0642 67.4179 67.0569 67.5873H67.0519Z" fill="white"/>
<path d="M72.2133 70.1089C72.2086 70.2656 72.1657 70.4188 72.0883 70.5551C71.9937 70.7284 71.8663 70.8817 71.7133 71.0064C71.5224 71.1612 71.304 71.2787 71.0695 71.3526C70.7866 71.4416 70.4911 71.4838 70.1945 71.4776C69.5045 71.4776 68.9658 71.2768 68.5783 70.8751C68.1908 70.4734 67.9979 69.9359 67.9995 69.2626C67.9913 68.8423 68.0825 68.4259 68.2658 68.0476C68.4342 67.7048 68.7022 67.4208 69.0345 67.2326C69.3407 67.0749 69.6751 66.9795 70.0184 66.9518C70.3617 66.9241 70.7071 66.9648 71.0345 67.0713C71.2558 67.1445 71.4629 67.2548 71.647 67.3976C71.8008 67.515 71.9313 67.66 72.032 67.8251C72.1132 67.952 72.1589 68.0983 72.1645 68.2488C72.1654 68.3127 72.1526 68.3759 72.1269 68.4344C72.1013 68.4928 72.0634 68.5451 72.0158 68.5876C71.9178 68.6795 71.7876 68.7293 71.6533 68.7264C71.5705 68.7288 71.4891 68.7038 71.422 68.6551C71.3427 68.5881 71.2733 68.5103 71.2158 68.4239C71.104 68.2432 70.9589 68.0854 70.7883 67.9588C70.5718 67.8252 70.314 67.7749 70.0631 67.8172C69.8122 67.8595 69.5853 67.9916 69.4245 68.1889C69.2229 68.4464 69.122 68.7988 69.122 69.2463C69.1203 69.442 69.1464 69.6368 69.1995 69.8251C69.2453 69.988 69.3217 70.1407 69.4245 70.2751C69.5196 70.3958 69.6416 70.4925 69.7808 70.5576C69.9246 70.6222 70.0807 70.6546 70.2383 70.6526C70.441 70.6585 70.641 70.6046 70.8133 70.4976C70.9898 70.3752 71.135 70.2129 71.237 70.0239C71.2929 69.9136 71.3674 69.8139 71.457 69.7289C71.537 69.6576 71.6412 69.6196 71.7483 69.6226C71.8128 69.6213 71.8767 69.6346 71.9354 69.6614C71.994 69.6882 72.0459 69.7279 72.087 69.7776C72.1682 69.8689 72.2131 69.9867 72.2133 70.1089Z" fill="white"/>
<path d="M75.6484 70.9797L74.6634 69.3547L74.0571 69.9272V70.8134C74.0635 70.9038 74.0518 70.9945 74.0228 71.0803C73.9939 71.1662 73.9482 71.2454 73.8884 71.3134C73.8388 71.368 73.7784 71.4116 73.711 71.4415C73.6437 71.4714 73.5708 71.487 73.4971 71.4872C73.4211 71.4908 73.3453 71.4772 73.2752 71.4476C73.2051 71.4179 73.1425 71.373 73.0921 71.3159C72.9848 71.1695 72.9329 70.9896 72.9459 70.8084V66.0522C72.9328 65.8532 72.9827 65.6551 73.0884 65.4859C73.135 65.4222 73.1968 65.3711 73.2682 65.3373C73.3396 65.3034 73.4183 65.288 73.4971 65.2922C73.5741 65.2884 73.6509 65.3022 73.7217 65.3325C73.7925 65.3629 73.8555 65.4089 73.9059 65.4672C74.0172 65.6167 74.0709 65.8013 74.0571 65.9872V68.6934L75.3071 67.3772C75.4164 67.2563 75.5351 67.1443 75.6621 67.0422C75.7493 66.9806 75.8542 66.949 75.9609 66.9522C76.0247 66.9502 76.0883 66.9609 76.1479 66.9836C76.2076 67.0064 76.2621 67.0407 76.3084 67.0847C76.3539 67.1274 76.3898 67.1791 76.4139 67.2366C76.4381 67.2941 76.4498 67.3561 76.4484 67.4184C76.4484 67.5822 76.2959 67.7934 75.9934 68.0722L75.4009 68.6159L76.5459 70.4159C76.6309 70.5497 76.6909 70.6509 76.7284 70.7197C76.7624 70.7806 76.7812 70.8487 76.7834 70.9184C76.792 71.0717 76.7399 71.2221 76.6384 71.3372C76.5892 71.3885 76.5297 71.4288 76.4637 71.4553C76.3977 71.4818 76.3269 71.494 76.2559 71.4909C76.1987 71.4947 76.1413 71.4869 76.0872 71.468C76.033 71.4491 75.9833 71.4195 75.9409 71.3809C75.831 71.2567 75.733 71.1223 75.6484 70.9797Z" fill="white"/>
<path d="M85.3883 86.8247L79.8883 81.3248L76.602 84.6248C76.5201 84.7064 76.4158 84.762 76.3022 84.7845C76.1887 84.807 76.0711 84.7954 75.9642 84.7511C75.8572 84.7069 75.7658 84.632 75.7014 84.5359C75.6369 84.4398 75.6024 84.3267 75.6021 84.211V73.7023C75.6021 73.5435 75.6651 73.3912 75.7774 73.2789C75.8897 73.1666 76.042 73.1035 76.2008 73.1035H86.7095C86.8255 73.1032 86.939 73.1374 87.0355 73.2018C87.132 73.2661 87.2072 73.3577 87.2515 73.4649C87.2959 73.572 87.3074 73.69 87.2845 73.8037C87.2617 73.9174 87.2056 74.0218 87.1233 74.1035L83.9333 77.2935L89.427 82.7873C89.5103 82.8705 89.5763 82.9693 89.6213 83.078C89.6664 83.1868 89.6895 83.3033 89.6895 83.421C89.6895 83.5387 89.6664 83.6552 89.6213 83.764C89.5763 83.8727 89.5103 83.9715 89.427 84.0548L86.6558 86.8247C86.5726 86.908 86.4738 86.974 86.365 87.019C86.2563 87.0641 86.1397 87.0873 86.022 87.0873C85.9043 87.0873 85.7878 87.0641 85.6791 87.019C85.5703 86.974 85.4715 86.908 85.3883 86.8247V86.8247Z" fill="#79D379"/>
<path d="M85.0424 84.8299L80.6824 80.4899C80.6626 80.47 80.639 80.4542 80.613 80.4435C80.5871 80.4327 80.5593 80.4272 80.5312 80.4272C80.5031 80.4272 80.4752 80.4327 80.4493 80.4435C80.4233 80.4542 80.3998 80.47 80.3799 80.4899L77.6387 83.2399C77.3162 83.5661 76.6237 83.2011 76.6174 82.7399L76.2149 73.7749C76.2137 73.7053 76.2265 73.6363 76.2525 73.5717C76.2785 73.5072 76.3172 73.4486 76.3663 73.3993C76.4154 73.35 76.4738 73.311 76.5382 73.2847C76.6026 73.2584 76.6716 73.2453 76.7412 73.2461L86.1037 73.3399C87.0624 73.3399 87.1874 73.7861 86.6124 74.3611L83.8112 77.1749L89.2249 82.5611L86.8387 84.8249C86.7211 84.9432 86.5813 85.0371 86.4274 85.1014C86.2734 85.1657 86.1084 85.199 85.9416 85.1995C85.7748 85.1999 85.6095 85.1675 85.4552 85.1041C85.3009 85.0407 85.1607 84.9475 85.0424 84.8299V84.8299Z" fill="#96E296"/>
<path d="M85.7772 86.8161L80.1747 81.2148C80.056 81.0898 79.7572 81.1811 79.6535 81.2848L77.2785 83.6598L76.6922 84.2498C76.616 84.3248 76.4735 84.5411 76.3685 84.5736C75.8847 84.7223 75.9047 84.0923 75.9047 83.8023V76.1998C75.9047 75.3898 75.7797 74.4711 75.9047 73.6686C75.966 73.2661 76.0785 73.2711 76.391 73.2711H85.641C85.931 73.2711 86.2847 73.2161 86.571 73.2711C87.5147 73.4561 86.6622 74.2711 86.3635 74.5698L83.6922 77.2498C83.651 77.2923 83.5972 77.3586 83.6535 77.4148L87.4035 81.1648C87.9822 81.7448 88.5972 82.3036 89.1472 82.9148C89.841 83.6798 88.9347 84.2736 88.3972 84.8061L86.9997 86.1886C86.7285 86.4598 86.2597 87.2023 85.7735 86.8136C85.6097 86.6886 85.0522 86.9211 85.2122 87.0486C86.2122 87.8398 87.0722 86.6911 87.7197 86.0486C88.416 85.3536 89.2835 84.6811 89.866 83.8861C90.4485 83.0911 89.436 82.4048 88.9372 81.9061C88.0089 80.9761 87.0793 80.0465 86.1485 79.1173L84.211 77.1786C84.1972 77.2336 84.1847 77.2886 84.171 77.3436L86.846 74.6686C87.1147 74.3986 87.5847 74.0623 87.596 73.6473C87.6085 73.1073 87.116 72.9498 86.676 72.9386C83.946 72.8736 81.206 72.9386 78.4747 72.9386H76.8335C76.5497 72.9386 76.2385 72.9111 75.9585 72.9948C75.0322 73.2773 75.296 74.5248 75.296 75.2686V83.8373C75.296 84.2336 75.2472 84.6398 75.661 84.8673C76.226 85.1786 76.7347 84.7786 77.116 84.3973L80.136 81.3748L79.6147 81.4448L85.216 87.0473C85.3622 87.1973 85.9335 86.9723 85.7772 86.8161Z" fill="#6A79A8"/>
<path d="M49.6498 56.9348C50.3253 57.8925 51.1261 58.7552 52.031 59.4998C52.1885 59.6248 52.746 59.3948 52.5935 59.2698C51.6891 58.5271 50.8882 57.6665 50.2123 56.7111C50.1023 56.5561 49.5173 56.7536 49.6498 56.9411V56.9348Z" fill="#6A79A8"/>
<path d="M47.446 61.3175C48.5048 61.8157 49.6249 62.1713 50.7772 62.375C50.9285 62.4025 51.4535 62.16 51.2685 62.125C50.1166 61.9201 48.9969 61.5637 47.9385 61.065C47.7997 61 47.2472 61.2212 47.446 61.315V61.3175Z" fill="#6A79A8"/>
<path d="M55.0996 58.2151C54.816 57.0959 54.6807 55.9444 54.6971 54.7901C54.6971 54.5251 54.0958 54.6451 54.0921 54.8588C54.0731 56.0437 54.2101 57.2259 54.4996 58.3751C54.5558 58.5988 55.1596 58.4413 55.1021 58.2126L55.0996 58.2151Z" fill="#6A79A8"/>
</svg>
