<svg xmlns="http://www.w3.org/2000/svg" width="136" height="136" fill="none"><path fill="#F9F9F9" d="M37.739 121.31c-2.648-.572-34.458-5.729-32.114-43.76 2.344-38.031 5.281-49.469 17.649-53.654C35.64 19.711 65.7-.087 89.29 18.74c6.125 4.887 12.364 9.616 18.325 14.731 8.19 7.03 16.612 15.146 20.635 25.78A34.866 34.866 0 0 1 130.329 75c-.617 6.276-1.484 12.381-3.064 18.5l-1.614 6.25c-.322 1.25-.647 2.508-1.156 3.685-3.271 7.588-7.398 12.566-14.311 16.606-6 3.5-13.435 3.414-20.063 3.028-26.354-1.536-39.794.964-52.382-1.759"/><path fill="#fff" d="M90.824 21.697H47.665c-3.934 0-7.125 3.076-7.125 6.875v83.204c0 3.793 3.189 6.868 7.125 6.868h43.158c3.935 0 7.124-3.075 7.124-6.868v-83.21c0-3.793-3.19-6.87-7.124-6.87"/><path fill="#6A79A8" d="M90.825 118.894H47.666c-4.065 0-7.375-3.194-7.375-7.119V28.566c0-3.926 3.308-7.125 7.375-7.125h43.159c4.065 0 7.375 3.194 7.375 7.125v83.209c-.003 3.925-3.31 7.119-7.375 7.119M47.666 21.946c-3.79 0-6.875 2.97-6.875 6.625v83.204c0 3.65 3.083 6.619 6.875 6.619h43.159c3.788 0 6.875-2.969 6.875-6.619V28.566c0-3.65-3.084-6.625-6.875-6.625z"/><path fill="#6A79A8" d="M74.139 28.67H64.32a1.269 1.269 0 0 1 0-2.537h9.819a1.27 1.27 0 0 1 0 2.537m-9.819-2.037a.769.769 0 0 0 0 1.537h9.819a.769.769 0 0 0 0-1.537zm8.417 90.177h-6.765a2.792 2.792 0 0 1-2.855-2.795 2.795 2.795 0 0 1 2.855-2.796h6.765a2.803 2.803 0 0 1 2.637 1.712 2.795 2.795 0 0 1-2.637 3.879m-6.765-5.091a2.302 2.302 0 0 0-1.658.653 2.296 2.296 0 0 0 1.658 3.938h6.765a2.301 2.301 0 0 0 2.17-1.404 2.295 2.295 0 0 0-2.17-3.187z"/><g clip-path="url(#a)"><path fill="#fff" d="m47.233 118.838 42.567.446c4.183.044 7.456-8.328 7.303-18.625l-.89-59.833c-.145-9.736-3.53-17.542-7.556-17.5l-40.97.38c-3.951.037-7.209 7.814-7.282 17.44l-.455 59.137c-.08 10.171 3.18 18.511 7.283 18.555"/><path fill="#F0F9FC" d="m96.66 70.91-29.457 48.136 22.595.237c4.184.044 7.456-8.327 7.304-18.625zM40.08 83.318 75.8 23.443l-28.108.262c-3.951.038-7.209 7.815-7.282 17.442zm55.447-49.387L44.83 117.792c.75.658 1.558 1.035 2.405 1.044l5.528.059 43.545-71.704-.095-6.365a39.887 39.887 0 0 0-.685-6.895"/></g><path fill="#6A79A8" d="M94.767 109.598H43.724a.251.251 0 0 1-.25-.25V33.383a.25.25 0 0 1 .25-.25h51.043a.25.25 0 0 1 .25.25v75.965a.251.251 0 0 1-.25.25m-50.793-.5h50.543V33.633H43.974z"/><path fill="#EFEFEF" d="M82.463 83.959H56.331a8.035 8.035 0 0 0-8.035 8.034v.002a8.035 8.035 0 0 0 8.035 8.035h26.132a8.035 8.035 0 0 0 8.035-8.035v-.002a8.035 8.035 0 0 0-8.035-8.034"/><path fill="#fff" d="M82.998 83.959h-26a7.5 7.5 0 1 0 0 15h26a7.5 7.5 0 1 0 0-15"/><path fill="#6A79A8" d="M82.579 99.852H59.022c-2.242 0-4.423.132-6.46-1.043a7.912 7.912 0 0 1 .28-13.866c.36-.19-.172-.301-.375-.192-2.226 1.18-3.867 3.3-4.333 5.791a8.194 8.194 0 0 0 1.693 6.651 8.291 8.291 0 0 0 5.87 3c.577.038 1.163.017 1.74.017H82.35c.235 0 .637-.354.231-.354zm-28.29-15.399c1.982-.5 4.264-.262 6.29-.262h21.73a7.817 7.817 0 0 1 1.848 15.434c-.375.088-.26.525.117.437 5.08-1.189 8.013-6.846 5.733-11.625a8.32 8.32 0 0 0-5.577-4.482c-.927-.218-1.854-.222-2.797-.222h-24c-1.175 0-2.303 0-3.46.292-.375.096-.26.532.117.436z"/><path fill="#6A79A8" d="M58.023 88.273v7.5c0 .286.61.176.61-.06v-7.5c0-.286-.61-.175-.61.06"/><path fill="#6A79A8" d="m55.4 89.477 5.303 5.304c.2.199.77-.053.553-.271l-5.304-5.303c-.199-.199-.769.053-.551.27"/><path fill="#6A79A8" d="M54.464 92.177h7.5c.243 0 .634-.367.228-.367h-7.5c-.25 0-.635.367-.228.367"/><path fill="#6A79A8" d="m55.95 94.625 5.3-5.302c.132-.132-.44-.07-.55.038l-5.302 5.302c-.132.133.44.073.549-.036zm13.175-6.345v7.5c0 .25.604.126.604-.074v-7.5c0-.25-.604-.125-.604.075"/><path fill="#6A79A8" d="m66.5 89.477 5.304 5.304c.2.199.77-.053.55-.271l-5.302-5.303c-.2-.2-.77.053-.552.27"/><path fill="#6A79A8" d="M65.652 92.226h7.5c.353 0 .458-.464.048-.464h-7.5c-.353 0-.457.463-.048.463"/><path fill="#6A79A8" d="m67.049 94.625 5.303-5.304c.125-.125-.44-.069-.548.039L66.5 94.665c-.125.125.44.068.547-.04zm13.115-6.3v7.5c0 .094.603.01.603-.162v-7.5c0-.095-.603-.011-.603.162"/><path fill="#6A79A8" d="m77.528 89.44 5.303 5.31c.102.1.645-.126.571-.2l-5.304-5.3c-.1-.103-.643.124-.57.197z"/><path fill="#6A79A8" d="M76.523 92.125h7.5c.137 0 .686-.263.386-.263h-7.5c-.138 0-.687.263-.387.263"/><path fill="#6A79A8" d="m78.091 94.638 5.304-5.302c.155-.156-.434-.109-.555.012l-5.304 5.304c-.155.155.434.109.555-.014"/><path fill="#EFEFEF" d="M69.375 48.767a7.159 7.159 0 0 0-7.161 7.16v4.368h2.065V55.98a5.096 5.096 0 0 1 5.096-5.096 5.096 5.096 0 0 1 5.095 5.096v.769a.38.38 0 0 0 .383.383h1.3a.383.383 0 0 0 .382-.383v-.818a7.16 7.16 0 0 0-7.16-7.165"/><path fill="#fff" d="M69.375 48.767c-3.239 0-6.286 3.205-6.286 7.16v4.368h1.19V55.98a5.096 5.096 0 0 1 5.096-5.096H69c4.261-.263 6.345 2.28 6.345 5.096v.769a.38.38 0 0 0 .383.383h.425a.383.383 0 0 0 .382-.383v-.818a7.16 7.16 0 0 0-7.16-7.165"/><path fill="#6A79A8" d="M64.585 57.97c0-1.133-.119-2.353.206-3.452.581-1.965 2.411-3.412 4.476-3.427 2.032-.014 3.897 1.32 4.593 3.219.272.75.306 1.5.306 2.28 0 .556.24.745.779.745.442 0 1.061.112 1.485-.055.542-.214.414-.832.411-1.303a7.418 7.418 0 0 0-1.689-4.765c-2.266-2.716-6.265-3.414-9.355-1.725a7.5 7.5 0 0 0-3.547 4.299c-.431 1.362-.335 2.795-.335 4.204 0 .3.61.197.61-.054 0-1.039-.075-2.116.086-3.146a6.964 6.964 0 0 1 2.764-4.54c3.086-2.24 7.474-1.375 9.625 1.732a7.03 7.03 0 0 1 1.082 2.5c.157.718.105 1.416.16 2.136 0 0 .032.272.038.258-.031.074.025.006-.125.045-.259.065-.611 0-.875 0-.288 0-.433.027-.486-.286a4.443 4.443 0 0 1 0-.683c-.05-3.444-3.303-5.92-6.644-5.125a5.473 5.473 0 0 0-3.858 3.446c-.42 1.194-.298 2.5-.298 3.75 0 .3.608.197.608-.055z"/><path fill="#F7E080" d="M71.987 71.151h-5.224a5.94 5.94 0 0 1-5.938-5.939v-5.337a1.097 1.097 0 0 1 1.097-1.098H76.83a1.098 1.098 0 0 1 1.097 1.098v5.337a5.939 5.939 0 0 1-5.939 5.94"/><path fill="#FFEEA7" d="M71.987 70.435h-3.833a5.938 5.938 0 0 1-5.94-5.935v-4.625a1.098 1.098 0 0 1 1.098-1.098H76.83a1.098 1.098 0 0 1 1.097 1.098V64.5a5.939 5.939 0 0 1-5.939 5.935"/><path fill="#6A79A8" d="M76.633 68.531c-.905 1.298-2.26 2.208-3.845 2.414-.625.082-1.29.042-1.925.042-1.514 0-3.098.138-4.605-.033-2.718-.308-4.875-2.593-5.11-5.302-.124-1.465-.022-2.974-.022-4.442 0-.519-.11-1.19.047-1.699.19-.625.678-.576 1.172-.576h13.798c.563 0 1.148-.038 1.408.625.215.55.074 1.351.074 1.923 0 1.974.283 4.24-.476 6.104-.073.178.525.11.602-.081.724-1.779.478-3.894.478-5.778 0-.64.039-1.292 0-1.93-.046-.78-.651-1.173-1.375-1.19-3.266-.075-6.544 0-9.811 0h-4.5c-.408 0-.81-.02-1.193.15-.736.33-.82.97-.82 1.67 0 1.614-.016 3.228 0 4.84a6.099 6.099 0 0 0 4.234 5.757c1.649.519 3.594.289 5.297.289.604 0 1.21.007 1.815 0a6.626 6.626 0 0 0 3.87-1.27 6.402 6.402 0 0 0 1.454-1.51c.15-.215-.451-.158-.56 0z"/><path fill="#fff" d="M70.875 67.987h-3l.715-3.42a1.406 1.406 0 0 1-.716-1.23 1.375 1.375 0 0 1 2.75 0c0 .53-.288.992-.472 1.23z"/><path fill="#6A79A8" d="M68.826 64.395c-.544-.348-.819-1.033-.52-1.64a1.02 1.02 0 0 1 1.75-.163c.408.522.298 1.194-.031 1.724-.15.242-.169.25-.125.5.167 1.091.455 2.176.681 3.257l.329-.3h-3l.277.196c.175-.829.348-1.657.52-2.485.062-.295-.555-.22-.61.046-.175.828-.348 1.657-.52 2.486-.033.154.174.195.278.195h3c.145 0 .365-.125.33-.3l-.483-2.309c-.062-.3-.25-.75-.222-1.06a1.17 1.17 0 0 0 .207-.29c.173-.31.259-.66.25-1.015-.05-1.207-1.375-1.841-2.416-1.331a1.625 1.625 0 0 0-.156 2.84c.221.142.75-.162.466-.346z"/><defs><clipPath id="a"><path fill="#fff" d="M43.8 33.5h51v76h-51z"/></clipPath></defs></svg>