<svg xmlns="http://www.w3.org/2000/svg" xml:space="preserve" style="enable-background:new 0 0 250 250" viewBox="0 0 250 250"><style>.st0{fill:#fff}.st1{fill:#f9f9f9}.st2{fill:#e5e5e5}.st3{fill:#6a79a8}.st5{fill:#f2f2f2}.st12,.st13{fill-rule:evenodd;clip-rule:evenodd;fill:#f9cabf}.st13{fill:none;stroke:#6a79a8;stroke-miterlimit:10}</style><g id="Ńëîé_1_1_"><path id="XMLID_32_" d="M0 0h250v250H0z" class="st0"/><path d="M72.8 215.6c-4.5-1-58.1-9.5-54.1-72.9 3.9-63.3 8.9-82.4 29.8-89.4s71.5-40 111.3-8.6 82.7 59.5 65.7 109.6-19.8 66.8-64.2 64.2c-44.6-2.5-67.3 1.6-88.5-2.9" class="st1"/></g><g id="Ńëîé_2"><path d="M72.8 215.6c-4.5-1-58.1-9.5-54.1-72.9 3.9-63.3 8.9-82.4 29.8-89.4s71.5-40 111.3-8.6 82.7 59.5 65.7 109.6-19.8 66.8-64.2 64.2c-44.6-2.5-67.3 1.6-88.5-2.9" class="st1"/><path d="M65.8 200c-1 .7-1.8 1.5-1.8 2.8.1 2.8 5.1 3.5 7.2 3.7 3.6.5 7.2.4 10.9.5 13.2.5 26.4.6 39.6.3 6.8-.1 13.6-.4 20.3-.7 5.9-.3 12.6.1 18.2-2.1 3.4-1.3 6.6-3 9.8-4.7 2.6-1.5 6-2.9 7.6-5.6 2.7-4.8-6.8-5.7-9.5-6.3-10.3-2.1-21-2.4-31.5-2.8-10.7-.3-21.4-.1-32.1 1-13.4 1.3-27.7 5.7-38.6 13.7 0 .1 0 .2-.1.2" class="st2"/><path d="M97 144.9h73.3v50.3H97z" class="st2"/><path d="M170.3 144.9H97l9.7-11.2c.5-.5 1.1-.8 1.8-.8h70.9c.5 0 .8.6.5 1z" class="st0"/><path d="M170.4 144.6H98.2c-.2 0-.7-.1-1 0h-.1c.1.2.2.3.3.5 2.4-2.8 4.8-5.5 7.1-8.3.8-1 1.6-2 2.6-3 .7-.7 1.3-.6 2.1-.6H177c.6 0 1.4-.1 2 0h.3c.5.4-.3 1.1-.5 1.3-2.7 3.1-5.4 6.3-8.2 9.4-.2.3-.5.5-.7.8-.4.5.5.7.8.3 2.5-2.9 4.9-5.7 7.4-8.6.6-.6 1.1-1.3 1.7-1.9.3-.3.7-.7.7-1.2-.1-.9-1-.8-1.6-.8h-70.2c-1.3 0-2.1.7-2.9 1.7-2.8 3.2-5.6 6.5-8.4 9.7-.2.3-.5.6-.7.8-.2.3 0 .5.3.5h70.3c.9 0 1.9.1 2.9 0h.1c.5 0 .8-.6.1-.6" class="st3"/><path d="m97.1 144.9-18 7v50.3l18-6.8z" style="fill:#f7f7f7"/><path d="M97.1 144.7c-5.3 2-10.5 4.1-15.8 6.1-.8.3-1.5.6-2.3.9-.4.1-.8.6-.1.4 5.3-2 10.5-4.1 15.8-6.1.8-.3 1.5-.6 2.3-.9.4-.2.8-.6.1-.4m.4 51v-48.1c0-.3-.8-.7-.8-.5v48.1c-.1.2.8.7.8.5" class="st3"/><path d="m97.1 144.9-18 7-8.6-8.4c-.8-.8-.5-2.2.5-2.6l14.8-5.5c.6-.2 1.2-.1 1.6.3z" class="st5"/><path d="M96.6 145.1 79 151.9l-7.3-7.3c-.8-.8-.5-2.2.5-2.6 1.7-.6 3.4-1.3 5.1-1.9 2.5-.9 5.5-2.8 8.3-2.2 2 .4 10.8 7 11 7.2" class="st0"/><path d="M96.9 144.5c-5.3 2-10.5 4.1-15.8 6.1-.8.3-1.5.6-2.3.9.2 0 .4.1.6.1-2.2-2.1-4.4-4.3-6.6-6.4-.5-.5-1-1-1.6-1.5-.3-.3-.7-.6-.8-1-.4-1.4 1.6-1.8 2.6-2.2l10.5-3.9c.7-.3 2.2-1.2 3-.9.3.1.7.5.9.8.5.5 1.1 1 1.6 1.5 2.5 2.4 5 4.7 7.5 7.1.4.4 1.3-.1.9-.5-2.4-2.2-4.7-4.5-7.1-6.7-.9-.8-1.7-1.7-2.6-2.5-1.2-1-2.3-.5-3.5 0-3.7 1.4-7.4 2.8-11.1 4.1-.9.3-2.1.6-2.9 1.2-.9.6-1.2 1.8-.6 2.7.2.4.6.6.9.9 2.7 2.6 5.3 5.2 8 7.8.1.1.4.2.6.1 5.3-2 10.5-4.1 15.8-6.1.8-.3 1.5-.6 2.3-.9.7-.2.3-.9-.3-.7" class="st3"/><path d="M141.4 137.6c-1.3-1.1-2.9-1.7-4.6-1.8-1.2-.1-2.4.1-3.5.5s-2.2 1-3 1.9c-1.8 1.7-2.8 4-3 6.5-.2 2.6.6 5 2.5 7.6 1.6 2.1 3.8 4.3 6.3 6.8l.3.3 2.5 2.5c.4.4.9.7 1.4.8l3.9-6.2-4.3-5.6c-.3-.5-.3-1.1.1-1.5l5-5.6zm2.6 23.7c.7-.6 1.4-1.1 2.1-1.6 2.9-2.1 5.4-4 7.2-5.9 2.2-2.3 3.3-4.6 3.5-7.2.2-2.5-.5-4.9-2-6.8-.7-.9-1.7-1.7-2.7-2.3-1.1-.6-2.2-.9-3.4-1h-.1c-1.5-.1-3 .2-4.4.9l3.5 5.7c.3.4.2 1-.1 1.4l-5 5.6 4.2 5.5c.3.4.3.9.1 1.4z" class="st12"/><path d="M140.7 136.8c-1.3-1.1-2.9-1.7-4.6-1.8-1.2-.1-2.4.1-3.5.5s-2.2 1-3 1.9c-1.8 1.7-2.8 4-3 6.5-.2 2.6.6 5 2.5 7.6 1.6 2.1 3.8 4.3 6.3 6.8l.3.3 2.5 2.5c.4.4.9.7 1.4.8l3.9-6.2-4.3-5.6c-.3-.5-.3-1.1.1-1.5l5-5.6zm2.6 23.7c.7-.6 1.4-1.1 2.1-1.6 2.9-2.1 5.4-4 7.2-5.9 2.2-2.3 3.3-4.6 3.5-7.2.2-2.5-.5-4.9-2-6.8-.7-.9-1.7-1.7-2.7-2.3-1.1-.6-2.2-.9-3.4-1h-.1c-1.5-.1-3 .2-4.4.9l3.5 5.7c.3.4.2 1-.1 1.4l-5 5.6 4.2 5.5c.3.4.3.9.1 1.4z" class="st13"/><path d="M78.7 151.9h73.6v50.3H78.7z" class="st5"/><path d="M152.3 153c-2.4 3.5-5.1 8.2-6.8 11.3-1 1.8-3 3-5 3l-61.8.1v34.9h73.6z" class="st0"/><path d="m170.3 144.9-18 7v50.3l18-6.8z" class="st2"/><path d="m170.3 161.6-6 2.4c-2.1.8-4.4.2-5.7-1.6l-6.3-8.4v48.2l18-6.8z" class="st5"/><path d="M151.9 153.9v46.2c0 .4.8.9.8.3v-46.2c0-.4-.8-.9-.8-.3m-73.5-1.8h70.3c1.1 0 2.2.1 3.3 0 .8-.1 1.5-.5 2.2-.7 1.7-.7 3.5-1.3 5.2-2 3.6-1.4 7.1-2.8 10.7-4.1.2-.1.4-.2.7-.3.4-.2-.6 0-.8 0-2.7 1.1-5.4 2.1-8.1 3.2-3.2 1.2-6.5 2.3-9.7 3.8-.6.3.6 0 .5-.1H93.1c-4.5 0-9.1-.1-13.6 0h-.2c-.4-.1-1.4.2-.9.2" class="st3"/><path d="M169.8 160.6v34.9c.1-.2.3-.3.4-.5l-8.1 3c-2 .8-4.1 1.5-6.1 2.3-1.1.4-2.5.7-3.6 1.3-.4.2.1 0 0 0H80.8c-.4 0-1.1-.1-1.6 0H79c.1.1.2.2.3.4v-36.7c0-.6-1-.4-1 .1v36.7c0 .2.1.4.3.4h70c1.2 0 2.4.1 3.6 0 .6-.1 1.2-.4 1.8-.6 1.7-.6 3.4-1.3 5.1-1.9 3.6-1.3 7.2-2.7 10.8-4 .2-.1.4-.2.7-.2.2-.1.4-.3.4-.5v-34.9c-.2-.6-1.2-.3-1.2.2" class="st3"/><path d="M152.3 151.9H78.7L69 163.1c-.3.3-.1.8.4.8h72.2c.1 0 .3-.1.4-.2z" class="st5"/><path d="M152.3 151.9H79.4c-1.1 2.2-2.2 4.4-3.4 6.5-.7 1.3-.9 3.4 1.3 3.4h62.5c1.2 0 2.3-.5 3.2-1.3z" class="st0"/><path d="M152.6 151.8H79.5c-.4 0-.9 0-1.2.2-.2.2-.5.5-.7.8l-1.5 1.8c-2.4 2.8-4.8 5.6-7.2 8.3-.5.5-.5 1.2.4 1.2h72.2c1.1-.1 1.4-.6 2-1.3 2.5-2.9 5.1-5.9 7.6-8.8.6-.7 1.2-1.4 1.9-2.2 0 0-.8-.1-1 .1-2.4 2.8-4.8 5.5-7.2 8.3-.7.8-1.3 1.5-2 2.3-.2.2-1 .9-1 1.2 0 .1.7 0 .3 0H72.3c-.6 0-1.4.1-2 0-1-.2-.2-1 .2-1.5 2.8-3.2 5.5-6.4 8.3-9.6.2-.3.5-.6.7-.8-.3.1-.6.1-.8.2h64.5c3 0 6 .1 9 0h.1c-.2.1.8-.2.3-.2" class="st3"/><path d="m170.3 144.9-18 7 10.1 9.7c.2.2.5.3.8.2l16.4-6.1c.5-.2.7-.9.3-1.3z" class="st5"/><path d="m169.7 145.1-17.2 6.9 9 9.1c.2.2.5.3.7.2 2.3-.9 4.5-1.8 6.8-2.7 1.4-.5 2.7-1.1 4.1-1.6 1.3-.5 3.2-1.2 3.1-3-.1-.8-.6-1.5-1.2-2.1-.5-.6-5-6.5-5.3-6.8" class="st0"/><path d="M170.1 144.5c-5.3 2-10.5 4.1-15.8 6.1-.8.3-1.5.6-2.3.9-.3.1-.4.4-.2.6 2.5 2.4 5 4.9 7.5 7.3.8.8 1.6 1.8 2.6 2.5s2.3-.1 3.2-.4c3.9-1.5 7.9-3 11.8-4.4.9-.3 2-.6 2.9-1.1 1.7-.9-.1-2.2-.8-3-2.8-2.8-5.6-5.5-8.4-8.3-.4-.4-1.3 0-.8.4 2.3 2.3 4.6 4.5 6.8 6.8l1.8 1.8c.2.2.7.5.9.8.5.9-1.8 1.3-2.3 1.6-3.7 1.4-7.5 2.8-11.2 4.2-.7.3-1.4.5-2 .8-.2.1-.7.3-.9.3-.3 0-.5-.3-.8-.5-.5-.5-1.1-1-1.6-1.6-2.6-2.6-5.3-5.1-7.9-7.7-.1.2-.1.4-.2.6 5.3-2 10.5-4.1 15.8-6.1.8-.3 1.5-.6 2.3-.9.7-.2.1-.9-.4-.7m-23.5 20.8v8.5c0 .3.9-.1.9-.4v-8.5c0-.4-.9.1-.9.4m.1 9.9v1.3c0 .3.1.5.4.6.1.1.4.1.4-.1v-1.3c0-.3-.1-.5-.4-.6-.1-.1-.4-.2-.4.1m-.1 3.1v3.5c0 .5 1 .7 1 .1v-3.5c0-.5-1-.7-1-.1" class="st3"/><path d="M89.8 175.6h21.4v16.9H89.8z" style="fill:#f9ab98"/><path d="M110.2 191.1H88.8c.2.1.3.2.5.3v-16.6c-.2.1-.4.3-.6.4h21.4c-.2-.1-.3-.2-.5-.3v16.6c0 .5 1 .4 1-.1v-16.6c0-.3-.2-.3-.5-.3H88.7c-.2 0-.6.2-.6.4v16.6c0 .3.2.3.5.3H110c.7.1.9-.7.2-.7m13-5.8H137c.3 0 1.1-.5.4-.5h-13.8c-.3.1-1 .5-.4.5m0-3H137c.3 0 1.1-.5.4-.5h-13.8c-.3-.1-1 .5-.4.5m0-3.1H137c.4 0 1.1-.6.4-.6h-13.8c-.4 0-1 .6-.4.6m0 8.5h3.1c.3 0 1.1-.5.4-.5h-3.1c-.3 0-1 .5-.4.5m5.3-.1h3.1c.2 0 .6 0 .7-.2.1-.1.2-.2-.1-.2h-3.1c-.2 0-.6 0-.7.2-.1.1-.2.2.1.2m5.5.1h3.1c.2 0 .6-.1.7-.3.1-.2-.1-.3-.3-.3h-3.1c-.2 0-.6.1-.7.3 0 .2.1.3.3.3" class="st3"/><path d="M107.6 180.7c-.1-2.1-1.6-4-3.9-4-2 0-3.7 1.5-3.9 3.4-.3-1.9-1.9-3.5-3.9-3.5-1.8 0-3.3 1.2-3.8 2.9-.6 1.9.4 3.5 1.7 4.8 1.3 1.2 6.2 5.4 6.2 5.4s5.8-5 6.9-6.6c.5-.7.7-1.6.7-2.4" class="st0"/><path d="M108.1 180.5c-.1-2.4-2-4.2-4.4-4.1-2.2.1-4.1 1.6-4.5 3.8.3-.1.7-.1 1-.2-.4-2.5-2.9-4-5.4-3.4-2.4.6-4.1 3.1-3.3 5.5.7 2 2.7 3.4 4.2 4.7 1.2 1.1 2.5 2.1 3.7 3.2.2.2.7 0 .9-.1 1.3-1.2 2.6-2.3 3.9-3.5 1.8-1.7 3.8-3.3 3.9-5.9 0-.2-1-.1-1 .3 0 2.5-2.3 4.3-4 5.8-1.1 1.1-2.3 2.1-3.5 3.1.3 0 .6-.1.9-.1-2-1.7-4.1-3.5-6-5.3-1.8-1.6-2.9-4.1-1.1-6.3 2.1-2.5 5.5-.5 5.9 2.2 0 .3 1 0 1-.2.3-2 2.2-3.7 4.3-2.9 1.6.5 2.4 2.1 2.5 3.7 0 .3 1 .1 1-.3" class="st3"/></g><g id="Ebene_3"><path d="M94.1 81.2c-3.4-1.1-7-1.1-10.3 0h-.1c-2.4.8-4.5 2-6.4 3.7-1.9 1.7-3.3 3.7-4.4 5.9-2.1 4.7-2.3 9.9-.7 14.7 1.7 5.2 5 9.2 10.6 12.8 4.7 2.9 10.6 5.4 17.4 8.2h.1c.3.1.6.2.9.4 2.1.9 4.3 1.8 6.7 2.8 1.1.5 2.3.6 3.4.4l2.8-14.9-12.5-7.5c-1-.6-1.4-1.8-1-2.9l5.3-14.7zm23.2 43.5c1-1.6 2-3.2 2.8-4.6 3.9-6.3 7.3-11.8 9.3-16.9 2.4-6.1 2.8-11.4 1.1-16.5-1.5-4.9-4.8-9-9.2-11.6-2.2-1.2-4.6-2-7-2.2-2.5-.2-5 0-7.3.8h-.1c-3 1-5.7 2.8-7.7 5.2l11.1 8.4c.9.6 1.2 1.8.8 2.8l-5.3 14.5 12.3 7.3c.9.5 1.3 1.5 1.2 2.6z" class="st12"/><path d="M91.6 80.8c-3.4-1.1-7-1.1-10.3 0h-.1c-2.4.8-4.5 2-6.4 3.7-1.9 1.7-3.3 3.7-4.4 5.9-2.1 4.7-2.3 9.9-.7 14.7 1.7 5.2 5 9.2 10.6 12.8 4.7 2.9 10.6 5.4 17.4 8.2h.1c.3.1.6.2.9.4 2.1.9 4.3 1.8 6.7 2.8 1.1.5 2.3.6 3.4.4l2.8-14.9-12.5-7.5c-1-.6-1.4-1.8-1-2.9l5.3-14.7zm23.2 43.5c1-1.6 2-3.2 2.8-4.6 3.9-6.3 7.3-11.8 9.3-16.9 2.4-6.1 2.8-11.4 1.1-16.5-1.5-4.9-4.8-9-9.2-11.6-2.2-1.2-4.6-2-7-2.2-2.5-.2-5 0-7.3.8h-.1c-3 1-5.7 2.8-7.7 5.2l11.1 8.4c.9.6 1.2 1.8.8 2.8l-5.3 14.5 12.3 7.3c.9.5 1.3 1.5 1.2 2.6z" class="st13"/><path d="M162.8 97.3c-1-1.6-2.4-2.8-4.1-3.5-1.2-.5-2.5-.7-3.8-.7-1.3 0-2.6.3-3.7.9-2.4 1.2-4.3 3.2-5.2 5.6-1.1 2.6-1.1 5.4-.1 8.6.9 2.7 2.4 5.7 4.2 9.1.1.1.2.3.2.4l1.7 3.4c.3.5.7 1 1.2 1.3l6.1-5-2.5-7.2c-.2-.6 0-1.2.6-1.5l7.1-4.1zm-5.4 25.2c.9-.3 1.9-.6 2.7-.9 3.7-1.2 6.9-2.3 9.4-3.6 3-1.6 4.9-3.6 6-6.2 1-2.4 1.1-5.2.2-7.7-.4-1.2-1.1-2.3-2-3.3-.9-.9-2-1.7-3.2-2.1h-.1c-1.5-.6-3.2-.8-4.8-.5l1.6 7.1c.1.5-.1 1.1-.6 1.4l-7 4 2.4 7c.2.5 0 1.1-.4 1.4z" class="st12"/><path d="M163.6 95.9c-1-1.6-2.4-2.8-4.1-3.5-1.2-.5-2.5-.7-3.8-.7-1.3 0-2.6.3-3.7.9-2.4 1.2-4.3 3.2-5.2 5.6-1.1 2.6-1.1 5.4-.1 8.6.9 2.7 2.4 5.7 4.2 9.1.1.1.2.3.2.4l1.7 3.4c.3.5.7 1 1.2 1.3l6.1-5-2.5-7.2c-.2-.6 0-1.2.6-1.5l7.1-4.1zm-5.4 25.1c.9-.3 1.9-.6 2.7-.9 3.7-1.2 6.9-2.3 9.4-3.6 3-1.6 4.9-3.6 6-6.2 1-2.4 1.1-5.2.2-7.7-.4-1.2-1.1-2.3-2-3.3-.9-.9-2-1.7-3.2-2.1h-.1c-1.5-.6-3.2-.8-4.8-.5l1.6 7.1c.1.5-.1 1.1-.6 1.4l-7 4 2.4 7c.2.5 0 1.1-.4 1.4z" class="st13"/><path d="M149.5 60.4c-.5-.8-1.2-1.4-2.1-1.8-.6-.2-1.3-.4-1.9-.4-.7 0-1.3.2-1.9.5-1.2.6-2.2 1.6-2.7 2.9-.5 1.3-.6 2.7 0 4.4.4 1.4 1.2 2.9 2.1 4.6 0 .1.1.2.1.2.3.5.6 1.1.9 1.7.1.3.4.5.6.7l3.1-2.5-1.3-3.7c-.1-.3 0-.6.3-.8l3.6-2.1zm-2.7 12.8c.5-.2.9-.3 1.4-.4 1.9-.6 3.5-1.1 4.8-1.8 1.5-.8 2.5-1.8 3-3.2.5-1.2.6-2.6.1-3.9-.2-.6-.6-1.2-1-1.7-.5-.5-1-.8-1.6-1.1-.8-.3-1.6-.4-2.4-.3l.8 3.6c.1.3-.1.6-.3.7l-3.5 2 1.2 3.6c.1.3 0 .5-.2.7z" class="st12"/><path d="M150.1 59.9c-.5-.8-1.2-1.4-2.1-1.8-.6-.2-1.3-.4-1.9-.4-.7 0-1.3.2-1.9.5-1.2.6-2.2 1.6-2.7 2.9-.5 1.3-.6 2.7 0 4.4.4 1.4 1.2 2.9 2.1 4.6 0 .1.1.2.1.2.3.5.6 1.1.9 1.7.1.3.4.5.6.7l3.1-2.5-1.3-3.7c-.1-.3 0-.6.3-.8l3.6-2.1zm-2.7 12.8c.5-.2.9-.3 1.4-.4 1.9-.6 3.5-1.1 4.8-1.8 1.5-.8 2.5-1.8 3-3.2.5-1.2.6-2.6.1-3.9-.2-.6-.6-1.2-1-1.7-.5-.5-1-.8-1.6-1.1-.8-.3-1.6-.4-2.4-.3l.8 3.6c.1.3-.1.6-.3.7l-3.5 2 1.2 3.6c.1.3 0 .5-.2.7z" class="st13"/></g></svg>