<svg xmlns="http://www.w3.org/2000/svg" width="136" height="136" fill="none"><path fill="#F9F9F9" d="M37.739 121.31c-2.648-.572-34.458-5.729-32.114-43.76 2.344-38.031 5.281-49.469 17.649-53.654C35.64 19.711 65.7-.087 89.29 18.74c6.125 4.887 12.364 9.616 18.325 14.731 8.19 7.03 16.612 15.146 20.635 25.78A34.866 34.866 0 0 1 130.329 75c-.617 6.276-1.484 12.381-3.064 18.5l-1.614 6.25c-.322 1.25-.647 2.508-1.156 3.685-3.271 7.588-7.398 12.566-14.311 16.606-6 3.5-13.435 3.414-20.063 3.028-26.354-1.536-39.794.964-52.382-1.759"/><g clip-path="url(#a)"><path fill="#fff" d="M90.824 21.697H47.665c-3.934 0-7.125 3.076-7.125 6.875v83.204c0 3.793 3.189 6.868 7.125 6.868h43.158c3.935 0 7.124-3.075 7.124-6.868v-83.21c0-3.793-3.19-6.87-7.124-6.87"/><path fill="#6A79A8" d="M74.139 28.67H64.32a1.269 1.269 0 0 1 0-2.537h9.819a1.27 1.27 0 0 1 0 2.537m-9.819-2.037a.769.769 0 0 0 0 1.537h9.819a.769.769 0 0 0 0-1.537z"/><g clip-path="url(#b)"><path fill="#fff" d="m47.182 118.579 42.566.446c4.184.044 7.457-8.327 7.304-18.625l-.891-59.832c-.144-9.737-3.529-17.543-7.555-17.5l-40.97.378c-3.951.038-7.209 7.815-7.283 17.442l-.455 59.136c-.078 10.171 3.18 18.511 7.284 18.555"/><path fill="#F0F9FC" d="m96.608 70.65-29.456 48.137 22.595.238c4.184.043 7.456-8.328 7.304-18.625zm-56.58 12.41 35.72-59.876-28.107.263c-3.951.037-7.209 7.815-7.283 17.44zm55.448-49.388-50.699 83.862c.75.657 1.56 1.035 2.405 1.043l5.53.059 43.544-71.704-.095-6.365a39.907 39.907 0 0 0-.685-6.895"/></g><path fill="#6A79A8" d="M94.767 109.598H43.724a.251.251 0 0 1-.25-.25V33.383a.25.25 0 0 1 .25-.25h51.043a.25.25 0 0 1 .25.25v75.965a.251.251 0 0 1-.25.25m-50.793-.5h50.543V33.633H43.974z"/><path fill="#6A79A8" d="M90.825 118.894H47.666c-4.065 0-7.375-3.194-7.375-7.119V28.566c0-3.926 3.308-7.125 7.375-7.125h43.159c4.065 0 7.375 3.194 7.375 7.125v83.209c-.003 3.925-3.31 7.119-7.375 7.119M47.666 21.946c-3.79 0-6.875 2.97-6.875 6.625v83.204c0 3.65 3.083 6.619 6.875 6.619h43.159c3.788 0 6.875-2.969 6.875-6.619V28.566c0-3.65-3.084-6.625-6.875-6.625z"/><path fill="#6A79A8" d="M72.737 116.81h-6.765a2.792 2.792 0 0 1-2.855-2.795 2.795 2.795 0 0 1 2.855-2.796h6.765a2.803 2.803 0 0 1 2.637 1.712 2.795 2.795 0 0 1-2.637 3.879m-6.765-5.091a2.302 2.302 0 0 0-1.658.653 2.296 2.296 0 0 0 1.658 3.938h6.765a2.301 2.301 0 0 0 2.17-1.404 2.295 2.295 0 0 0-2.17-3.187z"/></g><g clip-path="url(#c)"><path fill="#EF8F7F" d="M57.745 62.315h20.031a2.27 2.27 0 0 1 2.27 2.272v13.117a2.27 2.27 0 0 1-2.27 2.272H57.745a2.27 2.27 0 0 1-2.27-2.272V64.6a2.272 2.272 0 0 1 2.27-2.285"/><path fill="#F9AB98" d="M58.88 63.691h17.76c1.06 0 1.917.859 1.917 1.92v11.084c0 1.06-.858 1.918-1.917 1.918H58.88a1.917 1.917 0 0 1-1.916-1.918V65.61c-.013-1.06.857-1.919 1.916-1.919"/><path fill="#6A79A8" d="M77.965 62.189H58.3c-1.222 0-2.496.391-2.975 1.641-.315.82-.151 1.944-.151 2.803v9.885c0 1.136-.114 2.335.92 3.118.744.568 1.626.48 2.496.48h18.128c.883 0 1.752.037 2.534-.48 1.122-.732 1.11-1.881 1.11-3.055v-9.822c0-.871.138-1.881-.051-2.74-.252-1.11-1.248-1.792-2.345-1.83-.139 0-.693.252-.39.265 1.235.05 2.13 1.01 2.168 2.235.012.252 0 .505 0 .77v4.166c0 2.689.025 5.39 0 8.08-.013.984-.593 2.044-1.677 2.158a3.89 3.89 0 0 1-.542 0h-12.86c-2.206 0-4.424.025-6.63 0-1.437-.013-2.257-1.11-2.27-2.462V65.03c0-1.211.416-2.512 1.879-2.575.769-.025 1.55 0 2.332 0h17.598c.139 0 .694-.265.391-.265"/><path fill="#fff" d="M63.38 72.011c0 .215-.05.43-.139.631-.113.24-.265.467-.441.657a2.522 2.522 0 0 1-.782.53 2.79 2.79 0 0 1-1.11.202c-.289 0-.579-.025-.869-.089a2.495 2.495 0 0 1-.718-.277 2.564 2.564 0 0 1-.996-1.136 3.15 3.15 0 0 1-.253-.758 3.859 3.859 0 0 1-.088-.846 3.632 3.632 0 0 1 .215-1.313 2.726 2.726 0 0 1 1.537-1.616 3.177 3.177 0 0 1 1.135-.214c.454-.013.895.088 1.311.29.353.164.656.417.883.72.189.227.29.517.302.82 0 .14-.05.278-.151.38a.49.49 0 0 1-.353.163.461.461 0 0 1-.353-.113c-.1-.114-.19-.24-.265-.38a1.812 1.812 0 0 0-.567-.668 1.487 1.487 0 0 0-.794-.228 1.463 1.463 0 0 0-1.198.569c-.302.378-.441.921-.441 1.628-.013.404.05.796.202 1.174.113.29.302.53.567.695.252.151.555.24.844.227.316.012.63-.076.896-.265.252-.19.453-.467.554-.77.038-.14.114-.278.19-.392a.42.42 0 0 1 .378-.151c.138 0 .277.05.378.151.088.101.138.24.126.379m1.02 1.325v-4.885a.76.76 0 0 1 .152-.518.58.58 0 0 1 .82-.013.701.701 0 0 1 .15.518v4.886a.71.71 0 0 1-.163.517.551.551 0 0 1-.416.177.543.543 0 0 1-.403-.177.872.872 0 0 1-.14-.505m2.863-4.418a.651.651 0 0 1-.404-.14.55.55 0 0 1 0-.794.594.594 0 0 1 .404-.152c.138 0 .277.05.39.139a.492.492 0 0 1 .164.404.492.492 0 0 1-.164.404.642.642 0 0 1-.39.139m.554 1.161v3.257a.771.771 0 0 1-.164.518.543.543 0 0 1-.403.177.543.543 0 0 1-.403-.177.728.728 0 0 1-.152-.505v-3.22a.729.729 0 0 1 .152-.504.49.49 0 0 1 .403-.164.53.53 0 0 1 .403.164.581.581 0 0 1 .164.454m5.206 2.551c0 .163-.05.315-.126.454-.1.176-.227.328-.378.454a2.05 2.05 0 0 1-.656.354c-.29.088-.58.126-.882.126-.693 0-1.235-.202-1.626-.606-.39-.404-.58-.947-.58-1.629a2.697 2.697 0 0 1 .265-1.224c.164-.341.44-.631.781-.82a2.663 2.663 0 0 1 2.017-.165c.227.076.429.19.618.328.151.114.29.266.39.43.076.126.127.277.14.429 0 .126-.05.252-.152.34a.549.549 0 0 1-.365.14.352.352 0 0 1-.227-.076 1.823 1.823 0 0 1-.215-.228 1.893 1.893 0 0 0-.428-.467 1.063 1.063 0 0 0-1.374.228c-.202.265-.303.618-.303 1.073 0 .202.025.391.076.58.05.165.126.316.227.455.1.126.214.215.353.29a1.168 1.168 0 0 0 1.046-.05 1.41 1.41 0 0 0 .429-.48.871.871 0 0 1 .227-.303.36.36 0 0 1 .29-.1.45.45 0 0 1 .453.466m3.467.871-.996-1.64-.605.58v.896a.718.718 0 0 1-.164.505.516.516 0 0 1-.39.177.466.466 0 0 1-.404-.177.761.761 0 0 1-.151-.517v-4.798a.979.979 0 0 1 .138-.568.485.485 0 0 1 .416-.19.527.527 0 0 1 .416.178c.114.151.164.34.152.53v2.74l1.26-1.326a2.99 2.99 0 0 1 .353-.341.502.502 0 0 1 .303-.088c.126 0 .252.038.353.139a.488.488 0 0 1 .138.34c0 .164-.15.38-.453.657l-.593.543 1.16 1.817.19.303c.037.064.05.127.05.203a.523.523 0 0 1-.543.568.425.425 0 0 1-.315-.114 1.398 1.398 0 0 1-.315-.417"/><path fill="#79D379" d="m86.31 89.508-5.546-5.555-3.316 3.333a.593.593 0 0 1-1.008-.416V76.252c0-.328.265-.605.605-.605h10.602c.328 0 .592.265.592.593a.552.552 0 0 1-.176.416l-3.215 3.22 5.547 5.554a.9.9 0 0 1 0 1.275l-2.811 2.803a.897.897 0 0 1-1.273 0"/><path fill="#96E296" d="m85.958 87.488-4.4-4.38c-.088-.089-.227-.089-.303 0l-2.76 2.777c-.328.328-1.021-.038-1.034-.505l-.403-9.052c0-.29.226-.53.516-.53h.013l9.442.1c.97 0 1.097.455.517 1.036l-2.824 2.84 5.459 5.442-2.408 2.285a1.288 1.288 0 0 1-1.815-.013"/><path fill="#6A79A8" d="m86.701 89.495-5.647-5.656c-.126-.126-.416-.037-.53.076l-2.395 2.399-.592.593c-.076.076-.227.29-.328.328-.492.152-.467-.48-.467-.782v-7.676c0-.82-.126-1.742 0-2.563.063-.404.177-.404.492-.404h9.329c.29 0 .655-.05.933 0 .945.19.088 1.01-.215 1.313l-2.698 2.702c-.037.038-.1.114-.037.164l3.782 3.787c.58.581 1.197 1.15 1.764 1.768.694.77-.214 1.376-.756 1.906l-1.412 1.401c-.265.29-.731 1.035-1.223.644-.163-.126-.73.101-.567.24 1.009.795 1.878-.366 2.534-1.01.706-.707 1.576-1.376 2.168-2.184.593-.808-.428-1.49-.933-1.995l-2.81-2.815-1.955-1.957c-.012.05-.025.114-.038.165l2.698-2.702c.278-.278.744-.606.757-1.035.012-.543-.48-.707-.933-.72-2.748-.063-5.522 0-8.27 0H77.7c-.29 0-.606-.025-.883.063-.933.29-.668 1.54-.668 2.298v8.648c0 .403-.05.808.365 1.035.568.315 1.085-.089 1.463-.48l3.05-3.055-.529.076 5.648 5.655c.138.165.706-.063.554-.227M50.27 59.323a12.95 12.95 0 0 0 2.395 2.588c.163.127.718-.1.567-.227a12.984 12.984 0 0 1-2.395-2.588c-.114-.164-.706.038-.568.227m-2.231 4.419a13.69 13.69 0 0 0 3.353 1.073c.151.025.681-.215.492-.252a13 13 0 0 1-3.353-1.074c-.127-.063-.681.165-.492.253m7.727-3.132a12.857 12.857 0 0 1-.403-3.458c0-.265-.605-.152-.605.063-.025 1.2.113 2.386.416 3.547.038.24.655.076.592-.151"/></g><defs><clipPath id="a"><path fill="#fff" d="M40.148 21.441H98.2v97.453H40.15z"/></clipPath><clipPath id="b"><path fill="#fff" d="M43.749 33.241h51v76h-51z"/></clipPath><clipPath id="c"><path fill="#fff" d="M48 57h43v33H48z"/></clipPath></defs></svg>