<svg xmlns="http://www.w3.org/2000/svg" width="136" height="137" fill="none"><g clip-path="url(#a)"><path fill="#fff" d="M136 .75H0v136h136z"/><path fill="#F9F9F9" d="M39.588 114.683c-2.427-.501-31.6-5.018-29.453-38.329 2.148-33.312 4.843-43.33 16.185-46.995 11.343-3.665 38.912-21.008 60.547-4.517 21.634 16.49 44.978 31.28 35.714 57.61-9.264 26.33-10.781 35.115-34.95 33.77-24.171-1.344-36.497.846-48.043-1.539"/><path fill="#fff" d="M59.522 100.16s-.6 3.181.953 2.925l18.829-3.32a2.842 2.842 0 0 0 2.332-3.274l-.008-.046a2.832 2.832 0 0 0-3.247-2.345l-17.108 3.005c-1.552.256-2.008 1.492-1.75 3.055"/><path fill="#6A79A8" d="m65.622 102.248 13.344-2.315c1.249-.217 2.393-.822 2.828-2.098.65-1.908-.825-3.903-2.825-3.897-.701.002-1.428.198-2.114.318l-4.096.712-7.337 1.274c-.233.04-.476.302-.093.235l12.699-2.205c1.563-.272 3.045.619 3.325 2.247.267 1.555-.738 2.908-2.262 3.172l-6.894 1.196-6.485 1.126c-.23.04-.473.302-.09.235"/><path fill="#fff" d="M62.873 102.023s-.601 3.182.953 2.925l18.828-3.32a2.842 2.842 0 0 0 2.332-3.273l-.008-.047a2.832 2.832 0 0 0-3.247-2.345l-17.107 3.005c-1.553.255-2.009 1.491-1.751 3.055"/><path fill="#6A79A8" d="m69.073 104.195 13.27-2.303c1.198-.208 2.264-.779 2.742-1.97.718-1.788-.428-3.84-2.326-4.167-.783-.135-1.63.104-2.401.241l-3.901.694-7.215 1.282c-.349.062-.235.464.108.403 4.084-.727 8.164-1.494 12.256-2.178a2.674 2.674 0 0 1 3.141 2.653c.001 1.196-.815 2.277-1.989 2.545-.172.04-.35.064-.523.094l-6.897 1.197-6.374 1.106c-.349.06-.234.463.11.403"/><path fill="#fff" d="M66.742 104.031s-.601 3.181.953 2.925l18.828-3.32a2.842 2.842 0 0 0 2.332-3.274l-.008-.046a2.832 2.832 0 0 0-3.247-2.345l-17.107 3.005c-1.553.256-2.009 1.491-1.751 3.055"/><path fill="#6A79A8" d="M72.848 106.143c4.538-.787 9.087-1.53 13.617-2.363 1.858-.341 3.185-2.118 2.541-4-.521-1.525-2.065-2.168-3.568-1.915-2.533.43-5.061.884-7.592 1.326l-7.462 1.304c-.251.044-.459.35-.08.283l14.138-2.468c.88-.154 1.73-.388 2.594.02 2.217 1.048 2.058 4.659-.482 5.167-2.11.422-4.245.737-6.363 1.104l-7.262 1.26c-.253.042-.46.348-.08.282"/><path fill="#fff" d="M62.82 98.755c1.227 1.162 2.409 3.049 3.8 3.958.856.559 2.444.253 3.454.267l2.067.031 2.487-.427c2.963-.509 5.928-.748 8.89-1.257 1.612-.281 3.112.767 3.354 2.672l.003.03c.242 1.902-1.772 2.781-3.383 3.061-3.94.676-6.981 1.617-10.922 2.294-1.463.431-11.343 2.415-11.343 2.415-1.465.232-2.938.544-4.425.401-1.876-.18-3.682-.851-5.444-1.48-2.577-.922-5.1-1.965-7.64-2.981-1.312-.531-2.638-1.023-3.959-1.532-.943-.364-1.772-.39-2.793-.46-1.34-.092-2.597.454-3.89.751-.119.027-7.906 2.928-9.155 3.299l-9.785-9.737c1.277-.24 17.946-6.055 17.971-6.065 2.35-.954 4.613-2.084 6.893-3.19 8.432-4.092 17.894 2.34 23.82 7.95"/><path fill="#6A79A8" d="M61.86 111.507c-1.826.258-3.63.695-5.483.43-1.783-.255-3.488-.905-5.174-1.515-3.552-1.285-7.028-2.773-10.556-4.121-1.445-.552-2.99-.908-4.55-.731-1.08.122-2.198.452-3.23.792-1.393.459-2.77.982-4.153 1.474l-4.035 1.436c-.324.115-.232.497.102.378 2.622-.934 5.243-1.871 7.868-2.797.692-.244 1.406-.42 2.116-.612 1.755-.474 3.562-.337 5.254.311 3.459 1.324 6.872 2.768 10.347 4.049 1.83.674 3.682 1.394 5.616 1.704 1.978.318 3.878-.12 5.83-.396.302-.041.42-.455.047-.402m-47.596-11.318c4.99-1.63 9.958-3.332 14.931-5.016 1.782-.603 3.506-1.197 5.224-1.974a140.84 140.84 0 0 0 3.333-1.58c1.096-.533 2.172-1.087 3.35-1.42 2.27-.638 4.689-.592 6.977-.077 2.494.562 4.876 1.645 7.073 2.937a29.543 29.543 0 0 1 3.222 2.187c.483.377.926.816 1.42 1.176.474.347 1.05.505 1.612.655.218.058.647-.26.322-.348-.56-.15-1.117-.306-1.582-.668-.46-.357-.887-.758-1.346-1.117a29.22 29.22 0 0 0-2.876-1.981c-1.905-1.154-3.954-2.147-6.086-2.806-2.075-.643-4.275-.948-6.444-.744-2.36.221-4.359 1.176-6.462 2.195-2.256 1.092-4.497 2.09-6.864 2.892a4900.28 4900.28 0 0 1-7.722 2.611c-2.723.918-5.443 1.84-8.173 2.732-.329.107-.242.455.09.346"/><path fill="#6A79A8" d="m61.567 111.902 16.101-3.436c1.952-.416 3.9-.852 5.855-1.249 1.903-.386 4.137-1.448 3.53-3.774-.276-1.061-1.054-1.931-2.129-2.208-.451-.115-.908-.113-1.365-.047-.96.138-1.915.318-2.874.467-3.973.612-7.982 1.067-11.934 1.817-2.974.563-6.64 1.84-9.508.285-.145-.079-.65.138-.439.253 2.3 1.247 5.186.693 7.617.203 3.166-.638 6.345-1.135 9.54-1.595 1.77-.255 3.54-.508 5.307-.786 1.361-.215 2.97-.81 4.188.116.898.685 1.467 2.126 1.015 3.214-.488 1.175-1.884 1.569-3.01 1.805-5.171 1.078-10.333 2.205-15.498 3.308l-6.46 1.378c-.335.07-.264.32.064.249"/><path fill="#fff" d="M54.55 38.037c-.254.757.046 2.473.046 2.473s-1.463-1.104-2.315-1.342c-.874-.244-2.548-.077-2.548-.077s1.056-1.131 1.303-1.868c.248-.736.185-2.559.185-2.559s1.172.92 2.046 1.164c.77.214 2.61.102 2.61.102s-1.044 1.268-1.326 2.107"/><path fill="#6A79A8" d="M54.275 38.068c-.23.787-.09 1.72.046 2.516l.49-.212c-.694-.522-1.475-1.093-2.314-1.344-.857-.258-1.85-.185-2.731-.1.062.072.126.145.188.219.55-.594 1.188-1.3 1.397-2.098.204-.78.17-1.657.143-2.457l-.527.183c.696.542 1.51 1.113 2.395 1.265.81.14 1.665.102 2.48.054l-.221-.176c-.53.647-1.054 1.36-1.346 2.15-.072.198.478.132.55-.062.279-.756.802-1.445 1.31-2.063.117-.143-.15-.18-.222-.177-.72.042-1.475.072-2.19-.039-.821-.127-1.602-.67-2.248-1.174-.146-.113-.534-.042-.527.184.024.744.034 1.533-.121 2.265-.166.775-.79 1.468-1.316 2.034-.142.154.045.233.188.22.835-.081 1.811-.164 2.609.136.745.281 1.44.78 2.073 1.256.127.095.522-.021.49-.212-.133-.774-.267-1.666-.045-2.43.06-.21-.493-.137-.55.062"/><path fill="#fff" d="M69.367 29.971c-.607.52-1.228 2.148-1.228 2.148s-.69-1.697-1.302-2.337c-.625-.656-2.148-1.37-2.148-1.37s1.485-.432 2.076-.937c.59-.507 1.469-2.105 1.469-2.105s.536 1.39 1.161 2.047c.551.578 2.19 1.424 2.19 1.424s-1.546.555-2.218 1.13"/><path fill="#6A79A8" d="M69.145 29.917c-.62.577-.98 1.456-1.28 2.233l.549-.104c-.322-.783-.69-1.648-1.25-2.293-.577-.666-1.474-1.11-2.26-1.48l-.175.289c.795-.234 1.716-.521 2.33-1.1.602-.565 1.036-1.363 1.432-2.08l-.53.062c.303.779.698 1.665 1.333 2.227.606.537 1.36.939 2.077 1.31l.104-.264c-.814.294-1.654.653-2.33 1.2-.248.201.294.23.444.11.604-.49 1.383-.798 2.108-1.06.09-.033.255-.186.104-.265-.686-.355-1.422-.737-2.001-1.252-.62-.552-.996-1.39-1.293-2.152-.074-.19-.456-.075-.53.061-.351.634-.73 1.295-1.212 1.837-.52.585-1.385.851-2.118 1.067-.083.025-.371.196-.175.289.758.358 1.63.782 2.186 1.423.543.627.897 1.458 1.208 2.218.088.213.487.055.549-.104.273-.708.61-1.538 1.175-2.063.236-.22-.302-.242-.445-.109"/><path fill="#fff" d="M79.75 39.367c-.727.333-1.772 1.727-1.772 1.727s-.198-1.821-.608-2.605c-.422-.804-1.69-1.909-1.69-1.909s1.548-.006 2.254-.33 1.991-1.618 1.991-1.618.133 1.483.554 2.287c.371.707 1.715 1.972 1.715 1.972s-1.64.106-2.445.476"/><path fill="#6A79A8" d="M79.638 39.243c-.784.4-1.393 1.147-1.916 1.84l.53-.062c-.094-.844-.208-1.786-.585-2.556-.38-.777-1.09-1.43-1.734-1.994l-.357.277c.846-.005 1.824-.034 2.588-.431.745-.388 1.395-1.04 1.983-1.63l-.495.019c.077.822.212 1.745.653 2.458.425.69 1.05 1.285 1.636 1.84l.287-.275c-.867.057-1.786.17-2.59.514-.349.148-.034.359.224.25.71-.302 1.533-.385 2.298-.437.08-.006.427-.142.287-.274-.561-.53-1.152-1.098-1.576-1.746-.461-.706-.595-1.65-.672-2.477-.018-.195-.422-.054-.495.019-.496.499-1.026 1.009-1.616 1.393-.65.421-1.548.438-2.304.444-.08.001-.524.13-.357.278.642.563 1.391 1.23 1.74 2.024.333.755.448 1.639.538 2.452.025.223.463.028.53-.06.435-.578.971-1.282 1.627-1.616.335-.17.029-.38-.224-.25"/><path fill="#F4CAC1" d="M53.766 47.667a1.555 1.555 0 1 0-2.896-1.135 1.555 1.555 0 0 0 2.896 1.135"/><path fill="#6A79A8" d="M51.978 45.667c1.387-.128 2.177 1.67 1.137 2.607-.621.557-1.544.128-1.89-.513-.31-.568-.204-1.216.18-1.718.032-.04-.441-.031-.54.098-.546.714-.48 1.737.264 2.295.585.437 1.41.402 2.043.087.72-.358 1.149-1.155.908-1.95-.25-.823-1.052-1.196-1.861-1.121-.143.013-.597.248-.24.215"/><path fill="#F4CAC1" d="M56.085 26.439a1.555 1.555 0 1 0-3.066-.523 1.555 1.555 0 0 0 3.066.523"/><path fill="#6A79A8" d="M54.298 24.796c1.344-.123 2.13 1.757.984 2.558-.619.433-1.42.144-1.79-.468-.335-.554-.251-1.203.134-1.706.15-.197-.399-.163-.511-.017-1.224 1.6.725 3.372 2.347 2.47.715-.398 1.119-1.26.83-2.054-.295-.814-1.102-1.17-1.921-1.096-.274.026-.453.348-.073.313"/><path fill="#F4CAC1" d="M89.074 30.34a1.555 1.555 0 1 0-3.11-.034 1.555 1.555 0 0 0 3.11.035"/><path fill="#6A79A8" d="M87.269 28.96c1.332-.123 2.1 1.67 1.003 2.503-.535.405-1.296.229-1.7-.272a1.457 1.457 0 0 1-.012-1.814c.206-.267-.315-.304-.45-.129-1.221 1.598.643 3.502 2.327 2.543.694-.394 1.078-1.217.842-1.997-.26-.856-1.1-1.27-1.95-1.192-.29.027-.438.392-.06.357"/><path fill="#fff" d="M80.758 24.283a1.555 1.555 0 1 1-3.078.442 1.555 1.555 0 0 1 3.078-.442"/><path fill="#6A79A8" d="M78.965 23.135c1.368-.126 2.127 1.777.942 2.554-.612.401-1.389.118-1.751-.48-.336-.552-.249-1.195.136-1.697.16-.209-.395-.188-.515-.03-1.233 1.613.766 3.428 2.388 2.469.695-.41 1.074-1.266.791-2.046-.296-.814-1.103-1.184-1.925-1.108-.283.025-.444.373-.066.337"/><path fill="#fff" d="M42.097 37.474a1.555 1.555 0 1 0-2.991-.849 1.555 1.555 0 0 0 2.991.85"/><path fill="#6A79A8" d="M40.348 35.675c1.34-.123 2.133 1.748.98 2.544-.619.429-1.417.15-1.788-.462-.336-.554-.25-1.198.135-1.701.156-.205-.396-.178-.514-.025-1.223 1.6.725 3.386 2.35 2.48.716-.4 1.117-1.266.828-2.06-.296-.814-1.103-1.18-1.923-1.105-.279.027-.447.364-.068.33"/><path fill="#fff" d="M66.768 40.815a1.555 1.555 0 1 0-2.899-1.126 1.555 1.555 0 0 0 2.9 1.126"/><path fill="#6A79A8" d="M65.072 38.893c1.33-.122 2.103 1.667 1.002 2.5-.535.404-1.294.23-1.7-.272a1.455 1.455 0 0 1-.011-1.81c.205-.27-.314-.311-.45-.133-1.222 1.598.641 3.507 2.328 2.547.693-.395 1.076-1.219.84-1.999-.259-.856-1.1-1.272-1.95-1.194-.291.028-.435.396-.059.361"/><path fill="#F2F2F2" d="m90.993 62.486-48.706 3.133 2.14 33.284 48.708-3.134z"/><path fill="#fff" d="m42.813 73.762 44.84-2.885a2.662 2.662 0 0 1 2.828 2.486l1.193 18.547a2.775 2.775 0 0 1-2.59 2.948l-44.729 2.877z"/><path fill="#6A79A8" d="m42.175 65.748 4.857-.313 11.608-.747 14.095-.907 12.14-.78a53867.72 53867.72 0 0 1 5.274-.34c.18-.012.482.028.651-.042.022-.01.06-.004.083-.006l-.16-.054.728 11.306 1.15 17.874.264 4.106.388-.201-4.858.313-11.607.747-14.095.906-12.14.781-4.007.259-1.267.081c-.18.012-.483-.028-.652.042-.021.01-.059.004-.083.006l.16.054-.727-11.306-1.15-17.874c-.09-1.369-.176-2.737-.265-4.106-.008-.128-.558-.027-.547.146L42.742 77l1.15 17.873c.09 1.37.176 2.737.265 4.106.003.057.128.057.16.055l4.857-.313 11.608-.747 14.095-.907 12.14-.78c1.971-.127 3.958-.193 5.925-.381l.083-.006c.097-.006.397-.055.388-.2l-.728-11.307-1.15-17.873-.264-4.106c-.004-.057-.128-.057-.16-.055l-4.858.313-11.607.747-14.096.906-12.139.781c-1.972.127-3.958.193-5.926.381l-.083.006c-.165.011-.589.279-.227.255"/><path fill="#E5E5E5" d="m42.29 65.62 48.708-3.134-3.817-4.352-41.559 2.672z"/><path fill="#F9F9F9" d="m43.17 64.618 43.99-2.83a.653.653 0 0 0 .409-1.125l-2.51-2.392-39.608 2.546z"/><path fill="#6A79A8" d="m42.265 65.825 4.858-.313 11.607-.747 14.096-.906 12.139-.781 4.007-.259c.635-.04 1.288-.041 1.919-.123.027-.003.055-.003.083-.006.122-.008.414-.165.273-.326-1.24-1.414-2.42-2.924-3.74-4.265-.343-.349-1.207-.113-1.65-.084l-10.93.703-15.566 1c-4.02.26-8.038.517-12.058.776-.747.047-1.557.014-2.295.147-.439.08-.638.741-.833 1.092l-1.762 3.162-.386.69c-.15.272.405.283.525.068.886-1.59 1.774-3.18 2.66-4.772l-.286.172 4.2-.27c3.36-.217 6.722-.432 10.084-.648l12.2-.785 10.55-.678 3.464-.224 1.091-.07c.159-.01.423.024.571-.036.02-.008.051-.004.073-.005l-.227-.083 3.816 4.354c.09-.11.182-.218.273-.327l-4.857.313-11.608.747-14.095.907-12.14.78-4.007.259c-.634.04-1.287.042-1.919.123-.027.004-.055.004-.082.006-.312.02-.42.433-.048.41"/><path fill="#F99487" d="m62.298 64.224 8.219-.474 2.107 33.408-8.22.475z"/><path fill="#F9AB98" d="M62.782 72.628 71 72.154l1.56 23.894-8.22.475z"/><path fill="#6A79A8" d="m70.255 63.906.714 11.318 1.134 17.965.26 4.126.383-.218-8.219.474.165.07-.714-11.318-1.134-17.965-.26-4.126c-.01-.156-.56-.048-.548.147l.714 11.317 1.134 17.966.26 4.125c.004.061.125.073.165.07l8.219-.473c.113-.007.393-.055.383-.218l-.714-11.317-1.134-17.966-.26-4.125c-.01-.156-.56-.048-.548.148"/><path fill="#F9AB98" d="m70.53 63.833-1.366-4.518-6.194.342-.66 4.65z"/><path fill="#6A79A8" d="m63.567 64.336 5.142-.297c.157-.01.593-.258.233-.238l-5.142.297c-.158.009-.593.26-.233.238"/><path fill="#6A79A8" d="m70.803 63.76-1.366-4.52c-.03-.096-.16-.1-.24-.095l-6.194.343c-.102.006-.291.078-.308.199l-.66 4.65c-.034.236.52.147.55-.06l.66-4.65-.309.199 6.194-.343-.24-.096 1.365 4.52c.065.21.611.061.548-.147"/><path fill="#E5E5E5" d="M80.762 64.551c.996.352 2.09 1.555 2.894 2.217 1.153.951 3.376 2.387 3.747 3.911.082.337.067.69.027 1.034-.148 1.234-.645 2.63-1.56 3.502-.921.878-2.156.918-3.22.289-2.622-1.548-4.67-3.826-6.706-6.049a2.846 2.846 0 0 1-.32-.392c-.347-.548-1.123-5.35-1.123-5.35s3.79.476 5.72.726c.164.022.33.043.488.094.017.006.035.013.053.018M58.178 85.272l-10.518.68.487 7.547 10.518-.679z"/><path fill="#6A79A8" d="M49.403 91.1c2.988-.193 5.977-.385 8.966-.58l1.3-.083c.293-.02.435-.385.059-.362l-8.966.58-1.3.083c-.295.02-.435.387-.06.362m-.112-1.828 8.966-.58 1.3-.083c.312-.02.418-.436.045-.413l-8.966.58-1.3.083c-.313.02-.418.437-.045.413m-.154-2.34c2.988-.192 5.977-.385 8.965-.579.433-.028.867-.055 1.3-.084.3-.019.43-.403.055-.38l-8.966.58c-.433.028-.867.055-1.3.084-.3.02-.43.403-.054.38m.378 5.93 2.28-.147c.285-.019.441-.367.064-.342l-2.28.148c-.285.019-.441.366-.064.34m3.991-.269 2.279-.148c.275-.018.45-.34.071-.316l-2.28.147c-.275.019-.45.34-.07.317"/><path fill="#F2F2F2" d="M91.952 62.45 41.01 65.739l.437 6.77 50.942-3.287z"/><path fill="#fff" d="m41.012 65.74 49.334-3.183.055.856a4.528 4.528 0 0 1-4.227 4.81l-44.816 2.893z"/><path fill="#6A79A8" d="M40.78 66.48c.13 1.999.259 3.997.387 5.996.005.092.556 0 .547-.146l-.386-5.995c-.006-.092-.557 0-.548.146"/><path fill="#6A79A8" d="m41.334 72.636 5.068-.328 12.172-.785 14.723-.95 12.723-.821c2.053-.133 4.123-.204 6.172-.398l.084-.006c.096-.005.397-.055.387-.2l-.39-6.049c-.007-.127-.558-.026-.547.146l.39 6.049.388-.2c-1.69.108-3.38.217-5.069.327l-12.172.785-14.723.95-12.723.822c-2.053.132-4.123.204-6.172.397l-.084.006c-.164.013-.589.279-.227.255"/><path fill="#F2F2F2" d="m40.838 65.593 51.119-3.289-2.788-4.438-46.027 2.96z"/><path fill="#6A79A8" d="M40.721 65.712c1.698-.11 3.396-.22 5.095-.328l12.23-.787 14.732-.947 12.781-.823c2.06-.132 4.138-.2 6.194-.399.03-.003.06-.003.09-.005.042-.003.453-.091.39-.192l-2.788-4.438c-.032-.051-.105-.048-.158-.044l-4.593.296-10.971.706-13.324.856-11.469.738c-1.855.12-3.741.152-5.588.36-.028.003-.055.003-.082.005-.108.007-.332.049-.386.164l-2.306 4.767c-.046.097.47.055.541-.092l2.305-4.766c-.129.054-.258.108-.386.164l4.593-.296 10.97-.706 13.324-.857 11.47-.737 3.784-.244 1.189-.076c.175-.011.448.023.615-.04.023-.008.058-.003.082-.005l-.158-.045 2.788 4.439.39-.192-5.094.328c-4.077.261-8.154.524-12.23.786l-14.732.948-12.782.822c-2.06.133-4.138.2-6.194.4-.03.003-.06.003-.09.005-.155.009-.592.258-.232.235"/><path fill="#F99487" d="m62.814 71.14 8.108-.468-.4-6.946-8.11.468z"/><path fill="#F9AB98" d="m62.73 69.677 8.109-.468-.316-5.482-8.11.468z"/><path fill="#F99487" d="m62.413 64.19 8.11-.467-1.166-4.471-6.763.38z"/><path fill="#6A79A8" d="m70.204 63.79.4 6.945.389-.197-8.11.468.16.05c-.134-2.316-.268-4.631-.4-6.945-.008-.12-.558-.023-.548.146l.4 6.945c.003.055.128.052.159.05l8.109-.468c.094-.006.396-.057.388-.198l-.4-6.945c-.008-.119-.557-.021-.547.149"/><path fill="#6A79A8" d="m63.648 64.298 5.072-.293c.31-.018.422-.422.05-.4l-5.074.292c-.31.018-.422.423-.048.4"/><path fill="#6A79A8" d="m70.751 63.642-1.164-4.47c-.026-.102-.16-.115-.245-.11l-6.763.38c-.102.006-.3.083-.305.209l-.182 4.557c-.01.265.543.173.552-.051l.182-4.557-.305.208 6.764-.38-.245-.11 1.164 4.47c.06.232.607.088.547-.146"/><path fill="#F9AB98" d="M77.874 56.883c1.338-2.092 1.325-4.967-.03-7.045-2.096-3.216-7.086-3.848-10.15-1.54-3.066 2.31-3.94 6.922-2.282 10.383-.57-2.775-2.58-5.213-5.195-6.303-2.616-1.09-5.762-.802-8.135.748-1.613 1.052-3.356 3.478-2.576 5.484.797 2.052 2.367 3.48 4.512 4.056 2.155.579 4.525.37 6.71.056 1.93-.276 3.67-1.214 5.035-2.596.183-.186.367-.54.636-.482 2.759.601 9.676.053 11.475-2.761"/><path fill="#6A79A8" d="M78.145 56.838c1.224-1.977 1.339-4.567.236-6.627-.92-1.72-2.642-2.84-4.525-3.237a8.257 8.257 0 0 0-5.207.605c-1.796.858-3.13 2.474-3.8 4.333-.798 2.212-.707 4.71.289 6.842.06.13.577-.01.547-.146-.877-4.056-4.517-7.011-8.669-7.003-1.926.003-3.97.58-5.51 1.765-1.4 1.077-2.787 2.987-2.408 4.855.363 1.793 1.907 3.376 3.519 4.123 2.029.94 4.406.9 6.584.67 2.13-.225 4.101-.702 5.826-2.037.364-.281.72-.585 1.031-.924.066-.071.153-.243.24-.28.016-.008-.252.05.05.012.122-.016.297.05.422.069a14.51 14.51 0 0 0 2.092.122c1.824-.009 3.678-.234 5.427-.76 1.433-.43 2.997-1.087 3.856-2.383.047-.07-.448-.047-.54.092-.764 1.153-2.155 1.746-3.432 2.125-1.444.429-2.958.627-4.46.68-.674.023-1.35.013-2.022-.046-.448-.04-1-.246-1.444-.135-.29.074-.448.27-.64.485-.34.38-.738.72-1.146 1.024a8.257 8.257 0 0 1-2.868 1.39c-1.062.27-2.198.362-3.289.426-1.191.072-2.398.043-3.569-.205-1.754-.373-3.32-1.325-4.302-2.85-.453-.703-.853-1.514-.844-2.369.009-.925.418-1.82.937-2.567 1.191-1.716 3.13-2.729 5.182-2.98 4.415-.541 8.502 2.547 9.431 6.848l.547-.146c-1.592-3.411-.862-8.034 2.278-10.338 2.994-2.197 7.823-1.385 9.744 1.862 1.228 2.076 1.16 4.756-.102 6.796-.05.076.452.05.54-.092"/><path fill="#6A79A8" d="M55.636 53.98a9.8 9.8 0 0 0 6.644 5.54l.394-.249c-2.021-.333-4.199-.487-6.062.523-.32.173.174.2.328.115 1.646-.892 3.613-.672 5.39-.38.118.02.59-.201.394-.248a9.642 9.642 0 0 1-6.54-5.449c-.072-.16-.607.015-.548.148m14.712-1.87a7.222 7.222 0 0 1-1.516 6.173c-.15.18.404.1.505-.003 1.343-1.357 3.061-2.258 4.952-2.542.25-.037.463-.33.082-.274a9.806 9.806 0 0 0-5.54 2.82l.506-.004a7.4 7.4 0 0 0 1.558-6.316c-.037-.168-.587-.032-.547.146m7.117 12.958c.834-.504 1.438-1.579 1.182-2.567-.308-1.192-1.632-1.562-2.692-1.752a88.52 88.52 0 0 0-9.667-1.173c-.223-.015-.576.306-.207.33a90.29 90.29 0 0 1 8.244.938c1.11.179 2.645.228 3.43 1.152.764.904.317 2.314-.635 2.89-.317.189.156.296.345.182"/><path fill="#fff" d="M80.604 63.594c.996.352 2.09 1.555 2.893 2.217 1.154.951 3.376 2.387 3.748 3.911.081.337.067.69.026 1.034-.147 1.234-.645 2.63-1.56 3.502-.921.878-2.155.918-3.22.289-2.622-1.548-4.67-3.826-6.705-6.049a2.726 2.726 0 0 1-.32-.392c-.348-.548-1.124-5.35-1.124-5.35s3.79.476 5.72.726c.164.022.33.043.488.094z"/><path fill="#6A79A4" d="M80.38 63.707c1.108.43 1.915 1.408 2.804 2.154.792.666 1.65 1.248 2.407 1.957.948.886 1.577 1.802 1.388 3.145-.16 1.135-.583 2.36-1.401 3.193-1.293 1.318-2.766.412-3.99-.46-1.07-.761-2.049-1.64-2.978-2.567-.92-.914-1.85-1.857-2.681-2.852-.372-.445-.454-1.037-.575-1.59a73.742 73.742 0 0 1-.74-4.003l-.449.193c.783.099 1.565.196 2.348.296.64.08 1.28.162 1.92.244.628.08 1.348.087 1.947.29.132.044.623-.164.447-.224-.549-.185-1.183-.198-1.756-.27-.688-.089-1.376-.175-2.064-.262l-2.492-.314c-.09-.011-.472.049-.448.194a72.5 72.5 0 0 0 .74 4.004c.147.672.256 1.238.72 1.76 1.003 1.127 2.04 2.237 3.133 3.276 1.086 1.032 2.262 2.036 3.573 2.773.913.513 1.975.605 2.932.147 1.033-.493 1.678-1.553 2.038-2.599.41-1.19.59-2.462-.175-3.541-.775-1.094-1.925-1.87-2.966-2.688-1.055-.83-1.958-1.983-3.235-2.48-.13-.05-.625.155-.447.224"/><path fill="#6A79A8" d="M76.853 66.347a1.062 1.062 0 1 0 1.2-1.752 1.062 1.062 0 0 0-1.2 1.752"/><path fill="#6A79A8" d="M77.168 64.804c-.555.278-1.158.356-1.757.488-.551.121-1.09.287-1.633.434-1.317.357-2.706.59-3.96-.095-2.15-1.173-2.799-3.739-3.328-5.937-.063-.266-.612-.122-.547.146.574 2.385 1.335 5.14 3.76 6.276 1.203.563 2.533.423 3.782.11.679-.17 1.347-.388 2.031-.538.652-.143 1.298-.24 1.9-.542.333-.165.037-.485-.248-.342m6.057 5.641c-1.057.393-2.578-.36-2.948-1.537-.077-.244-.624-.095-.548.147.472 1.498 2.316 2.231 3.736 1.702.351-.13.04-.416-.24-.312m-2.099-2.264c-.037.132-.162.217-.284.19-.12-.028-.189-.155-.153-.285.037-.132.163-.216.284-.19.12.027.189.155.153.285m2.668 1.521c-.037.131-.162.216-.284.189-.12-.026-.189-.154-.153-.285.037-.131.162-.216.284-.189.12.026.189.153.153.285"/><path fill="#fff" d="M45.795 89.562c-2.83-.055-5.281-.018-7.282 2.264-.431.492-.778 1.076-.889 1.72-.09.526-.02 1.066.109 1.582.351 1.406 1.126 2.663 1.897 3.89.342.546.698 1.103 1.21 1.494.752.574 1.732.714 2.642.969 1.425.4 2.79 1.125 4.27 1.155 1.177.025 2.189-.545 3.313-.666 1.076-.116 2.25-.034 3.333-.012 2.206.046 4.42.265 6.551.861 2.384.666 6.817 2.898 8.314-.352l.012-.025c.73-1.583-.092-3.517-1.836-4.321l-4.793-2.209c-4.267-1.966-8.575-3.883-12.942-5.611-1.512-.597-2.297-.707-3.909-.739"/><path fill="#6A79A8" d="m55.273 99.758 5.031 2.319 3.202 1.476c.631.291 1.275.646 1.96.79 1.586.334 3.373-.343 4.07-1.869.718-1.577-.042-3.39-1.46-4.279-1.007-.63-2.197-1.048-3.276-1.544-1.166-.537-2.331-1.076-3.498-1.61a287.485 287.485 0 0 0-7.262-3.208 174.365 174.365 0 0 0-4.076-1.674c-1.048-.414-2.086-.697-3.212-.764-2.551-.15-5.064.08-7.44 1.068-.345.144-.04.435.242.318 2.155-.895 4.423-1.103 6.738-1.005 2.143.09 4.056 1.016 6.008 1.826 4.444 1.844 8.812 3.861 13.182 5.874.965.444 2.107.799 2.856 1.584.599.627.966 1.478.918 2.353-.109 2.013-2.214 3.062-4.01 2.414-1.528-.552-2.998-1.366-4.473-2.046l-5.184-2.389c-.224-.103-.63.221-.316.366"/><path fill="#6A79A8" d="M51.996 100.027c.75-.483 1.802-.604 2.679-.592.31.005.421-.389.05-.394-1.03-.015-2.213.177-3.092.741-.31.2.142.386.363.245m11.151-.258c-.545 1.182-.045 2.484 1.12 3.038.93.442 1.789.859 2.838.531 1.19-.373 2.03-1.596 1.704-2.852-.286-1.1-1.29-1.516-2.236-1.923-1.262-.544-2.802-.032-3.426 1.206-.047.091.468.053.54-.092.437-.867 1.305-1.324 2.254-.971.356.132.703.314 1.046.476 1.133.536 1.674 1.791 1.111 2.955-.42.87-1.312 1.312-2.244.968-.357-.131-.703-.314-1.047-.477-1.141-.541-1.66-1.779-1.12-2.951.046-.098-.472-.053-.54.092"/></g><defs><clipPath id="a"><path fill="#fff" d="M0 .75h136v136H0z"/></clipPath></defs></svg>