<?xml version="1.0" encoding="utf-8"?>
<!-- Generator: Adobe Illustrator 25.3.1, SVG Export Plug-In . SVG Version: 6.00 Build 0)  -->
<svg version="1.1" xmlns="http://www.w3.org/2000/svg" xmlns:xlink="http://www.w3.org/1999/xlink" x="0px" y="0px"
	 viewBox="0 0 250 250" style="enable-background:new 0 0 250 250;" xml:space="preserve">
<style type="text/css">
	.st0{fill:#FFFFFF;}
	.st1{fill:#F9F9F9;}
	.st2{fill:#E5E5E5;}
	.st3{fill:#6A79A8;}
	.st4{fill:#F7F7F7;}
	.st5{fill:#F2F2F2;}
	.st6{display:none;}
	.st7{display:inline;fill:#E5E5E5;}
	.st8{display:inline;fill:#EA8571;}
	.st9{display:inline;fill:#FF9999;}
	.st10{display:inline;}
	.st11{display:inline;fill:#F9AB98;}
	.st12{fill-rule:evenodd;clip-rule:evenodd;fill:#F9CABF;}
	.st13{fill-rule:evenodd;clip-rule:evenodd;fill:none;stroke:#6A79A8;stroke-miterlimit:10;}
	.st14{fill:#F9AB98;}
</style>
<g id="Ńëîé_1_1_">
	<rect id="XMLID_32_" class="st0" width="250" height="250"/>
	<path class="st1" d="M72.8,215.6c-4.5-1-58.1-9.5-54.1-72.9c3.9-63.3,8.9-82.4,29.8-89.4s71.5-40,111.3-8.6s82.7,59.5,65.7,109.6
		s-19.8,66.8-64.2,64.2C116.7,216,94,220.1,72.8,215.6z"/>
</g>
<g id="Ńëîé_2">
	<path class="st1" d="M72.8,215.6c-4.5-1-58.1-9.5-54.1-72.9c3.9-63.3,8.9-82.4,29.8-89.4s71.5-40,111.3-8.6s82.7,59.5,65.7,109.6
		s-19.8,66.8-64.2,64.2C116.7,216,94,220.1,72.8,215.6z"/>
	<path class="st2" d="M65.8,200c-1,0.7-1.8,1.5-1.8,2.8c0.1,2.8,5.1,3.5,7.2,3.7c3.6,0.5,7.2,0.4,10.9,0.5
		c13.2,0.5,26.4,0.6,39.6,0.3c6.8-0.1,13.6-0.4,20.3-0.7c5.9-0.3,12.6,0.1,18.2-2.1c3.4-1.3,6.6-3,9.8-4.7c2.6-1.5,6-2.9,7.6-5.6
		c2.7-4.8-6.8-5.7-9.5-6.3c-10.3-2.1-21-2.4-31.5-2.8c-10.7-0.3-21.4-0.1-32.1,1c-13.4,1.3-27.7,5.7-38.6,13.7
		C65.9,199.9,65.9,200,65.8,200z"/>
	<g>
		<rect x="97" y="144.9" class="st2" width="73.3" height="50.3"/>
		<g>
			<path class="st0" d="M170.3,144.9H97l9.7-11.2c0.5-0.5,1.1-0.8,1.8-0.8h70.9c0.5,0,0.8,0.6,0.5,1L170.3,144.9z"/>
			<g>
				<path class="st3" d="M170.4,144.6c-2.4,0-4.8,0-7.3,0c-5.8,0-11.7,0-17.5,0c-7,0-14.1,0-21.1,0c-6.1,0-12.2,0-18.4,0
					c-2,0-4,0-6,0c-0.6,0-1.3,0-1.9,0c-0.2,0-0.7-0.1-1,0c0,0-0.1,0-0.1,0c0.1,0.2,0.2,0.3,0.3,0.5c2.4-2.8,4.8-5.5,7.1-8.3
					c0.8-1,1.6-2,2.6-3c0.7-0.7,1.3-0.6,2.1-0.6c6,0,12.1,0,18.1,0c9.5,0,19.1,0,28.6,0c7,0,14.1,0,21.1,0c0.6,0,1.4-0.1,2,0
					c0.1,0,0.2,0,0.3,0c0.5,0.4-0.3,1.1-0.5,1.3c-2.7,3.1-5.4,6.3-8.2,9.4c-0.2,0.3-0.5,0.5-0.7,0.8c-0.4,0.5,0.5,0.7,0.8,0.3
					c2.5-2.9,4.9-5.7,7.4-8.6c0.6-0.6,1.1-1.3,1.7-1.9c0.3-0.3,0.7-0.7,0.7-1.2c-0.1-0.9-1-0.8-1.6-0.8c-6.1,0-12.2,0-18.3,0
					c-9.8,0-19.7,0-29.5,0c-7,0-13.9,0-20.9,0c-0.5,0-1,0-1.5,0c-1.3,0-2.1,0.7-2.9,1.7c-2.8,3.2-5.6,6.5-8.4,9.7
					c-0.2,0.3-0.5,0.6-0.7,0.8c-0.2,0.3,0,0.5,0.3,0.5c2.4,0,4.8,0,7.3,0c5.8,0,11.7,0,17.5,0c7,0,14.1,0,21.1,0
					c6.1,0,12.2,0,18.4,0c2,0,4,0,6,0c0.9,0,1.9,0.1,2.9,0c0,0,0.1,0,0.1,0C170.8,145.2,171.1,144.6,170.4,144.6z"/>
			</g>
		</g>
		<g>
			<polygon class="st4" points="97.1,144.9 79.1,151.9 79.1,202.2 97.1,195.4 			"/>
			<g>
				<path class="st3" d="M97.1,144.7c-5.3,2-10.5,4.1-15.8,6.1c-0.8,0.3-1.5,0.6-2.3,0.9c-0.4,0.1-0.8,0.6-0.1,0.4
					c5.3-2,10.5-4.1,15.8-6.1c0.8-0.3,1.5-0.6,2.3-0.9C97.4,144.9,97.8,144.5,97.1,144.7L97.1,144.7z"/>
			</g>
			<g>
				<path class="st3" d="M97.5,195.7c0-5.4,0-10.9,0-16.3c0-8.6,0-17.3,0-25.9c0-2,0-3.9,0-5.9c0-0.3-0.8-0.7-0.8-0.5
					c0,5.4,0,10.9,0,16.3c0,8.6,0,17.3,0,25.9c0,2,0,3.9,0,5.9C96.6,195.4,97.5,195.9,97.5,195.7L97.5,195.7z"/>
			</g>
		</g>
		<g>
			<path class="st5" d="M97.1,144.9l-18,7l-8.6-8.4c-0.8-0.8-0.5-2.2,0.5-2.6l14.8-5.5c0.6-0.2,1.2-0.1,1.6,0.3L97.1,144.9z"/>
			<path class="st0" d="M96.6,145.1l-17.6,6.8l-7.3-7.3c-0.8-0.8-0.5-2.2,0.5-2.6c1.7-0.6,3.4-1.3,5.1-1.9c2.5-0.9,5.5-2.8,8.3-2.2
				C87.6,138.3,96.4,144.9,96.6,145.1z"/>
			<g>
				<path class="st3" d="M96.9,144.5c-5.3,2-10.5,4.1-15.8,6.1c-0.8,0.3-1.5,0.6-2.3,0.9c0.2,0,0.4,0.1,0.6,0.1
					c-2.2-2.1-4.4-4.3-6.6-6.4c-0.5-0.5-1-1-1.6-1.5c-0.3-0.3-0.7-0.6-0.8-1c-0.4-1.4,1.6-1.8,2.6-2.2c3.5-1.3,7-2.6,10.5-3.9
					c0.7-0.3,2.2-1.2,3-0.9c0.3,0.1,0.7,0.5,0.9,0.8c0.5,0.5,1.1,1,1.6,1.5c2.5,2.4,5,4.7,7.5,7.1c0.4,0.4,1.3-0.1,0.9-0.5
					c-2.4-2.2-4.7-4.5-7.1-6.7c-0.9-0.8-1.7-1.7-2.6-2.5c-1.2-1-2.3-0.5-3.5,0c-3.7,1.4-7.4,2.8-11.1,4.1c-0.9,0.3-2.1,0.6-2.9,1.2
					c-0.9,0.6-1.2,1.8-0.6,2.7c0.2,0.4,0.6,0.6,0.9,0.9c2.7,2.6,5.3,5.2,8,7.8c0.1,0.1,0.4,0.2,0.6,0.1c5.3-2,10.5-4.1,15.8-6.1
					c0.8-0.3,1.5-0.6,2.3-0.9C97.9,145,97.5,144.3,96.9,144.5z"/>
			</g>
		</g>
	</g>
	<g class="st6">
		<path class="st7" d="M95.4,138c0.4-3.4-1.7-6.9-5.5-7.4c-3.3-0.5-6.4,1.6-7.2,4.8c0-3.3-2.4-6.1-5.7-6.6c-2.9-0.4-5.6,1.3-6.8,3.9
			c-1.4,3-0.2,5.8,1.8,8.2c1.8,2.2,9,10.3,9,10.3s10.7-6.9,12.8-9.3C94.7,140.8,95.2,139.4,95.4,138z"/>
		<path class="st8" d="M94.4,137.6c0.4-3.4-1.7-6.9-5.5-7.4c-3.3-0.5-6.4,1.6-7.2,4.8c0-3.3-2.4-6.1-5.7-6.6
			c-2.9-0.4-5.6,1.3-6.8,3.9c-1.4,3-0.2,5.8,1.8,8.2c1.8,2.2,9,10.3,9,10.3s10.7-6.9,12.8-9.3C93.6,140.4,94.2,139,94.4,137.6z"/>
		<path class="st9" d="M94.3,137.6c0.2-2.5-0.8-5-3.2-6.3c-3.8-1.9-7.2,0.9-9.5,3.8c0-4.6-5.4-8-9.2-4.8c-1.4,1.2-2.2,3.2-2.1,5
			c0.2,3.1,2.6,5.4,4.5,7.8c1.6,2.1,3.2,4.2,4.8,6.3c0,0,0.7,0.9,0.7,0.9c0,0,10.3-6.3,12.4-8.7C93.6,140.4,94.2,139,94.3,137.6z"/>
		<g class="st10">
			<path class="st3" d="M94.9,137.5c0.3-3.6-1.8-6.9-5.4-7.6c-3.7-0.7-7.3,1.5-8.4,5.1c0.3,0,0.7-0.1,1-0.1
				c-0.1-3.1-2.1-5.9-5.2-6.7c-3.1-0.8-6.3,0.6-7.9,3.3c-2,3.3-0.7,6.8,1.6,9.5c1.6,1.9,3.2,3.7,4.8,5.6c1.3,1.5,2.6,3,4,4.5
				c0.2,0.2,0.6,0.1,0.8,0c2.4-1.6,4.8-3.2,7.1-4.8C90.4,143.9,94.3,141.7,94.9,137.5c0.1-0.5-1-0.3-1,0.1c-0.5,4.1-4.7,6.4-7.8,8.6
				c-2.2,1.5-4.4,3-6.6,4.4c0.3,0,0.5,0,0.8,0c-2.4-2.7-4.7-5.3-7-8c-1.5-1.8-3.3-3.6-4-5.9c-1-3.4,1.2-7.4,4.8-7.9
				c3.7-0.6,6.9,2.6,7,6.2c0,0.5,0.9,0.3,1-0.1c1-3.3,4.4-5.2,7.7-4.1c2.8,1,4.3,4,4,6.8C93.8,138.1,94.8,137.9,94.9,137.5z"/>
		</g>
	</g>
	<g class="st6">
		<path class="st7" d="M97.7,61.9c0.7-2.4-0.3-5.2-3.1-6.1c-2.3-0.7-4.8,0.4-5.8,2.5c0.4-2.4-0.9-4.7-3.3-5.5
			c-2.1-0.7-4.2,0.2-5.4,2c-1.4,2-0.9,4.2,0.2,6.2c1,1.8,5.2,8.6,5.2,8.6S94.1,66,96,64.5C96.9,63.8,97.4,62.9,97.7,61.9z"/>
		<path class="st8" d="M97,61.5c0.7-2.4-0.3-5.2-3.1-6.1c-2.3-0.7-4.8,0.4-5.8,2.5c0.4-2.4-0.9-4.7-3.3-5.5c-2.1-0.7-4.2,0.2-5.4,2
			c-1.4,2-0.9,4.2,0.2,6.2c1,1.8,5.2,8.6,5.2,8.6s8.6-3.7,10.4-5.1C96.2,63.4,96.8,62.5,97,61.5z"/>
		<path class="st11" d="M97,61.4c0.5-1.8,0-3.8-1.6-4.9c-2.5-1.9-5.3-0.3-7.3,1.5c0.6-3.3-2.9-6.5-6.1-4.7c-1.2,0.7-2,2-2.1,3.4
			c-0.3,2.3,1.2,4.3,2.2,6.2c0.9,1.7,1.8,3.4,2.7,5.1c0,0,0.4,0.7,0.4,0.7c0,0,8.2-3.3,10.1-4.7C96.1,63.4,96.7,62.5,97,61.4z"/>
		<g class="st10">
			<path class="st3" d="M97.5,61.4c0.7-2.6-0.5-5.3-3-6.3c-2.6-1-5.6,0.2-6.9,2.7c0.3,0,0.7,0,1,0c0.3-2.4-0.9-4.7-3.1-5.6
				c-2.2-0.9-4.7-0.2-6.2,1.5c-3.2,3.8,0.6,8.5,2.7,11.8c0.8,1.3,1.6,2.5,2.3,3.8c0.1,0.2,0.5,0.1,0.7,0.1c2-0.9,4-1.8,6-2.7
				C93.7,65.5,96.6,64.3,97.5,61.4c0.1-0.4-0.9-0.3-1,0.1c-0.9,2.9-4.3,4-6.8,5.1c-1.7,0.8-3.4,1.6-5.2,2.3c0.2,0,0.5,0,0.7,0.1
				c-1.7-2.7-3.4-5.4-4.9-8.2c-0.7-1.2-1.3-2.5-1.3-3.8c0-1.8,1.1-3.5,2.8-4.1c3.3-1.3,6.2,2,5.7,5.1c-0.1,0.5,0.8,0.3,1,0
				c1.2-2.3,4-3.2,6.2-1.7c1.7,1.2,2.2,3.3,1.7,5.2C96.4,61.9,97.4,61.8,97.5,61.4z"/>
		</g>
	</g>
	<g class="st6">
		<path class="st7" d="M74.1,78.5c-2.9-7.7-11.2-13-20-9.9c-7.6,2.7-11.9,10.5-10.4,18.2c-3.5-7-11.8-10.5-19.4-7.9
			c-6.8,2.4-10.8,8.9-10.4,16c0.4,8.1,6,12.7,12.8,15.7c6.3,2.8,30.7,12.3,30.7,12.3s15.3-26.6,17.3-34.1
			C75.7,85.3,75.4,81.7,74.1,78.5z"/>
		<path class="st8" d="M71.5,78.7c-2.9-7.7-11.2-13-20-9.9C43.8,71.4,39.5,79.3,41.1,87c-3.5-7-11.8-10.5-19.4-7.9
			c-6.8,2.4-10.8,8.9-10.4,16c0.4,8.1,6,12.7,12.8,15.7c6.3,2.8,30.7,12.3,30.7,12.3S70.1,96.5,72,89.1C73,85.5,72.7,81.9,71.5,78.7
			z"/>
		<path class="st11" d="M71.4,78.7c-2.2-5.6-7.3-9.9-13.9-9.9c-10.4,0.1-14.6,9.9-16.3,18.6c-5-10-20.5-11.4-25.2-0.2
			c-1.8,4.2-1.2,9.2,1.1,13.1c3.8,6.5,11.7,8.8,18.1,11.8c5.8,2.7,11.5,5.4,17.2,8.2c0.1,0.1,2.5,1.2,2.5,1.2
			c0,0,15.1-24.9,17.1-32.4C73,85.6,72.6,81.9,71.4,78.7z"/>
		<g class="st10">
			<path class="st3" d="M71.8,78.4c-2.3-5.9-7.8-10.6-14.3-11c-6.5-0.4-12.8,3.2-15.7,9c-1.6,3.3-2.1,7-1.4,10.5
				c0.3-0.1,0.6-0.2,1-0.4c-3.7-7.2-12.3-10.6-20-8c-7.6,2.6-12,10.7-10.6,18.6c1.3,7.4,7.6,11.6,14.1,14.4c5.5,2.3,11,4.5,16.5,6.7
				c4.3,1.7,8.6,3.4,12.9,5.1c0.3,0.1,0.6,0,0.8-0.3c2.3-3.9,4.4-7.9,6.6-11.8c3.4-6.2,6.9-12.5,9.6-19.1
				C73.1,87.7,73.6,83,71.8,78.4c-0.2-0.4-1.2-0.2-1,0.3c1.6,4.4,1.3,8.8-0.4,13.1c-1.2,2.9-2.6,5.8-4,8.6
				c-3.1,6.2-6.5,12.3-9.9,18.3c-0.8,1.4-1.6,2.8-2.4,4.2c0.3-0.1,0.5-0.2,0.8-0.3c-8.7-3.4-17.4-6.8-26.1-10.4
				c-5.5-2.3-11.4-4.6-14.8-9.8c-4.4-6.7-2.7-16.3,3.7-21.1c3.7-2.8,8.6-3.6,13-2.4c4.2,1.2,7.8,4.1,9.8,8c0.2,0.4,1,0,1-0.4
				c-1.1-5.9,1.1-12.1,6-15.6c5.2-3.8,12.2-3.9,17.4-0.2c2.7,1.9,4.8,4.7,6,7.8C71,79.1,72,78.8,71.8,78.4z"/>
		</g>
	</g>
	<g class="st6">
		<path class="st7" d="M119.3,104.7c1.5-4.4-0.2-9.7-5.2-11.5c-4.3-1.6-9,0.3-11.1,4.3c1-4.3-1.4-8.8-5.7-10.4
			c-3.8-1.4-7.9,0-10.3,3.3c-2.7,3.7-1.9,7.7,0,11.5c1.8,3.5,9,16.4,9,16.4s16.3-6.2,19.8-8.7C117.5,108.2,118.7,106.5,119.3,104.7z
			"/>
		<path class="st8" d="M118,103.8c1.5-4.4-0.2-9.7-5.2-11.5c-4.3-1.6-9,0.3-11.1,4.3c1-4.3-1.4-8.8-5.7-10.4
			c-3.8-1.4-7.9,0-10.3,3.3c-2.7,3.7-1.9,7.7,0,11.5c1.8,3.5,9,16.4,9,16.4s16.3-6.2,19.8-8.7C116.3,107.4,117.4,105.7,118,103.8z"
			/>
		<path class="st11" d="M118,103.8c1-3.3,0.4-7-2.5-9.3c-4.6-3.7-9.9-0.9-13.8,2.3c1.4-6.2-4.9-12.3-11-9.1
			c-2.3,1.2-3.8,3.6-4.2,6.1c-0.7,4.2,2,8,3.7,11.7c1.6,3.3,3.1,6.5,4.6,9.8c0,0.1,0.6,1.4,0.7,1.4c0,0,15.6-5.5,19.1-8
			C116.2,107.4,117.4,105.7,118,103.8z"/>
		<g class="st10">
			<path class="st3" d="M118.6,103.7c1.4-4.5-0.4-9.5-4.8-11.5c-4.6-2.1-10.1-0.1-12.5,4.3c0.3,0,0.7,0,1,0
				c0.9-4.3-1.3-8.7-5.4-10.5c-4.2-1.9-9.2-0.2-11.8,3.5c-2.7,4-1.5,8.5,0.6,12.4c1.5,2.9,3.2,5.8,4.8,8.7c1.3,2.3,2.5,4.5,3.8,6.8
				c0.1,0.2,0.5,0.1,0.7,0.1c2.5-0.9,5-1.9,7.4-2.9c3.8-1.5,7.6-3,11.2-5C115.9,108.2,117.6,106.3,118.6,103.7c0.2-0.4-0.8-0.4-1,0
				c-0.8,2.3-2.4,4.1-4.5,5.3c-1.6,0.9-3.3,1.6-4.9,2.4c-3.6,1.6-7.3,3.1-11,4.6c-0.9,0.3-1.7,0.7-2.6,1c0.2,0,0.5,0,0.7,0.1
				c-2.4-4.3-4.8-8.6-7.2-12.9c-1.6-2.9-3.5-6-3.6-9.5c-0.1-4.9,4.3-9.3,9.2-8.8c5.2,0.5,8.5,5.6,7.5,10.6c-0.1,0.5,0.8,0.3,1,0
				c2.3-4.3,7.7-5.8,11.9-3.2c3.5,2.2,4.6,6.6,3.4,10.5C117.4,104.2,118.4,104.1,118.6,103.7z"/>
		</g>
	</g>
	<path class="st12" d="M141.4,137.6c-1.3-1.1-2.9-1.7-4.6-1.8l0,0c-1.2-0.1-2.4,0.1-3.5,0.5c-1.1,0.4-2.2,1-3,1.9
		c-1.8,1.7-2.8,4-3,6.5c-0.2,2.6,0.6,5,2.5,7.6c1.6,2.1,3.8,4.3,6.3,6.8l0,0c0.1,0.1,0.2,0.2,0.3,0.3c0.8,0.8,1.6,1.6,2.5,2.5
		c0.4,0.4,0.9,0.7,1.4,0.8l3.9-6.2l-4.3-5.6c-0.3-0.5-0.3-1.1,0.1-1.5l5-5.6L141.4,137.6z M144,161.3c0.7-0.6,1.4-1.1,2.1-1.6
		c2.9-2.1,5.4-4,7.2-5.9c2.2-2.3,3.3-4.6,3.5-7.2c0.2-2.5-0.5-4.9-2-6.8c-0.7-0.9-1.7-1.7-2.7-2.3c-1.1-0.6-2.2-0.9-3.4-1l-0.1,0
		c-1.5-0.1-3,0.2-4.4,0.9l3.5,5.7c0.3,0.4,0.2,1-0.1,1.4l-5,5.6l4.2,5.5c0.3,0.4,0.3,0.9,0.1,1.4L144,161.3z"/>
	<path class="st13" d="M140.7,136.8c-1.3-1.1-2.9-1.7-4.6-1.8l0,0c-1.2-0.1-2.4,0.1-3.5,0.5c-1.1,0.4-2.2,1-3,1.9
		c-1.8,1.7-2.8,4-3,6.5c-0.2,2.6,0.6,5,2.5,7.6c1.6,2.1,3.8,4.3,6.3,6.8l0,0c0.1,0.1,0.2,0.2,0.3,0.3c0.8,0.8,1.6,1.6,2.5,2.5
		c0.4,0.4,0.9,0.7,1.4,0.8l3.9-6.2l-4.3-5.6c-0.3-0.5-0.3-1.1,0.1-1.5l5-5.6L140.7,136.8z M143.3,160.5c0.7-0.6,1.4-1.1,2.1-1.6
		c2.9-2.1,5.4-4,7.2-5.9c2.2-2.3,3.3-4.6,3.5-7.2c0.2-2.5-0.5-4.9-2-6.8c-0.7-0.9-1.7-1.7-2.7-2.3c-1.1-0.6-2.2-0.9-3.4-1l-0.1,0
		c-1.5-0.1-3,0.2-4.4,0.9l3.5,5.7c0.3,0.4,0.2,1-0.1,1.4l-5,5.6l4.2,5.5c0.3,0.4,0.3,0.9,0.1,1.4L143.3,160.5z"/>
	<g>
		<rect x="78.7" y="151.9" class="st5" width="73.6" height="50.3"/>
		<path class="st0" d="M152.3,153c-2.4,3.5-5.1,8.2-6.8,11.3c-1,1.8-3,3-5,3l-61.8,0.1v34.9h73.6V153z"/>
		<g>
			<polygon class="st2" points="170.3,144.9 152.3,151.9 152.3,202.2 170.3,195.4 			"/>
			<path class="st5" d="M170.3,161.6l-6,2.4c-2.1,0.8-4.4,0.2-5.7-1.6l-6.3-8.4v48.2l18-6.8V161.6z"/>
			<g>
				<path class="st3" d="M151.9,153.9c0,5.2,0,10.4,0,15.6c0,8.3,0,16.6,0,24.9c0,1.9,0,3.8,0,5.7c0,0.4,0.8,0.9,0.8,0.3
					c0-5.2,0-10.4,0-15.6c0-8.3,0-16.6,0-24.9c0-1.9,0-3.8,0-5.7C152.7,153.8,151.9,153.3,151.9,153.9L151.9,153.9z"/>
			</g>
		</g>
		<g>
			<path class="st3" d="M78.4,152.1c3.8,0,7.6,0,11.4,0c8.4,0,16.8,0,25.2,0c8.4,0,16.8,0,25.3,0c2.8,0,5.6,0,8.4,0
				c1.1,0,2.2,0.1,3.3,0c0.8-0.1,1.5-0.5,2.2-0.7c1.7-0.7,3.5-1.3,5.2-2c3.6-1.4,7.1-2.8,10.7-4.1c0.2-0.1,0.4-0.2,0.7-0.3
				c0.4-0.2-0.6,0-0.8,0c-2.7,1.1-5.4,2.1-8.1,3.2c-3.2,1.2-6.5,2.3-9.7,3.8c-0.6,0.3,0.6,0,0.5-0.1c-0.1,0-0.3,0-0.4,0
				c-0.6,0-1.3,0-1.9,0c-2.5,0-5,0-7.5,0c-8.1,0-16.3,0-24.4,0c-8.5,0-17,0-25.4,0c-4.5,0-9.1-0.1-13.6,0c-0.1,0-0.1,0-0.2,0
				C78.9,151.8,77.9,152.1,78.4,152.1L78.4,152.1z"/>
		</g>
		<g>
			<path class="st3" d="M169.8,160.6c0,10.2,0,20.4,0,30.6c0,1.4,0,2.8,0,4.3c0.1-0.2,0.3-0.3,0.4-0.5c-2.7,1-5.4,2-8.1,3
				c-2,0.8-4.1,1.5-6.1,2.3c-1.1,0.4-2.5,0.7-3.6,1.3c-0.4,0.2,0.1,0,0,0c-0.1,0-0.3,0-0.4,0c-0.6,0-1.3,0-1.9,0c-2.5,0-5.1,0-7.6,0
				c-8.1,0-16.2,0-24.2,0c-8.5,0-17,0-25.5,0c-3,0-6.1,0-9.1,0c-1,0-1.9,0-2.9,0c-0.4,0-1.1-0.1-1.6,0c-0.1,0-0.1,0-0.2,0
				c0.1,0.1,0.2,0.2,0.3,0.4c0-4.1,0-8.3,0-12.4c0-6.6,0-13.1,0-19.7c0-1.5,0-3.1,0-4.6c0-0.6-1-0.4-1,0.1c0,4.1,0,8.3,0,12.4
				c0,6.6,0,13.1,0,19.7c0,1.5,0,3.1,0,4.6c0,0.2,0.1,0.4,0.3,0.4c3.8,0,7.5,0,11.3,0c8.3,0,16.6,0,24.9,0c8.4,0,16.8,0,25.2,0
				c2.9,0,5.7,0,8.6,0c1.2,0,2.4,0.1,3.6,0c0.6-0.1,1.2-0.4,1.8-0.6c1.7-0.6,3.4-1.3,5.1-1.9c3.6-1.3,7.2-2.7,10.8-4
				c0.2-0.1,0.4-0.2,0.7-0.2c0.2-0.1,0.4-0.3,0.4-0.5c0-10.2,0-20.4,0-30.6c0-1.4,0-2.8,0-4.3C170.8,159.8,169.8,160.1,169.8,160.6
				L169.8,160.6z"/>
		</g>
		<g>
			<path class="st5" d="M152.3,151.9H78.7L69,163.1c-0.3,0.3-0.1,0.8,0.4,0.8h72.2c0.1,0,0.3-0.1,0.4-0.2L152.3,151.9z"/>
			<path class="st0" d="M152.3,151.9H79.4c-1.1,2.2-2.2,4.4-3.4,6.5c-0.7,1.3-0.9,3.4,1.3,3.4h62.5c1.2,0,2.3-0.5,3.2-1.3
				L152.3,151.9z"/>
			<g>
				<path class="st3" d="M152.6,151.8c-3.5,0-7.1,0-10.6,0c-7.9,0-15.9,0-23.8,0c-8.3,0-16.5,0-24.8,0c-4.6,0-9.2,0-13.9,0
					c-0.4,0-0.9,0-1.2,0.2c-0.2,0.2-0.5,0.5-0.7,0.8c-0.5,0.6-1,1.2-1.5,1.8c-2.4,2.8-4.8,5.6-7.2,8.3c-0.5,0.5-0.5,1.2,0.4,1.2
					c0.4,0,0.9,0,1.3,0c2.2,0,4.3,0,6.5,0c7.6,0,15.2,0,22.7,0c8.4,0,16.8,0,25.3,0c5.2,0,10.3,0,15.5,0c0.3,0,0.6,0,0.9,0
					c1.1-0.1,1.4-0.6,2-1.3c2.5-2.9,5.1-5.9,7.6-8.8c0.6-0.7,1.2-1.4,1.9-2.2c0,0-0.8-0.1-1,0.1c-2.4,2.8-4.8,5.5-7.2,8.3
					c-0.7,0.8-1.3,1.5-2,2.3c-0.2,0.2-1,0.9-1,1.2c0,0.1,0.7,0,0.3,0c-0.2,0-0.4,0-0.6,0c-6.2,0-12.4,0-18.6,0c-9.7,0-19.5,0-29.2,0
					c-7.1,0-14.3,0-21.4,0c-0.6,0-1.4,0.1-2,0c-1-0.2-0.2-1,0.2-1.5c2.8-3.2,5.5-6.4,8.3-9.6c0.2-0.3,0.5-0.6,0.7-0.8
					c-0.3,0.1-0.6,0.1-0.8,0.2c2.4,0,4.9,0,7.3,0c5.9,0,11.7,0,17.6,0c7.1,0,14.2,0,21.3,0c6.1,0,12.2,0,18.3,0c3,0,6,0.1,9,0
					c0,0,0.1,0,0.1,0C152.1,152.1,153.1,151.8,152.6,151.8z"/>
			</g>
		</g>
		<g>
			<path class="st5" d="M170.3,144.9l-18,7l10.1,9.7c0.2,0.2,0.5,0.3,0.8,0.2l16.4-6.1c0.5-0.2,0.7-0.9,0.3-1.3L170.3,144.9z"/>
			<path class="st0" d="M169.7,145.1l-17.2,6.9l9,9.1c0.2,0.2,0.5,0.3,0.7,0.2c2.3-0.9,4.5-1.8,6.8-2.7c1.4-0.5,2.7-1.1,4.1-1.6
				c1.3-0.5,3.2-1.2,3.1-3c-0.1-0.8-0.6-1.5-1.2-2.1C174.5,151.3,170,145.4,169.7,145.1z"/>
			<g>
				<path class="st3" d="M170.1,144.5c-5.3,2-10.5,4.1-15.8,6.1c-0.8,0.3-1.5,0.6-2.3,0.9c-0.3,0.1-0.4,0.4-0.2,0.6
					c2.5,2.4,5,4.9,7.5,7.3c0.8,0.8,1.6,1.8,2.6,2.5c1,0.7,2.3-0.1,3.2-0.4c3.9-1.5,7.9-3,11.8-4.4c0.9-0.3,2-0.6,2.9-1.1
					c1.7-0.9-0.1-2.2-0.8-3c-2.8-2.8-5.6-5.5-8.4-8.3c-0.4-0.4-1.3,0-0.8,0.4c2.3,2.3,4.6,4.5,6.8,6.8c0.6,0.6,1.2,1.2,1.8,1.8
					c0.2,0.2,0.7,0.5,0.9,0.8c0.5,0.9-1.8,1.3-2.3,1.6c-3.7,1.4-7.5,2.8-11.2,4.2c-0.7,0.3-1.4,0.5-2,0.8c-0.2,0.1-0.7,0.3-0.9,0.3
					c-0.3,0-0.5-0.3-0.8-0.5c-0.5-0.5-1.1-1-1.6-1.6c-2.6-2.6-5.3-5.1-7.9-7.7c-0.1,0.2-0.1,0.4-0.2,0.6c5.3-2,10.5-4.1,15.8-6.1
					c0.8-0.3,1.5-0.6,2.3-0.9C171.2,145,170.6,144.3,170.1,144.5z"/>
			</g>
		</g>
		<g>
			<g>
				<path class="st3" d="M146.6,165.3c0,2.8,0,5.7,0,8.5c0,0.3,0.9-0.1,0.9-0.4c0-2.8,0-5.7,0-8.5
					C147.5,164.5,146.6,165,146.6,165.3L146.6,165.3z"/>
			</g>
			<g>
				<path class="st3" d="M146.7,175.2c0,0.4,0,0.9,0,1.3c0,0.3,0.1,0.5,0.4,0.6c0.1,0.1,0.4,0.1,0.4-0.1c0-0.4,0-0.9,0-1.3
					c0-0.3-0.1-0.5-0.4-0.6C147,175,146.7,174.9,146.7,175.2L146.7,175.2z"/>
			</g>
			<g>
				<path class="st3" d="M146.6,178.3c0,1.2,0,2.3,0,3.5c0,0.5,1,0.7,1,0.1c0-1.2,0-2.3,0-3.5C147.6,177.9,146.6,177.7,146.6,178.3
					L146.6,178.3z"/>
			</g>
		</g>
		<g>
			<rect x="89.8" y="175.6" class="st14" width="21.4" height="16.9"/>
			<g>
				<path class="st3" d="M110.2,191.1c-6.3,0-12.5,0-18.8,0c-0.9,0-1.8,0-2.6,0c0.2,0.1,0.3,0.2,0.5,0.3c0-5.5,0-11.1,0-16.6
					c-0.2,0.1-0.4,0.3-0.6,0.4c6.3,0,12.5,0,18.8,0c0.9,0,1.8,0,2.6,0c-0.2-0.1-0.3-0.2-0.5-0.3c0,5.5,0,11.1,0,16.6
					c0,0.5,1,0.4,1-0.1c0-5.5,0-11.1,0-16.6c0-0.3-0.2-0.3-0.5-0.3c-6.3,0-12.5,0-18.8,0c-0.9,0-1.8,0-2.6,0c-0.2,0-0.6,0.2-0.6,0.4
					c0,5.5,0,11.1,0,16.6c0,0.3,0.2,0.3,0.5,0.3c6.3,0,12.5,0,18.8,0c0.9,0,1.8,0,2.6,0C110.7,191.9,110.9,191.1,110.2,191.1z"/>
			</g>
			<g>
				<g>
					<path class="st3" d="M123.2,185.3c4.6,0,9.2,0,13.8,0c0.3,0,1.1-0.5,0.4-0.5c-4.6,0-9.2,0-13.8,0
						C123.3,184.9,122.6,185.3,123.2,185.3L123.2,185.3z"/>
				</g>
				<g>
					<path class="st3" d="M123.2,182.3c4.6,0,9.2,0,13.8,0c0.3,0,1.1-0.5,0.4-0.5c-4.6,0-9.2,0-13.8,0
						C123.3,181.7,122.6,182.3,123.2,182.3L123.2,182.3z"/>
				</g>
				<g>
					<path class="st3" d="M123.2,179.2c4.6,0,9.2,0,13.8,0c0.4,0,1.1-0.6,0.4-0.6c-4.6,0-9.2,0-13.8,0
						C123.2,178.6,122.6,179.2,123.2,179.2L123.2,179.2z"/>
				</g>
				<g>
					<g>
						<path class="st3" d="M123.2,187.7c1,0,2,0,3.1,0c0.3,0,1.1-0.5,0.4-0.5c-1,0-2,0-3.1,0C123.3,187.2,122.6,187.7,123.2,187.7
							L123.2,187.7z"/>
					</g>
					<g>
						<path class="st3" d="M128.5,187.6c1,0,2,0,3.1,0c0.2,0,0.6,0,0.7-0.2c0.1-0.1,0.2-0.2-0.1-0.2c-1,0-2,0-3.1,0
							c-0.2,0-0.6,0-0.7,0.2C128.3,187.5,128.2,187.6,128.5,187.6L128.5,187.6z"/>
					</g>
					<g>
						<path class="st3" d="M134,187.7c1,0,2,0,3.1,0c0.2,0,0.6-0.1,0.7-0.3c0.1-0.2-0.1-0.3-0.3-0.3c-1,0-2,0-3.1,0
							c-0.2,0-0.6,0.1-0.7,0.3C133.7,187.6,133.8,187.7,134,187.7L134,187.7z"/>
					</g>
				</g>
			</g>
			<g>
				<path class="st0" d="M107.6,180.7c-0.1-2.1-1.6-4-3.9-4c-2,0-3.7,1.5-3.9,3.4c-0.3-1.9-1.9-3.5-3.9-3.5c-1.8,0-3.3,1.2-3.8,2.9
					c-0.6,1.9,0.4,3.5,1.7,4.8c1.3,1.2,6.2,5.4,6.2,5.4s5.8-5,6.9-6.6C107.4,182.4,107.6,181.5,107.6,180.7z"/>
				<g>
					<path class="st3" d="M108.1,180.5c-0.1-2.4-2-4.2-4.4-4.1c-2.2,0.1-4.1,1.6-4.5,3.8c0.3-0.1,0.7-0.1,1-0.2
						c-0.4-2.5-2.9-4-5.4-3.4c-2.4,0.6-4.1,3.1-3.3,5.5c0.7,2,2.7,3.4,4.2,4.7c1.2,1.1,2.5,2.1,3.7,3.2c0.2,0.2,0.7,0,0.9-0.1
						c1.3-1.2,2.6-2.3,3.9-3.5C106,184.7,108,183.1,108.1,180.5c0-0.2-1-0.1-1,0.3c0,2.5-2.3,4.3-4,5.8c-1.1,1.1-2.3,2.1-3.5,3.1
						c0.3,0,0.6-0.1,0.9-0.1c-2-1.7-4.1-3.5-6-5.3c-1.8-1.6-2.9-4.1-1.1-6.3c2.1-2.5,5.5-0.5,5.9,2.2c0,0.3,1,0,1-0.2
						c0.3-2,2.2-3.7,4.3-2.9c1.6,0.5,2.4,2.1,2.5,3.7C107.1,181.1,108.1,180.9,108.1,180.5z"/>
				</g>
			</g>
		</g>
	</g>
</g>
<g id="Ebene_3">
	<path class="st12" d="M94.1,81.2c-3.4-1.1-7-1.1-10.3,0l-0.1,0c-2.4,0.8-4.5,2-6.4,3.7c-1.9,1.7-3.3,3.7-4.4,5.9
		c-2.1,4.7-2.3,9.9-0.7,14.7c1.7,5.2,5,9.2,10.6,12.8c4.7,2.9,10.6,5.4,17.4,8.2l0.1,0c0.3,0.1,0.6,0.2,0.9,0.4
		c2.1,0.9,4.3,1.8,6.7,2.8c1.1,0.5,2.3,0.6,3.4,0.4l2.8-14.9l-12.5-7.5c-1-0.6-1.4-1.8-1-2.9l5.3-14.7L94.1,81.2z M117.3,124.7
		c1-1.6,2-3.2,2.8-4.6c3.9-6.3,7.3-11.8,9.3-16.9c2.4-6.1,2.8-11.4,1.1-16.5c-1.5-4.9-4.8-9-9.2-11.6c-2.2-1.2-4.6-2-7-2.2
		c-2.5-0.2-5,0-7.3,0.8l-0.1,0c-3,1-5.7,2.8-7.7,5.2l11.1,8.4c0.9,0.6,1.2,1.8,0.8,2.8l-5.3,14.5l12.3,7.3c0.9,0.5,1.3,1.5,1.2,2.6
		L117.3,124.7z"/>
	<path class="st13" d="M91.6,80.8c-3.4-1.1-7-1.1-10.3,0l-0.1,0c-2.4,0.8-4.5,2-6.4,3.7c-1.9,1.7-3.3,3.7-4.4,5.9
		c-2.1,4.7-2.3,9.9-0.7,14.7c1.7,5.2,5,9.2,10.6,12.8c4.7,2.9,10.6,5.4,17.4,8.2l0.1,0c0.3,0.1,0.6,0.2,0.9,0.4
		c2.1,0.9,4.3,1.8,6.7,2.8c1.1,0.5,2.3,0.6,3.4,0.4l2.8-14.9l-12.5-7.5c-1-0.6-1.4-1.8-1-2.9l5.3-14.7L91.6,80.8z M114.8,124.3
		c1-1.6,2-3.2,2.8-4.6c3.9-6.3,7.3-11.8,9.3-16.9c2.4-6.1,2.8-11.4,1.1-16.5c-1.5-4.9-4.8-9-9.2-11.6c-2.2-1.2-4.6-2-7-2.2
		c-2.5-0.2-5,0-7.3,0.8l-0.1,0c-3,1-5.7,2.8-7.7,5.2l11.1,8.4c0.9,0.6,1.2,1.8,0.8,2.8l-5.3,14.5l12.3,7.3c0.9,0.5,1.3,1.5,1.2,2.6
		L114.8,124.3z"/>
	<path class="st12" d="M162.8,97.3c-1-1.6-2.4-2.8-4.1-3.5l0,0c-1.2-0.5-2.5-0.7-3.8-0.7c-1.3,0-2.6,0.3-3.7,0.9
		c-2.4,1.2-4.3,3.2-5.2,5.6c-1.1,2.6-1.1,5.4-0.1,8.6c0.9,2.7,2.4,5.7,4.2,9.1l0,0c0.1,0.1,0.2,0.3,0.2,0.4c0.5,1,1.1,2.2,1.7,3.4
		c0.3,0.5,0.7,1,1.2,1.3l6.1-5l-2.5-7.2c-0.2-0.6,0-1.2,0.6-1.5l7.1-4.1L162.8,97.3z M157.4,122.5c0.9-0.3,1.9-0.6,2.7-0.9
		c3.7-1.2,6.9-2.3,9.4-3.6c3-1.6,4.9-3.6,6-6.2c1-2.4,1.1-5.2,0.2-7.7c-0.4-1.2-1.1-2.3-2-3.3c-0.9-0.9-2-1.7-3.2-2.1l-0.1,0
		c-1.5-0.6-3.2-0.8-4.8-0.5l1.6,7.1c0.1,0.5-0.1,1.1-0.6,1.4l-7,4l2.4,7c0.2,0.5,0,1.1-0.4,1.4L157.4,122.5z"/>
	<path class="st13" d="M163.6,95.9c-1-1.6-2.4-2.8-4.1-3.5l0,0c-1.2-0.5-2.5-0.7-3.8-0.7c-1.3,0-2.6,0.3-3.7,0.9
		c-2.4,1.2-4.3,3.2-5.2,5.6c-1.1,2.6-1.1,5.4-0.1,8.6c0.9,2.7,2.4,5.7,4.2,9.1l0,0c0.1,0.1,0.2,0.3,0.2,0.4c0.5,1,1.1,2.2,1.7,3.4
		c0.3,0.5,0.7,1,1.2,1.3l6.1-5l-2.5-7.2c-0.2-0.6,0-1.2,0.6-1.5l7.1-4.1L163.6,95.9z M158.2,121c0.9-0.3,1.9-0.6,2.7-0.9
		c3.7-1.2,6.9-2.3,9.4-3.6c3-1.6,4.9-3.6,6-6.2c1-2.4,1.1-5.2,0.2-7.7c-0.4-1.2-1.1-2.3-2-3.3c-0.9-0.9-2-1.7-3.2-2.1l-0.1,0
		c-1.5-0.6-3.2-0.8-4.8-0.5l1.6,7.1c0.1,0.5-0.1,1.1-0.6,1.4l-7,4l2.4,7c0.2,0.5,0,1.1-0.4,1.4L158.2,121z"/>
	<path class="st12" d="M149.5,60.4c-0.5-0.8-1.2-1.4-2.1-1.8l0,0c-0.6-0.2-1.3-0.4-1.9-0.4c-0.7,0-1.3,0.2-1.9,0.5
		c-1.2,0.6-2.2,1.6-2.7,2.9c-0.5,1.3-0.6,2.7,0,4.4c0.4,1.4,1.2,2.9,2.1,4.6l0,0c0,0.1,0.1,0.2,0.1,0.2c0.3,0.5,0.6,1.1,0.9,1.7
		c0.1,0.3,0.4,0.5,0.6,0.7l3.1-2.5l-1.3-3.7c-0.1-0.3,0-0.6,0.3-0.8l3.6-2.1L149.5,60.4z M146.8,73.2c0.5-0.2,0.9-0.3,1.4-0.4
		c1.9-0.6,3.5-1.1,4.8-1.8c1.5-0.8,2.5-1.8,3-3.2c0.5-1.2,0.6-2.6,0.1-3.9c-0.2-0.6-0.6-1.2-1-1.7c-0.5-0.5-1-0.8-1.6-1.1l0,0
		c-0.8-0.3-1.6-0.4-2.4-0.3l0.8,3.6c0.1,0.3-0.1,0.6-0.3,0.7l-3.5,2l1.2,3.6c0.1,0.3,0,0.5-0.2,0.7L146.8,73.2z"/>
	<path class="st13" d="M150.1,59.9c-0.5-0.8-1.2-1.4-2.1-1.8l0,0c-0.6-0.2-1.3-0.4-1.9-0.4c-0.7,0-1.3,0.2-1.9,0.5
		c-1.2,0.6-2.2,1.6-2.7,2.9c-0.5,1.3-0.6,2.7,0,4.4c0.4,1.4,1.2,2.9,2.1,4.6l0,0c0,0.1,0.1,0.2,0.1,0.2c0.3,0.5,0.6,1.1,0.9,1.7
		c0.1,0.3,0.4,0.5,0.6,0.7l3.1-2.5l-1.3-3.7c-0.1-0.3,0-0.6,0.3-0.8l3.6-2.1L150.1,59.9z M147.4,72.7c0.5-0.2,0.9-0.3,1.4-0.4
		c1.9-0.6,3.5-1.1,4.8-1.8c1.5-0.8,2.5-1.8,3-3.2c0.5-1.2,0.6-2.6,0.1-3.9c-0.2-0.6-0.6-1.2-1-1.7c-0.5-0.5-1-0.8-1.6-1.1l0,0
		c-0.8-0.3-1.6-0.4-2.4-0.3l0.8,3.6c0.1,0.3-0.1,0.6-0.3,0.7l-3.5,2l1.2,3.6c0.1,0.3,0,0.5-0.2,0.7L147.4,72.7z"/>
</g>
</svg>
