<svg width="136" height="136" viewBox="0 0 136 136" fill="none" xmlns="http://www.w3.org/2000/svg">
<path d="M37.7385 121.31C35.091 120.738 3.28103 115.581 5.62478 77.5502C7.96853 39.5189 10.906 28.0814 23.2735 23.8964C35.641 19.7114 65.6998 -0.0873122 89.2898 18.7389C95.4148 23.6264 101.654 28.3552 107.615 33.4702C115.805 40.5002 124.227 48.6164 128.25 59.2502C130.146 64.2702 130.857 69.6602 130.329 75.0002C129.712 81.2764 128.845 87.3752 127.265 93.5002C126.727 95.5835 126.189 97.6669 125.651 99.7502C125.329 101 125.004 102.258 124.495 103.435C121.224 111.023 117.097 116.001 110.184 120.041C104.184 123.541 96.7485 123.455 90.121 123.069C63.7673 121.533 50.3273 124.033 37.7385 121.31Z" fill="#F9F9F9"/>
<path d="M13.7115 98.796C12.0165 98.466 11.3928 98.0698 12.2115 97.5935C17.8815 94.281 43.309 94.236 55.644 94.1685C71.159 94.0848 87.3028 93.906 101.269 94.6248C107.114 94.9248 120.362 95.156 122.628 96.2498C128.569 99.1248 86.2903 100.174 79.449 100.25C68.0415 100.387 23.3915 100.681 13.7115 98.796Z" fill="#E3E3E3"/>
<path d="M115.537 97.125H16.8962C15.5981 97.1236 14.3535 96.6074 13.4355 95.6894C12.5176 94.7715 12.0013 93.5269 12 92.2287V91.935C12 91.8587 12.0303 91.7856 12.0842 91.7317C12.1381 91.6777 12.2113 91.6475 12.2875 91.6475H120.152C120.229 91.6475 120.302 91.6777 120.356 91.7317C120.41 91.7856 120.44 91.8587 120.44 91.935V92.2225C120.438 93.5222 119.921 94.7682 119.002 95.6872C118.083 96.6063 116.837 97.1233 115.537 97.125Z" fill="#E3E3E3"/>
<path d="M111.074 92.735V38.2925C111.074 37.3062 110.299 36.5 109.351 36.5H23.1624C22.2149 36.5 21.4399 37.3062 21.4399 38.2925V92.735H111.074Z" fill="#E3E3E3"/>
<path d="M112.547 91.6086V39.2699C112.546 38.8134 112.364 38.3761 112.041 38.0533C111.719 37.7306 111.281 37.5487 110.825 37.5474H24.6361C24.1796 37.5487 23.7423 37.7306 23.4195 38.0533C23.0968 38.3761 22.9149 38.8134 22.9136 39.2699V91.6086H112.547Z" fill="white"/>
<path d="M112.85 91.5274V40.4424C112.85 40.0262 112.868 39.6062 112.85 39.1924C112.796 37.9424 111.768 37.4162 110.664 37.4162H26.4689C24.9627 37.4162 22.6952 37.2074 22.6127 39.3574C22.5514 40.9374 22.6127 42.5324 22.6127 44.1074V91.6887C22.6127 91.7499 22.7577 91.7424 22.7864 91.7424H108.786C109.946 91.7424 111.114 91.7787 112.274 91.7424H112.421C112.603 91.7424 113.076 91.4737 112.671 91.4737H26.6714C25.5352 91.4737 24.3177 91.3487 23.1852 91.4737C23.1356 91.4762 23.086 91.4762 23.0364 91.4737L23.2114 91.5274V40.7049C23.2114 40.2049 23.1914 39.7049 23.2114 39.2124C23.2427 38.4224 23.7114 37.7587 24.5389 37.6824C24.6502 37.6724 24.7689 37.6824 24.8802 37.6824H108.816C110.183 37.6824 112.178 37.3724 112.246 39.3837C112.304 41.0824 112.246 42.7937 112.246 44.4949V91.6887C112.25 91.8099 112.85 91.7174 112.85 91.5274Z" fill="#6A79A8"/>
<path d="M117.047 97.125H18.4075C17.1093 97.1236 15.8647 96.6074 14.9468 95.6894C14.0288 94.7715 13.5126 93.5269 13.5112 92.2287V91.935C13.5112 91.8587 13.5415 91.7856 13.5954 91.7317C13.6494 91.6777 13.7225 91.6475 13.7987 91.6475H121.664C121.74 91.6478 121.812 91.6781 121.866 91.7317C121.919 91.7853 121.95 91.8579 121.95 91.9337V92.2212C121.949 93.5212 121.432 94.7678 120.513 95.6871C119.594 96.6065 118.348 97.1236 117.047 97.125V97.125Z" fill="white"/>
<path d="M117.205 96.9188H19.2166C18.6229 96.9188 18.0454 96.9288 17.4666 96.7788C16.5726 96.5375 15.767 96.0437 15.1463 95.3565C14.5256 94.6693 14.116 93.8177 13.9666 92.9038C13.9429 92.7613 13.9929 91.9588 13.9041 91.8801C13.8954 91.8726 13.6041 91.8801 13.6541 91.8588C13.6754 91.8476 13.7279 91.8588 13.7516 91.8588C15.0266 91.7976 16.3204 91.8588 17.5966 91.8588H120.294C120.567 91.8588 121.19 91.7338 121.442 91.8588C121.824 92.0451 121.442 93.3838 121.344 93.7163C120.782 95.5501 119.14 96.8876 117.205 96.9226C116.933 96.9226 116.367 97.3451 116.892 97.3351C118.544 97.3063 120.142 96.6188 121.205 95.3263C121.747 94.6643 122.113 93.8755 122.267 93.0338C122.352 92.5563 122.58 91.5676 121.908 91.4513C121.636 91.4274 121.363 91.4253 121.092 91.4451H15.3191C14.8979 91.4451 14.4729 91.4276 14.0516 91.4451C13.7266 91.4588 13.3129 91.5201 13.1591 91.8476C13.0554 92.0713 13.1154 92.4551 13.1316 92.6876C13.1631 93.1394 13.2577 93.5846 13.4129 94.0101C13.7029 94.8019 14.1868 95.5085 14.8204 96.0651C16.4454 97.4876 18.4066 97.3351 20.3804 97.3351H116.892C117.167 97.3313 117.732 96.9188 117.205 96.9188Z" fill="#6A79A8"/>
<path d="M54.9653 91.7302C55.3303 93.4214 56.9178 93.3277 58.2553 93.3277H76.7115C78.199 93.3277 80.0865 93.5377 80.5002 91.6264C80.534 91.4714 80.3252 91.4302 80.2227 91.4302H55.294C54.9515 91.4302 54.8303 91.8689 55.2403 91.8689H80.1677L79.889 91.6727C79.5627 93.1852 77.9265 92.8902 76.764 92.8902H59.204C57.9078 92.8902 55.9365 93.2652 55.569 91.5689C55.509 91.2927 54.904 91.4489 54.9653 91.7302Z" fill="#6A79A8"/>
<path d="M107.624 41.7075H26.3267V89.1288H107.624V41.7075Z" fill="white"/>
<path d="M107.648 41.4714H29.6802C28.6202 41.4714 27.5414 41.4127 26.4827 41.4714H26.349C26.224 41.4714 26.0202 41.5789 26.0202 41.7214V87.2052C26.0202 87.8027 25.9352 88.4702 26.0202 89.0639C26.0202 89.0914 26.0202 89.1202 26.0202 89.1477C26.0202 89.3077 26.1639 89.3639 26.3039 89.3639H104.27C105.33 89.3639 106.409 89.4239 107.468 89.3639H107.601C107.726 89.3639 107.931 89.2564 107.931 89.1139V43.6314C107.931 43.0339 108.015 42.3652 107.931 41.7727C107.929 41.7444 107.929 41.716 107.931 41.6877C107.931 41.3577 107.318 41.4377 107.318 41.7264V88.4302C107.318 88.6002 107.258 88.9027 107.318 89.0639C107.321 89.0917 107.321 89.1199 107.318 89.1477L107.648 88.8977H27.5777C27.2427 88.8977 26.8114 88.8239 26.4827 88.8977C26.4383 88.9027 26.3934 88.9027 26.349 88.8977L26.634 89.1139V42.4064C26.634 42.2364 26.694 41.9327 26.634 41.7727C26.6289 41.7446 26.6289 41.7158 26.634 41.6877L26.3039 41.9377H104.27C105.33 41.9377 106.409 41.9977 107.468 41.9377H107.601C107.956 41.9427 108.056 41.4714 107.648 41.4714Z" fill="#6A79A8"/>
<path d="M107.624 41.7021H26.3652V46.4184H107.624V41.7021Z" fill="#EFEFEF"/>
<path d="M107.75 46.2773H27.7177C27.369 46.2773 26.9677 46.2223 26.624 46.2773C26.5794 46.2798 26.5348 46.2798 26.4902 46.2773L26.6665 46.3373V41.6248L26.239 41.8473H106.27C106.619 41.8473 107.02 41.9023 107.364 41.8473C107.408 41.8436 107.453 41.8436 107.498 41.8473L107.321 41.7873V46.4998C107.321 46.6323 107.925 46.5361 107.925 46.3386V41.6248C107.925 41.5611 107.781 41.5648 107.749 41.5648H36.5002C33.2177 41.5648 29.9065 41.4398 26.6252 41.5648H26.4915C26.3765 41.5648 26.064 41.6298 26.064 41.7873V46.4998C26.064 46.5636 26.209 46.5598 26.2402 46.5598H97.4902C100.774 46.5598 104.08 46.6723 107.365 46.5598H107.5C107.686 46.5586 108.15 46.2773 107.75 46.2773Z" fill="#6A79A8"/>
<path d="M30.2067 45.1538C30.8135 45.1538 31.3054 44.6641 31.3054 44.0601C31.3054 43.456 30.8135 42.9663 30.2067 42.9663C29.5998 42.9663 29.1079 43.456 29.1079 44.0601C29.1079 44.6641 29.5998 45.1538 30.2067 45.1538Z" fill="white"/>
<path d="M31.6067 43.9801C31.5167 42.3089 28.8129 42.5376 28.8067 44.1214C28.7992 45.8114 31.5217 45.5851 31.6054 44.0201C31.6179 43.7889 31.0142 43.9114 31.0042 44.1014C30.9792 44.5601 30.6954 45.0751 30.1567 44.9764C29.7129 44.8914 29.4167 44.4339 29.4154 44.0051C29.4154 43.5051 29.7979 43.0051 30.3367 43.1826C30.7604 43.3226 30.9804 43.7214 31.0029 44.1464C31.0129 44.3201 31.6254 44.2014 31.6067 43.9801Z" fill="#6A79A8"/>
<path d="M33.5016 45.1538C34.1084 45.1538 34.6004 44.6641 34.6004 44.0601C34.6004 43.456 34.1084 42.9663 33.5016 42.9663C32.8948 42.9663 32.4028 43.456 32.4028 44.0601C32.4028 44.6641 32.8948 45.1538 33.5016 45.1538Z" fill="white"/>
<path d="M34.9028 43.9799C34.8116 42.2975 32.1028 42.5125 32.1016 44.1187C32.1016 45.8199 34.8166 45.6124 34.9028 44.0249C34.9166 43.7687 34.3091 43.8837 34.2978 44.0962C34.2741 44.5474 33.9803 45.0687 33.4491 44.9587C33.2366 44.9053 33.0483 44.782 32.9145 44.6085C32.7807 44.435 32.7092 44.2215 32.7116 44.0024C32.7116 43.5024 33.1028 43.0225 33.6353 43.1887C34.0591 43.3212 34.2753 43.7199 34.2991 44.1412C34.3103 44.3462 34.9153 44.2212 34.9028 43.9799Z" fill="#6A79A8"/>
<path d="M36.798 45.1538C37.4048 45.1538 37.8967 44.6641 37.8967 44.0601C37.8967 43.456 37.4048 42.9663 36.798 42.9663C36.1911 42.9663 35.6992 43.456 35.6992 44.0601C35.6992 44.6641 36.1911 45.1538 36.798 45.1538Z" fill="white"/>
<path d="M38.198 43.9797C38.1092 42.3297 35.4042 42.6172 35.398 44.141C35.3905 45.8072 38.1167 45.4835 38.198 43.9797C38.198 43.9072 37.6042 43.9722 37.5942 44.141C37.5655 44.6822 37.1742 45.231 36.5792 44.9297C36.4049 44.8398 36.2587 44.7035 36.1568 44.5359C36.055 44.3683 36.0013 44.1759 36.0017 43.9797C36.0017 43.4672 36.4092 42.9185 36.9667 43.1647C37.1522 43.2522 37.3092 43.3902 37.4197 43.5629C37.5303 43.7356 37.5899 43.9359 37.5917 44.141C37.5992 44.2322 38.2067 44.136 38.198 43.9797Z" fill="#6A79A8"/>
<path d="M90.5903 60.4888H64.4578C60.0202 60.4888 56.4229 64.0862 56.4229 68.5238V68.525C56.4229 72.9626 60.0202 76.56 64.4578 76.56H90.5903C95.0279 76.56 98.6253 72.9626 98.6253 68.525V68.5238C98.6253 64.0862 95.0279 60.4888 90.5903 60.4888Z" fill="#EFEFEF"/>
<path d="M65.125 60.4888H91.125C93.1141 60.4888 95.0218 61.2789 96.4283 62.6855C97.8348 64.092 98.625 65.9996 98.625 67.9888V67.9888C98.625 69.9779 97.8348 71.8856 96.4283 73.2921C95.0218 74.6986 93.1141 75.4888 91.125 75.4888H65.125C63.1359 75.4888 61.2282 74.6986 59.8217 73.2921C58.4152 71.8856 57.625 69.9779 57.625 67.9888V67.9888C57.625 65.9996 58.4152 64.092 59.8217 62.6855C61.2282 61.2789 63.1359 60.4888 65.125 60.4888V60.4888Z" fill="white"/>
<path d="M90.705 76.3811H67.1487C64.9075 76.3811 62.7262 76.5148 60.6887 75.3398C59.46 74.6328 58.4438 73.6085 57.7466 72.3742C57.0494 71.1398 56.6967 69.7408 56.7254 68.3234C56.7542 66.9061 57.1633 65.5225 57.91 64.3175C58.6567 63.1124 59.7136 62.1302 60.97 61.4735C61.3275 61.2835 60.7975 61.1723 60.595 61.281C58.37 62.461 56.7275 64.581 56.2612 67.0723C56.0456 68.2375 56.0854 69.4356 56.3778 70.5839C56.6703 71.7322 57.2083 72.8034 57.955 73.7236C58.6766 74.5992 59.5705 75.3174 60.5811 75.8334C61.5916 76.3495 62.6975 76.6524 63.83 76.7236C64.4075 76.7611 64.9925 76.7398 65.5712 76.7398H90.4737C90.7087 76.7398 91.1125 76.3848 90.705 76.3848V76.3811Z" fill="#6A79A8"/>
<path d="M62.4165 60.9836C64.3977 60.4836 66.6815 60.7211 68.7065 60.7211H90.4352C92.3594 60.7034 94.2226 61.3962 95.6678 62.6667C97.113 63.9373 98.0388 65.6963 98.2677 67.607C98.4967 69.5176 98.0128 71.4456 96.9087 73.0217C95.8046 74.5977 94.1579 75.7111 92.284 76.1486C91.909 76.2373 92.024 76.6736 92.4015 76.5861C97.4815 75.3973 100.414 69.7398 98.1352 64.9611C97.5976 63.8459 96.8179 62.8648 95.853 62.0891C94.8881 61.3134 93.7624 60.7628 92.5577 60.4773C91.6302 60.2598 90.7027 60.2573 89.7615 60.2573H65.7615C64.5877 60.2573 63.459 60.2573 62.3015 60.5486C61.9265 60.6448 62.0427 61.0811 62.419 60.9848L62.4165 60.9836Z" fill="#6A79A8"/>
<path d="M66.1514 64.8038V72.3038C66.1514 72.5901 66.7589 72.4801 66.7589 72.2438V64.7501C66.7589 64.4638 66.1514 64.5738 66.1514 64.8101V64.8038Z" fill="#6A79A8"/>
<path d="M63.5272 66.0079L68.8309 71.3116C69.0297 71.5104 69.5997 71.2579 69.3822 71.0404L64.0785 65.7379C63.8797 65.5379 63.3097 65.7904 63.5272 66.0079Z" fill="#6A79A8"/>
<path d="M62.5911 68.7078H70.0912C70.3349 68.7078 70.7262 68.3403 70.3187 68.3403H62.8186C62.5761 68.3403 62.1849 68.7078 62.5911 68.7078Z" fill="#6A79A8"/>
<path d="M64.0773 71.1574L69.3811 65.8537C69.5136 65.7212 68.9411 65.7824 68.8324 65.8912L63.5286 71.1936C63.3961 71.3261 63.9686 71.2661 64.0773 71.1574Z" fill="#6A79A8"/>
<path d="M77.25 64.8114V72.3114C77.25 72.5614 77.8537 72.4364 77.8537 72.2364V64.7364C77.8537 64.4864 77.25 64.6114 77.25 64.8114Z" fill="#6A79A8"/>
<path d="M74.6246 66.0078L79.9284 71.3116C80.1271 71.5103 80.6971 71.2591 80.4796 71.0403L75.1771 65.7379C74.9783 65.5379 74.4083 65.7904 74.6258 66.0078H74.6246Z" fill="#6A79A8"/>
<path d="M73.7801 68.7561H81.2801C81.6326 68.7561 81.7363 68.2925 81.3276 68.2925H73.8276C73.4751 68.2925 73.3751 68.7561 73.7801 68.7561Z" fill="#6A79A8"/>
<path d="M75.1766 71.1563L80.4803 65.8526C80.6053 65.7276 80.0391 65.7838 79.9316 65.8913L74.6253 71.1951C74.5003 71.3263 75.0666 71.2638 75.1741 71.1563H75.1766Z" fill="#6A79A8"/>
<path d="M88.29 64.8548V72.3548C88.29 72.4498 88.8938 72.3648 88.8938 72.1923V64.6923C88.8938 64.5985 88.29 64.6823 88.29 64.8548Z" fill="#6A79A8"/>
<path d="M85.6551 65.9712L90.9588 71.2749C91.06 71.3762 91.6025 71.1499 91.53 71.0762L86.2263 65.7737C86.1251 65.6712 85.5826 65.8987 85.6551 65.9712Z" fill="#6A79A8"/>
<path d="M84.6489 68.6551H92.1489C92.2877 68.6551 92.8352 68.3926 92.5364 68.3926H85.0364C84.8977 68.3926 84.3502 68.6551 84.6489 68.6551Z" fill="#6A79A8"/>
<path d="M86.2188 71.1691L91.5214 65.8666C91.6776 65.7103 91.0876 65.7578 90.9664 65.8791L85.6638 71.1816C85.5076 71.3379 86.0976 71.2916 86.2188 71.1691Z" fill="#6A79A8"/>
<path d="M44.1437 56.0813C42.2444 56.0813 40.4229 56.8358 39.0799 58.1788C37.7369 59.5218 36.9824 61.3433 36.9824 63.2426V63.2426V67.6101H39.0487V63.2963C39.0485 62.6272 39.1801 61.9647 39.436 61.3465C39.6919 60.7282 40.0671 60.1665 40.5401 59.6933C41.0131 59.22 41.5746 58.8446 42.1927 58.5884C42.8108 58.3322 43.4733 58.2002 44.1424 58.2001V58.2001C45.4937 58.2001 46.7896 58.7369 47.7451 59.6924C48.7006 60.6479 49.2374 61.9438 49.2374 63.2951V64.0588C49.2381 64.1604 49.2787 64.2576 49.3505 64.3295C49.4224 64.4013 49.5196 64.4419 49.6212 64.4426H50.9199C50.9703 64.4427 51.0203 64.4329 51.067 64.4137C51.1136 64.3945 51.156 64.3662 51.1916 64.3305C51.2273 64.2949 51.2556 64.2525 51.2748 64.2059C51.294 64.1592 51.3038 64.1093 51.3037 64.0588V64.0588V63.2413C51.3037 61.342 50.5492 59.5206 49.2062 58.1776C47.8632 56.8346 46.0417 56.0801 44.1424 56.0801L44.1437 56.0813Z" fill="#EFEFEF"/>
<path d="M44.1434 56.0815C40.9059 56.0815 37.8584 59.2878 37.8584 63.2428V67.6103H39.0484V63.2965C39.0482 62.6275 39.1799 61.9649 39.4358 61.3467C39.6916 60.7285 40.0668 60.1667 40.5398 59.6935C41.0128 59.2202 41.5744 58.8448 42.1925 58.5886C42.8106 58.3324 43.4731 58.2005 44.1421 58.2003H43.7671C48.0296 57.9378 50.1134 60.4815 50.1134 63.2965V64.0603C50.1134 64.1618 50.1536 64.2593 50.2253 64.3312C50.297 64.4031 50.3943 64.4437 50.4959 64.444H50.9196C50.9701 64.4442 51.0201 64.4344 51.0667 64.4152C51.1133 64.3959 51.1557 64.3677 51.1914 64.332C51.227 64.2963 51.2553 64.254 51.2745 64.2073C51.2937 64.1607 51.3035 64.1107 51.3034 64.0603V64.0603V63.2428C51.3034 61.3435 50.5489 59.522 49.2059 58.179C47.8629 56.836 46.0414 56.0815 44.1421 56.0815H44.1434Z" fill="white"/>
<path d="M39.3536 65.2851C39.3536 64.1526 39.2286 62.9326 39.5586 61.8338C40.1399 59.8676 41.9711 58.4213 44.0361 58.4063C46.0674 58.3926 47.9324 59.7263 48.6274 61.6251C48.8999 62.3751 48.9349 63.1251 48.9349 63.9063C48.9349 64.4613 49.1736 64.6563 49.7136 64.6563C50.1549 64.6563 50.7736 64.7688 51.1974 64.6013C51.7411 64.3876 51.6124 63.7701 51.6099 63.2988C51.6212 61.5619 51.0237 59.876 49.9211 58.5338C47.6536 55.8176 43.6561 55.1201 40.5649 56.8088C38.8727 57.7325 37.6007 59.2717 37.0124 61.1076C36.5824 62.4701 36.6786 63.9026 36.6786 65.3113C36.6786 65.6101 37.2874 65.5088 37.2874 65.2576C37.2874 64.2176 37.2136 63.1413 37.3736 62.1113C37.6599 60.2937 38.6534 58.663 40.1374 57.5751C43.2236 55.3338 47.6111 56.2001 49.7624 59.3076C50.2825 60.0624 50.6498 60.9117 50.8436 61.8076C50.9999 62.5251 50.9486 63.2238 51.0036 63.9438C51.0036 63.9438 51.0361 64.2151 51.0424 64.2013C51.0111 64.2751 51.0661 64.2013 50.9174 64.2463C50.6586 64.3113 50.3061 64.2463 50.0424 64.2463C49.7549 64.2463 49.6099 64.2738 49.5549 63.9601C49.5386 63.7329 49.5386 63.5048 49.5549 63.2776C49.5061 59.8338 46.2524 57.3576 42.9124 58.1526C42.035 58.3642 41.2236 58.7896 40.5505 59.3909C39.8775 59.9922 39.3636 60.7507 39.0549 61.5988C38.6349 62.7913 38.7549 64.0988 38.7549 65.3488C38.7549 65.6476 39.3649 65.5451 39.3649 65.2938L39.3536 65.2851Z" fill="#6A79A8"/>
<path d="M46.7561 78.4664H41.5323C39.9571 78.4664 38.4465 77.8408 37.3325 76.7271C36.2186 75.6134 35.5926 74.1028 35.5923 72.5277V67.1839C35.5926 66.8927 35.7085 66.6136 35.9145 66.4078C36.1206 66.202 36.3998 66.0864 36.691 66.0864H51.5973C51.8884 66.0864 52.1675 66.2021 52.3734 66.4079C52.5792 66.6137 52.6948 66.8928 52.6948 67.1839V67.1839V72.5277C52.6948 74.1027 52.0691 75.6133 50.9554 76.727C49.8417 77.8407 48.3311 78.4664 46.7561 78.4664V78.4664Z" fill="#F7E080"/>
<path d="M46.7562 77.7501H42.9224C41.3473 77.7501 39.8366 77.1245 38.7227 76.0108C37.6087 74.8971 36.9828 73.3865 36.9824 71.8114V67.1864C36.9828 66.8952 37.0987 66.616 37.3047 66.4102C37.5107 66.2045 37.79 66.0889 38.0812 66.0889H51.5974C51.8885 66.0889 52.1677 66.2045 52.3735 66.4103C52.5793 66.6161 52.6949 66.8953 52.6949 67.1864V67.1864V71.8114C52.6949 73.3864 52.0692 74.897 50.9555 76.0107C49.8418 77.1244 48.3312 77.7501 46.7562 77.7501Z" fill="#FFEEA7"/>
<path d="M51.401 75.8462C50.4947 77.1437 49.1422 78.0537 47.556 78.2599C46.9247 78.3424 46.266 78.3024 45.6297 78.3024C44.116 78.3024 42.5335 78.4387 41.026 78.2687C38.3085 77.9612 36.151 75.6762 35.9172 72.9674C35.7922 71.5024 35.8947 69.9937 35.8947 68.5249C35.8947 68.0049 35.7835 67.3349 35.941 66.8262C36.1322 66.2012 36.6185 66.2487 37.1135 66.2487H50.9097C51.4747 66.2487 52.0585 66.2124 52.3185 66.8737C52.5347 67.4224 52.3935 68.2249 52.3935 68.7974C52.3935 70.7712 52.6747 73.0374 51.9172 74.9012C51.8447 75.0787 52.4422 75.0112 52.5197 74.8199C53.2497 73.0424 52.9997 70.9274 52.9997 69.0437C52.9997 68.4037 53.0372 67.7512 52.9997 67.1124C52.9522 66.3337 52.3472 65.9399 51.6247 65.9224C48.3585 65.8487 45.081 65.9224 41.8135 65.9224H37.3135C36.9072 65.9224 36.506 65.9024 36.1222 66.0737C35.386 66.4012 35.3022 67.0412 35.3022 67.7437C35.3022 69.3574 35.2847 70.9712 35.3022 72.5837C35.3126 73.8666 35.7274 75.1135 36.4875 76.147C37.2477 77.1804 38.3144 77.9478 39.536 78.3399C41.1847 78.8587 43.1247 78.6249 44.8322 78.6249C45.4372 78.6249 46.0422 78.6324 46.6472 78.6249C48.0401 78.6194 49.3958 78.1755 50.5222 77.3562C51.0867 76.9355 51.5783 76.425 51.9772 75.8449C52.1272 75.6299 51.5247 75.6874 51.4172 75.8449L51.401 75.8462Z" fill="#6A79A8"/>
<path d="M45.6412 75.3028H42.6475L43.3612 71.8841C43.1434 71.761 42.9624 71.582 42.8369 71.3655C42.7115 71.1491 42.6461 70.903 42.6475 70.6528C42.6475 70.2882 42.7924 69.9384 43.0502 69.6806C43.3081 69.4227 43.6578 69.2778 44.0225 69.2778C44.3872 69.2778 44.7369 69.4227 44.9948 69.6806C45.2526 69.9384 45.3975 70.2882 45.3975 70.6528C45.3975 71.1841 45.1087 71.6453 44.9237 71.8841L45.6412 75.3028Z" fill="white"/>
<path d="M43.5948 71.7102C43.0498 71.3615 42.7748 70.6777 43.0748 70.069C43.1508 69.9087 43.2672 69.7711 43.4126 69.6695C43.558 69.5679 43.7273 69.5059 43.9039 69.4896C44.0805 69.4734 44.2583 69.5033 44.4198 69.5767C44.5812 69.65 44.7208 69.7641 44.8248 69.9077C45.2311 70.429 45.1223 71.1015 44.7936 71.6315C44.6436 71.874 44.6248 71.8815 44.6623 72.1315C44.8298 73.2227 45.1173 74.3077 45.3436 75.3815L45.6723 75.0827H42.6723L42.9511 75.2777C43.1244 74.4494 43.2978 73.6211 43.4711 72.7927C43.5323 72.4977 42.9148 72.5727 42.8598 72.839C42.6865 73.6673 42.5132 74.4961 42.3398 75.3252C42.3073 75.479 42.5148 75.5202 42.6186 75.5202H45.6186C45.7636 75.5202 45.9836 75.3952 45.9473 75.2202C45.7873 74.4502 45.6265 73.6806 45.4648 72.9115C45.4023 72.6115 45.2148 72.1615 45.2436 71.8515C45.3273 71.7661 45.3973 71.6683 45.4511 71.5615C45.6236 71.2516 45.7099 70.9011 45.7011 70.5465C45.6511 69.3377 44.3261 68.7052 43.2848 69.2152C43.0229 69.3411 42.7995 69.5349 42.6379 69.7764C42.4763 70.018 42.3824 70.2985 42.3661 70.5886C42.3497 70.8788 42.4115 71.168 42.545 71.4262C42.6784 71.6844 42.8787 71.902 43.1248 72.0565C43.3461 72.199 43.8748 71.894 43.5911 71.7102H43.5948Z" fill="#6A79A8"/>
</svg>
