<svg xmlns="http://www.w3.org/2000/svg" width="136" height="136" fill="none" viewBox="0 0 136 136"><path fill="#F9F9F9" d="M37.739 121.31c-2.648-.572-34.458-5.729-32.114-43.76 2.344-38.031 5.281-49.469 17.649-53.654C35.64 19.711 65.7-.087 89.29 18.74c6.125 4.887 12.364 9.616 18.325 14.731 8.19 7.03 16.612 15.146 20.635 25.78A34.866 34.866 0 0 1 130.329 75c-.617 6.276-1.484 12.381-3.064 18.5l-1.614 6.25c-.322 1.25-.647 2.508-1.156 3.685-3.271 7.588-7.398 12.566-14.311 16.606-6 3.5-13.435 3.414-20.063 3.028-26.354-1.536-39.794.964-52.382-1.759"/><path fill="#E3E3E3" d="M13.711 98.797c-1.695-.33-2.319-.727-1.5-1.203 5.67-3.312 31.098-3.357 43.433-3.425 15.515-.084 31.658-.263 45.625.456 5.845.3 19.092.531 21.358 1.625 5.942 2.875-36.337 3.924-43.178 4-11.408.138-56.058.432-65.738-1.454"/><path fill="#E3E3E3" d="M115.54 97.125H16.9a4.901 4.901 0 0 1-4.897-4.896v-.294a.287.287 0 0 1 .287-.288h107.865a.288.288 0 0 1 .288.288v.287a4.91 4.91 0 0 1-4.903 4.903"/><path fill="#E3E3E3" d="M111.074 92.735V38.293c0-.987-.775-1.793-1.723-1.793H23.162c-.947 0-1.722.806-1.722 1.792v54.443z"/><path fill="#fff" d="M112.547 91.612v-52.34a1.725 1.725 0 0 0-1.722-1.722H24.636a1.727 1.727 0 0 0-1.722 1.723v52.339z"/><path fill="#6A79A8" d="M112.85 91.528V40.442c0-.416.017-.836 0-1.25-.054-1.25-1.083-1.776-2.187-1.776H26.468c-1.506 0-3.773-.209-3.856 1.941-.061 1.58 0 3.175 0 4.75V91.69c0 .061.145.054.174.054h86c1.16 0 2.327.036 3.487 0h.148c.181 0 .655-.27.25-.27h-86c-1.136 0-2.354-.124-3.486 0-.05.003-.1.003-.15 0l.176.055V40.705c0-.5-.02-1 0-1.493.031-.79.5-1.453 1.327-1.53.112-.01.23 0 .342 0h83.936c1.366 0 3.361-.31 3.43 1.702.057 1.698 0 3.41 0 5.11V91.69c.004.121.604.029.604-.161"/><path fill="#fff" d="M117.047 97.125h-98.64a4.901 4.901 0 0 1-4.896-4.896v-.294a.287.287 0 0 1 .288-.288h107.865a.29.29 0 0 1 .203.085.31.31 0 0 1 .062.093.295.295 0 0 1 .021.11v.287a4.906 4.906 0 0 1-4.903 4.903"/><path fill="#6A79A8" d="M117.205 96.919H19.216c-.594 0-1.171.01-1.75-.14a4.817 4.817 0 0 1-3.5-3.875c-.024-.143.026-.945-.062-1.024-.01-.007-.3 0-.25-.021.02-.011.073 0 .097 0 1.275-.061 2.569 0 3.845 0h102.698c.272 0 .896-.125 1.147 0 .383.186 0 1.525-.097 1.857-.563 1.834-2.204 3.172-4.139 3.207-.273 0-.839.422-.314.412 1.653-.029 3.25-.716 4.314-2.009a5.054 5.054 0 0 0 1.061-2.292c.085-.478.314-1.466-.359-1.583a5.087 5.087 0 0 0-.816-.006H15.319c-.422 0-.847-.017-1.268 0-.325.014-.739.075-.892.403-.104.223-.044.607-.028.84.032.451.126.897.281 1.322.29.792.774 1.498 1.408 2.055 1.625 1.423 3.586 1.27 5.56 1.27h96.511c.275-.004.84-.416.314-.416"/><path fill="#6A79A8" d="M54.965 91.73c.365 1.691 1.952 1.598 3.29 1.598H76.71c1.487 0 3.375.21 3.789-1.702.034-.155-.175-.196-.278-.196H55.294c-.343 0-.464.439-.054.439h24.927l-.279-.196c-.326 1.512-1.962 1.217-3.125 1.217h-17.56c-1.296 0-3.267.375-3.635-1.321-.06-.276-.664-.12-.603.161"/><path fill="#fff" d="M107.624 41.707H26.326v47.421h81.298z"/><path fill="#6A79A8" d="M107.647 41.47H29.68c-1.06 0-2.139-.058-3.198 0h-.133c-.125 0-.33.108-.33.25v45.485c0 .597-.084 1.265 0 1.858a.617.617 0 0 1 0 .084c0 .16.145.216.285.216h77.966c1.06 0 2.138.06 3.197 0h.134c.125 0 .33-.107.33-.25V43.631c0-.598.084-1.266 0-1.859a.603.603 0 0 1 0-.085c0-.33-.614-.25-.614.039V88.43c0 .17-.06.472 0 .633a.294.294 0 0 1 0 .084l.33-.25h-80.07c-.335 0-.766-.074-1.095 0a.679.679 0 0 1-.133 0l.285.216V42.406c0-.17.06-.474 0-.634a.275.275 0 0 1 0-.085l-.33.25h77.966c1.06 0 2.138.06 3.197 0h.134c.355.005.455-.466.046-.466"/><path fill="#EFEFEF" d="M107.623 41.703H26.365v4.716h81.258z"/><path fill="#6A79A8" d="M107.75 46.277H27.717c-.348 0-.75-.055-1.093 0a.934.934 0 0 1-.134 0l.176.06v-4.712l-.428.222h80.032c.348 0 .75.055 1.093 0a.81.81 0 0 1 .134 0l-.176-.06V46.5c0 .132.604.036.604-.161v-4.714c0-.064-.144-.06-.177-.06H36.5c-3.283 0-6.594-.125-9.875 0h-.134c-.115 0-.427.065-.427.222V46.5c0 .064.145.06.176.06h71.25c3.283 0 6.59.112 9.875 0h.133c.188-.001.652-.283.252-.283"/><path fill="#fff" d="M30.206 45.154c.607 0 1.099-.49 1.099-1.094 0-.604-.492-1.094-1.099-1.094s-1.099.49-1.099 1.094c0 .604.492 1.094 1.1 1.094"/><path fill="#6A79A8" d="M31.606 43.98c-.09-1.671-2.794-1.442-2.8.141-.008 1.69 2.715 1.464 2.798-.1.013-.232-.59-.11-.6.08-.026.46-.31.974-.848.875-.444-.085-.74-.542-.742-.97 0-.5.383-1 .922-.823.423.14.643.538.666.963.01.174.622.055.604-.166"/><path fill="#fff" d="M33.501 45.154c.607 0 1.099-.49 1.099-1.094 0-.604-.492-1.094-1.099-1.094s-1.099.49-1.099 1.094c0 .604.492 1.094 1.1 1.094"/><path fill="#6A79A8" d="M34.902 43.98c-.09-1.682-2.8-1.467-2.8.139 0 1.701 2.714 1.493 2.8-.094.014-.256-.593-.141-.605.071-.023.452-.317.973-.848.863a.976.976 0 0 1-.738-.957c0-.5.391-.98.924-.813.424.132.64.531.664.952.01.205.616.08.603-.161"/><path fill="#fff" d="M36.798 45.154c.606 0 1.098-.49 1.098-1.094 0-.604-.492-1.094-1.099-1.094-.606 0-1.098.49-1.098 1.094 0 .604.492 1.094 1.099 1.094"/><path fill="#6A79A8" d="M38.198 43.98c-.09-1.65-2.794-1.363-2.8.161-.008 1.666 2.718 1.343 2.8-.161 0-.073-.594-.008-.604.161-.029.541-.42 1.09-1.015.789a1.066 1.066 0 0 1-.578-.95c0-.513.408-1.061.965-.815a1.09 1.09 0 0 1 .625.976c.008.091.615-.005.606-.161"/><path fill="#EFEFEF" d="M83.232 83.823H50.877v2.334h32.355z"/><path fill="#fff" d="M60.048 85.074h13.65c.208 0 .647-.314.242-.314H60.29c-.209 0-.646.314-.242.314"/><path fill="#F9F9F9" d="M47.315 83.026h39.31c.317 0 .411-.417.043-.417h-39.31c-.318 0-.412.417-.043.417"/><path fill="#EFEFEF" d="M102.68 52.007H82.926V62.32h19.995V52.007z"/><path fill="#fff" d="M100.47 59.337H85.508c-.196 0-.65.294-.25.294h14.964c.195 0 .65-.294.25-.294zm-.095-2.395h-6.298c-.345 0-.463.443-.053.443h6.295c.345 0 .463-.443.053-.443zm-8.769-.003H85.41c-.348 0-.46.45-.052.45h6.197c.347 0 .46-.45.05-.45m.075-2.324h-6.296c-.352 0-.457.463-.048.463h6.296c.351 0 .456-.463.047-.463"/><path fill="#EFEFEF" d="M102.68 68.5H82.926v10.313h19.995V68.5zm-51.62 0H31.067v10.311H51.06z"/><path fill="#fff" d="M46.733 75.658H35.5c-.222 0-.643.335-.237.335H46.5c.222 0 .642-.335.237-.335zm-.145-2.208H35.492c-.27 0-.625.409-.217.409h11.1c.27 0 .625-.409.217-.409zm.136-2.319H35.449c-.272 0-.625.412-.217.412h11.275c.27 0 .625-.412.217-.412"/><path fill="#EFEFEF" d="M51.06 51.976H31.067v10.311H51.06z"/><path fill="#fff" d="M46.81 59.179H35.579c-.125 0-.682.25-.39.25h11.23c.125 0 .684-.25.393-.25m-.215-2.22H35.5c-.228 0-.64.344-.234.344h11.096c.229 0 .642-.344.235-.344m.144-2.287H35.466c-.189 0-.654.282-.25.282h11.275c.188 0 .653-.282.25-.282"/><path fill="#EFEFEF" d="M79.49 52.101H54.498v4.519H79.49z"/><path fill="#EF8F7F" d="M76.924 59.906H57.065a2.255 2.255 0 0 0-2.255 2.255v12.985a2.255 2.255 0 0 0 2.255 2.255h19.859a2.255 2.255 0 0 0 2.255-2.255V62.161a2.255 2.255 0 0 0-2.255-2.255"/><path fill="#F9AB98" d="M75.801 61.264H58.186c-1.05 0-1.902.851-1.902 1.902v10.976c0 1.051.852 1.903 1.902 1.903h17.615c1.05 0 1.903-.852 1.903-1.903V63.166c0-1.05-.852-1.902-1.903-1.902"/><path fill="#6A79A8" d="M77.117 59.777h-19.5c-1.212 0-2.48.383-2.956 1.625-.31.815-.151 1.922-.151 2.77v9.793c0 1.125-.11 2.307.916 3.082.739.557 1.615.478 2.479.478h17.97c.875 0 1.74.031 2.515-.478 1.112-.73 1.096-1.86 1.096-3.02V64.3c0-.86.136-1.863-.055-2.714-.244-1.092-1.225-1.77-2.307-1.809-.14 0-.69.25-.39.26 1.228.044 2.108 1.005 2.148 2.212.01.25 0 .5 0 .757v4.125c0 2.666.03 5.335 0 8-.01.976-.586 2.025-1.656 2.138a5.324 5.324 0 0 1-.536 0H63.94c-2.193 0-4.386.023-6.579 0-1.419-.017-2.241-1.107-2.25-2.444V62.586c0-1.204.416-2.491 1.861-2.55.768-.03 1.542 0 2.31 0H76.73c.137 0 .686-.259.388-.259"/><path fill="#fff" d="M62.657 69.5a1.604 1.604 0 0 1-.141.619 2.286 2.286 0 0 1-1.216 1.176c-.349.14-.721.208-1.097.2a3.785 3.785 0 0 1-.862-.09 2.435 2.435 0 0 1-.706-.28 2.375 2.375 0 0 1-.583-.5 2.973 2.973 0 0 1-.405-.631 3.356 3.356 0 0 1-.25-.75 4.048 4.048 0 0 1-.084-.843 3.75 3.75 0 0 1 .21-1.296c.13-.365.335-.699.602-.98a2.61 2.61 0 0 1 .92-.625c.357-.143.74-.215 1.125-.212.449-.009.893.09 1.296.29.346.164.646.41.875.717.183.231.29.513.304.808a.529.529 0 0 1-.145.372.465.465 0 0 1-.357.16.5.5 0 0 1-.35-.11 1.538 1.538 0 0 1-.258-.381 1.849 1.849 0 0 0-.56-.666 1.36 1.36 0 0 0-.79-.22 1.431 1.431 0 0 0-1.192.567c-.295.378-.443.917-.443 1.616a2.99 2.99 0 0 0 .196 1.163c.109.283.303.526.556.694.252.156.545.235.841.228.316.01.627-.08.887-.26.255-.192.445-.458.545-.762.042-.139.107-.269.192-.386a.433.433 0 0 1 .369-.15.514.514 0 0 1 .488.326.5.5 0 0 1 .033.206m1.013 1.312v-4.841a.759.759 0 0 1 .15-.508.5.5 0 0 1 .403-.17.53.53 0 0 1 .41.168.735.735 0 0 1 .154.51v4.841a.722.722 0 0 1-.157.509.526.526 0 0 1-.407.17.5.5 0 0 1-.398-.176.739.739 0 0 1-.154-.503m2.829-4.378a.591.591 0 0 1-.4-.143.56.56 0 0 1 0-.796.576.576 0 0 1 .396-.153.588.588 0 0 1 .385.14.5.5 0 0 1 .167.404.512.512 0 0 1-.164.403.562.562 0 0 1-.385.145m.552 1.153v3.227a.722.722 0 0 1-.16.507.531.531 0 0 1-.405.171.498.498 0 0 1-.399-.176.75.75 0 0 1-.152-.5v-3.19a.719.719 0 0 1 .152-.5.511.511 0 0 1 .399-.167.53.53 0 0 1 .405.167.65.65 0 0 1 .165.461zm5.162 2.522a.962.962 0 0 1-.125.446 1.525 1.525 0 0 1-.375.451c-.19.155-.409.273-.643.347a2.726 2.726 0 0 1-.875.125c-.69 0-1.23-.201-1.617-.603-.387-.402-.58-.94-.579-1.612-.008-.42.084-.837.267-1.215a1.9 1.9 0 0 1 .768-.815 2.607 2.607 0 0 1 2-.162c.222.073.429.184.613.327.154.117.284.262.385.427a.844.844 0 0 1 .133.424.445.445 0 0 1-.15.339.514.514 0 0 1-.362.138.375.375 0 0 1-.231-.07 1.102 1.102 0 0 1-.206-.232 1.68 1.68 0 0 0-.428-.465 1.049 1.049 0 0 0-1.364.23c-.201.257-.302.61-.302 1.057-.002.196.024.39.078.58.045.162.122.315.224.45a1.001 1.001 0 0 0 .814.377 1.04 1.04 0 0 0 .575-.155c.177-.123.322-.285.424-.474.056-.11.13-.21.22-.295a.42.42 0 0 1 .291-.106.43.43 0 0 1 .339.155.5.5 0 0 1 .126.33m3.435.872-.985-1.625-.606.572v.886a.683.683 0 0 1-.169.5.53.53 0 0 1-.39.174.509.509 0 0 1-.406-.171.766.766 0 0 1-.146-.508v-4.756a.951.951 0 0 1 .142-.566.474.474 0 0 1 .41-.194.507.507 0 0 1 .408.175c.111.15.165.334.151.52v2.706l1.25-1.316c.11-.12.228-.233.355-.335a.492.492 0 0 1 .299-.09.483.483 0 0 1 .453.285c.024.057.036.12.034.181 0 .164-.152.375-.455.654l-.592.544 1.145 1.8c.085.134.145.235.182.304a.43.43 0 0 1 .055.198.584.584 0 0 1-.145.42.5.5 0 0 1-.382.153.426.426 0 0 1-.315-.11 2.633 2.633 0 0 1-.293-.401"/><path fill="#79D379" d="m85.388 86.825-5.5-5.5-3.286 3.3a.586.586 0 0 1-1-.414V73.702a.599.599 0 0 1 .599-.599H86.71a.585.585 0 0 1 .413 1l-3.19 3.19 5.494 5.494a.894.894 0 0 1 0 1.268l-2.771 2.77a.894.894 0 0 1-1.268 0"/><path fill="#96E296" d="m85.042 84.83-4.36-4.34a.211.211 0 0 0-.233-.046.213.213 0 0 0-.07.046l-2.74 2.75c-.323.326-1.015-.039-1.022-.5l-.402-8.965a.52.52 0 0 1 .526-.529l9.363.094c.958 0 1.083.446.508 1.021l-2.8 2.814 5.413 5.386-2.386 2.264a1.27 1.27 0 0 1-1.797.005"/><path fill="#6A79A8" d="m85.777 86.816-5.602-5.601c-.119-.125-.418-.034-.522.07l-2.375 2.375-.586.59c-.076.075-.218.291-.323.324-.484.148-.464-.482-.464-.772V76.2c0-.81-.125-1.729 0-2.531.061-.403.174-.398.486-.398h9.25c.29 0 .644-.055.93 0 .944.185.091 1-.207 1.299l-2.672 2.68c-.041.042-.095.109-.038.165l3.75 3.75c.578.58 1.193 1.139 1.743 1.75.694.765-.212 1.359-.75 1.891L87 86.19c-.272.27-.74 1.013-1.227.625-.163-.125-.72.107-.56.235 1 .79 1.86-.358 2.507-1 .696-.695 1.564-1.368 2.146-2.163.582-.795-.43-1.481-.929-1.98-.928-.93-1.858-1.86-2.788-2.789L84.21 77.18l-.04.165 2.675-2.675c.269-.27.739-.607.75-1.022.013-.54-.48-.697-.92-.708-2.73-.065-5.47 0-8.201 0h-1.641c-.284 0-.596-.028-.876.056-.926.282-.662 1.53-.662 2.274v8.568c0 .397-.049.803.365 1.03.565.312 1.074-.088 1.455-.47l3.02-3.022-.521.07 5.601 5.602c.146.15.718-.075.561-.23M49.65 56.935a13.1 13.1 0 0 0 2.38 2.565c.157.125.715-.105.563-.23a13.104 13.104 0 0 1-2.382-2.559c-.11-.155-.695.043-.562.23zm-2.204 4.383a13.26 13.26 0 0 0 3.331 1.057c.151.028.676-.215.492-.25a13.261 13.261 0 0 1-3.33-1.06c-.14-.065-.692.156-.493.25zm7.654-3.103a13.181 13.181 0 0 1-.403-3.425c0-.265-.601-.145-.605.069a13.508 13.508 0 0 0 .408 3.516c.056.224.66.066.602-.162z"/></svg>