<svg xmlns="http://www.w3.org/2000/svg" width="136" height="136" fill="none"><path fill="#F9F9F9" d="M37.739 121.31c-2.648-.572-34.458-5.729-32.114-43.76 2.344-38.031 5.281-49.469 17.649-53.654C35.64 19.711 65.7-.087 89.29 18.74c6.125 4.887 12.364 9.616 18.325 14.731 8.19 7.03 16.612 15.146 20.635 25.78A34.866 34.866 0 0 1 130.329 75c-.617 6.276-1.484 12.375-3.064 18.5l-1.614 6.25c-.322 1.25-.647 2.508-1.156 3.685-3.271 7.588-7.398 12.566-14.311 16.606-6 3.5-13.435 3.414-20.063 3.028-26.354-1.536-39.794.964-52.382-1.759"/><path fill="#fff" d="M17.83 49.9v44.125c0 4.023 3.146 7.285 7.03 7.285h85.076c3.875 0 7.022-3.26 7.022-7.285V49.9c0-4.023-3.143-7.285-7.022-7.285H24.855c-3.88.002-7.025 3.26-7.025 7.285"/><path fill="#6A79A8" d="M117.215 49.9v44.124c0 4.156-3.266 7.541-7.279 7.541H24.855c-4.015 0-7.285-3.382-7.285-7.54V49.898c0-4.156 3.265-7.541 7.285-7.541h85.081c4.013.002 7.279 3.385 7.279 7.541M18.09 94.023c0 3.875 3.036 7.03 6.774 7.03h85.072c3.731 0 6.768-3.152 6.768-7.03V49.9c0-3.875-3.037-7.03-6.768-7.03H24.855c-3.733 0-6.774 3.154-6.774 7.03z"/><path fill="#6A79A8" d="M115.084 68.394v6.916a2.864 2.864 0 0 1-1.707 2.68 2.862 2.862 0 0 1-3.768-1.466 2.878 2.878 0 0 1-.242-1.089v-7.041a2.864 2.864 0 0 1 1.707-2.68 2.862 2.862 0 0 1 3.128.552 2.878 2.878 0 0 1 .882 2.128m-5.209 6.916a2.356 2.356 0 0 0 .648 1.676 2.35 2.35 0 0 0 3.846-.672c.125-.282.192-.586.2-.894v-7.026a2.357 2.357 0 0 0-.649-1.676 2.346 2.346 0 0 0-4.045 1.566v.11z"/><g clip-path="url(#a)"><path fill="#fff" d="m117.208 94.266.459-43.523c.046-4.278-8.57-7.625-19.167-7.47l-61.581.912c-10.021.148-18.054 3.609-18.01 7.725l.396 41.893c.04 4.04 8.043 7.375 17.95 7.446l60.86.465c10.465.081 19.048-3.251 19.093-7.448"/><path fill="#F0F9FC" d="m67.884 43.727 49.539 30.125.244-23.103c.046-4.277-8.57-7.625-19.167-7.468zm12.77 57.854L19.036 65.058l.271 28.74c.04 4.04 8.044 7.375 17.95 7.446zM29.827 44.886l86.307 51.84c.677-.767 1.066-1.595 1.074-2.46l.061-5.652-73.795-44.525-6.55.096a41.353 41.353 0 0 0-7.097.701"/></g><path fill="#6A79A8" d="M107.71 45.868v52.193a.25.25 0 0 1-.25.25H29.78a.25.25 0 0 1-.257-.25V45.868a.251.251 0 0 1 .257-.25h77.673a.252.252 0 0 1 .237.153.25.25 0 0 1 .02.097m-.512 51.937v-51.68H30.035v51.68z"/><path fill="#EFEFEF" d="M92.1 64.165H65.968a8.035 8.035 0 0 0-8.035 8.035v.001a8.035 8.035 0 0 0 8.035 8.035H92.1a8.035 8.035 0 0 0 8.035-8.035V72.2a8.035 8.035 0 0 0-8.035-8.035"/><path fill="#fff" d="M66.635 64.165h26a7.5 7.5 0 0 1 7.5 7.5 7.5 7.5 0 0 1-7.5 7.5h-26a7.5 7.5 0 0 1-7.5-7.5 7.5 7.5 0 0 1 7.5-7.5"/><path fill="#6A79A8" d="M92.215 80.058H68.66c-2.241 0-4.423.133-6.46-1.042a7.912 7.912 0 0 1 .281-13.866c.358-.19-.172-.301-.375-.192-2.23 1.18-3.867 3.3-4.334 5.792a8.2 8.2 0 0 0 1.694 6.651 8.287 8.287 0 0 0 5.875 3c.578.038 1.163.017 1.741.017h24.903c.235 0 .639-.355.231-.355zM63.926 64.66c1.981-.5 4.265-.263 6.29-.263h21.729a7.817 7.817 0 0 1 1.849 15.428c-.375.089-.26.525.117.437 5.08-1.188 8.013-6.846 5.734-11.625a8.325 8.325 0 0 0-5.578-4.483c-.927-.218-1.854-.22-2.796-.22h-24c-1.174 0-2.302 0-3.46.29-.375.097-.258.533.118.437z"/><path fill="#6A79A8" d="M67.661 68.48v7.5c0 .286.608.176.608-.06v-7.5c0-.286-.608-.176-.608.06"/><path fill="#6A79A8" d="m65.037 69.684 5.304 5.303c.199.2.769-.053.552-.27l-5.304-5.303c-.199-.2-.769.052-.552.27"/><path fill="#6A79A8" d="M64.1 72.384h7.5c.25 0 .636-.368.228-.368h-7.5c-.242 0-.633.368-.227.368"/><path fill="#6A79A8" d="m65.588 74.834 5.303-5.304c.133-.133-.44-.071-.548.037l-5.304 5.308c-.133.125.44.067.549-.041m13.172-6.346v7.5c0 .25.604.125.604-.075v-7.5c0-.25-.604-.125-.604.075"/><path fill="#6A79A8" d="m76.135 69.684 5.304 5.303c.199.2.769-.052.551-.27l-5.302-5.303c-.199-.2-.769.052-.551.27z"/><path fill="#6A79A8" d="M75.29 72.433h7.5c.352 0 .456-.464.047-.464h-7.5c-.352 0-.456.464-.047.464"/><path fill="#6A79A8" d="m76.686 74.833 5.304-5.304c.125-.125-.441-.069-.549.039l-5.306 5.307c-.125.125.441.069.549-.039zM89.8 68.531v7.5c0 .095.604.01.604-.162v-7.494c0-.1-.604-.016-.604.156"/><path fill="#6A79A8" d="m87.165 69.647 5.304 5.304c.1.101.643-.125.57-.198l-5.303-5.303c-.101-.103-.644.125-.571.197"/><path fill="#6A79A8" d="M86.159 72.331h7.5c.138 0 .686-.262.387-.262h-7.5c-.139 0-.686.262-.387.262"/><path fill="#6A79A8" d="m87.73 74.845 5.302-5.303c.156-.156-.434-.108-.555.013l-5.303 5.302c-.156.156.434.11.555-.012"/><path fill="#EFEFEF" d="M45.654 59.758a7.161 7.161 0 0 0-7.161 7.16v4.368h2.066v-4.313a5.096 5.096 0 0 1 5.094-5.098 5.097 5.097 0 0 1 5.097 5.096v.764a.385.385 0 0 0 .384.384h1.299a.382.382 0 0 0 .383-.384v-.817a7.161 7.161 0 0 0-7.16-7.162z"/><path fill="#fff" d="M45.654 59.758c-3.237 0-6.285 3.206-6.285 7.16v4.368h1.19v-4.313a5.096 5.096 0 0 1 5.094-5.098h-.375c4.262-.262 6.346 2.281 6.346 5.096v.764a.384.384 0 0 0 .383.384h.423a.382.382 0 0 0 .384-.384v-.817a7.161 7.161 0 0 0-7.161-7.162z"/><path fill="#6A79A8" d="M40.864 68.961c0-1.132-.125-2.352.205-3.45.581-1.967 2.412-3.413 4.477-3.428 2.032-.014 3.897 1.32 4.592 3.218.272.75.307 1.5.307 2.282 0 .555.239.75.779.75.441 0 1.06.112 1.484-.055.543-.214.415-.832.412-1.303a7.416 7.416 0 0 0-1.689-4.765c-2.267-2.716-6.265-3.414-9.356-1.725a7.516 7.516 0 0 0-3.552 4.299c-.43 1.362-.334 2.795-.334 4.204 0 .298.609.197.609-.054 0-1.04-.074-2.116.086-3.146a6.969 6.969 0 0 1 2.764-4.538c3.086-2.241 7.473-1.375 9.625 1.733a7 7 0 0 1 1.08 2.5c.157.717.106 1.416.16 2.136 0 0 .033.271.04.257-.032.074.023.007-.125.045-.26.065-.612 0-.875 0-.288 0-.433.028-.488-.286a4.798 4.798 0 0 1 0-.682c-.049-3.444-3.302-5.92-6.642-5.125a5.472 5.472 0 0 0-3.858 3.446c-.42 1.192-.3 2.5-.3 3.75 0 .299.61.196.61-.055z"/><path fill="#F7E080" d="M48.266 82.143h-5.224a5.94 5.94 0 0 1-5.94-5.939V70.86a1.1 1.1 0 0 1 1.1-1.097h14.906a1.097 1.097 0 0 1 1.097 1.097v5.344a5.938 5.938 0 0 1-5.939 5.939"/><path fill="#FFEEA7" d="M48.266 81.426h-3.833a5.94 5.94 0 0 1-5.94-5.938v-4.625a1.099 1.099 0 0 1 1.098-1.098h13.517a1.098 1.098 0 0 1 1.097 1.098v4.625a5.939 5.939 0 0 1-5.939 5.938"/><path fill="#6A79A8" d="M52.912 79.522c-.907 1.298-2.259 2.208-3.845 2.414-.625.083-1.29.043-1.926.043-1.514 0-3.097.136-4.604-.034-2.718-.308-4.875-2.593-5.109-5.301-.125-1.465-.022-2.974-.022-4.443 0-.52-.112-1.19.046-1.698.191-.626.677-.578 1.172-.578H52.42c.566 0 1.15-.036 1.41.625.215.549.074 1.351.074 1.924 0 1.973.281 4.24-.476 6.103-.072.178.525.11.603-.08.73-1.778.48-3.893.48-5.777 0-.64.037-1.293 0-1.931-.048-.78-.653-1.173-1.376-1.19-3.266-.074-6.543 0-9.81 0h-4.5c-.407 0-.808-.02-1.192.15-.736.328-.82.968-.82 1.67 0 1.615-.018 3.228 0 4.84a6.097 6.097 0 0 0 4.234 5.75c1.649.52 3.592.29 5.296.29.605 0 1.21.007 1.815 0a6.625 6.625 0 0 0 3.875-1.27 6.4 6.4 0 0 0 1.455-1.504c.15-.215-.453-.158-.56 0z"/><path fill="#fff" d="M47.151 78.979h-2.993l.717-3.42a1.408 1.408 0 0 1-.714-1.23 1.375 1.375 0 1 1 2.75 0c0 .53-.288.992-.473 1.23z"/><path fill="#6A79A8" d="M45.105 75.386c-.545-.349-.82-1.032-.52-1.641a1.021 1.021 0 0 1 1.75-.162c.406.522.298 1.194-.031 1.724-.15.243-.169.25-.131.5.167 1.091.455 2.177.68 3.25l.33-.299h-3l.278.196.52-2.485c.062-.295-.556-.22-.61.046L43.85 79c-.033.154.174.195.278.195h3c.145 0 .365-.125.329-.3-.16-.77-.321-1.54-.483-2.309-.062-.3-.25-.75-.221-1.06a1.16 1.16 0 0 0 .207-.29c.173-.31.26-.66.25-1.015-.05-1.209-1.375-1.841-2.416-1.331a1.625 1.625 0 0 0-.16 2.841c.221.143.75-.162.466-.346z"/><defs><clipPath id="a"><path fill="#fff" d="M30 46h77.5v52H30z"/></clipPath></defs></svg>