<svg width="136" height="137" viewBox="0 0 136 137" fill="none" xmlns="http://www.w3.org/2000/svg">
<g clip-path="url(#clip0_887_11519)">
<path d="M136 0.75H0V136.75H136V0.75Z" fill="white"/>
<path d="M39.5884 114.683C37.1608 114.182 7.9877 109.665 10.1354 76.354C12.283 43.0419 14.9781 33.0244 26.3205 29.3592C37.6629 25.694 65.2324 8.35058 86.8666 24.8417C108.501 41.3328 131.845 56.1228 122.581 82.4524C113.317 108.782 111.8 117.567 87.6304 116.222C63.4598 114.878 51.1337 117.068 39.5884 114.683Z" fill="#F9F9F9"/>
<path d="M59.5224 100.16C59.5224 100.16 58.9217 103.341 60.4755 103.085L79.3036 99.7645C80.8472 99.5106 81.8921 98.0452 81.636 96.4914L81.6281 96.4449C81.3731 94.8968 79.9201 93.8473 78.3811 94.1001L61.2734 97.1045C59.7207 97.3607 59.2651 98.5971 59.5224 100.16Z" fill="white"/>
<path d="M65.6222 102.248C70.0705 101.476 74.5188 100.705 78.966 99.9328C80.215 99.7164 81.3585 99.1112 81.7937 97.835C82.4442 95.9265 80.9686 93.9318 78.9694 93.9375C78.2679 93.9398 77.5414 94.1358 76.8546 94.256C75.489 94.4928 74.1244 94.7297 72.7588 94.9677C70.313 95.3927 67.8673 95.8177 65.4216 96.2416C65.1892 96.2824 64.9456 96.5442 65.3286 96.4773C69.5616 95.7418 73.7946 95.0074 78.0276 94.2718C79.5905 93.9998 81.0729 94.8906 81.3528 96.5192C81.6203 98.0742 80.615 99.4274 79.0907 99.6914C76.7923 100.09 74.495 100.489 72.1966 100.887C70.0354 101.262 67.8741 101.637 65.7117 102.013C65.4828 102.053 65.2391 102.315 65.6222 102.248Z" fill="#6A79A8"/>
<path d="M62.8725 102.023C62.8725 102.023 62.2718 105.205 63.8256 104.948L82.6537 101.628C84.1973 101.374 85.2422 99.9085 84.9861 98.3547L84.9782 98.3082C84.7232 96.7601 83.2702 95.7106 81.7312 95.9633L64.6235 98.9678C63.0708 99.2228 62.6152 100.459 62.8725 102.023Z" fill="white"/>
<path d="M69.0731 104.195C73.4965 103.427 77.9199 102.66 82.3433 101.892C83.5413 101.684 84.6066 101.113 85.0849 99.922C85.8034 98.1336 84.6565 96.0823 82.7593 95.7547C81.9761 95.6199 81.1284 95.859 80.3577 95.9961C79.0578 96.2273 77.7567 96.4585 76.4568 96.6897C74.0519 97.117 71.647 97.5443 69.242 97.9715C68.893 98.0339 69.0074 98.4362 69.3497 98.375C73.4342 97.6485 77.5142 96.8813 81.6055 96.1967C83.2579 95.9202 84.746 97.1544 84.7471 98.8499C84.7483 100.046 83.9323 101.127 82.7581 101.395C82.5859 101.435 82.4079 101.459 82.2345 101.489C79.9361 101.888 77.6366 102.287 75.3382 102.686C73.2132 103.055 71.0893 103.424 68.9643 103.792C68.6153 103.852 68.7297 104.255 69.0731 104.195Z" fill="#6A79A8"/>
<path d="M66.7416 104.031C66.7416 104.031 66.141 107.212 67.6948 106.956L86.5228 103.636C88.0664 103.382 89.1114 101.916 88.8552 100.362L88.8473 100.316C88.5923 98.7679 87.1394 97.7184 85.6003 97.9712L68.4926 100.976C66.94 101.232 66.4844 102.467 66.7416 104.031Z" fill="white"/>
<path d="M72.8482 106.143C77.3861 105.356 81.9353 104.613 86.4652 103.78C88.3227 103.439 89.6499 101.662 89.0061 99.7796C88.4848 98.2553 86.9412 97.6116 85.4384 97.8654C82.9054 98.295 80.3769 98.7494 77.8462 99.1914C75.3585 99.6255 72.872 100.06 70.3843 100.495C70.1327 100.539 69.9253 100.845 70.3039 100.778C75.0163 99.9553 79.7287 99.1325 84.4422 98.3097C85.3228 98.1556 86.1717 97.9221 87.0364 98.3301C89.2532 99.3784 89.0945 102.989 86.5536 103.497C84.4445 103.919 82.3093 104.234 80.1911 104.601C77.7703 105.021 75.3495 105.441 72.9287 105.861C72.6759 105.903 72.4685 106.209 72.8482 106.143Z" fill="#6A79A8"/>
<path d="M62.8192 98.7552C64.0466 99.9169 65.2287 101.804 66.6204 102.713C67.4761 103.272 69.0639 102.966 70.0737 102.98C70.7627 102.99 71.4518 103.001 72.1409 103.011C72.9705 102.868 73.8001 102.726 74.6285 102.584C77.5911 102.075 80.5559 101.836 83.5184 101.327C85.13 101.046 86.6305 102.094 86.8719 103.999L86.8753 104.029C87.1167 105.931 85.1028 106.81 83.4923 107.09C79.5518 107.766 76.511 108.707 72.5704 109.384C71.1073 109.815 61.2269 111.799 61.2269 111.799C59.7615 112.031 58.2893 112.343 56.8023 112.2C54.9255 112.02 53.1201 111.349 51.3578 110.72C48.7806 109.798 46.2578 108.755 43.718 107.739C42.4056 107.208 41.0796 106.716 39.7593 106.207C38.8163 105.843 37.9867 105.817 36.9656 105.747C35.626 105.655 34.3691 106.201 33.076 106.498C32.957 106.525 25.1699 109.426 23.9209 109.797L14.1357 100.06C15.413 99.8205 32.0821 94.0054 32.107 93.9952C34.4575 93.0409 36.7197 91.911 38.9999 90.8049C47.4319 86.7135 56.8941 93.1452 62.8192 98.7552Z" fill="white"/>
<path d="M61.8594 111.507C60.0336 111.765 58.2304 112.202 56.3774 111.937C54.5936 111.682 52.889 111.032 51.2026 110.422C47.6508 109.137 44.1748 107.649 40.6468 106.301C39.2018 105.749 37.657 105.393 36.0964 105.57C35.0164 105.692 33.8989 106.022 32.8676 106.362C31.4736 106.821 30.0966 107.344 28.7139 107.836C27.3686 108.314 26.0245 108.793 24.6792 109.272C24.3551 109.387 24.4469 109.769 24.7812 109.65C27.4026 108.716 30.024 107.779 32.6488 106.853C33.3413 106.609 34.0553 106.433 34.7648 106.241C36.5203 105.767 38.3268 105.904 40.0189 106.552C43.4778 107.876 46.8914 109.32 50.3662 110.601C52.1954 111.275 54.0484 111.995 55.9819 112.305C57.9596 112.623 59.8602 112.185 61.8118 111.909C62.1144 111.868 62.2311 111.454 61.8594 111.507Z" fill="#6A79A8"/>
<path d="M14.2628 100.189C19.2528 98.5582 24.2214 96.8571 29.1944 95.173C30.976 94.57 32.6998 93.9762 34.418 93.1987C35.5377 92.691 36.645 92.156 37.7511 91.6188C38.847 91.0862 39.9226 90.532 41.1012 90.1999C43.3702 89.5607 45.7898 89.6072 48.078 90.1217C50.5725 90.6838 52.9536 91.7673 55.1512 93.0593C56.2709 93.7178 57.3498 94.4454 58.3732 95.2455C58.856 95.6229 59.2992 96.0615 59.7922 96.4219C60.267 96.7687 60.8439 96.9274 61.4049 97.077C61.6225 97.1348 62.052 96.8163 61.7268 96.729C61.1669 96.5794 60.6104 96.423 60.1446 96.0615C59.6845 95.7045 59.2584 95.3033 58.7994 94.944C57.8825 94.2255 56.9192 93.567 55.923 92.963C54.0178 91.8092 51.9688 90.8164 49.837 90.1568C47.7618 89.5142 45.562 89.2094 43.3928 89.4134C41.0332 89.6344 39.034 90.5886 36.9306 91.6075C34.6752 92.7 32.4335 93.6974 30.0671 94.4998C27.4933 95.3724 24.9195 96.2428 22.3446 97.111C19.6223 98.029 16.9023 98.9515 14.1721 99.8434C13.8434 99.95 13.9296 100.298 14.2628 100.189Z" fill="#6A79A8"/>
<path d="M61.5672 111.902C66.9346 110.757 72.301 109.612 77.6684 108.466C79.62 108.05 81.5682 107.614 83.5232 107.217C85.4261 106.831 87.6599 105.769 87.0536 103.443C86.777 102.382 85.9985 101.512 84.9241 101.235C84.473 101.12 84.0162 101.122 83.5595 101.188C82.5996 101.326 81.6442 101.506 80.6854 101.655C76.7119 102.267 72.7033 102.722 68.7514 103.472C65.7775 104.035 62.1112 105.312 59.2427 103.757C59.0976 103.678 58.5922 103.895 58.8041 104.01C61.1036 105.257 63.9902 104.703 66.4212 104.213C69.5866 103.575 72.7656 103.078 75.9616 102.618C77.7319 102.363 79.501 102.11 81.2679 101.832C82.629 101.617 84.2384 101.022 85.4556 101.948C86.3543 102.633 86.9232 104.074 86.471 105.162C85.9826 106.337 84.5874 106.731 83.4609 106.967C78.2895 108.045 73.1283 109.172 67.9626 110.275C65.8092 110.734 63.6559 111.194 61.5026 111.653C61.1682 111.723 61.2385 111.973 61.5672 111.902Z" fill="#6A79A8"/>
<path d="M54.5507 38.0369C54.2957 38.7939 54.596 40.5098 54.596 40.5098C54.596 40.5098 53.1329 39.4059 52.2806 39.1679C51.4068 38.9243 49.7329 39.0909 49.7329 39.0909C49.7329 39.0909 50.7892 37.9598 51.0362 37.2231C51.2844 36.4865 51.221 34.6641 51.221 34.6641C51.221 34.6641 52.3928 35.5843 53.2666 35.828C54.0362 36.0422 55.8778 35.93 55.8778 35.93C55.8778 35.93 54.8329 37.1982 54.5507 38.0369Z" fill="white"/>
<path d="M54.2754 38.0675C54.0454 38.8552 54.1848 39.7879 54.3208 40.5835C54.484 40.5133 54.6472 40.4419 54.8104 40.3716C54.1168 39.8503 53.3359 39.2791 52.4972 39.0275C51.6404 38.7702 50.6465 38.8427 49.7659 38.9277C49.8282 39.0003 49.8917 39.0728 49.954 39.1465C50.5048 38.5526 51.1418 37.8477 51.3514 37.0487C51.5554 36.2689 51.5203 35.3917 51.4942 34.5916C51.3186 34.6528 51.1429 34.714 50.9672 34.7752C51.6631 35.3169 52.4768 35.8881 53.362 36.04C54.1712 36.1794 55.0268 36.142 55.8428 36.0944C55.7692 36.0355 55.6944 35.9765 55.6207 35.9176C55.0914 36.5647 54.5667 37.2776 54.2754 38.0675C54.2029 38.2659 54.7526 38.2001 54.8251 38.0063C55.1039 37.2504 55.6275 36.5613 56.1352 35.9425C56.252 35.7997 55.9845 35.7623 55.9131 35.7657C55.1934 35.8077 54.4375 35.8383 53.7235 35.7272C52.9018 35.6003 52.121 35.0563 51.475 34.5531C51.3288 34.4397 50.9412 34.5111 50.948 34.7367C50.9718 35.4813 50.982 36.2701 50.8267 37.0022C50.6612 37.7774 50.0368 38.4699 49.5109 39.0365C49.3692 39.1895 49.5562 39.2689 49.699 39.2553C50.5343 39.1748 51.5101 39.0921 52.308 39.3924C53.0526 39.6735 53.7473 40.1721 54.3808 40.6481C54.5078 40.7433 54.9033 40.6266 54.8704 40.4362C54.7378 39.6621 54.6041 38.7702 54.8262 38.0052C54.8863 37.7955 54.3332 37.8692 54.2754 38.0675Z" fill="#6A79A8"/>
<path d="M69.3669 29.9714C68.7605 30.4916 68.1395 32.1191 68.1395 32.1191C68.1395 32.1191 67.4481 30.4225 66.8373 29.7822C66.2117 29.126 64.6885 28.412 64.6885 28.412C64.6885 28.412 66.1743 27.9802 66.7647 27.4747C67.3541 26.9681 68.2335 25.3701 68.2335 25.3701C68.2335 25.3701 68.7696 26.7607 69.3952 27.4169C69.946 27.9949 71.5859 28.8415 71.5859 28.8415C71.5859 28.8415 70.0389 29.3957 69.3669 29.9714Z" fill="white"/>
<path d="M69.1446 29.9174C68.5247 30.4942 68.1643 31.3726 67.8651 32.15C68.0475 32.1149 68.2311 32.0809 68.4136 32.0458C68.0917 31.2627 67.7234 30.3979 67.1647 29.753C66.5867 29.0866 65.6902 28.6435 64.9048 28.2729C64.8459 28.3692 64.7881 28.4656 64.7291 28.5619C65.5236 28.3284 66.445 28.0406 67.0593 27.4626C67.6611 26.897 68.0951 26.0992 68.4907 25.3829C68.3139 25.4033 68.1371 25.4237 67.9603 25.4441C68.264 26.2227 68.6595 27.109 69.2942 27.6711C69.9005 28.2083 70.6542 28.6095 71.3705 28.9812C71.4056 28.8928 71.4396 28.8056 71.4747 28.7172C70.661 29.0107 69.8212 29.37 69.1446 29.9174C68.8975 30.118 69.4393 30.1474 69.5889 30.0262C70.1929 29.5377 70.9715 29.2294 71.6969 28.9665C71.7875 28.9336 71.9519 28.7806 71.8011 28.7024C71.1155 28.3466 70.3788 27.9646 69.7997 27.4501C69.1797 26.8982 68.8035 26.0595 68.5065 25.2979C68.4329 25.1086 68.0509 25.2231 67.9761 25.3591C67.6259 25.9926 67.2474 26.6545 66.7646 27.1962C66.2444 27.781 65.3797 28.0474 64.6475 28.2627C64.5637 28.2876 64.2758 28.4588 64.4719 28.5517C65.2301 28.9098 66.1027 29.3337 66.6581 29.9752C67.2009 30.6019 67.5545 31.4326 67.8662 32.1931C67.9535 32.4062 68.3535 32.2475 68.4147 32.0888C68.6879 31.3805 69.0256 30.5509 69.59 30.0262C69.8257 29.8052 69.2885 29.7836 69.1446 29.9174Z" fill="#6A79A8"/>
<path d="M79.7495 39.3669C79.023 39.7001 77.9781 41.0941 77.9781 41.0941C77.9781 41.0941 77.7798 39.2728 77.3695 38.4886C76.9479 37.685 75.6797 36.58 75.6797 36.58C75.6797 36.58 77.2278 36.5744 77.9339 36.2502C78.64 35.9261 79.9251 34.6318 79.9251 34.6318C79.9251 34.6318 80.0578 36.1154 80.4794 36.9189C80.85 37.6261 82.1941 38.8909 82.1941 38.8909C82.1941 38.8909 80.5542 38.9974 79.7495 39.3669Z" fill="white"/>
<path d="M79.6382 39.2427C78.8539 39.6428 78.2453 40.3897 77.7217 41.0821C77.8985 41.0617 78.0753 41.0413 78.2521 41.0209C78.1581 40.1766 78.0436 39.2348 77.6673 38.4653C77.2865 37.6878 76.5771 37.035 75.9333 36.4706C75.8143 36.5635 75.6953 36.6553 75.5763 36.7483C76.4218 36.7426 77.3999 36.7143 78.1637 36.3165C78.9095 35.9289 79.5589 35.2772 80.1471 34.6867C79.9816 34.6935 79.8161 34.6992 79.6518 34.706C79.7289 35.5277 79.8637 36.4513 80.3046 37.1642C80.7296 37.8533 81.3552 38.4494 81.9411 39.0036C82.0363 38.9118 82.1327 38.82 82.2279 38.7293C81.3609 38.786 80.4417 38.8993 79.6382 39.2427C79.2891 39.3912 79.6042 39.602 79.8615 39.4932C80.5721 39.1906 81.3949 39.1079 82.1599 39.0557C82.2392 39.0501 82.5871 38.9141 82.4466 38.7815C81.8856 38.2511 81.2951 37.6844 80.8713 37.0361C80.41 36.3301 80.2763 35.386 80.1992 34.5587C80.1811 34.3637 79.7765 34.5054 79.7039 34.5779C79.2075 35.0766 78.6783 35.5866 78.0878 35.9708C77.4384 36.3924 76.5397 36.4094 75.7837 36.4151C75.7044 36.4162 75.2601 36.5454 75.4267 36.6927C76.0693 37.256 76.8185 37.9235 77.1675 38.7169C77.4996 39.4717 77.6152 40.3557 77.7047 41.1694C77.7297 41.3915 78.1683 41.1966 78.2351 41.1082C78.6703 40.5313 79.2064 39.8275 79.8615 39.4932C80.1969 39.3221 79.8909 39.1135 79.6382 39.2427Z" fill="#6A79A8"/>
<path d="M53.7656 47.667C54.079 46.8674 53.685 45.9652 52.8855 45.6518C52.086 45.3383 51.1837 45.7323 50.8703 46.5318C50.5568 47.3314 50.9509 48.2336 51.7504 48.547C52.5499 48.8605 53.4521 48.4665 53.7656 47.667Z" fill="#F4CAC1"/>
<path d="M51.9783 45.6671C53.3655 45.539 54.1554 47.3376 53.115 48.2738C52.4939 48.8314 51.5714 48.4018 51.2246 47.7615C50.9152 47.1926 51.0206 46.5454 51.4048 46.0434C51.4365 46.0026 50.9639 46.0116 50.8653 46.1408C50.3191 46.8548 50.3848 47.8782 51.1294 48.4358C51.7142 48.8733 52.5393 48.8382 53.1717 48.5231C53.8925 48.165 54.3209 47.3682 54.0795 46.5738C53.8301 45.7498 53.0277 45.377 52.2185 45.4518C52.0757 45.4654 51.6224 45.7 51.9783 45.6671Z" fill="#6A79A8"/>
<path d="M56.0852 26.4388C56.2295 25.5923 55.6602 24.789 54.8136 24.6447C53.967 24.5005 53.1638 25.0698 53.0195 25.9164C52.8753 26.7629 53.4446 27.5662 54.2912 27.7104C55.1377 27.8547 55.941 27.2854 56.0852 26.4388Z" fill="#F4CAC1"/>
<path d="M54.298 24.7961C55.6422 24.6726 56.4287 26.5528 55.2818 27.3541C54.663 27.787 53.8628 27.498 53.4922 26.886C53.1568 26.3318 53.2406 25.6835 53.626 25.1803C53.7767 24.9831 53.227 25.0171 53.1148 25.1633C51.8908 26.7636 53.8402 28.535 55.462 27.6329C56.1771 27.2351 56.5806 26.3737 56.2927 25.5793C55.9969 24.7655 55.19 24.4085 54.3706 24.4833C54.0974 24.5094 53.9184 24.8313 54.298 24.7961Z" fill="#6A79A8"/>
<path d="M89.0744 30.3408C89.0839 29.4821 88.3954 28.7783 87.5367 28.7689C86.6781 28.7594 85.9743 29.4479 85.9649 30.3066C85.9554 31.1652 86.6439 31.869 87.5025 31.8784C88.3612 31.8879 89.065 31.1994 89.0744 30.3408Z" fill="#F4CAC1"/>
<path d="M87.2687 28.9591C88.6015 28.8367 89.3699 30.6297 88.2717 31.4627C87.7368 31.8684 86.9763 31.6916 86.5717 31.1907C86.1411 30.6591 86.1467 29.9179 86.5604 29.3773C86.7655 29.1099 86.2453 29.0725 86.1105 29.2481C84.8887 30.8461 86.7531 32.7501 88.4372 31.7913C89.1308 31.3969 89.515 30.5741 89.2793 29.7944C89.0197 28.9376 88.1788 28.5239 87.3288 28.6021C87.0387 28.6293 86.8913 28.9943 87.2687 28.9591Z" fill="#6A79A8"/>
<path d="M80.7578 24.2833C80.8802 25.1333 80.2897 25.921 79.4397 26.0434C78.5897 26.1658 77.802 25.5753 77.6796 24.7253C77.5572 23.8753 78.1477 23.0877 78.9977 22.9653C79.8477 22.8429 80.6354 23.4333 80.7578 24.2833Z" fill="white"/>
<path d="M78.9648 23.1345C80.3327 23.0087 81.092 24.9116 79.9066 25.6891C79.2946 26.0903 78.5182 25.8069 78.1556 25.2097C77.8201 24.6566 77.9074 24.014 78.2916 23.5119C78.4514 23.3034 77.8972 23.3238 77.777 23.4825C76.544 25.0952 78.5432 26.9097 80.165 25.9509C80.8597 25.5406 81.2394 24.6849 80.956 23.9052C80.6602 23.0915 79.8533 22.7209 79.0305 22.7968C78.7483 22.8217 78.5874 23.1697 78.9648 23.1345Z" fill="#6A79A8"/>
<path d="M42.0973 37.4742C42.3318 36.6481 41.8521 35.7883 41.026 35.5539C40.1999 35.3195 39.3401 35.7991 39.1056 36.6252C38.8712 37.4514 39.3509 38.3111 40.177 38.5456C41.0031 38.78 41.8629 38.3004 42.0973 37.4742Z" fill="white"/>
<path d="M40.3478 35.6751C41.6874 35.5516 42.4808 37.4227 41.3282 38.2194C40.7094 38.6478 39.9115 38.3691 39.5398 37.7571C39.2043 37.2029 39.2904 36.5591 39.6746 36.0559C39.831 35.8508 39.2791 35.878 39.1612 36.031C37.9384 37.6301 39.8865 39.4174 41.5106 38.5107C42.2269 38.1106 42.6281 37.2448 42.3391 36.4503C42.0433 35.6366 41.2363 35.2717 40.4158 35.3465C40.137 35.3725 39.9693 35.7103 40.3478 35.6751Z" fill="#6A79A8"/>
<path d="M66.7684 40.8154C67.0793 40.0149 66.6825 39.114 65.8821 38.803C65.0816 38.492 64.1806 38.8889 63.8697 39.6893C63.5587 40.4898 63.9555 41.3908 64.756 41.7017C65.5564 42.0127 66.4574 41.6159 66.7684 40.8154Z" fill="white"/>
<path d="M65.0722 38.8933C66.4028 38.7709 67.1746 40.5604 66.0741 41.3923C65.5392 41.7969 64.7798 41.6224 64.3741 41.1214C63.9434 40.5899 63.9502 39.8498 64.3628 39.3104C64.5679 39.0418 64.0488 38.9998 63.9128 39.1778C62.6911 40.7758 64.5543 42.6854 66.2407 41.7255C66.9343 41.33 67.3174 40.506 67.0816 39.7263C66.8221 38.8695 65.9812 38.4536 65.1312 38.5318C64.8399 38.5601 64.696 38.9284 65.0722 38.8933Z" fill="#6A79A8"/>
<path d="M90.9934 62.4856L42.2866 65.6191L44.4279 98.9031L93.1347 95.7695L90.9934 62.4856Z" fill="#F2F2F2"/>
<path d="M42.8125 73.7621L87.6528 70.8766C89.1205 70.7826 90.3864 71.8955 90.4805 73.3632L91.6739 91.9102C91.7725 93.4402 90.612 94.7594 89.0831 94.858L44.355 97.7355L42.8125 73.7621Z" fill="white"/>
<path d="M42.1746 65.7478C43.7942 65.6435 45.4137 65.5392 47.0321 65.435C50.9013 65.1856 54.7705 64.9374 58.6397 64.6881C63.3385 64.3855 68.0362 64.084 72.735 63.7814C76.781 63.5208 80.8281 63.2612 84.8741 63.0006C86.2103 62.9144 87.5454 62.8283 88.8816 62.7422C89.3043 62.715 89.727 62.6878 90.1486 62.6606C90.3288 62.6492 90.6314 62.6889 90.8003 62.6186C90.8218 62.6096 90.8592 62.6152 90.883 62.613C90.8298 62.5948 90.7765 62.5767 90.7232 62.5586C90.9658 66.3269 91.2083 70.0964 91.4508 73.8647C91.8339 79.8226 92.217 85.7806 92.6012 91.7385C92.6896 93.1076 92.7768 94.4755 92.8652 95.8446C92.9944 95.7777 93.1236 95.7108 93.2528 95.644C91.6333 95.7482 90.0138 95.8525 88.3954 95.9568C84.5262 96.2061 80.657 96.4543 76.7878 96.7036C72.089 97.0062 67.3913 97.3077 62.6925 97.6103C58.6465 97.871 54.5994 98.1305 50.5534 98.3912C49.2172 98.4773 47.8821 98.5634 46.5459 98.6496C46.1232 98.6768 45.7004 98.704 45.2788 98.7312C45.0986 98.7425 44.796 98.7028 44.6272 98.7731C44.6056 98.7822 44.5682 98.7765 44.5444 98.7788C44.5977 98.7969 44.651 98.815 44.7042 98.8332C44.4617 95.0648 44.2192 91.2954 43.9766 87.527C43.5936 81.5691 43.2105 75.6112 42.8263 69.6532C42.7379 68.2842 42.6506 66.9162 42.5622 65.5472C42.5543 65.4191 42.0035 65.52 42.0148 65.6934C42.2574 69.4617 42.4999 73.2312 42.7424 76.9995C43.1255 82.9574 43.5086 88.9154 43.8928 94.8733C43.9812 96.2424 44.0684 97.6103 44.1568 98.9794C44.1602 99.036 44.2849 99.036 44.3166 99.0338C45.9362 98.9295 47.5557 98.8252 49.1741 98.721C53.0433 98.4716 56.9125 98.2234 60.7817 97.9741C65.4805 97.6715 70.1782 97.37 74.877 97.0674C78.923 96.8068 82.9701 96.5472 87.0161 96.2866C88.9881 96.1596 90.9748 96.0939 92.9423 95.9058C92.9695 95.9035 92.9978 95.9024 93.025 95.9001C93.1225 95.8944 93.4217 95.8446 93.4126 95.6995C93.1701 91.9312 92.9276 88.1617 92.685 84.3934C92.302 78.4354 91.9189 72.4775 91.5347 66.5196C91.4463 65.1505 91.359 63.7826 91.2706 62.4135C91.2672 62.3568 91.1426 62.3568 91.1108 62.3591C89.4913 62.4634 87.8718 62.5676 86.2534 62.6719C82.3842 62.9212 78.515 63.1694 74.6458 63.4188C69.947 63.7214 65.2493 64.0228 60.5505 64.3254C56.5045 64.5861 52.4574 64.8456 48.4114 65.1063C46.4394 65.2332 44.4526 65.299 42.4852 65.4871C42.458 65.4894 42.4296 65.4905 42.4024 65.4928C42.237 65.5041 41.8131 65.7716 42.1746 65.7478Z" fill="#6A79A8"/>
<path d="M42.2891 65.6206L90.9975 62.4858L87.1815 58.1338L45.6222 60.8062L42.2891 65.6206Z" fill="#E5E5E5"/>
<path d="M43.1694 64.6183L87.1598 61.7884C87.7287 61.7521 87.9814 61.0562 87.5689 60.663L85.0586 58.2705L45.4508 60.8171L43.1694 64.6183Z" fill="#F9F9F9"/>
<path d="M42.2652 65.8251C43.8847 65.7208 45.5043 65.6165 47.1227 65.5123C50.9919 65.2629 54.8611 65.0147 58.7303 64.7654C63.4291 64.4628 68.1267 64.1613 72.8255 63.8587C76.8715 63.5981 80.9187 63.3385 84.9647 63.0779C86.3009 62.9917 87.6359 62.9056 88.9721 62.8195C89.6068 62.7787 90.2596 62.7775 90.8909 62.6959C90.9181 62.6925 90.9464 62.6925 90.9736 62.6903C91.096 62.6823 91.3884 62.5248 91.2467 62.3639C90.0069 60.9495 88.8271 59.4399 87.5079 58.0991C87.1645 57.7501 86.2997 57.9858 85.8577 58.0153C82.2141 58.2499 78.5715 58.4833 74.9279 58.7179C69.7395 59.0511 64.5499 59.3855 59.3615 59.7187C55.3416 59.9771 51.3228 60.2355 47.3029 60.4939C46.556 60.5415 45.7457 60.5075 45.0079 60.6412C44.5693 60.7205 44.3698 61.3824 44.1749 61.7326C43.5878 62.7866 42.9996 63.8406 42.4125 64.8946C42.2845 65.1247 42.1553 65.3559 42.0272 65.5859C41.8765 65.8568 42.4318 65.8681 42.5519 65.6528C43.4382 64.0627 44.3256 62.4727 45.2119 60.8815C45.1167 60.9381 45.0215 60.9959 44.9263 61.0526C46.3259 60.9631 47.7256 60.8724 49.1253 60.7829C52.4867 60.5664 55.8482 60.3511 59.2097 60.1346C63.2761 59.8728 67.3436 59.611 71.41 59.3503C74.9267 59.1237 78.4423 58.8981 81.9591 58.6715C83.1139 58.5967 84.2688 58.523 85.4237 58.4482C85.7875 58.4244 86.1513 58.4017 86.5151 58.3779C86.6737 58.3677 86.9378 58.4017 87.0863 58.3417C87.1055 58.3337 87.1373 58.3383 87.1588 58.3371C87.0829 58.3099 87.0069 58.2816 86.9321 58.2544C88.2037 59.7051 89.4765 61.1569 90.7481 62.6075C90.8387 62.4987 90.9305 62.3899 91.0212 62.2811C89.4017 62.3854 87.7821 62.4897 86.1637 62.5939C82.2945 62.8433 78.4253 63.0915 74.5561 63.3408C69.8573 63.6434 65.1597 63.9449 60.4609 64.2475C56.4149 64.5081 52.3677 64.7677 48.3217 65.0283C46.9855 65.1145 45.6505 65.2006 44.3143 65.2867C43.6796 65.3275 43.0268 65.3287 42.3955 65.4103C42.3683 65.4137 42.34 65.4137 42.3128 65.4159C42.0011 65.4363 41.8923 65.8489 42.2652 65.8251Z" fill="#6A79A8"/>
<path d="M62.2979 64.2237L70.5168 63.75L72.6236 97.1584L64.4047 97.6333L62.2979 64.2237Z" fill="#F99487"/>
<path d="M62.7817 72.628L71.0007 72.1543L72.5601 96.0484L64.3412 96.5232L62.7817 72.628Z" fill="#F9AB98"/>
<path d="M70.2553 63.9061C70.4933 67.679 70.7313 71.4507 70.9693 75.2236C71.3467 81.2121 71.7252 87.2007 72.1026 93.1892C72.1899 94.5639 72.276 95.9398 72.3633 97.3145C72.4913 97.242 72.6183 97.1695 72.7463 97.0969C70.0071 97.2545 67.2667 97.4131 64.5274 97.5707C64.5818 97.5945 64.6373 97.6183 64.6917 97.6409C64.4537 93.8681 64.2157 90.0963 63.9777 86.3235C63.6003 80.3349 63.2218 74.3464 62.8444 68.3579C62.7571 66.9831 62.671 65.6073 62.5837 64.2325C62.5735 64.0761 62.0239 64.1838 62.0363 64.3787C62.2743 68.1516 62.5123 71.9233 62.7503 75.6962C63.1277 81.6847 63.5063 87.6733 63.8837 93.6618C63.9709 95.0365 64.0571 96.4124 64.1443 97.7871C64.1477 97.8483 64.269 97.8597 64.3087 97.8574C67.0479 97.6999 69.7883 97.5412 72.5276 97.3837C72.6409 97.3769 72.9209 97.3293 72.9107 97.1661C72.6727 93.3932 72.4347 89.6215 72.1967 85.8486C71.8193 79.8601 71.4407 73.8715 71.0633 67.883C70.9761 66.5083 70.8899 65.1324 70.8027 63.7577C70.7936 63.6024 70.2428 63.7101 70.2553 63.9061Z" fill="#6A79A8"/>
<path d="M70.5295 63.8331L69.1638 59.3145L62.9701 59.6567L62.3105 64.3068L70.5295 63.8331Z" fill="#F9AB98"/>
<path d="M63.5674 64.3359C65.281 64.2373 66.9946 64.1387 68.7093 64.039C68.8657 64.0299 69.3021 63.7806 68.9417 63.801C67.2281 63.8996 65.5145 63.9982 63.7997 64.0979C63.6422 64.107 63.207 64.3575 63.5674 64.3359Z" fill="#6A79A8"/>
<path d="M70.8027 63.7597C70.3471 62.2535 69.8926 60.7462 69.437 59.24C69.4075 59.1436 69.2761 59.1402 69.1967 59.1448C67.1318 59.2592 65.068 59.3737 63.0031 59.4882C62.9011 59.4938 62.7118 59.5664 62.6948 59.6865C62.4749 61.2369 62.2551 62.7862 62.0352 64.3366C62.0012 64.5734 62.5554 64.4839 62.5849 64.2776C62.8047 62.7272 63.0246 61.178 63.2445 59.6276C63.1413 59.6933 63.0393 59.759 62.9362 59.8259C65.0011 59.7114 67.0649 59.597 69.1299 59.4825C69.0494 59.4508 68.9689 59.419 68.8896 59.3873C69.3452 60.8935 69.7997 62.4008 70.2553 63.907C70.3199 64.1178 70.8661 63.9682 70.8027 63.7597Z" fill="#6A79A8"/>
<path d="M80.7622 64.5514C81.7584 64.9027 82.852 66.1063 83.6556 66.7682C84.8093 67.7191 87.0318 69.155 87.4035 70.6793C87.4851 71.0159 87.4704 71.3684 87.4296 71.7129C87.2822 72.9471 86.7847 74.3434 85.8701 75.2149C84.9487 76.0933 83.7145 76.1329 82.6503 75.5039C80.0278 73.9558 77.9798 71.6778 75.9444 69.4553C75.8299 69.3307 75.7154 69.206 75.6248 69.0632C75.2768 68.5147 74.5005 63.7139 74.5005 63.7139C74.5005 63.7139 78.2904 64.1887 80.2204 64.4392C80.3848 64.4607 80.5502 64.4823 80.7089 64.5333C80.7259 64.5389 80.744 64.5457 80.7622 64.5514Z" fill="#E5E5E5"/>
<path d="M58.178 85.2724L47.6602 85.9512L48.1473 93.4992L58.6651 92.8204L58.178 85.2724Z" fill="#E5E5E5"/>
<path d="M49.4028 91.0999C52.3914 90.9072 55.38 90.7145 58.3686 90.5207C58.8016 90.4924 59.2356 90.4652 59.6686 90.4369C59.9621 90.4176 60.1038 90.0515 59.7275 90.0753C56.7389 90.268 53.7503 90.4607 50.7617 90.6545C50.3288 90.6828 49.8947 90.71 49.4618 90.7383C49.1671 90.7576 49.0266 91.1248 49.4028 91.0999Z" fill="#6A79A8"/>
<path d="M49.2898 89.2718C52.2784 89.0792 55.267 88.8865 58.2556 88.6927C58.6885 88.6644 59.1226 88.6372 59.5555 88.6088C59.8683 88.5884 59.9737 88.1725 59.6008 88.1963C56.6122 88.389 53.6236 88.5816 50.635 88.7754C50.2021 88.8038 49.768 88.831 49.3351 88.8593C49.0223 88.8797 48.9169 89.2956 49.2898 89.2718Z" fill="#6A79A8"/>
<path d="M49.1355 86.9324C52.1241 86.7397 55.1127 86.5471 58.1013 86.3533C58.5342 86.3249 58.9683 86.2977 59.4012 86.2694C59.7015 86.2501 59.8307 85.8659 59.4556 85.8897C56.467 86.0824 53.4784 86.2751 50.4898 86.4689C50.0569 86.4972 49.6228 86.5244 49.1899 86.5527C48.8895 86.5731 48.7603 86.9562 49.1355 86.9324Z" fill="#6A79A8"/>
<path d="M49.514 92.8628C50.2734 92.8141 51.0338 92.7642 51.7932 92.7155C52.0788 92.6973 52.2352 92.3494 51.8578 92.3743C51.0984 92.4231 50.338 92.4729 49.5786 92.5217C49.293 92.5409 49.1366 92.8877 49.514 92.8628Z" fill="#6A79A8"/>
<path d="M53.5045 92.5927C54.2638 92.544 55.0243 92.4941 55.7836 92.4454C56.059 92.4273 56.2335 92.1054 55.855 92.1292C55.0957 92.1779 54.3352 92.2278 53.5759 92.2765C53.3005 92.2947 53.1259 92.6165 53.5045 92.5927Z" fill="#6A79A8"/>
<path d="M91.9518 62.4507L41.0103 65.7383L41.4472 72.5082L92.3887 69.2206L91.9518 62.4507Z" fill="#F2F2F2"/>
<path d="M41.0117 65.7402L90.3457 62.5566L90.4012 63.4134C90.5622 65.909 88.6695 68.0624 86.1739 68.2233L41.3585 71.1156L41.0117 65.7402Z" fill="white"/>
<path d="M40.7804 66.4808C40.9096 68.4789 41.0388 70.477 41.1669 72.4762C41.1725 72.568 41.7233 72.4762 41.7143 72.33C41.5851 70.3319 41.4559 68.3338 41.3278 66.3346C41.3221 66.2428 40.7713 66.3346 40.7804 66.4808Z" fill="#6A79A8"/>
<path d="M41.3336 72.636C43.0234 72.5272 44.7132 72.4184 46.4019 72.3085C50.4592 72.0467 54.5165 71.7849 58.5739 71.5231C63.4812 71.2069 68.3897 70.8896 73.297 70.5734C77.5379 70.2991 81.7789 70.026 86.0198 69.7517C88.0734 69.6191 90.1429 69.5477 92.1919 69.3539C92.2203 69.3516 92.2486 69.3505 92.2758 69.3482C92.3721 69.3426 92.6725 69.2927 92.6634 69.1476C92.5331 67.1314 92.4027 65.1152 92.2735 63.099C92.2656 62.9721 91.7148 63.073 91.7261 63.2452C91.8565 65.2614 91.9868 67.2776 92.116 69.2938C92.2452 69.227 92.3744 69.1601 92.5036 69.0932C90.8138 69.202 89.124 69.3108 87.4353 69.4208C83.378 69.6826 79.3207 69.9444 75.2633 70.2062C70.356 70.5224 65.4475 70.8397 60.5402 71.1559C56.2993 71.4302 52.0583 71.7033 47.8174 71.9776C45.7638 72.1102 43.6943 72.1816 41.6453 72.3754C41.6169 72.3776 41.5886 72.3788 41.5614 72.381C41.3971 72.3935 40.9721 72.6598 41.3336 72.636Z" fill="#6A79A8"/>
<path d="M40.8379 65.5933L91.9569 62.3043L89.1689 57.8662L43.142 60.8265L40.8379 65.5933Z" fill="#F2F2F2"/>
<path d="M40.7214 65.7116C42.4191 65.6028 44.1168 65.4928 45.8157 65.384C49.8923 65.1222 53.9689 64.8593 58.0455 64.5975C62.9562 64.2813 67.867 63.9651 72.7777 63.65C77.0379 63.3758 81.2981 63.1015 85.5594 62.8272C87.6198 62.6946 89.6973 62.6278 91.7531 62.4283C91.7826 62.4249 91.8132 62.4249 91.8426 62.4226C91.8846 62.4204 92.296 62.332 92.2325 62.2311C91.3032 60.7521 90.3738 59.272 89.4445 57.793C89.4128 57.742 89.3402 57.7454 89.287 57.7488C87.7558 57.8474 86.2247 57.946 84.6936 58.0446C81.0363 58.2803 77.3802 58.5149 73.7229 58.7506C69.2814 59.0362 64.841 59.3218 60.3994 59.6074C56.5767 59.8534 52.7528 60.0993 48.9301 60.3452C47.0748 60.4642 45.189 60.4971 43.3416 60.7045C43.3144 60.7079 43.2872 60.7079 43.26 60.7102C43.1524 60.717 42.928 60.7589 42.8736 60.8745C42.1052 62.4634 41.3368 64.0524 40.5684 65.6413C40.5219 65.7376 41.0387 65.6957 41.109 65.5495C41.8774 63.9606 42.6458 62.3716 43.4142 60.7827C43.285 60.8371 43.1558 60.8915 43.0277 60.947C44.5588 60.8484 46.09 60.7498 47.6211 60.6512C51.2784 60.4155 54.9345 60.1809 58.5918 59.9452C63.0333 59.6596 67.4737 59.374 71.9152 59.0884C75.738 58.8424 79.5618 58.5965 83.3846 58.3506C84.646 58.269 85.9074 58.1885 87.1688 58.1069C87.5654 58.082 87.961 58.0559 88.3576 58.031C88.5333 58.0196 88.8064 58.0536 88.973 57.9913C88.9957 57.9834 89.0308 57.9879 89.0546 57.9856C89.0025 57.9709 88.9504 57.9562 88.8971 57.9414C89.8264 59.4204 90.7558 60.9006 91.6851 62.3796C91.8154 62.3161 91.9446 62.2515 92.075 62.188C90.3772 62.2968 88.6795 62.4068 86.9806 62.5156C82.904 62.7774 78.8274 63.0403 74.7508 63.3021C69.8401 63.6183 64.9294 63.9345 60.0186 64.2496C55.7584 64.5238 51.4982 64.7981 47.2369 65.0724C45.1765 65.205 43.0991 65.2718 41.0432 65.4713C41.0138 65.4747 40.9832 65.4747 40.9537 65.477C40.7984 65.486 40.361 65.7354 40.7214 65.7116Z" fill="#6A79A8"/>
<path d="M62.8136 71.1397L70.9224 70.6719L70.5216 63.7262L62.4128 64.194L62.8136 71.1397Z" fill="#F99487"/>
<path d="M62.7301 69.6768L70.8389 69.209L70.5226 63.7273L62.4138 64.1952L62.7301 69.6768Z" fill="#F9AB98"/>
<path d="M62.4131 64.1899L70.5221 63.723L69.357 59.252L62.5944 59.6328L62.4131 64.1899Z" fill="#F99487"/>
<path d="M70.2039 63.7899C70.3376 66.1053 70.4713 68.4207 70.6039 70.735C70.7331 70.6692 70.8635 70.6035 70.9927 70.5378C68.2897 70.6942 65.5867 70.8494 62.8837 71.0058C62.9369 71.0228 62.9891 71.0398 63.0423 71.0557C62.9086 68.7403 62.7749 66.4249 62.6423 64.1106C62.6355 63.9905 62.0847 64.088 62.0949 64.2568C62.2286 66.5722 62.3623 68.8876 62.4949 71.2019C62.4983 71.2574 62.623 71.254 62.6536 71.2518C65.3566 71.0954 68.0596 70.9401 70.7626 70.7837C70.8567 70.778 71.1593 70.727 71.1513 70.5865C71.0176 68.2711 70.8839 65.9557 70.7513 63.6414C70.7433 63.5224 70.1937 63.6199 70.2039 63.7899Z" fill="#6A79A8"/>
<path d="M63.6476 64.2979C65.3385 64.2005 67.0294 64.103 68.7204 64.0055C69.0298 63.9874 69.142 63.5828 68.7691 63.6043C67.0782 63.7018 65.3872 63.7993 63.6963 63.8967C63.3869 63.9149 63.2736 64.3195 63.6476 64.2979Z" fill="#6A79A8"/>
<path d="M70.7511 63.6422C70.3635 62.1519 69.9748 60.6616 69.5872 59.1712C69.5611 59.0704 69.4262 59.0568 69.3424 59.0613C67.0882 59.1882 64.834 59.3152 62.5786 59.4421C62.4766 59.4478 62.2783 59.5248 62.2738 59.6506C62.2137 61.1693 62.1525 62.6891 62.0924 64.2078C62.0822 64.473 62.6353 64.3812 62.6444 64.1568C62.7044 62.6381 62.7656 61.1183 62.8257 59.5996C62.7237 59.6688 62.6228 59.739 62.5208 59.8082C64.775 59.6812 67.0292 59.5543 69.2846 59.4274C69.203 59.3911 69.1214 59.3537 69.0398 59.3174C69.4274 60.8078 69.8161 62.2981 70.2037 63.7884C70.2638 64.0196 70.8112 63.8757 70.7511 63.6422Z" fill="#6A79A8"/>
<path d="M77.8744 56.8825C79.2117 54.7915 79.1993 51.9162 77.8438 49.8377C75.7483 46.6224 70.7582 45.99 67.6937 48.2986C64.628 50.6072 63.7542 55.2199 65.4123 58.6811C64.8422 55.9055 62.8328 53.4677 60.2171 52.3775C57.6013 51.2872 54.4552 51.5762 52.082 53.1255C50.4693 54.1783 48.7262 56.6037 49.5059 58.6097C50.3027 60.6621 51.8735 62.0901 54.0177 62.6659C56.1733 63.245 58.5431 63.0353 60.7271 62.7225C62.6583 62.446 64.3979 61.5076 65.7625 60.1261C65.9461 59.9402 66.1297 59.5855 66.3994 59.6444C69.1579 60.2451 76.0747 59.6965 77.8744 56.8825Z" fill="#F9AB98"/>
<path d="M78.1453 56.8375C79.3693 54.861 79.4837 52.2713 78.381 50.2109C77.4607 48.4917 75.7392 47.3719 73.8556 46.9741C72.1193 46.6081 70.2527 46.8132 68.6491 47.5793C66.8527 48.4373 65.5199 50.0534 64.849 51.9121C64.0511 54.1243 64.1418 56.6222 65.138 58.754C65.1981 58.8832 65.7149 58.7449 65.6854 58.6078C64.8082 54.5516 61.1679 51.597 57.0165 51.6049C55.0899 51.6083 53.0465 52.1841 51.5063 53.3695C50.1055 54.4473 48.7194 56.357 49.0979 58.2247C49.4606 60.0177 51.0053 61.6009 52.6169 62.3478C54.6456 63.2885 57.0233 63.2488 59.2005 63.0187C61.3311 62.7932 63.302 62.3161 65.0269 60.981C65.3907 60.6999 65.7466 60.3962 66.0583 60.0573C66.124 59.9859 66.2113 59.8137 66.2985 59.7763C66.3144 59.7695 66.0458 59.8273 66.3484 59.7887C66.4697 59.7729 66.6453 59.8397 66.77 59.8579C67.4625 59.9553 68.1629 59.9837 68.8621 59.9803C70.6857 59.9712 72.5398 59.7457 74.2885 59.2209C75.7222 58.7903 77.2862 58.1329 78.1453 56.8375C78.1917 56.7673 77.6965 56.7899 77.6047 56.9293C76.8408 58.0819 75.4502 58.6747 74.1729 59.0543C72.7291 59.4827 71.2149 59.6811 69.7121 59.7332C69.0389 59.757 68.3635 59.7468 67.6914 59.6879C67.2426 59.6482 66.6907 59.4419 66.2475 59.553C65.9563 59.6267 65.7987 59.8227 65.6072 60.0381C65.2672 60.4189 64.8694 60.7577 64.4614 61.0615C63.6035 61.7007 62.6311 62.1857 61.5929 62.4521C60.531 62.7229 59.3954 62.8136 58.304 62.8782C57.1129 62.9496 55.9059 62.9213 54.7351 62.6731C52.9807 62.3002 51.4145 61.3482 50.433 59.8239C49.9797 59.1201 49.5796 58.3086 49.5887 57.4541C49.5977 56.5293 50.0069 55.6339 50.5259 54.8871C51.7171 53.1712 53.6562 52.158 55.7075 51.9064C60.123 51.3658 64.2098 54.4541 65.1391 58.7551C65.3216 58.7064 65.5041 58.6577 65.6865 58.6089C64.0942 55.1976 64.8241 50.5747 67.9645 48.2707C70.9577 46.0743 75.7868 46.8857 77.7078 50.1327C78.9363 52.209 78.8683 54.8893 77.6058 56.9293C77.5559 57.0053 78.058 56.9781 78.1453 56.8375Z" fill="#6A79A8"/>
<path d="M55.6364 53.9798C56.8581 56.744 59.3401 58.8157 62.28 59.5195C62.4114 59.4368 62.5429 59.354 62.6744 59.2713C60.6525 58.9381 58.4754 58.784 56.6122 59.7938C56.2914 59.9672 56.7856 59.9932 56.9397 59.9094C58.5864 59.0174 60.5528 59.2373 62.3298 59.5297C62.4477 59.549 62.9192 59.328 62.7242 59.2815C59.8308 58.5879 57.3885 56.5547 56.1849 53.8324C56.1124 53.6726 55.5774 53.8472 55.6364 53.9798Z" fill="#6A79A8"/>
<path d="M70.348 52.1102C70.8229 54.2907 70.2653 56.5721 68.8316 58.2835C68.682 58.4625 69.2362 58.3821 69.3371 58.2801C70.6801 56.9235 72.3982 56.0225 74.2886 55.738C74.5391 55.7006 74.7521 55.4071 74.3713 55.4637C72.2565 55.7822 70.3344 56.7637 68.8316 58.2835C69.0005 58.2823 69.1682 58.2812 69.3371 58.2801C70.8013 56.5325 71.3816 54.1921 70.8954 51.964C70.858 51.7963 70.3083 51.9323 70.348 52.1102Z" fill="#6A79A8"/>
<path d="M77.4653 65.0678C78.2995 64.5635 78.9035 63.4891 78.6474 62.5008C78.3391 61.3086 77.0154 60.9391 75.9546 60.7487C72.7597 60.1741 69.5263 59.7956 66.2884 59.5757C66.0651 59.561 65.7115 59.8817 66.081 59.9066C68.8418 60.0948 71.5924 60.403 74.3249 60.8439C75.4344 61.023 76.9701 61.0717 77.7543 61.9965C78.5193 62.8998 78.0717 64.3096 77.1197 64.8854C76.8035 65.0746 77.2761 65.1823 77.4653 65.0678Z" fill="#6A79A8"/>
<path d="M80.6035 63.5944C81.5997 63.9457 82.6933 65.1493 83.4969 65.8112C84.6506 66.762 86.8731 68.198 87.2448 69.7223C87.3264 70.0589 87.3117 70.4114 87.2709 70.7559C87.1235 71.9901 86.626 73.3864 85.7114 74.2579C84.79 75.1362 83.5558 75.1759 82.4916 74.5469C79.8691 72.9988 77.8211 70.7208 75.7857 68.4983C75.6712 68.3736 75.5567 68.249 75.4661 68.1062C75.1181 67.5576 74.3418 62.7568 74.3418 62.7568C74.3418 62.7568 78.1317 63.2317 80.0617 63.4822C80.2261 63.5037 80.3915 63.5252 80.5502 63.5762C80.5672 63.5819 80.5853 63.5876 80.6035 63.5944Z" fill="white"/>
<path d="M80.3803 63.707C81.4876 64.1376 82.2945 65.1146 83.1842 65.8614C83.9764 66.5267 84.8343 67.1092 85.5914 67.8176C86.5388 68.7038 87.1678 69.6196 86.9786 70.9626C86.8188 72.0982 86.396 73.3222 85.5778 74.1563C84.2846 75.4744 82.8124 74.5677 81.5884 73.6962C80.5186 72.9346 79.5394 72.0551 78.61 71.1292C77.6909 70.2146 76.7604 69.2716 75.9286 68.2766C75.5568 67.8323 75.4752 67.2396 75.354 66.6876C75.0627 65.3628 74.8315 64.022 74.6139 62.6835C74.4643 62.7481 74.3147 62.8128 74.1651 62.8774C74.9482 62.976 75.7302 63.0734 76.5134 63.1731C77.1537 63.2536 77.7929 63.3352 78.4332 63.4168C79.0611 63.4962 79.7808 63.5041 80.3803 63.707C80.5118 63.7512 81.0025 63.5426 80.8268 63.4826C80.2783 63.2978 79.6436 63.2854 79.0713 63.2128C78.3834 63.1244 77.6954 63.0383 77.0075 62.951C76.1768 62.8456 75.346 62.7414 74.5153 62.6371C74.4246 62.6258 74.0427 62.6858 74.0665 62.8309C74.283 64.1705 74.5153 65.5101 74.8066 66.8349C74.9539 67.507 75.0627 68.0726 75.5274 68.595C76.5304 69.7216 77.5662 70.8322 78.6599 71.8715C79.7456 72.9028 80.922 73.907 82.2333 74.6436C83.1456 75.157 84.2076 75.2488 85.1652 74.791C86.1977 74.298 86.8426 73.2383 87.203 72.1922C87.6132 71.0011 87.7934 69.7295 87.0284 68.6506C86.2532 67.5569 85.1029 66.7805 84.0625 65.9634C83.0074 65.1338 82.1041 63.9801 80.8268 63.4826C80.6976 63.4327 80.2024 63.6378 80.3803 63.707Z" fill="#6A79A4"/>
<path d="M76.8532 66.3469C77.3371 66.6778 77.9979 66.5543 78.3288 66.0703C78.6597 65.5864 78.5362 64.9257 78.0523 64.5947C77.5683 64.2638 76.9076 64.3873 76.5767 64.8713C76.2457 65.3552 76.3693 66.0159 76.8532 66.3469Z" fill="#6A79A8"/>
<path d="M77.1684 64.8037C76.6131 65.0825 76.0102 65.1596 75.4106 65.2922C74.8598 65.4135 74.3204 65.5789 73.7775 65.7263C72.4606 66.0833 71.0722 66.3156 69.8176 65.6311C67.6688 64.4581 67.0194 61.8922 66.4902 59.6935C66.4267 59.4283 65.8782 59.5723 65.9428 59.8397C66.5174 62.2254 67.2779 64.9794 69.7032 66.1161C70.9057 66.6794 72.2362 66.5389 73.4851 66.2261C74.164 66.0561 74.8315 65.8385 75.516 65.6877C76.1677 65.5449 76.8137 65.4486 77.4155 65.146C77.7487 64.9805 77.4529 64.6609 77.1684 64.8037Z" fill="#6A79A8"/>
<path d="M83.2246 70.4452C82.1683 70.8384 80.6474 70.0859 80.2768 68.9084C80.1997 68.6636 79.6535 68.8132 79.7294 69.0546C80.2009 70.5528 82.0448 71.2861 83.4649 70.7568C83.8162 70.6265 83.5045 70.3409 83.2246 70.4452Z" fill="#6A79A8"/>
<path d="M81.1258 68.1811C81.0895 68.3126 80.9637 68.3976 80.8424 68.3704C80.7212 68.3432 80.6532 68.2163 80.6894 68.0859C80.7257 67.9545 80.8515 67.8695 80.9728 67.8967C81.0929 67.9227 81.162 68.0508 81.1258 68.1811Z" fill="#6A79A8"/>
<path d="M83.7936 69.7016C83.7574 69.8331 83.6316 69.9181 83.5103 69.8909C83.3902 69.8648 83.321 69.7368 83.3573 69.6064C83.3936 69.475 83.5194 69.39 83.6406 69.4172C83.7608 69.4432 83.8299 69.5702 83.7936 69.7016Z" fill="#6A79A8"/>
<path d="M45.7953 89.5621C42.9654 89.5065 40.514 89.5439 38.5125 91.8265C38.0818 92.3183 37.735 92.902 37.624 93.5469C37.5333 94.0716 37.6036 94.6122 37.7328 95.1279C38.0841 96.5343 38.8593 97.7912 39.63 99.0186C39.9722 99.5637 40.3281 100.121 40.8404 100.512C41.5918 101.086 42.5721 101.226 43.4822 101.481C44.9068 101.881 46.2713 102.606 47.7514 102.636C48.929 102.661 49.941 102.091 51.0653 101.97C52.1408 101.854 53.315 101.936 54.3984 101.958C56.6039 102.004 58.8184 102.223 60.9491 102.819C63.3325 103.485 67.7661 105.717 69.2632 102.467L69.2746 102.442C70.0044 100.859 69.1828 98.9245 67.4386 98.121C65.8406 97.3843 64.2426 96.6488 62.6457 95.9121C58.3787 93.9458 54.0709 92.0293 49.7042 90.301C48.1923 89.7037 47.4069 89.5938 45.7953 89.5621Z" fill="white"/>
<path d="M55.2732 99.7584C56.9506 100.531 58.6279 101.304 60.3041 102.077C61.3717 102.569 62.4382 103.061 63.5058 103.553C64.137 103.844 64.7808 104.199 65.4653 104.343C67.052 104.677 68.8392 104 69.5351 102.474C70.2536 100.897 69.4943 99.0841 68.0765 98.1955C67.069 97.5643 65.879 97.1472 64.8001 96.6508C63.6339 96.1136 62.4688 95.5753 61.3015 95.0415C58.8943 93.9421 56.4768 92.8655 54.0402 91.833C52.6881 91.2595 51.3304 90.6985 49.9636 90.1591C48.9164 89.7454 47.8782 89.4621 46.7517 89.3952C44.2006 89.2456 41.688 89.4757 39.3125 90.4628C38.9669 90.6067 39.2729 90.898 39.5539 90.7813C41.7095 89.8859 43.9773 89.6785 46.2916 89.776C48.4347 89.8667 50.3478 90.7915 52.3005 91.6018C56.7443 93.4457 61.1122 95.4631 65.4823 97.4759C66.4468 97.9201 67.5892 98.2749 68.3383 99.0603C68.9367 99.687 69.3039 100.538 69.2563 101.413C69.1475 103.426 67.0418 104.475 65.2466 103.827C63.7177 103.275 62.2478 102.461 60.7733 101.781C59.045 100.985 57.3178 100.189 55.5894 99.3923C55.365 99.2892 54.9582 99.6133 55.2732 99.7584Z" fill="#6A79A8"/>
<path d="M51.9956 100.027C52.7458 99.544 53.7976 99.4228 54.6748 99.4352C54.9853 99.4398 55.0964 99.0465 54.7246 99.0408C53.6944 99.0261 52.5124 99.2176 51.6329 99.782C51.3235 99.9826 51.7746 100.168 51.9956 100.027Z" fill="#6A79A8"/>
<path d="M63.1466 99.7687C62.6015 100.951 63.1024 102.253 64.2675 102.807C65.1968 103.249 66.0559 103.666 67.1054 103.338C68.2954 102.965 69.1352 101.742 68.8088 100.486C68.5232 99.3868 67.519 98.9697 66.5727 98.5628C65.3113 98.0188 63.7711 98.5311 63.1466 99.7687C63.1002 99.8605 63.6147 99.822 63.6872 99.6769C64.1236 98.8099 64.9917 98.3532 65.9414 98.7056C66.2973 98.8382 66.6441 99.0196 66.9875 99.1816C68.1197 99.7177 68.6614 100.973 68.0982 102.137C67.6777 103.007 66.7858 103.449 65.8542 103.105C65.4972 102.974 65.1515 102.791 64.807 102.628C63.6657 102.087 63.1478 100.849 63.6872 99.6769C63.7326 99.5794 63.2146 99.6236 63.1466 99.7687Z" fill="#6A79A8"/>
</g>
<defs>
<clipPath id="clip0_887_11519">
<rect width="136" height="136" fill="white" transform="translate(0 0.75)"/>
</clipPath>
</defs>
</svg>
