<svg width="24" height="30" viewBox="0 0 24 30" fill="none" xmlns="http://www.w3.org/2000/svg">
<path d="M15.4 19.1H17C18.7 19.1 20 20.4 20 22V26.4C20 26.7 19.8 26.9 19.5 26.9H4.5C4.2 27 4 26.8 4 26.5V22.1C4 20.5 5.3 19.1 7 19.1H8.5C8.8 19.1 9.1 19.2 9.2 19.4L11.7 21.9C11.8 22 12 22 12.1 21.9L14.6 19.4C14.9 19.2 15.2 19.1 15.4 19.1Z" fill="#191919" stroke="#191919" stroke-miterlimit="10"/>
<path d="M12 16.8C13.8778 16.8 15.4 15.0539 15.4 12.9C15.4 10.7461 13.8778 9 12 9C10.1222 9 8.60001 10.7461 8.60001 12.9C8.60001 15.0539 10.1222 16.8 12 16.8Z" fill="#191919" stroke="#191919" stroke-miterlimit="10"/>
</svg>
