<svg xmlns="http://www.w3.org/2000/svg" width="124" height="186" fill="none"><rect width="100%" height="100%" fill="#f2f2f2"/><path fill="#191919" d="M56.542 84.168a.8.8 0 0 0 .646 1.464zm1.206.342-.323-.732zm5.864.185.547-.584zm1.038.972-.547.584zm3.685.34-.326.73zm.98 10.01-.593-.535zm-.835-.3a.8.8 0 1 0 1.094 1.167zM57.188 85.631l.883-.39-.646-1.464-.883.39zm.964-.407h4.776v-1.6h-4.776zm4.913.054 1.038.972 1.094-1.168-1.038-.972zm2.269 1.458h2.653v-1.6h-2.653zm2.675 0c.193.086.412.211.568.347.181.157.136.2.136.113h1.6c0-.622-.397-1.07-.687-1.322a3.999 3.999 0 0 0-.965-.6zm.704.46v8.252h1.6v-8.252zm.009 8.285c-.054.06-.105.106-.242.234l1.094 1.168c.11-.104.225-.208.336-.33zm-.735-8.745a.16.16 0 0 1 .028.002c.004 0 .001 0-.006-.002l.652-1.462a1.65 1.65 0 0 0-.674-.138zm-3.884-.486a1.8 1.8 0 0 0 1.23.486v-1.6a.2.2 0 0 1-.136-.054zm-1.174-1.026c.05 0 .1.02.136.054l1.094-1.168a1.8 1.8 0 0 0-1.23-.486zm5.784 10.224c0 .03-.004.048-.006.053-.001.005.001-.006.015-.02l1.188 1.072a1.64 1.64 0 0 0 .404-1.105zM58.072 85.242a.2.2 0 0 1 .081-.017v-1.6a1.8 1.8 0 0 0-.727.153z"/><path stroke="#191919" stroke-linecap="round" stroke-width="1.6" d="M54.432 85.375h-.848a.894.894 0 0 0-.372.077c-.488.223-1.212.649-1.212 1.046v9.543c0 .561.278 1.684 1.39 1.684h13.691"/><path fill="#191919" d="M52.543 82.413a.8.8 0 1 0-1.086 1.174zm16.914 18.274a.8.8 0 1 0 1.086-1.174zm-18-17.1c3.602 3.333 6.292 5.933 8.987 8.538 2.695 2.606 5.396 5.217 9.013 8.562l1.086-1.174c-3.602-3.333-6.292-5.933-8.987-8.538-2.695-2.606-5.396-5.217-9.013-8.562z"/><path stroke="#191919" stroke-width="1.6" d="M63.849 91.075c0 1.639-1.367 3-3.092 3-1.726 0-3.092-1.361-3.092-3s1.366-3 3.092-3c1.725 0 3.092 1.361 3.092 3Z"/></svg>