<svg width="124" height="186" viewBox="0 0 124 186" fill="none" xmlns="http://www.w3.org/2000/svg">
<rect width="100%" height="100%" fill="#f2f2f2" />
<path transform="translate(49 80)" d="M8.73627 6.40782C8.53177 6.59338 8.51642 6.90959 8.70198 7.1141C8.88755 7.3186 9.20376 7.33395 9.40826 7.14839L8.73627 6.40782ZM22.1951 19.7513C21.9962 19.9428 21.9902 20.2593 22.1817 20.4583C22.3733 20.6572 22.6898 20.6631 22.8887 20.4716L22.1951 19.7513ZM22.1008 7.50757L21.8949 7.96321L22.1008 7.50757ZM17.9657 7.15603L17.6189 7.51619L17.9657 7.15603ZM16.7098 5.94667L16.363 6.30683L16.7098 5.94667ZM23.28 19.1872L22.8743 18.8949L23.28 19.1872ZM9.40826 7.14839L10.3469 6.29671L9.67487 5.55614L8.73627 6.40782L9.40826 7.14839ZM10.6828 6.16699H16.0161V5.16699H10.6828V6.16699ZM16.363 6.30683L17.6189 7.51619L18.3125 6.79586L17.0566 5.5865L16.363 6.30683ZM18.6593 7.9357H21.7437V6.9357H18.6593V7.9357ZM21.8949 7.96321C22.1352 8.07179 22.4277 8.23905 22.6511 8.43633C22.8889 8.64624 22.9603 8.80998 22.9603 8.90962H23.9603C23.9603 8.37424 23.6206 7.95836 23.313 7.68671C22.991 7.40243 22.6038 7.18617 22.3067 7.05193L21.8949 7.96321ZM22.9603 8.90962C22.9603 8.91096 22.9603 8.91232 22.9603 8.91369C22.9603 8.91507 22.9603 8.91646 22.9603 8.91788C22.9603 8.91929 22.9603 8.92073 22.9603 8.92218C22.9603 8.92364 22.9603 8.92511 22.9603 8.92661C22.9603 8.9281 22.9603 8.92961 22.9603 8.93115C22.9603 8.93268 22.9603 8.93423 22.9603 8.9358C22.9603 8.93738 22.9603 8.93897 22.9603 8.94058C22.9603 8.94219 22.9603 8.94382 22.9603 8.94547C22.9603 8.94712 22.9603 8.94879 22.9603 8.95048C22.9603 8.95217 22.9603 8.95387 22.9603 8.9556C22.9603 8.95733 22.9603 8.95907 22.9603 8.96084C22.9603 8.9626 22.9603 8.96439 22.9603 8.96619C22.9603 8.968 22.9603 8.96982 22.9603 8.97166C22.9603 8.9735 22.9603 8.97537 22.9603 8.97725C22.9603 8.97913 22.9603 8.98102 22.9603 8.98294C22.9603 8.98486 22.9603 8.9868 22.9603 8.98875C22.9603 8.99071 22.9603 8.99268 22.9603 8.99468C22.9603 8.99667 22.9603 8.99868 22.9603 9.00071C22.9603 9.00275 22.9603 9.0048 22.9603 9.00686C22.9603 9.00893 22.9603 9.01102 22.9603 9.01313C22.9603 9.01523 22.9603 9.01736 22.9603 9.0195C22.9603 9.02164 22.9603 9.02381 22.9603 9.02599C22.9603 9.02817 22.9603 9.03037 22.9603 9.03258C22.9603 9.0348 22.9603 9.03704 22.9603 9.03929C22.9603 9.04154 22.9603 9.04382 22.9603 9.04611C22.9603 9.0484 22.9603 9.05071 22.9603 9.05304C22.9603 9.05536 22.9603 9.05771 22.9603 9.06007C22.9603 9.06244 22.9603 9.06482 22.9603 9.06722C22.9603 9.06962 22.9603 9.07204 22.9603 9.07448C22.9603 9.07692 22.9603 9.07937 22.9603 9.08184C22.9603 9.08432 22.9603 9.08681 22.9603 9.08932C22.9603 9.09183 22.9603 9.09435 22.9603 9.0969C22.9603 9.09944 22.9603 9.10201 22.9603 9.10459C22.9603 9.10717 22.9603 9.10977 22.9603 9.11239C22.9603 9.115 22.9603 9.11764 22.9603 9.12029C22.9603 9.12294 22.9603 9.12561 22.9603 9.1283C22.9603 9.13099 22.9603 9.13369 22.9603 9.13642C22.9603 9.13914 22.9603 9.14188 22.9603 9.14464C22.9603 9.1474 22.9603 9.15017 22.9603 9.15297C22.9603 9.15576 22.9603 9.15857 22.9603 9.1614C22.9603 9.16423 22.9603 9.16707 22.9603 9.16994C22.9603 9.1728 22.9603 9.17568 22.9603 9.17858C22.9603 9.18148 22.9603 9.18439 22.9603 9.18733C22.9603 9.19026 22.9603 9.19321 22.9603 9.19618C22.9603 9.19914 22.9603 9.20213 22.9603 9.20513C22.9603 9.20813 22.9603 9.21115 22.9603 9.21419C22.9603 9.21722 22.9603 9.22028 22.9603 9.22335C22.9603 9.22642 22.9603 9.2295 22.9603 9.23261C22.9603 9.23571 22.9603 9.23883 22.9603 9.24197C22.9603 9.24511 22.9603 9.24827 22.9603 9.25144C22.9603 9.25461 22.9603 9.2578 22.9603 9.261C22.9603 9.26421 22.9603 9.26743 22.9603 9.27067C22.9603 9.27391 22.9603 9.27717 22.9603 9.28044C22.9603 9.28371 22.9603 9.287 22.9603 9.29031C22.9603 9.29362 22.9603 9.29694 22.9603 9.30028C22.9603 9.30362 22.9603 9.30697 22.9603 9.31034C22.9603 9.31372 22.9603 9.31711 22.9603 9.32051C22.9603 9.32392 22.9603 9.32734 22.9603 9.33078C22.9603 9.33422 22.9603 9.33767 22.9603 9.34114C22.9603 9.34461 22.9603 9.3481 22.9603 9.3516C22.9603 9.35511 22.9603 9.35863 22.9603 9.36216C22.9603 9.3657 22.9603 9.36925 22.9603 9.37282C22.9603 9.37639 22.9603 9.37997 22.9603 9.38358C22.9603 9.38718 22.9603 9.39079 22.9603 9.39443C22.9603 9.39806 22.9603 9.40171 22.9603 9.40537C22.9603 9.40904 22.9603 9.41272 22.9603 9.41642C22.9603 9.42011 22.9603 9.42383 22.9603 9.42756C22.9603 9.43128 22.9603 9.43503 22.9603 9.43879C22.9603 9.44255 22.9603 9.44633 22.9603 9.45012C22.9603 9.45391 22.9603 9.45772 22.9603 9.46154C22.9603 9.46537 22.9603 9.4692 22.9603 9.47306C22.9603 9.47691 22.9603 9.48078 22.9603 9.48467C22.9603 9.48856 22.9603 9.49246 22.9603 9.49638C22.9603 9.50029 22.9603 9.50423 22.9603 9.50817C22.9603 9.51212 22.9603 9.51609 22.9603 9.52006C22.9603 9.52404 22.9603 9.52804 22.9603 9.53205C22.9603 9.53606 22.9603 9.54008 22.9603 9.54412C22.9603 9.54816 22.9603 9.55222 22.9603 9.55629C22.9603 9.56036 22.9603 9.56445 22.9603 9.56855C22.9603 9.57265 22.9603 9.57677 22.9603 9.5809C22.9603 9.58503 22.9603 9.58918 22.9603 9.59334C22.9603 9.5975 22.9603 9.60168 22.9603 9.60587C22.9603 9.61006 22.9603 9.61427 22.9603 9.61849C22.9603 9.62271 22.9603 9.62695 22.9603 9.6312C22.9603 9.63545 22.9603 9.63971 22.9603 9.644C22.9603 9.64828 22.9603 9.65257 22.9603 9.65688C22.9603 9.66119 22.9603 9.66552 22.9603 9.66986C22.9603 9.6742 22.9603 9.67855 22.9603 9.68292C22.9603 9.68729 22.9603 9.69168 22.9603 9.69607C22.9603 9.70047 22.9603 9.70489 22.9603 9.70931C22.9603 9.71374 22.9603 9.71818 22.9603 9.72264C22.9603 9.7271 22.9603 9.73157 22.9603 9.73605C22.9603 9.74054 22.9603 9.74504 22.9603 9.74955C22.9603 9.75407 22.9603 9.7586 22.9603 9.76314C22.9603 9.76768 22.9603 9.77224 22.9603 9.77681C22.9603 9.78138 22.9603 9.78597 22.9603 9.79057C22.9603 9.79517 22.9603 9.79978 22.9603 9.80441C22.9603 9.80904 22.9603 9.81368 22.9603 9.81833C22.9603 9.82299 22.9603 9.82766 22.9603 9.83235C22.9603 9.83703 22.9603 9.84173 22.9603 9.84644C22.9603 9.85115 22.9603 9.85588 22.9603 9.86062C22.9603 9.86536 22.9603 9.87011 22.9603 9.87488C22.9603 9.87965 22.9603 9.88443 22.9603 9.88922C22.9603 9.89402 22.9603 9.89883 22.9603 9.90365C22.9603 9.90847 22.9603 9.91331 22.9603 9.91816C22.9603 9.92301 22.9603 9.92787 22.9603 9.93275C22.9603 9.93762 22.9603 9.94251 22.9603 9.94742C22.9603 9.95232 22.9603 9.95724 22.9603 9.96217C22.9603 9.9671 22.9603 9.97204 22.9603 9.977C22.9603 9.98196 22.9603 9.98693 22.9603 9.99192C22.9603 9.9969 22.9603 10.0019 22.9603 10.0069C22.9603 10.0119 22.9603 10.0169 22.9603 10.022C22.9603 10.027 22.9603 10.0321 22.9603 10.0371C22.9603 10.0422 22.9603 10.0473 22.9603 10.0524C22.9603 10.0575 22.9603 10.0626 22.9603 10.0677C22.9603 10.0728 22.9603 10.0779 22.9603 10.0831C22.9603 10.0882 22.9603 10.0934 22.9603 10.0985C22.9603 10.1037 22.9603 10.1089 22.9603 10.1141C22.9603 10.1193 22.9603 10.1245 22.9603 10.1297C22.9603 10.1349 22.9603 10.1401 22.9603 10.1454C22.9603 10.1506 22.9603 10.1559 22.9603 10.1612C22.9603 10.1664 22.9603 10.1717 22.9603 10.177C22.9603 10.1823 22.9603 10.1876 22.9603 10.1929C22.9603 10.1983 22.9603 10.2036 22.9603 10.2089C22.9603 10.2143 22.9603 10.2196 22.9603 10.225C22.9603 10.2304 22.9603 10.2358 22.9603 10.2412C22.9603 10.2466 22.9603 10.252 22.9603 10.2574C22.9603 10.2628 22.9603 10.2682 22.9603 10.2737C22.9603 10.2791 22.9603 10.2846 22.9603 10.2901C22.9603 10.2955 22.9603 10.301 22.9603 10.3065C22.9603 10.312 22.9603 10.3175 22.9603 10.323C22.9603 10.3285 22.9603 10.3341 22.9603 10.3396C22.9603 10.3452 22.9603 10.3507 22.9603 10.3563C22.9603 10.3618 22.9603 10.3674 22.9603 10.373C22.9603 10.3786 22.9603 10.3842 22.9603 10.3898C22.9603 10.3954 22.9603 10.4011 22.9603 10.4067C22.9603 10.4123 22.9603 10.418 22.9603 10.4236C22.9603 10.4293 22.9603 10.435 22.9603 10.4407C22.9603 10.4463 22.9603 10.452 22.9603 10.4577C22.9603 10.4635 22.9603 10.4692 22.9603 10.4749C22.9603 10.4806 22.9603 10.4864 22.9603 10.4921C22.9603 10.4979 22.9603 10.5037 22.9603 10.5094C22.9603 10.5152 22.9603 10.521 22.9603 10.5268C22.9603 10.5326 22.9603 10.5384 22.9603 10.5442C22.9603 10.5501 22.9603 10.5559 22.9603 10.5617C22.9603 10.5676 22.9603 10.5734 22.9603 10.5793C22.9603 10.5852 22.9603 10.591 22.9603 10.5969C22.9603 10.6028 22.9603 10.6087 22.9603 10.6146C22.9603 10.6205 22.9603 10.6265 22.9603 10.6324C22.9603 10.6383 22.9603 10.6443 22.9603 10.6502C22.9603 10.6562 22.9603 10.6622 22.9603 10.6681C22.9603 10.6741 22.9603 10.6801 22.9603 10.6861C22.9603 10.6921 22.9603 10.6981 22.9603 10.7041C22.9603 10.7102 22.9603 10.7162 22.9603 10.7222C22.9603 10.7283 22.9603 10.7343 22.9603 10.7404C22.9603 10.7465 22.9603 10.7525 22.9603 10.7586C22.9603 10.7647 22.9603 10.7708 22.9603 10.7769C22.9603 10.783 22.9603 10.7891 22.9603 10.7953C22.9603 10.8014 22.9603 10.8075 22.9603 10.8137C22.9603 10.8198 22.9603 10.826 22.9603 10.8322C22.9603 10.8383 22.9603 10.8445 22.9603 10.8507C22.9603 10.8569 22.9603 10.8631 22.9603 10.8693C22.9603 10.8755 22.9603 10.8817 22.9603 10.888C22.9603 10.8942 22.9603 10.9004 22.9603 10.9067C22.9603 10.9129 22.9603 10.9192 22.9603 10.9255C22.9603 10.9317 22.9603 10.938 22.9603 10.9443C22.9603 10.9506 22.9603 10.9569 22.9603 10.9632C22.9603 10.9695 22.9603 10.9758 22.9603 10.9822C22.9603 10.9885 22.9603 10.9949 22.9603 11.0012C22.9603 11.0076 22.9603 11.0139 22.9603 11.0203C22.9603 11.0267 22.9603 11.033 22.9603 11.0394C22.9603 11.0458 22.9603 11.0522 22.9603 11.0586C22.9603 11.065 22.9603 11.0715 22.9603 11.0779C22.9603 11.0843 22.9603 11.0908 22.9603 11.0972C22.9603 11.1036 22.9603 11.1101 22.9603 11.1166C22.9603 11.123 22.9603 11.1295 22.9603 11.136C22.9603 11.1425 22.9603 11.149 22.9603 11.1555C22.9603 11.162 22.9603 11.1685 22.9603 11.175C22.9603 11.1816 22.9603 11.1881 22.9603 11.1946C22.9603 11.2012 22.9603 11.2077 22.9603 11.2143C22.9603 11.2208 22.9603 11.2274 22.9603 11.234C22.9603 11.2406 22.9603 11.2472 22.9603 11.2538C22.9603 11.2604 22.9603 11.267 22.9603 11.2736C22.9603 11.2802 22.9603 11.2868 22.9603 11.2934C22.9603 11.3001 22.9603 11.3067 22.9603 11.3134C22.9603 11.32 22.9603 11.3267 22.9603 11.3334C22.9603 11.34 22.9603 11.3467 22.9603 11.3534C22.9603 11.3601 22.9603 11.3668 22.9603 11.3735C22.9603 11.3802 22.9603 11.3869 22.9603 11.3936C22.9603 11.4003 22.9603 11.4071 22.9603 11.4138C22.9603 11.4205 22.9603 11.4273 22.9603 11.434C22.9603 11.4408 22.9603 11.4476 22.9603 11.4543C22.9603 11.4611 22.9603 11.4679 22.9603 11.4747C22.9603 11.4815 22.9603 11.4883 22.9603 11.4951C22.9603 11.5019 22.9603 11.5087 22.9603 11.5155C22.9603 11.5223 22.9603 11.5292 22.9603 11.536C22.9603 11.5428 22.9603 11.5497 22.9603 11.5565C22.9603 11.5634 22.9603 11.5703 22.9603 11.5771C22.9603 11.584 22.9603 11.5909 22.9603 11.5978C22.9603 11.6047 22.9603 11.6116 22.9603 11.6185C22.9603 11.6254 22.9603 11.6323 22.9603 11.6392C22.9603 11.6461 22.9603 11.653 22.9603 11.66C22.9603 11.6669 22.9603 11.6739 22.9603 11.6808C22.9603 11.6878 22.9603 11.6947 22.9603 11.7017C22.9603 11.7087 22.9603 11.7156 22.9603 11.7226C22.9603 11.7296 22.9603 11.7366 22.9603 11.7436C22.9603 11.7506 22.9603 11.7576 22.9603 11.7646C22.9603 11.7716 22.9603 11.7786 22.9603 11.7857C22.9603 11.7927 22.9603 11.7997 22.9603 11.8068C22.9603 11.8138 22.9603 11.8209 22.9603 11.8279C22.9603 11.835 22.9603 11.8421 22.9603 11.8491C22.9603 11.8562 22.9603 11.8633 22.9603 11.8704C22.9603 11.8775 22.9603 11.8846 22.9603 11.8917C22.9603 11.8988 22.9603 11.9059 22.9603 11.913C22.9603 11.9201 22.9603 11.9272 22.9603 11.9344C22.9603 11.9415 22.9603 11.9486 22.9603 11.9558C22.9603 11.9629 22.9603 11.9701 22.9603 11.9772C22.9603 11.9844 22.9603 11.9915 22.9603 11.9987C22.9603 12.0059 22.9603 12.0131 22.9603 12.0203C22.9603 12.0275 22.9603 12.0346 22.9603 12.0418C22.9603 12.049 22.9603 12.0563 22.9603 12.0635C22.9603 12.0707 22.9603 12.0779 22.9603 12.0851C22.9603 12.0924 22.9603 12.0996 22.9603 12.1068C22.9603 12.1141 22.9603 12.1213 22.9603 12.1286C22.9603 12.1358 22.9603 12.1431 22.9603 12.1504C22.9603 12.1576 22.9603 12.1649 22.9603 12.1722C22.9603 12.1795 22.9603 12.1867 22.9603 12.194C22.9603 12.2013 22.9603 12.2086 22.9603 12.2159C22.9603 12.2232 22.9603 12.2306 22.9603 12.2379C22.9603 12.2452 22.9603 12.2525 22.9603 12.2599C22.9603 12.2672 22.9603 12.2745 22.9603 12.2819C22.9603 12.2892 22.9603 12.2966 22.9603 12.3039C22.9603 12.3113 22.9603 12.3186 22.9603 12.326C22.9603 12.3334 22.9603 12.3407 22.9603 12.3481C22.9603 12.3555 22.9603 12.3629 22.9603 12.3703C22.9603 12.3777 22.9603 12.3851 22.9603 12.3925C22.9603 12.3999 22.9603 12.4073 22.9603 12.4147C22.9603 12.4221 22.9603 12.4295 22.9603 12.437C22.9603 12.4444 22.9603 12.4518 22.9603 12.4593C22.9603 12.4667 22.9603 12.4741 22.9603 12.4816C22.9603 12.489 22.9603 12.4965 22.9603 12.504C22.9603 12.5114 22.9603 12.5189 22.9603 12.5264C22.9603 12.5338 22.9603 12.5413 22.9603 12.5488C22.9603 12.5563 22.9603 12.5638 22.9603 12.5713C22.9603 12.5787 22.9603 12.5862 22.9603 12.5938C22.9603 12.6013 22.9603 12.6088 22.9603 12.6163C22.9603 12.6238 22.9603 12.6313 22.9603 12.6388C22.9603 12.6464 22.9603 12.6539 22.9603 12.6614C22.9603 12.669 22.9603 12.6765 22.9603 12.6841C22.9603 12.6916 22.9603 12.6992 22.9603 12.7067C22.9603 12.7143 22.9603 12.7218 22.9603 12.7294C22.9603 12.737 22.9603 12.7445 22.9603 12.7521C22.9603 12.7597 22.9603 12.7673 22.9603 12.7749C22.9603 12.7824 22.9603 12.79 22.9603 12.7976C22.9603 12.8052 22.9603 12.8128 22.9603 12.8204C22.9603 12.828 22.9603 12.8356 22.9603 12.8433C22.9603 12.8509 22.9603 12.8585 22.9603 12.8661C22.9603 12.8737 22.9603 12.8814 22.9603 12.889C22.9603 12.8966 22.9603 12.9043 22.9603 12.9119C22.9603 12.9196 22.9603 12.9272 22.9603 12.9349C22.9603 12.9425 22.9603 12.9502 22.9603 12.9578C22.9603 12.9655 22.9603 12.9732 22.9603 12.9808C22.9603 12.9885 22.9603 12.9962 22.9603 13.0038C22.9603 13.0115 22.9603 13.0192 22.9603 13.0269C22.9603 13.0346 22.9603 13.0423 22.9603 13.05C22.9603 13.0577 22.9603 13.0654 22.9603 13.0731C22.9603 13.0808 22.9603 13.0885 22.9603 13.0962C22.9603 13.1039 22.9603 13.1116 22.9603 13.1193C22.9603 13.127 22.9603 13.1348 22.9603 13.1425C22.9603 13.1502 22.9603 13.1579 22.9603 13.1657C22.9603 13.1734 22.9603 13.1812 22.9603 13.1889C22.9603 13.1966 22.9603 13.2044 22.9603 13.2121C22.9603 13.2199 22.9603 13.2276 22.9603 13.2354C22.9603 13.2432 22.9603 13.2509 22.9603 13.2587C22.9603 13.2664 22.9603 13.2742 22.9603 13.282C22.9603 13.2898 22.9603 13.2975 22.9603 13.3053C22.9603 13.3131 22.9603 13.3209 22.9603 13.3287C22.9603 13.3364 22.9603 13.3442 22.9603 13.352C22.9603 13.3598 22.9603 13.3676 22.9603 13.3754C22.9603 13.3832 22.9603 13.391 22.9603 13.3988C22.9603 13.4066 22.9603 13.4144 22.9603 13.4222C22.9603 13.4301 22.9603 13.4379 22.9603 13.4457C22.9603 13.4535 22.9603 13.4613 22.9603 13.4692C22.9603 13.477 22.9603 13.4848 22.9603 13.4926C22.9603 13.5005 22.9603 13.5083 22.9603 13.5161C22.9603 13.524 22.9603 13.5318 22.9603 13.5397C22.9603 13.5475 22.9603 13.5554 22.9603 13.5632C22.9603 13.571 22.9603 13.5789 22.9603 13.5868C22.9603 13.5946 22.9603 13.6025 22.9603 13.6103C22.9603 13.6182 22.9603 13.626 22.9603 13.6339C22.9603 13.6418 22.9603 13.6496 22.9603 13.6575C22.9603 13.6654 22.9603 13.6733 22.9603 13.6811C22.9603 13.689 22.9603 13.6969 22.9603 13.7048C22.9603 13.7127 22.9603 13.7205 22.9603 13.7284C22.9603 13.7363 22.9603 13.7442 22.9603 13.7521C22.9603 13.76 22.9603 13.7679 22.9603 13.7758C22.9603 13.7837 22.9603 13.7916 22.9603 13.7995C22.9603 13.8074 22.9603 13.8153 22.9603 13.8232C22.9603 13.8311 22.9603 13.839 22.9603 13.8469C22.9603 13.8548 22.9603 13.8627 22.9603 13.8706C22.9603 13.8785 22.9603 13.8864 22.9603 13.8944C22.9603 13.9023 22.9603 13.9102 22.9603 13.9181C22.9603 13.926 22.9603 13.934 22.9603 13.9419C22.9603 13.9498 22.9603 13.9577 22.9603 13.9657C22.9603 13.9736 22.9603 13.9815 22.9603 13.9895C22.9603 13.9974 22.9603 14.0053 22.9603 14.0133C22.9603 14.0212 22.9603 14.0291 22.9603 14.0371C22.9603 14.045 22.9603 14.053 22.9603 14.0609C22.9603 14.0688 22.9603 14.0768 22.9603 14.0847C22.9603 14.0927 22.9603 14.1006 22.9603 14.1086C22.9603 14.1165 22.9603 14.1245 22.9603 14.1324C22.9603 14.1404 22.9603 14.1483 22.9603 14.1563C22.9603 14.1642 22.9603 14.1722 22.9603 14.1801C22.9603 14.1881 22.9603 14.1961 22.9603 14.204C22.9603 14.212 22.9603 14.2199 22.9603 14.2279C22.9603 14.2359 22.9603 14.2438 22.9603 14.2518C22.9603 14.2598 22.9603 14.2677 22.9603 14.2757C22.9603 14.2837 22.9603 14.2916 22.9603 14.2996C22.9603 14.3076 22.9603 14.3155 22.9603 14.3235C22.9603 14.3315 22.9603 14.3394 22.9603 14.3474C22.9603 14.3554 22.9603 14.3634 22.9603 14.3713C22.9603 14.3793 22.9603 14.3873 22.9603 14.3953C22.9603 14.4032 22.9603 14.4112 22.9603 14.4192C22.9603 14.4272 22.9603 14.4351 22.9603 14.4431C22.9603 14.4511 22.9603 14.4591 22.9603 14.4671C22.9603 14.475 22.9603 14.483 22.9603 14.491C22.9603 14.499 22.9603 14.507 22.9603 14.515C22.9603 14.5229 22.9603 14.5309 22.9603 14.5389C22.9603 14.5469 22.9603 14.5549 22.9603 14.5629C22.9603 14.5708 22.9603 14.5788 22.9603 14.5868C22.9603 14.5948 22.9603 14.6028 22.9603 14.6108C22.9603 14.6187 22.9603 14.6267 22.9603 14.6347C22.9603 14.6427 22.9603 14.6507 22.9603 14.6587C22.9603 14.6667 22.9603 14.6746 22.9603 14.6826C22.9603 14.6906 22.9603 14.6986 22.9603 14.7066C22.9603 14.7146 22.9603 14.7226 22.9603 14.7305C22.9603 14.7385 22.9603 14.7465 22.9603 14.7545C22.9603 14.7625 22.9603 14.7705 22.9603 14.7785C22.9603 14.7865 22.9603 14.7944 22.9603 14.8024C22.9603 14.8104 22.9603 14.8184 22.9603 14.8264C22.9603 14.8344 22.9603 14.8423 22.9603 14.8503C22.9603 14.8583 22.9603 14.8663 22.9603 14.8743C22.9603 14.8823 22.9603 14.8903 22.9603 14.8982C22.9603 14.9062 22.9603 14.9142 22.9603 14.9222C22.9603 14.9302 22.9603 14.9381 22.9603 14.9461C22.9603 14.9541 22.9603 14.9621 22.9603 14.9701C22.9603 14.978 22.9603 14.986 22.9603 14.994C22.9603 15.002 22.9603 15.01 22.9603 15.0179C22.9603 15.0259 22.9603 15.0339 22.9603 15.0419C22.9603 15.0498 22.9603 15.0578 22.9603 15.0658C22.9603 15.0738 22.9603 15.0817 22.9603 15.0897C22.9603 15.0977 22.9603 15.1056 22.9603 15.1136C22.9603 15.1216 22.9603 15.1295 22.9603 15.1375C22.9603 15.1455 22.9603 15.1535 22.9603 15.1614C22.9603 15.1694 22.9603 15.1773 22.9603 15.1853C22.9603 15.1933 22.9603 15.2012 22.9603 15.2092C22.9603 15.2172 22.9603 15.2251 22.9603 15.2331C22.9603 15.241 22.9603 15.249 22.9603 15.2569C22.9603 15.2649 22.9603 15.2729 22.9603 15.2808C22.9603 15.2888 22.9603 15.2967 22.9603 15.3047C22.9603 15.3126 22.9603 15.3206 22.9603 15.3285C22.9603 15.3365 22.9603 15.3444 22.9603 15.3523C22.9603 15.3603 22.9603 15.3682 22.9603 15.3762C22.9603 15.3841 22.9603 15.392 22.9603 15.4C22.9603 15.4079 22.9603 15.4159 22.9603 15.4238C22.9603 15.4317 22.9603 15.4397 22.9603 15.4476C22.9603 15.4555 22.9603 15.4634 22.9603 15.4714C22.9603 15.4793 22.9603 15.4872 22.9603 15.4951C22.9603 15.5031 22.9603 15.511 22.9603 15.5189C22.9603 15.5268 22.9603 15.5347 22.9603 15.5427C22.9603 15.5506 22.9603 15.5585 22.9603 15.5664C22.9603 15.5743 22.9603 15.5822 22.9603 15.5901C22.9603 15.598 22.9603 15.6059 22.9603 15.6138C22.9603 15.6217 22.9603 15.6296 22.9603 15.6375C22.9603 15.6454 22.9603 15.6533 22.9603 15.6612C22.9603 15.6691 22.9603 15.677 22.9603 15.6849C22.9603 15.6928 22.9603 15.7007 22.9603 15.7085C22.9603 15.7164 22.9603 15.7243 22.9603 15.7322C22.9603 15.7401 22.9603 15.7479 22.9603 15.7558C22.9603 15.7637 22.9603 15.7716 22.9603 15.7794C22.9603 15.7873 22.9603 15.7952 22.9603 15.803C22.9603 15.8109 22.9603 15.8187 22.9603 15.8266C22.9603 15.8345 22.9603 15.8423 22.9603 15.8502C22.9603 15.858 22.9603 15.8659 22.9603 15.8737C22.9603 15.8815 22.9603 15.8894 22.9603 15.8972C22.9603 15.9051 22.9603 15.9129 22.9603 15.9207C22.9603 15.9286 22.9603 15.9364 22.9603 15.9442C22.9603 15.9521 22.9603 15.9599 22.9603 15.9677C22.9603 15.9755 22.9603 15.9833 22.9603 15.9912C22.9603 15.999 22.9603 16.0068 22.9603 16.0146C22.9603 16.0224 22.9603 16.0302 22.9603 16.038C22.9603 16.0458 22.9603 16.0536 22.9603 16.0614C22.9603 16.0692 22.9603 16.077 22.9603 16.0848C22.9603 16.0926 22.9603 16.1004 22.9603 16.1081C22.9603 16.1159 22.9603 16.1237 22.9603 16.1315C22.9603 16.1393 22.9603 16.147 22.9603 16.1548C22.9603 16.1626 22.9603 16.1703 22.9603 16.1781C22.9603 16.1858 22.9603 16.1936 22.9603 16.2014C22.9603 16.2091 22.9603 16.2169 22.9603 16.2246C22.9603 16.2323 22.9603 16.2401 22.9603 16.2478C22.9603 16.2556 22.9603 16.2633 22.9603 16.271C22.9603 16.2788 22.9603 16.2865 22.9603 16.2942C22.9603 16.3019 22.9603 16.3096 22.9603 16.3174C22.9603 16.3251 22.9603 16.3328 22.9603 16.3405C22.9603 16.3482 22.9603 16.3559 22.9603 16.3636C22.9603 16.3713 22.9603 16.379 22.9603 16.3867C22.9603 16.3944 22.9603 16.4021 22.9603 16.4097C22.9603 16.4174 22.9603 16.4251 22.9603 16.4328C22.9603 16.4404 22.9603 16.4481 22.9603 16.4558C22.9603 16.4634 22.9603 16.4711 22.9603 16.4788C22.9603 16.4864 22.9603 16.4941 22.9603 16.5017C22.9603 16.5094 22.9603 16.517 22.9603 16.5246C22.9603 16.5323 22.9603 16.5399 22.9603 16.5475C22.9603 16.5552 22.9603 16.5628 22.9603 16.5704C22.9603 16.578 22.9603 16.5856 22.9603 16.5932C22.9603 16.6009 22.9603 16.6085 22.9603 16.6161C22.9603 16.6237 22.9603 16.6313 22.9603 16.6388C22.9603 16.6464 22.9603 16.654 22.9603 16.6616C22.9603 16.6692 22.9603 16.6768 22.9603 16.6843C22.9603 16.6919 22.9603 16.6995 22.9603 16.707C22.9603 16.7146 22.9603 16.7221 22.9603 16.7297C22.9603 16.7372 22.9603 16.7448 22.9603 16.7523C22.9603 16.7599 22.9603 16.7674 22.9603 16.7749C22.9603 16.7825 22.9603 16.79 22.9603 16.7975C22.9603 16.805 22.9603 16.8126 22.9603 16.8201C22.9603 16.8276 22.9603 16.8351 22.9603 16.8426C22.9603 16.8501 22.9603 16.8576 22.9603 16.8651C22.9603 16.8725 22.9603 16.88 22.9603 16.8875C22.9603 16.895 22.9603 16.9024 22.9603 16.9099C22.9603 16.9174 22.9603 16.9248 22.9603 16.9323C22.9603 16.9397 22.9603 16.9472 22.9603 16.9546C22.9603 16.9621 22.9603 16.9695 22.9603 16.977C22.9603 16.9844 22.9603 16.9918 22.9603 16.9992C22.9603 17.0067 22.9603 17.0141 22.9603 17.0215C22.9603 17.0289 22.9603 17.0363 22.9603 17.0437C22.9603 17.0511 22.9603 17.0585 22.9603 17.0659C22.9603 17.0732 22.9603 17.0806 22.9603 17.088C22.9603 17.0954 22.9603 17.1027 22.9603 17.1101C22.9603 17.1175 22.9603 17.1248 22.9603 17.1322C22.9603 17.1395 22.9603 17.1469 22.9603 17.1542C22.9603 17.1615 22.9603 17.1689 22.9603 17.1762C22.9603 17.1835 22.9603 17.1908 22.9603 17.1981C22.9603 17.2054 22.9603 17.2128 22.9603 17.2201C22.9603 17.2273 22.9603 17.2346 22.9603 17.2419C22.9603 17.2492 22.9603 17.2565 22.9603 17.2638C22.9603 17.271 22.9603 17.2783 22.9603 17.2856C22.9603 17.2928 22.9603 17.3001 22.9603 17.3073C22.9603 17.3146 22.9603 17.3218 22.9603 17.329C22.9603 17.3363 22.9603 17.3435 22.9603 17.3507C22.9603 17.3579 22.9603 17.3652 22.9603 17.3724C22.9603 17.3796 22.9603 17.3868 22.9603 17.394C22.9603 17.4012 22.9603 17.4083 22.9603 17.4155C22.9603 17.4227 22.9603 17.4299 22.9603 17.437C22.9603 17.4442 22.9603 17.4514 22.9603 17.4585C22.9603 17.4657 22.9603 17.4728 22.9603 17.48C22.9603 17.4871 22.9603 17.4942 22.9603 17.5013C22.9603 17.5085 22.9603 17.5156 22.9603 17.5227C22.9603 17.5298 22.9603 17.5369 22.9603 17.544C22.9603 17.5511 22.9603 17.5582 22.9603 17.5653C22.9603 17.5723 22.9603 17.5794 22.9603 17.5865C22.9603 17.5935 22.9603 17.6006 22.9603 17.6076C22.9603 17.6147 22.9603 17.6217 22.9603 17.6288C22.9603 17.6358 22.9603 17.6428 22.9603 17.6499C22.9603 17.6569 22.9603 17.6639 22.9603 17.6709C22.9603 17.6779 22.9603 17.6849 22.9603 17.6919C22.9603 17.6989 22.9603 17.7059 22.9603 17.7128C22.9603 17.7198 22.9603 17.7268 22.9603 17.7337C22.9603 17.7407 22.9603 17.7476 22.9603 17.7546C22.9603 17.7615 22.9603 17.7685 22.9603 17.7754C22.9603 17.7823 22.9603 17.7892 22.9603 17.7961C22.9603 17.8031 22.9603 17.81 22.9603 17.8169C22.9603 17.8237 22.9603 17.8306 22.9603 17.8375C22.9603 17.8444 22.9603 17.8513 22.9603 17.8581C22.9603 17.865 22.9603 17.8718 22.9603 17.8787C22.9603 17.8855 22.9603 17.8924 22.9603 17.8992C22.9603 17.906 22.9603 17.9129 22.9603 17.9197C22.9603 17.9265 22.9603 17.9333 22.9603 17.9401C22.9603 17.9469 22.9603 17.9537 22.9603 17.9604C22.9603 17.9672 22.9603 17.974 22.9603 17.9808C22.9603 17.9875 22.9603 17.9943 22.9603 18.001C22.9603 18.0078 22.9603 18.0145 22.9603 18.0212C22.9603 18.028 22.9603 18.0347 22.9603 18.0414C22.9603 18.0481 22.9603 18.0548 22.9603 18.0615C22.9603 18.0682 22.9603 18.0749 22.9603 18.0816C22.9603 18.0882 22.9603 18.0949 22.9603 18.1016C22.9603 18.1082 22.9603 18.1149 22.9603 18.1215C22.9603 18.1282 22.9603 18.1348 22.9603 18.1414C22.9603 18.148 22.9603 18.1546 22.9603 18.1613C22.9603 18.1679 22.9603 18.1745 22.9603 18.181C22.9603 18.1876 22.9603 18.1942 22.9603 18.2008C22.9603 18.2073 22.9603 18.2139 22.9603 18.2204C22.9603 18.227 22.9603 18.2335 22.9603 18.2401C22.9603 18.2466 22.9603 18.2531 22.9603 18.2596C22.9603 18.2662 22.9603 18.2727 22.9603 18.2792C22.9603 18.2856 22.9603 18.2921 22.9603 18.2986C22.9603 18.3051 22.9603 18.3115 22.9603 18.318C22.9603 18.3245 22.9603 18.3309 22.9603 18.3373C22.9603 18.3438 22.9603 18.3502 22.9603 18.3566C22.9603 18.363 22.9603 18.3695 22.9603 18.3759C22.9603 18.3823 22.9603 18.3886 22.9603 18.395C22.9603 18.4014 22.9603 18.4078 22.9603 18.4141C22.9603 18.4205 22.9603 18.4268 22.9603 18.4332C22.9603 18.4395 22.9603 18.4458 22.9603 18.4522C22.9603 18.4585 22.9603 18.4648 22.9603 18.4711C22.9603 18.4774 22.9603 18.4837 22.9603 18.49C22.9603 18.4963 22.9603 18.5025 22.9603 18.5088C22.9603 18.515 22.9603 18.5213 22.9603 18.5275C22.9603 18.5338 22.9603 18.54 22.9603 18.5462C22.9603 18.5524 22.9603 18.5587 22.9603 18.5649C22.9603 18.5711 22.9603 18.5772 22.9603 18.5834C22.9603 18.5896 22.9603 18.5958 22.9603 18.6019C22.9603 18.6081 22.9603 18.6142 22.9603 18.6204H23.9603C23.9603 18.6142 23.9603 18.6081 23.9603 18.6019C23.9603 18.5958 23.9603 18.5896 23.9603 18.5834C23.9603 18.5772 23.9603 18.5711 23.9603 18.5649C23.9603 18.5587 23.9603 18.5524 23.9603 18.5462C23.9603 18.54 23.9603 18.5338 23.9603 18.5275C23.9603 18.5213 23.9603 18.515 23.9603 18.5088C23.9603 18.5025 23.9603 18.4963 23.9603 18.49C23.9603 18.4837 23.9603 18.4774 23.9603 18.4711C23.9603 18.4648 23.9603 18.4585 23.9603 18.4522C23.9603 18.4458 23.9603 18.4395 23.9603 18.4332C23.9603 18.4268 23.9603 18.4205 23.9603 18.4141C23.9603 18.4078 23.9603 18.4014 23.9603 18.395C23.9603 18.3886 23.9603 18.3823 23.9603 18.3759C23.9603 18.3695 23.9603 18.363 23.9603 18.3566C23.9603 18.3502 23.9603 18.3438 23.9603 18.3373C23.9603 18.3309 23.9603 18.3245 23.9603 18.318C23.9603 18.3115 23.9603 18.3051 23.9603 18.2986C23.9603 18.2921 23.9603 18.2856 23.9603 18.2792C23.9603 18.2727 23.9603 18.2662 23.9603 18.2596C23.9603 18.2531 23.9603 18.2466 23.9603 18.2401C23.9603 18.2335 23.9603 18.227 23.9603 18.2204C23.9603 18.2139 23.9603 18.2073 23.9603 18.2008C23.9603 18.1942 23.9603 18.1876 23.9603 18.181C23.9603 18.1745 23.9603 18.1679 23.9603 18.1613C23.9603 18.1546 23.9603 18.148 23.9603 18.1414C23.9603 18.1348 23.9603 18.1282 23.9603 18.1215C23.9603 18.1149 23.9603 18.1082 23.9603 18.1016C23.9603 18.0949 23.9603 18.0882 23.9603 18.0816C23.9603 18.0749 23.9603 18.0682 23.9603 18.0615C23.9603 18.0548 23.9603 18.0481 23.9603 18.0414C23.9603 18.0347 23.9603 18.028 23.9603 18.0212C23.9603 18.0145 23.9603 18.0078 23.9603 18.001C23.9603 17.9943 23.9603 17.9875 23.9603 17.9808C23.9603 17.974 23.9603 17.9672 23.9603 17.9604C23.9603 17.9537 23.9603 17.9469 23.9603 17.9401C23.9603 17.9333 23.9603 17.9265 23.9603 17.9197C23.9603 17.9129 23.9603 17.906 23.9603 17.8992C23.9603 17.8924 23.9603 17.8855 23.9603 17.8787C23.9603 17.8718 23.9603 17.865 23.9603 17.8581C23.9603 17.8513 23.9603 17.8444 23.9603 17.8375C23.9603 17.8306 23.9603 17.8237 23.9603 17.8169C23.9603 17.81 23.9603 17.8031 23.9603 17.7961C23.9603 17.7892 23.9603 17.7823 23.9603 17.7754C23.9603 17.7685 23.9603 17.7615 23.9603 17.7546C23.9603 17.7476 23.9603 17.7407 23.9603 17.7337C23.9603 17.7268 23.9603 17.7198 23.9603 17.7128C23.9603 17.7059 23.9603 17.6989 23.9603 17.6919C23.9603 17.6849 23.9603 17.6779 23.9603 17.6709C23.9603 17.6639 23.9603 17.6569 23.9603 17.6499C23.9603 17.6428 23.9603 17.6358 23.9603 17.6288C23.9603 17.6217 23.9603 17.6147 23.9603 17.6076C23.9603 17.6006 23.9603 17.5935 23.9603 17.5865C23.9603 17.5794 23.9603 17.5723 23.9603 17.5653C23.9603 17.5582 23.9603 17.5511 23.9603 17.544C23.9603 17.5369 23.9603 17.5298 23.9603 17.5227C23.9603 17.5156 23.9603 17.5085 23.9603 17.5013C23.9603 17.4942 23.9603 17.4871 23.9603 17.48C23.9603 17.4728 23.9603 17.4657 23.9603 17.4585C23.9603 17.4514 23.9603 17.4442 23.9603 17.437C23.9603 17.4299 23.9603 17.4227 23.9603 17.4155C23.9603 17.4083 23.9603 17.4012 23.9603 17.394C23.9603 17.3868 23.9603 17.3796 23.9603 17.3724C23.9603 17.3652 23.9603 17.3579 23.9603 17.3507C23.9603 17.3435 23.9603 17.3363 23.9603 17.329C23.9603 17.3218 23.9603 17.3146 23.9603 17.3073C23.9603 17.3001 23.9603 17.2928 23.9603 17.2856C23.9603 17.2783 23.9603 17.271 23.9603 17.2638C23.9603 17.2565 23.9603 17.2492 23.9603 17.2419C23.9603 17.2346 23.9603 17.2273 23.9603 17.2201C23.9603 17.2128 23.9603 17.2054 23.9603 17.1981C23.9603 17.1908 23.9603 17.1835 23.9603 17.1762C23.9603 17.1689 23.9603 17.1615 23.9603 17.1542C23.9603 17.1469 23.9603 17.1395 23.9603 17.1322C23.9603 17.1248 23.9603 17.1175 23.9603 17.1101C23.9603 17.1027 23.9603 17.0954 23.9603 17.088C23.9603 17.0806 23.9603 17.0732 23.9603 17.0659C23.9603 17.0585 23.9603 17.0511 23.9603 17.0437C23.9603 17.0363 23.9603 17.0289 23.9603 17.0215C23.9603 17.0141 23.9603 17.0067 23.9603 16.9992C23.9603 16.9918 23.9603 16.9844 23.9603 16.977C23.9603 16.9695 23.9603 16.9621 23.9603 16.9546C23.9603 16.9472 23.9603 16.9397 23.9603 16.9323C23.9603 16.9248 23.9603 16.9174 23.9603 16.9099C23.9603 16.9024 23.9603 16.895 23.9603 16.8875C23.9603 16.88 23.9603 16.8725 23.9603 16.8651C23.9603 16.8576 23.9603 16.8501 23.9603 16.8426C23.9603 16.8351 23.9603 16.8276 23.9603 16.8201C23.9603 16.8126 23.9603 16.805 23.9603 16.7975C23.9603 16.79 23.9603 16.7825 23.9603 16.7749C23.9603 16.7674 23.9603 16.7599 23.9603 16.7523C23.9603 16.7448 23.9603 16.7372 23.9603 16.7297C23.9603 16.7221 23.9603 16.7146 23.9603 16.707C23.9603 16.6995 23.9603 16.6919 23.9603 16.6843C23.9603 16.6768 23.9603 16.6692 23.9603 16.6616C23.9603 16.654 23.9603 16.6464 23.9603 16.6388C23.9603 16.6313 23.9603 16.6237 23.9603 16.6161C23.9603 16.6085 23.9603 16.6009 23.9603 16.5932C23.9603 16.5856 23.9603 16.578 23.9603 16.5704C23.9603 16.5628 23.9603 16.5552 23.9603 16.5475C23.9603 16.5399 23.9603 16.5323 23.9603 16.5246C23.9603 16.517 23.9603 16.5094 23.9603 16.5017C23.9603 16.4941 23.9603 16.4864 23.9603 16.4788C23.9603 16.4711 23.9603 16.4634 23.9603 16.4558C23.9603 16.4481 23.9603 16.4404 23.9603 16.4328C23.9603 16.4251 23.9603 16.4174 23.9603 16.4097C23.9603 16.4021 23.9603 16.3944 23.9603 16.3867C23.9603 16.379 23.9603 16.3713 23.9603 16.3636C23.9603 16.3559 23.9603 16.3482 23.9603 16.3405C23.9603 16.3328 23.9603 16.3251 23.9603 16.3174C23.9603 16.3096 23.9603 16.3019 23.9603 16.2942C23.9603 16.2865 23.9603 16.2788 23.9603 16.271C23.9603 16.2633 23.9603 16.2556 23.9603 16.2478C23.9603 16.2401 23.9603 16.2323 23.9603 16.2246C23.9603 16.2169 23.9603 16.2091 23.9603 16.2014C23.9603 16.1936 23.9603 16.1858 23.9603 16.1781C23.9603 16.1703 23.9603 16.1626 23.9603 16.1548C23.9603 16.147 23.9603 16.1393 23.9603 16.1315C23.9603 16.1237 23.9603 16.1159 23.9603 16.1081C23.9603 16.1004 23.9603 16.0926 23.9603 16.0848C23.9603 16.077 23.9603 16.0692 23.9603 16.0614C23.9603 16.0536 23.9603 16.0458 23.9603 16.038C23.9603 16.0302 23.9603 16.0224 23.9603 16.0146C23.9603 16.0068 23.9603 15.999 23.9603 15.9912C23.9603 15.9833 23.9603 15.9755 23.9603 15.9677C23.9603 15.9599 23.9603 15.9521 23.9603 15.9442C23.9603 15.9364 23.9603 15.9286 23.9603 15.9207C23.9603 15.9129 23.9603 15.9051 23.9603 15.8972C23.9603 15.8894 23.9603 15.8815 23.9603 15.8737C23.9603 15.8659 23.9603 15.858 23.9603 15.8502C23.9603 15.8423 23.9603 15.8345 23.9603 15.8266C23.9603 15.8187 23.9603 15.8109 23.9603 15.803C23.9603 15.7952 23.9603 15.7873 23.9603 15.7794C23.9603 15.7716 23.9603 15.7637 23.9603 15.7558C23.9603 15.7479 23.9603 15.7401 23.9603 15.7322C23.9603 15.7243 23.9603 15.7164 23.9603 15.7085C23.9603 15.7007 23.9603 15.6928 23.9603 15.6849C23.9603 15.677 23.9603 15.6691 23.9603 15.6612C23.9603 15.6533 23.9603 15.6454 23.9603 15.6375C23.9603 15.6296 23.9603 15.6217 23.9603 15.6138C23.9603 15.6059 23.9603 15.598 23.9603 15.5901C23.9603 15.5822 23.9603 15.5743 23.9603 15.5664C23.9603 15.5585 23.9603 15.5506 23.9603 15.5427C23.9603 15.5347 23.9603 15.5268 23.9603 15.5189C23.9603 15.511 23.9603 15.5031 23.9603 15.4951C23.9603 15.4872 23.9603 15.4793 23.9603 15.4714C23.9603 15.4634 23.9603 15.4555 23.9603 15.4476C23.9603 15.4397 23.9603 15.4317 23.9603 15.4238C23.9603 15.4159 23.9603 15.4079 23.9603 15.4C23.9603 15.392 23.9603 15.3841 23.9603 15.3762C23.9603 15.3682 23.9603 15.3603 23.9603 15.3523C23.9603 15.3444 23.9603 15.3365 23.9603 15.3285C23.9603 15.3206 23.9603 15.3126 23.9603 15.3047C23.9603 15.2967 23.9603 15.2888 23.9603 15.2808C23.9603 15.2729 23.9603 15.2649 23.9603 15.2569C23.9603 15.249 23.9603 15.241 23.9603 15.2331C23.9603 15.2251 23.9603 15.2172 23.9603 15.2092C23.9603 15.2012 23.9603 15.1933 23.9603 15.1853C23.9603 15.1773 23.9603 15.1694 23.9603 15.1614C23.9603 15.1535 23.9603 15.1455 23.9603 15.1375C23.9603 15.1295 23.9603 15.1216 23.9603 15.1136C23.9603 15.1056 23.9603 15.0977 23.9603 15.0897C23.9603 15.0817 23.9603 15.0738 23.9603 15.0658C23.9603 15.0578 23.9603 15.0498 23.9603 15.0419C23.9603 15.0339 23.9603 15.0259 23.9603 15.0179C23.9603 15.01 23.9603 15.002 23.9603 14.994C23.9603 14.986 23.9603 14.978 23.9603 14.9701C23.9603 14.9621 23.9603 14.9541 23.9603 14.9461C23.9603 14.9381 23.9603 14.9302 23.9603 14.9222C23.9603 14.9142 23.9603 14.9062 23.9603 14.8982C23.9603 14.8903 23.9603 14.8823 23.9603 14.8743C23.9603 14.8663 23.9603 14.8583 23.9603 14.8503C23.9603 14.8423 23.9603 14.8344 23.9603 14.8264C23.9603 14.8184 23.9603 14.8104 23.9603 14.8024C23.9603 14.7944 23.9603 14.7865 23.9603 14.7785C23.9603 14.7705 23.9603 14.7625 23.9603 14.7545C23.9603 14.7465 23.9603 14.7385 23.9603 14.7305C23.9603 14.7226 23.9603 14.7146 23.9603 14.7066C23.9603 14.6986 23.9603 14.6906 23.9603 14.6826C23.9603 14.6746 23.9603 14.6667 23.9603 14.6587C23.9603 14.6507 23.9603 14.6427 23.9603 14.6347C23.9603 14.6267 23.9603 14.6187 23.9603 14.6108C23.9603 14.6028 23.9603 14.5948 23.9603 14.5868C23.9603 14.5788 23.9603 14.5708 23.9603 14.5629C23.9603 14.5549 23.9603 14.5469 23.9603 14.5389C23.9603 14.5309 23.9603 14.5229 23.9603 14.515C23.9603 14.507 23.9603 14.499 23.9603 14.491C23.9603 14.483 23.9603 14.475 23.9603 14.4671C23.9603 14.4591 23.9603 14.4511 23.9603 14.4431C23.9603 14.4351 23.9603 14.4272 23.9603 14.4192C23.9603 14.4112 23.9603 14.4032 23.9603 14.3953C23.9603 14.3873 23.9603 14.3793 23.9603 14.3713C23.9603 14.3634 23.9603 14.3554 23.9603 14.3474C23.9603 14.3394 23.9603 14.3315 23.9603 14.3235C23.9603 14.3155 23.9603 14.3076 23.9603 14.2996C23.9603 14.2916 23.9603 14.2837 23.9603 14.2757C23.9603 14.2677 23.9603 14.2598 23.9603 14.2518C23.9603 14.2438 23.9603 14.2359 23.9603 14.2279C23.9603 14.2199 23.9603 14.212 23.9603 14.204C23.9603 14.1961 23.9603 14.1881 23.9603 14.1801C23.9603 14.1722 23.9603 14.1642 23.9603 14.1563C23.9603 14.1483 23.9603 14.1404 23.9603 14.1324C23.9603 14.1245 23.9603 14.1165 23.9603 14.1086C23.9603 14.1006 23.9603 14.0927 23.9603 14.0847C23.9603 14.0768 23.9603 14.0688 23.9603 14.0609C23.9603 14.053 23.9603 14.045 23.9603 14.0371C23.9603 14.0291 23.9603 14.0212 23.9603 14.0133C23.9603 14.0053 23.9603 13.9974 23.9603 13.9895C23.9603 13.9815 23.9603 13.9736 23.9603 13.9657C23.9603 13.9577 23.9603 13.9498 23.9603 13.9419C23.9603 13.934 23.9603 13.926 23.9603 13.9181C23.9603 13.9102 23.9603 13.9023 23.9603 13.8944C23.9603 13.8864 23.9603 13.8785 23.9603 13.8706C23.9603 13.8627 23.9603 13.8548 23.9603 13.8469C23.9603 13.839 23.9603 13.8311 23.9603 13.8232C23.9603 13.8153 23.9603 13.8074 23.9603 13.7995C23.9603 13.7916 23.9603 13.7837 23.9603 13.7758C23.9603 13.7679 23.9603 13.76 23.9603 13.7521C23.9603 13.7442 23.9603 13.7363 23.9603 13.7284C23.9603 13.7205 23.9603 13.7127 23.9603 13.7048C23.9603 13.6969 23.9603 13.689 23.9603 13.6811C23.9603 13.6733 23.9603 13.6654 23.9603 13.6575C23.9603 13.6496 23.9603 13.6418 23.9603 13.6339C23.9603 13.626 23.9603 13.6182 23.9603 13.6103C23.9603 13.6025 23.9603 13.5946 23.9603 13.5868C23.9603 13.5789 23.9603 13.571 23.9603 13.5632C23.9603 13.5554 23.9603 13.5475 23.9603 13.5397C23.9603 13.5318 23.9603 13.524 23.9603 13.5161C23.9603 13.5083 23.9603 13.5005 23.9603 13.4926C23.9603 13.4848 23.9603 13.477 23.9603 13.4692C23.9603 13.4613 23.9603 13.4535 23.9603 13.4457C23.9603 13.4379 23.9603 13.4301 23.9603 13.4222C23.9603 13.4144 23.9603 13.4066 23.9603 13.3988C23.9603 13.391 23.9603 13.3832 23.9603 13.3754C23.9603 13.3676 23.9603 13.3598 23.9603 13.352C23.9603 13.3442 23.9603 13.3364 23.9603 13.3287C23.9603 13.3209 23.9603 13.3131 23.9603 13.3053C23.9603 13.2975 23.9603 13.2898 23.9603 13.282C23.9603 13.2742 23.9603 13.2664 23.9603 13.2587C23.9603 13.2509 23.9603 13.2432 23.9603 13.2354C23.9603 13.2276 23.9603 13.2199 23.9603 13.2121C23.9603 13.2044 23.9603 13.1966 23.9603 13.1889C23.9603 13.1812 23.9603 13.1734 23.9603 13.1657C23.9603 13.1579 23.9603 13.1502 23.9603 13.1425C23.9603 13.1348 23.9603 13.127 23.9603 13.1193C23.9603 13.1116 23.9603 13.1039 23.9603 13.0962C23.9603 13.0885 23.9603 13.0808 23.9603 13.0731C23.9603 13.0654 23.9603 13.0577 23.9603 13.05C23.9603 13.0423 23.9603 13.0346 23.9603 13.0269C23.9603 13.0192 23.9603 13.0115 23.9603 13.0038C23.9603 12.9962 23.9603 12.9885 23.9603 12.9808C23.9603 12.9732 23.9603 12.9655 23.9603 12.9578C23.9603 12.9502 23.9603 12.9425 23.9603 12.9349C23.9603 12.9272 23.9603 12.9196 23.9603 12.9119C23.9603 12.9043 23.9603 12.8966 23.9603 12.889C23.9603 12.8814 23.9603 12.8737 23.9603 12.8661C23.9603 12.8585 23.9603 12.8509 23.9603 12.8433C23.9603 12.8356 23.9603 12.828 23.9603 12.8204C23.9603 12.8128 23.9603 12.8052 23.9603 12.7976C23.9603 12.79 23.9603 12.7824 23.9603 12.7749C23.9603 12.7673 23.9603 12.7597 23.9603 12.7521C23.9603 12.7445 23.9603 12.737 23.9603 12.7294C23.9603 12.7218 23.9603 12.7143 23.9603 12.7067C23.9603 12.6992 23.9603 12.6916 23.9603 12.6841C23.9603 12.6765 23.9603 12.669 23.9603 12.6614C23.9603 12.6539 23.9603 12.6464 23.9603 12.6388C23.9603 12.6313 23.9603 12.6238 23.9603 12.6163C23.9603 12.6088 23.9603 12.6013 23.9603 12.5938C23.9603 12.5862 23.9603 12.5787 23.9603 12.5713C23.9603 12.5638 23.9603 12.5563 23.9603 12.5488C23.9603 12.5413 23.9603 12.5338 23.9603 12.5264C23.9603 12.5189 23.9603 12.5114 23.9603 12.504C23.9603 12.4965 23.9603 12.489 23.9603 12.4816C23.9603 12.4741 23.9603 12.4667 23.9603 12.4593C23.9603 12.4518 23.9603 12.4444 23.9603 12.437C23.9603 12.4295 23.9603 12.4221 23.9603 12.4147C23.9603 12.4073 23.9603 12.3999 23.9603 12.3925C23.9603 12.3851 23.9603 12.3777 23.9603 12.3703C23.9603 12.3629 23.9603 12.3555 23.9603 12.3481C23.9603 12.3407 23.9603 12.3334 23.9603 12.326C23.9603 12.3186 23.9603 12.3113 23.9603 12.3039C23.9603 12.2966 23.9603 12.2892 23.9603 12.2819C23.9603 12.2745 23.9603 12.2672 23.9603 12.2599C23.9603 12.2525 23.9603 12.2452 23.9603 12.2379C23.9603 12.2306 23.9603 12.2232 23.9603 12.2159C23.9603 12.2086 23.9603 12.2013 23.9603 12.194C23.9603 12.1867 23.9603 12.1795 23.9603 12.1722C23.9603 12.1649 23.9603 12.1576 23.9603 12.1504C23.9603 12.1431 23.9603 12.1358 23.9603 12.1286C23.9603 12.1213 23.9603 12.1141 23.9603 12.1068C23.9603 12.0996 23.9603 12.0924 23.9603 12.0851C23.9603 12.0779 23.9603 12.0707 23.9603 12.0635C23.9603 12.0563 23.9603 12.049 23.9603 12.0418C23.9603 12.0346 23.9603 12.0275 23.9603 12.0203C23.9603 12.0131 23.9603 12.0059 23.9603 11.9987C23.9603 11.9915 23.9603 11.9844 23.9603 11.9772C23.9603 11.9701 23.9603 11.9629 23.9603 11.9558C23.9603 11.9486 23.9603 11.9415 23.9603 11.9344C23.9603 11.9272 23.9603 11.9201 23.9603 11.913C23.9603 11.9059 23.9603 11.8988 23.9603 11.8917C23.9603 11.8846 23.9603 11.8775 23.9603 11.8704C23.9603 11.8633 23.9603 11.8562 23.9603 11.8491C23.9603 11.8421 23.9603 11.835 23.9603 11.8279C23.9603 11.8209 23.9603 11.8138 23.9603 11.8068C23.9603 11.7997 23.9603 11.7927 23.9603 11.7857C23.9603 11.7786 23.9603 11.7716 23.9603 11.7646C23.9603 11.7576 23.9603 11.7506 23.9603 11.7436C23.9603 11.7366 23.9603 11.7296 23.9603 11.7226C23.9603 11.7156 23.9603 11.7087 23.9603 11.7017C23.9603 11.6947 23.9603 11.6878 23.9603 11.6808C23.9603 11.6739 23.9603 11.6669 23.9603 11.66C23.9603 11.653 23.9603 11.6461 23.9603 11.6392C23.9603 11.6323 23.9603 11.6254 23.9603 11.6185C23.9603 11.6116 23.9603 11.6047 23.9603 11.5978C23.9603 11.5909 23.9603 11.584 23.9603 11.5771C23.9603 11.5703 23.9603 11.5634 23.9603 11.5565C23.9603 11.5497 23.9603 11.5428 23.9603 11.536C23.9603 11.5292 23.9603 11.5223 23.9603 11.5155C23.9603 11.5087 23.9603 11.5019 23.9603 11.4951C23.9603 11.4883 23.9603 11.4815 23.9603 11.4747C23.9603 11.4679 23.9603 11.4611 23.9603 11.4543C23.9603 11.4476 23.9603 11.4408 23.9603 11.434C23.9603 11.4273 23.9603 11.4205 23.9603 11.4138C23.9603 11.4071 23.9603 11.4003 23.9603 11.3936C23.9603 11.3869 23.9603 11.3802 23.9603 11.3735C23.9603 11.3668 23.9603 11.3601 23.9603 11.3534C23.9603 11.3467 23.9603 11.34 23.9603 11.3334C23.9603 11.3267 23.9603 11.32 23.9603 11.3134C23.9603 11.3067 23.9603 11.3001 23.9603 11.2934C23.9603 11.2868 23.9603 11.2802 23.9603 11.2736C23.9603 11.267 23.9603 11.2604 23.9603 11.2538C23.9603 11.2472 23.9603 11.2406 23.9603 11.234C23.9603 11.2274 23.9603 11.2208 23.9603 11.2143C23.9603 11.2077 23.9603 11.2012 23.9603 11.1946C23.9603 11.1881 23.9603 11.1816 23.9603 11.175C23.9603 11.1685 23.9603 11.162 23.9603 11.1555C23.9603 11.149 23.9603 11.1425 23.9603 11.136C23.9603 11.1295 23.9603 11.123 23.9603 11.1166C23.9603 11.1101 23.9603 11.1036 23.9603 11.0972C23.9603 11.0908 23.9603 11.0843 23.9603 11.0779C23.9603 11.0715 23.9603 11.065 23.9603 11.0586C23.9603 11.0522 23.9603 11.0458 23.9603 11.0394C23.9603 11.033 23.9603 11.0267 23.9603 11.0203C23.9603 11.0139 23.9603 11.0076 23.9603 11.0012C23.9603 10.9949 23.9603 10.9885 23.9603 10.9822C23.9603 10.9758 23.9603 10.9695 23.9603 10.9632C23.9603 10.9569 23.9603 10.9506 23.9603 10.9443C23.9603 10.938 23.9603 10.9317 23.9603 10.9255C23.9603 10.9192 23.9603 10.9129 23.9603 10.9067C23.9603 10.9004 23.9603 10.8942 23.9603 10.888C23.9603 10.8817 23.9603 10.8755 23.9603 10.8693C23.9603 10.8631 23.9603 10.8569 23.9603 10.8507C23.9603 10.8445 23.9603 10.8383 23.9603 10.8322C23.9603 10.826 23.9603 10.8198 23.9603 10.8137C23.9603 10.8075 23.9603 10.8014 23.9603 10.7953C23.9603 10.7891 23.9603 10.783 23.9603 10.7769C23.9603 10.7708 23.9603 10.7647 23.9603 10.7586C23.9603 10.7525 23.9603 10.7465 23.9603 10.7404C23.9603 10.7343 23.9603 10.7283 23.9603 10.7222C23.9603 10.7162 23.9603 10.7102 23.9603 10.7041C23.9603 10.6981 23.9603 10.6921 23.9603 10.6861C23.9603 10.6801 23.9603 10.6741 23.9603 10.6681C23.9603 10.6622 23.9603 10.6562 23.9603 10.6502C23.9603 10.6443 23.9603 10.6383 23.9603 10.6324C23.9603 10.6265 23.9603 10.6205 23.9603 10.6146C23.9603 10.6087 23.9603 10.6028 23.9603 10.5969C23.9603 10.591 23.9603 10.5852 23.9603 10.5793C23.9603 10.5734 23.9603 10.5676 23.9603 10.5617C23.9603 10.5559 23.9603 10.5501 23.9603 10.5442C23.9603 10.5384 23.9603 10.5326 23.9603 10.5268C23.9603 10.521 23.9603 10.5152 23.9603 10.5094C23.9603 10.5037 23.9603 10.4979 23.9603 10.4921C23.9603 10.4864 23.9603 10.4806 23.9603 10.4749C23.9603 10.4692 23.9603 10.4635 23.9603 10.4577C23.9603 10.452 23.9603 10.4463 23.9603 10.4407C23.9603 10.435 23.9603 10.4293 23.9603 10.4236C23.9603 10.418 23.9603 10.4123 23.9603 10.4067C23.9603 10.4011 23.9603 10.3954 23.9603 10.3898C23.9603 10.3842 23.9603 10.3786 23.9603 10.373C23.9603 10.3674 23.9603 10.3618 23.9603 10.3563C23.9603 10.3507 23.9603 10.3452 23.9603 10.3396C23.9603 10.3341 23.9603 10.3285 23.9603 10.323C23.9603 10.3175 23.9603 10.312 23.9603 10.3065C23.9603 10.301 23.9603 10.2955 23.9603 10.2901C23.9603 10.2846 23.9603 10.2791 23.9603 10.2737C23.9603 10.2682 23.9603 10.2628 23.9603 10.2574C23.9603 10.252 23.9603 10.2466 23.9603 10.2412C23.9603 10.2358 23.9603 10.2304 23.9603 10.225C23.9603 10.2196 23.9603 10.2143 23.9603 10.2089C23.9603 10.2036 23.9603 10.1983 23.9603 10.1929C23.9603 10.1876 23.9603 10.1823 23.9603 10.177C23.9603 10.1717 23.9603 10.1664 23.9603 10.1612C23.9603 10.1559 23.9603 10.1506 23.9603 10.1454C23.9603 10.1401 23.9603 10.1349 23.9603 10.1297C23.9603 10.1245 23.9603 10.1193 23.9603 10.1141C23.9603 10.1089 23.9603 10.1037 23.9603 10.0985C23.9603 10.0934 23.9603 10.0882 23.9603 10.0831C23.9603 10.0779 23.9603 10.0728 23.9603 10.0677C23.9603 10.0626 23.9603 10.0575 23.9603 10.0524C23.9603 10.0473 23.9603 10.0422 23.9603 10.0371C23.9603 10.0321 23.9603 10.027 23.9603 10.022C23.9603 10.0169 23.9603 10.0119 23.9603 10.0069C23.9603 10.0019 23.9603 9.9969 23.9603 9.99192C23.9603 9.98693 23.9603 9.98196 23.9603 9.977C23.9603 9.97204 23.9603 9.9671 23.9603 9.96217C23.9603 9.95724 23.9603 9.95232 23.9603 9.94742C23.9603 9.94251 23.9603 9.93762 23.9603 9.93275C23.9603 9.92787 23.9603 9.92301 23.9603 9.91816C23.9603 9.91331 23.9603 9.90847 23.9603 9.90365C23.9603 9.89883 23.9603 9.89402 23.9603 9.88922C23.9603 9.88443 23.9603 9.87965 23.9603 9.87488C23.9603 9.87011 23.9603 9.86536 23.9603 9.86062C23.9603 9.85588 23.9603 9.85115 23.9603 9.84644C23.9603 9.84173 23.9603 9.83703 23.9603 9.83235C23.9603 9.82766 23.9603 9.82299 23.9603 9.81833C23.9603 9.81368 23.9603 9.80904 23.9603 9.80441C23.9603 9.79978 23.9603 9.79517 23.9603 9.79057C23.9603 9.78597 23.9603 9.78138 23.9603 9.77681C23.9603 9.77224 23.9603 9.76768 23.9603 9.76314C23.9603 9.7586 23.9603 9.75407 23.9603 9.74955C23.9603 9.74504 23.9603 9.74054 23.9603 9.73605C23.9603 9.73157 23.9603 9.7271 23.9603 9.72264C23.9603 9.71818 23.9603 9.71374 23.9603 9.70931C23.9603 9.70489 23.9603 9.70047 23.9603 9.69607C23.9603 9.69168 23.9603 9.68729 23.9603 9.68292C23.9603 9.67855 23.9603 9.6742 23.9603 9.66986C23.9603 9.66552 23.9603 9.66119 23.9603 9.65688C23.9603 9.65257 23.9603 9.64828 23.9603 9.644C23.9603 9.63971 23.9603 9.63545 23.9603 9.6312C23.9603 9.62695 23.9603 9.62271 23.9603 9.61849C23.9603 9.61427 23.9603 9.61006 23.9603 9.60587C23.9603 9.60168 23.9603 9.5975 23.9603 9.59334C23.9603 9.58918 23.9603 9.58503 23.9603 9.5809C23.9603 9.57677 23.9603 9.57265 23.9603 9.56855C23.9603 9.56445 23.9603 9.56036 23.9603 9.55629C23.9603 9.55222 23.9603 9.54816 23.9603 9.54412C23.9603 9.54008 23.9603 9.53606 23.9603 9.53205C23.9603 9.52804 23.9603 9.52404 23.9603 9.52006C23.9603 9.51609 23.9603 9.51212 23.9603 9.50817C23.9603 9.50423 23.9603 9.50029 23.9603 9.49638C23.9603 9.49246 23.9603 9.48856 23.9603 9.48467C23.9603 9.48078 23.9603 9.47691 23.9603 9.47306C23.9603 9.4692 23.9603 9.46537 23.9603 9.46154C23.9603 9.45772 23.9603 9.45391 23.9603 9.45012C23.9603 9.44633 23.9603 9.44255 23.9603 9.43879C23.9603 9.43503 23.9603 9.43128 23.9603 9.42756C23.9603 9.42383 23.9603 9.42011 23.9603 9.41642C23.9603 9.41272 23.9603 9.40904 23.9603 9.40537C23.9603 9.40171 23.9603 9.39806 23.9603 9.39443C23.9603 9.39079 23.9603 9.38718 23.9603 9.38358C23.9603 9.37997 23.9603 9.37639 23.9603 9.37282C23.9603 9.36925 23.9603 9.3657 23.9603 9.36216C23.9603 9.35863 23.9603 9.35511 23.9603 9.3516C23.9603 9.3481 23.9603 9.34461 23.9603 9.34114C23.9603 9.33767 23.9603 9.33422 23.9603 9.33078C23.9603 9.32734 23.9603 9.32392 23.9603 9.32051C23.9603 9.31711 23.9603 9.31372 23.9603 9.31034C23.9603 9.30697 23.9603 9.30362 23.9603 9.30028C23.9603 9.29694 23.9603 9.29362 23.9603 9.29031C23.9603 9.287 23.9603 9.28371 23.9603 9.28044C23.9603 9.27717 23.9603 9.27391 23.9603 9.27067C23.9603 9.26743 23.9603 9.26421 23.9603 9.261C23.9603 9.2578 23.9603 9.25461 23.9603 9.25144C23.9603 9.24827 23.9603 9.24511 23.9603 9.24197C23.9603 9.23883 23.9603 9.23571 23.9603 9.23261C23.9603 9.2295 23.9603 9.22642 23.9603 9.22335C23.9603 9.22028 23.9603 9.21722 23.9603 9.21419C23.9603 9.21115 23.9603 9.20813 23.9603 9.20513C23.9603 9.20213 23.9603 9.19914 23.9603 9.19618C23.9603 9.19321 23.9603 9.19026 23.9603 9.18733C23.9603 9.18439 23.9603 9.18148 23.9603 9.17858C23.9603 9.17568 23.9603 9.1728 23.9603 9.16994C23.9603 9.16707 23.9603 9.16423 23.9603 9.1614C23.9603 9.15857 23.9603 9.15576 23.9603 9.15297C23.9603 9.15017 23.9603 9.1474 23.9603 9.14464C23.9603 9.14188 23.9603 9.13914 23.9603 9.13642C23.9603 9.13369 23.9603 9.13099 23.9603 9.1283C23.9603 9.12561 23.9603 9.12294 23.9603 9.12029C23.9603 9.11764 23.9603 9.115 23.9603 9.11239C23.9603 9.10977 23.9603 9.10717 23.9603 9.10459C23.9603 9.10201 23.9603 9.09944 23.9603 9.0969C23.9603 9.09435 23.9603 9.09183 23.9603 9.08932C23.9603 9.08681 23.9603 9.08432 23.9603 9.08184C23.9603 9.07937 23.9603 9.07692 23.9603 9.07448C23.9603 9.07204 23.9603 9.06962 23.9603 9.06722C23.9603 9.06482 23.9603 9.06244 23.9603 9.06007C23.9603 9.05771 23.9603 9.05536 23.9603 9.05304C23.9603 9.05071 23.9603 9.0484 23.9603 9.04611C23.9603 9.04382 23.9603 9.04154 23.9603 9.03929C23.9603 9.03704 23.9603 9.0348 23.9603 9.03258C23.9603 9.03037 23.9603 9.02817 23.9603 9.02599C23.9603 9.02381 23.9603 9.02164 23.9603 9.0195C23.9603 9.01736 23.9603 9.01523 23.9603 9.01313C23.9603 9.01102 23.9603 9.00893 23.9603 9.00686C23.9603 9.0048 23.9603 9.00275 23.9603 9.00071C23.9603 8.99868 23.9603 8.99667 23.9603 8.99468C23.9603 8.99268 23.9603 8.99071 23.9603 8.98875C23.9603 8.9868 23.9603 8.98486 23.9603 8.98294C23.9603 8.98102 23.9603 8.97913 23.9603 8.97725C23.9603 8.97537 23.9603 8.9735 23.9603 8.97166C23.9603 8.96982 23.9603 8.968 23.9603 8.96619C23.9603 8.96439 23.9603 8.9626 23.9603 8.96084C23.9603 8.95907 23.9603 8.95733 23.9603 8.9556C23.9603 8.95387 23.9603 8.95217 23.9603 8.95048C23.9603 8.94879 23.9603 8.94712 23.9603 8.94547C23.9603 8.94382 23.9603 8.94219 23.9603 8.94058C23.9603 8.93897 23.9603 8.93738 23.9603 8.9358C23.9603 8.93423 23.9603 8.93268 23.9603 8.93115C23.9603 8.92961 23.9603 8.9281 23.9603 8.92661C23.9603 8.92511 23.9603 8.92364 23.9603 8.92218C23.9603 8.92073 23.9603 8.91929 23.9603 8.91788C23.9603 8.91646 23.9603 8.91507 23.9603 8.91369C23.9603 8.91232 23.9603 8.91096 23.9603 8.90962H22.9603ZM22.8743 18.8949C22.6367 19.2247 22.344 19.6079 22.1951 19.7513L22.8887 20.4716C23.1152 20.2535 23.4614 19.7906 23.6856 19.4794L22.8743 18.8949ZM21.7437 7.9357C21.8101 7.9357 21.8596 7.94727 21.8949 7.96321L22.3067 7.05193C22.118 6.96666 21.9231 6.9357 21.7437 6.9357V7.9357ZM17.6189 7.51619C17.8984 7.78534 18.2713 7.9357 18.6593 7.9357V6.9357C18.53 6.9357 18.4057 6.88558 18.3125 6.79586L17.6189 7.51619ZM16.0161 6.16699C16.1455 6.16699 16.2698 6.21711 16.363 6.30683L17.0566 5.5865C16.7771 5.31736 16.4042 5.16699 16.0161 5.16699V6.16699ZM22.9603 18.6204C22.9603 18.7232 22.9294 18.8184 22.8743 18.8949L23.6856 19.4794C23.8684 19.2258 23.9603 18.9243 23.9603 18.6204H22.9603ZM10.3469 6.29671C10.4389 6.21323 10.5586 6.16699 10.6828 6.16699V5.16699C10.3102 5.16699 9.95086 5.30572 9.67487 5.55614L10.3469 6.29671Z" fill="black"/>
<path transform="translate(49 80)" d="M6.30599 6.77832H5.31954C5.18792 6.77832 5.0574 6.80318 4.93803 6.85863C4.38287 7.1165 3.53906 7.6215 3.53906 8.09145C3.53906 8.6167 3.53906 15.7514 3.53906 19.2531C3.53906 19.9096 3.85528 21.2228 5.12016 21.2228C6.38504 21.2228 15.8453 21.2228 20.694 21.2228" stroke="black" stroke-linecap="round"/>
<path transform="translate(49 80)" d="M3.88364 3.6377C3.68355 3.44739 3.36707 3.45532 3.17676 3.65542C2.98645 3.85551 2.99439 4.172 3.19448 4.3623L3.88364 3.6377ZM23.6697 24.3623C23.8698 24.5526 24.1863 24.5447 24.3766 24.3446C24.5669 24.1445 24.559 23.828 24.3589 23.6377L23.6697 24.3623ZM3.19448 4.3623C7.29624 8.26342 10.3586 11.3074 13.4242 14.3546C16.4901 17.4022 19.5593 20.4529 23.6697 24.3623L24.3589 23.6377C20.2571 19.7366 17.1948 16.6926 14.1292 13.6454C11.0633 10.5978 7.99408 7.54707 3.88364 3.6377L3.19448 4.3623Z" fill="black"/>
<path transform="translate(49 80)" d="M17.4264 13.4444C17.4264 15.6247 15.6664 17.3889 13.4993 17.3889C11.3323 17.3889 9.57227 15.6247 9.57227 13.4444C9.57227 11.2641 11.3323 9.5 13.4993 9.5C15.6664 9.5 17.4264 11.2641 17.4264 13.4444Z" stroke="#191919"/>
</svg>
