<svg width="24" height="24" viewBox="0 0 24 24" fill="none" xmlns="http://www.w3.org/2000/svg">
<path d="M19.8 10.3L17.8 10C17.7 9.7 17.6 9.5 17.5 9.2L18.7 7.6C18.8 7.5 18.8 7.4 18.7 7.3L16.7 5.3C16.6 5.2 16.5 5.2 16.4 5.3L14.8 6.5C14.5 6.4 14.3 6.3 14 6.2L13.7 4.2C13.7 4.1 13.6 4 13.5 4H10.6C10.5 4 10.4 4.1 10.4 4.2L10.1 6.2C9.8 6.2 9.5 6.4 9.2 6.5L7.7 5.3C7.6 5.2 7.5 5.2 7.4 5.3L5.4 7.3C5.3 7.4 5.3 7.5 5.4 7.6L6.6 9.2C6.4 9.5 6.2 9.8 6.2 10L4.2 10.3C4.1 10.3 4 10.4 4 10.5V13.4C4 13.5 4.1 13.6 4.2 13.6L6.2 13.9C6.3 14.2 6.4 14.4 6.5 14.7L5.3 16.3C5.2 16.4 5.2 16.5 5.3 16.6L7.3 18.6C7.4 18.7 7.5 18.7 7.6 18.6L9.2 17.4C9.5 17.5 9.7 17.6 10 17.7L10.3 19.7C10.3 19.8 10.4 19.9 10.5 19.9H13.4C13.5 19.9 13.6 19.8 13.6 19.7L13.9 17.7C14.2 17.6 14.4 17.5 14.7 17.4L16.3 18.6C16.4 18.7 16.5 18.7 16.6 18.6L18.6 16.6C18.7 16.5 18.7 16.4 18.6 16.3L17.4 14.7C17.5 14.4 17.6 14.2 17.7 13.9L19.7 13.6C19.8 13.6 19.9 13.5 19.9 13.4V10.5C20 10.4 19.9 10.4 19.8 10.3ZM12 15.1C10.3 15.1 8.9 13.7 8.9 12C8.9 10.3 10.3 8.9 12 8.9C13.7 8.9 15.1 10.3 15.1 12C15.1 13.7 13.7 15.1 12 15.1Z" fill="black"/>
</svg>
