<svg width="280" height="280" viewBox="0 0 280 280" fill="none" xmlns="http://www.w3.org/2000/svg">
<g clip-path="url(#clip0_3283_49837)">
<path d="M280 0H0V280H280V0Z" fill="white"/>
<path d="M219.956 38.1524C242.284 45.6354 255.313 66.9084 256.475 93.5854C257.805 124.126 252.219 155.524 237.197 182.287C222.385 208.672 197.985 229.773 169.229 238.793C149.429 245.005 127.978 246.423 107.468 243.64C77.6786 239.598 51.9442 216.337 37.5149 190.582C27.1152 172.02 20.0872 148.37 24.8565 127.027C32.0759 94.7334 55.3066 80.6867 81.7456 73.815C95.2649 70.301 109.081 72.226 122.145 66.6984C134.572 61.4414 145.103 53.2584 156.884 46.7694C175.27 36.6427 197.647 31.619 217.938 37.52C218.621 37.7184 219.293 37.9284 219.956 38.1524Z" fill="#F8F8F8"/>
<path d="M192.787 224.817C192.685 225.342 191.912 225.913 190.281 226.534C178.85 230.888 165.347 229.537 153.594 229.56C131.512 229.605 109.429 228.669 87.3673 228.669C73.5983 227.75 57.5753 225.442 71.209 222.264C86.7187 218.65 103.544 219.179 119.234 218.757C133.448 218.374 147.672 218.654 161.873 219.597C164.279 219.76 193.361 221.884 192.787 224.817Z" fill="#EEEEEE"/>
<path d="M165.565 224.476C169.52 224.226 173.517 224.229 177.297 222.843C183.618 220.528 186.992 214.751 189.624 208.906C189.844 208.42 190.054 207.93 190.259 207.438C197.826 189.124 197.245 138.943 197.245 138.943C197.245 138.943 100.734 138.628 96.9258 137.867V187.203L165.565 224.476Z" fill="#FFE07B"/>
<path d="M177.85 222.614C158.829 229.549 166.356 168.219 171.111 144.776C138.494 144.65 100.908 144.396 68.2906 144.27L68.2882 148.951C67.6839 166.686 68.0876 189.397 69.9402 207.044C70.4139 211.549 71.2049 216.505 74.6909 219.401C77.1292 221.426 80.4216 222.017 83.5506 222.518C87.1976 223.102 90.8796 223.475 94.5592 223.785C99.1256 224.17 103.704 224.436 108.282 224.642C113.345 224.87 118.413 225.02 123.481 225.113C128.626 225.209 133.773 225.246 138.921 225.225C143.734 225.206 148.548 225.139 153.359 225.003C157.429 224.889 161.498 224.73 165.563 224.474C169.518 224.224 173.515 224.226 177.295 222.84L177.85 222.614Z" fill="#FFEEA4"/>
<path d="M181.183 220.474C178.066 222.616 174.132 224.114 171.169 220.925C168.072 217.593 167.297 212.233 166.768 207.914C165.939 201.18 166.014 194.336 166.331 187.572C166.679 180.173 167.393 172.79 168.331 165.443C169.218 158.499 170.287 151.566 171.677 144.704C171.715 144.517 171.469 144.468 171.337 144.468C144.41 144.363 117.483 144.193 90.5565 144.06C83.2088 144.023 75.8635 143.99 68.5158 143.962C68.2498 143.962 67.7318 144.083 67.7318 144.424C67.7272 152.733 67.4168 161.037 67.4868 169.349C67.5778 180.502 67.9792 191.667 68.9568 202.781C69.3698 207.48 69.4748 212.793 71.9412 216.965C74.6525 221.548 79.9632 222.367 84.8072 223.064C97.1948 224.847 109.849 225.162 122.346 225.409C135.018 225.661 147.716 225.636 160.379 225.057C163.356 224.922 166.334 224.758 169.309 224.562C171.95 224.387 174.601 224.077 177.116 223.209C181.564 221.678 184.893 218.365 187.311 214.417C191.025 208.355 192.95 201.637 194.199 194.7C195.536 187.269 196.261 179.727 196.789 172.2C197.554 161.273 197.89 150.295 197.818 139.34C197.815 139.158 197.815 138.976 197.813 138.796C197.811 138.663 197.554 138.637 197.472 138.637C194.285 138.609 191.095 138.584 187.908 138.556C180.201 138.488 172.491 138.418 164.785 138.348C155.304 138.262 145.824 138.171 136.344 138.075C127.965 137.991 119.586 137.902 111.209 137.8C106.682 137.744 102.149 137.746 97.6242 137.583C97.4678 137.578 97.3115 137.571 97.1552 137.562C96.9638 137.55 96.3968 137.674 96.3712 137.944C96.2055 139.608 96.1892 141.237 96.5322 142.882C96.6092 143.253 97.7408 142.975 97.6592 142.581C97.3278 140.987 97.3348 139.414 97.4958 137.797C97.2345 137.926 96.9732 138.054 96.7118 138.18C100.553 138.411 104.431 138.336 108.274 138.388C116.324 138.493 124.376 138.577 132.426 138.658C141.927 138.756 151.426 138.847 160.928 138.936C169.003 139.011 177.079 139.083 185.155 139.155C187.81 139.179 190.465 139.202 193.12 139.225C193.939 139.232 194.756 139.239 195.575 139.246C195.935 139.249 196.518 139.368 196.863 139.258C196.908 139.244 196.982 139.258 197.031 139.26C196.917 139.207 196.803 139.155 196.691 139.102C196.793 148.064 196.532 157.047 196.058 165.996C195.662 173.465 195.088 180.938 194.091 188.354C193.256 194.567 192.25 200.956 189.98 206.834C188.361 211.027 186.218 215.369 183.078 218.64C181.393 220.393 179.377 221.79 177.088 222.63C174.162 223.704 171.003 223.888 167.918 224.056C155.61 224.723 143.309 225.008 130.981 224.91C118.762 224.814 106.514 224.49 94.3342 223.447C91.1562 223.174 87.9782 222.847 84.8235 222.374C82.1915 221.977 79.4405 221.594 77.0418 220.374C72.3262 217.975 71.1665 212.588 70.6112 207.776C69.3978 197.253 68.9545 186.62 68.7235 176.036C68.6068 170.63 68.5742 165.221 68.6255 159.812C68.6652 155.696 68.8612 151.578 68.8635 147.462C68.8635 146.351 68.8635 145.243 68.8658 144.132C68.6045 144.286 68.3432 144.44 68.0818 144.594C95.0085 144.699 121.935 144.87 148.862 145.003C156.209 145.04 163.555 145.073 170.903 145.101C170.788 145.021 170.676 144.942 170.562 144.865C167.766 158.669 165.979 172.786 165.261 186.851C164.904 193.825 164.791 200.884 165.604 207.83C166.126 212.305 166.901 217.798 170.053 221.289C173.397 224.989 178.344 223.237 181.888 220.803C182.502 220.36 181.531 220.236 181.183 220.474Z" fill="#5D7183"/>
<path d="M110.035 195.96C111.981 201.054 120.404 201.152 122.691 196.294C122.954 195.734 121.818 195.769 121.62 196.191C119.664 200.347 112.769 199.864 111.162 195.657C110.977 195.181 109.857 195.501 110.035 195.96Z" fill="#5D7183"/>
<path d="M103.252 187.773C104.416 190.535 108.808 190.486 110.138 187.889C110.418 187.343 109.279 187.374 109.067 187.787C108.096 189.681 105.168 189.343 104.379 187.469C104.181 186.998 103.063 187.325 103.252 187.773Z" fill="#5D7183"/>
<path d="M123.463 187.773C124.628 190.535 129.019 190.486 130.349 187.889C130.629 187.343 129.49 187.374 129.278 187.787C128.307 189.681 125.379 189.343 124.59 187.469C124.39 186.998 123.272 187.325 123.463 187.773Z" fill="#5D7183"/>
<path d="M100.166 191.352C100.04 193.363 98.7144 194.92 97.2047 194.824C95.6951 194.728 94.5751 193.02 94.7011 191.009C94.8271 188.998 96.1524 187.441 97.6621 187.537C99.1717 187.63 100.292 189.338 100.166 191.352Z" fill="white"/>
<path d="M139.334 193.807C139.208 195.818 137.882 197.374 136.373 197.279C134.863 197.183 133.743 195.475 133.869 193.464C133.995 191.452 135.32 189.896 136.83 189.992C138.34 190.087 139.46 191.795 139.334 193.807Z" fill="white"/>
<path d="M149.302 100.882C148.044 95.4824 151.626 90.0201 156.785 88.3844C150.872 84.5881 140.797 85.1994 141.688 75.0027C142.318 67.7974 152.132 63.0281 158.628 63.9054C157.704 59.9434 157.408 55.6104 159.191 51.9517C161.127 47.9781 165.367 45.4021 169.754 44.8584C174.143 44.3124 178.618 45.6121 182.44 47.8357C184.738 43.6357 189.062 40.6024 193.796 39.8721C201.837 38.6331 208.662 42.4994 209.889 50.8947C213.933 48.6221 218.733 46.3891 223.028 48.1414C225.772 49.2614 227.737 51.9564 228.241 54.8754C228.745 57.7967 227.87 60.8721 226.134 63.2731C231.214 56.2497 255.429 71.7081 238.272 82.7517C241.709 84.5297 243.793 88.3564 244.131 92.2111C244.444 95.7647 243.359 99.4887 240.925 102.097C238.491 104.706 234.674 106.052 231.2 105.231C232.688 111.461 230.248 120.22 223.222 122.052C217.732 123.482 212.339 118.683 210.386 113.353C207.229 123.615 195.185 129.733 185.739 124.164C179.647 120.573 176.782 119.222 169.457 120.801C165.918 121.564 154.608 123.373 152.578 126.616C154.543 123.478 159.811 117.271 160.017 113.568C160.271 108.967 156.89 110.056 153.689 107.513C151.57 105.828 149.925 103.546 149.302 100.882Z" fill="white"/>
<path d="M149.865 100.73C148.743 95.5034 151.956 90.2138 156.986 88.5338C157.045 88.5151 157.5 88.3028 157.315 88.1861C153.262 85.6334 147.679 85.3628 144.272 81.8091C142.317 79.7698 141.836 76.6664 142.384 73.9668C143.005 70.9218 145.231 68.4951 147.77 66.8454C150.817 64.8644 154.623 63.7024 158.267 64.1528C158.44 64.1738 159.257 64.0454 159.191 63.7561C157.843 57.8178 158.179 51.2611 163.566 47.4391C169.129 43.4958 176.344 44.8514 181.909 48.0341C182.184 48.1904 182.84 48.0201 182.996 47.7424C186.279 41.9091 192.999 38.8174 199.567 40.2198C205.002 41.3794 208.485 45.6658 209.325 51.0464C209.365 51.3031 210.112 51.0488 210.219 50.9904C214.75 48.4564 220.815 45.7754 225.159 50.1341C228.783 53.7694 228.361 59.3834 225.575 63.3664C225.463 63.5274 226.473 63.4714 226.646 63.2428C229.119 59.9504 234.731 62.6198 237.356 64.3348C240.935 66.6681 244.461 70.7491 243.651 75.3364C243.075 78.5984 240.485 80.9901 237.834 82.7214C237.787 82.7518 237.626 82.8894 237.741 82.9524C242.211 85.3721 244.202 90.7481 243.46 95.6271C242.601 101.269 237.692 106.302 231.658 105.005C231.476 104.965 230.561 105.061 230.633 105.385C231.784 110.409 230.631 116.706 226.499 120.127C220.409 125.169 213.22 119.182 210.947 113.206C210.837 112.919 209.899 113.218 209.827 113.451C206.857 122.81 196.081 129.232 186.825 124.285C184.646 123.121 182.59 121.749 180.266 120.869C178.381 120.155 176.404 119.854 174.393 119.917C172.225 119.987 170.116 120.472 168 120.892C166.205 121.247 164.411 121.606 162.628 122.026C160.407 122.549 158.174 123.139 156.058 124.007C154.592 124.609 152.929 125.351 152.019 126.716C152.39 126.653 152.763 126.593 153.134 126.53C154.592 124.229 156.303 122.096 157.78 119.807C159.154 117.682 160.743 115.206 160.58 112.567C160.419 109.935 158.281 109.466 156.242 108.535C153.083 107.091 150.71 104.078 149.865 100.73C149.795 100.452 148.666 100.742 148.738 101.031C149.517 104.125 151.636 107.028 154.457 108.57C156.424 109.643 159.112 109.9 159.429 112.565C159.749 115.248 158.055 117.843 156.667 119.992C155.187 122.281 153.479 124.413 152.021 126.714C151.916 126.88 152.95 126.805 153.136 126.527C154.107 125.074 156.125 124.39 157.693 123.839C159.695 123.135 161.765 122.628 163.835 122.169C165.573 121.784 167.323 121.459 169.066 121.098C171.502 120.591 173.978 120.174 176.465 120.549C181.314 121.282 184.879 125.036 189.583 126.119C193.615 127.048 197.915 126.301 201.555 124.397C206.01 122.068 209.426 118.055 210.947 113.26C210.574 113.342 210.2 113.423 209.827 113.505C211.729 118.503 216.554 123.317 222.306 122.449C227.15 121.716 230.461 117.728 231.634 113.167C232.313 110.532 232.376 107.732 231.767 105.079C231.427 105.205 231.086 105.334 230.743 105.46C236.345 106.666 242.018 103.262 243.94 97.9394C245.931 92.4304 244.16 85.4514 238.802 82.5534C238.772 82.6304 238.739 82.7074 238.709 82.7844C241.292 81.0974 243.842 78.8178 244.645 75.7191C245.249 73.3834 244.675 70.9801 243.439 68.9524C240.979 64.9111 236.105 61.7051 231.357 61.2968C229.308 61.1218 226.926 61.5698 225.621 63.3058C225.978 63.2638 226.335 63.2241 226.692 63.1821C229.842 58.6788 229.861 51.9378 224.907 48.6618C220.087 45.4721 213.997 48.3211 209.559 50.8014C209.857 50.7828 210.154 50.7641 210.452 50.7454C209.972 47.6701 208.688 44.7488 206.336 42.6511C204.213 40.7588 201.46 39.7508 198.653 39.4778C191.949 38.8291 185.217 42.0024 181.883 47.9291C182.245 47.8311 182.606 47.7354 182.97 47.6374C177.179 44.3264 169.971 43.1714 163.951 46.5804C161.352 48.0528 159.222 50.2998 158.174 53.1254C156.874 56.6231 157.259 60.4964 158.067 64.0571C158.375 63.9241 158.683 63.7911 158.991 63.6604C153.055 62.9278 145.775 65.9121 142.541 71.0454C140.905 73.6424 140.52 77.2358 141.775 80.0754C142.832 82.4624 145.063 83.8601 147.373 84.8588C150.318 86.1328 153.517 86.8561 156.254 88.5828C156.363 88.4661 156.473 88.3494 156.583 88.2351C151.26 90.0131 147.52 95.3728 148.736 101.033C148.796 101.304 149.928 101.031 149.865 100.73Z" fill="#5D7183"/>
<path d="M205.751 91.595C203.586 94.2784 201.278 97.5007 199.349 100.357C198.623 101.432 195.317 108.285 195.317 108.285C195.317 108.285 191.075 103.969 188.09 101.67C186.497 100.443 184.905 99.2157 183.312 97.9884C182.887 97.6617 178.822 94.8734 178.916 94.6004C187.239 70.525 211.596 72.0417 211.596 72.0417C211.596 72.0417 215.787 74.711 219.133 78.5424C218.909 78.288 210.381 86.6157 209.681 87.402C208.386 88.8627 206.979 90.076 205.751 91.595Z" fill="white"/>
<path d="M214.709 74.6949C216.069 75.9782 217.472 77.2546 218.697 78.6709C219.019 78.5006 219.341 78.3326 219.665 78.1622C218.727 77.6699 217.08 79.5832 216.529 80.0709C214.893 81.5176 213.3 83.0109 211.715 84.5136C206.918 89.0589 202.702 94.1876 199.174 99.7782C196.812 103.519 194.768 107.45 193.014 111.51C192.79 112.031 193.912 111.916 194.068 111.555C196.894 105.017 200.49 98.8216 204.883 93.2122C207.984 89.2526 211.51 85.7292 215.194 82.3272C216.039 81.5456 216.891 80.7686 217.756 80.0102C218.095 79.7139 218.433 79.4176 218.783 79.1376C218.902 79.0419 219.086 78.9439 219.184 78.8272C219.488 78.4656 219.572 79.1492 218.776 78.7316C219.023 78.8599 220.073 78.6056 219.744 78.2229C218.519 76.8066 217.117 75.5326 215.757 74.2469C215.449 73.9576 214.385 74.3892 214.709 74.6949Z" fill="#5D7183"/>
<path d="M202.138 91.0165C201.907 91.4738 201.678 91.9335 201.452 92.3955C199.247 96.9198 197.618 101.642 195.896 106.379C195.667 107.007 193.728 113.323 193.728 113.323C189.876 111.251 185.823 108.815 181.819 106.951C179.682 105.954 177.544 104.958 175.407 103.962C174.835 103.696 169.443 101.556 169.508 101.213C175.188 70.7841 205.428 64.7104 205.428 64.7104C209.028 67.5664 210.293 67.8185 215.011 71.3768C214.644 71.1015 210.4 77.3665 210.09 77.8121C207.152 82.0215 204.469 86.4198 202.138 91.0165Z" fill="white"/>
<path d="M208.94 67.6948C210.804 68.9175 212.65 70.1752 214.435 71.5098C214.689 71.2742 214.941 71.0408 215.195 70.8052C214.535 70.5905 214.026 71.2462 213.653 71.6825C212.853 72.6228 212.141 73.6425 211.427 74.6482C209.794 76.9465 208.191 79.2728 206.674 81.6482C201.706 89.4298 197.961 97.7948 195.07 106.554C194.359 108.712 193.712 110.894 193.045 113.066C193.369 112.98 193.694 112.894 194.018 112.805C193.61 112.586 193.201 112.364 192.795 112.14C192.366 111.904 191.379 112.488 191.927 112.789C192.333 113.013 192.742 113.234 193.15 113.454C193.425 113.603 194.011 113.559 194.123 113.192C195.705 108.04 197.383 102.956 199.371 97.9418C202.336 90.4542 206.422 83.5708 210.986 76.9582C211.714 75.9012 212.449 74.8512 213.207 73.8152C213.588 73.2972 213.97 72.7792 214.374 72.2798C214.509 72.1142 214.67 71.9578 214.792 71.7828C215.107 71.3302 215.184 71.7712 214.54 71.5635C214.897 71.6778 215.823 71.2508 215.3 70.8588C213.515 69.5242 211.667 68.2665 209.805 67.0438C209.395 66.7755 208.405 67.3472 208.94 67.6948Z" fill="#5D7183"/>
<path d="M197.907 89.8218C195.051 97.7458 192.802 105.621 190.786 113.783C186.348 111.781 181.9 109.769 177.411 107.837C175.015 106.806 172.618 105.772 170.222 104.741C169.583 104.466 163.588 102.272 163.609 101.892C165.201 72.4945 180.822 54.8381 180.822 54.8381C188.1 58.8515 201.65 63.1518 208.272 65.7698C208.269 65.7675 200.786 81.8325 197.907 89.8218Z" fill="white"/>
<path d="M170.274 90.7504C176.28 93.3124 182.288 95.872 188.294 98.434C188.6 98.5647 189.479 98.1004 189.356 98.049C183.35 95.487 177.341 92.9274 171.335 90.3654C171.03 90.2347 170.15 90.699 170.274 90.7504Z" fill="#5D7183"/>
<path d="M171.681 84.9614C177.687 87.5234 183.695 90.0831 189.701 92.6451C190.009 92.7757 190.894 92.3114 190.763 92.2554C184.757 89.6934 178.749 87.1337 172.743 84.5717C172.435 84.4434 171.55 84.9054 171.681 84.9614Z" fill="#5D7183"/>
<path d="M173.205 78.9531C179.211 81.5151 185.219 84.0748 191.225 86.6368C191.617 86.8048 192.627 86.2541 192.107 86.0324C186.101 83.4704 180.093 80.9108 174.087 78.3488C173.692 78.1808 172.684 78.7314 173.205 78.9531Z" fill="#5D7183"/>
<path d="M176.545 73.4816C182.544 76.0902 188.54 78.6966 194.539 81.3052C194.822 81.4289 195.853 80.9926 195.452 80.8176C189.453 78.2089 183.456 75.6026 177.457 72.9939C177.175 72.8726 176.143 73.3089 176.545 73.4816Z" fill="#5D7183"/>
<path d="M178.398 102.466C181.051 103.621 183.706 104.774 186.359 105.929C186.695 106.076 187.724 105.586 187.255 105.383C184.602 104.228 181.947 103.075 179.294 101.92C178.958 101.773 177.929 102.263 178.398 102.466Z" fill="#5D7183"/>
<path d="M181.021 65.6112C183.139 66.6682 185.349 67.4522 187.654 67.9889C187.969 68.0612 188.968 67.5735 188.359 67.4312C186.124 66.9109 183.982 66.1292 181.928 65.1049C181.639 64.9602 180.601 65.3989 181.021 65.6112Z" fill="#5D7183"/>
<path d="M194.104 74.2445C193.033 73.2878 192.631 71.7525 193.182 70.4038C194.052 68.2711 196.537 67.8955 198.378 69.0598C199.587 69.8251 200.583 71.2601 200.121 72.7395C199.55 74.5805 197.258 76.3958 195.417 75.2688C195.156 75.1101 194.246 75.5745 194.351 75.6398C196.127 76.7248 198.427 75.8568 199.827 74.5361C200.665 73.7451 201.442 72.7045 201.363 71.4958C201.281 70.2545 200.303 69.1951 199.281 68.5955C197.515 67.5618 195.205 67.7181 193.53 68.8731C191.56 70.2335 191.203 72.9751 193.04 74.6155C193.245 74.7998 194.237 74.3635 194.104 74.2445Z" fill="#5D7183"/>
<path d="M197.342 89.8941C194.523 97.7435 192.227 105.761 190.22 113.855C190.559 113.741 190.895 113.629 191.233 113.514C184.028 110.264 176.836 106.836 169.456 103.999C168.415 103.598 167.372 103.199 166.341 102.772C165.753 102.529 164.367 102.181 164.178 101.572C164.064 101.201 164.243 100.574 164.271 100.186C164.306 99.7175 164.344 99.2508 164.386 98.7818C164.472 97.7971 164.577 96.8148 164.696 95.8348C164.927 93.9518 165.221 92.0758 165.573 90.2115C167.617 79.4268 171.684 68.9128 177.735 59.7335C178.843 58.0511 180.005 56.3548 181.34 54.8405C181.015 54.9268 180.691 55.0131 180.367 55.1018C188.085 59.3228 196.677 61.8965 204.899 64.9275C205.723 65.2308 206.54 65.5808 207.373 65.8608C207.783 65.9985 207.674 65.7278 207.569 66.1315C207.354 66.9505 206.801 67.7951 206.449 68.5651C204.993 71.7478 203.558 74.9398 202.158 78.1458C200.468 82.0215 198.784 85.9158 197.342 89.8941C197.213 90.2488 198.333 90.1111 198.466 89.7448C201.434 81.5501 205.151 73.5888 208.831 65.6905C208.868 65.6135 208.782 65.5225 208.719 65.4991C199.584 61.9035 189.919 59.2971 181.27 54.5675C180.978 54.4088 180.495 54.6025 180.297 54.8288C176.314 59.3438 173.306 64.9508 170.814 70.3805C168.121 76.2488 166.094 82.4228 164.773 88.7415C163.987 92.4981 163.45 96.3038 163.163 100.13C163.079 101.253 162.685 102.002 163.721 102.541C164.666 103.031 165.678 103.404 166.668 103.794C174.662 106.953 182.499 110.507 190.335 114.042C190.601 114.161 191.263 114.037 191.347 113.701C193.352 105.607 195.65 97.5895 198.469 89.7401C198.595 89.3901 197.475 89.5301 197.342 89.8941Z" fill="#5D7183"/>
</g>
<defs>
<clipPath id="clip0_3283_49837">
<rect width="280" height="280" fill="white"/>
</clipPath>
</defs>
</svg>
