<svg width="24" height="24" viewBox="0 0 24 24" fill="none" xmlns="http://www.w3.org/2000/svg">
<path d="M15.4 13.1H17C18.7 13.1 20 14.4 20 16V20.4C20 20.7 19.8 20.9 19.5 20.9H4.5C4.2 21 4 20.8 4 20.5V16.1C4 14.5 5.3 13.1 7 13.1H8.5C8.8 13.1 9.1 13.2 9.2 13.4L11.7 15.9C11.8 16 12 16 12.1 15.9L14.6 13.4C14.9 13.2 15.2 13.1 15.4 13.1Z" fill="#191919" stroke="#191919" stroke-miterlimit="10"/>
<path d="M12.0001 10.8C13.8779 10.8 15.4001 9.05391 15.4001 6.9C15.4001 4.74609 13.8779 3 12.0001 3C10.1223 3 8.6001 4.74609 8.6001 6.9C8.6001 9.05391 10.1223 10.8 12.0001 10.8Z" fill="#191919" stroke="#191919" stroke-miterlimit="10"/>
</svg>
