<svg width="124" height="186" viewBox="0 0 124 186" fill="none" xmlns="http://www.w3.org/2000/svg">
<rect width="100%" height="100%" fill="#f2f2f2" />
    <path transform="translate(49 80)" d="M7.54185 4.16807C7.13762 4.34644 6.95453 4.81872 7.13289 5.22295C7.31126 5.62717 7.78354 5.81027 8.18777 5.6319L7.54185 4.16807ZM8.74841 4.5101L8.42545 3.77818L8.74841 4.5101ZM14.6121 4.6951L15.159 4.11119L15.159 4.11119L14.6121 4.6951ZM15.65 5.66712L15.1031 6.25103L15.1031 6.25103L15.65 5.66712ZM19.3351 6.00611L19.0092 6.73673L19.0092 6.73673L19.3351 6.00611ZM20.3157 16.0176L19.7218 15.4817L19.7218 15.4817L20.3157 16.0176ZM19.4801 15.7161C19.1576 16.0181 19.141 16.5244 19.4431 16.8468C19.7451 17.1693 20.2513 17.1859 20.5738 16.8839L19.4801 15.7161ZM8.18777 5.6319L9.07137 5.24201L8.42545 3.77818L7.54185 4.16807L8.18777 5.6319ZM9.15211 5.22499H13.9285V3.62499H9.15211V5.22499ZM14.0653 5.27901L15.1031 6.25103L16.1969 5.08321L15.159 4.11119L14.0653 5.27901ZM16.3336 6.73723H18.9867V5.13723H16.3336V6.73723ZM19.0092 6.73673C19.2017 6.82256 19.4207 6.94802 19.5771 7.08376C19.7581 7.24085 19.7135 7.28328 19.7135 7.19744H21.3135C21.3135 6.57503 20.9159 6.12717 20.6258 5.87541C20.3112 5.60232 19.941 5.40039 19.6609 5.27548L19.0092 6.73673ZM19.7135 7.19744V15.4486H21.3135V7.19744H19.7135ZM19.7218 15.4817C19.668 15.5413 19.6166 15.5883 19.4801 15.7161L20.5738 16.8839C20.6846 16.7801 20.799 16.6761 20.9096 16.5536L19.7218 15.4817ZM18.9867 6.73723C19.0022 6.73723 19.0115 6.73856 19.0153 6.73928C19.0188 6.73995 19.0161 6.73981 19.0092 6.73673L19.6609 5.27548C19.4284 5.17177 19.1938 5.13723 18.9867 5.13723V6.73723ZM15.1031 6.25103C15.4367 6.56341 15.8766 6.73723 16.3336 6.73723V5.13723C16.2828 5.13723 16.2339 5.11792 16.1969 5.08321L15.1031 6.25103ZM13.9285 5.22499C13.9793 5.22499 14.0282 5.2443 14.0653 5.27901L15.159 4.11119C14.8254 3.79881 14.3855 3.62499 13.9285 3.62499V5.22499ZM19.7135 15.4486C19.7135 15.479 19.709 15.4967 19.7072 15.5023C19.7057 15.5066 19.7084 15.4964 19.7218 15.4817L20.9096 16.5536C21.216 16.2141 21.3135 15.7962 21.3135 15.4486H19.7135ZM9.07137 5.24201C9.09681 5.23079 9.1243 5.22499 9.15211 5.22499V3.62499C8.90187 3.62499 8.65439 3.67716 8.42545 3.77818L9.07137 5.24201Z" fill="#191919"/>
    <path transform="translate(49 80)" d="M5.43243 5.37494H4.58427C4.45593 5.37494 4.32851 5.3985 4.21177 5.45181C3.72371 5.67467 3 6.10078 3 6.49767C3 6.94676 3 13.0469 3 16.0408C3 16.6022 3.27799 17.7249 4.38996 17.7249C5.50193 17.7249 13.8185 17.7249 18.0811 17.7249" stroke="#191919" stroke-width="1.6" stroke-linecap="round"/>
    <path transform="translate(49 80)" d="M3.54323 2.41272C3.21889 2.1127 2.71274 2.13242 2.41272 2.45677C2.1127 2.78111 2.13242 3.28726 2.45677 3.58728L3.54323 2.41272ZM20.4568 20.6873C20.7811 20.9873 21.2873 20.9676 21.5873 20.6432C21.8873 20.3189 21.8676 19.8127 21.5432 19.5127L20.4568 20.6873ZM2.45677 3.58728C6.05945 6.91976 8.74908 9.51992 11.444 12.1252C14.1394 14.7309 16.84 17.3418 20.4568 20.6873L21.5432 19.5127C17.9406 16.1802 15.2509 13.5801 12.556 10.9748C9.86063 8.36906 7.15997 5.75821 3.54323 2.41272L2.45677 3.58728Z" fill="#191919"/>
    <path transform="translate(49 80)" d="M14.8486 11.075C14.8486 12.714 13.4824 14.075 11.7567 14.075C10.031 14.075 8.66481 12.714 8.66481 11.075C8.66481 9.43608 10.031 8.07502 11.7567 8.07502C13.4824 8.07502 14.8486 9.43608 14.8486 11.075Z" stroke="#191919" stroke-width="1.6"/>
</svg>

