<svg width="24" height="24" viewBox="0 0 24 24" fill="none" xmlns="http://www.w3.org/2000/svg">
<path d="M7.70901 14.4C7.80901 14 7.60901 13.5 7.30902 13.2L3.70901 9.69999L8.60901 8.99999C9.00901 8.89999 9.40901 8.69999 9.60901 8.19999L11.909 3.79999L14.109 8.29999C14.309 8.69999 14.709 8.99999 15.109 9.09999L20.009 9.79999L16.409 13.3C16.109 13.6 15.909 14.1 16.009 14.5L16.809 19.4L12.409 17.1C12.209 17 12.009 16.9 11.809 16.9C11.609 16.9 11.409 17 11.209 17.1L6.80902 19.4L7.70901 14.4Z" fill="#191919"/>
<path d="M11.909 4.9L13.709 8.5C14.009 9.1 14.509 9.4 15.109 9.5L19.009 10.1L16.209 12.9C15.809 13.3 15.609 13.9 15.709 14.6L16.409 18.5L12.809 16.5C12.509 16.4 12.209 16.3 11.909 16.3C11.609 16.3 11.309 16.4 11.009 16.5L7.50902 18.3L8.20902 14.5C8.30902 13.9 8.10902 13.3 7.70902 12.8L4.90902 10L8.70902 9.5C9.30902 9.4 9.80902 9 10.109 8.5L11.909 4.9ZM11.909 3C11.809 3 11.709 3 11.709 3.1L9.20902 8C9.10902 8.3 8.90902 8.5 8.60902 8.5L3.20902 9.3C3.00902 9.3 2.90902 9.6 3.10902 9.7L6.90902 13.5C7.10902 13.7 7.20902 14 7.20902 14.3L6.30902 19.7C6.30902 19.9 6.40902 20 6.60902 20H6.70902L11.509 17.5C11.609 17.4 11.809 17.4 11.909 17.4C12.009 17.4 12.209 17.4 12.309 17.5L17.109 20H17.209C17.409 20 17.509 19.9 17.509 19.7L16.609 14.3C16.609 14 16.609 13.7 16.909 13.5L20.809 9.7C21.009 9.6 20.909 9.3 20.709 9.3L15.209 8.5C14.909 8.5 14.709 8.3 14.509 8L12.109 3.1C12.109 3 12.009 3 11.909 3Z" fill="#191919"/>
</svg>
