<svg width="66" height="43" viewBox="0 0 66 43" fill="none" xmlns="http://www.w3.org/2000/svg">
<path fill-rule="evenodd" clip-rule="evenodd" d="M27.3691 39.1993L62.8613 3.70711L62.1542 3L26.662 38.4922L27.3691 39.1993ZM27.3686 39.1992L3.70711 15.5377L3 16.2448L26.6615 39.9063L27.3686 39.1992Z" fill="white"/>
<path d="M62.8613 3.70711L64.2755 5.12132L65.6897 3.70711L64.2755 2.29289L62.8613 3.70711ZM27.3691 39.1993L25.9549 40.6135L27.3691 42.0277L28.7833 40.6135L27.3691 39.1993ZM62.1542 3L63.5684 1.58579L62.1542 0.171571L60.74 1.58579L62.1542 3ZM26.662 38.4922L25.2478 37.078L23.8336 38.4922L25.2478 39.9064L26.662 38.4922ZM3.70711 15.5377L5.12132 14.1235L3.70711 12.7093L2.29289 14.1235L3.70711 15.5377ZM27.3686 39.1992L28.7828 40.6134L30.197 39.1992L28.7828 37.785L27.3686 39.1992ZM3 16.2448L1.58579 14.8306L0.171573 16.2448L1.58579 17.6591L3 16.2448ZM26.6615 39.9063L25.2472 41.3205L26.6615 42.7347L28.0757 41.3205L26.6615 39.9063ZM61.4471 2.29289L25.9549 37.7851L28.7833 40.6135L64.2755 5.12132L61.4471 2.29289ZM60.74 4.41421L61.4471 5.12132L64.2755 2.29289L63.5684 1.58579L60.74 4.41421ZM28.0762 39.9064L63.5684 4.41421L60.74 1.58579L25.2478 37.078L28.0762 39.9064ZM28.7833 37.7851L28.0762 37.078L25.2478 39.9064L25.9549 40.6135L28.7833 37.7851ZM2.29289 16.952L25.9544 40.6134L28.7828 37.785L5.12132 14.1235L2.29289 16.952ZM4.41421 17.6591L5.12132 16.952L2.29289 14.1235L1.58579 14.8306L4.41421 17.6591ZM28.0757 38.4921L4.41421 14.8306L1.58579 17.6591L25.2472 41.3205L28.0757 38.4921ZM25.9544 37.785L25.2472 38.4921L28.0757 41.3205L28.7828 40.6134L25.9544 37.785Z" fill="#5AC372"/>
</svg>
