<svg xmlns="http://www.w3.org/2000/svg" width="400" height="400" fill="none" viewBox="0 0 400 400"><path fill="#fff" d="M400 0H0v400h400z"/><path fill="#F9F9F9" d="M119.297 344.914c-7.06-1.526-91.88-15.28-85.63-116.726 6.25-101.447 14.076-131.957 47.053-143.12C113.697 73.905 193.857 21.09 256.76 71.31c62.903 50.22 130.78 95.26 103.843 175.447C333.667 326.943 329.27 353.693 258.98 349.6c-70.29-4.093-106.113 2.577-139.683-4.687"/><path fill="#E3E3E3" d="M257.04 306.559c9.043 3.26-13.31 7.666-16.447 8-33.87 3.433-70.52 1.836-104.076-2.537-1.377-.18-2.797-.38-3.937-.937-8.293-4.06 18.353-6.816 20.827-7.026 9.196-.79 18.54-1.307 27.816-1.394 13.144-.126 64.604-.143 75.817 3.894"/><path fill="#6A79A8" d="M213.78 154.936c0-11.583.493-23.416-1.43-34.89-1.387-8.28-4.583-16.886-12.36-21.12-4.193-2.28-9-3.093-13.723-3.19-4.884-.1-9.897.427-14.43 2.334-7.894 3.333-11.914 10.74-13.667 18.786-2.693 12.424-1.747 25.577-1.743 38.194 0 .836 1.63.593 1.63-.124 0-10.91-.524-21.96.84-32.813 1-7.943 3.31-16.667 10.366-21.36 3.864-2.573 8.554-3.547 13.127-3.8 4.92-.27 10.053.127 14.633 2.067 7.897 3.333 11.604 11.12 13.267 19.096 2.51 12.047 1.85 24.704 1.85 36.934 0 .836 1.63.593 1.63-.124z"/><path fill="#DBDBDB" d="M132.023 270.337V138.283h15.057v14.407l-5.53 126.44-2.683-6.36z"/><path fill="#EFEFEF" d="M134.69 264.253V144.629a6.338 6.338 0 0 1 3.906-5.866 6.336 6.336 0 0 1 2.427-.484h6.044v14.054l-5.207 123.13-1.527-6.197-3.193-1.333a3.986 3.986 0 0 1-2.45-3.68"/><path fill="#6A79A8" d="M132.827 270.12V140.08c0-.507.153-1.294 0-1.784a.885.885 0 0 1 0-.23l-1.334.52h12.84c.547 0 1.107.037 1.667 0 .141-.025.286-.025.427 0 .333.13-.18-.296-.127-.05.197.887 0 2.034 0 2.934v5.393c0 2.02.047 4.05 0 6.073-.153 6.534-.573 13.074-.857 19.604l-1.82 41.59-1.86 42.513-.666 15.02-.21 4.827c-.037.776-.244 1.756-.114 2.526.014.111.014.223 0 .334l1.61-.434-1.403-3.333c-.333-.797-.667-2.48-1.333-3.08-.667-.6-2.43-.863-3.267-1.16l-3.577-1.27c-.436-.157-1.603.5-1.523.53l3.267 1.16 2.333.827c.313.11.98.206 1.23.436.547.497 1 2.37 1.317 3.14l1.333 3.18c.133.334 1.597-.093 1.61-.433l.667-15.333 1.56-35.63c.586-13.429 1.174-26.859 1.763-40.29l1.28-29.334c.267-6.066.257-12.106.257-18.183v-2.067c0-.086-.254-.09-.277-.09h-15.07c-.26 0-1.333.14-1.333.52v130.03c0 .454-.18 1.36 0 1.784a.827.827 0 0 1 0 .233c0 .2 1.61-.01 1.61-.433m54.09 36.496v-27.204c0-.883-1.637-.666-1.637.1v27.204c0 .883 1.637.666 1.637-.1m21.88-1.119V279.8c0-.846-1.63-.61-1.63.12v25.697c0 .847 1.63.61 1.63-.12"/><path fill="#E3E3E3" d="M141.55 152.693c43.42 9.484 113.863 2 111 0V279.13s-36.867 5.537-111 0z"/><path fill="#fff" d="M150.407 153.396c61.77 7.117 102.126-.697 102.126-.697v119.184a4.481 4.481 0 0 1-4.123 4.466c-13.31 1.067-56.51 3.977-95.047.547a9.56 9.56 0 0 1-8.696-9.53V158.503a5.142 5.142 0 0 1 5.74-5.107"/><path fill="#6A79A8" d="M141.043 153.077c19.617 2.87 39.574 3.516 59.374 3.46 15.246-.044 30.666-.334 45.82-2.05a38.684 38.684 0 0 0 5.446-.857c.26-.067 2.334-.667 1.604-1.233-.334-.264-1.56 0-1.56.51v124.52c0 .433-.167 1.286 0 1.693a.785.785 0 0 1 0 .227l.933-.594c-10.127 1.517-20.513 1.854-30.73 2.17-12.817.397-25.647.334-38.467 0a837.317 837.317 0 0 1-25.436-1.1c-4.667-.273-9.334-.579-14-.916-.334-.024-1.594.093-1.684-.07-.046-.087.024-.267 0-.364-.286-1.173 0-2.78 0-3.98V164.72c0-3.86.277-7.837 0-11.69v-.553c0-.387-1.61-.12-1.61.43v124.52c0 .466-.153 1.246 0 1.693.01.075.01.151 0 .227 0 .11.237.166.3.17 23.237 1.726 46.554 2.713 69.857 2.42 12.043-.154 24.113-.597 36.103-1.8 1.804-.18 3.61-.364 5.4-.63.284-.044.934-.207.934-.594V154.397c0-.48.146-1.234 0-1.694a.855.855 0 0 1 0-.226l-1.547.523c-.033-.023.333-.123.087-.117-.094 0-.78.197-1.12.264-1.73.333-3.494.523-5.244.71-6.07.643-12.173 1-18.266 1.273-18.037.84-36.14.907-54.174.027-10.37-.507-20.733-1.334-31-2.837-.44-.077-1.88.633-1.02.757"/><path fill="#E3E3E3" d="m252.533 152.692-25.063-10.047 14.69-4.367s-46.717-3.056-110.137 0l15.057 4.98-5.53 9.434c63.007 8.306 110.983 0 110.983 0"/><path fill="#6A79A8" d="m253.17 152.297-25.06-10.047-.53.81 14.693-4.363c.514-.153 1.09-.823.2-.883-6.556-.427-13.126-.667-19.693-.857a1088.19 1088.19 0 0 0-51.863-.363c-12.934.2-25.863.61-38.787 1.23-.427.02-1.403.64-.6.903l15.057 4.98-.26-.47-5.53 9.43a.3.3 0 0 0 .104.426.313.313 0 0 0 .156.041 438.325 438.325 0 0 0 65.066 3.64 375.732 375.732 0 0 0 39.567-2.667c2.25-.283 4.503-.573 6.737-.957.77-.133 1.333-1.106.213-.916-6.527 1.126-13.163 1.746-19.753 2.296a421.226 421.226 0 0 1-51.644 1.044 433.796 433.796 0 0 1-39.203-3.334l.26.467 5.53-9.43c.15-.257-.033-.393-.26-.47l-15.057-4.977c-.2.3-.4.6-.596.904a1179.952 1179.952 0 0 1 64.816-1.334c12.917.09 25.837.377 38.737 1 2.127.1 4.257.204 6.38.334l.2-.884-14.69 4.364c-.21.063-1.117.576-.53.813l25.063 10.043c.494.217 1.957-.503 1.277-.773"/><path fill="#EFEFEF" d="m242.163 138.283-14.693 4.364 14.693 5.903z"/><path fill="#6A79A8" d="m242.03 137.786-14.697 4.363c-.47.14-1.03.724-.333 1l14.693 5.904c.35.143 1.287-.084 1.287-.577v-10.27c0-.78-1.623-.497-1.623.15v10.27l1.286-.577-14.69-5.906c-.116.333-.23.666-.333 1l14.69-4.367c.953-.287.69-1.283-.28-.99m-17.863 30.408c0-11.667.516-23.573-1.484-35.107-1.44-8.313-4.763-16.836-12.716-20.853-4.287-2.167-9.184-2.843-13.94-2.843-4.757 0-9.53.603-13.9 2.466-7.927 3.377-11.904 10.727-13.604 18.84-2.59 12.36-1.683 25.387-1.666 37.927 0 .257 1.61.03 1.61-.43 0-10.91-.524-21.963.836-32.817 1-7.983 3.374-16.816 10.46-21.543 4-2.683 8.87-3.593 13.627-3.76 4.95-.173 10.12.333 14.64 2.497 7.637 3.643 11.153 11.413 12.75 19.333 2.42 12 1.79 24.563 1.787 36.733 0 .257 1.61.03 1.61-.43z"/><path fill="#6A79A8" d="M169.303 171.063c-.05.94-.616 2.117-1.75 1.894a2.167 2.167 0 0 1-1.633-2.137c0-1.033.773-2.12 1.91-1.773.957.29 1.427 1.203 1.477 2.143.03.57 1.643.23 1.61-.433-.214-3.964-6.627-3.4-6.624.37 0 4 6.424 3.486 6.627-.244.037-.706-1.587-.406-1.617.18m55.77.014c-.053.954-.6 2.134-1.743 1.917-1-.187-1.643-1.23-1.647-2.18 0-1.033.754-2.177 1.904-1.8.956.31 1.433 1.227 1.483 2.177.027.49 1.643.17 1.61-.434-.21-3.926-6.607-3.333-6.62.377 0 3.97 6.423 3.4 6.62-.267.033-.633-1.58-.31-1.607.21m26.654 35.606c.053 3.573 2.353 7.503 4.446 10.227 5 6.506 12.8 9.666 20.767 10.606.75.087 1.667-.98.577-1.11-7.744-.92-15.254-4.036-20.037-10.413-1.873-2.5-4.083-6.35-4.13-9.453 0-.804-1.633-.53-1.623.143M137.92 213.12c-.043 3.517-1.72 7.37-3.167 10.48-3.506 7.537-9.026 13.934-15.613 18.957-.667.503.933.333 1.247.1 6.626-5.053 12.216-11.433 15.803-19 1.55-3.26 3.293-7.28 3.333-10.977 0-.313-1.603-.076-1.61.43zm123.263 56.948 26.107-24.25 2.157-2c.197-.15.38-.318.546-.503.377-.54-.213.387-.45.157.087.083 1.194-.334 1.31-.357l3.11-.843 21.11-5.737 9.234-2.51c1.62-.44 3.486-1.353 5.133-.583 3.147 1.47 2.967 5.753.173 7.386-1.126.667-2.283 1.267-3.423 1.9l-36.067 20.03-17.613 9.784-5.39 3c-1.29.716-2.577 1.686-4.143 1.14-2.78-.977-3.517-4.384-1.794-6.6.364-.467-1.203-.28-1.47.063-3.216 4.133 1.334 8.783 5.794 7.057a23.555 23.555 0 0 0 2.836-1.5l14.95-8.304 40.49-22.483 5.55-3.093c1.22-.667 2.574-1.287 3.37-2.49 2.39-3.62-1.283-7.667-5.14-6.854-1.49.307-2.966.807-4.433 1.204l-22.31 6.063-9.187 2.497c-1 .276-2.236.42-3.07 1.09-1.62 1.306-3.086 2.87-4.61 4.283l-8.403 7.807-14.923 13.863-.91.847c-.384.363 1.15.233 1.466-.064"/><path fill="#6A79A8" d="M290.167 242.796c-1.112-2-2.223-3.992-3.334-5.976-.253-.45-1.786.116-1.61.43 1.111 2 2.217 3.992 3.317 5.976.25.45 1.787-.116 1.61-.43z"/><path fill="#6A79A8" d="M289.743 226.696c-3.47-5.827-12.876-5-15.14 1.507a7.67 7.67 0 0 0 3.094 8.906c2.706 1.707 6.053 1.514 8.823.08.95-.49-.517-.533-.953-.31-5.247 2.71-10.794-2.786-9.6-8.116.593-2.667 2.733-5 5.536-5.277 2.747-.257 5.257 1.333 6.63 3.64.267.45 1.787-.133 1.61-.43M78.31 261.509l-3.457-1.844c-1.206-.636-2.82-1.226-3.75-2.266-2.186-2.447-.333-6.937 3.114-6.174 5.3 1.17 10.553 2.637 15.82 3.95l19.21 4.824c.763.193 1.526.41 2.296.573.166.032.329.074.49.123.27.094-.333-.226-.103-.063 1.287.92 2.433 2.17 3.613 3.223l15.607 13.91 7.073 6.304c1.044.93 2.22 1.806 3.174 2.83 1.666 1.783 1.3 4.963-.97 6.096-1.087.544-2.18.187-3.184-.333-1.28-.64-2.533-1.333-3.796-2l-16.587-8.77-31.48-16.643-.607-.334c-.516-.273-1.98.457-1.266.834l29.91 15.813 18.25 9.657c3.51 1.856 8.333 5.273 11.523.77 1.667-2.334.75-4.824-1.177-6.54l-5.773-5.144-17.063-15.21-5.314-4.736c-.693-.617-1.26-.724-2.173-.954l-19.09-4.766c-5.803-1.45-11.597-2.977-17.42-4.334-2.47-.58-5.157.444-6.233 2.844a4.6 4.6 0 0 0 .783 5.063c.943.98 2.387 1.54 3.567 2.163l3.746 1.957c.517.273 1.977-.453 1.267-.83z"/><path fill="#6A79A8" d="m113.443 260.121 3.194-6.044c.383-.723-1.237-.61-1.514-.086-1.062 2.015-2.126 4.03-3.193 6.043-.383.723 1.237.613 1.513.087"/><path fill="#6A79A8" d="M126.7 250.976c3.153-6.423-2.927-13.093-9.667-11.093s-8 11.053-1.8 14.566c.51.29 1.974-.43 1.267-.83-4.917-2.793-5.177-10.82.667-12.786 5.973-2 10.51 4.923 8 10.056-.364.74 1.253.62 1.513.087zm50.891-42.129a3.41 3.41 0 1 0-6.638-1.56 3.41 3.41 0 0 0 6.638 1.56m46.165-1.683a3.41 3.41 0 1 0-6.574-1.813 3.41 3.41 0 1 0 6.574 1.813m-48.469 30.258c3.38-3.777 8.38-6.503 13.146-7.977 8.747-2.706 18.494-1.37 26.387 3.194a23.798 23.798 0 0 1 4.633 3.333c.367.353 1.877-.243 1.5-.603-4.143-4-10.193-6.434-15.746-7.497a35.396 35.396 0 0 0-26.447 5.427 26.472 26.472 0 0 0-4.957 4.143c-.42.47 1.167.333 1.484-.017z"/><path fill="#FF9C81" d="M164.057 230.12c2.514 0 4.553-2.807 4.553-6.27 0-3.463-2.039-6.27-4.553-6.27-2.515 0-4.554 2.807-4.554 6.27 0 3.463 2.039 6.27 4.554 6.27m66.85-1.67c2.514 0 4.553-2.807 4.553-6.27 0-3.463-2.039-6.27-4.553-6.27-2.515 0-4.554 2.807-4.554 6.27 0 3.463 2.039 6.27 4.554 6.27"/><path fill="#BBDFF5" d="M218.357 213.099a1.65 1.65 0 0 1-3.3 0c0-.91 1.666-3.843 1.666-3.843s1.634 2.933 1.634 3.843"/></svg>