<svg xmlns="http://www.w3.org/2000/svg" width="24" height="24" fill="none" viewBox="0 0 24 24"><path fill="url(#a)" d="M12 2C6.477 2 2 6.477 2 12s4.477 10 10 10 10-4.477 10-10S17.523 2 12 2"/><path fill="#fff" d="M13.353 14.65h2.588l.406-2.629h-2.994v-1.437c0-1.092.357-2.06 1.378-2.06h1.642V6.23c-.289-.039-.899-.124-2.051-.124-2.407 0-3.818 1.271-3.818 4.167v1.749H8.029v2.629h2.474v7.226c.49.073.987.123 1.496.123.46 0 .91-.042 1.354-.102z"/><defs><linearGradient id="a" x1="4.997" x2="20.308" y1="4.997" y2="20.308" gradientUnits="userSpaceOnUse"><stop stop-color="#2AA4F4"/><stop offset="1" stop-color="#007AD9"/></linearGradient></defs></svg>