<svg width="24" height="24" viewBox="0 0 24 24" fill="none" xmlns="http://www.w3.org/2000/svg">
<path d="M22 11.7C19.6 8.8 16 7 12 7C8 7 4.4 8.8 2 11.7C4.4 14.6 8 16.4 12 16.4C16 16.4 19.6 14.6 22 11.7Z" stroke="#191919" stroke-miterlimit="10"/>
<path fill-rule="evenodd" clip-rule="evenodd" d="M18.435 5.70709L17.7279 5L13.9409 8.78702C13.3855 8.4162 12.718 8.20001 12 8.20001C10.067 8.20001 8.5 9.76703 8.5 11.7C8.5 12.418 8.71619 13.0855 9.08701 13.6409L5 17.7279L5.70712 18.435L9.75604 14.3861C10.3636 14.8942 11.1461 15.2 12 15.2C13.933 15.2 15.5 13.633 15.5 11.7C15.5 10.8461 15.1942 10.0636 14.6861 9.45602L18.435 5.70709ZM14.6861 9.45602C14.4713 9.19913 14.2203 8.97351 13.9409 8.78702L9.08701 13.6409C9.2735 13.9203 9.49915 14.1713 9.75604 14.3861L14.6861 9.45602Z" fill="#191919"/>
</svg>
