<svg xmlns="http://www.w3.org/2000/svg" width="280" height="280" fill="none" viewBox="0 0 280 280"><path fill="#fff" d="M280 0H0v280h280z"/><path fill="#F9F9F9" d="M196.093 230.394c5.017-.957 65.404-9.52 60.947-72.73-4.457-63.21-10.033-82.204-33.483-89.157-23.474-6.954-80.524-39.854-125.3-8.564C53.48 91.233 5.18 119.28 24.337 169.238c19.18 49.957 22.306 66.617 72.333 64.073 50.027-2.543 75.53 1.61 99.423-2.916"/><path fill="#E5E5E5" d="M121.403 187.481c-6.16.07-12.32.046-18.433-.28-2.403-.117-9.427-.957-8.4-4.854.653-2.473 5.577-4.036 7.723-4.503 4.434-.98 9.264-.863 13.86-1.19 14.117-1.003 28.304-1.54 42.49-1.517 6.347 0 12.95.047 19.367.304 5.833.233 13.627.023 18.247 2.496l.49.28c.91.56 1.54 1.354 1.306 2.147-.186.677-.956 1.237-1.773 1.703-5.39 3.15-12.297 3.804-19.367 4.247-12.483.77-24.99.957-37.473.98-5.973 0-12.017.14-18.037.187m-67.806.355c-1.89 0-3.78-.07-5.67-.397-2.66-.467-1.657-3.523-1.284-5.297.724-3.406 1.937-3.22 5.25-3.803a64.642 64.642 0 0 1 13.044-.98c1.96.047 3.99.14 5.973.42 2.917.42 5.74.653 8.633 1.027-.35 1.423-1.26 2.66-2.263 3.71-5.46 5.716-10.78 5.46-18.13 5.296-1.843-.046-3.687.024-5.553.024"/><path fill="#E5E5E5" d="M220.617 171.92c-.817.537-1.68 1.027-2.544 1.517-3.873 2.146-7.933 4.246-13.346 4.806-.957.094-1.96-.14-2.847.187-1.027.397-1.983 1.12-2.963 1.633-1.937 1.004-3.99 1.867-6.137 2.287-.7.14-1.33.397-1.493-.443-.094-.514.233-1.074.56-1.424.746-.863 1.913-1.283 2.916-1.773 2.264-1.097 4.317-1.983 5.204-4.13 1.376-3.243 3.266-6.02 6.276-8.213 2.8-2.03 6.417-3.594 10.15-4.807 1.937-.63 4.2-1.423 6.814-1.167 3.64.35 5.016 3.034 4.013 4.924-1.4 2.73-3.827 4.83-6.603 6.603m-101.57-26.97c-1.213 2.427-2.123 5.017-2.637 7.677-1.19 6.136.187 12.343 1.424 18.363.233 1.167.723 2.427.793 3.617.047.606-.047.56-.7.723-.583.14-1.143.28-1.727.42-1.213.28-2.45.537-3.663.77-2.193.42-4.387.77-6.603.98-1.96.187-4.084 0-5.95.747-.584.233-1.167.56-1.47 1.096-1.074 1.774 1.843 3.407 3.15 3.897 2.986 1.12 6.416.863 9.543.887 4.55.023 9.123-.327 13.673-.327 3.08-.163 6.324-.443 8.774-2.31 2.333-1.773 3.22-4.363 3.873-7.093.747-3.197 2.357-6.464 2.427-9.777.07-3.453-1.75-6.627-3.197-9.753-1.563-3.407-2.753-6.954-3.71-10.57-.887-3.36-1.05-7.467-2.38-10.64-.817-1.937-1.633-.724-2.987.42a36.376 36.376 0 0 0-3.36 3.22c-2.053 2.263-3.873 4.853-5.273 7.653"/><path fill="#fff" d="M119.047 144.95c-1.213 2.426-2.123 5.016-2.637 7.676-1.19 6.137.187 12.344 1.424 18.364.233 1.166.723 2.426.793 3.616.047.607-.047.56-.7.724-.583.14-1.143.28-1.727.42-1.213.28-2.45.536-3.663.77-2.193.42-4.387.77-6.603.98-1.96.186-4.084 0-5.95.746-.584.234-1.167.56-1.47 1.097-1.517 2.497 2.823 2.403 4.106 2.543 2.59.304 25.434.56 29.68-1.983 1.937-1.167 2.544-3.687 3.337-5.81a128.78 128.78 0 0 1 1.983-4.947c.677-1.586 1.797-3.29 2.264-4.923.396-1.377-.444-3.337-.934-4.62-.63-1.633-1.446-3.197-2.17-4.783-1.563-3.407-2.753-6.954-3.71-10.57-.886-3.36-1.05-7.467-2.38-10.64-.816-1.937-1.633-.724-2.986.42a36.376 36.376 0 0 0-3.36 3.22c-2.077 2.31-3.897 4.9-5.297 7.7"/><path fill="#E5E5E5" d="M135.497 163.828c.163 2.03-.327 4.317-.793 6.3-.49 2.1-1.237 4.153-2.17 6.113-.864 1.797-2.217 3.454-3.384 5.04-.816 1.12-1.843 1.937-3.243 2.054-2.87.233-5.763.42-8.633.513.163 0 .63-.677.723-.793.28-.304.537-.677.863-.957.35-.28.607-.187 1.074-.187 2.356.07 5.74.094 7.443-1.773 1.633-1.82 3.15-3.78 4.34-5.903 1.283-2.287 2.1-4.784 2.847-7.304.093-.42.606-3.103.933-3.103"/><path fill="#9FCDED" d="M117.927 171.41c.163-.047.326-.07.536-.07 4.9.07 9.52 1.89 14.024 3.92.583.257 1.236.397 1.843.63.7.257 1.377.513 2.077.747.116.046.233.093.373.046.257-.07.35-.746.397-.956l.35-1.33c.443-1.937 1.166-3.78 1.726-5.694.14-.513 1.284-3.243 1.307-3.616 0-.234-.723-2.334-.84-2.87-.187-.91-.49-1.82-.817-2.684-.63-1.586-1.423-3.126-2.123-4.666-1.563-3.407-2.753-6.954-3.71-10.57-.887-3.36-1.05-7.467-2.38-10.64-.817-1.937-1.633-.724-2.987.42a36.376 36.376 0 0 0-3.36 3.22 34.24 34.24 0 0 0-5.273 7.676c-1.213 2.427-2.123 5.017-2.637 7.677-1.19 6.137.187 12.343 1.424 18.363 0 .117.023.257.07.397"/><path fill="#BBDFF5" d="M117.927 171.41c.163-.047.326-.07.536-.07 5.04.07 9.8 1.983 14.42 4.107.654.303 2.054.443 2.054.443.186-.49.513-1.283.7-1.773a128.13 128.13 0 0 1 1.983-4.947c.677-1.587 1.797-3.29 2.263-4.923.397-1.377-.443-3.337-.933-4.62-.63-1.634-1.447-3.197-2.17-4.784-1.563-3.406-2.753-6.953-3.71-10.57-.887-3.36-1.05-7.466-2.38-10.64-.817-1.936-1.633-.723-2.987.42a36.642 36.642 0 0 0-3.36 3.22 34.268 34.268 0 0 0-5.273 7.677c-1.213 2.427-2.123 5.017-2.637 7.677-1.19 6.136.187 12.343 1.424 18.363 0 .14.023.28.07.42"/><path fill="#9FCDED" d="M132.93 175.402a30.234 30.234 0 0 0 1.773-5.25c.467-1.984.957-4.27.794-6.3-.327 0-.84 2.66-.957 3.103-.747 2.52-1.563 4.993-2.846 7.303-.117.21-.234.397-.35.607.513.163 1.049.35 1.586.537"/><path fill="#6A79A8" d="M117.973 171.575c1.167-.28 2.8.164 3.944.374 1.166.21 2.31.513 3.43.863 2.403.747 4.666 1.843 7 2.777.303.116.793-.024 1.05-.234.093-.093.163-.21.256-.28-.35.07-.7.164-1.05.234.444.21.817.56 1.26.77.724.35 1.657.7 2.45.816.257.047 1.214-.396.934-.443-.677-.117-1.377-.397-2.03-.653-.584-.234-1.004-.607-1.54-.887-.28-.14-.817.047-1.05.233-.094.07-.164.21-.257.28.35-.07.7-.163 1.05-.233-2.707-1.097-5.32-2.333-8.12-3.127-2.217-.63-5.11-1.423-7.397-.863-.676.187-.606.537.07.373"/><path fill="#6A79A8" d="M134.937 163.71c-.117 4.946-1.307 10.243-4.06 14.42-.677 1.027-1.447 2.03-2.194 3.033-.863 1.144-1.726 1.704-3.173 1.867-2.73.28-5.46.513-8.19.607-.63.023-.887.816-.117.77 1.587-.07 3.197-.164 4.784-.304 1.423-.116 2.94-.14 4.363-.42 2.31-.443 3.547-2.566 4.83-4.34 3.267-4.527 4.76-10.173 4.9-15.727.023-.583-1.12-.396-1.143.094m-8.027-3.5a13.376 13.376 0 0 0 5.623-6.183c.257-.56-.886-.49-1.073-.094a12.486 12.486 0 0 1-5.297 5.834c-.63.373.327.676.747.443"/><path fill="#6A79A8" d="M129.57 132.303c-.7.164-1.19.607-1.703 1.05-.864.747-1.727 1.494-2.544 2.287a34.643 34.643 0 0 0-4.083 4.76c-2.543 3.547-4.433 7.607-5.32 11.877-.98 4.643-.467 9.38.373 14 .42 2.31.91 4.596 1.494 6.883.093.35.466 1.447.303 1.773-.047.094-.863.257-1.097.304-1.096.256-2.193.513-3.313.723-2.403.49-4.807.91-7.233 1.167-2.054.21-4.177.046-6.16.676-1.12.374-2.614 1.144-2.567 2.544.047 1.213 1.307 2.076 2.263 2.613 3.314 1.89 7.374 1.54 11.037 1.54 4.713 0 9.473-.117 14.187-.35 4.013-.21 8.283-.933 10.756-4.433 1.26-1.797 1.774-3.92 2.357-5.997.723-2.52.98-5.647 2.8-7.653.467-.514-.63-.584-.933-.257-1.167 1.283-1.657 2.823-2.077 4.457-.513 2.053-1.05 4.106-1.68 6.136-.607 1.937-1.61 3.78-3.29 5.017-1.633 1.19-3.64 1.633-5.6 1.843-4.083.444-8.283.35-12.39.467-2.17.07-4.363.07-6.533.07-2.03 0-4.107-.07-6.044-.677-1.213-.396-2.753-1.096-3.453-2.216-1.423-2.31 2.777-2.8 4.153-2.87 3.99-.234 7.91-.794 11.83-1.657.98-.21 1.984-.42 2.94-.677.374-.093.864-.186 1.074-.56.256-.443.023-1.213-.07-1.656-.21-1.027-.537-2.03-.747-3.057-.91-4.387-1.867-8.82-1.773-13.323.07-4.76 1.493-9.38 3.826-13.534a33.568 33.568 0 0 1 4.037-5.693 38.069 38.069 0 0 1 2.333-2.403c.42-.397.84-.747 1.26-1.12.514-.444 1.12-1.214 1.774-1.354.7-.21.513-.863-.187-.7"/><path fill="#E5E5E5" d="M129.873 131.858a99.596 99.596 0 0 1 27.72-6.884c5.017-.49 10.314-.63 15.237.7 5.46 1.494 8.517 5.6 11.69 10.057.187.257.373.56.327.863-.024.234-.234.42-.35.63-2.614 4.9-5.927 9.474-9.66 13.604-4.97 5.483-11.06 9.94-17.967 12.576-4.97 1.89-10.127 2.637-15.377 3.244-2.356-3.454-5.576-11.224-6.836-15.167-1.657-5.063-4.784-19.623-4.784-19.623"/><path fill="#fff" d="M177.87 138.766a13.01 13.01 0 0 0 1.657.233c.583.047 1.166.047 1.726.023.093 0 1.237-.023 1.237-.116 0 .116-.234.303-.304.373-.233.257-.42.56-.63.84-.28.373-.56.747-.863 1.097-.583.723-1.167 1.446-1.773 2.17a87.64 87.64 0 0 1-1.82 2.1c-.63.7-1.26 1.376-1.914 2.03a53.976 53.976 0 0 1-2.006 1.96 39.64 39.64 0 0 1-2.1 1.843c-.42.35-.864.7-1.307 1.05a56.185 56.185 0 0 1-17.826 9.333c-3.874 1.19-7.864 1.937-11.807 2.754 0 0-.233-.397-.723-1.377a63.656 63.656 0 0 1-1.89-4.06c-1.074-2.473-2.1-4.993-2.917-7.583-1.633-5.087-4.76-19.624-4.76-19.624a99.585 99.585 0 0 1 27.72-6.883c4.503-.443 9.193-.607 13.673.327-.14.163-.257.373-.326.583a8.434 8.434 0 0 0-.281 1.493c-.116 1.004-.186 2.1.047 3.08.07.257.163.514.187.77.023.257.023.49.14.747.257.607.466 1.237.746 1.843.467 1.097 1.121 2.1 2.007 2.917 1.144 1.12 2.59 1.773 4.107 2.077"/><path fill="#E5E5E5" d="M198.87 104.605c-4.363-3.314-12.67.28-18.527 8.003-.14.187-.816 1.073-1.05 1.377-1.47 1.96-2.893 3.966-4.107 6.09-.466.816-.91 1.633-1.283 2.473-.163.373-.303.747-.467 1.12-.256.583-.863.957-1.423 1.167-.513.186-.91.56-1.073 1.073a8.342 8.342 0 0 0-.28 1.493c-.117 1.004-.187 2.1.046 3.08.164.7.42 1.377.747 2.03.467.934 1.073 1.82 1.773 2.614 1.144 1.306 2.474 2.076 4.154 2.59 1.493.466 3.383.116 4.853-.327 1.26-.397 2.38-1.143 3.453-1.89.934-.677 1.89-1.307 2.754-2.053 1.75-1.47 3.29-3.197 4.737-4.947.676-.817 1.33-1.657 1.983-2.497.233-.303.91-1.19 1.05-1.376 5.833-7.747 7.023-16.707 2.66-20.02"/><path fill="#fff" d="M198.87 104.602c-.023-.023-.047-.046-.07-.046a6.119 6.119 0 0 0-2.053-.957c-1.657-.42-3.43-.21-5.041.303-4.41 1.354-8.166 4.644-10.966 8.214-.14.163-.257.326-.397.513s-.816 1.073-1.05 1.377c-1.47 1.96-2.893 3.966-4.107 6.09-.466.816-.91 1.633-1.283 2.473-.163.373-.303.747-.467 1.12-.256.583-.863.957-1.423 1.167-.513.186-.91.56-1.073 1.073a8.342 8.342 0 0 0-.28 1.493c-.117 1.004-.187 2.1.046 3.08.164.7.42 1.377.747 2.03.467.934 1.073 1.82 1.773 2.614 1.144 1.306 2.474 2.076 4.154 2.59.863.256 1.703-.07 2.566-.234a7.617 7.617 0 0 0 2.59-1.073c5.741-3.803 9.941-10.08 13.301-15.96.746-1.307 1.423-2.66 1.96-4.06a40.275 40.275 0 0 0 1.773-5.927c.21-1.003.257-2.1.373-3.126.117-1.377-.046-2.007-1.073-2.754"/><path fill="#6A79A8" d="M186.293 135.265c2.777-1.82 5.064-4.364 7.14-6.93 2.474-3.057 4.877-6.207 6.394-9.87 1.983-4.76 3.22-13.557-3.664-14.91-2.683-.537-5.53.35-7.91 1.54-3.337 1.68-6.206 4.293-8.54 7.186-2.403 3.01-4.713 6.184-6.463 9.637-.537 1.05-.747 2.38-2.007 2.707-1.26.326-2.707-.094-3.99-.164-2.24-.163-4.503-.116-6.743.024-10.57.7-21.024 3.196-30.824 7.186-.116.047-.396.164-.35.327 1.867 8.727 3.64 17.593 7.094 25.853 1.306 3.08 2.66 6.23 4.526 9.007.07.117.35.07.444.047 3.943-.444 7.793-.934 11.62-2.054 3.546-1.026 7.047-2.38 10.29-4.153 6.533-3.547 11.876-9.147 16.31-15.05a69.65 69.65 0 0 0 3.523-5.18c.84-1.353 1.937-2.823 2.38-4.363.117-.397-.887-.047-1.003.023-3.197 2.287-7.98 1.447-10.71-1.213-2.473-2.427-3.43-6.184-2.263-9.45.093-.304-1.004-.164-1.12.163-1.424 3.99.256 8.68 3.85 10.897 3.29 2.053 7.956 1.96 11.106-.28-.327 0-.676.023-1.003.023-.35 1.19-1.167 2.333-1.797 3.383a76.288 76.288 0 0 1-3.033 4.667 71.232 71.232 0 0 1-6.673 8.027c-2.59 2.706-5.437 5.203-8.657 7.163-3.08 1.89-6.487 3.313-9.917 4.433-4.177 1.354-8.4 1.937-12.74 2.427.14.023.28.047.443.047-1.68-2.52-2.939-5.344-4.129-8.12-1.097-2.544-2.124-5.11-2.917-7.77-1.423-4.83-2.497-9.777-3.594-14.677-.303-1.4-.63-2.777-.91-4.177-.116.117-.233.21-.35.327 8.494-3.453 17.431-5.74 26.554-6.72 2.473-.257 4.947-.443 7.42-.42 2.053.023 4.177.513 6.23.35 1.003-.07 2.52-.303 3.033-1.26 1.074-1.96 1.914-3.99 3.15-5.88 3.71-5.693 8.797-12.693 15.937-14.023 2.753-.514 5.577.373 6.953 2.94 1.47 2.753 1.074 6.183.234 9.053-1.167 4.037-3.477 7.467-5.997 10.757-2.357 3.056-4.924 6.183-8.167 8.306-.537.374.584.327.84.164"/><path fill="#6A79A8" d="M180.95 128.778c-.21-.397-.35-.887-.303-1.354.023-.21.07-.56.256-.699.327-.257.957.046 1.26.233.514.326.56.84.654 1.4.116.77.536 1.073.98 1.68.163.21 1.003-.07.816-.327-.373-.49-.816-.817-.91-1.47-.046-.35-.07-.7-.21-1.026-.35-.77-1.33-1.097-2.123-1.05-1.54.07-1.96 1.586-1.307 2.799.164.304 1.004 0 .887-.186"/><path fill="#6A79A8" d="M179.083 128.662c2.03 1.423 7.56 3.313 8.377-.467.117-.513-1.027-.35-1.143.117-.607 2.823-4.994.723-6.347-.233-.35-.28-1.377.233-.887.583"/><path fill="#6A79A8" d="M181.23 127.565c.07.42.187.816.373 1.213.094.21.747 0 .677-.187a4.538 4.538 0 0 1-.373-1.213c-.024-.21-.724-.047-.677.187m-7.304 24.127c1.424 7.466 3.407 14.816 8.844 20.44 1.82 1.866 3.873 3.803 6.066 5.25 1.564 1.026 3.547 1.866 5.227.606.49-.35-.653-.28-.887-.093-.91.677-2.52-.42-3.29-.91-.886-.583-1.68-1.26-2.473-1.937-1.913-1.68-3.78-3.36-5.39-5.32-4.2-5.226-5.74-11.853-6.977-18.293-.046-.35-1.19-.07-1.12.257"/><path fill="#FFF0A9" d="M187.273 156.475c-.046.093-.046.21-.046.35.326 2.076 1.89.956 2.916.326 1.517-.933 3.034-1.866 4.527-2.8 1.493-.933 3.01-1.843 4.503-2.776l2.24-1.4c.467-.28.56-.257.514-.794-.047-.42-.21-.863-.35-1.236-2.917 1.33-5.88 2.683-8.47 4.573-.98.77-5.67 3.407-5.834 3.757m18.48-3.801c-.77.256-1.47.49-2.193.77-.373.14-.607.42-.35.886.163.304.583.654.863.864 2.917 2.216 9.94-2.124 15.61-9.637 5.694-7.537 7.934-15.447 4.994-17.663-.397-.304-1.494-1.004-1.914-.467-.443.583.164 2.007.164 2.683 0 1.704-.234 3.407-.654 5.064-.816 3.336-7.396 14.35-16.52 17.5"/><path fill="#6A79A8" d="M186.643 156.571c.304 3.08 3.22 1.05 4.714.14 3.733-2.31 7.466-4.597 11.2-6.907.466-.303-.654-.187-.864-.047-2.66 1.634-5.32 3.29-7.98 4.924-1.26.77-2.52 1.563-3.78 2.333-.35.233-.863.677-1.283.7-.723.07-.817-.887-.863-1.423-.047-.234-1.19-.024-1.144.28m15.75-3.08c1.587 5.67 9.264.56 11.714-1.47 3.08-2.567 5.716-5.693 7.91-9.053 1.936-2.987 3.71-6.37 4.34-9.917.443-2.473.21-5.483-2.8-5.95-.28-.047-1.307.42-.724.49 3.314.49 2.684 4.783 2.077 7.093-1.097 4.037-3.337 7.77-5.857 11.084-2.38 3.103-5.18 6.066-8.516 8.166-2.287 1.424-5.997 2.917-7.024-.723-.093-.303-1.213 0-1.12.28"/><path fill="#6A79A8" d="M206.85 151.741c-1.447-1.19-1.003-3.524-.583-5.087.77-2.847 2.263-5.483 3.966-7.863 1.704-2.38 3.71-4.62 6.067-6.394 1.353-1.026 3.92-2.87 5.647-1.656.303.21 1.306-.234 1.05-.42-1.54-1.074-3.664-.327-5.18.443-2.777 1.4-5.11 3.663-7.07 6.02-2.287 2.73-4.294 5.857-5.39 9.263-.584 1.797-1.307 4.69.42 6.09.28.257 1.33-.186 1.073-.396"/><path fill="#fff" d="m187.553 156.289 13.137-8.096-.14.653c-.303 2.193.07 3.873 1.19 4.713 2.917 2.217 9.94-2.123 15.61-9.636 5.693-7.537 7.933-15.447 4.993-17.664-2.916-2.216-9.94 2.124-15.61 9.637-2.543 3.383-4.41 6.837-5.413 9.823l-13.067 8.074c-.303.186-.63.49-.886.84-.257.35-.467.746-.584 1.073-.186.7.14.957.77.583m32.574-27.066c2.286 1.726.536 7.933-3.92 13.836-4.457 5.904-9.94 9.287-12.25 7.56-2.287-1.726-.537-7.933 3.92-13.836 4.456-5.904 9.963-9.287 12.25-7.56"/><path fill="#6A79A8" d="M187.973 156.313c4.387-2.707 8.75-5.413 13.137-8.097l-.98.07c-.537 2.754-.07 6.207 3.383 6.09 3.174-.093 6.184-2.24 8.517-4.223 3.803-3.22 6.977-7.303 9.333-11.667 1.587-2.963 3.71-7.326 2.59-10.803-.793-2.496-3.476-2.473-5.576-1.796-3.617 1.166-6.72 3.92-9.264 6.626-3.453 3.687-6.463 8.073-8.166 12.833-.164.444-.024.28-.327.537-.257.233-.63.397-.933.56-1.027.63-2.077 1.283-3.104 1.913-2.52 1.564-5.04 3.104-7.56 4.667-.583.35-1.236.677-1.726 1.167-.397.396-1.587 1.796-.98 2.356.396.374 1.166 0 1.563-.186.677-.327-.373-.304-.653-.164.186-.093.233-.863.35-1.12.256-.513.653-.933 1.12-1.26.07-.046.163-.093.233-.14.583-.373 1.167-.723 1.773-1.096 1.96-1.214 3.944-2.427 5.904-3.64 1.586-.98 3.196-1.96 4.783-2.964.63-.396.677-.933.98-1.656.793-1.96 1.797-3.827 2.917-5.6 2.356-3.734 5.32-7.233 8.82-9.94 1.796-1.377 5.39-4.083 7.723-2.31 2.147 1.633 1.143 5.437.467 7.513-1.354 4.13-3.757 7.957-6.487 11.293-2.637 3.22-5.95 6.697-9.917 8.214-1.19.466-2.66.7-3.733-.21-1.447-1.237-1.26-3.524-.933-5.204.07-.326-.887 0-.98.07-4.387 2.707-8.75 5.414-13.137 8.097-.467.327.653.21.863.07"/><path fill="#6A79A8" d="M219.59 129.413c1.097.91 1.073 2.543.863 3.826-.303 1.867-1.05 3.664-1.913 5.344-2.147 4.13-5.297 8.166-9.193 10.78-1.214.793-3.104 2.03-4.597 1.26-1.073-.56-1.283-1.914-1.237-3.01.164-4.294 3.034-8.634 5.647-11.854 1.61-1.983 3.43-3.826 5.553-5.25 1.33-.886 3.36-2.146 4.877-1.096.257.186 1.237-.28 1.05-.397-2.753-1.913-7.047 1.423-9.007 3.127-4.013 3.523-7.723 8.516-8.983 13.79-.327 1.4-.63 3.29.373 4.503.864 1.027 2.334.957 3.524.653 4.48-1.12 8.143-5.273 10.71-8.843 1.796-2.497 3.406-5.343 4.13-8.377.373-1.563.653-3.71-.747-4.876-.233-.164-1.237.28-1.05.42"/><path fill="#6A79A8" d="M219.59 129.433c2.473 2.03.047 7-1.05 9.146-2.123 4.13-5.297 8.167-9.193 10.757-1.167.77-3.034 1.983-4.504 1.307-1.143-.514-1.376-1.914-1.33-3.034.164-4.293 3.057-8.633 5.647-11.83 1.61-1.983 3.43-3.826 5.553-5.25 1.307-.863 3.384-2.146 4.877-1.096.28.186 1.283-.257 1.05-.397-2.847-1.983-7.21 1.517-9.193 3.29-3.92 3.5-7.56 8.447-8.774 13.627-.326 1.4-.606 3.313.397 4.526.863 1.027 2.333.98 3.523.677 4.55-1.143 8.33-5.483 10.897-9.17 1.703-2.45 3.22-5.157 3.92-8.073.373-1.564.653-3.734-.747-4.877-.28-.233-1.306.21-1.073.397m-59.43 9.941c.583 3.92 1.937 7.933 4.457 11.06 2.24 2.8 5.32 4.946 8.633 6.276 3.407 1.377 7 1.774 10.64 1.307 1.983-.257 4.083-.677 5.88-1.563 1.33-.677 4.41-3.524 5.553-1.33.21.42 1.33.07 1.12-.304-1.656-3.22-5.763.537-7.676 1.354-4.037 1.656-8.867 1.773-12.997.513-3.687-1.12-7.117-3.267-9.637-6.183-2.753-3.174-4.2-7.327-4.806-11.434-.117-.443-1.237-.163-1.167.304"/><path fill="#E5E5E5" d="M179.41 110.998c-.373 1.353 1.027 2.426 1.983 2.986 2.754 1.634 5.974 1.89 9.077 2.38 3.22.514 6.51.747 9.777.817.046.047.093.07.14.117 2.31-4.9.443-10.64-4.154-12.787-4.573-2.147-10.126.047-12.436 4.923h-.024c-.816-.093-1.633-.093-2.38.047-.84.163-1.726.583-1.983 1.517"/><path fill="#9FCDED" d="M179.27 109.388c-.373 1.353 1.027 2.427 1.983 2.987 2.753 1.633 5.974 1.89 9.077 2.38 3.22.513 6.51.746 9.776.816.047.047.094.07.14.117 2.31-4.9.444-10.64-4.153-12.787-4.573-2.146-10.127.047-12.437 4.924h-.023c-.816-.094-1.633-.094-2.38.046-.84.14-1.726.584-1.983 1.517"/><path fill="#BBDFF5" d="M179.27 109.388c-.373 1.353 1.003 2.45 1.983 2.987 1.914 1.073 4.9 1.283 8.634 1.47 2.66.14 4.946.186 8.213.233.047.047 2.59-9.03-2.007-11.2-4.573-2.147-10.126.047-12.436 4.923h-.024c-.816-.093-1.633-.093-2.38.047-.84.163-1.726.607-1.983 1.54"/><path fill="#6A79A8" d="M184.17 107.803c2.24-4.574 7.723-7 12.297-4.2 4.13 2.52 5.11 7.933 3.196 12.156.374-.093.724-.186 1.097-.28-4.9-3.92-10.733-6.416-16.8-7.886-.35-.094-1.33.443-.7.583 5.95 1.447 11.667 3.873 16.45 7.723.28.234.933.024 1.097-.28 2.263-5.016.35-11.456-5.134-13.323-4.993-1.727-10.383 1.073-12.623 5.67-.163.28.933.187 1.12-.163"/><path fill="#6A79A8" d="M200.48 115.317c-4.55-.07-9.123-.56-13.603-1.4-1.937-.35-3.944-.887-5.577-2.03-.677-.49-1.47-1.143-1.54-2.053-.163-1.89 2.147-1.937 3.477-1.797.256.023 1.283-.42.723-.49-1.587-.163-4.177-.117-5.087 1.517-1.143 2.076 1.82 3.64 3.314 4.246 2.543 1.074 5.39 1.33 8.096 1.727 3.127.467 6.3.7 9.474.747.256.023 1.283-.444.723-.467m-5.297-12.112c.397-.816.63-1.656.677-2.543.023-.397-1.097-.163-1.12.163-.07.887-.28 1.75-.676 2.544-.117.21.373.21.466.186.233-.023.537-.14.653-.35"/><path fill="#6A79A8" d="M200.317 102.132c-3.22-.49-6.067-2.38-7.817-5.133-.21-.327-1.26.093-1.12.303 1.867 2.94 4.807 4.83 8.237 5.367.28.023 1.283-.443.7-.537"/><path fill="#6A79A8" d="M200.48 97.86c-2.987 2.077-6.58 2.917-10.173 2.427-.537-.07-1.167.677-.397.77 3.99.537 8.003-.443 11.317-2.73.606-.444-.327-.77-.747-.467m3.407 3.007c.84-1.236.56-2.823-.747-3.593-.303-.187-1.307.28-1.05.42 1.143.677 1.517 2.077.77 3.197-.28.373.84.233 1.027-.024m-10.22-5.479c-1.704-.864-3.664-.35-4.667 1.26-.327.513.817.536 1.073.116.607-.956 1.727-1.26 2.73-.746.42.233 1.4-.35.864-.63m-3.034-1.308c-2.193-.116-4.34 1.377-4.153 3.757.023.304 1.167.07 1.12-.303-.117-1.353.77-2.987 2.31-2.893.233.023.63-.024.793-.21.14-.164.21-.35-.07-.35m14.257 8.683c1.26-.934 1.82-2.544 1.26-4.037-.117-.303-1.237.047-1.12.303.49 1.307.14 2.824-1.003 3.664-.49.35.63.233.863.07"/><path fill="#FFF0A9" d="M70.7 158.645c3.407 5.226 7.467 10.943 13.603 12.063-8.143 10.453-21.91 16.24-35.07 14.723 1.004.117 1.844-8.283 2.427-9.31 1.307-2.286 4.06-2.496 6.3-3.616 5.74-2.87 10.453-7.864 12.74-13.86"/><path fill="#6A79A8" d="M70.187 158.854c3.36 5.157 7.35 10.874 13.79 12.134-.07-.094-.117-.21-.187-.304-8.027 10.22-21.257 15.844-34.207 14.42-.186.21-.373.397-.56.607 1.424-.047 1.61-1.913 1.844-2.987.42-1.96.653-3.966 1.12-5.926.676-2.73 4.06-3.08 6.206-4.13a26.253 26.253 0 0 0 7.397-5.367 25.927 25.927 0 0 0 5.67-8.773c.14-.35-.98-.21-1.12.14a25.252 25.252 0 0 1-6.743 9.683 25.926 25.926 0 0 1-4.83 3.43c-1.564.863-3.29 1.283-4.877 2.053-1.05.514-2.17 1.307-2.66 2.427-.35.817-.42 1.797-.583 2.683-.234 1.26-.444 2.52-.7 3.78-.117.537-.234 1.05-.397 1.564-.047.186-.187.396-.21.583-.047.443-.56.21.303.163-.256 0-1.213.537-.56.607 13.557 1.493 27.51-4.27 35.934-15.003.116-.164-.024-.28-.187-.304-6.277-1.236-10.173-6.976-13.44-11.97-.163-.233-1.26.117-1.003.49"/><path fill="#6A79A8" d="M69.277 165.83c.723.817 1.003 2.007 1.4 3.01.373.91.793 1.797 1.33 2.614 1.12 1.68 2.706 2.893 4.573 3.616.303.117 1.33-.35.91-.513a9.224 9.224 0 0 1-4.783-4.13c-.887-1.563-1.19-3.687-2.38-5.04-.234-.233-1.307.163-1.05.443m-2.567 4.879a9.332 9.332 0 0 0 2.637 6.72c.21.21 1.26-.187 1.05-.397-1.727-1.82-2.614-4.13-2.567-6.626.023-.21-1.12-.047-1.12.303m-1.89 2.613c-.047 2.333.537 4.527 1.68 6.557.233.396 1.307 0 1.027-.49-1.074-1.914-1.61-3.99-1.564-6.184 0-.536-1.143-.35-1.143.117m-4.2-.256c-.443 2.753-.513 6.626 1.774 8.656.35.304 1.4-.14 1.026-.466-2.193-1.937-2.1-5.647-1.68-8.284.117-.536-1.05-.373-1.12.094"/></svg>