<svg width="24" height="24" viewBox="0 0 24 24" fill="none" xmlns="http://www.w3.org/2000/svg">
<path d="M15.4 13.1H17C18.7 13.1 20 14.4 20 16V20.4C20 20.7 19.8 20.9 19.5 20.9H4.5C4.2 20.9 4 20.7 4 20.4V16C4 14.4 5.3 13 7 13H8.5C8.8 13 9.1 13.1 9.2 13.3L11.7 15.8C11.8 15.9 12 15.9 12.1 15.8L14.6 13.3C14.9 13.2 15.2 13.1 15.4 13.1Z" stroke="#191919" stroke-miterlimit="10"/>
<path d="M12 10.8C13.8778 10.8 15.4 9.05391 15.4 6.9C15.4 4.74609 13.8778 3 12 3C10.1222 3 8.60001 4.74609 8.60001 6.9C8.60001 9.05391 10.1222 10.8 12 10.8Z" stroke="#191919" stroke-miterlimit="10"/>
</svg>
