<svg xmlns="http://www.w3.org/2000/svg" width="280" height="280" fill="none" viewBox="0 0 280 280"><g clip-path="url(#a)"><path fill="#fff" d="M280 0H0v280h280z"/><path fill="#F8F8F8" d="M219.956 38.152c22.328 7.483 35.357 28.756 36.519 55.433 1.33 30.541-4.256 61.939-19.278 88.702-14.812 26.385-39.212 47.486-67.968 56.506-19.8 6.212-41.251 7.63-61.761 4.847-29.79-4.042-55.524-27.303-69.953-53.058-10.4-18.562-17.428-42.212-12.658-63.555 7.219-32.294 30.45-46.34 56.889-53.212 13.519-3.514 27.335-1.589 40.399-7.117 12.427-5.257 22.958-13.44 34.739-19.929 18.386-10.126 40.763-15.15 61.054-9.249.683.198 1.355.408 2.018.632"/><path fill="#EEE" d="M192.787 224.817c-.102.525-.875 1.096-2.506 1.717-11.431 4.354-24.934 3.003-36.687 3.026-22.082.045-44.165-.891-66.227-.891-13.769-.919-29.792-3.227-16.158-6.405 15.51-3.614 32.335-3.085 48.025-3.507a457.461 457.461 0 0 1 42.639.84c2.406.163 31.488 2.287 30.914 5.22"/><path fill="#FFE07B" d="M165.565 224.476c3.955-.25 7.952-.247 11.732-1.633 6.321-2.315 9.695-8.092 12.327-13.937.22-.486.43-.976.635-1.468 7.567-18.314 6.986-68.495 6.986-68.495s-96.511-.315-100.32-1.076v49.336z"/><path fill="#FFEEA4" d="M177.85 222.614c-19.021 6.935-11.494-54.395-6.739-77.838-32.617-.126-70.203-.38-102.82-.506l-.003 4.681c-.604 17.735-.2 40.446 1.652 58.093.474 4.505 1.265 9.461 4.75 12.357 2.44 2.025 5.732 2.616 8.86 3.117 3.648.584 7.33.957 11.01 1.267 4.566.385 9.144.651 13.722.857 5.063.228 10.131.378 15.199.471 5.145.096 10.292.133 15.44.112 4.813-.019 9.627-.086 14.438-.222 4.07-.114 8.139-.273 12.204-.529 3.955-.25 7.952-.248 11.732-1.634z"/><path fill="#5D7183" d="M181.183 220.474c-3.117 2.142-7.051 3.64-10.014.451-3.097-3.332-3.872-8.692-4.401-13.011-.829-6.734-.754-13.578-.437-20.342.348-7.399 1.062-14.782 2-22.129.887-6.944 1.956-13.877 3.346-20.739.038-.187-.208-.236-.34-.236-26.927-.105-53.854-.275-80.78-.408-7.348-.037-14.693-.07-22.041-.098-.266 0-.784.121-.784.462-.005 8.309-.315 16.613-.245 24.925.09 11.153.492 22.318 1.47 33.432.413 4.699.518 10.012 2.984 14.184 2.712 4.583 8.022 5.402 12.866 6.099 12.388 1.783 25.042 2.098 37.539 2.345 12.672.252 25.37.227 38.033-.352 2.977-.135 5.955-.299 8.93-.495 2.641-.175 5.292-.485 7.807-1.353 4.448-1.531 7.777-4.844 10.195-8.792 3.714-6.062 5.639-12.78 6.888-19.717 1.337-7.431 2.062-14.973 2.59-22.5a430.359 430.359 0 0 0 1.029-32.86c-.003-.182-.003-.364-.005-.544-.002-.133-.259-.159-.341-.159-3.187-.028-6.377-.053-9.564-.081-7.707-.068-15.417-.138-23.123-.208-9.481-.086-18.961-.177-28.441-.273-8.379-.084-16.758-.173-25.135-.275-4.527-.056-9.06-.054-13.585-.217a18.365 18.365 0 0 1-.469-.021c-.191-.012-.758.112-.784.382-.165 1.664-.182 3.293.161 4.938.077.371 1.209.093 1.127-.301-.331-1.594-.324-3.167-.163-4.784a92.64 92.64 0 0 1-.784.383c3.841.231 7.719.156 11.562.208 8.05.105 16.102.189 24.152.27 9.501.098 19 .189 28.502.278 8.075.075 16.151.147 24.227.219l7.965.07 2.455.021c.36.003.943.122 1.288.012.045-.014.119 0 .168.002l-.34-.158c.102 8.962-.159 17.945-.633 26.894-.396 7.469-.97 14.942-1.967 22.358-.835 6.213-1.841 12.602-4.111 18.48-1.619 4.193-3.762 8.535-6.902 11.806-1.685 1.753-3.701 3.15-5.99 3.99-2.926 1.074-6.085 1.258-9.17 1.426a594.745 594.745 0 0 1-36.937.854c-12.219-.096-24.467-.42-36.647-1.463-3.178-.273-6.356-.6-9.51-1.073-2.632-.397-5.383-.78-7.782-2-4.716-2.399-5.876-7.786-6.43-12.598-1.214-10.523-1.657-21.156-1.888-31.74a522.262 522.262 0 0 1-.099-16.224c.04-4.116.236-8.234.239-12.35 0-1.111 0-2.219.002-3.33l-.784.462c26.927.105 53.853.276 80.78.409 7.347.037 14.693.07 22.041.098-.115-.08-.227-.159-.341-.236a285.437 285.437 0 0 0-5.301 41.986c-.357 6.974-.47 14.033.343 20.979.522 4.475 1.297 9.968 4.449 13.459 3.344 3.7 8.291 1.948 11.835-.486.614-.443-.357-.567-.705-.329"/><path fill="#5D7183" d="M110.035 195.96c1.946 5.094 10.369 5.192 12.656.334.263-.56-.873-.525-1.071-.103-1.956 4.156-8.851 3.673-10.458-.534-.185-.476-1.305-.156-1.127.303m-6.783-8.187c1.164 2.762 5.556 2.713 6.886.116.28-.546-.859-.515-1.071-.102-.971 1.894-3.899 1.556-4.688-.318-.198-.471-1.316-.144-1.127.304m20.211 0c1.165 2.762 5.556 2.713 6.886.116.28-.546-.859-.515-1.071-.102-.971 1.894-3.899 1.556-4.688-.318-.2-.471-1.318-.144-1.127.304"/><path fill="#fff" d="M100.166 191.352c-.126 2.011-1.452 3.568-2.961 3.472-1.51-.096-2.63-1.804-2.504-3.815.126-2.011 1.451-3.568 2.961-3.472 1.51.093 2.63 1.801 2.504 3.815m39.168 2.455c-.126 2.011-1.452 3.567-2.961 3.472-1.51-.096-2.63-1.804-2.504-3.815.126-2.012 1.451-3.568 2.961-3.472 1.51.095 2.63 1.803 2.504 3.815m9.968-92.925c-1.258-5.4 2.324-10.862 7.483-12.498-5.913-3.796-15.988-3.185-15.097-13.381.63-7.206 10.444-11.975 16.94-11.098-.924-3.962-1.22-8.295.563-11.953 1.936-3.974 6.176-6.55 10.563-7.094 4.389-.546 8.864.754 12.686 2.978 2.298-4.2 6.622-7.234 11.356-7.964 8.041-1.239 14.866 2.627 16.093 11.023 4.044-2.273 8.844-4.506 13.139-2.754 2.744 1.12 4.709 3.815 5.213 6.734.504 2.922-.371 5.997-2.107 8.398 5.08-7.023 29.295 8.435 12.138 19.479 3.437 1.778 5.521 5.604 5.859 9.46.313 3.553-.772 7.277-3.206 9.885-2.434 2.609-6.251 3.955-9.725 3.134 1.488 6.23-.952 14.989-7.978 16.821-5.49 1.43-10.883-3.369-12.836-8.699-3.157 10.262-15.201 16.38-24.647 10.811-6.092-3.591-8.957-4.942-16.282-3.363-3.539.763-14.849 2.572-16.879 5.815 1.965-3.138 7.233-9.345 7.439-13.048.254-4.601-3.127-3.512-6.328-6.055-2.119-1.685-3.764-3.967-4.387-6.631"/><path fill="#5D7183" d="M149.865 100.73c-1.122-5.227 2.091-10.516 7.121-12.196.059-.019.514-.231.329-.348-4.053-2.553-9.636-2.823-13.043-6.377-1.955-2.04-2.436-5.143-1.888-7.842.621-3.045 2.847-5.472 5.386-7.122 3.047-1.98 6.853-3.143 10.497-2.692.173.02.99-.108.924-.397-1.348-5.938-1.012-12.495 4.375-16.317 5.563-3.943 12.778-2.588 18.343.595.275.156.931-.014 1.087-.292 3.283-5.833 10.003-8.925 16.571-7.522 5.435 1.16 8.918 5.446 9.758 10.826.04.257.787.003.894-.056 4.531-2.534 10.596-5.215 14.94-.856 3.624 3.635 3.202 9.25.416 13.232-.112.161.898.105 1.071-.123 2.473-3.293 8.085-.623 10.71 1.092 3.579 2.333 7.105 6.414 6.295 11.001-.576 3.262-3.166 5.654-5.817 7.385-.047.03-.208.168-.093.231 4.47 2.42 6.461 7.796 5.719 12.675-.859 5.642-5.768 10.675-11.802 9.378-.182-.04-1.097.056-1.025.38 1.151 5.024-.002 11.321-4.134 14.742-6.09 5.042-13.279-.945-15.552-6.921-.11-.287-1.048.012-1.12.245-2.97 9.359-13.746 15.781-23.002 10.834-2.179-1.164-4.235-2.536-6.559-3.416-1.885-.714-3.862-1.015-5.873-.952-2.168.07-4.277.555-6.393.975-1.795.355-3.589.714-5.372 1.134-2.221.523-4.454 1.113-6.57 1.981-1.466.602-3.129 1.344-4.039 2.709.371-.063.744-.123 1.115-.186 1.458-2.301 3.169-4.434 4.646-6.723 1.374-2.125 2.963-4.601 2.8-7.24-.161-2.632-2.299-3.101-4.338-4.032-3.159-1.444-5.532-4.457-6.377-7.805-.07-.278-1.199.012-1.127.301.779 3.094 2.898 5.997 5.719 7.539 1.967 1.073 4.655 1.33 4.972 3.995.32 2.683-1.374 5.278-2.762 7.427-1.48 2.289-3.188 4.421-4.646 6.722-.105.166.929.091 1.115-.187.971-1.453 2.989-2.137 4.557-2.688 2.002-.704 4.072-1.211 6.142-1.67 1.738-.385 3.488-.71 5.231-1.071 2.436-.507 4.912-.924 7.399-.549 4.849.733 8.414 4.487 13.118 5.57 4.032.929 8.332.182 11.972-1.722 4.455-2.329 7.871-6.342 9.392-11.137l-1.12.245c1.902 4.998 6.727 9.812 12.479 8.944 4.844-.733 8.155-4.721 9.328-9.282.679-2.635.742-5.435.133-8.088-.34.126-.681.255-1.024.381 5.602 1.206 11.275-2.198 13.197-7.52 1.991-5.51.22-12.489-5.138-15.387l-.093.231c2.583-1.687 5.133-3.966 5.936-7.065.604-2.336.03-4.739-1.206-6.767-2.46-4.04-7.334-7.247-12.082-7.655-2.049-.175-4.431.273-5.736 2.009l1.071-.124c3.15-4.503 3.169-11.244-1.785-14.52-4.82-3.19-10.91-.34-15.348 2.14l.893-.057c-.48-3.075-1.764-5.996-4.116-8.094-2.123-1.892-4.876-2.9-7.683-3.173-6.704-.649-13.436 2.524-16.77 8.451l1.087-.292c-5.791-3.31-12.999-4.466-19.019-1.057-2.599 1.473-4.729 3.72-5.777 6.545-1.3 3.498-.915 7.371-.107 10.932.308-.133.616-.266.924-.397-5.936-.732-13.216 2.252-16.45 7.385-1.636 2.597-2.021 6.19-.766 9.03 1.057 2.387 3.288 3.785 5.598 4.784 2.945 1.274 6.144 1.997 8.881 3.724.109-.117.219-.234.329-.348-5.323 1.778-9.063 7.138-7.847 12.798.06.271 1.192-.002 1.129-.303"/><path fill="#fff" d="M205.751 91.595c-2.165 2.683-4.473 5.906-6.402 8.762-.726 1.075-4.032 7.928-4.032 7.928s-4.242-4.316-7.227-6.615l-4.778-3.682c-.425-.326-4.49-3.115-4.396-3.388 8.323-24.075 32.68-22.558 32.68-22.558s4.191 2.669 7.537 6.5c-.224-.254-8.752 8.074-9.452 8.86-1.295 1.46-2.702 2.674-3.93 4.193"/><path fill="#5D7183" d="M214.709 74.695c1.36 1.283 2.763 2.56 3.988 3.976l.968-.509c-.938-.492-2.585 1.421-3.136 1.909a188.868 188.868 0 0 0-4.814 4.443 79.437 79.437 0 0 0-12.541 15.264 85.358 85.358 0 0 0-6.16 11.732c-.224.521.898.406 1.054.045 2.826-6.538 6.422-12.733 10.815-18.343 3.101-3.96 6.627-7.483 10.311-10.885.845-.781 1.697-1.558 2.562-2.317.339-.296.677-.592 1.027-.872.119-.096.303-.194.401-.31.304-.362.388.321-.408-.096.247.128 1.297-.126.968-.51-1.225-1.415-2.627-2.69-3.987-3.975-.308-.29-1.372.142-1.048.448"/><path fill="#fff" d="M202.138 91.017c-.231.457-.46.916-.686 1.379-2.205 4.524-3.834 9.246-5.556 13.983-.229.628-2.168 6.944-2.168 6.944-3.852-2.072-7.905-4.508-11.909-6.372l-6.412-2.989c-.572-.266-5.964-2.406-5.899-2.749 5.68-30.429 35.92-36.503 35.92-36.503 3.6 2.856 4.865 3.109 9.583 6.667-.367-.275-4.611 5.99-4.921 6.435-2.938 4.21-5.621 8.608-7.952 13.204"/><path fill="#5D7183" d="M208.94 67.695c1.864 1.223 3.71 2.48 5.495 3.815l.76-.705c-.66-.215-1.169.441-1.542.877-.8.94-1.512 1.96-2.226 2.966-1.633 2.299-3.236 4.625-4.753 7-4.968 7.782-8.713 16.147-11.604 24.906-.711 2.158-1.358 4.34-2.025 6.512.324-.086.649-.172.973-.261a120.79 120.79 0 0 1-1.223-.665c-.429-.236-1.416.348-.868.649.406.224.815.445 1.223.665.275.149.861.105.973-.262 1.582-5.152 3.26-10.236 5.248-15.25 2.965-7.488 7.051-14.371 11.615-20.984a134.83 134.83 0 0 1 2.221-3.143c.381-.518.763-1.036 1.167-1.535.135-.166.296-.322.418-.497.315-.453.392-.012-.252-.22.357.115 1.283-.312.76-.704-1.785-1.335-3.633-2.593-5.495-3.815-.41-.269-1.4.303-.865.65"/><path fill="#fff" d="M197.907 89.822c-2.856 7.924-5.105 15.799-7.121 23.961-4.438-2.002-8.886-4.014-13.375-5.946l-7.189-3.096c-.639-.275-6.634-2.469-6.613-2.849 1.592-29.397 17.213-47.054 17.213-47.054 7.278 4.014 20.828 8.314 27.45 10.932-.003-.002-7.486 16.063-10.365 24.052"/><path fill="#5D7183" d="m170.274 90.75 18.02 7.684c.306.13 1.185-.334 1.062-.385-6.006-2.562-12.015-5.122-18.021-7.684-.305-.13-1.185.334-1.061.385m1.407-5.789 18.02 7.684c.308.13 1.193-.334 1.062-.39-6.006-2.562-12.014-5.121-18.02-7.683-.308-.129-1.193.333-1.062.39m1.524-6.009 18.02 7.684c.392.168 1.402-.383.882-.605-6.006-2.562-12.014-5.121-18.02-7.683-.395-.168-1.403.382-.882.604m3.34-5.471 17.994 7.823c.283.124 1.314-.312.913-.487-5.999-2.61-11.996-5.215-17.995-7.824-.282-.121-1.314.315-.912.488m1.853 28.984 7.961 3.463c.336.147 1.365-.343.896-.546l-7.961-3.463c-.336-.147-1.365.343-.896.546m2.623-36.855a30.038 30.038 0 0 0 6.633 2.378c.315.072 1.314-.416.705-.558a29.212 29.212 0 0 1-6.431-2.326c-.289-.145-1.327.294-.907.506m13.083 8.634c-1.071-.957-1.473-2.493-.922-3.841.87-2.133 3.355-2.508 5.196-1.344 1.209.765 2.205 2.2 1.743 3.68-.571 1.84-2.863 3.656-4.704 2.529-.261-.159-1.171.305-1.066.37 1.776 1.086 4.076.218 5.476-1.103.838-.79 1.615-1.832 1.536-3.04-.082-1.242-1.06-2.3-2.082-2.9-1.766-1.034-4.076-.878-5.751.277-1.97 1.36-2.327 4.102-.49 5.742.205.185 1.197-.251 1.064-.37"/><path fill="#5D7183" d="M197.342 89.894c-2.819 7.85-5.115 15.867-7.122 23.961.339-.114.675-.226 1.013-.341-7.205-3.25-14.397-6.678-21.777-9.515-1.041-.401-2.084-.8-3.115-1.227-.588-.243-1.974-.591-2.163-1.2-.114-.371.065-.998.093-1.386a95.4 95.4 0 0 1 .425-4.351c.231-1.883.525-3.76.877-5.623 2.044-10.785 6.111-21.3 12.162-30.479 1.108-1.682 2.27-3.378 3.605-4.892-.325.086-.649.172-.973.26 7.718 4.222 16.31 6.796 24.532 9.826.824.304 1.641.654 2.474.934.41.138.301-.133.196.27-.215.82-.768 1.664-1.12 2.434a605.865 605.865 0 0 0-4.291 9.58c-1.69 3.877-3.374 7.77-4.816 11.75-.129.354.991.216 1.124-.15 2.968-8.195 6.685-16.156 10.365-24.055.037-.076-.049-.168-.112-.19-9.135-3.596-18.8-6.203-27.449-10.932-.292-.16-.775.035-.973.26-3.983 4.516-6.991 10.123-9.483 15.552a86.515 86.515 0 0 0-6.041 18.362 87.617 87.617 0 0 0-1.61 11.388c-.084 1.123-.478 1.872.558 2.411.945.49 1.957.863 2.947 1.253 7.994 3.159 15.831 6.713 23.667 10.248.266.119.928-.005 1.012-.341 2.005-8.094 4.303-16.111 7.122-23.96.126-.35-.994-.21-1.127.153"/></g><defs><clipPath id="a"><path fill="#fff" d="M0 0h280v280H0z"/></clipPath></defs></svg>