<svg xmlns="http://www.w3.org/2000/svg" width="400" height="400" fill="none"><path fill="#fff" d="M400 0H0v400h400z"/><path fill="#F9F9F9" d="M116.433 344.933C109.3 343.4 23.5 329.666 29.8 228.3c6.3-101.367 14.233-131.834 47.6-143 33.367-11.167 114.433-63.934 178.067-13.734 63.633 50.2 132.3 95.167 105.033 175.3C333.233 327 328.8 353.7 257.7 349.633c-71.067-4.1-107.3 2.533-141.267-4.7"/><path fill="#F9F9F9" d="M116.433 344.933C109.3 343.4 23.5 329.666 29.8 228.3c6.3-101.367 14.233-131.834 47.6-143 33.367-11.167 114.433-63.934 178.067-13.734 63.633 50.2 132.3 95.167 105.033 175.3C333.233 327 328.8 353.7 257.7 349.633c-71.067-4.1-107.3 2.533-141.267-4.7"/><path fill="#E5E5E5" d="M105.3 320c-1.533 1.1-2.933 2.4-2.833 4.5.233 4.467 8.233 5.533 11.466 5.967 5.8.766 11.567.633 17.4.866 21.1.767 42.267.9 63.367.434 10.833-.234 21.7-.6 32.533-1.134 9.534-.466 20.134.134 29.134-3.4 5.4-2.1 10.6-4.733 15.666-7.566 4.2-2.334 9.634-4.567 12.134-8.934 4.366-7.666-10.934-9.166-15.134-10.033-16.566-3.3-33.633-3.9-50.466-4.4-17.134-.5-34.3-.2-51.367 1.533-21.4 2.167-44.267 9.067-61.7 22-.033.067-.133.134-.2.167"/><path fill="#E5E5E5" d="M272.467 231.832H155.133v80.433h117.334z"/><path fill="#fff" d="M272.5 231.833H155.167l15.533-17.967a3.801 3.801 0 0 1 2.867-1.3H287c.834 0 1.3 1 .734 1.634z"/><path fill="#6A79A8" d="M272.6 231.299H157.033c-.4 0-1.2-.166-1.566 0-.067.034-.167 0-.2 0 .166.267.333.534.533.834 3.8-4.4 7.633-8.8 11.433-13.234 1.334-1.566 2.634-3.266 4.1-4.733 1.1-1.1 2.067-1.033 3.367-1.033h108.534c.966 0 2.2-.2 3.166 0 .1.033.4-.067.467 0 .833.566-.533 1.7-.833 2.033-4.367 5.033-8.7 10.067-13.067 15.1-.367.433-.767.867-1.133 1.3-.667.767.833 1.067 1.3.533 3.966-4.566 7.9-9.133 11.866-13.733l2.7-3.1c.467-.533 1.2-1.167 1.1-1.933-.133-1.367-1.566-1.334-2.6-1.334H176.233c-.833 0-1.666-.033-2.466 0-2.134.067-3.4 1.167-4.7 2.667a5623.757 5623.757 0 0 1-13.434 15.5c-.4.467-.766.9-1.166 1.367-.4.433 0 .833.533.833h112.534c1.5 0 3.1.133 4.6 0h.2c.9.033 1.4-1.067.266-1.067"/><path fill="#F7F7F7" d="m155.3 231.832-28.8 11.233v80.434l28.8-10.8z"/><path fill="#6A79A8" d="m155.433 231.532-25.2 9.8-3.6 1.4c-.6.233-1.266 1.033-.2.6a261472.223 261472.223 0 0 1 28.8-11.2c.567-.234 1.267-1 .2-.6m.567 81.601v-77.034c0-.466-1.367-1.2-1.367-.866v77.033c0 .433 1.367 1.2 1.367.867"/><path fill="#F2F2F2" d="m155.3 231.831-28.833 11.234-13.8-13.467c-1.334-1.3-.867-3.533.866-4.167l23.634-8.866a2.548 2.548 0 0 1 2.633.533z"/><path fill="#fff" d="M154.567 232.132 126.5 243.065l-11.733-11.633c-1.334-1.3-.867-3.533.866-4.167 2.734-1 5.434-2.033 8.167-3.033 4-1.467 8.833-4.533 13.233-3.567 3.167.634 17.2 11.167 17.534 11.467"/><path fill="#6A79A8" d="m155.033 231.232-25.2 9.8-3.6 1.4c.334.066.634.166.967.233-3.5-3.433-7.033-6.833-10.533-10.267-.834-.8-1.667-1.633-2.5-2.433-.467-.467-1.134-.967-1.334-1.6-.7-2.3 2.6-2.9 4.1-3.467l16.8-6.3c1.167-.433 3.534-1.867 4.867-1.367.567.2 1.067.834 1.467 1.234.833.8 1.7 1.6 2.533 2.4 4 3.8 8 7.567 12 11.367.6.566 2.1-.1 1.4-.767l-11.367-10.767c-1.366-1.3-2.733-2.7-4.166-3.967-1.867-1.6-3.667-.733-5.6 0-5.9 2.2-11.8 4.434-17.667 6.634-1.5.566-3.333.966-4.667 1.833-1.433.934-1.9 2.867-.933 4.334.367.566.933 1 1.4 1.466 4.267 4.167 8.533 8.3 12.8 12.467.233.233.633.367.967.233l25.2-9.8 3.6-1.4c1.033-.433.4-1.633-.534-1.266"/><path fill="#E5E5E5" d="M247.033 230.435c.567-5.4-2.666-11.034-8.833-11.867-5.3-.733-10.2 2.6-11.6 7.6.033-5.2-3.8-9.767-9.1-10.5-4.7-.633-9.033 2-10.933 6.267-2.2 4.866-.3 9.3 2.833 13.133 2.867 3.533 14.367 16.5 14.367 16.5s17.066-11.1 20.466-14.867c1.634-1.767 2.567-4 2.8-6.266"/><path fill="#EA8571" d="M245.4 229.731c.567-5.4-2.667-11.033-8.833-11.866-5.3-.734-10.2 2.6-11.6 7.6.033-5.2-3.8-9.767-9.1-10.5-4.7-.634-9.034 2-10.934 6.266-2.2 4.867-.3 9.3 2.834 13.134 2.866 3.533 14.366 16.5 14.366 16.5s17.067-11.1 20.467-14.867c1.633-1.767 2.533-4 2.8-6.267"/><path fill="#F9AB98" d="M245.3 229.733c.367-3.966-1.333-8.066-5.2-10.033-6.133-3.1-11.567 1.433-15.2 6.033.033-7.366-8.667-12.866-14.8-7.7-2.3 1.934-3.467 5.034-3.3 8.067.267 4.967 4.233 8.7 7.133 12.4l7.7 10c.067.067 1.067 1.467 1.1 1.433 0 0 16.434-10.133 19.834-13.933 1.633-1.7 2.533-3.967 2.733-6.267"/><path fill="#6A79A8" d="M246.167 229.566c.5-5.7-2.9-11.1-8.667-12.233-5.9-1.167-11.667 2.4-13.4 8.1.533-.034 1.1-.1 1.633-.134-.1-5.033-3.366-9.466-8.3-10.733-4.9-1.233-10.033.933-12.666 5.233-3.2 5.267-1.134 10.8 2.5 15.2 2.5 3.034 5.133 5.967 7.7 8.934 2.1 2.4 4.233 4.8 6.366 7.2.334.366.9.233 1.267 0 3.867-2.5 7.667-5.1 11.433-7.734 5.067-3.533 11.267-7.133 12.134-13.833.1-.8-1.534-.567-1.634.133-.866 6.6-7.533 10.2-12.5 13.667a361.224 361.224 0 0 1-10.5 7.1h1.267c-3.767-4.267-7.533-8.5-11.233-12.833-2.467-2.867-5.3-5.767-6.4-9.5-1.6-5.467 1.933-11.8 7.733-12.7 6-.934 11.1 4.166 11.2 9.966 0 .867 1.433.467 1.633-.133 1.6-5.233 7.067-8.367 12.367-6.533 4.533 1.566 6.833 6.333 6.433 10.9-.066.866 1.567.633 1.634-.067"/><path fill="#E5E5E5" d="M250.767 108.632c1.1-3.833-.534-8.3-4.9-9.7-3.734-1.2-7.7.6-9.334 4.034.667-3.767-1.5-7.534-5.266-8.734-3.334-1.066-6.8.3-8.734 3.167-2.2 3.267-1.4 6.7.367 9.867 1.633 2.933 8.3 13.766 8.3 13.766s13.767-5.866 16.7-8.166a8.2 8.2 0 0 0 2.867-4.234"/><path fill="#EA8571" d="M249.666 107.933c1.1-3.833-.533-8.3-4.9-9.7-3.733-1.2-7.7.6-9.333 4.033.667-3.766-1.5-7.533-5.267-8.733-3.333-1.067-6.8.3-8.733 3.167-2.2 3.266-1.4 6.7.367 9.866 1.633 2.934 8.3 13.767 8.3 13.767s13.766-5.867 16.7-8.167a8.192 8.192 0 0 0 2.866-4.233"/><path fill="#F9AB98" d="M249.633 107.9c.767-2.834.067-6-2.5-7.9-4.066-3-8.566-.434-11.766 2.433.966-5.333-4.634-10.4-9.734-7.433-1.9 1.133-3.166 3.2-3.4 5.4-.433 3.633 1.967 6.833 3.6 9.9 1.434 2.733 2.867 5.466 4.3 8.233.034.067.6 1.2.634 1.2 0 0 13.166-5.267 16.1-7.567 1.366-1.1 2.3-2.633 2.766-4.266"/><path fill="#6A79A8" d="M250.467 107.767c1.066-4.1-.734-8.467-4.8-10-4.234-1.6-8.967.367-11.034 4.333h1.567c.567-3.766-1.367-7.433-4.933-8.933-3.434-1.433-7.534-.367-9.934 2.433-5.2 6 1.034 13.534 4.3 18.867 1.234 2.033 2.5 4.067 3.734 6.1.2.333.8.233 1.1.1 3.233-1.367 6.433-2.833 9.633-4.333 4.167-1.967 8.867-3.8 10.367-8.567.233-.7-1.4-.533-1.634.133-1.466 4.567-6.833 6.334-10.8 8.167-2.733 1.267-5.5 2.5-8.266 3.7l1.1.1c-2.667-4.333-5.367-8.633-7.9-13.033-1.067-1.867-2.067-3.934-2.034-6.134 0-2.833 1.834-5.566 4.5-6.633 5.234-2.067 9.934 3.133 9.2 8.167-.133.8 1.334.466 1.567 0 1.9-3.7 6.433-5.134 9.967-2.7 2.7 1.866 3.5 5.3 2.7 8.333-.2.767 1.433.567 1.6-.1"/><path fill="#E5E5E5" d="M213 135.132c-4.7-12.266-17.867-20.766-32.067-15.8-12.166 4.234-19.066 16.8-16.566 29.1-5.667-11.233-18.9-16.833-31.1-12.566-10.834 3.766-17.2 14.266-16.634 25.566.634 12.9 9.634 20.367 20.534 25.2 10.066 4.467 49.066 19.7 49.066 19.7s24.567-42.633 27.734-54.5c1.5-5.766 1-11.566-.967-16.7"/><path fill="#EA8571" d="M208.733 135.433c-4.7-12.267-17.866-20.767-32.066-15.8-12.167 4.233-19.067 16.8-16.567 29.1-5.667-11.233-18.9-16.833-31.1-12.567-10.833 3.767-17.2 14.267-16.633 25.567.633 12.9 9.633 20.367 20.533 25.2 10.067 4.467 49.067 19.7 49.067 19.7s24.566-42.633 27.733-54.5a27.56 27.56 0 0 0-.967-16.7"/><path fill="#F9AB98" d="M208.567 135.498c-3.567-8.967-11.734-15.9-22.2-15.833-16.6.1-23.334 15.8-26.034 29.7-8.033-15.934-32.833-18.167-40.266-.3-2.8 6.7-1.934 14.7 1.733 20.966 6.067 10.367 18.667 14.034 29 18.867 9.2 4.333 18.4 8.7 27.567 13.067.2.1 3.933 1.966 3.966 1.9 0 0 24.2-39.9 27.367-51.767 1.433-5.567.933-11.4-1.133-16.6"/><path fill="#6A79A8" d="M209.333 134.999c-3.733-9.5-12.433-16.9-22.833-17.533-10.333-.667-20.467 5.166-25.133 14.4-2.634 5.2-3.4 11.133-2.267 16.866.5-.2 1.033-.366 1.533-.566-5.933-11.5-19.733-16.967-31.966-12.734-12.234 4.234-19.167 17.1-16.934 29.667 2.1 11.867 12.2 18.6 22.534 23 8.733 3.733 17.6 7.2 26.433 10.7 6.867 2.733 13.7 5.433 20.567 8.1.433.167 1.033-.067 1.233-.433a809.172 809.172 0 0 0 10.567-18.934c5.433-9.966 10.966-20 15.333-30.5 2.967-7.133 3.7-14.6.933-22.033-.266-.7-1.866-.233-1.6.433 2.6 7.034 2.1 14.167-.666 20.967-1.934 4.7-4.167 9.3-6.467 13.833-5 9.9-10.367 19.667-15.8 29.334-1.267 2.233-2.533 4.5-3.833 6.733.4-.133.833-.3 1.233-.433-13.967-5.467-27.933-10.934-41.767-16.634-8.8-3.6-18.2-7.366-23.6-15.666-6.966-10.667-4.3-26.134 5.9-33.767 5.9-4.4 13.734-5.8 20.834-3.8 6.8 1.9 12.4 6.633 15.633 12.867.3.566 1.667.066 1.533-.567-1.833-9.4 1.8-19.3 9.567-25 8.267-6.067 19.5-6.233 27.867-.3 4.366 3.1 7.666 7.5 9.6 12.467.233.666 1.833.2 1.566-.467"/><path fill="#E5E5E5" d="M285.266 177.099c2.334-7.067-.4-15.533-8.4-18.433-6.866-2.5-14.4.533-17.7 6.833 1.534-6.967-2.233-14.167-9.133-16.667-6.1-2.233-12.667.067-16.467 5.234-4.366 5.9-3.1 12.366-.033 18.4 2.8 5.566 14.434 26.233 14.434 26.233s26.066-9.867 31.699-13.933c2.767-2 4.634-4.7 5.6-7.667"/><path fill="#EA8571" d="M283.266 175.701c2.334-7.067-.4-15.534-8.4-18.434-6.866-2.5-14.4.534-17.7 6.834 1.534-6.967-2.233-14.167-9.133-16.667-6.1-2.233-12.667.067-16.467 5.233-4.366 5.9-3.1 12.367-.033 18.4 2.8 5.567 14.434 26.234 14.434 26.234s26.066-9.867 31.699-13.934c2.767-2 4.634-4.7 5.6-7.666"/><path fill="#F9AB98" d="M283.167 175.667c1.666-5.2.566-11.2-4.034-14.9-7.333-5.9-15.9-1.466-22.066 3.667 2.2-9.867-7.867-19.733-17.567-14.6-3.633 1.933-6.133 5.733-6.767 9.8-1.066 6.733 3.134 12.867 5.934 18.667 2.5 5.2 4.933 10.4 7.4 15.633.066.133 1.033 2.267 1.066 2.267 0 0 24.934-8.8 30.567-12.867 2.633-1.9 4.533-4.633 5.467-7.667"/><path fill="#6A79A8" d="M284.067 175.466c2.266-7.2-.567-15.267-7.634-18.467-7.366-3.333-16.166-.233-20.033 6.8h1.567c1.4-6.866-2.1-13.933-8.567-16.766-6.767-2.967-14.7-.334-18.867 5.666-4.4 6.334-2.366 13.567.967 19.867 2.467 4.7 5.067 9.333 7.667 14 2 3.633 4.033 7.267 6.066 10.867.2.333.834.2 1.1.1 3.967-1.5 7.934-3.067 11.867-4.667 6.033-2.467 12.233-4.867 17.933-8.067 3.7-2.066 6.5-5.133 7.9-9.2.3-.866-1.3-.8-1.533-.166-1.3 3.733-3.767 6.6-7.2 8.533-2.533 1.433-5.2 2.633-7.867 3.8-5.8 2.6-11.733 4.967-17.666 7.267-1.4.533-2.767 1.066-4.167 1.6l1.1.1c-3.867-6.867-7.7-13.7-11.433-20.634-2.567-4.7-5.6-9.6-5.7-15.133-.134-7.833 6.833-14.8 14.8-14 8.266.833 13.633 9.033 12 16.967-.167.8 1.333.433 1.566 0 3.734-6.8 12.367-9.267 19.034-5.134 5.666 3.534 7.433 10.6 5.5 16.734-.234.8 1.4.6 1.6-.067"/><path fill="#F2F2F2" d="M243.633 243.066h-117.7V323.5h117.7z"/><path fill="#fff" d="M243.667 244.73c-3.767 5.634-8.134 13.2-10.834 18.034a9.236 9.236 0 0 1-8.066 4.733l-98.8.233v55.767h117.7z"/><path fill="#E5E5E5" d="m272.5 231.832-28.833 11.233v80.434l28.833-10.8z"/><path fill="#F2F2F2" d="m272.5 258.498-9.6 3.834a7.84 7.84 0 0 1-9.2-2.567l-10.033-13.367v77.1l28.833-10.8z"/><path fill="#6A79A8" d="M243 246.265v74c0 .7 1.333 1.5 1.333.466v-74c0-.7-1.333-1.466-1.333-.466m-117.6-2.966h112.433c1.767 0 3.567.133 5.3 0 1.234-.1 2.467-.767 3.6-1.2 2.767-1.067 5.534-2.167 8.3-3.233 5.667-2.2 11.367-4.434 17.034-6.634.333-.133.7-.266 1.033-.4.633-.266-.933-.066-1.2.034-4.333 1.7-8.7 3.366-13.033 5.066-5.134 2-10.467 3.734-15.467 6.034-.933.433 1.033-.067.733-.134-.2-.033-.433 0-.633 0h-94.867c-7.266 0-14.566-.2-21.833 0h-.3c-.267 0-1.8.467-1.1.467"/><path fill="#6A79A8" d="M271.7 256.963v55.867c.2-.234.433-.5.633-.734a1995.182 1995.182 0 0 1-13 4.867c-3.266 1.234-6.5 2.434-9.766 3.667-1.834.7-4 1.2-5.734 2.133-.566.3.167.067 0 .067h-114.8c-.733 0-1.833-.2-2.533 0-.1.033-.233 0-.3 0 .167.2.333.4.533.6v-58.8c0-.967-1.566-.6-1.566.233v58.8c0 .3.2.6.533.6h111.867c1.9 0 3.9.2 5.8 0 .966-.1 1.9-.6 2.8-.933 2.733-1.033 5.466-2.034 8.2-3.067 5.733-2.133 11.466-4.3 17.2-6.433.366-.134.7-.267 1.066-.4.267-.1.634-.4.634-.734V256.83c0-1.067-1.567-.7-1.567.133"/><path fill="#F2F2F2" d="M243.667 243.062H125.933l-15.5 17.934c-.433.533-.066 1.333.6 1.333h115.6a.78.78 0 0 0 .6-.266z"/><path fill="#fff" d="M243.667 243.062H127.1c-1.8 3.467-3.5 6.967-5.4 10.4-1.167 2.1-1.4 5.534 2 5.534h99.967c1.9 0 3.733-.734 5.133-2.034z"/><path fill="#6A79A8" d="M244.2 242.797H127.133c-.666 0-1.433-.067-2 .366-.4.3-.733.834-1.033 1.2-.833.967-1.633 1.9-2.467 2.867-3.833 4.433-7.7 8.9-11.533 13.333-.767.867-.867 1.9.567 2 .7.067 1.4 0 2.1 0h111.9c.466 0 .933.034 1.4 0 1.666-.1 2.233-.933 3.233-2.1 4.067-4.7 8.1-9.366 12.167-14.066 1-1.134 2-2.3 3-3.434.033-.033-1.3-.133-1.6.2-3.834 4.434-7.667 8.834-11.467 13.267l-3.2 3.7c-.3.333-1.6 1.433-1.633 1.9 0 .233 1.033.067.4.033-.334-.033-.667 0-1 0H115.233c-1 0-2.166.134-3.166 0-1.667-.233-.4-1.633.266-2.4 4.434-5.133 8.867-10.266 13.3-15.366.4-.467.767-.9 1.167-1.367-.433.133-.9.233-1.333.367h103.166c4.767 0 9.567.166 14.367 0h.2c.2 0 1.733-.5 1-.5"/><path fill="#F2F2F2" d="m272.5 231.832-28.833 11.233 16.1 15.567c.366.333.866.433 1.333.267l26.233-9.834c.867-.333 1.1-1.433.434-2.066z"/><path fill="#fff" d="m271.567 232.199-27.534 11 14.467 14.634c.3.333.767.433 1.2.266 3.633-1.433 7.233-2.833 10.867-4.266 2.2-.867 4.366-1.734 6.566-2.567 2.134-.833 5.134-1.867 4.9-4.767-.133-1.3-1.033-2.366-1.9-3.3-1-1.066-8.1-10.5-8.566-11"/><path fill="#6A79A8" d="m272.133 231.265-25.2 9.8-3.6 1.4c-.4.167-.666.567-.3.933l12.067 11.667c1.333 1.3 2.633 2.833 4.1 3.967 1.567 1.2 3.633-.067 5.167-.667 6.3-2.367 12.6-4.733 18.9-7.067 1.5-.566 3.166-.966 4.566-1.733 2.634-1.4-.1-3.6-1.266-4.767-4.467-4.433-8.967-8.866-13.434-13.3-.566-.566-2 0-1.266.734l10.966 10.866c.967.967 1.967 1.934 2.934 2.9.366.367 1.133.867 1.366 1.367.767 1.5-2.8 2.167-3.733 2.5l-17.9 6.7c-1.067.4-2.167.8-3.233 1.233-.367.134-1.067.567-1.467.534-.533 0-.833-.467-1.2-.834-.867-.833-1.7-1.666-2.567-2.5-4.233-4.1-8.466-8.166-12.666-12.266-.1.3-.2.633-.3.933l25.2-9.8 3.6-1.4c.966-.433.066-1.533-.734-1.2M234.6 264.531v13.667c0 .533 1.467-.167 1.467-.7v-13.667c0-.567-1.467.133-1.467.7m.1 15.765v2.167c0 .399.233.799.567.999.2.134.7.234.7-.166v-2.167c0-.4-.234-.8-.567-1-.2-.133-.7-.233-.7.167m-.2 5v5.6c0 .833 1.633 1.1 1.633.167v-5.6c.034-.834-1.633-1.1-1.633-.167"/><path fill="#F9AB98" d="M177.933 280.996H143.7v27.067h34.233z"/><path fill="#6A79A8" d="M176.367 305.764H142.1c.233.167.5.367.733.533V279.73c-.3.234-.6.434-.9.667H176.2c-.233-.167-.5-.367-.733-.533v26.567c0 .866 1.633.633 1.633-.1v-26.567c0-.434-.4-.534-.733-.534H142.1c-.333 0-.9.267-.9.667v26.567c0 .433.4.533.733.533H176.2c.967 0 1.233-1.233.167-1.233m20.8-9.236H219.3c.533 0 1.733-.766.667-.766h-22.134c-.533 0-1.733.766-.666.766m0-4.933H219.3c.533 0 1.733-.833.667-.833h-22.134c-.566.033-1.733.833-.666.833m.033-4.832h22.133c.634 0 1.7-.966.6-.966H197.8c-.633 0-1.7.966-.6.966m-.033 13.502h4.9c.5 0 1.733-.734.666-.734h-4.9c-.5 0-1.733.734-.666.734m8.4-.032h4.9c.333 0 .9-.067 1.133-.3.167-.167.3-.367-.1-.367h-4.9c-.333 0-.9.067-1.133.3-.134.2-.267.367.1.367m8.833.132h4.9c.3 0 .933-.1 1.067-.434.133-.333-.1-.466-.434-.466h-4.9c-.3 0-.933.1-1.066.433-.134.3.1.467.433.467"/><path fill="#fff" d="M172.067 289.099c-.1-3.3-2.5-6.366-6.267-6.366-3.233 0-5.867 2.4-6.3 5.5-.4-3.1-3.067-5.534-6.3-5.534-2.867 0-5.233 1.934-6.033 4.667-.9 3.1.6 5.6 2.766 7.633 2 1.867 9.967 8.667 9.967 8.667s9.3-8.033 11.033-10.567a6.552 6.552 0 0 0 1.134-4"/><path fill="#6A79A8" d="M172.9 288.865c-.233-3.8-3.133-6.666-6.967-6.533-3.5.1-6.6 2.5-7.2 6 .534-.1 1.067-.233 1.6-.333-.7-4.067-4.633-6.434-8.6-5.467-3.833.933-6.633 4.933-5.3 8.833 1.067 3.167 4.367 5.4 6.8 7.5 1.967 1.7 3.934 3.4 5.934 5.1.333.267 1.1.034 1.4-.2a201.994 201.994 0 0 0 6.3-5.666c2.7-2.567 6-5.134 6.033-9.234 0-.4-1.6-.133-1.6.434-.033 4.066-3.733 6.8-6.467 9.333a256.582 256.582 0 0 1-5.533 4.967l1.4-.2c-3.233-2.767-6.533-5.534-9.667-8.434-2.866-2.633-4.633-6.633-1.8-10.033 3.334-3.967 8.767-.833 9.5 3.5.067.467 1.534.067 1.6-.333.567-3.234 3.467-5.867 6.9-4.7 2.534.866 3.9 3.333 4.067 5.9 0 .433 1.633.133 1.6-.434"/></svg>