<svg width="80" height="81" viewBox="0 0 80 81" fill="none" xmlns="http://www.w3.org/2000/svg">
<path d="M37.8402 35.2054C37.6502 34.8654 37.3802 34.3654 36.9802 33.7654C36.5802 33.1654 36.0602 32.4454 35.3802 31.6854C34.7102 30.9254 33.8702 30.1254 32.8502 29.3854C31.8302 28.6454 30.6302 27.9554 29.2702 27.4554C27.9102 26.9454 26.4002 26.5954 24.8102 26.4854C24.0202 26.4354 23.2102 26.4254 22.4002 26.4754C22.2002 26.4954 21.9902 26.5054 21.7902 26.5154C21.5902 26.5354 21.3802 26.5554 21.1802 26.5754C20.9602 26.6054 20.7702 26.6354 20.5702 26.6654C20.3702 26.6954 20.1602 26.7454 19.9502 26.7854C18.3102 27.1254 16.6902 27.7154 15.2102 28.5454C13.7302 29.3754 12.3702 30.4354 11.2102 31.6354C10.0402 32.8354 9.09021 34.1954 8.35021 35.5854C7.60021 36.9854 7.09021 38.4354 6.77021 39.8654C6.62021 40.5454 6.50021 41.2654 6.43021 41.9354C6.39021 42.2754 6.38021 42.6054 6.36021 42.9354C6.36021 43.2654 6.34021 43.5854 6.35021 43.8954C6.36021 45.1554 6.51021 46.2954 6.72021 47.2954C6.92021 48.2954 7.19021 49.1354 7.44021 49.8154C7.69021 50.4954 7.93021 51.0154 8.10021 51.3554C8.27021 51.7054 8.37021 51.8854 8.37021 51.8854C8.37021 51.8854 8.30021 51.6954 8.16021 51.3354C8.02021 50.9754 7.84021 50.4354 7.64021 49.7454C7.45021 49.0554 7.26021 48.2054 7.12021 47.2154C7.00021 46.3054 6.93021 45.2754 6.96021 44.1654C6.97021 44.1654 6.98021 44.1754 6.99021 44.1854C7.27021 44.3354 7.53021 44.3754 7.77021 44.4054C8.26021 44.4454 8.68021 44.3954 9.08021 44.3354C9.47021 44.2754 9.82021 44.1954 10.1302 44.1154C10.6402 43.9754 11.0502 43.8454 11.3702 43.7454C11.3802 43.7754 11.3902 43.7954 11.4102 43.8254C11.5502 44.1554 11.6702 44.4354 11.7902 44.6554C12.0202 45.1054 12.1602 45.3554 12.1602 45.3554C12.1602 45.3554 12.0902 45.0754 11.9502 44.5954C11.8702 44.3554 11.8102 44.0554 11.7202 43.7254C11.7102 43.6954 11.7002 43.6654 11.7002 43.6354C11.9402 43.5454 12.0702 43.4954 12.0702 43.4954L12.0002 43.4154C12.0002 43.4154 11.8702 43.4454 11.6202 43.4954C11.5502 43.2154 11.5002 42.9154 11.4302 42.5954C11.3802 42.3854 11.3602 42.1654 11.3202 41.9454C11.3002 41.8354 11.2802 41.7154 11.2602 41.6054C11.2402 41.4854 11.2302 41.3754 11.2202 41.2554C11.1602 40.7754 11.1402 40.2654 11.1202 39.7454C11.1202 39.6054 11.1202 39.4554 11.1202 39.3054C11.8802 38.7554 12.6902 38.1954 13.5202 37.6454C14.1402 37.2354 14.7902 36.8354 15.4502 36.4354C15.4902 36.5054 15.5302 36.5754 15.5702 36.6454C15.6702 36.7854 15.7702 36.8954 15.8502 36.9954C16.0102 37.1854 16.1102 37.2954 16.1102 37.2954C16.1102 37.2954 16.0802 37.1554 16.0002 36.9254C15.9602 36.8054 15.9202 36.6654 15.8602 36.5054C15.8402 36.4254 15.8202 36.3354 15.8002 36.2454C16.2302 35.9854 16.6602 35.7354 17.1002 35.4754C18.3402 34.7654 19.6002 34.0354 20.9002 33.3754C21.4102 33.1054 21.9302 32.8554 22.4502 32.6154C22.5302 32.6954 22.6002 32.7754 22.6802 32.8454C22.7802 32.9854 22.8802 33.0954 22.9602 33.1954C23.1202 33.3854 23.2102 33.4954 23.2102 33.4954C23.2102 33.4954 23.1802 33.3554 23.1002 33.1254C23.0602 33.0054 23.0202 32.8654 22.9602 32.7054C22.9202 32.6254 22.8802 32.5454 22.8302 32.4554C23.5002 32.1554 24.1802 31.8754 24.8702 31.6254C25.4302 31.4154 26.0002 31.2354 26.5602 31.0654C26.6002 31.0854 26.6302 31.1154 26.6702 31.1354C26.8902 31.2854 27.1002 31.4554 27.3102 31.6054C27.7202 31.9354 28.1102 32.2554 28.4502 32.5954C28.5402 32.6754 28.6302 32.7554 28.7102 32.8454C28.7902 32.9254 28.8702 33.0154 28.9502 33.0954C29.1102 33.2554 29.2702 33.4054 29.4102 33.5754C29.5302 33.7154 29.6602 33.8554 29.7702 33.9854C29.4702 34.2654 29.1702 34.5354 28.8802 34.7754C28.2102 35.3554 27.6002 35.8254 27.1002 36.2154C26.5902 36.5954 26.1902 36.8854 25.9102 37.0854C25.6302 37.2754 25.4802 37.3854 25.4802 37.3854L25.5202 37.4554C25.5202 37.4554 25.6802 37.3754 25.9902 37.2154C26.2902 37.0554 26.7402 36.8154 27.2802 36.4754C27.8302 36.1354 28.4802 35.7054 29.2002 35.1754C29.5002 34.9454 29.8202 34.6954 30.1502 34.4354C30.1502 34.4454 30.1602 34.4454 30.1702 34.4554C30.3802 34.7254 30.5902 34.9554 30.7302 35.1654C31.0302 35.5654 31.2102 35.7954 31.2102 35.7954C31.2102 35.7954 31.0902 35.5354 30.8702 35.0754C30.7602 34.8454 30.6102 34.5754 30.4302 34.2754C30.4202 34.2554 30.4102 34.2454 30.4002 34.2354C30.7602 33.9354 31.1302 33.5954 31.5102 33.2354C31.9102 32.8454 32.3102 32.4254 32.6802 31.9254C32.8602 31.6754 33.0402 31.4054 33.1802 31.0754C33.2402 30.9154 33.3102 30.7254 33.2902 30.4754C33.9702 30.9754 34.5602 31.4954 35.0802 31.9954C35.7902 32.6954 36.3602 33.3554 36.8002 33.9154C37.0202 34.1954 37.2102 34.4554 37.3802 34.6854C37.5402 34.9154 37.6702 35.1054 37.7902 35.2654C38.0002 35.5854 38.1102 35.7654 38.1102 35.7654C38.1102 35.7654 38.0202 35.5454 37.8402 35.2054ZM24.7602 27.4054C26.2602 27.4754 27.7002 27.7454 29.0102 28.1854C29.6702 28.3954 30.2802 28.6654 30.8702 28.9454C31.1802 29.0954 31.4702 29.2554 31.7602 29.4154C31.4302 29.3954 31.1002 29.4154 30.7802 29.4554C30.1002 29.5354 29.4302 29.7054 28.7702 29.8954C28.2202 30.0654 27.6602 30.2554 27.1102 30.4554C26.8902 30.2954 26.6702 30.1254 26.4402 29.9854C26.1902 29.8354 25.9502 29.6654 25.6802 29.5354L25.2902 29.3254L24.8902 29.1354C24.4102 28.9154 23.9102 28.7354 23.4102 28.5854C23.5302 28.3254 23.5802 28.0954 23.5702 27.9254C23.5702 27.8154 23.5502 27.7154 23.5302 27.6654C23.5102 27.6154 23.5002 27.5854 23.5002 27.5854C23.5002 27.5854 23.4802 27.5554 23.4602 27.5054C23.4402 27.4754 23.4202 27.4354 23.3802 27.3954C23.8402 27.3854 24.3002 27.3854 24.7602 27.4054ZM21.1502 30.4054C20.9402 30.2254 20.6902 30.0854 20.4502 29.9254C20.2002 29.7754 19.9402 29.6454 19.6902 29.5254C19.5602 29.4654 19.4302 29.4154 19.3002 29.3654C19.1702 29.3154 19.0502 29.2654 18.9202 29.2254C18.6702 29.1354 18.4202 29.0654 18.1802 29.0154C17.9402 28.9554 17.7102 28.9154 17.5002 28.8854C17.3102 28.8554 17.1402 28.8454 16.9802 28.8354C17.1202 28.7754 17.2602 28.7054 17.4002 28.6554C17.4102 28.6554 17.4202 28.6554 17.4302 28.6554C17.7802 28.6354 18.1702 28.6354 18.5902 28.6354C19.0102 28.6454 19.4702 28.6654 19.9502 28.7154C20.4302 28.7554 20.9302 28.8354 21.4402 28.9354C21.8702 29.0154 22.3002 29.1354 22.7402 29.2554C22.5602 29.4254 22.3602 29.5954 22.1402 29.7654C21.8502 29.9654 21.5102 30.1854 21.1502 30.4054ZM11.6002 32.9054C11.6102 32.8254 11.6302 32.7354 11.6702 32.6454C11.6802 32.6254 11.6902 32.6054 11.7002 32.5854C11.7802 32.4954 11.8602 32.4154 11.9402 32.3354C12.2902 31.9754 12.6602 31.6354 13.0502 31.3054C12.9302 31.4454 12.8202 31.5954 12.7002 31.7554C12.5502 31.9554 12.4102 32.1754 12.2602 32.3954C12.1202 32.6154 11.9802 32.8554 11.8502 33.0954C11.8102 33.1654 11.7702 33.2354 11.7302 33.3054C11.7102 33.2854 11.7002 33.2654 11.6902 33.2454C11.6802 33.2254 11.6602 33.2154 11.6602 33.1954L11.6502 33.1654L11.6402 33.1554C11.5902 33.0254 11.6002 33.0054 11.6002 32.9054ZM23.3802 27.5454C23.4102 27.5854 23.4202 27.6154 23.4202 27.6154C23.4202 27.6154 23.4302 27.6454 23.4502 27.6954C23.4702 27.7454 23.4802 27.8154 23.4902 27.9254C23.4902 28.0254 23.4702 28.1554 23.4202 28.2954C23.3902 28.3754 23.3502 28.4554 23.3002 28.5454C23.2802 28.5354 23.2602 28.5354 23.2402 28.5254C22.9602 28.4554 22.6802 28.3654 22.4002 28.3254C22.2602 28.2954 22.1202 28.2754 21.9802 28.2454C21.8402 28.2254 21.7002 28.2054 21.5702 28.1854C21.3002 28.1454 21.0302 28.1154 20.7602 28.0954C20.5002 28.0854 20.2402 28.0654 19.9802 28.0654C19.6002 28.0554 19.2402 28.0754 18.9002 28.1054C19.3102 27.9854 19.7302 27.8754 20.1502 27.7854C21.1802 27.5754 22.2302 27.4454 23.2602 27.4054C23.3202 27.4554 23.3602 27.5054 23.3802 27.5454ZM12.5002 33.4354C12.7302 32.9654 12.9702 32.5154 13.2202 32.1054C13.4702 31.6954 13.7302 31.3154 13.9702 30.9754C14.2102 30.6554 14.4302 30.3554 14.6502 30.1054C14.9702 29.8954 15.2902 29.6954 15.6202 29.5154C15.5402 29.6554 15.4602 29.8154 15.3802 29.9954C15.2902 30.1854 15.2002 30.4054 15.1202 30.6354C15.0302 30.8654 14.9602 31.1154 14.8902 31.3754C14.8502 31.5054 14.8202 31.6354 14.8002 31.7754C14.7702 31.9154 14.7502 32.0454 14.7202 32.1854C14.6902 32.4654 14.6502 32.7554 14.6402 33.0454C14.6402 33.2054 14.6402 33.3754 14.6402 33.5354C14.4102 33.5854 14.1802 33.6354 13.9402 33.6654C13.5002 33.7254 13.0402 33.7454 12.6102 33.6954C12.5402 33.6854 12.4702 33.6754 12.4002 33.6554C12.4302 33.5754 12.4702 33.5054 12.5002 33.4354ZM15.4902 33.0654C15.4902 32.8054 15.5302 32.5354 15.5402 32.2754C15.5802 32.0154 15.5902 31.7554 15.6302 31.5054C15.6702 31.2554 15.7002 31.0154 15.7402 30.7854C15.7702 30.5554 15.8202 30.3354 15.8502 30.1354C15.8902 29.9354 15.9202 29.7454 15.9502 29.5854C15.9702 29.4854 15.9902 29.3854 16.0102 29.3054C16.1902 29.2054 16.3802 29.1154 16.5602 29.0254C16.6502 29.0654 16.7402 29.0954 16.8502 29.1454C17.0102 29.2054 17.1802 29.2854 17.3702 29.3654C17.5602 29.4454 17.7602 29.5254 17.9702 29.6254C18.1802 29.7154 18.4002 29.8254 18.6302 29.9254C18.8602 30.0254 19.0802 30.1554 19.3202 30.2654C19.5502 30.3954 19.7802 30.5154 20.0102 30.6554C20.1302 30.7254 20.2402 30.8054 20.3602 30.8754C19.8302 31.1754 19.2702 31.4954 18.6602 31.8154C17.9802 32.1754 17.2402 32.5754 16.4602 32.9154C16.1402 33.0554 15.8102 33.1754 15.4802 33.2954C15.4902 33.2154 15.4902 33.1354 15.4902 33.0654ZM9.16021 36.0254C9.71021 35.0354 10.3802 34.0854 11.1502 33.1954C11.1702 33.2454 11.1902 33.2954 11.2002 33.3254C11.2902 33.4954 11.4002 33.6154 11.5302 33.6954C11.5102 33.7454 11.4802 33.7954 11.4602 33.8354C11.3302 34.0854 11.2302 34.3554 11.1202 34.6254C10.9202 35.1754 10.7402 35.7354 10.6202 36.3154L10.5302 36.7454L10.4702 37.1854C10.4202 37.4754 10.4002 37.7654 10.3802 38.0554C10.3602 38.2854 10.3602 38.5154 10.3602 38.7454C10.1702 38.8854 9.98021 39.0254 9.80021 39.1654C8.81021 39.9554 7.90021 40.7654 7.19021 41.6754C7.28021 41.1354 7.39021 40.5954 7.54021 40.0154C7.88021 38.7054 8.42021 37.3354 9.16021 36.0254ZM10.6002 41.3454C10.6402 41.5954 10.7002 41.8354 10.7702 42.0554C10.8402 42.2854 10.8802 42.5054 10.9602 42.7054C11.0602 43.0154 11.1602 43.3054 11.2602 43.5554C10.9402 43.6154 10.5302 43.6954 10.0302 43.7654C9.72021 43.8154 9.37021 43.8554 9.00021 43.8854C8.63021 43.9054 8.22021 43.9154 7.82021 43.8454C7.63021 43.8054 7.43021 43.7554 7.30021 43.6554C7.27021 43.6354 7.24021 43.6054 7.22021 43.5854C7.21021 43.5754 7.20021 43.5654 7.20021 43.5554C7.20021 43.5554 7.20021 43.5554 7.19021 43.5454L7.17021 43.5054C7.15021 43.4654 7.13021 43.3954 7.14021 43.3254C7.15021 43.1754 7.23021 42.9654 7.35021 42.7754C7.47021 42.5754 7.62021 42.3754 7.79021 42.1854C8.13021 41.7954 8.53021 41.4054 8.96021 41.0254C9.39021 40.6454 9.86021 40.2654 10.3502 39.8954C10.3702 39.8854 10.3802 39.8754 10.4002 39.8554C10.4302 40.3754 10.5002 40.8754 10.6002 41.3454ZM13.0702 36.9254C12.4202 37.3254 11.7902 37.7354 11.1802 38.1554C11.1802 38.1554 11.1802 38.1454 11.1802 38.1354C11.2102 37.8654 11.2302 37.5854 11.2802 37.3154L11.3502 36.9054L11.4402 36.4954C11.5502 35.9554 11.7102 35.4254 11.8802 34.9054C12.0002 34.5854 12.1202 34.2654 12.2602 33.9454C12.3702 33.9654 12.4702 33.9754 12.5802 33.9754C12.8202 33.9954 13.0602 33.9854 13.2902 33.9654C13.5202 33.9454 13.7502 33.9254 13.9802 33.8854C14.2102 33.8454 14.4302 33.8154 14.6502 33.7654C14.6502 33.8054 14.6502 33.8354 14.6602 33.8654C14.6802 34.1454 14.7102 34.4254 14.7802 34.6954C14.8102 34.8254 14.8402 34.9554 14.8702 35.0854C14.9102 35.2154 14.9502 35.3354 14.9902 35.4454C15.0202 35.5354 15.0502 35.6154 15.0902 35.6954C14.4002 36.1254 13.7302 36.5154 13.0702 36.9254ZM20.7402 33.0054C19.4002 33.5854 18.0502 34.1754 16.7702 34.8354C16.3902 35.0254 16.0102 35.2354 15.6402 35.4354C15.6302 35.3954 15.6302 35.3554 15.6202 35.3154C15.6002 35.2054 15.5702 35.0854 15.5602 34.9754C15.5502 34.8554 15.5402 34.7354 15.5302 34.6154C15.5202 34.4954 15.5002 34.3654 15.5002 34.2454C15.5002 34.1154 15.5002 33.9854 15.4902 33.8554C15.4802 33.7754 15.4802 33.6954 15.4802 33.6254C15.8702 33.5354 16.2502 33.4454 16.6202 33.3354C17.4702 33.1054 18.2702 32.8254 19.0002 32.4754C19.7302 32.1354 20.3902 31.7354 20.9602 31.3154C20.9702 31.3054 20.9802 31.3054 20.9902 31.2954L21.0002 31.3054C21.1102 31.3754 21.2002 31.4654 21.3002 31.5354C21.4002 31.6154 21.4902 31.6854 21.5902 31.7654C21.6802 31.8354 21.7602 31.9254 21.8502 32.0054C21.9902 32.1454 22.1402 32.2654 22.2602 32.3954C21.7402 32.5854 21.2402 32.7954 20.7402 33.0054ZM24.7802 31.3454C24.0902 31.6154 23.4002 31.8954 22.7102 32.1854C22.7002 32.1754 22.7002 32.1654 22.6902 32.1554C22.5902 31.9554 22.4502 31.7654 22.3002 31.5654C22.2302 31.4654 22.1502 31.3554 22.0602 31.2654C21.9702 31.1654 21.8802 31.0754 21.7802 30.9754C21.7202 30.9054 21.6602 30.8454 21.5902 30.7854C21.8802 30.5254 22.1502 30.2654 22.3802 30.0154C22.5702 29.8054 22.7502 29.5954 22.9002 29.3954C22.9302 29.3654 22.9502 29.3254 22.9702 29.2954C22.9802 29.2954 22.9902 29.2954 22.9902 29.3054C23.5102 29.4754 24.0302 29.6654 24.5302 29.9054L24.9102 30.0754L25.2802 30.2654C25.5302 30.3854 25.7602 30.5354 25.9902 30.6754C26.0602 30.7154 26.1202 30.7554 26.1802 30.7954C25.7202 30.9754 25.2502 31.1654 24.7802 31.3454ZM32.5102 30.7554C32.4202 30.9854 32.2702 31.2254 32.1102 31.4554C31.7802 31.9054 31.4202 32.3354 31.0502 32.7254C30.7302 33.0654 30.4102 33.3754 30.1002 33.6654C30.0102 33.5254 29.9102 33.3854 29.8102 33.2354C29.6902 33.0554 29.5402 32.8754 29.4002 32.6854C29.2602 32.4954 29.1002 32.3054 28.9302 32.1254C28.6002 31.7454 28.2202 31.3654 27.8102 31.0054C27.7202 30.9254 27.6302 30.8554 27.5402 30.7754C28.0102 30.6554 28.4702 30.5454 28.9302 30.4554C29.5902 30.3254 30.2502 30.2254 30.8802 30.1754C31.1902 30.1554 31.5002 30.1454 31.7902 30.1654C32.0702 30.1854 32.3502 30.2554 32.4902 30.3554C32.5302 30.3754 32.5502 30.4154 32.5602 30.4154L32.5902 30.4554C32.5902 30.4554 32.5902 30.4654 32.5902 30.4754C32.5702 30.5354 32.5502 30.6454 32.5102 30.7554Z" fill="#71C3D7"/>
<path d="M35.9002 53.9754C35.7402 53.9954 35.5202 54.0154 35.2302 54.0554C35.0902 54.0754 34.9302 54.0954 34.7502 54.1054C34.5802 54.1254 34.3902 54.1354 34.1902 54.1554C33.9902 54.1754 33.7802 54.1954 33.5602 54.2054C33.3402 54.2154 33.1102 54.2354 32.8702 54.2454C32.6402 54.2654 32.3702 54.2654 32.1002 54.2754C31.9702 54.2754 31.8302 54.2854 31.6902 54.2854H31.5902H31.5602H31.5502C31.5402 54.2854 31.5802 54.2854 31.5602 54.2854H31.5502H31.5002C31.4302 54.2854 31.3602 54.2854 31.2902 54.2854C31.0102 54.2754 30.7302 54.2854 30.4502 54.2754C30.1602 54.2554 29.8702 54.2454 29.5702 54.2354C29.2702 54.2154 28.9702 54.1754 28.6702 54.1554C28.3702 54.1254 28.0602 54.0754 27.7502 54.0454C27.4402 54.0054 27.1302 53.9454 26.8302 53.9054C26.6702 53.8854 26.5202 53.8554 26.3702 53.8154L25.9102 53.7254C25.6002 53.6754 25.3002 53.5854 24.9902 53.5154C24.6802 53.4554 24.3902 53.3554 24.0902 53.2754C23.7902 53.1954 23.5002 53.0954 23.2102 53.0054C23.0702 52.9554 22.9202 52.9154 22.7802 52.8654C22.6402 52.8154 22.5002 52.7554 22.3602 52.7054C22.2202 52.6554 22.0802 52.6054 21.9502 52.5554C21.8102 52.5054 21.6802 52.4454 21.5502 52.3954C21.2902 52.2854 21.0302 52.1854 20.7902 52.0654C20.5402 51.9554 20.3002 51.8454 20.0702 51.7354C19.8402 51.6154 19.6202 51.5054 19.4102 51.4054C19.1902 51.3054 19.0002 51.1854 18.8102 51.0854C18.6202 50.9754 18.4302 50.8854 18.2702 50.7854C18.1802 50.7254 18.0802 50.6754 18.0002 50.6254L20.2002 49.7454L12.7302 46.6854L15.7502 54.1654L16.7302 51.7554C16.9002 51.8954 17.1002 52.0454 17.3002 52.2154C17.4702 52.3454 17.6502 52.4754 17.8402 52.6154C18.0302 52.7454 18.2302 52.8954 18.4502 53.0354C18.6702 53.1754 18.9002 53.3154 19.1402 53.4654C19.3902 53.6054 19.6402 53.7354 19.9002 53.8854C20.1602 54.0354 20.4402 54.1454 20.7202 54.2854C21.0002 54.4254 21.2902 54.5454 21.6002 54.6654C21.7502 54.7254 21.9002 54.7854 22.0602 54.8454C22.2102 54.9054 22.3702 54.9554 22.5302 55.0054C22.8502 55.1154 23.1702 55.2254 23.5002 55.3054C24.1602 55.4954 24.8302 55.6454 25.5202 55.7454C26.2002 55.8654 26.8902 55.9154 27.5702 55.9554C27.9102 55.9554 28.2502 55.9754 28.5802 55.9754C28.9102 55.9654 29.2402 55.9454 29.5602 55.9354C29.8802 55.9054 30.2002 55.8754 30.5102 55.8354C30.8202 55.7954 31.1202 55.7454 31.4102 55.6954C31.4802 55.6854 31.5502 55.6654 31.6302 55.6554L31.6802 55.6454H31.7102H31.7202L31.7502 55.6354L31.8502 55.6154C31.9802 55.5854 32.1202 55.5454 32.2502 55.5154C32.5102 55.4454 32.7602 55.3954 33.0102 55.3154C33.5002 55.1554 33.9602 55.0254 34.3302 54.8554C34.7102 54.6954 35.0402 54.5654 35.3102 54.4254C35.5702 54.2854 35.7802 54.1754 35.9202 54.1054C36.0602 54.0254 36.1302 53.9854 36.1302 53.9854C36.1302 53.9854 36.0602 53.9554 35.9002 53.9754Z" fill="#058295"/>
<path d="M43.6301 36.3854L43.0501 28.3354L41.0901 30.6654C41.0101 30.5354 40.9101 30.4054 40.8101 30.2554C40.7101 30.1054 40.6001 29.9454 40.4801 29.7754C40.3601 29.6154 40.2201 29.4354 40.0801 29.2554C40.0101 29.1654 39.9401 29.0654 39.8701 28.9754C39.7901 28.8854 39.7101 28.7854 39.6301 28.6854C39.4601 28.4954 39.3001 28.2854 39.1101 28.0754C38.9201 27.8754 38.7201 27.6654 38.5101 27.4454C38.3001 27.2254 38.0701 27.0154 37.8401 26.7954C36.8901 25.9154 35.7501 24.9954 34.3801 24.1654C33.0201 23.3254 31.4301 22.5654 29.6601 22.0254C27.8801 21.4754 25.9801 21.1354 23.9201 21.0854C21.9001 21.0254 19.7901 21.2754 17.7401 21.8154C15.6801 22.3654 13.6701 23.2254 11.8401 24.3754C10.0001 25.5154 8.34012 26.9354 6.94012 28.5454L6.68012 28.8454L6.61012 28.9154L6.58012 28.9554L6.56012 28.9754L6.52012 29.0254L6.41012 29.1754C6.26012 29.3754 6.10012 29.5754 5.95012 29.7754L5.72012 30.0754C5.64012 30.1754 5.57012 30.2954 5.50012 30.4054C5.35012 30.6254 5.20012 30.8554 5.06012 31.0754C4.99012 31.1854 4.91012 31.2954 4.84012 31.4054L4.65012 31.7454C4.52012 31.9754 4.40012 32.1954 4.27012 32.4154C4.14012 32.6354 4.03012 32.8654 3.92012 33.0954C3.81012 33.3254 3.70012 33.5554 3.59012 33.7854C2.77012 35.6254 2.24012 37.5154 1.97012 39.3254C1.69012 41.1454 1.68012 42.8854 1.83012 44.4654C1.97012 46.0454 2.29012 47.4754 2.68012 48.6954C2.78012 48.9954 2.85012 49.2954 2.97012 49.5754C3.08012 49.8554 3.18012 50.1254 3.29012 50.3754C3.32012 50.4354 3.34012 50.5054 3.37012 50.5654L3.41012 50.6654L3.45012 50.7554C3.50012 50.8754 3.56012 50.9854 3.61012 51.1054C3.72012 51.3354 3.81012 51.5454 3.92012 51.7554C4.13012 52.1654 4.32012 52.5254 4.51012 52.8254C4.69012 53.1254 4.84012 53.3854 4.98012 53.5854C5.25012 53.9854 5.40012 54.2054 5.40012 54.2054C5.40012 54.2054 5.29012 53.9754 5.08012 53.5354C4.87012 53.0954 4.60012 52.4454 4.29012 51.6054C3.99012 50.7554 3.68012 49.7154 3.43012 48.5054C3.40012 48.3554 3.37012 48.2054 3.34012 48.0454C3.31012 47.8854 3.28012 47.7354 3.26012 47.5654C3.22012 47.2454 3.17012 46.9054 3.13012 46.5654C3.09012 46.2254 3.08012 45.8654 3.05012 45.5054C3.02012 45.3254 3.00012 45.1454 3.00012 44.9554C3.00012 44.7754 3.00012 44.5854 3.00012 44.3954C3.00012 44.2054 3.00012 44.0154 2.99012 43.8254C2.98012 43.6354 3.01012 43.4354 3.02012 43.2454C3.03012 43.0554 3.04012 42.8554 3.05012 42.6554C3.06012 42.5554 3.06012 42.4554 3.07012 42.3554C3.08012 42.2554 3.09012 42.1554 3.11012 42.0554C3.13012 41.8554 3.16012 41.6554 3.18012 41.4454C3.20012 41.2454 3.22012 41.0354 3.26012 40.8354C3.34012 40.4254 3.40012 40.0054 3.49012 39.5854C3.85012 37.9154 4.43012 36.1954 5.26012 34.5354C5.37012 34.3354 5.48012 34.1254 5.58012 33.9154C5.69012 33.7054 5.79012 33.4954 5.92012 33.3054C6.04012 33.1054 6.17012 32.9054 6.29012 32.7054L6.47012 32.4054L6.67012 32.1254C6.80012 31.9354 6.93012 31.7454 7.07012 31.5554C7.14012 31.4554 7.19012 31.3654 7.28012 31.2654L7.52012 30.9754C7.68012 30.7754 7.84012 30.5854 7.99012 30.3854L8.11012 30.2354C8.10012 30.2454 8.09012 30.2654 8.10012 30.2454L8.12012 30.2254L8.15012 30.1954L8.21012 30.1254L8.46012 29.8654C9.75012 28.4354 11.2901 27.1754 12.9601 26.1554C14.6301 25.1354 16.4501 24.3354 18.3101 23.8254C20.1701 23.3054 22.0701 23.0654 23.9201 23.0554C24.1501 23.0554 24.3801 23.0554 24.6101 23.0554C24.8401 23.0554 25.0601 23.0854 25.2801 23.0954C25.5001 23.1154 25.7201 23.1254 25.9401 23.1454C26.0501 23.1454 26.1601 23.1654 26.2801 23.1854L26.6301 23.2354C26.8601 23.2654 27.0901 23.2954 27.3201 23.3354L27.4901 23.3554L27.6201 23.3854L27.9401 23.4454C28.1501 23.4954 28.3701 23.5254 28.5801 23.5754C28.7901 23.6254 28.9901 23.6854 29.2001 23.7354C30.8501 24.1554 32.3401 24.7854 33.6601 25.4854C34.9801 26.1854 36.1201 26.9654 37.0701 27.7254C38.0301 28.4854 38.8001 29.2354 39.4001 29.8754C39.5501 30.0354 39.6901 30.1954 39.8301 30.3354C39.9601 30.4854 40.0701 30.6254 40.1801 30.7554C40.2501 30.8354 40.3201 30.9154 40.3801 30.9954L37.4901 31.1954L43.6301 36.3854Z" fill="#058295"/>
<path d="M20.6901 43.7954C20.2901 43.9454 19.5201 44.1454 18.6901 44.1454C17.6401 44.1454 16.8401 43.8754 16.2501 43.3154C15.7001 42.7854 15.3701 41.9654 15.3801 41.0254C15.3801 39.0554 16.7801 37.7954 18.8401 37.7954C19.6101 37.7954 20.2101 37.9554 20.4901 38.0954L20.2401 39.0054C19.9001 38.8554 19.4801 38.7354 18.8301 38.7354C17.5001 38.7354 16.5701 39.5154 16.5701 40.9654C16.5701 42.3754 17.4401 43.2154 18.7301 43.2154C19.1401 43.2154 19.4401 43.1554 19.5901 43.0854V41.5354H18.4901V40.6354H20.6901V43.7954Z" fill="#030304"/>
<path d="M21.8301 37.5254H22.9801V44.0854H21.8301V37.5254Z" fill="#030304"/>
<path d="M28.4802 41.7954C28.4802 43.4454 27.3202 44.1854 26.1702 44.1854C24.9002 44.1854 23.9202 43.3054 23.9202 41.8654C23.9202 40.3854 24.8902 39.4854 26.2502 39.4854C27.5802 39.4854 28.4802 40.4254 28.4802 41.7954ZM25.0902 41.8454C25.0902 42.7154 25.5102 43.3654 26.2102 43.3654C26.8602 43.3654 27.3102 42.7254 27.3102 41.8254C27.3102 41.1254 27.0002 40.3254 26.2202 40.3254C25.4102 40.3154 25.0902 41.0954 25.0902 41.8454Z" fill="#030304"/>
<path d="M29.3801 44.0854C29.4001 43.7854 29.4201 43.2854 29.4201 42.8154V37.5254H30.5601V40.2054H30.5801C30.8601 39.7754 31.3501 39.4854 32.0201 39.4854C33.1201 39.4854 33.9001 40.3954 33.8901 41.7654C33.8901 43.3854 32.8701 44.1854 31.8501 44.1854C31.2701 44.1854 30.7501 43.9654 30.4301 43.4054H30.4001L30.3501 44.0754L29.3801 44.0854ZM30.5501 42.2254C30.5501 42.3154 30.5601 42.4054 30.5801 42.4954C30.7001 42.9454 31.0901 43.2954 31.5801 43.2954C32.2901 43.2954 32.7301 42.7254 32.7301 41.8154C32.7301 41.0254 32.3501 40.3754 31.5901 40.3754C31.1301 40.3754 30.7101 40.7054 30.5801 41.2054C30.5601 41.2854 30.5401 41.3854 30.5401 41.5054L30.5501 42.2254Z" fill="#030304"/>
<path d="M37.35 44.0854L37.28 43.5854H37.25C36.97 43.9354 36.5 44.1854 35.92 44.1854C35.02 44.1854 34.51 43.5354 34.51 42.8454C34.51 41.7054 35.52 41.1354 37.18 41.1454V41.0754C37.18 40.7754 37.06 40.2954 36.27 40.2954C35.83 40.2954 35.37 40.4354 35.06 40.6254L34.84 39.8854C35.17 39.6854 35.75 39.4854 36.46 39.4854C37.9 39.4854 38.32 40.3954 38.32 41.3754V42.9954C38.32 43.4054 38.34 43.7954 38.38 44.0754H37.35V44.0854ZM37.2 41.8854C36.4 41.8654 35.63 42.0454 35.63 42.7254C35.63 43.1654 35.92 43.3754 36.28 43.3754C36.73 43.3754 37.06 43.0754 37.17 42.7554C37.2 42.6754 37.21 42.5754 37.21 42.5054L37.2 41.8854Z" fill="#030304"/>
<path d="M39.51 37.5254H40.66V44.0854H39.51V37.5254Z" fill="#030304"/>
<path d="M43.8401 37.9454C44.2601 37.8754 44.9001 37.8154 45.5601 37.8154C46.4601 37.8154 47.0601 37.9654 47.4801 38.3154C47.8201 38.6054 48.0201 39.0354 48.0201 39.5654C48.0201 40.3654 47.4701 40.9154 46.8901 41.1254V41.1554C47.3301 41.3254 47.6001 41.7554 47.7601 42.3554C47.9501 43.1354 48.1201 43.8554 48.2501 44.0954H47.0801C46.9901 43.9154 46.8401 43.4054 46.6601 42.6254C46.4801 41.8154 46.1901 41.5554 45.5401 41.5354H44.9701V44.0954H43.8401V37.9454ZM44.9701 40.6954H45.6401C46.4101 40.6954 46.8901 40.2854 46.8901 39.6754C46.8901 38.9954 46.4101 38.6754 45.6701 38.6754C45.3101 38.6754 45.0801 38.7054 44.9701 38.7254V40.6954Z" fill="#030304"/>
<path d="M49.88 42.1554C49.91 42.9654 50.55 43.3154 51.26 43.3154C51.79 43.3154 52.16 43.2454 52.51 43.1154L52.68 43.9054C52.29 44.0654 51.76 44.1854 51.11 44.1854C49.65 44.1854 48.79 43.2854 48.79 41.9154C48.79 40.6654 49.55 39.4954 50.99 39.4954C52.45 39.4954 52.93 40.6954 52.93 41.6854C52.93 41.8954 52.91 42.0654 52.89 42.1654L49.88 42.1554ZM51.86 41.3654C51.87 40.9454 51.68 40.2654 50.93 40.2654C50.23 40.2654 49.93 40.9054 49.89 41.3654H51.86Z" fill="#030304"/>
<path d="M57.1501 43.9454C56.9101 44.0554 56.4401 44.1754 55.8801 44.1754C54.4801 44.1754 53.5601 43.2754 53.5601 41.8854C53.5601 40.5354 54.4801 39.4854 56.0601 39.4854C56.4801 39.4854 56.9001 39.5754 57.1601 39.6954L56.9601 40.5454C56.7801 40.4654 56.5101 40.3654 56.1001 40.3654C55.2301 40.3654 54.7101 41.0054 54.7201 41.8254C54.7201 42.7454 55.3201 43.2754 56.1001 43.2754C56.5001 43.2754 56.7701 43.1954 57.0001 43.0954L57.1501 43.9454Z" fill="#030304"/>
<path d="M58.8501 39.5854L59.6601 41.9954C59.7501 42.2754 59.8401 42.6155 59.9101 42.8755H59.9401C60.0101 42.6155 60.1001 42.2854 60.1801 41.9854L60.8801 39.5854H62.1001L60.9701 42.6554C60.3501 44.3354 59.9401 45.0854 59.4001 45.5454C58.9601 45.9454 58.5001 46.0954 58.2101 46.1255L57.9501 45.1654C58.1401 45.1154 58.3801 45.0154 58.6201 44.8554C58.8301 44.7154 59.0801 44.4454 59.2401 44.1454C59.2901 44.0654 59.3101 43.9955 59.3101 43.9454C59.3101 43.8954 59.3001 43.8354 59.2501 43.7254L57.6101 39.5954L58.8501 39.5854Z" fill="#030304"/>
<path d="M65.9401 43.9454C65.7001 44.0554 65.2301 44.1754 64.6701 44.1754C63.2701 44.1754 62.3501 43.2754 62.3501 41.8854C62.3501 40.5354 63.2701 39.4854 64.8501 39.4854C65.2701 39.4854 65.6901 39.5754 65.9501 39.6954L65.7501 40.5454C65.5701 40.4654 65.3001 40.3654 64.8901 40.3654C64.0201 40.3654 63.5001 41.0054 63.5101 41.8254C63.5101 42.7454 64.1101 43.2754 64.8901 43.2754C65.2901 43.2754 65.5601 43.1954 65.7901 43.0954L65.9401 43.9454Z" fill="#030304"/>
<path d="M66.78 37.5254H67.93V44.0854H66.78V37.5254Z" fill="#030304"/>
<path d="M69.9601 42.1554C69.9901 42.9654 70.6301 43.3154 71.3501 43.3154C71.8801 43.3154 72.2501 43.2454 72.6001 43.1154L72.7701 43.9054C72.3801 44.0654 71.8501 44.1854 71.2001 44.1854C69.7401 44.1854 68.8801 43.2854 68.8801 41.9154C68.8801 40.6654 69.6401 39.4954 71.0801 39.4954C72.5401 39.4954 73.0201 40.6954 73.0201 41.6854C73.0201 41.8954 73.0001 42.0654 72.9801 42.1654L69.9601 42.1554ZM71.9301 41.3654C71.9401 40.9454 71.7501 40.2654 71.0001 40.2654C70.3001 40.2654 70.0001 40.9054 69.9601 41.3654H71.9301Z" fill="#030304"/>
<path d="M78.0702 37.5254V42.8154C78.0702 43.2754 78.0902 43.7754 78.1102 44.0854H77.0902L77.0402 43.3754H77.0202C76.7502 43.8754 76.2102 44.1854 75.5502 44.1854C74.4802 44.1854 73.6302 43.2754 73.6302 41.8854C73.6202 40.3854 74.5602 39.4854 75.6402 39.4854C76.2602 39.4854 76.7002 39.7454 76.9102 40.0754H76.9302V37.5254H78.0702ZM76.9302 41.4654C76.9302 41.3754 76.9202 41.2654 76.9002 41.1654C76.8002 40.7254 76.4402 40.3654 75.9202 40.3654C75.1902 40.3654 74.7802 41.0154 74.7802 41.8554C74.7802 42.6754 75.1902 43.2754 75.9102 43.2754C76.3702 43.2754 76.7802 42.9654 76.8902 42.4754C76.9202 42.3754 76.9302 42.2654 76.9302 42.1454V41.4654Z" fill="#030304"/>
<path d="M33.7302 50.4253C34.1002 50.6353 34.6502 50.8253 35.2302 50.8253C35.9602 50.8253 36.3702 50.4853 36.3702 49.9753C36.3702 49.5053 36.0602 49.2253 35.2602 48.9453C34.2402 48.5753 33.5802 48.0353 33.5802 47.1353C33.5802 46.1153 34.4302 45.3453 35.7802 45.3453C36.4502 45.3453 36.9502 45.4953 37.2802 45.6553L37.0002 46.5653C36.7802 46.4453 36.3402 46.2653 35.7602 46.2653C35.0402 46.2653 34.7302 46.6553 34.7302 47.0153C34.7302 47.4953 35.0902 47.7153 35.9202 48.0353C37.0002 48.4453 37.5302 48.9853 37.5302 49.8853C37.5302 50.8853 36.7702 51.7553 35.1702 51.7553C34.5102 51.7553 33.8302 51.5753 33.4902 51.3653L33.7302 50.4253Z" fill="#030304"/>
<path d="M39.7703 45.8854V47.1654H40.8503V48.0154H39.7703V50.0054C39.7703 50.5554 39.9203 50.8354 40.3503 50.8354C40.5403 50.8354 40.6903 50.8054 40.7903 50.7854L40.8103 51.6554C40.6403 51.7154 40.3503 51.7654 39.9903 51.7654C39.5703 51.7654 39.2203 51.6254 39.0103 51.3954C38.7703 51.1354 38.6603 50.7254 38.6603 50.1354V48.0254H38.0103V47.1754H38.6603V46.1554L39.7703 45.8854Z" fill="#030304"/>
<path d="M44.2401 51.6653L44.1701 51.1653H44.1401C43.8601 51.5153 43.3901 51.7653 42.8101 51.7653C41.9101 51.7653 41.4001 51.1053 41.4001 50.4253C41.4001 49.2853 42.4101 48.7153 44.0701 48.7253V48.6553C44.0701 48.3553 43.9501 47.8653 43.1601 47.8653C42.7201 47.8653 42.2601 48.0053 41.9501 48.1953L41.7301 47.4553C42.0601 47.2553 42.6401 47.0553 43.3501 47.0553C44.7901 47.0553 45.2101 47.9653 45.2101 48.9453V50.5653C45.2101 50.9753 45.2301 51.3653 45.2701 51.6453L44.2401 51.6653ZM44.0901 49.4653C43.2901 49.4453 42.5201 49.6253 42.5201 50.3053C42.5201 50.7453 42.8101 50.9553 43.1701 50.9553C43.6201 50.9553 43.9501 50.6553 44.0601 50.3353C44.0901 50.2553 44.1001 50.1553 44.1001 50.0853V49.4653H44.0901Z" fill="#030304"/>
<path d="M46.4004 48.5053C46.4004 47.9853 46.3904 47.5553 46.3604 47.1653H47.3604L47.4104 47.8353H47.4403C47.6303 47.4853 48.1203 47.0553 48.8703 47.0553C49.6603 47.0553 50.4704 47.5653 50.4704 48.9853V51.6553H49.3304V49.1153C49.3304 48.4653 49.0904 47.9753 48.4704 47.9753C48.0204 47.9753 47.7004 48.2953 47.5804 48.6453C47.5404 48.7453 47.5303 48.8853 47.5303 49.0153V51.6553H46.4004V48.5053Z" fill="#030304"/>
<path d="M55.8302 45.1154V50.4054C55.8302 50.8654 55.8502 51.3654 55.8702 51.6754H54.8502L54.8002 50.9654H54.7802C54.5102 51.4654 53.9702 51.7754 53.3102 51.7754C52.2402 51.7754 51.3902 50.8654 51.3902 49.4754C51.3802 47.9754 52.3202 47.0754 53.4002 47.0754C54.0202 47.0754 54.4602 47.3354 54.6702 47.6654H54.6902V45.1154H55.8302ZM54.6902 49.0454C54.6902 48.9554 54.6802 48.8454 54.6602 48.7454C54.5602 48.3054 54.2002 47.9454 53.6802 47.9454C52.9502 47.9454 52.5402 48.5954 52.5402 49.4354C52.5402 50.2554 52.9502 50.8554 53.6702 50.8554C54.1302 50.8554 54.5402 50.5454 54.6502 50.0554C54.6802 49.9554 54.6902 49.8454 54.6902 49.7254V49.0454Z" fill="#030304"/>
<path d="M59.5802 51.6653L59.5102 51.1653H59.4802C59.2002 51.5153 58.7302 51.7653 58.1502 51.7653C57.2502 51.7653 56.7402 51.1053 56.7402 50.4253C56.7402 49.2853 57.7502 48.7153 59.4102 48.7253V48.6553C59.4102 48.3553 59.2902 47.8653 58.5002 47.8653C58.0602 47.8653 57.6002 48.0053 57.2902 48.1953L57.0702 47.4553C57.4002 47.2553 57.9802 47.0553 58.6902 47.0553C60.1302 47.0553 60.5502 47.9653 60.5502 48.9453V50.5653C60.5502 50.9753 60.5702 51.3653 60.6102 51.6453L59.5802 51.6653ZM59.4302 49.4653C58.6302 49.4453 57.8602 49.6253 57.8602 50.3053C57.8602 50.7453 58.1502 50.9553 58.5102 50.9553C58.9602 50.9553 59.3002 50.6553 59.4002 50.3353C59.4302 50.2553 59.4402 50.1553 59.4402 50.0853L59.4302 49.4653Z" fill="#030304"/>
<path d="M61.7402 48.6153C61.7402 48.0053 61.7302 47.5753 61.7002 47.1653H62.6902L62.7302 48.0253H62.7702C62.9902 47.3853 63.5202 47.0653 64.0002 47.0653C64.1102 47.0653 64.1802 47.0753 64.2702 47.0953V48.1653C64.1802 48.1453 64.0802 48.1253 63.9402 48.1253C63.3902 48.1253 63.0302 48.4753 62.9202 48.9853C62.9002 49.0853 62.8802 49.2053 62.8802 49.3353V51.6653H61.7402V48.6153Z" fill="#030304"/>
<path d="M69.0902 45.1154V50.4054C69.0902 50.8654 69.1102 51.3654 69.1302 51.6754H68.1102L68.0602 50.9654H68.0402C67.7702 51.4654 67.2302 51.7754 66.5702 51.7754C65.5002 51.7754 64.6502 50.8654 64.6502 49.4754C64.6402 47.9754 65.5802 47.0754 66.6602 47.0754C67.2802 47.0754 67.7202 47.3354 67.9302 47.6654H67.9502V45.1154H69.0902ZM67.9602 49.0454C67.9602 48.9554 67.9502 48.8454 67.9302 48.7454C67.8302 48.3054 67.4702 47.9454 66.9502 47.9454C66.2202 47.9454 65.8102 48.5954 65.8102 49.4354C65.8102 50.2554 66.2202 50.8554 66.9402 50.8554C67.4002 50.8554 67.8102 50.5454 67.9202 50.0554C67.9502 49.9554 67.9602 49.8454 67.9602 49.7254V49.0454Z" fill="#030304"/>
<path d="M44.2601 54.6954C45.0301 54.6954 45.6601 55.3154 45.6601 56.0954C45.6601 56.8754 45.0401 57.4954 44.2601 57.4954C43.4801 57.4954 42.8601 56.8754 42.8601 56.0954C42.8601 55.3154 43.4901 54.6954 44.2601 54.6954ZM44.2601 57.2954C44.9301 57.2954 45.4701 56.7554 45.4701 56.0854C45.4701 55.4154 44.9301 54.8754 44.2601 54.8754C43.5901 54.8754 43.0501 55.4154 43.0501 56.0854C43.0501 56.7554 43.5901 57.2954 44.2601 57.2954ZM45.0101 56.3754C44.9301 56.7254 44.6601 56.9754 44.3001 56.9754C43.7901 56.9754 43.4601 56.5854 43.4601 56.0854C43.4601 55.5754 43.7701 55.2054 44.2901 55.2054C44.6601 55.2054 44.9601 55.4154 45.0101 55.7854H44.8101C44.7601 55.5654 44.5801 55.3954 44.3001 55.3954C43.8901 55.3954 43.6701 55.6954 43.6701 56.0854C43.6701 56.4454 43.9001 56.7854 44.3101 56.7854C44.5801 56.7854 44.7701 56.6054 44.8101 56.3754H45.0101Z" fill="#058295"/>
<path d="M46.5201 55.1055H45.8801V54.7455H47.5901V55.1055H46.9601V57.4455H46.5301L46.5201 55.1055Z" fill="#058295"/>
<path d="M47.95 56.4755V56.5955C47.95 56.8655 47.98 57.2155 48.29 57.2155C48.58 57.2155 48.62 56.8855 48.62 56.7655H49C49 57.2155 48.73 57.4955 48.28 57.4955C47.95 57.4955 47.53 57.3955 47.53 56.4555C47.53 55.9255 47.64 55.3555 48.28 55.3555C48.85 55.3555 49 55.6955 49 56.2655V56.4855L47.95 56.4755ZM48.61 56.1955V56.0855C48.61 55.8255 48.53 55.6355 48.3 55.6355C48.04 55.6355 47.96 55.8955 47.96 56.1555V56.1955H48.61Z" fill="#058295"/>
<path d="M49.7702 56.3854L49.2402 55.4054H49.6902L50.0102 56.0754L50.3402 55.4054H50.7802L50.2502 56.3854L50.8002 57.4454H50.3602L50.0002 56.6854L49.6402 57.4354H49.2002L49.7702 56.3854Z" fill="#058295"/>
<path d="M50.9001 55.4054H51.1801V54.8254H51.5901V55.4054H51.9201V55.7054H51.5901V56.9254C51.5901 57.0854 51.6401 57.1454 51.7801 57.1454C51.8401 57.1454 51.8901 57.1454 51.9301 57.1354V57.4354C51.8401 57.4554 51.7301 57.4654 51.6001 57.4654C51.3201 57.4654 51.1901 57.3854 51.1901 56.9754V55.7154H50.9001V55.4054Z" fill="#058295"/>
<path d="M52.2302 54.7054H52.6402V55.1154H52.2302V54.7054ZM52.2302 55.4054H52.6402V57.4454H52.2302V55.4054Z" fill="#058295"/>
<path d="M53.1501 54.7355H53.5601V57.4355H53.1501V54.7355Z" fill="#058295"/>
<path d="M54.4002 56.4755V56.5955C54.4002 56.8655 54.4302 57.2155 54.7402 57.2155C55.0302 57.2155 55.0702 56.8855 55.0702 56.7655H55.4602C55.4602 57.2155 55.1902 57.4955 54.7402 57.4955C54.4102 57.4955 53.9902 57.3955 53.9902 56.4555C53.9902 55.9255 54.1002 55.3555 54.7402 55.3555C55.3102 55.3555 55.4602 55.6955 55.4602 56.2655V56.4855L54.4002 56.4755ZM55.0502 56.1955V56.0855C55.0502 55.8255 54.9702 55.6355 54.7402 55.6355C54.4802 55.6355 54.4002 55.8955 54.4002 56.1555V56.1955H55.0502Z" fill="#058295"/>
<path d="M55.8901 54.7355H57.2301V54.9355H56.1301V55.9155H57.1601V56.1155H56.1301V57.2255H57.2601V57.4255H55.8901V54.7355Z" fill="#058295"/>
<path d="M58.1402 56.5754L57.7202 57.4354H57.4602L58.0002 56.4054L57.4802 55.4354H57.7402L58.1402 56.2254L58.5402 55.4354H58.8002L58.2802 56.4054L58.8202 57.4454H58.5602L58.1402 56.5754Z" fill="#058295"/>
<path d="M60.34 56.7755C60.31 57.2055 60.07 57.4855 59.7 57.4855C59.28 57.4855 59.03 57.1855 59.03 56.4355C59.03 55.7355 59.28 55.3855 59.72 55.3855C60.1 55.3855 60.32 55.6155 60.34 56.0255H60.11C60.08 55.7155 59.96 55.5755 59.72 55.5755C59.47 55.5755 59.27 55.7255 59.27 56.4355C59.27 57.1955 59.49 57.2955 59.7 57.2955C59.93 57.2955 60.08 57.1255 60.12 56.7755H60.34Z" fill="#058295"/>
<path d="M60.7402 54.7355H60.9702V55.7055H60.9802C61.0402 55.5055 61.2302 55.3755 61.4702 55.3755C61.7802 55.3755 61.9802 55.5355 61.9802 55.9155V57.4355H61.7502V55.9855C61.7502 55.7055 61.6402 55.5755 61.4102 55.5755C61.1502 55.5755 60.9702 55.7755 60.9702 56.0855V57.4355H60.7402V54.7355Z" fill="#058295"/>
<path d="M62.4601 56.0255C62.4601 55.6155 62.6601 55.3855 63.0801 55.3855C63.5001 55.3855 63.6501 55.6055 63.6501 55.9155V57.1055C63.6501 57.2155 63.6901 57.2755 63.7701 57.2755H63.8301V57.4455C63.7901 57.4655 63.7501 57.4655 63.7201 57.4655C63.5401 57.4655 63.4301 57.4255 63.4301 57.2155V57.1455H63.4201C63.3301 57.4055 63.1201 57.4855 62.9001 57.4855C62.5501 57.4855 62.3901 57.2655 62.3901 56.9155C62.3901 56.6555 62.5101 56.4355 62.8001 56.3555L63.2301 56.2355C63.3901 56.1855 63.4201 56.1555 63.4201 55.9155C63.4201 55.6555 63.2801 55.5655 63.0701 55.5655C62.8001 55.5655 62.6801 55.7255 62.6801 56.0155L62.4601 56.0255ZM63.4201 56.3055C63.3901 56.3755 63.2601 56.4155 63.1701 56.4355L62.9801 56.4855C62.7501 56.5455 62.6401 56.6655 62.6401 56.9055C62.6401 57.1355 62.7601 57.2955 62.9601 57.2955C63.2401 57.2955 63.4301 57.0855 63.4301 56.7255L63.4201 56.3055Z" fill="#058295"/>
<path d="M64.1902 55.4355H64.3902V55.7155H64.4002C64.5102 55.4955 64.7102 55.3855 64.9102 55.3855C65.2202 55.3855 65.4202 55.5455 65.4202 55.9255V57.4455H65.2002V55.9955C65.2002 55.7155 65.0902 55.5855 64.8602 55.5855C64.6002 55.5855 64.4202 55.7855 64.4202 56.0955V57.4455H64.1902V55.4355Z" fill="#058295"/>
<path d="M66.9801 55.4355H67.1801V57.2955C67.1801 57.8555 66.9801 58.1355 66.5201 58.1355C66.1301 58.1355 65.9301 57.9355 65.9201 57.6455H66.1501C66.1501 57.8355 66.3301 57.9455 66.5301 57.9455C66.8101 57.9455 66.9501 57.7555 66.9501 57.3955V57.0755H66.9401C66.8701 57.3255 66.6801 57.4355 66.4701 57.4355C66.1601 57.4355 65.8501 57.2355 65.8501 56.4255C65.8501 55.7355 66.0501 55.3755 66.4901 55.3755C66.7101 55.3755 66.8901 55.5055 66.9601 55.7355H66.9701V55.4355H66.9801ZM66.5301 57.2555C66.8001 57.2555 66.9601 57.0555 66.9601 56.4155C66.9601 55.7755 66.8001 55.5755 66.5301 55.5755C66.2601 55.5755 66.1001 55.7755 66.1001 56.4155C66.1001 57.0555 66.2601 57.2555 66.5301 57.2555Z" fill="#058295"/>
<path d="M68.9401 56.7755C68.9101 57.2055 68.6701 57.4855 68.2901 57.4855C67.8701 57.4855 67.6201 57.1855 67.6201 56.4355C67.6201 55.7355 67.8701 55.3855 68.3101 55.3855C68.7601 55.3855 68.9601 55.6955 68.9601 56.3655V56.4455H67.8601V56.5355C67.8601 57.1155 68.0601 57.2955 68.2901 57.2955C68.5301 57.2955 68.6801 57.1255 68.7101 56.7755H68.9401ZM68.7101 56.2555C68.7001 55.7555 68.5601 55.5755 68.2801 55.5755C68.0001 55.5755 67.8601 55.7555 67.8501 56.2555H68.7101Z" fill="#058295"/>
</svg>
