<svg xmlns="http://www.w3.org/2000/svg" width="80" height="81" fill="none" viewBox="0 0 80 81"><path fill="#419C36" d="M40.21 14.476c-14.31 0-25.9 11.6-25.9 25.91s11.6 25.9 25.9 25.9c14.3 0 25.91-11.6 25.91-25.9 0-14.3-11.6-25.91-25.91-25.91"/><path fill="#1B191A" d="M21.66 63.646c1.18.92 1.47 2.25.53 3.46-.91 1.17-2.37 1.19-3.5.31-.37-.29-.75-.67-1.01-1.06l.51-.59c.17.38.46.69.78.94.81.63 1.73.54 2.36-.27.57-.73.65-1.61-.13-2.22-.2-.16-.4-.28-.64-.35l-.62.79.48.38-.42.53-1.21-.95 1.39-1.77c.55.17 1.04.45 1.48.8m-2.73-2.351-3.48 3.1-.69-.77 2.86-2.55-1.33-1.5.61-.55zm-3.77-4.94c.8 1.26.42 2.44-.81 3.21-1.2.76-2.47.59-3.25-.65-.79-1.26-.42-2.45.81-3.22 1.21-.76 2.47-.58 3.25.66m-3.45 2.18c.48.77 1.43.52 2.06.12.64-.4 1.26-1.15.78-1.91-.5-.79-1.41-.54-2.07-.12-.65.41-1.27 1.13-.77 1.91m.89-7.05.63 1.58-4.33 1.73-.7-1.76c-.28-.71-.33-1.52.5-1.85.55-.22 1.03-.03 1.35.45-.13-.58.06-1.14.64-1.37 1.03-.42 1.57.37 1.91 1.22m-3.69 1.61.21.54 1.24-.49-.18-.46c-.17-.43-.48-.8-.98-.6-.46.18-.45.62-.29 1.01m1.84-.58.16.41 1.36-.54-.18-.46c-.18-.44-.51-.9-1.05-.69-.58.24-.48.8-.29 1.28m.07-7.45-1.06.63.39 1.95 1.23.18.2 1-4.92-.82-.26-1.33 4.22-2.66zm-3.65 2.16 2.24.35-.31-1.53zm3.38-4.64-4.65.11-.02-1.03 3.83-.09-.05-2 .82-.02zm1.03-9.649c-.38 1.44-1.5 1.97-2.91 1.59-1.37-.36-2.11-1.41-1.74-2.82.38-1.44 1.5-1.97 2.91-1.6 1.39.36 2.12 1.41 1.74 2.83m-3.95-1.05c-.23.88.59 1.4 1.32 1.59.73.19 1.7.14 1.93-.73.24-.9-.57-1.4-1.32-1.6-.74-.19-1.69-.16-1.93.74m6.2-5.021-1.41-.14c-.48-.05-.65-.02-.87.44l-.16.34 1.74.83-.44.91-4.2-2.01.82-1.71c.34-.72.96-1.3 1.8-.9.58.28.72.87.55 1.46.26-.34.53-.4.94-.37l1.7.15zm-4.07-.68-.22.45 1.22.58.2-.42c.2-.43.29-.94-.21-1.18-.49-.23-.77.12-.99.57m6.69-3.329c-.88 1.21-2.2 1.56-3.44.65-1.2-.87-1.28-2.33-.44-3.48.27-.38.65-.77 1.02-1.05l.61.49c-.37.19-.67.49-.91.82-.6.83-.47 1.74.36 2.35.75.55 1.63.59 2.22-.21.15-.2.26-.41.33-.66l-.81-.59-.36.5-.55-.4.9-1.25 1.82 1.32c-.16.56-.42 1.05-.75 1.51m4.48-4.941-1.1-.57-1.45 1.36.49 1.14-.74.7-1.89-4.61.99-.93 4.49 2.18zm-3.75-1.96.88 2.1 1.14-1.06zm7.85-.94-3.47-2.32 2.01 3.23-.78.48-2.46-3.96 1.28-.8 3.48 2.33-2.01-3.24.78-.48 2.46 3.96zm3.07-1.6-1.83-4.28.95-.4 1.83 4.28zm4.99-1.64c-1.45.4-2.69-.16-3.09-1.65-.39-1.41.45-2.61 1.83-2.99.36-.1.8-.15 1.17-.15l.16.76c-.31-.04-.68-.01-.98.07-.96.26-1.39 1.08-1.14 2.02.26.96 1.01 1.43 1.98 1.17.33-.09.64-.23.91-.45l.24.71c-.29.24-.71.41-1.08.51m8.33-4.74-.09 3.83-1.04-.02.09-3.83-1.46-.03.02-.82 3.96.09-.02.82zm2.74 4.04.84-4.58 2.99.55-.13.7-1.99-.36-.22 1.2 1.9.35-.13.7-1.9-.35-.24 1.28 2.06.38-.13.7zm7.4 2-.45-2.17-1.77 1.36-1.06-.39 2.44-1.68-.66-2.62 1.11.41.41 1.97 1.58-1.23 1.03.38-2.23 1.56.75 2.86zm5.71-1.409-1.9 3.33-.9-.52 1.9-3.33-1.27-.72.41-.71 3.44 1.96-.41.71zm.49 4.909 2.82-3.71.82.63-2.82 3.71zm2.48 2.01 3.29-3.3.73.73-2.71 2.71 1.42 1.42-.58.58zm3.01 3.17 3.75-2.77 1.81 2.44-.57.42-1.2-1.63-.98.73 1.15 1.56-.57.42-1.15-1.56-1.05.78 1.24 1.68-.57.42zm4.65 8.24c-.17-.45-.29-.93-.31-1.41l.76-.25c-.05.45.04.9.2 1.32.15.4.46.79.92.61.33-.13.34-.65.36-1.02l.03-.52c.02-.6.19-1.1.79-1.32.95-.35 1.61.51 1.91 1.31.14.37.24.75.27 1.15l-.73.24c.01-.36-.06-.74-.19-1.08-.14-.36-.43-.82-.86-.66-.3.11-.32.55-.32.88l-.01.54c-.01.66-.16 1.2-.84 1.45-.96.36-1.66-.38-1.98-1.24m5.26 4.31-3.76.77-.21-1.02 3.76-.77-.29-1.43.81-.16.79 3.88-.81.16zm-3.23 6.621 1.15-.45-.07-1.98-1.18-.38-.03-1.02 4.71 1.62.05 1.35-4.6 1.93zm3.96-1.53-2.15-.72.05 1.56zm-4.46 6.499 4.03-1.09-3.76-.61.15-.9 4.6.75-.24 1.49-4.04 1.09 3.76.61-.15.9-4.6-.75zm-1.31 4.83.55-1.46 4.36 1.65-.61 1.61c-.54 1.41-1.58 1.94-3.02 1.39-1.49-.56-1.82-1.77-1.28-3.19m3.69 1.4.19-.5-3.02-1.15-.14.36c-.38.99-.06 1.69.94 2.07.87.33 1.68.15 2.03-.78m-6.89 4.95 1.21.25 1.03-1.7-.78-.96.53-.87 3.07 3.93-.7 1.16-4.91-.89zm4.15.88-1.41-1.78-.81 1.33zm-7.21 2.94 1.32.52c.45.18.62.19.96-.19l.25-.28-1.45-1.27.67-.76 3.49 3.08-1.26 1.43c-.53.6-1.28.99-1.98.37-.48-.42-.46-1.03-.14-1.56-.34.26-.62.25-1.01.1l-1.6-.61zm3.74 1.76.33-.37-1.01-.89-.31.35c-.31.36-.53.82-.12 1.19.41.36.77.1 1.11-.28m-6.73 1 1.23-.97 2.88 3.66-1.35 1.07c-1.19.93-2.36.85-3.31-.36-.98-1.25-.65-2.46.55-3.4m2.44 3.1.42-.33-2-2.54-.3.24c-.83.66-.92 1.42-.26 2.26.58.73 1.36.98 2.14.37m-29.12 7.08c-1.46-.37-2.27-1.47-1.9-2.97.36-1.44 1.69-2.07 3.09-1.72.46.11.96.32 1.36.56l-.23.75c-.32-.27-.71-.45-1.1-.55-1-.25-1.81.21-2.06 1.21-.23.91.06 1.74 1.03 1.99.24.06.48.09.74.06l.24-.97-.6-.15.16-.66 1.5.38-.55 2.19c-.56.07-1.12.01-1.68-.12m5.81.86c-1.48-.09-2.21-1.09-2.12-2.53.09-1.41.97-2.33 2.42-2.24 1.48.09 2.21 1.09 2.12 2.53-.08 1.42-.96 2.34-2.42 2.24m.26-4.05c-.9-.06-1.25.85-1.3 1.59-.05.75.19 1.69 1.09 1.75.92.06 1.26-.83 1.31-1.59.05-.78-.18-1.69-1.1-1.75m5.57.14.38 3.8-1.03.1-.38-3.8-1.44.15-.08-.82 3.92-.39.08.82zm4.94 3.05c-.46.12-.93.19-1.4.16l-.16-.76c.43.1.87.05 1.3-.06.41-.11.8-.36.68-.83-.09-.34-.6-.39-.95-.45l-.5-.08c-.58-.08-1.05-.3-1.2-.9-.25-.96.65-1.51 1.46-1.72.38-.1.76-.16 1.14-.15l.16.73a2.91 2.91 0 0 0-1.06.07c-.36.09-.84.33-.73.77.08.3.5.37.82.4l.52.06c.64.08 1.15.27 1.33.96.24.97-.54 1.58-1.41 1.8m-23.43-4.21.41-.86.96.46-.41.86zm28.57.45-.4-.86.96-.45.4.86z"/><path fill="#fff" d="m18.72 38.236 6.28 6.27 5.84-5.84v18.59h8.88v-27.3l-6.36-6.36zm28.36-14.63-6.35 6.35v27.3h8.88v-18.57l5.83 5.83 6.28-6.27z"/></svg>