<svg xmlns="http://www.w3.org/2000/svg" xmlns:xlink="http://www.w3.org/1999/xlink" xml:space="preserve" id="Ebene_1" width="140" height="140" x="0" y="0" style="enable-background:new 0 0 2000 3000" version="1.1" viewBox="100 450 2000 2000"><style>.st11{font-family:&quot;MyriadPro-Regular&quot;}.st12{font-size:100px}</style><defs><path id="SVGID_1_" d="M313.74 596.91h1372.51v1369.65H313.74z"/></defs><clipPath id="SVGID_00000177454617937858345480000017837038689309936824_"><use xlink:href="#SVGID_1_" style="overflow:visible"/></clipPath><path d="M999.83 763.26c-285.86 0-517.58 231.72-517.58 517.58s231.72 517.54 517.58 517.54c285.82 0 517.58-231.68 517.58-517.54s-231.77-517.58-517.58-517.58" style="clip-path:url(#SVGID_00000177454617937858345480000017837038689309936824_);fill:#63a646"/><path d="M629.17 1745.52c23.53 18.4 29.46 45 10.55 69.21-18.23 23.27-47.44 23.83-69.94 6.19-7.39-5.76-14.94-13.45-20.15-21.09l10.29-11.78c3.5 7.51 9.22 13.79 15.58 18.79 16.18 12.64 34.54 10.72 47.18-5.42 11.44-14.65 13.07-32.11-2.65-44.45-3.97-3.07-8.03-5.59-12.85-7.05l-12.34 15.67 9.69 7.56-8.37 10.67L572 1764.9l27.71-35.4c10.84 3.55 20.58 9.06 29.46 16.02" style="clip-path:url(#SVGID_00000177454617937858345480000017837038689309936824_)"/><path d="m574.65 1698.74-69.43 62-13.75-15.41 57.13-51.03-26.64-29.89 12.25-10.93z"/><defs><path id="SVGID_00000073002398398372614590000007309597207004809150_" d="M313.74 596.91h1372.51v1369.65H313.74z"/></defs><clipPath id="SVGID_00000173881834815427141240000000366693043594909843_"><use xlink:href="#SVGID_00000073002398398372614590000007309597207004809150_" style="overflow:visible"/></clipPath><path d="M430.31 1643.6c9.69 15.33 28.48 10.38 41.25 2.31 12.72-8.07 25.23-23.06 15.58-38.26-9.91-15.71-28.22-10.76-41.29-2.43-13.11 8.28-25.45 22.67-15.54 38.38m69-43.63c15.97 25.23 8.33 48.72-16.18 64.22-23.95 15.16-49.36 11.74-64.99-12.89-15.88-25.15-8.41-48.85 16.14-64.39 24.17-15.29 49.36-11.71 65.03 13.06m-88.17-76.85 3.29 8.28 27.11-10.76-3.63-9.09c-3.5-8.8-10.16-18.02-20.92-13.75-11.65 4.65-9.6 15.84-5.85 25.32m-36.76 11.78 4.27 10.76 24.76-9.86-3.67-9.22c-3.42-8.54-9.52-16.01-19.64-12-9.09 3.63-8.79 12.51-5.72 20.32m73.7-32.19 12.6 31.64-86.51 34.41-14-35.27c-5.64-14.13-6.58-30.44 10.03-37.06 11.02-4.36 20.49-.64 26.98 8.97-2.52-11.61 1.2-22.72 12.85-27.33 20.5-8.2 31.3 7.64 38.05 24.64" style="clip-path:url(#SVGID_00000173881834815427141240000000366693043594909843_)"/><path d="m339.74 1417.45 38.77-23.44 6.11 30.53zm-15.58-10.98 5.34 26.56 98.25 16.44-4.01-19.98-24.47-3.59-7.81-38.9 21.22-12.64-4.23-21.09zm65.25-141.95.94 40.05-76.6 1.8.47 20.62 93.08-2.18-1.41-60.67z"/><defs><path id="SVGID_00000134223244795664279790000001032014081824937619_" d="M313.74 596.91h1372.51v1369.65H313.74z"/></defs><clipPath id="SVGID_00000062875414419115390120000008701414650490715297_"><use xlink:href="#SVGID_00000134223244795664279790000001032014081824937619_" style="overflow:visible"/></clipPath><path d="M348.86 1111.08c-4.65 17.55 11.74 27.97 26.34 31.81 14.56 3.89 34.03 2.82 38.64-14.56 4.78-17.98-11.31-28.01-26.3-31.94-14.98-3.97-33.94-3.24-38.68 14.69m78.91 20.92c-7.64 28.86-30.06 39.24-58.11 31.81-27.37-7.26-42.19-28.22-34.71-56.4 7.6-28.78 30.06-39.41 58.15-31.94 27.66 7.3 42.18 28.22 34.67 56.53m-36.4-134.82-4.31 8.92 24.29 11.61 4.06-8.41c4.1-8.58 5.72-18.74-4.23-23.53-9.82-4.68-15.5 2.32-19.81 11.41m81.34 13.58-28.18-2.82c-9.56-1.02-13.02-.34-17.42 8.84l-3.25 6.79 34.76 16.65-8.75 18.23-83.94-40.18 16.4-34.24c6.87-14.35 19.21-25.92 35.95-17.89 11.61 5.51 14.43 17.42 11.14 29.12 5.12-6.79 10.5-8.07 18.83-7.34l33.99 2.95zm52.37-80.13c-17.55 24.17-43.94 31.08-68.79 13.07-23.95-17.38-25.58-46.5-8.8-69.64 5.51-7.6 12.94-15.46 20.37-20.96l12.17 9.86c-7.43 3.8-13.45 9.74-18.19 16.31-12.08 16.57-9.44 34.88 7.17 46.92 15.03 10.89 32.58 11.87 44.28-4.27 2.95-4.06 5.29-8.24 6.62-13.15l-16.18-11.7-7.22 9.95-10.93-7.94 18.02-24.89 36.38 26.39c-3.16 11-8.28 20.91-14.9 30.05" style="clip-path:url(#SVGID_00000062875414419115390120000008701414650490715297_)"/><path d="m539.56 792.66 17.55 41.89 22.72-21.31zm75.02 39.32-21.95-11.4-28.95 27.11 9.82 22.72-14.86 13.96-37.74-92.23 19.77-18.49 89.62 43.64zm81.9-58.04-69.3-46.45 40.14 64.6-15.54 9.65-49.15-79.08 25.62-15.93 69.51 46.54-40.26-64.72 15.54-9.65 49.15 79.07zm61.47-31.92-36.51-85.6 19-8.12 36.51 85.65z"/><defs><path id="SVGID_00000166673277683293348420000006047545595484104358_" d="M313.74 596.91h1372.51v1369.65H313.74z"/></defs><clipPath id="SVGID_00000107571631796647404320000006604258624892434861_"><use xlink:href="#SVGID_00000166673277683293348420000006047545595484104358_" style="overflow:visible"/></clipPath><path d="M857.6 709.3c-28.95 7.9-53.67-3.16-61.78-32.88-7.69-28.14 9.05-52.22 36.51-59.73 7.13-1.92 16.1-3.07 23.36-2.9l3.29 15.2c-6.15-.81-13.54-.26-19.56 1.41-19.13 5.21-27.84 21.65-22.72 40.35 5.25 19.21 20.11 28.61 39.62 23.27 6.62-1.79 12.89-4.65 18.19-9.01l4.78 14.3c-5.98 4.57-14.31 7.99-21.69 9.99" style="clip-path:url(#SVGID_00000107571631796647404320000006604258624892434861_)"/><path d="m974.35 596.92-.38 16.44 29.16.68-1.75 76.6 20.79.51 1.76-76.64 29.16.68.38-16.48zm104.35 98.34 16.69-91.54 59.74 10.89-2.57 14-39.79-7.26-4.4 24 38.05 6.96-2.57 13.83-38-6.91-4.69 25.66 41.07 7.51-2.56 13.96zm147.86 39.89-8.97-43.47-35.4 27.12-21.22-7.86 48.72-33.65-13.11-52.43 22.12 8.2 8.24 39.32 31.6-24.67 20.53 7.6-44.53 31.16 14.9 57.13zm114.09-28.02-38 66.52-18.06-10.29 38-66.52-25.32-14.48 8.16-14.3 68.7 39.24-8.16 14.3zm9.76 98.084 56.32-74.086 16.447 12.504-56.32 74.085zm49.55 39.976 65.71-65.88 14.65 14.56-54.1 54.27 28.35 28.27-11.61 11.7zm60.13 63.4 74.85-55.33 36.08 48.84-11.45 8.46-24.03-32.58-19.64 14.51 22.97 31.09-11.32 8.41-23.01-31.13-20.97 15.55 24.81 33.56-11.44 8.45z"/><defs><path id="SVGID_00000110462418414758125690000015595998862227854775_" d="M313.74 596.91h1372.51v1369.65H313.74z"/></defs><clipPath id="SVGID_00000018229496784988638190000018094413354217097348_"><use xlink:href="#SVGID_00000110462418414758125690000015595998862227854775_" style="overflow:visible"/></clipPath><path d="M1552.96 1073.32c-3.37-9.01-5.76-18.57-6.23-28.18l15.16-4.95c-1.11 9.05.73 17.89 3.93 26.39 2.99 8.11 9.09 15.67 18.36 12.21 6.66-2.52 6.75-13.11 7.17-20.41l.6-10.33c.43-11.96 3.8-21.99 15.71-26.47 18.96-7.09 32.28 10.16 38.21 26.09 2.78 7.47 4.74 15.07 5.47 23.01l-14.6 4.7c.3-7.09-1.28-14.86-3.76-21.52-2.69-7.22-8.54-16.48-17.16-13.28-6.02 2.26-6.45 11.06-6.53 17.63l-.13 10.8c-.3 13.19-3.12 23.95-16.69 29.03-19.1 7.13-33.11-7.56-39.51-24.72" style="clip-path:url(#SVGID_00000018229496784988638190000018094413354217097348_)"/><path d="m1648.19 1110.39 5.84 28.56-75.06 15.37 4.14 20.37 75.07-15.33 5.85 28.52 16.14-3.28-15.85-77.5zm-18.55 136.44 43.04 14.35-42.01 16.74zm-37.83-11.36 23.61 7.6 1.28 39.62-23.06 9.01.73 21.48 91.89-38.64-.9-27.03-94.19-32.36zm-2.73 121.55 75.07 12.21-80.58 21.69-4.86 29.89 91.88 14.9 2.95-18.06-75.23-12.17 80.78-21.82 4.78-29.76-91.88-14.9z"/><defs><path id="SVGID_00000005972589634410649060000001902231277591376310_" d="M313.74 596.91h1372.51v1369.65H313.74z"/></defs><clipPath id="SVGID_00000038380643983178205190000006033470353052426661_"><use xlink:href="#SVGID_00000005972589634410649060000001902231277591376310_" style="overflow:visible"/></clipPath><path d="m1631.05 1515.53 3.8-10.03-60.42-22.89-2.73 7.17c-7.51 19.81-1.15 33.77 18.83 41.33 17.46 6.63 33.56 2.87 40.52-15.58m-73.7-28.05 11.1-29.25 87.02 33.01-12.21 32.24c-10.67 28.18-31.68 38.73-60.42 27.84-29.58-11.24-36.25-35.4-25.49-63.84" style="clip-path:url(#SVGID_00000038380643983178205190000006033470353052426661_)"/><path d="m1576.35 1631.85-28.22-35.52-16.14 26.6zm-82.83-17.51 24.17 5 20.54-33.9-15.58-19.21 10.5-17.42 61.31 78.48-14.05 23.18-98.03-17.76z"/><defs><path id="SVGID_00000042701596309374228770000000741411245335638953_" d="M313.74 596.91h1372.51v1369.65H313.74z"/></defs><clipPath id="SVGID_00000126305338084806398670000009662789304206177954_"><use xlink:href="#SVGID_00000042701596309374228770000000741411245335638953_" style="overflow:visible"/></clipPath><path d="m1507.02 1725.77 6.58-7.47-20.24-17.76-6.19 7c-6.23 7.13-10.59 16.48-2.35 23.78 8.2 7.22 15.58 1.97 22.2-5.55m-74.59-35.22 26.34 10.38c8.97 3.59 12.42 3.84 19.17-3.8l5-5.64-28.95-25.45 13.41-15.2 69.81 61.53-25.06 28.52c-10.5 11.91-25.58 19.68-39.5 7.43-9.61-8.5-9.09-20.71-2.73-31.08-6.79 5.17-12.34 4.91-20.15 1.96l-31.9-12.13zm-11.13 117.18 8.41-6.66-39.96-50.72-6.06 4.74c-16.65 13.11-18.32 28.35-5.12 45.09 11.61 14.68 27.28 19.72 42.73 7.55m-48.71-61.99 24.55-19.38 57.64 73.1-27.07 21.35c-23.7 18.66-47.1 16.87-66.1-7.26-19.64-24.86-12.89-48.98 10.98-67.81M839.63 1949.1c-29.12-7.34-45.43-29.38-37.92-59.31 7.22-28.86 33.82-41.29 61.7-34.29 9.14 2.31 19.26 6.28 27.16 11.14l-4.65 15.03c-6.28-5.47-14.09-8.88-21.99-10.85-20.03-5.04-36.08 4.23-41.12 24.25-4.57 18.1 1.11 34.84 20.54 39.75 4.91 1.24 9.69 1.84 14.73 1.24l4.91-19.47-12-3.03 3.33-13.19 29.93 7.51-10.97 43.85c-11.45 1.22-22.59.15-33.65-2.63m121.22-63.71c-18.02-1.15-25.02 16.91-25.96 31.85-.94 14.99 3.84 33.82 21.73 34.93 18.4 1.15 25.11-16.48 26.09-31.85.99-15.42-3.41-33.78-21.86-34.93m-5.16 81.04c-29.63-1.88-44.11-21.73-42.27-50.55 1.79-28.14 19.38-46.63 48.33-44.79 29.5 1.88 44.28 21.73 42.44 50.6-1.79 28.38-19.38 46.62-48.5 44.74" style="clip-path:url(#SVGID_00000126305338084806398670000009662789304206177954_)"/><path d="m1020.93 1876.87 1.66 16.35 28.87-2.9 7.55 75.87 20.58-2.09-7.55-75.87 28.9-2.86-1.66-16.31z"/><defs><path id="SVGID_00000119105777108501400500000005274106429612838335_" d="M313.74 596.91h1372.51v1369.65H313.74z"/></defs><clipPath id="SVGID_00000041978450986625640610000007258563120942226317_"><use xlink:href="#SVGID_00000119105777108501400500000005274106429612838335_" style="overflow:visible"/></clipPath><path d="M1170.9 1949.2c-9.09 2.35-18.57 3.71-28.01 3.2l-3.24-15.16c8.67 1.96 17.46 1.07 26-1.15 8.16-2.13 16.1-7.3 13.66-16.65-1.75-6.7-12.04-7.81-19.09-8.97l-9.95-1.62c-11.57-1.62-20.96-5.89-24.08-17.89-5-19.09 13.02-30.27 29.12-34.46 7.51-1.96 15.07-3.07 22.84-2.99l3.12 14.65c-6.87-1.02-14.56-.26-21.26 1.49-7.26 1.88-16.87 6.62-14.56 15.29 1.58 6.06 10.03 7.39 16.44 8.11l10.46 1.2c12.77 1.62 22.89 5.47 26.47 19.13 5 19.21-10.67 31.34-27.92 35.82" style="clip-path:url(#SVGID_00000041978450986625640610000007258563120942226317_)"/><path d="m702.67 1865.03 19.21 9.06 8.2-17.21-19.26-9.1zm562.66-8.14 8.11 17.2 19.26-9.01-8.11-17.25z"/><path d="m1137.17 945.58-126.94 126.85v545.59h177.45v-371.17l116.44 116.39 125.4-125.36zm-566.68 292.31 125.4 125.36 116.61-116.61v371.38h177.49V1072.6L862.88 945.49z" style="fill:#fff"/><path d="M22.22 2108.65h1955.56v294.44H22.22z" style="fill:none"/><text transform="translate(169.866 2179.647)"><tspan x="0" y="0" class="st11 st12">Zertifiziert von ECOCERT Greenlife S.A.S.</tspan><tspan x="480.29" y="120" class="st11 st12">Lizenznr. 152026</tspan></text></svg>