<svg xmlns="http://www.w3.org/2000/svg" xml:space="preserve" id="Ebene_1" width="140" height="140" x="0" y="0" style="enable-background:new 0 0 2000 3000" version="1.1" viewBox="100 450 2000 2000"><style>.st1{font-family:&quot;MyriadPro-Regular&quot;}.st2{font-size:100px}.st4{fill:#008192}</style><path d="M22.22 1848.65h1955.56v294.44H22.22z" style="fill:none"/><text transform="translate(169.866 1919.647)"><tspan x="0" y="0" class="st1 st2">Zertifiziert von ECOCERT Greenlife S.A.S.</tspan><tspan x="364.2" y="120" class="st1 st2">Lizenznr. TE-00152026</tspan></text><path d="M841.79 1048.34c0 .01 0 .01 0 0v.01c.01.01.01.02 0-.01m-1.1 6.11c-1.88 4.83-5.05 9.89-8.41 14.62-6.87 9.49-14.56 18.35-22.28 26.5-6.73 7.02-13.41 13.55-19.98 19.77-1.94-2.9-3.96-5.86-6.09-8.96-2.48-3.86-5.62-7.45-8.59-11.41-3.01-3.93-6.25-7.89-9.86-11.73-6.93-7.94-14.81-15.85-23.51-23.46-1.88-1.6-3.8-3.2-5.74-4.8 9.75-2.49 19.48-4.8 29.1-6.71 13.87-2.73 27.57-4.89 40.76-5.95 6.58-.47 13.05-.59 19.08-.17 5.96.4 11.75 1.91 14.67 4.1.74.51 1.24 1.17 1.38 1.21l.57.94c.02.05.05.14.09.34.17.97-.25 3.37-1.19 5.71m-161.85 12.37c-14.38 5.7-28.82 11.57-43.28 17.53-.12-.23-.23-.44-.36-.68-2.06-4.24-5.07-8.07-8.17-12.28-1.58-2.08-3.14-4.3-4.96-6.35-1.85-2.01-3.83-3.99-5.82-6.05-1.26-1.38-2.6-2.69-3.99-3.98 6.13-5.41 11.69-10.84 16.52-16.12 4.06-4.46 7.68-8.78 10.86-12.9.53-.71.97-1.39 1.47-2.09.16.05.32.09.48.14 10.87 3.52 21.78 7.48 32.23 12.51l7.91 3.59 7.69 4.01c5.2 2.53 10.04 5.66 14.95 8.56 1.4.8 2.7 1.72 4.03 2.6-9.81 3.77-19.66 7.61-29.56 11.51m-84.61 34.69c-28.16 12.13-56.27 24.53-83.19 38.35-7.98 4.09-15.83 8.29-23.62 12.54-.13-.81-.25-1.61-.39-2.42-.33-2.38-.95-4.73-1.18-7.22-.17-2.51-.44-5.05-.68-7.63-.15-2.59-.68-5.16-.69-7.84-.04-2.68-.11-5.37-.24-8.08-.12-1.61-.15-3.24-.14-4.87 8.07-1.84 16.04-3.84 23.85-5.98 17.75-4.9 34.55-10.68 49.91-17.95 15.3-7.18 29.1-15.47 40.95-24.37.18-.14.35-.28.53-.42.08.06.17.12.25.17 2.24 1.47 4.1 3.31 6.19 4.86 2.03 1.6 4.01 3.22 6.01 4.74 1.96 1.56 3.59 3.37 5.4 4.94 3.02 2.82 6.1 5.4 8.58 8.08-10.51 4.35-21.01 8.71-31.54 13.1m-160.6 82.03a757.77 757.77 0 0 0-39.49 25.78l.03-.33c.62-5.68 1.03-11.43 2.11-17.1l1.4-8.56 1.87-8.48c2.24-11.37 5.61-22.49 9.31-33.29 2.56-6.79 5.11-13.5 7.87-20.03 2.26.33 4.51.55 6.73.68 5.01.34 9.96.18 14.84-.21 4.88-.33 9.71-.83 14.47-1.58a424.6 424.6 0 0 0 14.13-2.44c.07.73.1 1.46.2 2.18.52 5.96 1.14 11.82 2.58 17.37.64 2.79 1.21 5.53 1.88 8.18.72 2.64 1.72 5.16 2.6 7.62.68 1.82 1.34 3.59 2 5.31-14.52 8.15-28.73 16.48-42.53 24.9m-51.65 92.65c.9 5.19 2.13 10.16 3.47 14.93 1.4 4.75 2.39 9.41 3.99 13.71 2.18 6.44 4.19 12.47 6.35 17.9-6.63 1.31-15.24 2.93-25.7 4.35-6.57.83-13.82 1.78-21.68 2.23-7.82.4-16.38.57-24.73-.82-4.1-.73-8.23-1.97-10.97-3.92-.69-.48-1.27-.98-1.73-1.5-.26-.27-.47-.52-.49-.61-.06-.09-.08-.06-.19-.23l-.46-.83c-.44-.91-.75-2.25-.61-3.83.21-3.22 1.9-7.48 4.41-11.59 2.49-4.14 5.65-8.31 9.13-12.44 7.01-8.25 15.42-16.27 24.5-24.19 9.02-8 18.81-15.88 29.13-23.67.34-.26.7-.51 1.04-.77.9 10.94 2.44 21.46 4.54 31.28m-30.25-111.46c11.54-20.69 25.59-40.58 41.63-59.21.35 1.14.74 2.11 1.11 2.71 1.86 3.55 4.27 5.98 6.91 7.78-.49 1.01-.97 2.01-1.46 3.02-2.71 5.32-4.84 10.98-7.11 16.63-4.15 11.45-7.95 23.27-10.56 35.39l-1.86 9.1-1.34 9.18c-1.04 6.09-1.39 12.23-1.94 18.3-.39 4.83-.51 9.62-.52 14.38-3.93 2.94-7.87 5.88-11.66 8.87-20.81 16.6-39.81 33.41-54.65 52.48 1.87-11.32 4.22-22.56 7.35-34.72 7.44-27.69 18.77-56.46 34.1-83.91m132.62-61.99c.09-5.53.76-11.07 1.01-16.54.78-5.43 1-10.87 1.87-16.06.72-5.21 1.36-10.29 2.24-15.08.68-4.84 1.62-9.36 2.33-13.6.79-4.25 1.52-8.14 2.17-11.59.44-2.17.83-4.1 1.2-5.9 3.83-2.05 7.7-4.03 11.61-5.93l6.08 2.41c3.24 1.35 6.9 2.87 10.89 4.53 3.94 1.73 8.24 3.41 12.66 5.49 4.49 1.89 9.1 4.12 13.85 6.38 4.83 2.11 9.49 4.91 14.47 7.22 4.72 2.78 9.72 5.25 14.4 8.2 2.42 1.57 4.91 3.06 7.37 4.58-11.05 6.34-22.92 12.9-35.58 19.65-14.33 7.59-29.68 15.83-46.07 22.98-6.64 2.87-13.51 5.55-20.56 7.9.01-1.56.06-3.1.06-4.64m-62.6 7.78c4.84-9.8 9.78-19.19 15.09-27.77 5.22-8.62 10.62-16.52 15.76-23.74 4.99-6.76 9.74-12.89 14.16-18.27 6.64-4.37 13.44-8.5 20.37-12.39-1.65 2.96-3.37 6.25-5.12 9.95-1.81 4.08-3.81 8.51-5.46 13.36-1.81 4.81-3.35 10.01-4.76 15.45-.82 2.7-1.38 5.5-1.91 8.35-.57 2.84-1.11 5.73-1.6 8.65-.7 5.89-1.44 11.89-1.65 17.94.04 3.45-.06 6.89-.02 10.32-4.8 1.11-9.67 2.03-14.6 2.68-9.26 1.27-18.77 1.74-27.93.57-1.47-.22-2.93-.5-4.37-.81.68-1.42 1.33-2.88 2.04-4.29m227.92-123.29c.55.93.83 1.41.84 1.43.03.06.22.58.6 1.61.37 1.11.67 2.58.75 4.77-.02 2.16-.48 4.82-1.56 7.82-.61 1.66-1.46 3.41-2.49 5.21-.43-.13-.86-.28-1.29-.41-5.89-1.56-11.69-3.25-17.58-4.27-2.92-.57-5.83-1.13-8.71-1.69-2.91-.44-5.79-.87-8.65-1.3-5.71-.89-11.37-1.37-16.9-1.82-5.55-.22-10.96-.61-16.23-.55-7.91-.19-15.48.21-22.62.79 8.64-2.6 17.34-4.88 26.08-6.73 21.6-4.5 43.54-7.09 65.11-7.91 1.25 1.17 2.17 2.25 2.65 3.05m-246.81 112.3c.23-1.76.65-3.58 1.42-5.43.16-.42.38-.84.56-1.25 1.68-1.78 3.33-3.58 5.05-5.33 7.37-7.52 15.17-14.7 23.27-21.56-2.46 3.01-4.9 6.13-7.26 9.45-3.22 4.18-6.14 8.75-9.3 13.33-2.95 4.69-5.96 9.52-8.67 14.62-.8 1.49-1.62 3.01-2.43 4.51-.35-.38-.68-.77-.92-1.2-.21-.37-.53-.68-.65-1.09l-.26-.56-.13-.28-.03-.05c-.92-2.69-.63-3.16-.65-5.16m200.04-52.37c-4.5-3.86-9.7-6.79-14.67-10.11-5.18-3.14-10.6-5.8-15.92-8.43-2.72-1.18-5.43-2.31-8.13-3.39-2.68-1.12-5.33-2.18-8.03-2.97-5.33-1.8-10.52-3.35-15.53-4.47-4.97-1.27-9.78-2.02-14.18-2.73-3.96-.54-7.58-.9-10.9-1.14 2.95-1.33 5.9-2.63 8.88-3.87.22-.01.43-.03.65-.04 7.24-.35 15.39-.49 24.24-.43 8.86.22 18.41.63 28.45 1.62 10.04.89 20.53 2.57 31.26 4.57 9.03 1.6 18.11 4.12 27.27 6.76-3.65 3.58-7.88 7.2-12.64 10.76-6.12 4.63-13.16 9.23-20.75 13.87m75.54-62.92c31.45 1.5 61.59 7.21 89.02 16.31 13.75 4.48 26.7 10.05 38.97 15.99 6.41 3.14 12.63 6.41 18.63 9.8-6.95-.4-13.74.06-20.45.88-14.27 1.69-28.24 5.18-42.18 9.25-11.61 3.47-23.18 7.47-34.77 11.67-4.52-3.46-9.2-6.81-14.12-9.9-5.19-3.2-10.31-6.6-15.81-9.42l-8.15-4.43-8.4-3.97c-10.06-4.62-20.5-8.31-30.9-11.58 2.44-5.38 3.52-10.2 3.43-13.83-.07-2.33-.52-4.29-.92-5.38-.41-1.09-.63-1.66-.63-1.66l-.03-.07-.91-1.64c-.35-.61-.93-1.37-1.63-2.19 9.71-.28 19.35-.26 28.85.17m274.05 163.28c-3.92-7.09-9.57-17.62-18.03-30.24-8.37-12.67-19.21-27.72-33.44-43.56-14.12-15.91-31.68-32.62-53.04-48.15-21.33-15.49-46.46-29.95-75.04-40.52-28.49-10.6-60.15-18.08-93.35-20.2-16.58-1.16-33.5-1.21-50.55-.23-4.25.31-8.54.53-12.81.93-4.27.45-8.55.9-12.84 1.35-4.65.57-8.48 1.21-12.77 1.84-4.2.65-8.67 1.61-13.01 2.41-34.44 7.04-68.18 19.51-99.36 36.76-31.09 17.4-59.41 39.53-83.73 64.66-24.44 25.06-44.34 53.53-59.98 82.82-15.73 29.38-26.31 59.75-33.11 89.61-3.09 14.26-5.72 29.36-7.04 43.4-.75 7.08-1.06 14.07-1.49 20.91-.07 6.86-.51 13.58-.26 20.16.25 26.34 3.34 50.32 7.65 71.15 4.23 20.86 9.89 38.54 15.04 52.83 5.33 14.24 10.35 25.06 13.92 32.34 3.65 7.24 5.59 11.1 5.59 11.1l-4.48-11.58c-2.89-7.55-6.61-18.81-10.82-33.23-3.93-14.5-7.99-32.28-10.86-52.9-2.6-19.06-4-40.57-3.43-63.81.18.11.36.25.55.35 5.76 3.21 11.26 4.05 16.33 4.6 10.16.84 19.13-.18 27.32-1.45 8.16-1.32 15.51-2.9 22.05-4.65 10.72-2.84 19.35-5.57 25.87-7.76.24.55.47 1.15.72 1.69 2.88 6.81 5.39 12.72 7.95 17.38 4.86 9.42 7.8 14.66 7.8 14.66s-1.53-5.88-4.51-15.93c-1.65-4.97-2.94-11.23-4.8-18.24-.18-.61-.32-1.27-.48-1.9 5.05-1.86 7.73-2.85 7.73-2.85l-.5-1.7s-2.77.56-7.98 1.63c-1.36-5.79-2.52-12.17-4.02-18.9-1.04-4.31-1.45-8.94-2.24-13.63-.39-2.35-.77-4.74-1.16-7.16-.39-2.42-.55-4.91-.85-7.42-1.25-10.01-1.74-20.62-2.15-31.53.04-3.01.01-6.06 0-9.12 15.94-11.57 32.83-23.14 50.36-34.75 13.02-8.59 26.55-17 40.35-25.33.88 1.51 1.74 2.98 2.53 4.32 2.13 2.86 4.16 5.27 5.79 7.27 3.28 3.99 5.34 6.17 5.34 6.17s-.71-2.91-2.26-7.84c-.79-2.46-1.7-5.47-2.93-8.81-.37-1.73-.76-3.56-1.18-5.45 9.01-5.37 18.09-10.72 27.3-16.05 25.92-14.95 52.34-30.21 79.54-44.01 10.69-5.57 21.56-10.8 32.49-15.82 1.64 1.69 3.23 3.31 4.71 4.82 2.13 2.86 4.15 5.27 5.78 7.27 3.28 3.99 5.33 6.18 5.33 6.18s-.7-2.91-2.25-7.84c-.78-2.46-1.69-5.47-2.92-8.82-.81-1.65-1.69-3.43-2.64-5.31 14.1-6.26 28.33-12.06 42.63-17.32 11.77-4.34 23.62-8.15 35.44-11.64.77.51 1.55 1.02 2.32 1.53 4.69 3.08 8.98 6.62 13.4 9.84 8.49 6.87 16.69 13.62 23.95 20.63 1.83 1.73 3.72 3.36 5.43 5.13 1.7 1.77 3.38 3.51 5.03 5.22 3.28 3.45 6.75 6.54 9.57 9.97 2.59 3 5.13 5.84 7.57 8.59-6.38 5.86-12.64 11.41-18.62 16.49-14 12.07-26.73 22.01-37.31 30.09-10.62 8.02-19.14 14.14-25 18.25-5.88 4.08-9.03 6.26-9.03 6.26l.9 1.53 9.84-4.98c6.38-3.34 15.67-8.39 27.11-15.46 11.49-7.01 25.12-16.07 40.24-27.22 6.35-4.79 13.01-9.95 19.82-15.52.1.13.22.26.32.39 4.49 5.69 8.73 10.48 11.72 14.77 6.25 8.41 10.04 13.16 10.04 13.16s-2.43-5.5-7.06-15.03c-2.19-4.84-5.42-10.39-9.15-16.78-.17-.3-.37-.62-.54-.93 7.6-6.39 15.37-13.31 23.14-20.94 8.31-8.21 16.84-16.96 24.57-27.44 3.85-5.28 7.63-10.82 10.56-17.83 1.32-3.44 2.64-7.29 2.38-12.52 14.16 10.47 26.67 21.28 37.43 31.88 14.82 14.61 26.73 28.44 35.97 40.3 4.69 5.88 8.54 11.39 12.08 16.06 3.33 4.81 6.16 8.91 8.47 12.23 4.42 6.79 6.77 10.41 6.77 10.41s-1.98-3.86-5.72-11.04" style="fill:#8cc1d6"/><path d="M911.83 1540.67c-3.26.38-8.03.93-14.12 1.64-2.99.45-6.33.83-9.99 1.08-3.62.33-7.54.7-11.73 1.08-4.15.47-8.56.93-13.19 1.05-4.58.28-9.4.58-14.42.88-4.89.44-10.55.34-16.1.54-2.81.09-5.66.18-8.56.27l-2.18.09-.55.02-.27.01c-.13.01.64-.09.25-.05h-.13l-1.07-.02-4.31-.09c-5.77-.21-11.65-.03-17.66-.28-6.02-.37-12.15-.7-18.36-.92-6.21-.51-12.5-1.22-18.86-1.67-6.35-.58-12.74-1.59-19.18-2.35-6.45-.75-12.88-2.04-19.36-3.02-3.24-.47-6.46-1.11-9.67-1.85l-9.67-1.92c-6.48-1.11-12.79-3.03-19.15-4.51-6.41-1.33-12.62-3.33-18.84-5.06-6.24-1.67-12.29-3.8-18.33-5.7-3.01-.99-6.03-1.89-8.98-2.93-2.92-1.1-5.83-2.2-8.71-3.28-2.89-1.06-5.77-2.1-8.61-3.13-2.83-1.06-5.57-2.28-8.32-3.39-5.46-2.31-10.91-4.37-16-6.82-5.16-2.35-10.18-4.63-15.03-6.83a525.07 525.07 0 0 0-13.81-6.93c-4.52-2.09-8.56-4.58-12.55-6.73-3.9-2.25-7.88-4.12-11.25-6.18-1.99-1.21-3.88-2.34-5.71-3.42l46.03-18.46-156.34-64.01 63.26 156.65 20.54-50.53c3.59 2.94 7.66 6.13 12.02 9.66 3.51 2.81 7.29 5.43 11.33 8.3 4.06 2.78 8.21 5.95 12.84 8.75 4.56 2.92 9.36 5.92 14.37 8.94 5.12 2.83 10.42 5.75 15.87 8.75 5.4 3.12 11.33 5.55 17.21 8.4 5.89 2.86 12.02 5.51 18.37 7.94 3.17 1.24 6.35 2.5 9.57 3.76 3.23 1.2 6.55 2.25 9.86 3.4 6.62 2.28 13.33 4.56 20.27 6.27 13.73 3.94 27.94 7.02 42.27 9.29 14.3 2.46 28.78 3.64 42.99 4.43 7.13.1 14.18.42 21.15.31 6.98-.19 13.86-.55 20.6-.88 6.74-.6 13.35-1.31 19.8-2.05 6.44-.82 12.7-1.96 18.77-3.04 1.52-.27 3.02-.54 4.52-.8l1.12-.2.67-.1.26-.06.53-.13 2.12-.5c2.82-.69 5.59-1.37 8.32-2.03 5.49-1.48 10.62-2.49 15.87-4.22 10.34-3.39 19.84-6.14 27.75-9.66 7.98-3.41 14.96-6.05 20.43-9.06 5.46-2.89 9.76-5.16 12.68-6.72 2.88-1.61 4.41-2.47 4.41-2.47s-1.73.18-5.04.49" class="st4"/><path d="m1073.63 1172.4-12.15-168.5-40.97 48.85c-1.75-2.64-3.72-5.52-5.88-8.64-2.14-3.1-4.39-6.52-6.92-10.01-2.6-3.43-5.37-7.07-8.29-10.91-1.46-1.92-2.97-3.9-4.51-5.93-1.63-1.96-3.3-3.96-5.02-6.01-3.46-4.07-7-8.43-10.89-12.78l-12.52-13.27c-4.32-4.62-9.21-8.97-14.05-13.72-19.8-18.44-43.85-37.72-72.54-55.17-28.58-17.54-61.75-33.42-98.76-44.89-37.21-11.5-76.97-18.62-120.1-19.78-42.39-1.25-86.4 3.92-129.5 15.29-43.1 11.42-85.18 29.53-123.62 53.56-38.56 23.82-73.36 53.68-102.61 87.34l-5.49 6.29-1.37 1.57-.68.78-.34.39-.78.94-2.4 3.16c-3.2 4.22-6.4 8.42-9.58 12.62l-4.77 6.29c-1.6 2.03-3.13 4.6-4.68 6.86-3.1 4.68-6.18 9.34-9.26 14-1.52 2.33-3.09 4.64-4.54 6.99l-3.99 7.09c-2.64 4.72-5.28 9.42-7.9 14.12-2.75 4.61-4.94 9.51-7.25 14.3l-6.84 14.37c-17.24 38.57-28.35 78.11-34.01 116.13-5.77 38.03-6.15 74.53-3.03 107.65 2.94 33.18 9.57 63.05 17.75 88.6 2.06 6.39 3.64 12.67 6.07 18.47 2.3 5.82 4.5 11.42 6.63 16.81.53 1.34 1.06 2.67 1.58 3.99l.82 2.08.87 1.87c1.15 2.48 2.28 4.91 3.38 7.28 2.27 4.74 4.15 9.29 6.48 13.54 4.43 8.53 8.33 16.13 12.28 22.4 3.82 6.35 6.93 11.79 9.86 15.97 5.69 8.42 8.72 12.92 8.72 12.92l-6.63-14.07c-4.35-9.11-10.14-22.86-16.56-40.35-6.38-17.82-12.85-39.51-18-64.9-.64-3.17-1.3-6.38-1.95-9.65-.71-3.25-1.34-6.57-1.71-9.99-.91-6.79-1.85-13.77-2.8-20.94-.87-7.17-1.06-14.6-1.68-22.13-.21-3.78-.73-7.56-.71-11.44-.04-3.87-.07-7.77-.1-11.72l-.12-11.94c-.07-4.02.38-8.08.53-12.16.2-4.08.41-8.21.61-12.37.11-2.08.23-4.16.34-6.26.24-2.09.49-4.18.73-6.29.49-4.2.97-8.44 1.46-12.72.51-4.27.87-8.58 1.77-12.86 1.62-8.58 2.84-17.34 4.77-26.09 7.55-35.02 19.65-70.97 37.03-105.65 2.26-4.29 4.52-8.6 6.8-12.92 2.29-4.32 4.45-8.72 7.14-12.84 2.57-4.19 5.15-8.39 7.74-12.61l3.87-6.33 4.18-5.96c2.78-3.97 5.56-7.95 8.35-11.95 1.46-2.01 2.62-3.97 4.33-6.03l4.95-6.15c3.3-4.1 6.62-8.22 9.93-12.34l2.49-3.09c-.13.16-.5.64-.12.18l.33-.35.64-.69 1.28-1.39 5.16-5.56c27.12-30 59.18-56.25 94.13-77.79 35.03-21.4 73.02-38.13 112.09-48.72 38.99-10.9 78.84-15.98 117.4-16.1l14.41.09c4.84-.09 9.33.59 13.98.83 4.61.33 9.21.66 13.77.99 2.23.09 4.65.39 7.11.77l7.26 1.02c4.83.68 9.63 1.35 14.4 2.01l3.57.5 2.72.55 6.71 1.36c4.45.94 8.92 1.7 13.29 2.77 4.35 1.12 8.68 2.23 12.99 3.34 34.47 8.82 65.78 22.01 93.42 36.56 27.6 14.69 51.53 30.91 71.5 46.91 20.14 15.85 36.14 31.63 48.86 45.06 3.15 3.39 6.13 6.61 8.94 9.64 2.72 3.07 5.11 6.05 7.43 8.77 1.48 1.76 2.86 3.39 4.19 4.98l-60.56 4.21z" class="st4"/><path d="M593.17 1327.58c-8.32 3.1-24.56 7.35-41.97 7.35-22.05 0-38.68-5.61-51.05-17.4-11.6-11.03-18.37-28.24-18.18-47.96 0-41.19 29.4-67.69 72.52-67.69 16.05 0 28.63 3.29 34.62 6.19l-5.22 19.14c-7.16-3.09-15.86-5.61-29.59-5.61-27.85 0-47.38 16.44-47.38 46.8 0 29.59 18.18 47.19 45.25 47.19 8.51 0 14.89-1.17 17.99-2.71v-32.49h-23.01v-18.76h46.03v65.95zm23.99-131.31h23.98v137.31h-23.98zm68.27 90.32c0 18.18 8.89 31.91 23.4 31.91 13.54 0 23.01-13.35 23.01-32.3 0-14.7-6.57-31.52-22.82-31.52-16.82 0-23.59 16.24-23.59 31.91m70.98-.97c0 34.62-24.37 50.09-48.35 50.09-26.69 0-47.19-18.36-47.19-48.54 0-30.94 20.3-49.9 48.74-49.9 28.03 0 46.8 19.73 46.8 48.35m43.33 9.09c0 1.94.19 3.87.58 5.61 2.51 9.48 10.83 16.63 21.08 16.63 14.89 0 23.98-11.99 23.98-30.94 0-16.63-7.93-30.17-23.79-30.17-9.67 0-18.37 6.96-21.08 17.41-.39 1.74-.77 3.87-.77 6.19zm-24.56 38.87c.39-6.38.78-16.82.78-26.5v-110.81h23.79v56.09h.39c5.8-9.09 16.05-15.08 30.17-15.08 23.01 0 39.45 19.15 39.26 47.76 0 33.84-21.46 50.67-42.74 50.67-12.19 0-23.01-4.64-29.78-16.24h-.39l-1.16 14.12h-20.32zm163.81-46.03c-16.82-.38-32.87 3.29-32.87 17.6 0 9.28 6 13.54 13.54 13.54 9.48 0 16.44-6.19 18.57-12.96.58-1.74.77-3.68.77-5.22v-12.96zm3.09 46.03-1.54-10.44h-.58c-5.8 7.34-15.67 12.56-27.85 12.56-18.95 0-29.59-13.72-29.59-28.04 0-23.79 21.08-35.78 55.89-35.58v-1.55c0-6.19-2.51-16.43-19.14-16.43-9.28 0-18.95 2.9-25.33 6.96l-4.64-15.47c6.96-4.25 19.14-8.31 34.04-8.31 30.17 0 38.87 19.15 38.87 39.64v34.04c0 8.51.39 16.83 1.36 22.63h-21.49zm45.27-137.31h23.98v137.31h-23.98zm114.31 66.34h14.12c16.04 0 26.11-8.51 26.11-21.47 0-14.31-10.06-20.89-25.53-20.89-7.54 0-12.38.58-14.7 1.16zm-23.6-57.63c8.9-1.55 22.24-2.71 35.97-2.71 18.76 0 31.52 3.09 40.22 10.44 7.16 5.99 11.22 15.08 11.22 26.11 0 16.82-11.41 28.24-23.59 32.68v.58c9.28 3.48 14.89 12.57 18.18 25.14 4.06 16.24 7.54 31.33 10.24 36.36h-24.56c-1.94-3.87-5.03-14.5-8.7-30.75-3.68-17.02-9.87-22.43-23.41-22.82h-11.99v53.57h-23.6v-128.6zm167.87 71.55c.19-8.7-3.68-23.02-19.53-23.02-14.7 0-20.89 13.34-21.85 23.02zm-41.38 16.63c.58 17.02 13.92 24.37 29.01 24.37 11.02 0 18.95-1.55 26.11-4.26l3.48 16.44c-8.12 3.29-19.33 5.8-32.87 5.8-30.55 0-48.54-18.75-48.54-47.58 0-26.1 15.86-50.66 46.03-50.66 30.56 0 40.61 25.14 40.61 45.84 0 4.44-.39 7.93-.78 10.06h-63.05zm152.2 37.52c-5.03 2.32-14.89 4.83-26.68 4.83-29.4 0-48.54-18.75-48.54-47.96 0-28.23 19.34-50.28 52.41-50.28 8.7 0 17.59 1.93 23.01 4.45l-4.26 17.79c-3.87-1.74-9.47-3.67-17.98-3.67-18.18 0-29.02 13.35-28.81 30.56 0 19.34 12.57 30.37 28.81 30.37 8.31 0 14.11-1.74 18.75-3.68zm35.59-91.28 17.02 50.48c1.93 5.8 3.87 12.95 5.22 18.37h.58c1.55-5.42 3.29-12.38 5.03-18.57l14.7-50.28h25.53l-23.6 64.21c-12.96 35.2-21.66 50.86-32.88 60.53-9.28 8.31-18.95 11.41-24.95 12.18l-5.41-20.11c4.06-.97 9.08-3.09 13.92-6.57 4.45-2.9 9.68-8.51 12.95-14.89.97-1.74 1.55-3.1 1.55-4.26 0-.96-.19-2.32-1.35-4.64l-34.42-86.44h26.11zm148.55 91.28c-5.03 2.32-14.89 4.83-26.68 4.83-29.39 0-48.54-18.75-48.54-47.96 0-28.23 19.34-50.28 52.41-50.28 8.7 0 17.59 1.93 23.02 4.45l-4.26 17.79c-3.87-1.74-9.47-3.67-17.98-3.67-18.18 0-29.02 13.35-28.81 30.56 0 19.34 12.57 30.37 28.81 30.37 8.31 0 14.11-1.74 18.75-3.68zm17.61-134.41h23.98v137.31h-23.98zm107.92 80.26c.19-8.7-3.67-23.02-19.53-23.02-14.7 0-20.89 13.34-21.86 23.02zm-41.39 16.63c.58 17.02 13.92 24.37 29.02 24.37 11.02 0 18.94-1.55 26.1-4.26l3.48 16.44c-8.12 3.29-19.34 5.8-32.88 5.8-30.55 0-48.53-18.75-48.53-47.58 0-26.1 15.85-50.66 46.02-50.66 30.56 0 40.62 25.14 40.62 45.84 0 4.44-.39 7.93-.77 10.06h-63.06zm146.02-14.5c0-1.93-.19-4.25-.58-6.19-2.13-9.28-9.67-16.83-20.5-16.83-15.27 0-23.78 13.54-23.78 31.14 0 17.21 8.51 29.78 23.59 29.78 9.67 0 18.18-6.57 20.5-16.82.58-2.12.77-4.45.77-6.96zm23.78-82.39v110.81c0 9.68.39 20.12.78 26.5h-21.27l-.97-14.89h-.39c-5.6 10.44-17.01 17.01-30.75 17.01-22.43 0-40.23-19.14-40.23-48.15-.19-31.52 19.53-50.28 42.15-50.28 12.96 0 22.24 5.41 26.5 12.38h.39v-53.38zm-928.52 270.16c7.74 4.45 19.34 8.32 31.53 8.32 15.28 0 23.79-7.16 23.79-17.79 0-9.86-6.57-15.67-23.21-21.66-21.47-7.73-35.19-19.14-35.19-37.91 0-21.28 17.79-37.52 46.03-37.52 14.11 0 24.55 3.1 31.32 6.58l-5.8 19.14c-4.64-2.53-13.73-6.19-25.92-6.19-15.08 0-21.66 8.12-21.66 15.66 0 10.06 7.54 14.7 24.95 21.47 22.63 8.5 33.65 19.91 33.65 38.68 0 20.88-15.86 39.06-49.51 39.06-13.73 0-28.04-3.87-35.19-8.12zm126.48-95.15v26.88h22.63v17.79h-22.63v41.58c0 11.41 3.1 17.4 12.19 17.4 4.06 0 7.16-.58 9.28-1.16l.39 18.18c-3.48 1.35-9.67 2.32-17.21 2.32-8.7 0-16.04-2.9-20.49-7.74-5.03-5.41-7.35-13.92-7.35-26.3v-44.28h-13.54v-17.79h13.54v-21.27zm90.52 75.03c-16.83-.38-32.88 3.29-32.88 17.6 0 9.28 6 13.53 13.54 13.53 9.47 0 16.44-6.18 18.56-12.95.58-1.74.77-3.68.77-5.22v-12.96zm3.09 46.03-1.54-10.44h-.58c-5.8 7.35-15.66 12.57-27.85 12.57-18.95 0-29.59-13.73-29.59-28.04 0-23.79 21.08-35.78 55.89-35.59v-1.54c0-6.19-2.52-16.44-19.15-16.44-9.28 0-18.95 2.9-25.33 6.96l-4.64-15.47c6.96-4.25 19.14-8.31 34.04-8.31 30.17 0 38.87 19.14 38.87 39.65v34.03c0 8.51.39 16.83 1.36 22.62zm45.27-66.14c0-10.82-.19-19.91-.77-28.04h20.88l1.16 14.12h.58c4.06-7.35 14.31-16.25 29.98-16.25 16.44 0 33.46 10.63 33.46 40.42v55.89h-23.79v-53.18c0-13.54-5.02-23.78-17.98-23.78-9.48 0-16.05 6.76-18.57 13.92-.77 2.12-.97 5.02-.97 7.73v55.31h-23.98zm173.67 11.22c0-1.94-.19-4.26-.58-6.19-2.12-9.28-9.67-16.82-20.5-16.82-15.28 0-23.78 13.53-23.78 31.13 0 17.22 8.51 29.79 23.59 29.79 9.67 0 18.18-6.58 20.5-16.83.58-2.12.77-4.44.77-6.96zm23.79-82.38v110.81c0 9.67.38 20.11.77 26.49h-21.27l-.97-14.89h-.38c-5.61 10.45-17.02 17.02-30.75 17.02-22.44 0-40.22-19.14-40.22-48.15-.19-31.52 19.53-50.28 42.16-50.28 12.96 0 22.24 5.41 26.5 12.37h.38v-53.37zm75.44 91.27c-16.83-.38-32.88 3.29-32.88 17.6 0 9.28 6 13.53 13.54 13.53 9.48 0 16.44-6.18 18.57-12.95.58-1.74.78-3.68.78-5.22v-12.96zm3.09 46.03-1.55-10.44h-.58c-5.8 7.35-15.66 12.57-27.85 12.57-18.95 0-29.58-13.73-29.58-28.04 0-23.79 21.07-35.78 55.89-35.59v-1.54c0-6.19-2.52-16.44-19.14-16.44-9.29 0-18.96 2.9-25.34 6.96l-4.64-15.47c6.96-4.25 19.15-8.31 34.04-8.31 30.17 0 38.87 19.14 38.87 39.65v34.03c0 8.51.39 16.83 1.36 22.62zm45.27-63.82c0-12.76-.19-21.85-.77-30.35h20.69l.77 17.98h.77c4.64-13.34 15.66-20.11 25.72-20.11 2.32 0 3.67.19 5.61.58v22.43c-1.94-.39-4.06-.77-6.96-.77-11.41 0-19.15 7.34-21.28 17.98-.39 2.13-.77 4.64-.77 7.35v48.72h-23.79v-63.81zm130.16 8.9c0-1.94-.19-4.26-.58-6.19-2.13-9.28-9.67-16.82-20.5-16.82-15.28 0-23.79 13.53-23.79 31.13 0 17.22 8.51 29.79 23.59 29.79 9.67 0 18.18-6.58 20.5-16.83.58-2.12.77-4.44.77-6.96v-14.12zm23.79-82.38v110.81c0 9.67.39 20.11.78 26.49h-21.28l-.97-14.89h-.39c-5.61 10.45-17.02 17.02-30.75 17.02-22.43 0-40.22-19.14-40.22-48.15-.19-31.52 19.53-50.28 42.16-50.28 12.96 0 22.24 5.41 26.5 12.37h.39v-53.37z" style="fill:#000308"/><path d="M1102.64 1590.98c-1.74 7.37-7.37 12.52-14.82 12.52-10.78 0-17.68-8.08-17.68-18.55 0-10.7 6.5-18.47 17.44-18.47 7.69 0 13.95 4.36 15.06 12.13h-4.28c-1.03-4.6-4.91-8.17-10.78-8.17-8.64 0-13.16 6.35-13.16 14.5 0 7.54 4.92 14.59 13.4 14.59 5.71 0 9.59-3.73 10.54-8.56h4.28zm-15.77 19.27c13.95 0 25.29-11.34 25.29-25.3 0-13.95-11.34-25.28-25.29-25.28-13.96 0-25.29 11.33-25.29 25.28-.01 13.96 11.33 25.3 25.29 25.3m0-54.55c16.17 0 29.25 13.08 29.25 29.25 0 16.18-13.09 29.25-29.25 29.25-16.18 0-29.25-13.08-29.25-29.25-.01-16.17 13.07-29.25 29.25-29.25m47.23 8.56h-13.48v-7.61h35.76v7.61h-13.24v49h-9.04zm43.76 22.92v-2.3c0-5.4-1.75-9.52-6.58-9.52-5.47 0-7.14 5.39-7.14 10.94v.88zm-13.72 5.86v2.46c0 5.71.72 13 7.14 13 6.11 0 6.82-6.97 6.82-9.51h8.08c0 9.44-5.71 15.38-14.98 15.38-6.98 0-15.61-2.06-15.61-21.8 0-11.18 2.38-23.07 15.77-23.07 11.89 0 15.07 7.13 15.07 19.02v4.52zm38.12-1.9-11.01-20.54h9.36l6.66 14.12 6.97-14.12h9.19l-11.09 20.54 11.58 22.12h-9.29l-7.45-15.78-7.44 15.78h-9.13zm23.7-20.54h5.87v-12.13h8.56v12.13h6.98v6.35h-6.98v25.45c0 3.33.95 4.52 3.88 4.52 1.27 0 2.3-.08 3.09-.24v6.34c-1.82.48-4.2.72-6.9.72-5.79 0-8.64-1.59-8.64-10.31v-26.47h-5.87v-6.36zm27.83 0h8.56v42.66h-8.56zm0-14.58h8.56v8.56h-8.56zm19.18.63h8.57v56.61h-8.57zm39.88 30.53v-2.3c0-5.4-1.75-9.52-6.58-9.52-5.47 0-7.13 5.39-7.13 10.94v.88zm-13.72 5.86v2.46c0 5.71.71 13 7.13 13 6.1 0 6.82-6.97 6.82-9.51h8.09c0 9.44-5.71 15.38-14.98 15.38-6.98 0-15.62-2.06-15.62-21.8 0-11.18 2.38-23.07 15.77-23.07 11.89 0 15.07 7.13 15.07 19.02v4.52zm31.31-36.39h28.07v4.28h-22.99v20.61H1357v4.29h-21.48v23.14h23.7v4.29h-28.78zm47.01 38.53-8.8 18.08h-5.39l11.34-21.73-10.87-20.37h5.4l8.32 16.65 8.32-16.65h5.39l-10.85 20.37 11.33 21.73h-5.39zm46.13 4.12c-.72 8.96-5.63 14.9-13.4 14.9-8.88 0-14.12-6.18-14.12-22.03 0-14.59 5.24-21.96 14.51-21.96 7.93 0 12.52 4.84 13 13.48h-4.76c-.55-6.58-3.17-9.51-8.24-9.51-5.16 0-9.44 3.17-9.44 18.08 0 15.85 4.52 18 8.96 18 4.84 0 7.93-3.57 8.72-10.94h4.77zm8.48-42.65h4.76v20.38h.16c1.19-4.28 5.31-6.82 10.31-6.82 6.42 0 10.78 3.33 10.78 11.26v31.79h-4.75v-30.44c0-5.79-2.38-8.64-7.21-8.64-5.55 0-9.28 4.28-9.28 10.78v28.31h-4.76v-56.62zm56.04 32.82h-.15c-.48 1.43-3.17 2.3-5.07 2.78l-3.96 1.03c-4.76 1.27-7.22 3.73-7.22 8.72 0 4.92 2.54 8.25 6.66 8.25 5.79 0 9.75-4.36 9.75-11.9v-8.88zm-20.13-5.78c0-8.64 4.12-13.48 13-13.48 8.72 0 11.89 4.52 11.89 11.18v24.89c0 2.38.79 3.49 2.46 3.49h1.35v3.49c-.87.32-1.59.48-2.22.48-3.72 0-6.1-.88-6.1-5.24v-1.43h-.16c-1.9 5.55-6.19 7.13-10.86 7.13-7.38 0-10.71-4.59-10.71-11.89 0-5.56 2.54-9.99 8.48-11.66l8.96-2.53c3.33-.95 4.04-1.75 4.04-6.66 0-5.39-3.01-7.29-7.29-7.29-5.62 0-8.08 3.41-8.08 9.51h-4.76zm36.22-12.53h4.28v5.87h.16c2.38-4.68 6.5-6.82 10.78-6.82 6.42 0 10.78 3.33 10.78 11.26v31.79h-4.76v-30.44c0-5.79-2.38-8.64-7.22-8.64-5.55 0-9.27 4.28-9.27 10.78v28.31h-4.76v-42.11zm49.07 38.14c5.63 0 8.96-4.13 8.96-17.6 0-13.4-3.33-17.52-8.96-17.52s-8.96 4.12-8.96 17.52c0 13.47 3.33 17.6 8.96 17.6m9.43-38.14h4.28v39.09c0 11.65-4.28 17.59-13.79 17.59-8.17 0-12.45-4.28-12.53-10.3h4.76c0 3.96 3.73 6.34 7.93 6.34 5.79 0 8.89-4.04 8.89-11.5v-6.66h-.17c-1.5 5.15-5.47 7.53-9.83 7.53-6.5 0-13-4.28-13-21.09 0-14.51 4.2-21.96 13.48-21.96 4.6 0 8.33 2.7 9.83 7.45h.16v-6.49zm36.31 17.28c-.16-10.46-3.09-14.27-8.96-14.27-5.87 0-8.8 3.8-8.96 14.27zm4.68 10.86c-.72 8.96-5.63 14.9-13.56 14.9-8.88 0-14.11-6.18-14.11-22.03 0-14.59 5.23-21.96 14.5-21.96 9.35 0 13.56 6.42 13.56 20.45v1.75h-22.99v1.98c0 12.13 4.28 15.86 8.96 15.86 4.99 0 8.08-3.57 8.88-10.94h4.76z" class="st4"/></svg>