<svg xmlns="http://www.w3.org/2000/svg" width="80" height="81" fill="none"><path fill="#71C3D7" d="M37.84 35.205c-.19-.34-.46-.84-.86-1.44-.4-.6-.92-1.32-1.6-2.08-.67-.76-1.51-1.56-2.53-2.3a14.85 14.85 0 0 0-3.58-1.93c-1.36-.51-2.87-.86-4.46-.97-.79-.05-1.6-.06-2.41-.01-.2.02-.41.03-.61.04l-.61.06c-.22.03-.41.06-.61.09s-.41.08-.62.12c-1.64.34-3.26.93-4.74 1.76-1.48.83-2.84 1.89-4 3.09-1.17 1.2-2.12 2.56-2.86 3.95-.75 1.4-1.26 2.85-1.58 4.28-.15.68-.27 1.4-.34 2.07-.04.34-.05.67-.07 1 0 .33-.02.65-.01.96.01 1.26.16 2.4.37 3.4.2 1 .47 1.84.72 2.52.25.68.49 1.2.66 1.54.17.35.27.53.27.53s-.07-.19-.21-.55c-.14-.36-.32-.9-.52-1.59-.19-.69-.38-1.54-.52-2.53-.12-.91-.19-1.94-.16-3.05.01 0 .02.01.03.02.28.15.54.19.78.22.49.04.91-.01 1.31-.07.39-.06.74-.14 1.05-.22.51-.14.92-.27 1.24-.37a.3.3 0 0 0 .04.08c.14.33.26.61.38.83.23.45.37.7.37.7s-.07-.28-.21-.76c-.08-.24-.14-.54-.23-.87a.292.292 0 0 1-.02-.09l.37-.14-.07-.08s-.13.03-.38.08c-.07-.28-.12-.58-.19-.9-.05-.21-.07-.43-.11-.65l-.06-.34c-.02-.12-.03-.23-.04-.35-.06-.48-.08-.99-.1-1.51v-.44c.76-.55 1.57-1.11 2.4-1.66a58.2 58.2 0 0 1 1.93-1.21l.12.21c.1.14.2.25.28.35.16.19.26.3.26.3s-.03-.14-.11-.37c-.04-.12-.08-.26-.14-.42-.02-.08-.04-.17-.06-.26.43-.26.86-.51 1.3-.77 1.24-.71 2.5-1.44 3.8-2.1.51-.27 1.03-.52 1.55-.76.08.08.15.16.23.23.1.14.2.25.28.35.16.19.25.3.25.3s-.03-.14-.11-.37c-.04-.12-.08-.26-.14-.42-.04-.08-.08-.16-.13-.25a30.034 30.034 0 0 1 3.73-1.39c.04.02.07.05.11.07.22.15.43.32.64.47.41.33.8.65 1.14.99.09.08.18.16.26.25.08.08.16.17.24.25.16.16.32.31.46.48.12.14.25.28.36.41-.3.28-.6.55-.89.79-.67.58-1.28 1.05-1.78 1.44-.51.38-.91.67-1.19.87-.28.19-.43.3-.43.3l.04.07s.16-.08.47-.24c.3-.16.75-.4 1.29-.74.55-.34 1.2-.77 1.92-1.3.3-.23.62-.48.95-.74 0 .01.01.01.02.02.21.27.42.5.56.71.3.4.48.63.48.63s-.12-.26-.34-.72c-.11-.23-.26-.5-.44-.8a.138.138 0 0 0-.03-.04c.36-.3.73-.64 1.11-1 .4-.39.8-.81 1.17-1.31.18-.25.36-.52.5-.85.06-.16.13-.35.11-.6.68.5 1.27 1.02 1.79 1.52.71.7 1.28 1.36 1.72 1.92.22.28.41.54.58.77.16.23.29.42.41.58.21.32.32.5.32.5s-.09-.22-.27-.56m-13.08-7.8c1.5.07 2.94.34 4.25.78.66.21 1.27.48 1.86.76.31.15.6.31.89.47-.33-.02-.66 0-.98.04-.68.08-1.35.25-2.01.44-.55.17-1.11.36-1.66.56-.22-.16-.44-.33-.67-.47-.25-.15-.49-.32-.76-.45l-.39-.21-.4-.19c-.48-.22-.98-.4-1.48-.55.12-.26.17-.49.16-.66 0-.11-.02-.21-.04-.26-.02-.05-.03-.08-.03-.08s-.02-.03-.04-.08c-.02-.03-.04-.07-.08-.11.46-.01.92-.01 1.38.01m-3.61 3c-.21-.18-.46-.32-.7-.48-.25-.15-.51-.28-.76-.4-.13-.06-.26-.11-.39-.16s-.25-.1-.38-.14c-.25-.09-.5-.16-.74-.21-.24-.06-.47-.1-.68-.13-.19-.03-.36-.04-.52-.05.14-.06.28-.13.42-.18h.03c.35-.02.74-.02 1.16-.02.42.01.88.03 1.36.08.48.04.98.12 1.49.22.43.08.86.2 1.3.32-.18.17-.38.34-.6.51-.29.2-.63.42-.99.64m-9.55 2.5a.92.92 0 0 1 .07-.26l.03-.06c.08-.09.16-.17.24-.25.35-.36.72-.7 1.11-1.03-.12.14-.23.29-.35.45-.15.2-.29.42-.44.64-.14.22-.28.46-.41.7l-.12.21a.21.21 0 0 1-.04-.06c-.01-.02-.03-.03-.03-.05l-.01-.03-.01-.01c-.05-.13-.04-.15-.04-.25m11.78-5.36c.03.04.04.07.04.07s.01.03.03.08c.02.05.03.12.04.23 0 .1-.02.23-.07.37-.03.08-.07.16-.12.25-.02-.01-.04-.01-.06-.02-.28-.07-.56-.16-.84-.2-.14-.03-.28-.05-.42-.08l-.41-.06c-.27-.04-.54-.07-.81-.09-.26-.01-.52-.03-.78-.03-.38-.01-.74.01-1.08.04.41-.12.83-.23 1.25-.32 1.03-.21 2.08-.34 3.11-.38.06.05.1.1.12.14m-10.88 5.89c.23-.47.47-.92.72-1.33.25-.41.51-.79.75-1.13.24-.32.46-.62.68-.87.32-.21.64-.41.97-.59-.08.14-.16.3-.24.48-.09.19-.18.41-.26.64-.09.23-.16.48-.23.74-.04.13-.07.26-.09.4-.03.14-.05.27-.08.41-.03.28-.07.57-.08.86v.49c-.23.05-.46.1-.7.13-.44.06-.9.08-1.33.03-.07-.01-.14-.02-.21-.04.03-.08.07-.15.1-.22m2.99-.37c0-.26.04-.53.05-.79.04-.26.05-.52.09-.77.04-.25.07-.49.11-.72.03-.23.08-.45.11-.65.04-.2.07-.39.1-.55.02-.1.04-.2.06-.28.18-.1.37-.19.55-.28.09.04.18.07.29.12.16.06.33.14.52.22.19.08.39.16.6.26.21.09.43.2.66.3.23.1.45.23.69.34.23.13.46.25.69.39.12.07.23.15.35.22-.53.3-1.09.62-1.7.94-.68.36-1.42.76-2.2 1.1-.32.14-.65.26-.98.38.01-.08.01-.16.01-.23m-6.33 2.96c.55-.99 1.22-1.94 1.99-2.83.02.05.04.1.05.13.09.17.2.29.33.37-.02.05-.05.1-.07.14-.13.25-.23.52-.34.79-.2.55-.38 1.11-.5 1.69l-.09.43-.06.44c-.05.29-.07.58-.09.87-.02.23-.02.46-.02.69-.19.14-.38.28-.56.42-.99.79-1.9 1.6-2.61 2.51.09-.54.2-1.08.35-1.66.34-1.31.88-2.68 1.62-3.99m1.44 5.32c.04.25.1.49.17.71.07.23.11.45.19.65.1.31.2.6.3.85-.32.06-.73.14-1.23.21-.31.05-.66.09-1.03.12-.37.02-.78.03-1.18-.04-.19-.04-.39-.09-.52-.19a.572.572 0 0 1-.08-.07c-.01-.01-.02-.02-.02-.03l-.01-.01-.02-.04a.325.325 0 0 1-.03-.18c.01-.15.09-.36.21-.55.12-.2.27-.4.44-.59.34-.39.74-.78 1.17-1.16.43-.38.9-.76 1.39-1.13.02-.01.03-.02.05-.04.03.52.1 1.02.2 1.49m2.47-4.42c-.65.4-1.28.81-1.89 1.23v-.02c.03-.27.05-.55.1-.82l.07-.41.09-.41c.11-.54.27-1.07.44-1.59.12-.32.24-.64.38-.96.11.02.21.03.32.03.24.02.48.01.71-.01.23-.02.46-.04.69-.08.23-.04.45-.07.67-.12 0 .04 0 .07.01.1.02.28.05.56.12.83l.09.39c.04.13.08.25.12.36.03.09.06.17.1.25-.69.43-1.36.82-2.02 1.23m7.67-3.92c-1.34.58-2.69 1.17-3.97 1.83-.38.19-.76.4-1.13.6-.01-.04-.01-.08-.02-.12-.02-.11-.05-.23-.06-.34l-.03-.36c-.01-.12-.03-.25-.03-.37 0-.13 0-.26-.01-.39-.01-.08-.01-.16-.01-.23.39-.09.77-.18 1.14-.29.85-.23 1.65-.51 2.38-.86.73-.34 1.39-.74 1.96-1.16.01-.01.02-.01.03-.02l.01.01c.11.07.2.16.3.23l.29.23c.09.07.17.16.26.24.14.14.29.26.41.39-.52.19-1.02.4-1.52.61m4.04-1.66c-.69.27-1.38.55-2.07.84-.01-.01-.01-.02-.02-.03-.1-.2-.24-.39-.39-.59-.07-.1-.15-.21-.24-.3-.09-.1-.18-.19-.28-.29-.06-.07-.12-.13-.19-.19.29-.26.56-.52.79-.77.19-.21.37-.42.52-.62.03-.03.05-.07.07-.1.01 0 .02 0 .02.01.52.17 1.04.36 1.54.6l.38.17.37.19c.25.12.48.27.71.41.07.04.13.08.19.12-.46.18-.93.37-1.4.55m7.73-.59c-.09.23-.24.47-.4.7-.33.45-.69.88-1.06 1.27-.32.34-.64.65-.95.94-.09-.14-.19-.28-.29-.43-.12-.18-.27-.36-.41-.55-.14-.19-.3-.38-.47-.56-.33-.38-.71-.76-1.12-1.12-.09-.08-.18-.15-.27-.23.47-.12.93-.23 1.39-.32.66-.13 1.32-.23 1.95-.28.31-.02.62-.03.91-.01.28.02.56.09.7.19.04.02.06.06.07.06l.03.04v.02c-.02.06-.04.17-.08.28"/><path fill="#058295" d="M35.9 53.975c-.16.02-.38.04-.67.08-.14.02-.3.04-.48.05-.17.02-.36.03-.56.05-.2.02-.41.04-.63.05-.22.01-.45.03-.69.04-.23.02-.5.02-.77.03-.13 0-.27.01-.41.01h-.14.01-.27c-.28-.01-.56 0-.84-.01-.29-.02-.58-.03-.88-.04-.3-.02-.6-.06-.9-.08-.3-.03-.61-.08-.92-.11-.31-.04-.62-.1-.92-.14-.16-.02-.31-.05-.46-.09l-.46-.09c-.31-.05-.61-.14-.92-.21-.31-.06-.6-.16-.9-.24-.3-.08-.59-.18-.88-.27-.14-.05-.29-.09-.43-.14-.14-.05-.28-.11-.42-.16-.14-.05-.28-.1-.41-.15-.14-.05-.27-.11-.4-.16-.26-.11-.52-.21-.76-.33-.25-.11-.49-.22-.72-.33-.23-.12-.45-.23-.66-.33-.22-.1-.41-.22-.6-.32-.19-.11-.38-.2-.54-.3-.09-.06-.19-.11-.27-.16l2.2-.88-7.47-3.06 3.02 7.48.98-2.41c.17.14.37.29.57.46.17.13.35.26.54.4.19.13.39.28.61.42.22.14.45.28.69.43.25.14.5.27.76.42.26.15.54.26.82.4.28.14.57.26.88.38.15.06.3.12.46.18.15.06.31.11.47.16.32.11.64.22.97.3.66.19 1.33.34 2.02.44.68.12 1.37.17 2.05.21.34 0 .68.02 1.01.02.33-.01.66-.03.98-.04.32-.03.64-.06.95-.1.31-.04.61-.09.9-.14.07-.01.14-.03.22-.04l.05-.01h.04l.03-.01.1-.02c.13-.03.27-.07.4-.1.26-.07.51-.12.76-.2.49-.16.95-.29 1.32-.46.38-.16.71-.29.98-.43.26-.14.47-.25.61-.32l.21-.12s-.07-.03-.23-.01"/><path fill="#058295" d="m43.63 36.385-.58-8.05-1.96 2.33c-.08-.13-.18-.26-.28-.41-.1-.15-.21-.31-.33-.48-.12-.16-.26-.34-.4-.52-.07-.09-.14-.19-.21-.28-.08-.09-.16-.19-.24-.29-.17-.19-.33-.4-.52-.61l-.6-.63c-.21-.22-.44-.43-.67-.65-.95-.88-2.09-1.8-3.46-2.63-1.36-.84-2.95-1.6-4.72-2.14-1.78-.55-3.68-.89-5.74-.94a21.9 21.9 0 0 0-6.18.73c-2.06.55-4.07 1.41-5.9 2.56-1.84 1.14-3.5 2.56-4.9 4.17l-.26.3-.07.07-.03.04-.02.02-.04.05-.11.15c-.15.2-.31.4-.46.6l-.23.3c-.08.1-.15.22-.22.33-.15.22-.3.45-.44.67-.07.11-.15.22-.22.33l-.19.34c-.13.23-.25.45-.38.67-.13.22-.24.45-.35.68l-.33.69c-.82 1.84-1.35 3.73-1.62 5.54-.28 1.82-.29 3.56-.14 5.14.14 1.58.46 3.01.85 4.23.1.3.17.6.29.88.11.28.21.55.32.8.03.06.05.13.08.19l.04.1.04.09c.05.12.11.23.16.35.11.23.2.44.31.65.21.41.4.77.59 1.07.18.3.33.56.47.76l.42.62-.32-.67c-.21-.44-.48-1.09-.79-1.93a23.771 23.771 0 0 1-.95-3.56c-.03-.16-.06-.31-.08-.48-.04-.32-.09-.66-.13-1-.04-.34-.05-.7-.08-1.06-.03-.18-.05-.36-.05-.55v-.56c0-.19 0-.38-.01-.57-.01-.19.02-.39.03-.58l.03-.59c.01-.1.01-.2.02-.3.01-.1.02-.2.04-.3.02-.2.05-.4.07-.61.02-.2.04-.41.08-.61.08-.41.14-.83.23-1.25.36-1.67.94-3.39 1.77-5.05.11-.2.22-.41.32-.62.11-.21.21-.42.34-.61.12-.2.25-.4.37-.6l.18-.3.2-.28c.13-.19.26-.38.4-.57.07-.1.12-.19.21-.29l.24-.29c.16-.2.32-.39.47-.59l.12-.15c-.01.01-.02.03-.01.01l.02-.02.03-.03.06-.07.25-.26a20.42 20.42 0 0 1 4.5-3.71c1.67-1.02 3.49-1.82 5.35-2.33 1.86-.52 3.76-.76 5.61-.77h.69c.23 0 .45.03.67.04.22.02.44.03.66.05.11 0 .22.02.34.04l.35.05c.23.03.46.06.69.1l.17.02.13.03.32.06c.21.05.43.08.64.13.21.05.41.11.62.16 1.65.42 3.14 1.05 4.46 1.75 1.32.7 2.46 1.48 3.41 2.24.96.76 1.73 1.51 2.33 2.15.15.16.29.32.43.46.13.15.24.29.35.42.07.08.14.16.2.24l-2.89.2z"/><path fill="#030304" d="M20.69 43.795c-.4.15-1.17.35-2 .35-1.05 0-1.85-.27-2.44-.83-.55-.53-.88-1.35-.87-2.29 0-1.97 1.4-3.23 3.46-3.23.77 0 1.37.16 1.65.3l-.25.91c-.34-.15-.76-.27-1.41-.27-1.33 0-2.26.78-2.26 2.23 0 1.41.87 2.25 2.16 2.25.41 0 .71-.06.86-.13v-1.55h-1.1v-.9h2.2zm1.14-6.27h1.15v6.56h-1.15zm6.65 4.27c0 1.65-1.16 2.39-2.31 2.39-1.27 0-2.25-.88-2.25-2.32 0-1.48.97-2.38 2.33-2.38 1.33 0 2.23.94 2.23 2.31m-3.39.05c0 .87.42 1.52 1.12 1.52.65 0 1.1-.64 1.1-1.54 0-.7-.31-1.5-1.09-1.5-.81-.01-1.13.77-1.13 1.52m4.29 2.24c.02-.3.04-.8.04-1.27v-5.29h1.14v2.68h.02c.28-.43.77-.72 1.44-.72 1.1 0 1.88.91 1.87 2.28 0 1.62-1.02 2.42-2.04 2.42-.58 0-1.1-.22-1.42-.78h-.03l-.05.67zm1.17-1.86c0 .09.01.18.03.27.12.45.51.8 1 .8.71 0 1.15-.57 1.15-1.48 0-.79-.38-1.44-1.14-1.44-.46 0-.88.33-1.01.83-.02.08-.04.18-.04.3zm6.8 1.86-.07-.5h-.03c-.28.35-.75.6-1.33.6-.9 0-1.41-.65-1.41-1.34 0-1.14 1.01-1.71 2.67-1.7v-.07c0-.3-.12-.78-.91-.78-.44 0-.9.14-1.21.33l-.22-.74c.33-.2.91-.4 1.62-.4 1.44 0 1.86.91 1.86 1.89v1.62c0 .41.02.8.06 1.08h-1.03zm-.15-2.2c-.8-.02-1.57.16-1.57.84 0 .44.29.65.65.65.45 0 .78-.3.89-.62.03-.08.04-.18.04-.25zm2.31-4.36h1.15v6.56h-1.15zm4.33.42c.42-.07 1.06-.13 1.72-.13.9 0 1.5.15 1.92.5.34.29.54.72.54 1.25 0 .8-.55 1.35-1.13 1.56v.03c.44.17.71.6.87 1.2.19.78.36 1.5.49 1.74h-1.17c-.09-.18-.24-.69-.42-1.47-.18-.81-.47-1.07-1.12-1.09h-.57v2.56h-1.13zm1.13 2.75h.67c.77 0 1.25-.41 1.25-1.02 0-.68-.48-1-1.22-1-.36 0-.59.03-.7.05zm4.91 1.46c.03.81.67 1.16 1.38 1.16.53 0 .9-.07 1.25-.2l.17.79c-.39.16-.92.28-1.57.28-1.46 0-2.32-.9-2.32-2.27 0-1.25.76-2.42 2.2-2.42 1.46 0 1.94 1.2 1.94 2.19 0 .21-.02.38-.04.48zm1.98-.79c.01-.42-.18-1.1-.93-1.1-.7 0-1 .64-1.04 1.1zm5.29 2.58c-.24.11-.71.23-1.27.23-1.4 0-2.32-.9-2.32-2.29 0-1.35.92-2.4 2.5-2.4.42 0 .84.09 1.1.21l-.2.85c-.18-.08-.45-.18-.86-.18-.87 0-1.39.64-1.38 1.46 0 .92.6 1.45 1.38 1.45.4 0 .67-.08.9-.18zm1.7-4.36.81 2.41c.09.28.18.62.25.88h.03l.24-.89.7-2.4h1.22l-1.13 3.07c-.62 1.68-1.03 2.43-1.57 2.89-.44.4-.9.55-1.19.58l-.26-.96c.19-.05.43-.15.67-.31.21-.14.46-.41.62-.71.05-.08.07-.15.07-.2 0-.05-.01-.11-.06-.22l-1.64-4.13zm7.09 4.36c-.24.11-.71.23-1.27.23-1.4 0-2.32-.9-2.32-2.29 0-1.35.92-2.4 2.5-2.4.42 0 .84.09 1.1.21l-.2.85c-.18-.08-.45-.18-.86-.18-.87 0-1.39.64-1.38 1.46 0 .92.6 1.45 1.38 1.45.4 0 .67-.08.9-.18zm.84-6.42h1.15v6.56h-1.15zm3.18 4.63c.03.81.67 1.16 1.39 1.16.53 0 .9-.07 1.25-.2l.17.79c-.39.16-.92.28-1.57.28-1.46 0-2.32-.9-2.32-2.27 0-1.25.76-2.42 2.2-2.42 1.46 0 1.94 1.2 1.94 2.19 0 .21-.02.38-.04.48zm1.97-.79c.01-.42-.18-1.1-.93-1.1-.7 0-1 .64-1.04 1.1zm6.14-3.84v5.29c0 .46.02.96.04 1.27h-1.02l-.05-.71h-.02c-.27.5-.81.81-1.47.81-1.07 0-1.92-.91-1.92-2.3-.01-1.5.93-2.4 2.01-2.4.62 0 1.06.26 1.27.59h.02v-2.55zm-1.14 3.94c0-.09-.01-.2-.03-.3-.1-.44-.46-.8-.98-.8-.73 0-1.14.65-1.14 1.49 0 .82.41 1.42 1.13 1.42a1 1 0 0 0 .98-.8c.03-.1.04-.21.04-.33zm-43.2 8.96c.37.21.92.4 1.5.4.73 0 1.14-.34 1.14-.85 0-.47-.31-.75-1.11-1.03-1.02-.37-1.68-.91-1.68-1.81 0-1.02.85-1.79 2.2-1.79.67 0 1.17.15 1.5.31l-.28.91c-.22-.12-.66-.3-1.24-.3-.72 0-1.03.39-1.03.75 0 .48.36.7 1.19 1.02 1.08.41 1.61.95 1.61 1.85 0 1-.76 1.87-2.36 1.87-.66 0-1.34-.18-1.68-.39zm6.04-4.54v1.28h1.08v.85h-1.08v1.99c0 .55.15.83.58.83.19 0 .34-.03.44-.05l.02.87c-.17.06-.46.11-.82.11-.42 0-.77-.14-.98-.37-.24-.26-.35-.67-.35-1.26v-2.11h-.65v-.85h.65v-1.02zm4.47 5.78-.07-.5h-.03c-.28.35-.75.6-1.33.6-.9 0-1.41-.66-1.41-1.34 0-1.14 1.01-1.71 2.67-1.7v-.07c0-.3-.12-.79-.91-.79-.44 0-.9.14-1.21.33l-.22-.74c.33-.2.91-.4 1.62-.4 1.44 0 1.86.91 1.86 1.89v1.62c0 .41.02.8.06 1.08zm-.15-2.2c-.8-.02-1.57.16-1.57.84 0 .44.29.65.65.65.45 0 .78-.3.89-.62.03-.08.04-.18.04-.25v-.62zm2.31-.96c0-.52-.01-.95-.04-1.34h1l.05.67h.03c.19-.35.68-.78 1.43-.78.79 0 1.6.51 1.6 1.93v2.67h-1.14v-2.54c0-.65-.24-1.14-.86-1.14-.45 0-.77.32-.89.67-.04.1-.05.24-.05.37v2.64H46.4zm9.43-3.39v5.29c0 .46.02.96.04 1.27h-1.02l-.05-.71h-.02c-.27.5-.81.81-1.47.81-1.07 0-1.92-.91-1.92-2.3-.01-1.5.93-2.4 2.01-2.4.62 0 1.06.26 1.27.59h.02v-2.55zm-1.14 3.93c0-.09-.01-.2-.03-.3-.1-.44-.46-.8-.98-.8-.73 0-1.14.65-1.14 1.49 0 .82.41 1.42 1.13 1.42a1 1 0 0 0 .98-.8c.03-.1.04-.21.04-.33zm4.89 2.62-.07-.5h-.03c-.28.35-.75.6-1.33.6-.9 0-1.41-.66-1.41-1.34 0-1.14 1.01-1.71 2.67-1.7v-.07c0-.3-.12-.79-.91-.79-.44 0-.9.14-1.21.33l-.22-.74c.33-.2.91-.4 1.62-.4 1.44 0 1.86.91 1.86 1.89v1.62c0 .41.02.8.06 1.08zm-.15-2.2c-.8-.02-1.57.16-1.57.84 0 .44.29.65.65.65.45 0 .79-.3.89-.62.03-.08.04-.18.04-.25zm2.31-.85c0-.61-.01-1.04-.04-1.45h.99l.04.86h.04c.22-.64.75-.96 1.23-.96.11 0 .18.01.27.03v1.07c-.09-.02-.19-.04-.33-.04-.55 0-.91.35-1.02.86-.02.1-.04.22-.04.35v2.33h-1.14zm7.35-3.5v5.29c0 .46.02.96.04 1.27h-1.02l-.05-.71h-.02c-.27.5-.81.81-1.47.81-1.07 0-1.92-.91-1.92-2.3-.01-1.5.93-2.4 2.01-2.4.62 0 1.06.26 1.27.59h.02v-2.55zm-1.13 3.93c0-.09-.01-.2-.03-.3-.1-.44-.46-.8-.98-.8-.73 0-1.14.65-1.14 1.49 0 .82.41 1.42 1.13 1.42a1 1 0 0 0 .98-.8c.03-.1.04-.21.04-.33z"/><path fill="#058295" d="M44.26 54.695c.77 0 1.4.62 1.4 1.4 0 .78-.62 1.4-1.4 1.4-.78 0-1.4-.62-1.4-1.4 0-.78.63-1.4 1.4-1.4m0 2.6c.67 0 1.21-.54 1.21-1.21 0-.67-.54-1.21-1.21-1.21-.67 0-1.21.54-1.21 1.21 0 .67.54 1.21 1.21 1.21m.75-.92c-.08.35-.35.6-.71.6-.51 0-.84-.39-.84-.89 0-.51.31-.88.83-.88.37 0 .67.21.72.58h-.2a.495.495 0 0 0-.51-.39c-.41 0-.63.3-.63.69 0 .36.23.7.64.7.27 0 .46-.18.5-.41zm1.51-1.269h-.64v-.36h1.71v.36h-.63v2.34h-.43zm1.43 1.37v.12c0 .27.03.62.34.62.29 0 .33-.33.33-.45H49c0 .45-.27.73-.72.73-.33 0-.75-.1-.75-1.04 0-.53.11-1.1.75-1.1.57 0 .72.34.72.91v.22zm.66-.28v-.11c0-.26-.08-.45-.31-.45-.26 0-.34.26-.34.52v.04zm1.16.189-.53-.98h.45l.32.67.33-.67h.44l-.53.98.55 1.06h-.44l-.36-.76-.36.75h-.44zm1.13-.98h.28v-.58h.41v.58h.33v.3h-.33v1.22c0 .16.05.22.19.22.06 0 .11 0 .15-.01v.3c-.09.02-.2.03-.33.03-.28 0-.41-.08-.41-.49v-1.26h-.29zm1.33-.7h.41v.41h-.41zm0 .7h.41v2.04h-.41zm.92-.669h.41v2.7h-.41zm1.25 1.74v.12c0 .27.03.62.34.62.29 0 .33-.33.33-.45h.39c0 .45-.27.73-.72.73-.33 0-.75-.1-.75-1.04 0-.53.11-1.1.75-1.1.57 0 .72.34.72.91v.22zm.65-.28v-.11c0-.26-.08-.45-.31-.45-.26 0-.34.26-.34.52v.04zm.84-1.46h1.34v.2h-1.1v.98h1.03v.2h-1.03v1.11h1.13v.2h-1.37zm2.25 1.839-.42.86h-.26l.54-1.03-.52-.97h.26l.4.79.4-.79h.26l-.52.97.54 1.04h-.26zm2.2.201c-.03.43-.27.71-.64.71-.42 0-.67-.3-.67-1.05 0-.7.25-1.05.69-1.05.38 0 .6.23.62.64h-.23c-.03-.31-.15-.45-.39-.45-.25 0-.45.15-.45.86 0 .76.22.86.43.86.23 0 .38-.17.42-.52zm.4-2.04h.23v.97h.01c.06-.2.25-.33.49-.33.31 0 .51.16.51.54v1.52h-.23v-1.45c0-.28-.11-.41-.34-.41-.26 0-.44.2-.44.51v1.35h-.23zm1.72 1.29c0-.41.2-.64.62-.64s.57.22.57.53v1.19c0 .11.04.17.12.17h.06v.17c-.04.02-.08.02-.11.02-.18 0-.29-.04-.29-.25v-.07h-.01c-.09.26-.3.34-.52.34-.35 0-.51-.22-.51-.57 0-.26.12-.48.41-.56l.43-.12c.16-.05.19-.08.19-.32 0-.26-.14-.35-.35-.35-.27 0-.39.16-.39.45zm.96.28c-.03.07-.16.11-.25.13l-.19.05c-.23.06-.34.18-.34.42 0 .23.12.39.32.39.28 0 .47-.21.47-.57zm.77-.87h.2v.28h.01c.11-.22.31-.33.51-.33.31 0 .51.16.51.54v1.52h-.22v-1.45c0-.28-.11-.41-.34-.41-.26 0-.44.2-.44.51v1.35h-.23zm2.79 0h.2v1.86c0 .56-.2.84-.66.84-.39 0-.59-.2-.6-.49h.23c0 .19.18.3.38.3.28 0 .42-.19.42-.55v-.32h-.01c-.07.25-.26.36-.47.36-.31 0-.62-.2-.62-1.01 0-.69.2-1.05.64-1.05.22 0 .4.13.47.36h.01v-.3zm-.45 1.82c.27 0 .43-.2.43-.84 0-.64-.16-.84-.43-.84s-.43.2-.43.84c0 .64.16.84.43.84m2.41-.48c-.03.43-.27.71-.65.71-.42 0-.67-.3-.67-1.05 0-.7.25-1.05.69-1.05.45 0 .65.31.65.98v.08h-1.1v.09c0 .58.2.76.43.76.24 0 .39-.17.42-.52zm-.23-.52c-.01-.5-.15-.68-.43-.68s-.42.18-.43.68z"/></svg>