<svg xmlns="http://www.w3.org/2000/svg" width="80" height="81" fill="none"><g clip-path="url(#a)"><mask id="b" width="68" height="68" x="6" y="4" maskUnits="userSpaceOnUse" style="mask-type:luminance"><path fill="#fff" d="M6.92 37.935c0 18.26 14.81 33.07 33.07 33.07 18.26 0 33.07-14.81 33.07-33.07 0-18.26-14.81-33.07-33.07-33.07-18.27 0-33.07 14.81-33.07 33.07"/></mask><g mask="url(#b)"><path fill="#4A4546" d="M73.06 37.935H6.92v33.07h66.14z"/></g><mask id="c" width="68" height="68" x="6" y="4" maskUnits="userSpaceOnUse" style="mask-type:luminance"><path fill="#fff" d="M6.92 37.935c0 18.26 14.81 33.07 33.07 33.07 18.26 0 33.07-14.81 33.07-33.07 0-18.26-14.81-33.07-33.07-33.07-18.27 0-33.07 14.81-33.07 33.07"/></mask><g mask="url(#c)"><path fill="#058F39" d="M73.06 4.865H6.92v33.07h66.14z"/></g><mask id="d" width="68" height="68" x="6" y="4" maskUnits="userSpaceOnUse" style="mask-type:luminance"><path fill="#fff" d="M6.29 37.965c.16 18.16 15.13 33.43 33.74 33.43s33.67-14.77 33.67-33.42c0-18.66-15.09-33.78-33.7-33.78-18.61 0-33.71 15.12-33.71 33.77"/></mask><g mask="url(#d)"><path fill="#fff" d="M61.81 37.936c0 12.05-9.77 21.83-21.82 21.83s-21.83-9.77-21.83-21.83c0-12.06 9.77-21.83 21.83-21.83 12.05 0 21.82 9.78 21.82 21.83"/></g><mask id="e" width="68" height="68" x="6" y="4" maskUnits="userSpaceOnUse" style="mask-type:luminance"><path fill="#fff" d="M6.29 37.965c.16 18.16 15.13 33.43 33.74 33.43s33.67-14.77 33.67-33.42c0-18.66-15.09-33.78-33.7-33.78-18.61 0-33.71 15.12-33.71 33.77"/></mask><g mask="url(#e)"><path fill="#058F39" d="M28.86 40.945c-.16.82-.27 1.66-.31 2.51-.02.41-.01.84.02 1.27.05.63.16 1.26.31 1.85l.09.35c.56 1.91 1.85 3.73 3.55 4.79.17.1.34.2.52.29 1.07.61 2.52.87 3.54.99-.22 1.69-1.16 4.37-1.16 4.37s2.26 1 2.28.24c.02-.72.45-4.21.49-4.52.57.01 1.14 0 1.67-.02 4.13-.22 8.48-2.89 10.38-6.59 1.17-2.26 1.33-4.72.96-7.15-.14-.91-.35-1.82-.61-2.72-.45-1.55-1.05-3.06-1.68-4.47-.2-.46-.42-.91-.63-1.36-.89-1.86-1.9-3.65-2.97-5.41-1.4-2.28-2.91-4.49-4.43-6.69-1.15 1.98-2.38 3.91-3.62 5.84-1.16 1.79-2.33 3.57-3.46 5.38-.1.16-.2.32-.3.49-1.27 2.07-2.49 4.22-3.4 6.48-.53 1.33-.96 2.69-1.24 4.08"/></g><mask id="f" width="68" height="68" x="6" y="4" maskUnits="userSpaceOnUse" style="mask-type:luminance"><path fill="#fff" d="M6.29 37.965c.16 18.16 15.13 33.43 33.74 33.43s33.67-14.77 33.67-33.42c0-18.66-15.09-33.78-33.7-33.78-18.61 0-33.71 15.12-33.71 33.77"/></mask><g mask="url(#f)"><path fill="#fff" d="M40.33 30.365c-.09 1.6-.16 3.5-.14 5.46-2.28-2.13-2.85-4.29-2.96-4.29 0 0 .3 4.01 2.92 6.03-.02.21-.05.42-.07.63v.01c-.2 1.66-.52 3.41-.8 4.66-.11.49-.22.9-.31 1.2-.13-.09-2.04-1.33-3.84-3.88v-.01a17.18 17.18 0 0 1-1.64-2.87s.31 1.04.89 2.39c.87 2.03 2.34 4.78 4.24 5.74-.31 1.03-.64 1.72-.95 2.56v.01c-.33.89-.64 1.94-.92 3.72-.06.4-.12.84-.18 1.32l1.61.1c.34-2.3.95-3.67 1.92-7.27 0 0 .02-.05.02-.08.03-.01.1-.02.1-.02 1.97-.52 3.69-2.57 4.77-4.19.77-1.14 1.21-2.06 1.21-2.06-2.11 2.54-3.96 3.88-5.12 4.5-.26.14-.48.24-.67.31.02-.06.07-.29.14-.64.28-1.38.88-4.6.89-6.18 2.68-1.79 3.24-5.59 3.24-5.59-.11-.01-.72 1.95-3.14 3.86l-.03-1.08v-.01a76.07 76.07 0 0 0-.26-4.27c-.24-2.8-.53-4.6-.53-4.6s-.23 1.85-.39 4.54"/></g><mask id="g" width="68" height="68" x="6" y="4" maskUnits="userSpaceOnUse" style="mask-type:luminance"><path fill="#fff" d="M6.29 37.965c.16 18.16 15.13 33.43 33.74 33.43s33.67-14.77 33.67-33.42c0-18.66-15.09-33.78-33.7-33.78-18.61 0-33.71 15.12-33.71 33.77"/></mask><g mask="url(#g)"><path fill="#fff" d="M13.07 43.746c.19-.06.35-.15.48-.28.18-.19.24-.44.18-.75-.08-.45-.36-.72-.83-.8-.25-.05-.57-.03-.97.04-.37.07-.67.16-.88.29-.4.24-.56.57-.48 1.01.05.31.18.52.37.62.19.1.42.14.7.12l.24 1.36c-.41.04-.82-.04-1.23-.24-.65-.32-1.05-.88-1.19-1.7-.15-.82-.01-1.47.41-1.94s1.01-.78 1.79-.92c.87-.15 1.59-.06 2.16.28.56.34.91.89 1.04 1.64.11.64.06 1.19-.15 1.65-.22.46-.68.79-1.39.99z"/></g><mask id="h" width="68" height="68" x="6" y="4" maskUnits="userSpaceOnUse" style="mask-type:luminance"><path fill="#fff" d="M6.29 37.965c.16 18.16 15.13 33.43 33.74 33.43s33.67-14.77 33.67-33.42c0-18.66-15.09-33.78-33.7-33.78-18.61 0-33.71 15.12-33.71 33.77"/></mask><g mask="url(#h)"><path fill="#fff" d="M12.8 51.225c-.67-.2-1.17-.71-1.51-1.53-.34-.82-.34-1.54-.01-2.15.33-.61.85-1.06 1.55-1.35.69-.28 1.37-.33 2.04-.13.67.2 1.18.71 1.52 1.53.34.82.34 1.54 0 2.15-.34.61-.86 1.06-1.55 1.34-.69.29-1.38.34-2.04.14m.28-1.29c.34.09.75.03 1.23-.16.48-.2.81-.45.99-.75.18-.3.19-.64.04-1-.15-.37-.4-.59-.74-.69-.34-.09-.75-.04-1.23.16s-.81.45-.99.75c-.18.3-.19.64-.04 1.01s.4.59.74.68"/></g><mask id="i" width="68" height="68" x="6" y="4" maskUnits="userSpaceOnUse" style="mask-type:luminance"><path fill="#fff" d="M6.29 37.965c.16 18.16 15.13 33.43 33.74 33.43s33.67-14.77 33.67-33.42c0-18.66-15.09-33.78-33.7-33.78-18.61 0-33.71 15.12-33.71 33.77"/></mask><g mask="url(#i)"><path fill="#fff" d="M19.81 54.365c-.03.44-.32.84-.85 1.22l-2.86 2-.8-1.14 2.58-1.81c.22-.16.37-.31.45-.45.14-.26.11-.54-.11-.85-.26-.37-.6-.52-1.02-.43-.22.05-.46.16-.72.34l-2.3 1.61-.78-1.11 4.23-2.97.75 1.07-.59.45c.32-.01.57.01.75.07.33.11.62.34.86.68.31.44.44.88.41 1.32"/></g><mask id="j" width="68" height="68" x="6" y="4" maskUnits="userSpaceOnUse" style="mask-type:luminance"><path fill="#fff" d="M6.29 37.965c.16 18.16 15.13 33.43 33.74 33.43s33.67-14.77 33.67-33.42c0-18.66-15.09-33.78-33.7-33.78-18.61 0-33.71 15.12-33.71 33.77"/></mask><g mask="url(#j)"><path fill="#fff" d="m20.05 55.725.68-.68.51.51 1.02-1.02.95.95-1.02 1.02.59.59-.68.68-.59-.59-1.93 1.93c-.15.15-.22.26-.22.34 0 .08.1.21.3.4.03.03.06.06.1.09.03.03.07.06.1.09l-.72.72-.47-.44c-.47-.44-.7-.82-.69-1.16 0-.22.12-.44.35-.67l2.25-2.25z"/></g><mask id="k" width="68" height="68" x="6" y="4" maskUnits="userSpaceOnUse" style="mask-type:luminance"><path fill="#fff" d="M6.29 37.965c.16 18.16 15.13 33.43 33.74 33.43s33.67-14.77 33.67-33.42c0-18.66-15.09-33.78-33.7-33.78-18.61 0-33.71 15.12-33.71 33.77"/></mask><g mask="url(#k)"><path fill="#fff" d="M26.02 59.625c.2.34.29.72.28 1.14-.01.37-.1.74-.29 1.11-.11.22-.3.5-.56.86l-3.07-2.19c-.29.43-.35.84-.2 1.2.09.23.26.42.49.59.25.18.5.26.75.24.13-.01.28-.05.43-.13l1.12.8c-.21.23-.52.39-.95.47-.67.14-1.34-.03-2.02-.52-.56-.4-.93-.93-1.11-1.58-.18-.65.01-1.37.57-2.15.52-.73 1.12-1.15 1.78-1.26.67-.11 1.31.05 1.92.49.38.28.66.59.86.93m-2.33-.23c-.27.05-.52.2-.76.44l1.9 1.36c.19-.31.25-.6.18-.87-.07-.28-.23-.51-.49-.69-.28-.21-.56-.29-.83-.24"/></g><mask id="l" width="68" height="68" x="6" y="4" maskUnits="userSpaceOnUse" style="mask-type:luminance"><path fill="#fff" d="M6.29 37.965c.16 18.16 15.13 33.43 33.74 33.43s33.67-14.77 33.67-33.42c0-18.66-15.09-33.78-33.7-33.78-18.61 0-33.71 15.12-33.71 33.77"/></mask><g mask="url(#l)"><path fill="#fff" d="M31.36 62.475c.2.39.17.89-.09 1.48l-1.38 3.2-1.27-.55 1.25-2.89c.11-.25.16-.46.15-.62-.02-.3-.19-.52-.53-.67-.42-.18-.78-.13-1.09.16-.16.15-.31.38-.43.67l-1.11 2.57-1.24-.54 2.05-4.74 1.2.52-.3.69c.26-.17.49-.29.68-.33.34-.08.7-.04 1.09.13.47.23.82.53 1.02.92"/></g><mask id="m" width="68" height="68" x="6" y="4" maskUnits="userSpaceOnUse" style="mask-type:luminance"><path fill="#fff" d="M6.29 37.965c.16 18.16 15.13 33.43 33.74 33.43s33.67-14.77 33.67-33.42c0-18.66-15.09-33.78-33.7-33.78-18.61 0-33.71 15.12-33.71 33.77"/></mask><g mask="url(#m)"><path fill="#fff" d="m32.27 63.505.23-.94.7.17.34-1.4 1.3.31-.34 1.4.82.2-.23.94-.82-.2-.64 2.66c-.05.2-.05.34-.02.4.04.06.19.13.46.19.04.01.08.02.13.03.05.02.1.03.14.03l-.24.99-.63-.13c-.63-.13-1.03-.34-1.2-.63-.11-.19-.13-.44-.05-.75l.75-3.1z"/></g><mask id="n" width="68" height="68" x="6" y="4" maskUnits="userSpaceOnUse" style="mask-type:luminance"><path fill="#fff" d="M6.29 37.965c.16 18.16 15.13 33.43 33.74 33.43s33.67-14.77 33.67-33.42c0-18.66-15.09-33.78-33.7-33.78-18.61 0-33.71 15.12-33.71 33.77"/></mask><g mask="url(#n)"><path fill="#fff" d="M39.79 67.135c.04.24.1.41.2.51.17.17.49.26.94.25.27-.01.48-.05.63-.14.16-.08.23-.2.23-.36 0-.15-.07-.27-.2-.34-.13-.08-.6-.2-1.43-.37-.59-.13-1.01-.3-1.26-.51-.25-.21-.38-.52-.39-.92-.01-.48.16-.89.53-1.25.37-.35.89-.54 1.57-.56.65-.02 1.18.1 1.59.34.42.25.66.69.74 1.32l-1.35.04a.805.805 0 0 0-.16-.41c-.15-.18-.41-.26-.77-.25-.3.01-.5.06-.63.16-.12.1-.18.2-.18.33 0 .16.07.27.21.33.13.07.61.18 1.42.34.54.11.95.29 1.23.54.27.25.42.57.43.96.01.51-.17.94-.54 1.27-.37.33-.96.51-1.76.54-.82.02-1.42-.13-1.82-.47-.4-.33-.6-.77-.62-1.3z"/></g><mask id="o" width="68" height="68" x="6" y="4" maskUnits="userSpaceOnUse" style="mask-type:luminance"><path fill="#fff" d="M6.29 37.965c.16 18.16 15.13 33.43 33.74 33.43s33.67-14.77 33.67-33.42c0-18.66-15.09-33.78-33.7-33.78-18.61 0-33.71 15.12-33.71 33.77"/></mask><g mask="url(#o)"><path fill="#fff" d="m43.57 64.405-.18-.95.71-.14-.28-1.42 1.31-.25.28 1.42.82-.16.18.95-.83.16.52 2.69c.04.21.09.33.15.37.06.04.23.04.5-.02.04-.01.08-.02.13-.03.05-.01.09-.02.13-.03l.19.99-.62.15c-.62.14-1.07.12-1.35-.08-.18-.12-.3-.34-.36-.66l-.61-3.13z"/></g><mask id="p" width="68" height="68" x="6" y="4" maskUnits="userSpaceOnUse" style="mask-type:luminance"><path fill="#fff" d="M6.29 37.965c.16 18.16 15.13 33.43 33.74 33.43s33.67-14.77 33.67-33.42c0-18.66-15.09-33.78-33.7-33.78-18.61 0-33.71 15.12-33.71 33.77"/></mask><g mask="url(#p)"><path fill="#fff" d="M49.56 63.905c.22-.12.38-.22.47-.3.15-.15.2-.3.14-.46-.07-.2-.2-.31-.36-.33-.17-.02-.39.02-.66.12-.3.11-.49.27-.56.46-.05.15-.05.32-.02.51l-1.22.45c-.13-.43-.14-.83-.03-1.18.18-.55.68-.98 1.5-1.29.53-.2 1.05-.27 1.54-.21.49.06.85.38 1.06.96l.83 2.23c.06.15.13.34.22.56.07.16.14.27.2.31.06.04.15.07.24.08l.07.19-1.38.51a2.368 2.368 0 0 1-.33-.53c-.11.26-.25.49-.43.71-.22.26-.5.45-.84.58-.44.16-.85.17-1.24.03-.38-.14-.66-.44-.83-.91-.22-.6-.15-1.11.22-1.55.2-.24.54-.48 1.01-.73zm1 .31c-.06.08-.13.15-.2.21s-.17.13-.31.21l-.27.16c-.25.15-.43.28-.52.39-.16.19-.19.41-.1.65.08.22.2.35.36.4.16.05.32.04.5-.02.28-.1.5-.28.68-.52.17-.25.19-.58.04-1.01z"/></g><mask id="q" width="68" height="68" x="6" y="4" maskUnits="userSpaceOnUse" style="mask-type:luminance"><path fill="#fff" d="M6.29 37.965c.16 18.16 15.13 33.43 33.74 33.43s33.67-14.77 33.67-33.42c0-18.66-15.09-33.78-33.7-33.78-18.61 0-33.71 15.12-33.71 33.77"/></mask><g mask="url(#q)"><path fill="#fff" d="M55.49 58.835c.44.05.83.36 1.18.9l1.87 2.94-1.17.74-1.69-2.66c-.15-.23-.29-.39-.43-.47-.25-.15-.54-.13-.85.07-.39.24-.54.58-.48 1 .04.22.14.47.31.74l1.5 2.37-1.14.73-2.77-4.36 1.11-.7.4.64c0-.32.04-.57.11-.75.12-.32.36-.6.72-.83.45-.3.89-.42 1.33-.36"/></g><mask id="r" width="68" height="68" x="6" y="4" maskUnits="userSpaceOnUse" style="mask-type:luminance"><path fill="#fff" d="M6.29 37.965c.16 18.16 15.13 33.43 33.74 33.43s33.67-14.77 33.67-33.42c0-18.66-15.09-33.78-33.7-33.78-18.61 0-33.71 15.12-33.71 33.77"/></mask><g mask="url(#r)"><path fill="#fff" d="M58.58 55.745c.27-.08.54-.08.82-.02l-1.76-1.74.96-.98 4.97 4.92-.93.94-.51-.5c.08.35.09.67.01.94-.07.27-.24.54-.5.8-.43.43-.96.62-1.6.57-.64-.05-1.23-.34-1.78-.88-.63-.62-.98-1.26-1.06-1.9-.07-.65.13-1.21.61-1.7.26-.23.5-.38.77-.45m2.86 2.35c-.06-.34-.25-.67-.58-.99-.45-.44-.89-.65-1.3-.61-.25.02-.47.13-.66.31-.28.28-.38.59-.29.94.08.34.28.67.6.98.34.34.68.54 1.01.61.34.07.64-.04.91-.31.27-.28.37-.59.31-.93"/></g><mask id="s" width="68" height="68" x="6" y="4" maskUnits="userSpaceOnUse" style="mask-type:luminance"><path fill="#fff" d="M6.29 37.965c.16 18.16 15.13 33.43 33.74 33.43s33.67-14.77 33.67-33.42c0-18.66-15.09-33.78-33.7-33.78-18.61 0-33.71 15.12-33.71 33.77"/></mask><g mask="url(#s)"><path fill="#fff" d="M63.35 52.795c.11-.23.17-.4.19-.52.03-.21-.02-.36-.17-.45-.18-.11-.34-.13-.49-.05-.15.08-.3.25-.45.49-.17.27-.23.51-.17.71.05.15.15.28.3.42l-.7 1.11c-.37-.27-.61-.57-.74-.92-.19-.55-.05-1.19.41-1.93.3-.48.67-.85 1.1-1.1.43-.25.9-.21 1.43.12l2.01 1.27c.14.09.31.19.51.31.15.09.27.13.35.12.08 0 .16-.03.24-.09l.17.11-.79 1.24c-.11-.02-.21-.05-.3-.09-.09-.04-.18-.08-.29-.14.07.27.1.54.09.83-.02.34-.12.66-.32.97-.25.4-.57.66-.96.77-.39.12-.79.04-1.21-.22-.54-.34-.79-.8-.77-1.37.01-.31.13-.71.36-1.19zm.97-.36c0 .1-.01.2-.03.29-.02.09-.06.21-.12.36l-.12.29c-.11.27-.17.48-.18.62-.01.25.1.44.32.58.2.12.37.16.53.1a.66.66 0 0 0 .38-.32c.16-.25.23-.53.22-.83-.01-.3-.2-.58-.58-.83z"/></g><mask id="t" width="68" height="68" x="6" y="4" maskUnits="userSpaceOnUse" style="mask-type:luminance"><path fill="#fff" d="M6.29 37.965c.16 18.16 15.13 33.43 33.74 33.43s33.67-14.77 33.67-33.42c0-18.66-15.09-33.78-33.7-33.78-18.61 0-33.71 15.12-33.71 33.77"/></mask><g mask="url(#t)"><path fill="#fff" d="M64.19 46.216c.01-.02.02-.05.05-.1l1.28.53c-.04.07-.08.14-.1.2-.02.06-.05.11-.07.15-.21.5-.18.91.07 1.22.15.17.41.34.79.5l2.29.95-.52 1.26-4.78-1.98.49-1.19.83.35c-.24-.32-.39-.58-.44-.78-.1-.32-.07-.66.08-1.04.02-.04.02-.06.03-.07"/></g><mask id="u" width="68" height="68" x="6" y="4" maskUnits="userSpaceOnUse" style="mask-type:luminance"><path fill="#fff" d="M6.29 37.965c.16 18.16 15.13 33.43 33.74 33.43s33.67-14.77 33.67-33.42c0-18.66-15.09-33.78-33.7-33.78-18.61 0-33.71 15.12-33.71 33.77"/></mask><g mask="url(#u)"><path fill="#fff" d="M65.25 42.895c.19-.21.42-.36.68-.46l-2.42-.52.29-1.34 6.84 1.46-.27 1.29-.7-.15c.26.25.43.52.52.79.09.27.09.59.01.94-.13.59-.47 1.04-1.04 1.34-.57.3-1.22.37-1.97.21-.86-.18-1.5-.53-1.91-1.03-.41-.5-.54-1.09-.4-1.76.05-.31.18-.57.37-.77m3.67.44c-.24-.25-.58-.43-1.02-.52-.62-.13-1.09-.07-1.43.19-.2.16-.33.36-.38.62-.08.39 0 .7.26.95.25.24.6.41 1.03.5.47.1.86.09 1.18-.04.32-.12.52-.37.6-.75.08-.38 0-.69-.24-.95"/></g><mask id="v" width="68" height="68" x="6" y="4" maskUnits="userSpaceOnUse" style="mask-type:luminance"><path fill="#fff" d="M6.29 37.965c.16 18.16 15.13 33.43 33.74 33.43s33.67-14.77 33.67-33.42c0-18.66-15.09-33.78-33.7-33.78-18.61 0-33.71 15.12-33.71 33.77"/></mask><g mask="url(#v)"><path fill="#fff" d="M14.55 27.805c-1.87-1.03-2.42-2.93-1.49-4.63.93-1.7 2.84-2.26 4.71-1.24 1.87 1.03 2.42 2.93 1.49 4.63-.94 1.7-2.84 2.27-4.71 1.24m.65-1.19c1.19.65 2.37.54 3.01-.62.64-1.16.1-2.22-1.09-2.87-1.19-.65-2.37-.54-3.01.62-.63 1.16-.1 2.22 1.09 2.87"/></g><mask id="w" width="68" height="68" x="6" y="4" maskUnits="userSpaceOnUse" style="mask-type:luminance"><path fill="#fff" d="M6.29 37.965c.16 18.16 15.13 33.43 33.74 33.43s33.67-14.77 33.67-33.42c0-18.66-15.09-33.78-33.7-33.78-18.61 0-33.71 15.12-33.71 33.77"/></mask><g mask="url(#w)"><path fill="#fff" d="m23.98 20.275-2.79-.74-.87.91 1.82 1.75-.86.9-4.9-4.71 1.72-1.79c.91-.94 1.97-1.35 3.04-.33.75.73.78 1.47.63 2.21l3.12.87zm-6-2.06 1.49 1.43.63-.66c.78-.81.63-1.3.19-1.72-.45-.44-.9-.52-1.64.25z"/></g><mask id="x" width="68" height="68" x="6" y="4" maskUnits="userSpaceOnUse" style="mask-type:luminance"><path fill="#fff" d="M6.29 37.965c.16 18.16 15.13 33.43 33.74 33.43s33.67-14.77 33.67-33.42c0-18.66-15.09-33.78-33.7-33.78-18.61 0-33.71 15.12-33.71 33.77"/></mask><g mask="url(#x)"><path fill="#fff" d="M23.14 16.405c-1.13-1.8-.68-3.73 1.01-4.78.56-.35 1.39-.68 1.94-.74l.51 1.08c-.56.1-1.28.34-1.8.66-1.2.75-1.22 1.93-.52 3.05.73 1.18 1.85 1.63 3.05.89.24-.15.49-.35.73-.58l-.64-1.03-.64.4-.54-.87 1.69-1.05 1.6 2.57c-.27.5-1.05 1.26-1.71 1.67-1.6.98-3.55.55-4.68-1.27"/></g><mask id="y" width="68" height="68" x="6" y="4" maskUnits="userSpaceOnUse" style="mask-type:luminance"><path fill="#fff" d="M6.29 37.965c.16 18.16 15.13 33.43 33.74 33.43s33.67-14.77 33.67-33.42c0-18.66-15.09-33.78-33.7-33.78-18.61 0-33.71 15.12-33.71 33.77"/></mask><g mask="url(#y)"><path fill="#fff" d="m34.79 14.656-1.04-1.39-2.16.67-.07 1.74-1.23.39.28-7.21 1.12-.35 4.33 5.76zm-3.08-4.1-.07 2.11 1.34-.42z"/></g><mask id="z" width="68" height="68" x="6" y="4" maskUnits="userSpaceOnUse" style="mask-type:luminance"><path fill="#fff" d="M6.29 37.965c.16 18.16 15.13 33.43 33.74 33.43s33.67-14.77 33.67-33.42c0-18.66-15.09-33.78-33.7-33.78-18.61 0-33.71 15.12-33.71 33.77"/></mask><g mask="url(#z)"><path fill="#fff" d="m41.31 14.135-3.17-4.61.07 4.66-1.24.02-.1-6.8 1.22-.02 2.96 4.35-.06-4.39 1.24-.02.1 6.8z"/></g><mask id="A" width="68" height="68" x="24" y="-46" maskUnits="userSpaceOnUse" style="mask-type:luminance"><path fill="#fff" d="M89.994-.792c6.089-17.111-2.718-36.587-20.19-42.984-17.483-6.4-36.697 2.302-43.103 19.824-6.416 17.52 2.558 36.914 20.043 43.303 17.472 6.397 36.844-2.621 43.25-20.143"/></mask><g mask="url(#A)"><path fill="#fff" d="m44.69 7.724-1.184 6.686 1.22.216 1.186-6.686z"/></g><mask id="B" width="68" height="68" x="6" y="4" maskUnits="userSpaceOnUse" style="mask-type:luminance"><path fill="#fff" d="M6.29 37.965c.16 18.16 15.13 33.43 33.74 33.43s33.67-14.77 33.67-33.42c0-18.66-15.09-33.78-33.7-33.78-18.61 0-33.71 15.12-33.71 33.77"/></mask><g mask="url(#B)"><path fill="#fff" d="M46.71 11.485c.72-2.01 2.52-2.85 4.35-2.19.67.24 1.3.63 1.68 1.03l-.53 1.07c-.45-.4-.89-.73-1.56-.97-1.24-.45-2.2.25-2.66 1.53-.46 1.28-.16 2.43 1.08 2.87.67.24 1.21.26 1.82.24l-.27 1.16c-.55.06-1.29-.04-1.95-.28-1.83-.66-2.68-2.46-1.96-4.46"/></g><mask id="C" width="68" height="68" x="6" y="4" maskUnits="userSpaceOnUse" style="mask-type:luminance"><path fill="#fff" d="M6.29 37.965c.16 18.16 15.13 33.43 33.74 33.43s33.67-14.77 33.67-33.42c0-18.66-15.09-33.78-33.7-33.78-18.61 0-33.71 15.12-33.71 33.77"/></mask><g mask="url(#C)"><path fill="#fff" d="m53.43 18.325 2.91-4.11c-.3-.01-.6-.07-.9-.21l.52-.92c.39.17 1.21.13 1.63-.14l.78.55-3.93 5.54z"/></g><mask id="D" width="68" height="68" x="6" y="4" maskUnits="userSpaceOnUse" style="mask-type:luminance"><path fill="#fff" d="M6.29 37.965c.16 18.16 15.13 33.43 33.74 33.43s33.67-14.77 33.67-33.42c0-18.66-15.09-33.78-33.7-33.78-18.61 0-33.71 15.12-33.71 33.77"/></mask><g mask="url(#D)"><path fill="#fff" d="M57.88 17.435c1.58-1.47 3.53-1.55 4.65-.35 1.1 1.18.86 3.02-.64 4.41-1.58 1.47-3.42 1.6-4.61.31-1.15-1.22-.91-2.97.6-4.37m.85.91c-1.19 1.1-1.23 2.07-.62 2.72.65.7 1.66.73 2.95-.46 1.18-1.1 1.22-2.18.66-2.79-.57-.6-1.72-.65-2.99.53"/></g><mask id="E" width="68" height="68" x="6" y="4" maskUnits="userSpaceOnUse" style="mask-type:luminance"><path fill="#fff" d="M6.29 37.965c.16 18.16 15.13 33.43 33.74 33.43s33.67-14.77 33.67-33.42c0-18.66-15.09-33.78-33.7-33.78-18.61 0-33.71 15.12-33.71 33.77"/></mask><g mask="url(#E)"><path fill="#fff" d="M62.7 22.945c1.91-.99 3.82-.54 4.57.91.74 1.43.02 3.14-1.8 4.08-1.91.99-3.72.63-4.53-.94-.77-1.49-.07-3.11 1.76-4.05m.57 1.1c-1.44.74-1.74 1.67-1.33 2.46.44.84 1.41 1.15 2.97.35 1.43-.74 1.76-1.77 1.38-2.51-.38-.74-1.47-1.1-3.02-.3"/></g><path fill="#4A4546" d="M22.5 68.796c1.01.54 1.39 1.79.85 2.8a2.066 2.066 0 0 1-2.8.85 2.066 2.066 0 0 1-.85-2.8 2.075 2.075 0 0 1 2.8-.85m.53 2.63c.45-.85.15-1.89-.68-2.33-.83-.44-1.87-.12-2.32.73-.45.85-.15 1.89.69 2.33.82.44 1.85.11 2.31-.73m-.71.12c-.34.47-.89.51-1.38.25-.67-.36-.83-1.04-.47-1.71.36-.67 1.01-.91 1.68-.56.49.26.77.73.56 1.28l-.3-.16c.08-.29-.06-.63-.42-.83-.46-.25-.95-.03-1.2.44-.25.46-.16.99.31 1.24.36.2.73.12.92-.11zm4.61-.651-.25.61-.81-.33-1.26 3.08-.74-.3 1.26-3.08-.81-.33.25-.61zm-.15 2.681-.07.23c-.11.33-.13.69.14.78.24.08.41-.07.57-.41l.66.22c-.25.65-.69.92-1.38.69-1.06-.35-.83-1.18-.59-1.89.25-.76.64-1.42 1.62-1.09.85.28.85.92.56 1.79l-.05.16zm.89-.18c.13-.44.16-.7-.15-.8-.29-.1-.48.18-.57.44l-.04.11zm2.98-.37.78.2-1.11 1.22.41 1.7-.78-.2-.19-1.06-.67.84-.78-.2 1.17-1.3-.4-1.6.78.2.18.98zm1.62-.52.76.14-.16.84.44.08-.1.52-.44-.08-.3 1.6c-.04.23-.01.33.21.37.06.01.12.02.17.02l-.1.53a4.53 4.53 0 0 1-.5-.06c-.59-.11-.67-.31-.56-.91l.32-1.69-.38-.07.1-.52.38.07zm1.53 1.14.76.11-.42 2.97-.76-.11zm.15-1.02.76.11-.09.65-.76-.11zm1.49.24.77.07-.38 3.96-.77-.07zm2 2.76-.01.24c-.01.35.07.7.35.71.26.01.37-.18.43-.55l.69.03c-.05.69-.4 1.07-1.13 1.04-1.11-.04-1.13-.9-1.1-1.65.03-.8.22-1.54 1.25-1.5.9.03 1.07.64 1.04 1.56l-.01.17zm.8-.43c0-.46-.05-.72-.36-.73-.31-.01-.41.3-.42.58v.12zm1.4-2.11 2.06-.07.02.44-1.57.05.04 1.25 1.48-.05.02.44-1.48.05.05 1.43 1.63-.06.02.44-2.12.07zm2.58.88.51-.05.65 1 .43-1.12.51-.05-.63 1.51.97 1.46-.51.05-.72-1.11-.45 1.24-.51.05.65-1.63zm4.21.349c-.05-.29-.22-.59-.57-.53-.29.05-.55.24-.36 1.32.07.39.21 1.15.76 1.06.4-.07.41-.5.35-.82l.46-.08c.08.47-.04 1.14-.77 1.27-.72.12-1.11-.32-1.29-1.33-.13-.74-.13-1.61.77-1.77.8-.14 1.05.47 1.11.81zm.73-2.089.45-.11.32 1.29h.01c.06-.27.34-.52.59-.58.75-.19.89.39.98.73l.52 2.05-.45.11-.5-2c-.06-.22-.16-.58-.57-.48-.24.06-.53.31-.43.73l.5 2-.45.11zm3.14 1.14c-.22-.64-.03-1.02.64-1.25.86-.29 1.04.23 1.13.53l.52 1.58c.04.12.07.23.21.18.06-.02.08-.04.1-.06l.1.32c-.03.02-.14.07-.25.11-.17.06-.38.13-.52-.23h-.01c-.06.3-.28.55-.55.63-.53.17-.88-.06-1.05-.57-.13-.4-.05-.73.27-.96l.54-.38c.29-.21.26-.3.18-.54-.09-.27-.3-.37-.59-.27-.49.16-.34.62-.3.72l.01.03zm1.52-.02c-.11.23-.49.4-.65.59-.11.14-.15.27-.07.52.1.29.26.45.56.35.29-.1.49-.44.39-.73zm.79-1.731.41-.17.14.32h.01c.01-.3.24-.56.5-.67.73-.3.96.25 1.09.57l.82 1.96-.43.18-.79-1.9c-.09-.21-.25-.55-.64-.39-.23.1-.48.38-.31.78l.79 1.9-.43.18zm5.57.511c.4.79.18 1.27-.35 1.54-.16.08-.81.41-1.21-.22l.42-.21c.14.23.38.23.6.12.54-.27.31-.68.21-.86l-.18-.35h-.01c.02.27-.16.53-.42.66-.78.4-1.32-.56-1.5-.91-.37-.72-.52-1.5.16-1.84.29-.15.62-.07.78.11h.01l-.17-.34.4-.2zm-2.01-.44c.22.43.56.94.98.73.45-.23.32-.7.05-1.25-.26-.52-.62-1-1.07-.77-.39.19-.28.65.04 1.29m2.58-1.32c.24.39.59.98 1.09.69.38-.23.19-.66.07-.85l.4-.24c.16.27.39 1-.31 1.43-.62.38-1.15.1-1.68-.77-.39-.64-.71-1.46.08-1.93.78-.47 1.27.17 1.6.71l.1.16zm.74-.88-.08-.14c-.17-.29-.47-.57-.82-.36-.42.25-.16.8-.06.95l.06.1z"/></g><defs><clipPath id="a"><path fill="#fff" d="M0 .295h80v80H0z"/></clipPath></defs></svg>