<svg xmlns="http://www.w3.org/2000/svg" width="80" height="81" fill="none" viewBox="0 0 80 81"><mask id="a" width="68" height="68" x="6" y="3" maskUnits="userSpaceOnUse" style="mask-type:luminance"><path fill="#fff" d="M73.51 36.805c0 18.6-15.08 33.69-33.68 33.69S6.14 55.415 6.14 36.805s15.08-33.69 33.68-33.69c18.61 0 33.69 15.08 33.69 33.69"/></mask><g mask="url(#a)"><path fill="#fff" d="M73.51 3.115H6.14v67.37h67.37z"/></g><mask id="b" width="68" height="68" x="6" y="3" maskUnits="userSpaceOnUse" style="mask-type:luminance"><path fill="#fff" d="M73.51 36.805c0 18.6-15.08 33.69-33.68 33.69S6.14 55.415 6.14 36.805s15.08-33.69 33.68-33.69c18.61 0 33.69 15.08 33.69 33.69"/></mask><g mask="url(#b)"><path fill="#058F39" d="M39.82 3.115c-18.6 0-33.68 15.08-33.68 33.68s15.08 33.69 33.69 33.69 33.68-15.08 33.68-33.69c0-18.6-15.08-33.68-33.69-33.68m0 66.77c-18.27 0-33.08-14.81-33.08-33.08 0-18.27 14.81-33.08 33.08-33.08 18.27 0 33.08 14.8 33.08 33.08 0 18.28-14.81 33.08-33.08 33.08"/></g><mask id="c" width="68" height="68" x="6" y="3" maskUnits="userSpaceOnUse" style="mask-type:luminance"><path fill="#fff" d="M73.51 36.805c0 18.6-15.08 33.69-33.68 33.69S6.14 55.415 6.14 36.805s15.08-33.69 33.68-33.69c18.61 0 33.69 15.08 33.69 33.69"/></mask><g mask="url(#c)"><path fill="#4A4546" d="M73.51 36.805H6.14v33.69h67.37z"/></g><path fill="#fff" d="M39.82 59.035c12.277 0 22.23-9.952 22.23-22.23 0-12.277-9.953-22.23-22.23-22.23-12.277 0-22.23 9.953-22.23 22.23 0 12.278 9.953 22.23 22.23 22.23"/><path fill="#058F39" d="M51.06 38.225c-.02-.53-.06-1.05-.13-1.57-.14-1.04-.38-2.07-.67-3.07l-.03-.08c-.29-.99-.64-1.96-1.03-2.91-.2-.49-.4-.98-.62-1.46l-.33-.72-.33-.72c-.46-.96-.95-1.89-1.46-2.82-.51-.92-1.04-1.83-1.59-2.72l-.01-.02c-1.43-2.32-2.97-4.58-4.53-6.81l-.06-.08-.05.08c-1.16 2.02-2.42 3.99-3.68 5.95l.09.06 1.01-1.43c.34-.48.67-.96 1-1.44.66-.97 1-1.48 1.62-2.47l1.93 2.99.54.87.53.87c.35.57.69 1.14 1.03 1.72l.02.03c.53.91 1.04 1.82 1.52 2.75.24.46.48.93.71 1.4l.34.7.17.35.16.35.32.73.16.36.08.18.03.08.04.09c.2.48.4.96.58 1.45.37.97.7 1.95.97 2.94l.03.12c.12.45.23.9.32 1.35.1.49.19.98.25 1.48.06.49.1.98.11 1.48.01.49-.01.98-.06 1.46-.05.48-.13.96-.25 1.42-.12.46-.27.92-.45 1.35l-.14.31c-.05.11-.12.23-.17.35l-.03.05-.03.06-.09.16-.18.31c-.06.1-.13.2-.19.3l-.2.3c-.06.1-.14.19-.21.29l-.22.28c-.31.37-.63.73-.98 1.06-.17.17-.36.32-.54.48-.18.16-.38.31-.57.45-.1.07-.19.15-.29.22l-.3.2-.3.2-.32.18-.32.19c-.11.06-.22.11-.32.17-.22.11-.43.22-.66.32-.22.09-.44.2-.67.28-.23.08-.45.18-.69.24l-.35.1-.17.05-.2.03-.35.08-.18.04-.17.03-.34.05c-.11.02-.22.04-.36.05l-.39.04-.19.02h-.15c-.35.02-.7.02-1.05.02.3-1.93.58-3.06 1.48-6.39 0 0 .01-.06.02-.08l.1-.03c2.01-.53 3.76-2.63 4.86-4.27.78-1.16 1.24-2.1 1.24-2.1-2.15 2.59-4.04 3.96-5.22 4.59-.26.14-.49.24-.68.31.02-.06.07-.3.14-.66.29-1.41.89-4.69.9-6.3 2.73-1.82 3.3-5.69 3.3-5.69-.12-.01-.73 1.99-3.2 3.94l-.03-1.1v-.01c-.06-1.61-.16-3.08-.26-4.35-.25-2.86-.54-4.69-.54-4.69s-.24 1.9-.4 4.63c-.09 1.63-.16 3.56-.14 5.56-2.32-2.18-2.91-4.37-3.02-4.37 0 0 .3 4.09 2.97 6.14-.02.21-.04.43-.07.64v.01c-.2 1.69-.53 3.48-.82 4.74-.12.5-.22.92-.32 1.22-.13-.09-2.08-1.36-3.91-3.95l-1.67-2.93s.32 1.06.91 2.44c.89 2.07 2.39 4.87 4.32 5.85-.32 1.05-.65 1.75-.97 2.61v.01c-.28.74-.94 3.08-1.2 4.16a11.2 11.2 0 0 1-1.85-.35c-.32-.09-.64-.2-.92-.33-.07-.03-.12-.05-.21-.1l-.12-.06-.1-.06-.24-.13-.12-.07-.03-.02-.05-.03c-.28-.17-.54-.37-.8-.58-.25-.22-.49-.45-.72-.7a8.08 8.08 0 0 1-.63-.79c-.19-.28-.38-.56-.53-.86-.08-.15-.15-.3-.23-.45-.07-.16-.14-.31-.19-.46a3.11 3.11 0 0 1-.09-.24l-.08-.23-.08-.27-.03-.11-.03-.13c-.17-.67-.28-1.36-.31-2.05-.04-.68.02-1.39.1-2.1.04-.36.09-.72.15-1.08.05-.32.13-.67.22-1.02.18-.7.39-1.41.61-2.11.11-.35.22-.71.33-1.04.11-.32.26-.66.4-.99.6-1.34 1.25-2.67 1.93-3.97.17-.33.35-.65.52-.97l.27-.48.27-.48 1.13-1.91c.38-.64.76-1.28 1.13-1.92l1.12-1.93-.09-.06-2.41 3.74-1.2 1.87c-.4.63-.77 1.27-1.14 1.92-.37.65-.72 1.3-1.07 1.96-.35.66-.69 1.32-1 1.99-.16.34-.32.67-.45 1.02s-.25.7-.37 1.05c-.24.7-.47 1.41-.67 2.13-.1.36-.2.72-.26 1.09l-.18 1.1c-.1.74-.18 1.48-.15 2.23s.13 1.49.3 2.22c.16.73.43 1.44.77 2.11a8.958 8.958 0 0 0 2.05 2.65c.28.24.58.48.9.68.16.11.32.19.49.28.16.09.32.18.5.26.34.16.7.28 1.05.39.63.19 1.27.31 1.92.39l-.73 3.61c-.08.25-.17.51-.25.76l-.03.09.08.03c.28.12.56.23.85.32.29.09.58.18.89.21.16.01.32.03.49-.04.09-.03.18-.12.2-.22.03-.11.02-.17.03-.25.02-.29.05-.59.08-.89.06-.52.11-1.04.18-1.56l.42-1.91c.43 0 .86 0 1.29-.02.27-.01.52-.04.79-.06.13-.01.26-.03.39-.05l.39-.06c.52-.1 1.03-.22 1.53-.38.25-.07.5-.17.75-.26s.49-.2.73-.3c.24-.1.48-.22.71-.34.12-.06.24-.12.35-.18l.34-.2.34-.2.33-.22.33-.22c.11-.07.21-.16.32-.24.21-.16.42-.32.62-.49.2-.17.4-.34.59-.53.38-.36.74-.75 1.07-1.16l.24-.31c.08-.1.16-.21.23-.32l.22-.33c.07-.11.15-.22.21-.33.13-.23.27-.45.38-.69.06-.12.12-.23.17-.35l.16-.37c.2-.49.36-.99.48-1.51.13-.51.2-1.03.25-1.56.02-.55.04-1.08.02-1.6m-39.37-3.65c-1.92-.37-2.93-1.87-2.6-3.61.33-1.74 1.83-2.77 3.75-2.4 1.92.37 2.93 1.87 2.6 3.61-.34 1.74-1.83 2.77-3.75 2.4m.23-1.22c1.22.23 2.22-.2 2.44-1.39.22-1.19-.54-1.96-1.76-2.19-1.22-.23-2.22.2-2.44 1.39-.23 1.19.54 1.96 1.76 2.19m5.73-8.08-2.63.23-.47 1.05 2.11.94-.46 1.04-5.67-2.54.93-2.08c.49-1.09 1.28-1.77 2.51-1.22.88.39 1.13 1.02 1.22 1.7l2.96-.22zm-5.8.08 1.73.77.34-.76c.42-.94.14-1.31-.37-1.54-.53-.24-.94-.17-1.34.73zm3.84-3.11c-1.56-1.15-1.83-2.94-.75-4.41.36-.49.95-1.05 1.4-1.28l.8.74c-.44.27-.98.73-1.3 1.17-.77 1.04-.39 2.05.58 2.77 1.02.75 2.13.76 2.89-.27.15-.21.3-.46.43-.74l-.89-.66-.41.55-.76-.56 1.08-1.46 2.23 1.64c-.06.52-.47 1.42-.89 1.99-1.03 1.4-2.83 1.69-4.41.52m9.28-5.55-1.37-.81-1.58 1.33.56 1.49-.9.76-2.31-6.18.82-.69 5.69 3.33zm-4.05-2.37.68 1.8.99-.83zm9.28-.59-4.43-2.58 1.87 3.83-1.02.5-2.73-5.58 1.01-.49 4.15 2.44-1.76-3.61 1.02-.5 2.73 5.58zm1.92-.65-1.87-5.92 1.08-.34 1.87 5.92zm1.39-3.72c-.28-1.93.82-3.38 2.57-3.63.64-.09 1.32-.05 1.8.11l.03 1.09c-.54-.13-1.04-.21-1.68-.12-1.2.17-1.68 1.14-1.5 2.37.18 1.23.91 2.03 2.1 1.86.64-.09 1.1-.31 1.58-.58l.28 1.05c-.42.28-1.06.52-1.7.61-1.75.26-3.2-.83-3.48-2.76m7.76 2.44.88-6.15 1.66.24c1.42.2 2.32.56 2.13 1.92-.08.55-.3.96-.7 1.21.67.38.97.85.86 1.63-.2 1.42-1.43 1.64-2.46 1.49zm1.53-2.63-.26 1.84 1.11.16c.72.1 1.21-.05 1.31-.75.1-.71-.35-.99-.98-1.08zm.34-2.4-.22 1.51 1.1.16c.32.05.77-.03.85-.61.09-.64-.22-.84-.74-.91zm3.33 5.94 2.02-5.88 1.08.37-1.67 4.84 2.42.83-.36 1.04zm3.93 1.42 3.04-5.42 3.47 1.94-.54.96-2.46-1.37-.65 1.15 1.9 1.07-.54.96-1.9-1.07-.78 1.39 2.53 1.42-.54.96zm7.09 4.99.69-5.07-2.82 3.19-.85-.75 4.11-4.66.84.74-.67 4.77 2.66-3.01.85.75-4.11 4.66zm1.38 1.38 5.1-3.54 1.33 1.91c1.01 1.46.8 3.17-.81 4.29-1.61 1.11-3.29.71-4.3-.74zm4.86-1.99-3.31 2.3.68.98c.69.99 1.67 1.05 2.69.35 1.02-.71 1.31-1.65.62-2.64zm-1.55 7.08 5.75-2.36 1.51 3.68-1.02.42-1.07-2.6-1.22.5.83 2.02-1.02.42-.83-2.02-1.47.6 1.1 2.69-1.02.42zm1.76 4.4 6.12-1.09.41 2.29c.31 1.75-.6 3.22-2.52 3.56-1.92.34-3.29-.72-3.6-2.47zm5.24.22-3.97.7.21 1.17c.21 1.19 1.08 1.66 2.3 1.44 1.22-.22 1.88-.95 1.67-2.15z"/><path fill="#fff" d="M12.4 42.725c.19-.06.35-.16.49-.29.18-.19.25-.45.19-.77-.08-.46-.36-.73-.85-.82-.26-.05-.58-.03-.98.04-.38.07-.68.17-.89.3-.4.24-.57.58-.48 1.03.06.32.18.53.38.63.19.1.43.15.71.13l.25 1.39c-.42.04-.84-.04-1.25-.24-.67-.32-1.08-.9-1.23-1.74-.15-.84-.01-1.5.41-1.98.43-.48 1.03-.79 1.82-.93.89-.16 1.62-.06 2.2.28.57.35.93.9 1.06 1.67.12.65.06 1.21-.15 1.68-.22.47-.69.8-1.42 1.01zm-.27 7.611c-.68-.2-1.19-.72-1.53-1.56-.34-.84-.35-1.57-.01-2.19.34-.62.87-1.08 1.58-1.37.7-.29 1.4-.33 2.08-.13.69.2 1.2.72 1.55 1.56.35.84.35 1.57 0 2.19-.35.62-.87 1.08-1.58 1.37-.72.29-1.41.34-2.09.13m.28-1.31c.35.09.76.03 1.25-.16.49-.2.82-.46 1.01-.76.18-.31.19-.65.04-1.02s-.4-.61-.75-.7c-.35-.09-.76-.04-1.25.16s-.82.46-1.01.77c-.18.31-.2.65-.04 1.03.15.36.4.59.75.68m6.86 4.509c-.03.45-.32.86-.87 1.24l-2.91 2.04-.81-1.16 2.63-1.84c.23-.16.38-.31.46-.46.14-.27.11-.55-.11-.86-.27-.38-.61-.53-1.04-.44-.22.05-.47.16-.73.35l-2.34 1.64-.79-1.13 4.31-3.02.77 1.09-.63.44c.32-.01.58.01.77.07.34.11.63.34.88.7.31.45.44.9.41 1.34m.25 1.39.7-.7.52.52 1.04-1.04.97.96-1.04 1.04.6.6-.7.7-.6-.6-1.97 1.97c-.15.15-.23.27-.23.34 0 .08.1.21.3.41l.09.09c.03.03.07.06.1.09l-.73.73-.48-.44c-.48-.44-.71-.84-.7-1.18 0-.22.12-.45.35-.68l2.3-2.3zm6.08 3.971c.2.35.3.74.29 1.17-.01.38-.1.76-.29 1.13-.11.22-.3.51-.57.88l-3.12-2.24c-.29.44-.36.85-.2 1.23.09.23.26.43.5.6.25.18.51.27.76.25.14-.01.28-.05.44-.13l1.14.82c-.21.23-.54.39-.97.48-.68.14-1.37-.03-2.06-.53-.57-.41-.95-.95-1.13-1.61-.19-.66.01-1.39.57-2.18.53-.74 1.14-1.17 1.81-1.29.68-.11 1.33.05 1.96.5.37.26.66.57.87.92m-2.38-.23c-.28.05-.53.2-.77.45l1.93 1.38c.19-.31.25-.61.19-.89-.07-.28-.23-.52-.5-.71-.29-.2-.57-.28-.85-.23m7.81 3.14c.2.4.17.9-.09 1.51l-1.41 3.26-1.3-.56 1.27-2.94c.11-.25.16-.47.15-.63-.02-.3-.2-.53-.54-.68-.43-.19-.8-.13-1.11.17-.16.16-.31.38-.44.68l-1.13 2.62-1.27-.55 2.09-4.83 1.23.53-.31.71c.27-.18.5-.29.69-.34.34-.08.72-.04 1.11.13.51.21.86.52 1.06.92m.94 1.039.23-.95.72.17.35-1.43 1.33.32-.35 1.43.83.2-.23.95-.83-.2-.65 2.71c-.05.21-.06.35-.01.41.04.06.2.13.47.19.04.01.08.02.13.03l.14.03-.24 1-.64-.13c-.64-.13-1.04-.35-1.22-.64-.11-.19-.13-.44-.06-.76l.76-3.16zm7.66 3.701c.04.24.1.42.2.52.18.18.5.26.96.25.27-.01.49-.05.65-.14.16-.09.23-.21.23-.37s-.07-.27-.2-.35c-.13-.08-.62-.2-1.45-.38-.6-.13-1.03-.31-1.28-.52-.25-.21-.38-.53-.39-.94-.01-.49.17-.91.54-1.27s.91-.55 1.6-.57c.66-.02 1.2.1 1.62.35.42.25.67.7.75 1.34l-1.38.04c-.03-.18-.08-.32-.16-.42-.16-.18-.42-.27-.78-.26-.3.01-.51.06-.64.16s-.19.21-.18.33c0 .16.08.27.21.34.14.07.62.19 1.45.34.55.11.97.3 1.25.55.28.26.42.58.43.98.01.52-.17.95-.55 1.3-.38.34-.98.52-1.79.55-.83.02-1.45-.13-1.85-.47-.41-.34-.62-.78-.63-1.32zm3.84-2.77-.19-.96.72-.15-.28-1.44 1.34-.26.28 1.44.84-.16.19.96-.84.16.53 2.74c.04.21.09.34.16.38.06.04.23.04.51-.02.04-.01.08-.02.13-.03.05-.01.09-.02.13-.03l.2 1.01-.64.15c-.63.15-1.09.12-1.38-.08-.18-.13-.31-.35-.37-.67l-.62-3.19zm6.11-.511c.23-.12.39-.22.47-.31.16-.15.2-.3.14-.47-.07-.2-.2-.32-.37-.34-.17-.02-.39.01-.67.12-.31.12-.5.27-.57.47-.05.15-.06.32-.02.52l-1.25.46c-.13-.44-.14-.84-.03-1.2.18-.56.69-1 1.52-1.31.54-.2 1.07-.27 1.57-.22.5.06.86.38 1.08.98l.84 2.27c.06.16.13.35.22.57.07.17.14.27.21.32.06.04.15.07.25.08l.07.19-1.41.52a1.84 1.84 0 0 1-.19-.25c-.05-.08-.1-.18-.15-.28-.11.26-.25.5-.44.73-.22.26-.51.46-.86.59-.45.17-.87.18-1.26.03s-.67-.45-.84-.92c-.22-.61-.15-1.14.22-1.58.2-.24.54-.49 1.02-.74zm1.02.3c-.06.08-.13.16-.2.22s-.18.13-.32.22l-.27.16c-.26.15-.43.28-.53.4-.16.19-.19.41-.1.66.08.22.2.36.36.41.16.05.33.04.51-.02.28-.1.51-.28.69-.54.18-.25.19-.6.04-1.03zm5.02-5.479c.44.06.84.36 1.2.92l1.9 3-1.19.76-1.72-2.71c-.15-.23-.29-.39-.44-.48-.26-.16-.55-.13-.87.07-.39.25-.55.59-.49 1.01.04.22.14.47.32.75l1.53 2.41-1.16.74-2.82-4.44 1.13-.72.41.65c0-.32.04-.58.11-.76.13-.33.37-.61.73-.85.46-.28.91-.4 1.36-.35m3.15-3.15c.27-.08.55-.09.84-.02l-1.79-1.77.98-.99 5.07 5.01-.94.95-.52-.51c.08.36.09.68.01.96-.08.28-.25.55-.51.82-.43.44-.98.63-1.63.58-.65-.05-1.25-.35-1.81-.9-.64-.63-1-1.28-1.08-1.94-.08-.66.13-1.23.62-1.73.24-.22.49-.38.76-.46m2.91 2.4c-.06-.35-.26-.69-.59-1.01-.46-.45-.9-.66-1.33-.63-.26.03-.48.13-.67.32-.28.29-.38.6-.3.95.08.35.29.68.61 1 .35.34.69.55 1.03.62.34.07.65-.03.92-.31.29-.27.39-.59.33-.94m1.94-5.401c.11-.23.17-.41.19-.53.03-.21-.02-.37-.17-.46-.18-.12-.35-.13-.5-.05-.15.08-.31.25-.46.5-.18.28-.23.52-.17.72.05.15.15.29.3.42l-.71 1.12c-.38-.27-.63-.58-.75-.94-.2-.56-.06-1.21.42-1.97.31-.49.68-.86 1.12-1.12.44-.26.92-.22 1.46.12l2.04 1.3c.14.09.32.2.52.32.16.09.28.13.35.13.07 0 .16-.03.24-.09l.17.11-.8 1.27c-.11-.02-.21-.05-.3-.09-.09-.04-.19-.08-.29-.14.07.27.1.55.09.84-.02.34-.12.67-.32.99-.26.41-.58.67-.98.79s-.81.04-1.23-.22c-.55-.35-.81-.81-.79-1.39.01-.32.14-.72.37-1.21zm1-.36c0 .1-.01.2-.03.3-.02.09-.06.22-.12.36l-.12.3c-.11.28-.17.49-.18.64-.01.25.1.45.32.59.2.13.38.16.54.1.16-.06.29-.16.39-.32.16-.25.24-.54.22-.84-.02-.3-.21-.59-.59-.84zm-.14-6.34c.01-.02.03-.05.05-.11l1.31.54c-.04.08-.08.15-.11.21s-.05.11-.07.15c-.21.51-.19.93.07 1.24.15.18.42.35.81.51l2.33.96-.53 1.28-4.87-2.02.5-1.22.85.35c-.24-.33-.39-.6-.45-.79-.1-.32-.07-.67.09-1.05.01-.02.02-.04.02-.05m1.08-3.389c.19-.21.42-.37.7-.47l-2.46-.53.29-1.37 6.97 1.49-.28 1.31-.71-.15c.26.26.44.52.53.8.09.28.09.6.01.96-.13.6-.48 1.06-1.06 1.36-.57.31-1.24.38-2.01.22-.88-.19-1.53-.54-1.95-1.05-.42-.51-.56-1.11-.41-1.79.06-.3.19-.56.38-.78m3.74.46c-.24-.26-.59-.44-1.04-.53-.63-.13-1.12-.07-1.45.19-.21.16-.34.37-.39.63-.08.39 0 .72.26.96.26.25.61.42 1.05.51.48.1.88.09 1.2-.04.33-.13.53-.38.61-.76.08-.38 0-.7-.24-.96"/><path fill="#4A4546" d="M21.8 68.305a2.114 2.114 0 1 1-1.99 3.73 2.114 2.114 0 0 1 1.99-3.73m.54 2.68c.46-.86.15-1.93-.7-2.38-.85-.45-1.9-.12-2.37.74-.46.86-.15 1.93.7 2.38.85.46 1.91.12 2.37-.74m-.72.12c-.34.47-.91.52-1.4.25-.68-.36-.85-1.06-.48-1.74.36-.68 1.03-.93 1.72-.57.5.27.78.75.57 1.31l-.3-.16c.09-.3-.06-.65-.43-.84-.47-.25-.97-.03-1.22.44s-.16 1.01.31 1.26c.37.2.75.13.94-.11zm4.7-.66-.25.62-.82-.34-1.28 3.14-.76-.31 1.28-3.14-.82-.34.25-.62zm-.15 2.74-.08.23c-.11.34-.13.7.14.8.25.08.41-.07.58-.41l.67.22c-.25.67-.7.94-1.4.7-1.08-.36-.85-1.21-.6-1.93.26-.78.65-1.45 1.66-1.11.86.28.86.93.56 1.82l-.06.17zm.91-.19c.13-.45.16-.71-.15-.82-.3-.1-.49.18-.58.45l-.04.11zm3.04-.38.79.2-1.14 1.24.42 1.73-.79-.2-.19-1.08-.69.86-.79-.2 1.19-1.33-.41-1.64.79.2.18 1zm1.65-.53.77.14-.16.86.45.08-.1.53-.45-.08-.3 1.63c-.04.23-.01.34.21.38.06.01.13.02.18.02l-.1.54c-.17-.01-.33-.03-.51-.06-.6-.11-.68-.32-.57-.93l.32-1.72-.39-.07.1-.53.39.07zm1.57 1.16.78.11-.42 3.03-.78-.11zm.14-1.04.78.11-.09.66-.78-.11zm1.53.25.78.08-.39 4.05-.78-.08zm2.04 2.82-.01.25c-.01.36.07.71.36.73.26.01.38-.19.44-.56l.7.03c-.06.71-.41 1.09-1.15 1.07-1.14-.04-1.15-.92-1.12-1.68.03-.82.22-1.58 1.28-1.53.92.03 1.1.66 1.06 1.6l-.01.18zm.82-.44c0-.47-.05-.73-.37-.74-.31-.01-.42.31-.43.59v.12zm1.43-2.16 2.1-.07.02.44-1.6.06.04 1.27 1.51-.05.02.44-1.51.05.05 1.46 1.67-.06.02.44-2.17.08zm2.63.9.52-.06.66 1.02.44-1.14.52-.06-.64 1.54.99 1.49-.52.06-.73-1.14-.46 1.26-.52.06.66-1.67zm4.29.36c-.05-.29-.23-.6-.59-.54-.29.05-.56.25-.37 1.35.07.39.21 1.18.78 1.08.4-.07.42-.51.36-.84l.47-.08c.08.48-.04 1.16-.79 1.29-.73.13-1.13-.33-1.31-1.36-.13-.75-.14-1.64.79-1.81.82-.14 1.07.48 1.13.82zm.75-2.13.46-.12.33 1.32h.01c.06-.27.34-.53.61-.59.76-.19.91.4 1 .75l.53 2.1-.46.12-.51-2.04c-.06-.23-.17-.59-.59-.49-.25.06-.54.31-.44.74l.51 2.04-.46.12zm3.2 1.16c-.22-.66-.03-1.04.66-1.27.88-.29 1.06.24 1.16.54l.54 1.61c.04.12.08.23.22.19.06-.02.08-.04.1-.06l.09.32c-.03.02-.14.08-.25.12-.17.06-.39.13-.53-.24h-.01c-.06.31-.29.56-.56.65-.54.18-.9-.06-1.07-.58-.13-.41-.06-.74.28-.98l.55-.39c.3-.21.26-.3.19-.55-.09-.27-.3-.37-.61-.27-.5.16-.34.63-.31.73l.01.03zm1.55-.02c-.11.23-.5.41-.66.6-.12.14-.15.28-.07.53.1.29.27.46.57.36.3-.1.5-.45.4-.74zm.81-1.76.42-.18.14.33h.01c.01-.31.24-.57.51-.69.74-.31.98.25 1.11.58l.83 2-.44.18-.81-1.94c-.09-.22-.25-.56-.65-.39-.24.1-.49.39-.32.8l.81 1.94-.44.18zm5.68.52c.41.81.19 1.3-.36 1.58-.17.09-.82.42-1.24-.22l.43-.22c.15.24.39.24.61.12.55-.28.31-.69.22-.88l-.18-.35h-.01c.03.28-.16.54-.43.68-.79.4-1.35-.57-1.53-.93-.37-.74-.53-1.53.16-1.88.29-.15.64-.07.8.12h.01l-.18-.35.41-.21zm-2.05-.45c.22.44.57.96 1 .74.46-.23.33-.72.05-1.28-.27-.53-.63-1.02-1.09-.79-.4.21-.29.68.04 1.33m2.64-1.36c.24.4.61 1 1.11.7.39-.24.19-.68.08-.87l.41-.25c.17.28.39 1.02-.32 1.45-.64.39-1.17.1-1.72-.79-.4-.65-.73-1.49.08-1.97.8-.48 1.29.17 1.63.73l.1.17zm.75-.89-.09-.14c-.18-.29-.48-.58-.84-.36-.43.26-.16.82-.06.97l.06.1z"/></svg>