<svg xmlns="http://www.w3.org/2000/svg" xmlns:xlink="http://www.w3.org/1999/xlink" xml:space="preserve" id="Ebene_1" width="140" height="140" x="0" y="0" style="enable-background:new 0 0 2000 3000" version="1.1" viewBox="100 500 2000 2000"><style>.st1{font-family:&quot;MyriadPro-Regular&quot;}.st2{font-size:100px}.st6{fill:#fff}</style><path d="M22.22 2217.65h1955.56v294.44H22.22z" style="fill:none"/><text transform="translate(169.866 2288.647)"><tspan x="0" y="0" class="st1 st2">Zertifiziert von ECOCERT Greenlife S.A.S.</tspan><tspan x="364.2" y="120" class="st1 st2">Lizenznr. TE-00152026</tspan></text><defs><path id="SVGID_1_" d="M1692.62 1287.69c0 382.06-309.72 691.77-691.76 691.77-382.07 0-691.78-309.72-691.78-691.77 0-382.05 309.72-691.76 691.78-691.76 382.05-.01 691.76 309.71 691.76 691.76"/></defs><clipPath id="SVGID_00000098926886262814559340000017311366552286245033_"><use xlink:href="#SVGID_1_" style="overflow:visible"/></clipPath><path d="M1692.62 1979.46H309.08V595.92h1383.54z" style="clip-path:url(#SVGID_00000098926886262814559340000017311366552286245033_);fill:#fff"/><path d="M1000.86 1967.01c-375.18 0-679.32-304.14-679.32-679.32 0-375.18 304.14-679.32 679.32-679.32 375.18 0 679.31 304.14 679.31 679.32 0 375.18-304.14 679.32-679.31 679.32m0-1371.09c-382.07 0-691.78 309.71-691.78 691.76 0 382.06 309.72 691.77 691.78 691.77 382.04 0 691.76-309.72 691.76-691.77 0-382.04-309.71-691.76-691.76-691.76" style="clip-path:url(#SVGID_00000098926886262814559340000017311366552286245033_);fill:#4c8c41"/><path d="M1692.62 1979.46H309.08v-691.77h1383.54z" style="clip-path:url(#SVGID_00000098926886262814559340000017311366552286245033_);fill:#494546"/><path d="M1457.42 1287.69c0 252.16-204.41 456.56-456.56 456.56-252.16 0-456.57-204.41-456.57-456.56s204.41-456.57 456.57-456.57c252.15 0 456.56 204.41 456.56 456.57" class="st6"/><path d="M1231.6 1316.93c-.36-10.8-1.3-21.55-2.72-32.24-2.82-21.4-7.71-42.44-13.73-63.1l-.5-1.71-.07.02c-6.04-20.29-13.2-40.23-21.1-59.84-4.05-10.09-8.29-20.09-12.66-30.04-2.22-5.01-4.55-9.87-6.81-14.81l-6.85-14.76c-9.41-19.64-19.44-38.89-29.96-57.91-10.45-18.89-21.39-37.51-32.7-55.89v-.01l-.21-.35c-29.32-47.74-60.99-93.95-92.94-139.89l-1.14-1.63-.99 1.72c-23.91 41.49-49.64 81.91-75.67 122.13l1.86 1.2 20.81-29.36c6.89-9.82 13.8-19.64 20.54-29.57 13.46-19.88 20.58-30.3 33.37-50.69l39.74 61.44 11.02 17.78 10.89 17.84c7.15 11.7 14.18 23.47 21.05 35.31l.32.56c10.83 18.63 21.27 37.45 31.2 56.49 4.96 9.53 9.8 19.1 14.49 28.74l7.01 14.45 3.41 7.23 3.29 7.12 6.58 14.89 3.29 7.44 1.65 3.72.71 1.63.78 1.86c4.13 9.89 8.12 19.81 11.91 29.77 7.59 19.92 14.39 40.02 19.95 60.3l.66 2.41c2.46 9.23 4.71 18.48 6.67 27.75 2.09 10.08 3.85 20.21 5.02 30.29 1.22 10.12 1.98 20.23 2.2 30.3.16 10.06-.24 20.06-1.27 29.94-1.02 9.87-2.64 19.64-5.07 29.15-2.39 9.5-5.5 18.86-9.2 27.77l-2.79 6.35c-1.07 2.26-2.36 4.76-3.53 7.13l-.89 1.8-.72 1.23-1.85 3.16-3.67 6.33c-1.13 2.16-2.59 4.15-3.95 6.19l-4.12 6.1c-1.3 2.07-2.86 4-4.4 5.93l-4.57 5.82c-6.27 7.63-12.99 14.94-20.24 21.75-3.44 3.58-7.38 6.67-11.13 9.95-3.7 3.35-7.74 6.29-11.72 9.3-2.01 1.48-3.94 3.06-6 4.47l-6.25 4.15-6.24 4.15-6.48 3.77-6.48 3.79c-2.18 1.21-4.44 2.28-6.67 3.43-4.45 2.26-8.88 4.59-13.52 6.45-4.59 1.95-9.1 4.11-13.84 5.68-4.7 1.62-9.3 3.6-14.11 4.84l-7.15 2.11-3.57 1.06-3.62.81-7.23 1.63-3.62.82c-1.2.27-2.33.38-3.5.58l-6.94 1.09c-2.32.36-4.52.82-7.34 1l-8.01.74-4.01.38-.89.08-.37.02-1.92.1c-7.18.36-14.38.48-21.56.49 6.2-39.69 11.95-62.78 30.33-131.12.02-.08.3-1.13.43-1.62.59-.14 1.98-.5 1.98-.5 41.22-10.81 77.17-53.89 99.86-87.73l.04-.04c16.01-23.87 25.43-43.13 25.43-43.13-44.25 53.1-82.88 81.28-107.19 94.17l-.01.01c-5.37 2.84-10.03 4.94-13.91 6.42.35-1.19 1.45-6.12 2.96-13.51 5.91-28.97 18.33-96.27 18.53-129.38 56.1-37.45 67.79-116.9 67.79-116.9-2.39-.22-14.97 40.83-65.63 80.85-.15-7.66-.38-15.19-.64-22.59 0-.05 0-.1-.01-.15-1.16-33-3.19-63.25-5.42-89.35l-.01-.01c-5.03-58.66-11.17-96.28-11.17-96.28s-4.87 38.98-8.17 95.1c-1.96 33.51-3.38 73.14-2.86 114.22-47.67-44.68-59.66-89.69-62-89.8 0 0 6.24 83.93 61.07 126.12-.43 4.35-.92 8.76-1.46 13.22 0 .05-.02.15-.02.21-4.11 34.72-10.8 71.39-16.75 97.44v.03c-2.37 10.27-4.6 18.89-6.51 25.09-2.75-1.86-42.74-27.93-80.29-81.06a.673.673 0 0 0-.07-.11c-.08-.1-34.31-60.11-34.31-60.11s6.57 21.73 18.66 50.01c0 .02.02.05.02.05 18.23 42.6 48.99 99.96 88.79 120.15-6.55 21.51-13.31 36-19.83 53.52-.02.07-.05.15-.08.21-5.67 15.29-19.3 63.29-24.61 85.39-12.98-1.5-25.82-3.74-37.94-7.16-6.61-1.86-13.17-4.13-18.93-6.74-1.37-.66-2.49-1.07-4.34-2.08l-2.54-1.32-2.13-1.17-5.01-2.75-2.5-1.37-.59-.32-1.02-.67c-5.74-3.5-11.12-7.66-16.37-12-5.19-4.42-10.06-9.27-14.73-14.34-4.52-5.2-8.94-10.54-12.92-16.22-3.93-5.71-7.73-11.56-10.95-17.73-1.7-3.04-3.15-6.2-4.67-9.33-1.41-3.19-2.85-6.39-3.97-9.42-.6-1.52-1.22-3.02-1.83-4.93l-1.66-4.86-1.59-5.49-.66-2.33-.67-2.57c-3.52-13.76-5.71-28-6.45-42.15-.77-13.95.39-28.48 2.13-43.14.89-7.35 1.89-14.75 2.99-22.26.96-6.52 2.72-13.78 4.54-20.94 3.73-14.41 8.03-28.93 12.48-43.37 2.24-7.17 4.53-14.57 6.87-21.42 2.29-6.48 5.27-13.47 8.3-20.28 12.24-27.44 25.64-54.8 39.7-81.62 3.52-6.7 7.11-13.41 10.75-19.98l5.56-9.93 5.62-9.9 23.23-39.3c7.8-13.1 15.56-26.23 23.2-39.44l23.04-39.53-1.87-1.19-49.56 76.85-24.74 38.47c-8.12 12.91-15.89 26.05-23.4 39.33-7.52 13.27-14.83 26.67-21.94 40.16-7.09 13.5-14.06 27.08-20.61 40.87-3.27 6.91-6.46 13.84-9.23 21.04-2.66 7.19-5.08 14.41-7.54 21.63-4.86 14.46-9.56 28.98-13.76 43.67-2.06 7.36-4.09 14.74-5.44 22.37-1.29 7.51-2.54 15.05-3.61 22.62-2.07 15.13-3.63 30.45-3.1 45.83.49 15.35 2.56 30.63 6.06 45.58 3.4 14.9 8.74 29.57 15.75 43.22 6.98 13.71 15.71 26.51 25.79 38.13 5.13 5.73 10.53 11.23 16.33 16.31 5.86 4.99 11.92 9.78 18.45 13.89 3.35 2.2 6.65 3.83 9.98 5.78 3.39 1.94 6.65 3.68 10.24 5.36 7.02 3.29 14.29 5.87 21.67 8.06 12.92 3.81 26.14 6.29 39.44 8.05l-15.07 74.11c-1.68 5.21-3.4 10.42-5.19 15.59l-.61 1.76 1.69.73c5.74 2.47 11.51 4.67 17.43 6.61 5.93 1.9 11.94 3.63 18.33 4.36 3.2.28 6.53.54 10.13-.86 1.77-.7 3.63-2.4 4.2-4.51.56-2.22.39-3.53.52-5.1.37-6.01 1.01-12.16 1.62-18.25 1.12-10.71 2.36-21.41 3.62-32.1l8.63-39.21c8.84.1 17.69.02 26.53-.38 5.54-.26 10.74-.88 16.13-1.3 2.67-.15 5.36-.63 8.04-1.07l8.06-1.29c10.67-1.98 21.17-4.55 31.49-7.84 5.23-1.4 10.21-3.55 15.31-5.34 5.12-1.74 10-4.07 14.96-6.21 5.01-2.06 9.79-4.58 14.59-7.06 2.4-1.25 4.83-2.42 7.18-3.74l6.98-4.12 6.98-4.12 6.73-4.52 6.72-4.52c2.22-1.54 4.32-3.25 6.48-4.87 4.3-3.28 8.65-6.48 12.66-10.13 4.05-3.57 8.28-6.96 12.03-10.85 7.84-7.45 15.14-15.45 21.96-23.84l4.98-6.4c1.67-2.13 3.35-4.25 4.79-6.54l4.51-6.75c1.49-2.25 3.08-4.45 4.33-6.86 2.61-4.75 5.46-9.33 7.86-14.24 1.16-2.42 2.36-4.81 3.48-7.26l3.21-7.5a219.67 219.67 0 0 0 9.83-30.93c2.55-10.52 4.2-21.24 5.18-32 .99-10.76 1.29-21.58.98-32.37m-803.74-99.92c25.07 4.77 45.52-4.14 50.16-28.5 4.64-24.36-11.1-40.16-36.17-44.94-25.08-4.77-45.52 4.14-50.16 28.5-4.64 24.37 11.09 40.17 36.17 44.94m-4.78 25.08c-39.41-7.51-60.25-38.39-53.43-74.21 6.82-35.82 37.56-56.88 76.96-49.38 39.4 7.5 60.25 38.39 53.43 74.21-6.82 35.82-37.55 56.88-76.96 49.38m3.32-189.38 35.46 15.85 6.99-15.65c8.63-19.31 2.83-26.89-7.65-31.58-10.82-4.84-19.25-3.41-27.43 14.9zm119.18-1.66-54.07 4.79-9.67 21.64 43.28 19.35-9.53 21.31-116.52-52.08 19.05-42.62c10.05-22.48 26.26-36.4 51.56-25.09 17.98 8.04 23.19 20.95 25.1 34.99l60.7-4.43zm-40.3-62.24c-32.12-23.7-37.66-60.42-15.47-90.48 7.36-9.98 19.56-21.59 28.74-26.37l16.38 15.26c-9.07 5.54-20.05 14.89-26.76 23.98-15.8 21.42-7.99 42.14 11.96 56.86 20.98 15.48 43.69 15.71 59.38-5.57 3.14-4.25 6.13-9.53 8.78-15.27l-18.33-13.53-8.34 11.3-15.55-11.48 22.19-30.07 45.76 33.77c-1.26 10.62-9.54 29.21-18.2 40.94-21.2 28.75-58.12 34.59-90.54 10.66m107.44-162.78 14.01 37.05 20.23-17.02zm83.14 48.7-28.2-16.54-32.51 27.35 11.47 30.62-18.56 15.61-47.42-126.88 16.88-14.2 116.9 68.42zm107.31-60.64-90.87-52.95 38.47 78.59-20.96 10.26-56.1-114.62 20.63-10.1 85.18 50.05-36.22-74.01 20.96-10.26 56.1 114.62zm39.49-13.5-38.47-121.67 22.25-7.04 38.46 121.67zm28.62-76.3c-5.68-39.71 16.78-69.44 52.88-74.59 13.18-1.89 27.13-.93 36.97 2.27l.62 22.38c-11.06-2.65-21.24-4.33-34.42-2.45-24.55 3.51-34.39 23.52-30.78 48.78 3.61 25.27 18.67 41.72 43.22 38.21 13.17-1.88 22.49-6.34 32.36-11.99l5.68 21.66c-8.56 5.83-21.69 10.65-34.86 12.53-36.11 5.15-65.99-17.1-71.67-56.8m197.77-53.19-4.45 31.04 22.56 3.24c6.49.93 15.72-.51 17.47-12.6 1.89-13.17-4.53-17.23-15.18-18.75zm-7.07 49.26-5.41 37.71 22.74 3.27c14.8 2.12 24.83-1.04 26.88-15.3 2.1-14.62-7.21-20.37-20.2-22.24zm-31.33 54.08 18.13-126.32 34.1 4.89c29.06 4.17 47.72 11.45 43.7 39.42-1.63 11.37-6.15 19.74-14.43 24.82 13.81 7.69 19.96 17.42 17.66 33.47-4.2 29.24-29.33 33.73-50.45 30.7zm106.75 18.58 41.59-120.68 22.06 7.61-34.22 99.29 49.64 17.11-7.36 21.38zm80.58 29.33 62.32-111.34 71.26 39.89-11.04 19.72-50.42-28.23-13.27 23.7 39.13 21.91-11.04 19.72-39.12-21.9-15.95 28.47 52.02 29.12-11.04 19.72zm145.62 102.42 14.21-104.22-57.94 65.6-17.5-15.46 84.5-95.66 17.22 15.21-13.7 97.87 54.56-61.77 17.49 15.45-84.49 95.66zm128.16-12.54-67.99 47.2 13.93 20.06c14.14 20.37 34.34 21.66 55.31 7.11s26.82-33.93 12.69-54.3zm-99.72 40.81 104.83-72.77 27.23 39.24c20.79 29.95 16.4 65.18-16.55 88.05-32.95 22.87-67.49 14.67-88.28-15.28zm67.87 104.55 118.06-48.49 31.04 75.55-20.91 8.6-21.96-53.47-25.14 10.32 17.05 41.49-20.92 8.59-17.04-41.49-30.19 12.41 22.65 55.14-20.91 8.6zm143.82 94.85-81.5 14.48 4.27 24.05c4.34 24.41 22.15 34.03 47.28 29.57 25.13-4.47 38.55-19.63 34.21-44.04zm-107.66-4.58 125.66-22.32 8.35 47.03c6.38 35.9-12.33 66.08-51.82 73.09-39.49 7.02-67.45-14.86-73.83-50.76z" style="fill:#4c8c41"/><path d="M437.75 1409.3c3.89-1.23 7.24-3.21 10.05-5.93 3.74-3.91 5.03-9.16 3.86-15.76-1.67-9.42-7.49-15.03-17.43-16.84-5.27-.95-12.01-.69-20.2.77-7.81 1.39-13.93 3.42-18.35 6.09-8.28 4.91-11.6 11.98-9.96 21.21 1.16 6.54 3.75 10.87 7.76 12.98 4.01 2.12 8.87 2.98 14.59 2.56l5.07 28.48c-8.6.85-17.17-.79-25.71-4.92-13.76-6.58-22.16-18.46-25.22-35.63-3.06-17.17-.22-30.71 8.52-40.62 8.73-9.91 21.21-16.3 37.42-19.18 18.29-3.26 33.33-1.32 45.09 5.81 11.77 7.14 19.05 18.57 21.85 34.31 2.38 13.38 1.33 24.87-3.15 34.46-4.49 9.59-14.19 16.52-29.11 20.79zm.19 129.5c7.13 1.86 15.72.73 25.75-3.39 10.03-4.13 16.91-9.36 20.64-15.69 3.73-6.34 4.02-13.33.86-20.99-3.15-7.66-8.28-12.45-15.4-14.35-7.11-1.91-15.69-.8-25.72 3.33-10.04 4.12-16.92 9.37-20.67 15.75-3.75 6.38-4.04 13.4-.89 21.06 3.15 7.65 8.29 12.41 15.43 14.28m-5.86 26.91c-13.92-4.16-24.41-14.85-31.5-32.07-7.08-17.21-7.14-32.2-.18-44.95s17.79-22.14 32.48-28.19c14.45-5.94 28.71-6.86 42.77-2.76 14.07 4.1 24.65 14.76 31.73 31.98 7.08 17.22 7.07 32.23-.05 45.05-7.11 12.81-17.9 22.19-32.34 28.13-14.69 6.03-29 6.97-42.91 2.81m146.62 65.72c-.73 9.17-6.66 17.66-17.78 25.45l-59.74 41.86-16.66-23.76 53.96-37.82c4.67-3.27 7.81-6.4 9.44-9.39 2.97-5.45 2.23-11.36-2.22-17.72-5.48-7.81-12.57-10.83-21.28-9.06-4.58.96-9.62 3.36-15.1 7.21l-48.02 33.65-16.26-23.19 88.55-62.06 15.74 22.47-12.94 9.07c6.64-.23 11.89.29 15.76 1.52 6.91 2.25 12.93 7.02 18.04 14.31 6.41 9.14 9.24 18.28 8.51 27.46m5.14 28.41 14.26-14.27 10.68 10.68 21.36-21.36 19.82 19.81-21.36 21.37 12.44 12.43-14.26 14.27-12.44-12.45-40.47 40.48c-3.14 3.14-4.7 5.5-4.67 7.06.02 1.57 2.07 4.4 6.15 8.47.61.6 1.26 1.24 1.97 1.89.7.66 1.41 1.28 2.11 1.9l-14.97 14.97-9.84-9.14c-9.79-9.14-14.62-17.24-14.48-24.31.05-4.54 2.46-9.21 7.24-13.98l47.15-47.16zm76.14 76.79c-5.66 1.02-10.96 4.1-15.9 9.24l39.67 28.41c3.96-6.42 5.23-12.52 3.83-18.31-1.4-5.8-4.82-10.64-10.26-14.53-5.9-4.24-11.68-5.84-17.34-4.81m48.7 4.78c4.17 7.15 6.14 15.13 5.89 23.93-.14 7.82-2.15 15.56-6.02 23.23-2.27 4.49-6.19 10.5-11.76 18.02l-64.15-45.94c-5.97 9.09-7.33 17.49-4.1 25.18 1.93 4.73 5.38 8.86 10.32 12.4 5.24 3.75 10.47 5.47 15.68 5.12 2.83-.18 5.86-1.06 9.08-2.66l23.51 16.83c-4.36 4.78-11.01 8.05-19.94 9.8-14.02 2.92-28.13-.71-42.34-10.88-11.72-8.39-19.47-19.41-23.26-33.05-3.79-13.65.15-28.6 11.81-44.89 10.93-15.26 23.35-24.06 37.27-26.41 13.92-2.35 27.33 1.09 40.24 10.34 7.68 5.51 13.59 11.82 17.77 18.98m111.61 59.69c4.18 8.19 3.57 18.53-1.81 30.99l-28.96 66.95-26.63-11.52 26.16-60.47c2.26-5.24 3.3-9.55 3.13-12.95-.33-6.21-4.05-10.85-11.17-13.93-8.75-3.79-16.38-2.64-22.88 3.43-3.4 3.23-6.43 7.9-9.08 14.05l-23.28 53.82-26-11.24 42.93-99.24 25.17 10.89-6.27 14.51c5.54-3.67 10.28-5.99 14.22-6.96 7.07-1.7 14.69-.79 22.86 2.75 10.22 4.41 17.43 10.72 21.61 18.92m19.24 21.54 4.73-19.61 14.68 3.54 7.08-29.37 27.24 6.57-7.08 29.37 17.1 4.12-4.73 19.61-17.1-4.12-13.42 55.65c-1.04 4.32-1.14 7.13-.3 8.46.84 1.33 4.06 2.66 9.66 4.02.84.2 1.72.4 2.66.59.94.2 1.87.37 2.79.52l-4.96 20.58-13.16-2.66c-13.12-2.68-21.46-7.08-25.03-13.19-2.34-3.9-2.71-9.14-1.12-15.71l15.63-64.83zm157.27 75.97c.74 5.02 2.14 8.56 4.19 10.62 3.63 3.68 10.21 5.38 19.72 5.12 5.59-.16 10.01-1.11 13.26-2.85 3.25-1.75 4.82-4.28 4.73-7.59-.09-3.18-1.48-5.56-4.18-7.14-2.7-1.58-12.65-4.15-29.86-7.72-12.39-2.7-21.16-6.27-26.33-10.71-5.16-4.36-7.86-10.78-8.09-19.26-.28-10 3.42-18.7 11.08-26.1 7.66-7.41 18.63-11.31 32.91-11.7 13.53-.38 24.64 2.02 33.32 7.17 8.68 5.16 13.83 14.34 15.46 27.56l-28.32.79c-.49-3.63-1.61-6.48-3.33-8.55-3.23-3.75-8.59-5.53-16.1-5.32-6.17.17-10.54 1.25-13.12 3.24-2.57 1.99-3.82 4.29-3.75 6.87.09 3.24 1.56 5.56 4.39 6.94 2.83 1.44 12.75 3.79 29.77 7.02 11.36 2.34 19.92 6.11 25.7 11.31 5.71 5.28 8.68 11.99 8.91 20.14.29 10.73-3.46 19.6-11.27 26.61-7.8 7.01-20.07 10.75-36.79 11.22-17.05.48-29.75-2.77-38.07-9.73-8.33-6.96-12.65-16-12.96-27.13zm78.92-57.03-3.85-19.81 14.83-2.88-5.77-29.66 27.51-5.35 5.77 29.65 17.27-3.35 3.85 19.8-17.27 3.36 10.92 56.19c.85 4.36 1.93 6.97 3.24 7.82 1.32.86 4.8.74 10.46-.36.84-.16 1.74-.35 2.67-.57.94-.21 1.86-.45 2.75-.69l4.04 20.78-13.07 3.05c-13.05 3.01-22.47 2.48-28.25-1.59-3.74-2.58-6.26-7.19-7.55-13.82l-12.72-65.46zm146.35-4.14a31.02 31.02 0 0 1-4.19 4.48c-1.49 1.29-3.64 2.78-6.46 4.46l-5.63 3.36c-5.29 3.1-8.91 5.82-10.85 8.17-3.28 3.97-3.98 8.51-2.08 13.6 1.68 4.53 4.17 7.34 7.47 8.4 3.31 1.08 6.79.93 10.44-.43 5.8-2.16 10.52-5.81 14.17-10.98 3.64-5.17 3.91-12.23.8-21.18zm-20.84-6.36c4.72-2.45 7.96-4.54 9.74-6.27 3.23-3.03 4.2-6.25 2.93-9.66-1.54-4.17-4.07-6.49-7.58-6.99-3.52-.49-8.11.3-13.78 2.41-6.36 2.36-10.28 5.59-11.77 9.67-1.04 3-1.15 6.57-.32 10.71l-25.62 9.52c-2.74-9.09-2.95-17.31-.64-24.67 3.73-11.56 14.17-20.53 31.32-26.9 11.16-4.14 21.91-5.62 32.21-4.42 10.31 1.19 17.74 7.9 22.28 20.14l17.29 46.58c1.2 3.23 2.71 7.12 4.54 11.67 1.47 3.41 2.88 5.58 4.21 6.49 1.33.92 3.02 1.46 5.05 1.62l1.46 3.92-28.89 10.72c-1.57-1.75-2.84-3.47-3.82-5.16-.98-1.68-1.99-3.64-3.03-5.87-2.21 5.34-5.21 10.31-8.98 14.89-4.52 5.43-10.41 9.48-17.66 12.18-9.24 3.43-17.86 3.64-25.83.63-7.98-3.01-13.76-9.33-17.33-18.96-4.64-12.48-3.14-23.32 4.48-32.51 4.19-5.02 11.2-10.1 21.04-15.23zm123.98-106.22c9.13 1.15 17.34 7.45 24.63 18.91l39.12 61.56-24.48 15.57-35.35-55.61c-3.06-4.81-6.04-8.1-8.95-9.85-5.32-3.22-11.25-2.74-17.8 1.42-8.05 5.11-11.39 12.07-10.01 20.84.76 4.62 2.93 9.76 6.52 15.41l31.45 49.48-23.9 15.2-58.01-91.26 23.15-14.71 8.48 13.34c.07-6.64.82-11.87 2.23-15.67 2.56-6.81 7.59-12.59 15.11-17.38 9.41-5.97 18.68-8.39 27.81-7.25m124.5-15.36c-1.31-7.16-5.33-14.07-12.07-20.73-9.43-9.32-18.52-13.59-27.28-12.84-5.34.5-9.92 2.69-13.73 6.55-5.82 5.89-7.87 12.41-6.14 19.57 1.73 7.16 5.89 14 12.49 20.52 7.11 7.03 14.19 11.25 21.22 12.66 7.03 1.41 13.37-.73 19.01-6.44 5.64-5.7 7.81-12.13 6.5-19.29m-59.78-49.3c5.63-1.59 11.38-1.74 17.25-.41l-36.76-36.33 20.18-20.43 104.06 102.83-19.35 19.58-10.67-10.55c1.73 7.39 1.81 13.95.26 19.68-1.56 5.72-5.04 11.32-10.44 16.79-8.89 9-20.02 12.98-33.38 11.93-13.35-1.04-25.74-7.2-37.14-18.47-13.15-13-20.5-26.24-22.06-39.76-1.56-13.5 2.67-25.32 12.68-35.45 4.61-4.66 9.73-7.8 15.37-9.41M1510 1591c-.02 2.14-.23 4.17-.63 6.1-.4 1.93-1.21 4.42-2.44 7.46l-2.44 6.08c-2.34 5.68-3.57 10.03-3.7 13.08-.2 5.15 1.99 9.18 6.58 12.09 4.09 2.59 7.77 3.31 11.04 2.16 3.28-1.15 5.96-3.37 8.05-6.67 3.31-5.23 4.85-11 4.62-17.32-.23-6.32-4.3-12.1-12.19-17.34zm-20.44 7.55c2.26-4.8 3.58-8.43 3.95-10.89.72-4.36-.45-7.52-3.53-9.46-3.74-2.37-7.17-2.69-10.27-.96-3.11 1.73-6.27 5.15-9.5 10.26-3.63 5.73-4.81 10.67-3.52 14.83.99 3.01 3.08 5.92 6.24 8.72l-14.62 23.09c-7.69-5.58-12.84-11.99-15.46-19.24-4.04-11.46-1.17-24.92 8.63-40.38 6.38-10.06 14.02-17.75 22.94-23.04 8.93-5.3 18.9-4.45 29.93 2.53l41.98 26.59c2.91 1.85 6.47 4.03 10.69 6.54 3.24 1.82 5.67 2.68 7.28 2.62 1.61-.08 3.28-.67 5.01-1.77l3.53 2.24-16.49 26.02c-2.3-.44-4.36-1.04-6.16-1.78-1.8-.75-3.79-1.69-5.97-2.84 1.48 5.59 2.11 11.35 1.88 17.28-.32 7.06-2.54 13.85-6.68 20.39-5.28 8.34-12 13.71-20.17 16.16-8.17 2.44-16.59.9-25.27-4.6-11.25-7.13-16.62-16.65-16.12-28.58.3-6.53 2.8-14.82 7.52-24.86zm17.7-137.69c.17-.32.52-1.06 1.07-2.19l26.82 11.09a81.2 81.2 0 0 0-2.19 4.26c-.59 1.26-1.06 2.29-1.38 3.09-4.35 10.53-3.85 19.02 1.51 25.46 3.03 3.62 8.55 7.08 16.57 10.4l47.84 19.79-10.9 26.35-100.11-41.4 10.33-24.98 17.45 7.22c-5-6.8-8.11-12.21-9.31-16.22-2.07-6.59-1.49-13.81 1.75-21.65.2-.49.39-.9.55-1.22m98.96-60.16c-4.96-5.33-12.08-8.98-21.34-10.96-12.96-2.77-22.92-1.47-29.89 3.88-4.22 3.3-6.9 7.61-8.04 12.92-1.74 8.1.06 14.7 5.37 19.79 5.32 5.1 12.51 8.62 21.59 10.55 9.78 2.09 18.02 1.84 24.7-.77 6.69-2.6 10.87-7.83 12.54-15.66 1.66-7.85.02-14.43-4.93-19.75m-76.93-9.32c3.88-4.39 8.65-7.6 14.3-9.65l-50.53-10.79 5.99-28.09 143.07 30.55-5.75 26.92-14.68-3.14c5.44 5.3 9.05 10.78 10.82 16.43 1.77 5.67 1.85 12.26.25 19.77-2.65 12.38-9.87 21.72-21.69 28.04-11.81 6.32-25.56 7.81-41.24 4.46-18.08-3.86-31.41-11.06-40-21.6-8.59-10.54-11.4-22.78-8.43-36.71 1.38-6.4 4.01-11.8 7.89-16.19" class="st6"/><path d="M626.95 1992.13c-7.06 9.75-18.63 10.6-28.85 5.14-14.02-7.48-17.35-21.84-9.93-35.76 7.43-13.92 21.21-19.16 35.24-11.67 10.21 5.45 16.06 15.33 11.79 26.82l-6.19-3.3c1.77-6.08-1.28-13.26-8.91-17.34-9.69-5.17-19.96-.58-25.13 9.12-5.17 9.7-3.27 20.78 6.42 25.95 7.63 4.07 15.31 2.6 19.36-2.26zm14.82-2.44c9.46-17.74 3.09-39.55-14.34-48.85-17.43-9.3-39.1-2.45-48.57 15.3-9.46 17.73-3.09 39.55 14.35 48.85 17.42 9.29 39.09 2.44 48.56-15.3m-11.04-55.04c21.14 11.28 29.12 37.53 17.85 58.67-11.28 21.14-37.53 29.13-58.67 17.86-21.15-11.28-29.13-37.53-17.85-58.67 11.27-21.15 37.52-29.14 58.67-17.86m92.82 43.93-5.22 12.76-16.88-6.9-26.37 64.48-15.58-6.38 26.37-64.47-16.88-6.91 5.22-12.76zm15.6 52.38c2.7-9.2 3.29-14.67-3.03-16.78-6.1-2.04-9.98 3.69-11.83 9.23l-.78 2.33zm-18.67 3.88-1.59 4.77c-2.33 6.98-2.75 14.49 2.91 16.37 5.1 1.7 8.5-1.47 11.84-8.5l13.74 4.59c-5.18 13.68-14.42 19.22-28.83 14.41-22.18-7.4-17.36-24.77-12.4-39.63 5.32-15.96 13.38-29.79 34.01-22.9 17.85 5.96 17.85 19.26 11.74 37.56l-1.15 3.44zm81.13-11.56 16.31 4.13-23.35 25.55 8.6 35.58-16.32-4.13-4.01-22.23-14.12 17.64-16.32-4.13 24.5-27.2-8.39-33.59 16.33 4.13 3.73 20.48zm33.85-10.99 15.85 2.97-3.31 17.69 9.2 1.72-2.02 10.8-9.2-1.72-6.26 33.43c-.9 4.83-.23 6.97 4.36 7.84 1.27.23 2.55.36 3.61.43l-2.06 11.03c-3.52-.3-6.79-.56-10.48-1.25-12.4-2.32-13.99-6.54-11.65-19.07l6.62-35.38-8.04-1.51 2.02-10.8 8.04 1.5zm35.18 2.57 15.98 2.23-1.91 13.66-15.98-2.23zm-2.97 21.31 15.98 2.23-8.69 62.28-15.98-2.23zm34.25-16.32 16.05 1.55-8.05 83.07-16.06-1.56zm58.75 48.94c.02-9.59-.94-15.01-7.6-15.27-6.42-.25-8.55 6.34-8.77 12.18l-.1 2.46zm-16.83 8.94-.2 5.02c-.29 7.36 1.41 14.67 7.37 14.91 5.37.21 7.75-3.79 8.99-11.47l14.48.56c-1.15 14.58-8.48 22.48-23.66 21.89-23.36-.9-23.59-18.93-22.99-34.58.65-16.81 4.53-32.34 26.26-31.5 18.8.73 22.51 13.51 21.77 32.78l-.14 3.62zm46.19-53.3 43.1-1.5.32 9.11-32.83 1.15.92 26.16 30.95-1.08.31 9.12-30.95 1.08 1.04 29.9 34.22-1.2.33 9.12-44.51 1.55zm53.98 18.53 10.7-1.13 13.62 21.01 9.05-23.4 10.69-1.13-13.12 31.59 20.28 30.65-10.69 1.14-15.04-23.34-9.38 25.91-10.69 1.13 13.66-34.24zm88.28 7.25c-1.05-5.99-4.66-12.36-12.02-11.07-5.99 1.05-11.57 5.11-7.62 27.67 1.41 8.07 4.35 24.17 15.98 22.13 8.29-1.45 8.6-10.52 7.43-17.19l9.67-1.7c1.72 9.79-.8 23.87-16.23 26.57-15.08 2.64-23.24-6.72-26.95-27.91-2.7-15.43-2.83-33.8 16.17-37.12 16.81-2.94 22.01 9.8 23.25 16.93zm15.3-43.65 9.52-2.39 6.81 27.1.22-.06c1.24-5.61 7.05-10.81 12.48-12.18 15.65-3.93 18.69 8.2 20.49 15.34l10.82 43.08-9.52 2.39-10.54-41.94c-1.17-4.64-3.42-12.16-12.03-9.99-5.1 1.28-11.16 6.42-8.94 15.26l10.54 41.94-9.52 2.39zm97.52 23.37c-2.23 4.81-10.17 8.31-13.55 12.26-2.37 2.88-3.14 5.73-1.42 10.94 1.99 5.99 5.5 9.51 11.82 7.41 6.1-2.03 10.25-9.19 8.22-15.3zm-31.75.45c-4.5-13.54-.71-21.44 13.48-26.15 18.08-6 21.69 4.87 23.75 11.08l11.01 33.17c.81 2.44 1.58 4.77 4.47 3.82 1.22-.4 1.7-.81 2.04-1.29l2.21 6.66c-.63.33-2.92 1.58-5.26 2.35-3.55 1.18-7.98 2.65-10.96-4.86l-.22.08c-1.23 6.32-5.93 11.45-11.48 13.29-11.1 3.68-18.41-1.28-21.94-11.93-2.76-8.32-1.13-15.27 5.76-20.14l11.28-7.94c6.07-4.35 5.45-6.24 3.79-11.23-1.84-5.55-6.23-7.66-12.45-5.6-10.21 3.39-7.04 12.93-6.34 15.04l.19.55zm48.34-36.63 8.64-3.6 2.83 6.8.21-.1c.17-6.27 4.95-11.81 10.57-14.15 15.21-6.34 20.02 5.21 22.85 12l17.09 41-9.07 3.78-16.63-39.92c-1.84-4.42-5.18-11.52-13.37-8.11-4.86 2.02-10.09 8-6.58 16.42l16.63 39.92-9.06 3.78zm74.66 1.4c4.61 9.06 11.74 19.73 20.49 15.29 9.49-4.82 6.8-14.74.98-26.2-5.51-10.83-13-20.93-22.38-16.17-8.14 4.13-5.87 13.74.91 27.08m42.08 9.28c8.48 16.67 3.84 26.64-7.41 32.36-3.44 1.75-16.88 8.58-25.44-4.64l8.75-4.45c3.01 4.89 7.98 4.85 12.56 2.53 11.25-5.72 6.44-14.16 4.48-18.01l-3.71-7.29-.2.1c.5 5.64-3.28 11.1-8.8 13.91-16.26 8.26-27.73-11.73-31.49-19.13-7.68-15.11-10.88-31.45 3.29-38.66 6.05-3.07 13.06-1.39 16.43 2.4l.21-.1-3.6-7.08 8.34-4.24zm27.45-55.35-1.75-2.9c-3.63-6-9.83-11.95-17.23-7.47-8.8 5.32-3.26 16.73-1.33 19.93l1.21 2zm-15.4 18.35c4.97 8.19 12.47 20.59 22.77 14.36 7.99-4.84 4.01-13.91 1.59-17.9l8.39-5.09c3.45 5.7 8.1 21.05-6.5 29.89-13.1 7.93-24.1 2.16-35.24-16.24-8.11-13.4-14.89-30.47 1.61-40.46 16.4-9.93 26.55 3.46 33.51 14.96l2.06 3.41z" style="fill:#484546"/></svg>