<svg xmlns="http://www.w3.org/2000/svg" xmlns:xlink="http://www.w3.org/1999/xlink" xml:space="preserve" id="Ebene_1" width="140" height="140" x="0" y="0" style="enable-background:new 0 0 2000 3000" version="1.1" viewBox="0 450 2000 2000"><style>.st1{font-family:&quot;MyriadPro-Regular&quot;}.st2{font-size:100px}.st4{fill:#fff}</style><path d="M22.22 1888.65h1955.56v381.93H22.22z" style="fill:none"/><text transform="translate(663.955 1959.646)"><tspan x="0" y="0" class="st1 st2">MADE IN GREEN</tspan><tspan x="44.4" y="120" class="st1 st2">CMD6N54YEZ</tspan><tspan x="-10.25" y="240" class="st1 st2">Hohenstein HTTI</tspan></text><defs><path id="SVGID_1_" d="M75.82 1568.63h853.06V715.56H75.82z"/></defs><clipPath id="SVGID_00000119831404373545596010000017576293147311482499_"><use xlink:href="#SVGID_1_" style="overflow:visible"/></clipPath><path d="M201.54 1443.04c91.55 91.44 205.91 125.58 303.08 125.58 118.55 0 237.97-47.96 312.12-133.16 74.12-85.2 112.12-192.67 112.12-344.75V715.55H553.78c-154.79 0-253.56 47.29-306.08 82.4-54.48 36.43-150.87 134.17-169.11 293.07-14.35 125.37 26.81 255.85 122.95 352.02" style="clip-path:url(#SVGID_00000119831404373545596010000017576293147311482499_);fill:#5ba487"/><path d="M356.23 1109.91c12.31-14.61 18.44-34.86 18.44-60.69 0-25.52-5.99-45.36-17.96-59.54-11.97-14.16-29.02-21.24-51.15-21.24-14.55 0-27.14 3.19-37.8 9.57-10.69 6.41-18.94 15.75-24.82 28.15-5.88 12.37-8.81 26.81-8.81 43.31 0 16.65 2.66 31.2 8 43.65 5.32 12.45 13.18 22.02 23.53 28.71 10.35 6.69 23.03 10.04 38.05 10.04 22.72.01 40.24-7.32 52.52-21.96m-79.43-18.55c-6.49-10.04-9.74-24.01-9.74-41.89 0-17.77 3.24-31.42 9.74-40.99 6.49-9.57 16-14.35 28.54-14.35 11.92 0 20.99 4.79 27.25 14.35 6.27 9.57 9.4 23.22 9.4 40.99 0 18.05-3.22 32.04-9.63 42-6.44 9.96-15.67 14.97-27.73 14.97-12.05 0-21.34-5.03-27.83-15.08m226.21 32.7c.08-1.18.11-2.6.11-4.31 0-5.32-1.68-9.4-4.98-12.26-3.33-2.88-8.09-4.34-14.27-4.34h-49.64v-43.2h49.16V1035h-49.16v-38.53h45.69c7.11 0 12.17-1.23 15.19-3.72 3.02-2.49 4.53-6.72 4.53-12.62 0-3.41-.25-6.29-.7-8.65h-96.73v156.44h100.42c.19-1.43.3-2.69.38-3.86m54.16-75.54c.62 7.95 4.42 16.42 11.36 25.46l34.11 44.35c6.18 8.09 14.47 12.14 24.82 12.14 6.18 0 12.31-1.79 18.33-5.37l-57.75-78.68 51.26-68.86c-2.18-2.18-4.92-3.89-8.23-5.15-3.36-1.23-6.86-1.85-10.58-1.85-4.31 0-8.23 1.01-11.7 3.02-3.47 2.02-6.94 5.2-10.32 9.57l-31.79 42.03c-3.11 4.06-5.37 7.67-6.85 10.86-1.46 3.19-2.35 6.41-2.66 9.68v-56.97c0-12.14-6.88-18.19-20.65-18.19-2.46 0-6.18.36-11.14 1.15v156.19h31.79zm214.78-58.83c-11.98-14.16-29.02-21.24-51.15-21.24-14.52 0-27.11 3.19-37.8 9.57-10.66 6.41-18.94 15.75-24.82 28.12-5.88 12.4-8.81 26.83-8.81 43.31 0 16.68 2.66 31.23 8 43.68s13.18 22.02 23.53 28.71c10.38 6.69 23.06 10.05 38.05 10.05 22.75 0 40.26-7.33 52.55-21.96 12.28-14.61 18.44-34.86 18.44-60.69.01-25.53-5.98-45.37-17.99-59.55m-24.34 101.79c-6.41 9.96-15.67 14.94-27.73 14.94s-21.35-5.01-27.84-15.05c-6.46-10.05-9.74-24.01-9.74-41.91 0-17.74 3.27-31.39 9.74-40.96 6.49-9.57 16.03-14.35 28.54-14.35 11.92 0 20.99 4.78 27.25 14.35 6.27 9.57 9.4 23.22 9.4 40.96.01 18.04-3.21 32.06-9.62 42.02m-13.24 92.27c-21.63 0-39.23 17.71-39.23 39.48 0 21.8 17.6 39.51 39.23 39.51 21.66 0 39.26-17.71 39.26-39.51 0-21.77-17.6-39.48-39.26-39.48m0 69.84c-16.62 0-30.14-13.63-30.14-30.36 0-16.73 13.52-30.36 30.14-30.36 16.65 0 30.19 13.63 30.19 30.36.01 16.74-13.54 30.36-30.19 30.36" class="st4"/><path d="M744.11 1224.04c.87-.64 1.68-1.4 2.38-2.32.7-.95 1.29-2.07 1.65-3.27.36-1.23.56-2.66.56-4.31 0-3.86-1.29-6.71-3.89-8.62-2.55-1.9-6.63-2.83-12.26-2.83-1.45 0-3.05.03-4.87.11-1.79.14-3.55.25-5.34.45v38.61h8v-14.63h3.19l6.55 11.3c.81 1.37 1.68 2.35 2.66 2.97.92.64 2.13.95 3.55.95.73 0 1.48-.11 2.35-.25.81-.17 1.54-.45 2.29-.76l-9.57-16c.99-.31 1.91-.79 2.75-1.4m-5.65-3.87c-1.32 1.09-3.16 1.71-5.46 1.71h-2.71v-13.43c.36-.06.75-.06 1.29-.11.5-.03 1.03-.03 1.79-.03 2.18 0 3.89.48 5.18 1.45 1.23 1.01 1.9 2.69 1.9 5.12 0 2.38-.67 4.15-1.99 5.29m-425.45-35.44c-6.01 0-10.83 1.51-14.38 4.56-3.55 3.02-5.34 7.11-5.34 12.26 0 3.41.22 6.52.7 9.35h48.49v130.25h32.01V1210.9h29.24c6.01 0 10.69-1.46 14.02-4.34s4.98-6.8 4.98-11.78c0-3.41-.22-6.77-.7-10.05zm210 131.67h-49.64v-43.2h49.16v-24.96h-49.16v-38.53h45.69c7.11 0 12.17-1.26 15.19-3.72 3.02-2.49 4.53-6.71 4.53-12.62 0-3.44-.25-6.3-.7-8.65h-96.73v156.44h100.42c.17-1.43.28-2.69.36-3.86.08-1.17.11-2.6.11-4.34 0-5.29-1.68-9.37-4.98-12.23-3.31-2.9-8.07-4.33-14.25-4.33m161.13-127.93c-5.88-3.11-11.53-4.67-16.93-4.67-4.95 0-9.01 1.04-12.2 3.05-3.16 2.02-6.29 5.68-9.37 10.97l-22.97 39.68-22.5-42.25c-3.86-7.64-10.04-11.44-18.58-11.44-5.71 0-12.42 1.73-20.17 5.15l40.82 74.23-45.92 77.98h34.81l29.69-51.6 23.87 39.9c3.11 5.29 6.38 9.01 9.88 11.11 3.47 2.1 7.92 3.16 13.35 3.16 5.71 0 11.81-1.18 18.33-3.53l-45.24-78.2z" class="st4"/><path d="M1631.94 1733.42v-38.53c0-4.98-1.09-9.23-3.22-12.76-2.15-3.53-5.04-6.27-8.67-8.14-3.61-1.9-7.69-2.85-12.26-2.85-4.53 0-8.67 1.01-12.37 2.97-3.72 1.99-6.72 4.76-9.04 8.28-2.32 3.53-3.61 7.78-3.86 12.76l9.49 2.41c0-2.43.53-4.5 1.57-6.18 1.06-1.71 2.46-2.99 4.17-3.86 1.73-.89 3.75-1.34 6.02-1.34 3.19 0 5.88 1.01 8.09 2.99 2.18 1.96 3.27 4.73 3.27 8.25v36.01h16.81zm-39.93 0v-39.28c0-4.73-1.01-8.79-3.02-12.2-2.04-3.41-4.76-6.07-8.23-7.95-3.44-1.9-7.28-2.85-11.5-2.85-4.45 0-8.45.95-12 2.85-3.53 1.87-6.32 4.56-8.39 8-2.07 3.47-3.08 7.56-3.08 12.26l6.44 3.3c0-2.43.53-4.5 1.57-6.18 1.06-1.71 2.46-2.99 4.17-3.86 1.74-.89 3.69-1.34 5.88-1.34 3.3 0 6.02 1.01 8.23 2.99 2.18 1.96 3.27 4.73 3.27 8.25v36.01zm-39.78-61.03h-16.54v61.03h16.54zm-70.01 44.74c-2.35-1.46-4.2-3.38-5.48-5.82-1.31-2.43-1.96-5.26-1.96-8.48 0-3.19.64-6.02 1.96-8.45 1.29-2.43 3.13-4.37 5.48-5.74 2.35-1.4 5.06-2.1 8.09-2.1 3.11 0 5.85.7 8.14 2.1 2.32 1.37 4.17 3.3 5.57 5.74 1.4 2.44 2.07 5.26 2.07 8.45 0 3.22-.64 6.04-1.93 8.48-1.32 2.44-3.16 4.37-5.57 5.82-2.41 1.43-5.18 2.13-8.28 2.13-3.03 0-5.74-.7-8.09-2.13m24.9 13.43c4.95-2.8 8.87-6.66 11.72-11.56 2.88-4.87 4.31-10.3 4.31-16.28 0-5.99-1.46-11.36-4.36-16.17-2.91-4.81-6.83-8.59-11.75-11.36-4.92-2.8-10.49-4.17-16.73-4.17-6.16 0-11.67 1.4-16.62 4.23-4.93 2.83-8.81 6.6-11.67 11.36-2.88 4.76-4.31 10.13-4.31 16.12 0 6.07 1.43 11.53 4.31 16.37 2.85 4.84 6.74 8.67 11.67 11.47 4.95 2.83 10.46 4.25 16.62 4.25 6.24 0 11.83-1.43 16.81-4.26m-65.89 1.54c4.09-1.82 7.58-4.42 10.55-7.78l-10.63-10.74c-1.68 1.85-3.61 3.27-5.79 4.23-2.21.98-4.67 1.45-7.47 1.45-3.02 0-5.74-.7-8.14-2.13-2.41-1.46-4.28-3.38-5.62-5.82-1.34-2.43-2.02-5.26-2.02-8.48 0-3.19.67-6.02 2.02-8.45 1.34-2.43 3.22-4.37 5.62-5.74 2.41-1.4 5.12-2.1 8.14-2.1 2.71 0 5.18.48 7.39 1.4 2.24.92 4.11 2.29 5.62 4.17l10.88-10.88c-3.05-3.36-6.57-5.9-10.63-7.64-4.03-1.71-8.45-2.57-13.26-2.57-6.21 0-11.83 1.37-16.79 4.17-4.98 2.77-8.9 6.57-11.75 11.42-2.85 4.84-4.31 10.3-4.31 16.37 0 5.9 1.46 11.28 4.31 16.12 2.85 4.84 6.77 8.67 11.75 11.47 4.95 2.83 10.52 4.25 16.68 4.25 4.86 0 9.36-.93 13.45-2.72m-60.92-.39c1.99-2.07 2.97-4.56 2.97-7.53 0-3.02-.98-5.51-2.97-7.5-1.99-1.99-4.45-2.97-7.39-2.97-3.13 0-5.65.98-7.58 2.97-1.93 1.99-2.91 4.48-2.91 7.5 0 2.97.98 5.46 2.91 7.53s4.45 3.11 7.58 3.11c2.95 0 5.41-1.04 7.39-3.11m-30.38-59.32h-18.58l-14.52 22.5 9.71 11.11zm-44.1 61.03 15.67-23.62-9.49-11.25-24.87 34.86h18.69zm45.22 0-25.01-36.37-3.27-2.29-14.77-22.36h-19.73l23.9 33.86 3.27 2.55 16.17 24.62h19.44zm-83.38-1.26c4.23-1.76 7.86-4.42 11-7.97l-9.85-9.85c-1.88 2.21-4.06 3.8-6.58 4.81-2.52 1.01-5.34 1.51-8.48 1.51-3.44 0-6.46-.73-9.09-2.15-2.6-1.43-4.59-3.5-5.99-6.24-1.4-2.74-2.1-5.96-2.1-9.68 0-3.61.67-6.74 1.96-9.4 1.31-2.66 3.19-4.7 5.62-6.13 2.46-1.43 5.32-2.15 8.59-2.15 3.13 0 5.74.64 7.83 1.9 2.1 1.26 3.75 3.11 4.93 5.57 1.18 2.43 1.82 5.46 1.9 9.09l6.83-5.18-43.7.11v12.4l51.4-.14c.34-1.34.56-2.57.64-3.72.08-1.15.11-2.27.11-3.36 0-5.88-1.26-11.17-3.78-15.78-2.52-4.65-6.07-8.25-10.6-10.86-4.56-2.63-9.71-3.92-15.42-3.92-6.07 0-11.56 1.37-16.43 4.17-4.9 2.77-8.73 6.55-11.56 11.36s-4.23 10.24-4.23 16.28c0 6.16 1.43 11.64 4.28 16.42 2.85 4.81 6.8 8.59 11.81 11.39 5.01 2.77 10.72 4.17 17.12 4.17 4.97.01 9.56-.89 13.79-2.65m-52.83-59.77h-45.1v14.52h45.1zm-14.27-25.38h-16.54v86.4h16.54zm-40.43 46.62h-43.71v15.17h43.71zm-99.7 23.5c-2.35-1.46-4.17-3.38-5.48-5.82-1.31-2.43-1.96-5.26-1.96-8.48 0-3.19.64-6.02 1.96-8.45 1.32-2.43 3.13-4.37 5.48-5.74 2.38-1.4 5.07-2.1 8.09-2.1 3.13 0 5.85.7 8.17 2.1 2.29 1.37 4.17 3.3 5.54 5.74 1.4 2.44 2.1 5.26 2.1 8.45 0 3.22-.67 6.04-1.96 8.48-1.31 2.44-3.16 4.37-5.57 5.82-2.41 1.43-5.15 2.13-8.28 2.13-3.02 0-5.71-.7-8.09-2.13m24.91 13.43c4.95-2.8 8.87-6.66 11.75-11.56 2.85-4.87 4.28-10.3 4.28-16.28 0-5.99-1.46-11.36-4.37-16.17-2.88-4.81-6.8-8.59-11.72-11.36-4.92-2.8-10.52-4.17-16.76-4.17-6.13 0-11.67 1.4-16.59 4.23-4.93 2.83-8.84 6.6-11.7 11.36-2.85 4.76-4.28 10.13-4.28 16.12 0 6.07 1.43 11.53 4.28 16.37 2.85 4.84 6.77 8.67 11.7 11.47 4.92 2.83 10.46 4.25 16.59 4.25 6.24 0 11.84-1.43 16.82-4.26m-94.77-88.47h-16.54v91.33h16.54zm42.44 91.33-28.04-35.76-.64 8.09 27.56-33.35h-19.22l-23.36 29.58 23.5 31.45h20.2zm-86.4-1.26c4.2-1.76 7.86-4.42 10.97-7.97l-9.85-9.85c-1.85 2.21-4.03 3.8-6.58 4.81-2.52 1.01-5.34 1.51-8.45 1.51-3.44 0-6.49-.73-9.09-2.15-2.6-1.43-4.62-3.5-6.02-6.24-1.37-2.74-2.07-5.96-2.07-9.68 0-3.61.64-6.74 1.96-9.4 1.32-2.66 3.19-4.7 5.62-6.13 2.43-1.43 5.29-2.15 8.59-2.15 3.11 0 5.74.64 7.83 1.9 2.1 1.26 3.75 3.11 4.93 5.57 1.18 2.43 1.82 5.46 1.9 9.09l6.8-5.18-43.7.11v12.4l51.43-.14c.34-1.34.53-2.57.62-3.72.08-1.15.14-2.27.14-3.36 0-5.88-1.26-11.17-3.81-15.78-2.52-4.65-6.04-8.25-10.6-10.86-4.53-2.63-9.68-3.92-15.42-3.92-6.04 0-11.53 1.37-16.42 4.17-4.87 2.77-8.73 6.55-11.56 11.36s-4.22 10.24-4.22 16.28c0 6.16 1.43 11.64 4.31 16.42 2.85 4.81 6.8 8.59 11.81 11.39 5.01 2.77 10.72 4.17 17.12 4.17 4.95.01 9.53-.89 13.76-2.65m-96.42-15.03c-2.35-1.46-4.17-3.38-5.48-5.82-1.32-2.43-1.96-5.26-1.96-8.48 0-3.19.64-6.02 1.96-8.45 1.31-2.43 3.13-4.37 5.48-5.74 2.38-1.4 5.06-2.1 8.09-2.1 3.13 0 5.85.7 8.17 2.1 2.29 1.37 4.17 3.3 5.54 5.74 1.4 2.44 2.1 5.26 2.1 8.45 0 3.22-.67 6.04-1.96 8.48-1.31 2.44-3.16 4.37-5.57 5.82-2.41 1.43-5.15 2.13-8.28 2.13-3.03 0-5.71-.7-8.09-2.13m24.9 13.43c4.95-2.8 8.87-6.66 11.75-11.56 2.85-4.87 4.28-10.3 4.28-16.28 0-5.99-1.46-11.36-4.37-16.17-2.88-4.81-6.8-8.59-11.72-11.36-4.95-2.8-10.52-4.17-16.76-4.17-6.13 0-11.67 1.4-16.59 4.23-4.92 2.83-8.84 6.6-11.7 11.36-2.85 4.76-4.28 10.13-4.28 16.12 0 6.07 1.43 11.53 4.28 16.37 2.85 4.84 6.77 8.67 11.7 11.47 4.93 2.83 10.46 4.25 16.59 4.25 6.25 0 11.84-1.43 16.82-4.26m-64.13 1.15c1.99-2.07 2.97-4.56 2.97-7.53 0-3.02-.98-5.51-2.97-7.5-1.99-1.99-4.45-2.97-7.39-2.97-3.1 0-5.65.98-7.58 2.97-1.93 1.99-2.91 4.48-2.91 7.5 0 2.97.98 5.46 2.91 7.53 1.93 2.07 4.48 3.11 7.58 3.11 2.94 0 5.4-1.04 7.39-3.11m-86.09 1.71 15.53-42.05h-4.67l15.28 42.05h12l22.75-61.03h-16.68l-14.77 44.35 4.92.14-15.42-44.49h-11.86l-15.31 44.49 4.92-.14-14.77-44.35h-16.68l22.75 61.03zm-96.43 0 15.56-42.05h-4.67l15.28 42.05h12l22.72-61.03h-16.65l-14.8 44.35 4.92.14-15.39-44.49h-11.89l-15.28 44.49 4.92-.14-14.77-44.35h-16.68l22.72 61.03zm-96.39 0 15.53-42.05h-4.67l15.31 42.05h11.98l22.75-61.03h-16.68l-14.77 44.35 4.92.14-15.43-44.49h-11.86l-15.28 44.49 4.92-.14-14.8-44.35H497.3l22.75 61.03z" style="fill:#222120"/><path d="M1188.31 827.99c3.33 0 6.15.78 8.48 2.32 2.32 1.54 4.25 4.11 5.79 7.67l27.11 63.88 27.31-63.15c3.22-7.14 8.14-10.72 14.8-10.72 5.48 0 9.57.53 12.31 1.6l8.56 118.66h-23.2l-5.51-79.21-24.26 54.23h-20.54l-23.56-51.9-5.18 76.89h-23.36l8.76-118.66c3.45-1.07 7.62-1.61 12.49-1.61m215.17 120.27-10.16-29.27h-41.21l-9.82 29.27h-24.26l41.38-117.77c3.81-1.65 8.56-2.49 14.3-2.49 8.79 0 14.38 3.69 16.76 11.05l38.36 109.21zm-30.5-97.96-16.23 50.84h31.93zm180.77 36.21c0 12.62-2.32 23.61-6.97 33.02-4.64 9.4-11.22 16.54-19.73 21.41-8.51 4.9-18.58 7.33-30.22 7.33h-38.03v-118.5c11.08-1.43 22.24-2.13 33.55-2.13 20.34 0 35.65 4.92 45.94 14.8 10.31 9.88 15.46 24.57 15.46 44.07m-24.99.36c0-13.57-2.85-23.64-8.56-30.25-5.71-6.6-14.38-9.91-26.05-9.91-3.33 0-6.91.2-10.72.53v82.26h9.82c12.26 0 21.24-3.39 26.95-10.16 5.71-6.78 8.56-17.58 8.56-32.47m124.9 42.47c4.76 0 8.42 1.09 10.97 3.3 2.55 2.21 3.83 5.32 3.83 9.37 0 1.32-.03 2.41-.08 3.3-.06.89-.14 1.88-.28 2.94h-77.25V828.69h74.4c.36 1.79.56 4 .56 6.6 0 4.53-1.17 7.75-3.5 9.65-2.32 1.9-6.21 2.85-11.67 2.85h-35.17v29.44h37.83v19.08h-37.83v33.02h38.19zm95.99-100.45c3.81-.59 6.66-.89 8.56-.89 10.58 0 15.89 4.64 15.89 13.91v106.35h-24.46V828.89zm161.84 119.36h-20.71l-50.84-78.51v78.51h-23.36v-119.2c3.08-.7 6.72-1.06 10.88-1.06 3.44 0 6.27.56 8.45 1.71 2.21 1.12 4.25 3.22 6.16 6.32l46.06 75.13v-82.26c3.55-.59 6.24-.89 8.03-.89 10.21 0 15.33 4.64 15.33 13.91zm-608.53 132.31v-18.19h43.37v53.53c-2.27 2.74-5.65 5.23-10.19 7.5-4.53 2.24-9.54 3.97-15.08 5.15-5.51 1.2-11.44 1.79-17.74 1.79-12.03 0-22.19-2.49-30.53-7.5-8.31-4.98-14.66-12.17-19-21.57s-6.52-20.59-6.52-33.55c0-12.96 2.32-24.15 6.97-33.55s11.28-16.54 19.89-21.4c8.62-4.9 18.94-7.33 30.95-7.33 6.55 0 12.76.98 18.66 2.97 5.88 1.96 10.55 4.37 13.99 7.22 3.47 2.85 5.18 5.71 5.18 8.56 0 1.9-.78 4.08-2.41 6.52-1.59 2.43-3.72 4.79-6.32 7.05-4.76-4.42-9.43-7.53-14.02-9.37-4.56-1.85-9.49-2.77-14.72-2.77-10.83 0-19.05 3.61-24.71 10.8-5.65 7.19-8.48 17.52-8.48 30.95 0 14.05 2.88 24.82 8.65 32.29 5.79 7.5 14.13 11.25 25.07 11.25 5.23 0 9.65-.76 13.21-2.32 1.54-.7 2.91-1.54 4.11-2.49v-25.52h-20.33zm167.17-38.54c0 8.45-1.99 15.7-5.96 21.77-4 6.07-9.57 10.41-16.7 13.04l29.46 49.24c-4.64 2.01-9.4 3.02-14.3 3.02-4.39 0-8.09-.95-11.05-2.85-2.97-1.9-5.71-5.01-8.2-9.29l-20.34-34.61h-9.82v44.96h-24.62v-118.83c10.24-1.17 20.76-1.76 31.59-1.76 17.01 0 29.57 2.88 37.75 8.65 8.13 5.76 12.19 14.66 12.19 26.66m-25.68 2.32c0-6.88-1.79-12-5.34-15.33-3.58-3.33-9.09-5.01-16.59-5.01-2.15 0-4 .06-5.54.17-1.54.14-2.85.25-3.92.36v41.22h8.37c7.39 0 13.07-1.85 17.04-5.51 3.99-3.7 5.98-8.98 5.98-15.9m129.18 64.06c4.76 0 8.42 1.09 10.97 3.3 2.57 2.21 3.83 5.32 3.83 9.37 0 1.31-.03 2.41-.08 3.3-.06.9-.14 1.87-.25 2.94h-77.28v-119.53h74.4c.36 1.76.56 3.97.56 6.58 0 4.53-1.17 7.75-3.5 9.65-2.32 1.9-6.21 2.85-11.67 2.85h-35.17v29.43h37.83v19.08h-37.83v33.02h38.19zm112.76 0c4.76 0 8.42 1.09 10.97 3.3 2.55 2.21 3.83 5.32 3.83 9.37 0 1.31-.03 2.41-.08 3.3-.06.9-.14 1.87-.28 2.94h-77.25v-119.53h74.4c.36 1.76.56 3.97.56 6.58 0 4.53-1.17 7.75-3.5 9.65-2.32 1.9-6.21 2.85-11.67 2.85h-35.17v29.43h37.83v19.08h-37.83v33.02h38.19zm144.53 18.91h-20.71l-50.84-78.51v78.51h-23.36v-119.2c3.08-.7 6.72-1.06 10.86-1.06 3.47 0 6.3.56 8.48 1.71 2.21 1.12 4.25 3.22 6.16 6.32l46.06 75.13v-82.26c3.55-.59 6.24-.9 8.03-.9 10.21 0 15.33 4.65 15.33 13.91v106.35z" style="fill:#272725"/><path d="M1918.91 1378.5c.08-.77.15-1.5.19-2.19.04-.68.06-1.5.06-2.44 0-1.11-.17-2.21-.51-3.28a7.433 7.433 0 0 0-1.74-2.9c-.82-.86-1.93-1.54-3.35-2.06-1.42-.51-3.15-.77-5.22-.77h-34.49l43.5-60.75v-6.44c0-1.97-.47-3.37-1.42-4.18-.95-.81-2.53-1.22-4.76-1.22h-47.37c-3.86 0-6.61.88-8.24 2.64-1.63 1.76-2.45 3.84-2.45 6.24 0 .95.02 1.76.06 2.45.04.69.11 1.46.2 2.32v.13h42.86l-43.25 60.62v11.84h65.93zm-109.54-13.65v-23.81h27.29v-13.77h-27.29v-21.24h25.36c4.2 0 7.08-.75 8.62-2.25 1.54-1.5 2.32-3.75 2.32-6.76 0-.94-.02-1.74-.06-2.38-.05-.64-.15-1.44-.32-2.38h-53.67v86.24h55.73c.08-.77.15-1.48.19-2.12.04-.64.06-1.44.06-2.38 0-1.11-.17-2.23-.51-3.35-.34-1.11-.92-2.1-1.74-2.96-.82-.86-1.91-1.54-3.28-2.06-1.37-.51-3.09-.77-5.15-.77h-27.55zm-27.54-71.17c-1.63-.6-3.17-1.07-4.63-1.42-1.46-.34-3.18-.51-5.15-.51-3.09 0-5.49.69-7.21 2.06-1.72 1.37-3.09 3.09-4.12 5.15l-15 29.73-14.99-29.99c-1.2-2.23-2.55-3.94-4.06-5.15-1.5-1.2-3.79-1.8-6.88-1.8-1.72 0-3.56.26-5.53.77-1.98.51-3.69 1.12-5.15 1.8l27.55 51.61v32.56h17.5v-33.08zm-125.36 51.22 21.24-28.57v28.57zm21.24 13.13v20.47h17.5v-20.47h10.04c.08-.68.17-1.42.26-2.19.08-.69.17-1.39.26-2.12.08-.73.13-1.48.13-2.25 0-1.89-.49-3.39-1.48-4.51-.99-1.11-2.73-1.67-5.21-1.67h-3.99v-50.2c-.69-.51-1.76-.97-3.22-1.35-1.46-.39-2.75-.58-3.86-.58-3.26 0-5.9.86-7.92 2.57-2.02 1.72-3.67 3.47-4.96 5.28l-32.69 45.31v11.71zm-61.14-50.45c4.2 0 7.08-.86 8.62-2.57 1.54-1.72 2.32-4.07 2.32-7.08 0-.94-.02-1.74-.06-2.38-.04-.64-.15-1.44-.32-2.38h-46.21l-4.5 43.5 6.05 2.57c2.06-.94 4.27-1.67 6.63-2.19 2.36-.51 4.96-.77 7.79-.77 1.54 0 3.26.17 5.15.51 1.89.34 3.65 1.05 5.28 2.12 1.63 1.07 2.98 2.6 4.05 4.57 1.07 1.97 1.61 4.59 1.61 7.85 0 2.66-.41 4.94-1.22 6.82-.82 1.89-1.91 3.43-3.28 4.63-1.37 1.2-2.94 2.08-4.7 2.64-1.76.56-3.54.84-5.34.84-2.49 0-4.83-.3-7.01-.9-2.19-.6-4.21-1.35-6.05-2.25-1.85-.9-3.5-1.87-4.96-2.9-1.46-1.03-2.66-2.01-3.6-2.96-1.72 2.49-3.07 4.78-4.05 6.89-.99 2.1-1.48 3.71-1.48 4.83s.34 2.12 1.03 3.02c.69.9 1.46 1.65 2.32 2.25.6.51 1.54 1.12 2.83 1.8 1.29.69 2.92 1.35 4.89 1.99 1.97.64 4.33 1.2 7.08 1.67s5.92.71 9.52.71c5.41 0 10.1-.8 14.09-2.38 3.99-1.59 7.29-3.76 9.91-6.52 2.62-2.75 4.57-5.93 5.86-9.55 1.29-3.61 1.93-7.48 1.93-11.61 0-4.81-.69-8.97-2.06-12.45-1.37-3.48-3.33-6.36-5.86-8.64-2.53-2.28-5.53-3.96-9.01-5.03-3.47-1.07-7.32-1.61-11.52-1.61-1.8 0-3.6.15-5.41.45-1.8.3-3.3.58-4.51.84l1.8-16.35h22.39zm-107.86-10.04c-1.2-1.97-2.57-3.43-4.12-4.38-1.55-.94-3.69-1.41-6.44-1.41-1.46 0-2.92.09-4.38.26s-2.62.34-3.48.51v85.98h16.86v-56.63l36.68 56.63h14.93v-76.71c0-2.14-.37-3.88-1.09-5.21-.73-1.33-1.63-2.34-2.7-3.02-1.07-.69-2.28-1.16-3.6-1.42-1.33-.26-2.6-.39-3.8-.39-.6 0-1.2.04-1.8.13-.6.09-1.2.17-1.8.26-.69.09-1.37.17-2.06.26v59.34zm-52.96 64.98c-2.1 2.93-4.87 4.39-8.3 4.39-2.83 0-5.11-.67-6.82-2-1.72-1.33-3.05-3.03-3.99-5.1-.95-2.07-1.57-4.35-1.87-6.85-.3-2.5-.45-4.91-.45-7.24 0-1.47.04-2.8.13-4 .08-1.21.21-2.33.39-3.36.51-.52 1.2-1.03 2.06-1.55.86-.51 1.84-1.01 2.96-1.49 1.11-.47 2.29-.86 3.54-1.16 1.24-.3 2.51-.45 3.8-.45 4.38 0 7.42 1.42 9.14 4.26 1.71 2.84 2.57 6.85 2.57 12.02-.01 5.42-1.06 9.6-3.16 12.53m19.76-24.37c-.95-3.39-2.38-6.37-4.31-8.94-1.93-2.57-4.42-4.61-7.47-6.11s-6.67-2.25-10.88-2.25c-3.95 0-7.42.62-10.43 1.87-3 1.24-5.23 2.47-6.69 3.67.6-2.14 1.61-4.44 3.02-6.89 1.42-2.45 3.17-4.7 5.28-6.76 2.1-2.06 4.61-3.78 7.53-5.15 2.92-1.37 6.26-2.06 10.04-2.06 1.46 0 2.64.04 3.54.13.9.09 1.95.22 3.15.39.17-.94.3-1.97.39-3.09.08-1.11.13-2.14.13-3.09 0-3.17-.84-5.25-2.51-6.24-1.67-.98-4.18-1.48-7.53-1.48-5.15 0-10.26 1.01-15.32 3.02-5.07 2.02-9.59 5.13-13.58 9.33-3.99 4.21-7.23 9.5-9.72 15.9-2.49 6.39-3.73 13.97-3.73 22.72 0 5.75.62 10.94 1.87 15.57 1.24 4.63 3.13 8.58 5.66 11.84 2.53 3.26 5.73 5.77 9.59 7.53 3.86 1.76 8.41 2.64 13.64 2.64 4.2 0 8.11-.69 11.71-2.06 3.6-1.37 6.74-3.41 9.4-6.11s4.76-6.03 6.31-9.98c1.54-3.94 2.32-8.54 2.32-13.77 0-3.7-.47-7.24-1.41-10.63m-88.68 8.47c-.77 3.77-2.12 7-4.06 9.7-1.93 2.7-4.55 4.8-7.85 6.29-3.3 1.5-7.49 2.25-12.55 2.25h-7.08v-59.21c2.66-.26 5.23-.39 7.72-.39 4.89 0 8.95.75 12.16 2.25 3.22 1.5 5.77 3.55 7.66 6.17 1.89 2.61 3.22 5.67 3.99 9.18s1.16 7.28 1.16 11.3c0 4.54-.38 8.69-1.15 12.46m17.05-29c-1.42-5.15-3.82-9.65-7.21-13.51-3.39-3.86-7.92-6.93-13.58-9.2-5.66-2.27-12.78-3.41-21.37-3.41-2.83 0-6.2.09-10.1.26-3.9.17-8.6.6-14.09 1.29v85.46h27.41c7.12 0 13.26-1.18 18.41-3.54 5.15-2.36 9.4-5.55 12.74-9.59 3.35-4.03 5.83-8.75 7.47-14.16 1.63-5.41 2.45-11.15 2.45-17.25-.01-5.75-.71-11.2-2.13-16.35m-162.3-25.49c-1.67.26-2.94.51-3.8.77l-6.31 85.59h16.86l3.73-55.47 16.99 37.46h14.8l17.5-39.13 3.99 57.15h16.73l-6.18-85.59c-.86-.34-2.1-.62-3.73-.84-1.63-.21-3.35-.32-5.15-.32-2.32 0-4.38.6-6.18 1.8-1.8 1.2-3.3 3.18-4.51 5.92l-19.69 45.56-19.56-46.08c-.94-2.14-2.19-3.88-3.73-5.21s-3.73-1.99-6.56-1.99c-1.79 0-3.53.12-5.2.38m-22.33 78.9c.43-.77.64-1.72.64-2.83 0-.77-.22-1.63-.64-2.57-.43-.94-.95-1.89-1.54-2.83-.6-.94-1.24-1.84-1.93-2.7-.69-.86-1.29-1.59-1.8-2.19-.77.69-1.74 1.5-2.9 2.45-1.16.95-2.51 1.85-4.05 2.7-1.54.86-3.33 1.59-5.34 2.19-2.02.6-4.23.9-6.63.9-4.55 0-8.35-.86-11.39-2.57-3.05-1.71-5.52-3.99-7.4-6.82-1.89-2.83-3.22-6.09-3.99-9.78-.77-3.69-1.16-7.55-1.16-11.58 0-3.77.39-7.48 1.16-11.13.77-3.65 2.06-6.89 3.86-9.72 1.8-2.83 4.18-5.13 7.14-6.89 2.96-1.76 6.63-2.64 11-2.64 2.49 0 4.74.28 6.76.84 2.02.56 3.82 1.24 5.41 2.06 1.59.82 3.02 1.76 4.31 2.83 1.29 1.08 2.45 2.12 3.48 3.15 1.54-1.46 2.96-3.04 4.25-4.76 1.29-1.72 1.93-3.43 1.93-5.15 0-1.11-.28-2.14-.84-3.09-.56-.94-1.22-1.76-2-2.45-.69-.6-1.69-1.35-3.02-2.25-1.33-.9-3.01-1.76-5.02-2.58-2.02-.81-4.38-1.52-7.08-2.12-2.7-.6-5.73-.9-9.07-.9-6.78 0-12.68 1.14-17.7 3.41-5.02 2.27-9.2 5.43-12.55 9.46-3.35 4.03-5.86 8.82-7.53 14.35-1.67 5.53-2.51 11.56-2.51 18.08 0 6.52.77 12.51 2.32 17.96 1.54 5.45 3.97 10.17 7.27 14.16 3.3 3.99 7.49 7.1 12.55 9.33 5.06 2.23 11.07 3.35 18.02 3.35 3.6 0 6.8-.28 9.59-.84 2.79-.56 5.15-1.22 7.08-1.99 1.93-.77 3.49-1.55 4.7-2.32 1.2-.77 2.06-1.42 2.57-1.93.93-.96 1.62-1.82 2.05-2.59m683.87 78.08c0-1.71-.31-3.11-.92-4.17-.62-1.06-1.38-1.87-2.3-2.42-.92-.55-1.91-.93-2.97-1.13-1.05-.21-2.06-.31-3.01-.31-.48 0-.97.04-1.48.1-.51.07-1.04.14-1.58.21-.62.07-1.2.14-1.74.2v68.88h14zm-56.84 61.36h14.21v-57.46h12.97c1.58 0 2.9-.21 3.96-.62 1.07-.41 1.94-.94 2.63-1.6.69-.65 1.17-1.41 1.44-2.27.27-.86.41-1.73.41-2.62 0-1.51-.1-2.99-.31-4.43h-48.39c-3.16 0-5.41.77-6.75 2.32-1.34 1.54-2.01 3.24-2.01 5.1 0 .76.02 1.41.05 1.96.03.55.12 1.24.26 2.06v.1h21.52v57.46zm-58.69 0h14.21v-57.46h12.97c1.58 0 2.9-.21 3.97-.62 1.06-.41 1.94-.94 2.62-1.6.69-.65 1.17-1.41 1.44-2.27.27-.86.41-1.73.41-2.62 0-1.51-.1-2.99-.31-4.43h-48.39c-3.16 0-5.41.77-6.74 2.32-1.34 1.54-2.01 3.24-2.01 5.1 0 .76.02 1.41.05 1.96.03.55.12 1.24.26 2.06v.1h21.52zm-69.19-61.33c0-1.72-.29-3.1-.87-4.13-.58-1.03-1.31-1.84-2.2-2.43-.89-.59-1.86-.98-2.91-1.19-1.06-.2-2.09-.31-3.11-.31-.48 0-.97.04-1.49.1-.51.07-1.04.14-1.58.21-.62.07-1.23.14-1.84.2v68.88h14v-29.86h26.05v29.86h14v-61.37c0-1.71-.29-3.09-.87-4.12-.58-1.03-1.31-1.84-2.2-2.42a8.05 8.05 0 0 0-2.91-1.18 15.04 15.04 0 0 0-2.91-.31c-.55 0-1.11.04-1.69.1-.58.07-1.14.14-1.69.21-.62.07-1.19.14-1.74.2v28.01h-26.05v-20.45zm-81.55 27.97c0-1.58.91-2.9 2.74-3.96s4.02-1.6 6.58-1.6c1.8 0 3.2.26 4.2.77s1.73 1.24 2.17 2.16c.45.93.73 2.04.83 3.35.1 1.3.16 2.71.16 4.22v28.42h14v-29.03c0-1.79-.05-3.6-.16-5.46-.1-1.85-.33-3.57-.67-5.15-.69-3.16-2.2-5.7-4.54-7.62s-5.96-2.88-10.85-2.88c-4.06 0-7.32.67-9.76 2.01-2.45 1.34-4.25 2.8-5.42 4.38-.41-1.99-1.42-3.38-3.02-4.17s-3.49-1.18-5.67-1.18c-.75 0-1.4.02-1.94.05-.55.04-1.02.09-1.43.15-.48.07-.88.14-1.23.21v48.7h14v-33.37zm-29.3-37.22c-1.47-1.41-3.24-2.11-5.3-2.11-2.13 0-3.91.7-5.35 2.11-1.44 1.41-2.16 3.21-2.16 5.41s.72 3.98 2.16 5.36c1.44 1.37 3.22 2.06 5.35 2.06 2.06 0 3.83-.68 5.3-2.06 1.48-1.37 2.21-3.16 2.21-5.36.01-2.2-.73-4-2.21-5.41m2.12 29.6c0-1.71-.28-3.11-.83-4.17-.55-1.06-1.27-1.89-2.16-2.47-.9-.58-1.89-.98-2.99-1.18-1.1-.2-2.2-.31-3.29-.31-1.1 0-2.16.05-3.19.15-1.03.1-1.55.19-1.55.26v41.19c0 1.72.22 3.13.67 4.22.45 1.1 1.06 1.97 1.85 2.62.79.65 1.73 1.1 2.83 1.34s2.33.36 3.7.36c1.1 0 2.13-.03 3.09-.1s1.58-.17 1.86-.31v-41.6zm-55.09 11.33c0-3.5.84-6.23 2.54-8.19 1.69-1.96 3.95-2.93 6.78-2.93 3.31 0 5.61 1.03 6.89 3.09 1.28 2.06 1.92 4.73 1.92 8.03zm3.61 17.14c-2.07-2.5-3.24-5.65-3.51-9.42h30.38c.07-.34.12-.81.15-1.39.03-.58.07-1.18.1-1.8.03-.62.05-1.2.05-1.75v-1.44c0-2.88-.38-5.63-1.13-8.24-.76-2.61-1.97-4.93-3.66-6.95-1.68-2.02-3.86-3.64-6.54-4.84-2.68-1.2-5.94-1.8-9.78-1.8-2.95 0-5.83.48-8.65 1.44-2.81.96-5.34 2.47-7.57 4.53-2.23 2.06-4.02 4.65-5.35 7.78-1.34 3.12-2.01 6.85-2.01 11.17 0 5.29.76 9.67 2.27 13.13 1.51 3.47 3.48 6.23 5.92 8.29 2.43 2.06 5.22 3.5 8.34 4.32 3.13.83 6.3 1.24 9.53 1.24 3.57 0 6.67-.4 9.32-1.18 2.64-.79 4.68-1.74 6.13-2.83 1.72-1.24 2.57-2.61 2.57-4.12 0-1.03-.45-2.35-1.35-3.97-.9-1.61-1.76-2.93-2.58-3.96-.62.55-1.31 1.15-2.07 1.8-.76.65-1.65 1.25-2.69 1.8-1.03.55-2.2 1.01-3.51 1.39-1.31.38-2.83.57-4.55.57-4.47-.01-7.74-1.26-9.81-3.77m-48.45 11.59c2.37 1.65 5.68 2.47 9.94 2.47 2.2 0 4.22-.22 6.08-.67 1.85-.45 3.43-1.04 4.73-1.77 1.3-.73 2.32-1.53 3.04-2.39.72-.86 1.08-1.75 1.08-2.65 0-.97-.27-2.01-.82-3.11-.55-1.1-1.34-2.41-2.37-3.92-.2.2-.56.51-1.08.93-.51.41-1.12.81-1.8 1.18-.69.38-1.46.72-2.32 1.03-.86.31-1.77.47-2.73.47-3.91 0-5.87-2.4-5.87-7.18v-21.96h14.42v-10.5h-14.42v-7.21c0-1.72-.27-3.11-.82-4.17-.55-1.06-1.27-1.91-2.16-2.52a7.692 7.692 0 0 0-2.99-1.24c-1.1-.21-2.2-.31-3.3-.31-.55 0-1.1.02-1.65.05-.55.04-1.07.09-1.55.15-.55.07-1.06.14-1.54.21v47.78c0 1.51.07 3.02.2 4.53.14 1.51.44 2.95.93 4.33.97 2.66 2.63 4.82 5 6.47m-20.85-46.96c-1.58-.69-3.45-1.23-5.61-1.65-2.16-.41-4.62-.62-7.36-.62-2.61 0-5.11.32-7.52.98-2.4.65-4.51 1.63-6.33 2.93-1.82 1.3-3.28 2.89-4.38 4.74s-1.65 4.02-1.65 6.49c0 2.47.43 4.57 1.29 6.28.86 1.72 2.01 3.14 3.45 4.27 1.44 1.13 3.09 2.05 4.94 2.73 1.85.68 3.77 1.23 5.76 1.64 3.09.62 5.41 1.36 6.95 2.22 1.54.86 2.32 2.28 2.32 4.27 0 1.1-.24 1.99-.72 2.68a5.57 5.57 0 0 1-1.8 1.65c-.72.41-1.56.69-2.52.82-.96.14-1.89.2-2.78.2-1.44 0-2.85-.17-4.22-.51-1.37-.34-2.66-.77-3.86-1.29-1.2-.51-2.27-1.06-3.19-1.64-.93-.59-1.7-1.15-2.32-1.7-.89 1.37-1.68 2.69-2.37 3.96-.69 1.27-1.03 2.49-1.03 3.66 0 1.37.57 2.45 1.7 3.24s2.18 1.39 3.14 1.8c1.37.62 3.11 1.15 5.2 1.6 2.1.44 4.65.67 7.67.67 2.95 0 5.68-.38 8.19-1.13 2.5-.75 4.68-1.85 6.54-3.29 1.86-1.44 3.31-3.23 4.38-5.36 1.07-2.13 1.6-4.56 1.6-7.31 0-2.67-.5-4.9-1.49-6.69-1-1.79-2.3-3.26-3.91-4.43-1.61-1.17-3.43-2.08-5.46-2.73-2.03-.65-4.07-1.18-6.13-1.59-5.01-1.1-7.52-2.82-7.52-5.15 0-.96.22-1.73.67-2.32.44-.58.99-1.03 1.65-1.34.65-.31 1.39-.51 2.21-.62.82-.1 1.61-.15 2.37-.15 1.37 0 2.73.17 4.07.51 1.34.34 2.62.77 3.86 1.29 1.23.51 2.35 1.07 3.35 1.65.99.58 1.84 1.15 2.52 1.7.75-1.23 1.46-2.56 2.11-3.96.65-1.4.98-2.62.98-3.65-.15-1.99-1.73-3.61-4.75-4.85m-73 14.52c0-1.58.91-2.9 2.75-3.96 1.83-1.06 4.02-1.6 6.58-1.6 1.8 0 3.2.26 4.2.77s1.73 1.24 2.17 2.16c.45.93.73 2.04.83 3.35.1 1.3.16 2.71.16 4.22v28.42h14v-29.03c0-1.79-.05-3.6-.16-5.46-.1-1.85-.33-3.57-.67-5.15-.69-3.16-2.2-5.7-4.54-7.62s-5.96-2.88-10.85-2.88c-4.06 0-7.32.67-9.76 2.01-2.45 1.34-4.25 2.8-5.42 4.38-.41-1.99-1.42-3.38-3.02-4.17s-3.49-1.18-5.67-1.18c-.75 0-1.4.02-1.94.05-.55.04-1.02.09-1.43.15-.48.07-.88.14-1.23.21v48.7h14zm-55.09 3.71c0-3.5.84-6.23 2.54-8.19 1.69-1.96 3.95-2.93 6.78-2.93 3.31 0 5.61 1.03 6.89 3.09 1.28 2.06 1.92 4.73 1.92 8.03zm3.61 17.14c-2.06-2.5-3.24-5.65-3.51-9.42h30.37c.07-.34.12-.81.15-1.39.03-.58.07-1.18.1-1.8.03-.62.05-1.2.05-1.75v-1.44c0-2.88-.38-5.63-1.13-8.24-.76-2.61-1.97-4.93-3.65-6.95-1.68-2.02-3.86-3.64-6.54-4.84-2.68-1.2-5.94-1.8-9.78-1.8-2.95 0-5.83.48-8.65 1.44-2.81.96-5.34 2.47-7.57 4.53-2.23 2.06-4.02 4.65-5.35 7.78-1.34 3.12-2.01 6.85-2.01 11.17 0 5.29.76 9.67 2.27 13.13 1.51 3.47 3.48 6.23 5.92 8.29 2.43 2.06 5.22 3.5 8.34 4.32 3.13.83 6.3 1.24 9.53 1.24 3.57 0 6.68-.4 9.32-1.18 2.64-.79 4.68-1.74 6.12-2.83 1.72-1.24 2.57-2.61 2.57-4.12 0-1.03-.45-2.35-1.34-3.97-.89-1.61-1.76-2.93-2.58-3.96-.62.55-1.31 1.15-2.06 1.8-.76.65-1.66 1.25-2.69 1.8s-2.2 1.01-3.51 1.39c-1.31.38-2.83.57-4.55.57-4.48-.01-7.75-1.26-9.82-3.77m-42.64 12.51h14v-29.03c0-1.79-.05-3.6-.15-5.46-.1-1.85-.33-3.57-.67-5.15-.69-3.16-2.2-5.7-4.53-7.62-2.34-1.92-5.94-2.88-10.81-2.88-1.99 0-3.76.17-5.31.51-1.54.34-2.9.81-4.07 1.39-1.17.58-2.16 1.22-2.99 1.9-.82.69-1.51 1.34-2.06 1.96v-20.49c0-1.71-.28-3.1-.82-4.17-.55-1.06-1.27-1.89-2.16-2.47-.89-.58-1.89-.98-2.99-1.18-1.1-.21-2.2-.31-3.3-.31-1.1 0-2.16.05-3.19.15-1.03.1-1.54.19-1.54.26v72.59h14v-33.36c0-1.58.91-2.9 2.73-3.96 1.82-1.06 4-1.6 6.54-1.6 1.78 0 3.17.26 4.17.77.99.51 1.72 1.24 2.16 2.16.44.93.72 2.04.82 3.35.1 1.3.15 2.71.15 4.22v28.42zm-56.21-18.84c-.27 1.85-.79 3.52-1.54 4.99a9.146 9.146 0 0 1-3.14 3.55c-1.34.89-3.04 1.34-5.1 1.34-1.99 0-3.65-.45-4.99-1.34-1.34-.89-2.38-2.07-3.14-3.55-.76-1.48-1.29-3.14-1.6-4.99a33.64 33.64 0 0 1-.46-5.56c0-1.85.17-3.67.52-5.46.34-1.78.91-3.38 1.7-4.79.79-1.4 1.86-2.56 3.19-3.45 1.34-.89 3-1.34 4.99-1.34 1.99 0 3.64.43 4.94 1.29 1.3.86 2.33 1.98 3.09 3.35.76 1.37 1.27 2.97 1.54 4.79.27 1.82.41 3.66.41 5.51 0 1.92-.14 3.81-.41 5.66m13.13-15.55c-.86-3.09-2.23-5.8-4.11-8.13-1.88-2.33-4.35-4.19-7.4-5.56-3.05-1.37-6.73-2.06-11.04-2.06-4.11 0-7.71.69-10.79 2.06-3.08 1.37-5.63 3.24-7.66 5.61-2.02 2.37-3.55 5.11-4.57 8.24-1.03 3.13-1.54 6.44-1.54 9.94 0 3.43.44 6.71 1.33 9.83.89 3.13 2.29 5.87 4.21 8.24s4.4 4.26 7.45 5.66c3.05 1.41 6.77 2.11 11.15 2.11 4.38 0 8.12-.72 11.2-2.16 3.08-1.44 5.6-3.36 7.55-5.76 1.95-2.4 3.36-5.18 4.21-8.34.86-3.16 1.29-6.45 1.29-9.89 0-3.43-.43-6.7-1.28-9.79m-98.39-26.94c0-1.72-.29-3.1-.87-4.13-.58-1.03-1.31-1.84-2.2-2.43-.89-.59-1.86-.98-2.91-1.19-1.06-.2-2.1-.31-3.12-.31-.48 0-.97.04-1.48.1-.51.07-1.04.14-1.58.21-.62.07-1.23.14-1.84.2v68.88h14v-29.86h26.05v29.86h14v-61.37c0-1.71-.29-3.09-.87-4.12-.58-1.03-1.31-1.84-2.2-2.42a8.05 8.05 0 0 0-2.91-1.18c-1.05-.21-2.03-.31-2.91-.31-.55 0-1.11.04-1.69.1-.58.07-1.14.14-1.69.21-.61.07-1.19.14-1.73.2v28.01h-26.05z" style="fill:#252525"/></svg>