<svg width="80" height="81" viewBox="0 0 80 81" fill="none" xmlns="http://www.w3.org/2000/svg">
<mask id="mask0_16455_55087" style="mask-type:luminance" maskUnits="userSpaceOnUse" x="3" y="23" width="35" height="35">
<path d="M37.2501 23.2155H3.09009V57.3755H37.2501V23.2155Z" fill="white"/>
</mask>
<g mask="url(#mask0_16455_55087)">
<path d="M8.13015 52.3455C11.7902 56.0055 16.3802 57.3755 20.2602 57.3755C25.0102 57.3755 29.7901 55.4555 32.7502 52.0455C35.7201 48.6355 37.2402 44.3255 37.2402 38.2455V23.2155H22.2302C16.0302 23.2155 12.0802 25.1055 9.97015 26.5255C7.79015 27.9855 3.93015 31.8955 3.20015 38.2555C2.64015 43.2655 4.28015 48.4955 8.13015 52.3455Z" fill="#00A688"/>
</g>
<path d="M11.1402 38.2654C10.8802 37.8654 10.7502 37.3054 10.7502 36.5854C10.7502 35.8754 10.8802 35.3354 11.1402 34.9454C11.4002 34.5554 11.7802 34.3755 12.2802 34.3755C12.7602 34.3755 13.1202 34.5654 13.3702 34.9454C13.6202 35.3254 13.7502 35.8754 13.7502 36.5854C13.7502 37.3154 13.6202 37.8754 13.3702 38.2654C13.1102 38.6654 12.7402 38.8554 12.2602 38.8554C11.7802 38.8554 11.4002 38.6654 11.1402 38.2654ZM14.3202 39.0054C14.8102 38.4254 15.0602 37.6054 15.0602 36.5754C15.0602 35.5554 14.8202 34.7554 14.3402 34.1854C13.8602 33.6154 13.1702 33.3354 12.2902 33.3354C11.7102 33.3354 11.2002 33.4554 10.7802 33.7154C10.3502 33.9754 10.0202 34.3454 9.78017 34.8454C9.54017 35.3354 9.42017 35.9254 9.42017 36.5854C9.42017 37.2554 9.52017 37.8354 9.74017 38.3354C9.95017 38.8354 10.2702 39.2254 10.6802 39.4854C11.0902 39.7554 11.6002 39.8854 12.2002 39.8854C13.1302 39.8754 13.8302 39.5854 14.3202 39.0054Z" fill="white"/>
<path d="M20.2002 39.5755C20.2002 39.5355 20.2002 39.4755 20.2002 39.4055C20.2002 39.1955 20.1302 39.0255 20.0002 38.9155C19.8702 38.8055 19.6802 38.7455 19.4302 38.7455H17.4502V37.0155H19.4202V36.0155H17.4502V34.4655H19.2802C19.5602 34.4655 19.7602 34.4255 19.8902 34.3155C20.0102 34.2155 20.0702 34.0455 20.0702 33.8155C20.0702 33.6855 20.0602 33.5555 20.0502 33.4655H16.1702V39.7255H20.1902C20.1902 39.6655 20.1902 39.6155 20.2002 39.5755Z" fill="white"/>
<path d="M22.3701 36.5454C22.3901 36.8554 22.5501 37.2054 22.8301 37.5654L24.2001 39.3454C24.4501 39.6654 24.7801 39.8254 25.2001 39.8254C25.4501 39.8254 25.6901 39.7554 25.9301 39.6154L23.6201 36.4654L25.6701 33.7054C25.5801 33.6154 25.4701 33.5454 25.3501 33.5054C25.2201 33.4654 25.0701 33.4254 24.9201 33.4254C24.7501 33.4254 24.6001 33.4654 24.4501 33.5454C24.3201 33.6254 24.1701 33.7554 24.0401 33.9254L22.7601 35.6054C22.6401 35.7654 22.5501 35.9054 22.4901 36.0454C22.4301 36.1654 22.4001 36.3054 22.3801 36.4354V34.1454C22.3801 33.6654 22.1001 33.4154 21.5501 33.4154C21.4501 33.4154 21.3001 33.4254 21.1001 33.4554V39.7054H22.3801V36.5454H22.3701Z" fill="white"/>
<path d="M30.0001 38.2654C29.7401 38.6654 29.3701 38.8554 28.8901 38.8554C28.4101 38.8554 28.0401 38.6554 27.7701 38.2454C27.5101 37.8454 27.3801 37.2854 27.3801 36.5654C27.3801 35.8554 27.5101 35.3154 27.7701 34.9254C28.0301 34.5454 28.4101 34.3554 28.9101 34.3554C29.3901 34.3554 29.7501 34.5454 30.0001 34.9254C30.2501 35.3054 30.3801 35.8554 30.3801 36.5654C30.3801 37.2954 30.2501 37.8654 30.0001 38.2654ZM30.9701 34.1854C30.4901 33.6154 29.8001 33.3354 28.9201 33.3354C28.3401 33.3354 27.8301 33.4554 27.4101 33.7154C26.9801 33.9754 26.6501 34.3454 26.4101 34.8454C26.1701 35.3354 26.0601 35.9254 26.0601 36.5854C26.0601 37.2554 26.1701 37.8354 26.3801 38.3354C26.5901 38.8354 26.9101 39.2254 27.3201 39.4854C27.7301 39.7554 28.2401 39.8854 28.8401 39.8854C29.7501 39.8854 30.4501 39.5954 30.9501 38.9954C31.4401 38.4154 31.6901 37.5954 31.6901 36.5654C31.6901 35.5554 31.4501 34.7554 30.9701 34.1854Z" fill="white"/>
<path d="M29.4701 44.7454C28.8101 44.7454 28.2601 44.1954 28.2601 43.5354C28.2601 42.8754 28.8001 42.3254 29.4701 42.3254C30.1301 42.3254 30.6801 42.8754 30.6801 43.5354C30.6801 44.1954 30.1301 44.7454 29.4701 44.7454ZM29.4701 41.9554C28.6101 41.9554 27.9001 42.6654 27.9001 43.5354C27.9001 44.4054 28.6101 45.1154 29.4701 45.1154C30.3301 45.1154 31.0401 44.4054 31.0401 43.5354C31.0401 42.6654 30.3301 41.9554 29.4701 41.9554Z" fill="white"/>
<path d="M29.63 43.4155C29.57 43.4555 29.51 43.4855 29.42 43.4855H29.3V42.9455C29.31 42.9455 29.33 42.9455 29.36 42.9455C29.38 42.9455 29.4 42.9455 29.43 42.9455C29.52 42.9455 29.59 42.9655 29.63 43.0055C29.67 43.0455 29.71 43.1155 29.71 43.2055C29.7 43.3055 29.68 43.3755 29.63 43.4155ZM29.85 43.5755C29.88 43.5555 29.92 43.5155 29.94 43.4855C29.97 43.4555 30 43.4055 30.01 43.3555C30.02 43.3155 30.03 43.2455 30.03 43.1855C30.03 43.0255 29.97 42.9155 29.87 42.8355C29.77 42.7555 29.6 42.7255 29.38 42.7255C29.32 42.7255 29.26 42.7255 29.19 42.7255C29.12 42.7355 29.04 42.7355 28.98 42.7455V44.2955H29.3V43.7155H29.42L29.68 44.1655C29.71 44.2255 29.75 44.2555 29.78 44.2855C29.81 44.3055 29.87 44.3155 29.93 44.3155C29.96 44.3155 29.99 44.3155 30.02 44.3055C30.05 44.2955 30.08 44.2855 30.11 44.2755L29.73 43.6355C29.78 43.6155 29.82 43.5955 29.85 43.5755Z" fill="white"/>
<path d="M12.6001 41.9955C12.3601 41.9955 12.1601 42.0555 12.0301 42.1755C11.8801 42.2955 11.8201 42.4555 11.8201 42.6655C11.8201 42.7955 11.8301 42.9255 11.8401 43.0355H13.7801V48.2455H15.0601V43.0355H16.2301C16.4701 43.0355 16.6601 42.9755 16.7901 42.8555C16.9201 42.7455 16.9901 42.5855 16.9901 42.3855C16.9901 42.2555 16.9801 42.1155 16.9601 41.9855H12.6001V41.9955Z" fill="white"/>
<path d="M21 47.2655H19.02V45.5355H20.99V44.5355H19.02V42.9855H20.85C21.13 42.9855 21.33 42.9455 21.46 42.8355C21.58 42.7355 21.64 42.5655 21.64 42.3355C21.64 42.2055 21.63 42.0755 21.62 41.9855H17.74V48.2455H21.76C21.77 48.1855 21.77 48.1355 21.77 48.0855C21.77 48.0455 21.77 47.9855 21.77 47.9155C21.77 47.7055 21.7 47.5355 21.57 47.4255C21.44 47.3255 21.24 47.2655 21 47.2655Z" fill="white"/>
<path d="M27.4501 42.1454C27.2101 42.0254 26.9901 41.9554 26.7701 41.9554C26.5701 41.9554 26.4101 41.9954 26.2801 42.0754C26.1601 42.1554 26.0201 42.2954 25.9101 42.5154L24.9901 44.1054L24.0901 42.4154C23.9301 42.1154 23.6901 41.9554 23.3501 41.9554C23.1301 41.9554 22.8601 42.0254 22.5401 42.1554L24.1801 45.1254L22.3401 48.2554H23.7301L24.9201 46.1954L25.8701 47.7954C25.9901 48.0054 26.1301 48.1554 26.2601 48.2454C26.3901 48.3354 26.5701 48.3654 26.8001 48.3654C27.0201 48.3654 27.2701 48.3254 27.5301 48.2154L25.7101 45.0754L27.4501 42.1454Z" fill="white"/>
<path d="M47.64 27.7054C47.77 27.7054 47.89 27.7354 47.98 27.7954C48.07 27.8554 48.1501 27.9654 48.2201 28.0954L49.3101 30.6454L50.41 28.1154C50.54 27.8254 50.73 27.6854 51 27.6854C51.22 27.6854 51.3801 27.7054 51.4901 27.7554L51.84 32.5054H50.9001L50.68 29.3354L49.71 31.5054H48.89L47.9501 29.4254L47.75 32.5054H46.8L47.1501 27.7554C47.2801 27.7254 47.45 27.7054 47.64 27.7054Z" fill="#242422"/>
<path d="M55.0401 28.6054L54.3901 30.6454H55.6701L55.0401 28.6054ZM56.2601 32.5254L55.8601 31.3454H54.2101L53.8201 32.5254H52.8501L54.5101 27.8054C54.6701 27.7354 54.8601 27.7054 55.0801 27.7054C55.4301 27.7054 55.6501 27.8554 55.7501 28.1454L57.2801 32.5154H56.2601V32.5254Z" fill="#242422"/>
<path d="M61.28 30.0754C61.28 29.5254 61.17 29.1254 60.93 28.8654C60.71 28.5954 60.36 28.4754 59.89 28.4754C59.76 28.4754 59.61 28.4854 59.46 28.4954V31.7854H59.85C60.34 31.7854 60.7 31.6554 60.93 31.3854C61.16 31.1054 61.28 30.6654 61.28 30.0754ZM62.27 30.0654C62.27 30.5654 62.18 31.0054 61.99 31.3854C61.8 31.7654 61.54 32.0454 61.21 32.2454C60.87 32.4354 60.47 32.5354 60 32.5354H58.48V27.7854C58.93 27.7254 59.37 27.6954 59.82 27.6954C60.64 27.6954 61.24 27.8954 61.66 28.2854C62.08 28.6754 62.27 29.2754 62.27 30.0654Z" fill="#242422"/>
<path d="M66.27 31.7755C66.46 31.7755 66.61 31.8155 66.71 31.9055C66.81 31.9955 66.87 32.1155 66.87 32.2755C66.87 32.3355 66.87 32.3755 66.87 32.4055C66.87 32.4355 66.86 32.4855 66.86 32.5255H63.77V27.7455H66.75C66.76 27.8155 66.77 27.9055 66.77 28.0155C66.77 28.1955 66.73 28.3255 66.64 28.4055C66.55 28.4855 66.39 28.5155 66.17 28.5155H64.76V29.6955H66.27V30.4555H64.76V31.7755H66.28H66.27Z" fill="#242422"/>
<path d="M70.1201 27.7555C70.2801 27.7355 70.3901 27.7255 70.4701 27.7255C70.9001 27.7255 71.1101 27.9155 71.1101 28.2855V32.5455H70.1401V27.7655H70.1201V27.7555Z" fill="#242422"/>
<path d="M76.6 32.5255H75.77L73.73 29.3755V32.5255H72.79V27.7555C72.91 27.7355 73.06 27.7155 73.23 27.7155C73.36 27.7155 73.48 27.7355 73.57 27.7855C73.66 27.8355 73.74 27.9055 73.82 28.0455L75.67 31.0455V27.7555C75.82 27.7355 75.92 27.7255 75.99 27.7255C76.39 27.7255 76.61 27.9155 76.61 28.2855V32.5255H76.6Z" fill="#242422"/>
<path d="M52.23 37.8254V37.0954H53.97V39.2354C53.88 39.3454 53.75 39.4454 53.57 39.5354C53.39 39.6254 53.19 39.6954 52.96 39.7354C52.74 39.7754 52.5 39.8054 52.25 39.8054C51.77 39.8054 51.36 39.7054 51.03 39.5054C50.69 39.3054 50.45 39.0254 50.27 38.6454C50.1 38.2654 50.01 37.8154 50.01 37.3054C50.01 36.7854 50.1 36.3454 50.29 35.9654C50.48 35.5854 50.74 35.3054 51.09 35.1054C51.44 34.9154 51.85 34.8154 52.33 34.8154C52.59 34.8154 52.85 34.8554 53.08 34.9354C53.32 35.0154 53.51 35.1154 53.64 35.2254C53.77 35.3354 53.84 35.4454 53.84 35.5754C53.84 35.6554 53.81 35.7454 53.74 35.8354C53.67 35.9354 53.59 36.0254 53.48 36.1154C53.29 35.9354 53.1 35.8154 52.92 35.7454C52.74 35.6654 52.54 35.6354 52.33 35.6354C51.89 35.6354 51.57 35.7854 51.34 36.0754C51.12 36.3654 51 36.7854 51 37.3154C51 37.8754 51.11 38.3154 51.35 38.6054C51.59 38.9054 51.92 39.0554 52.36 39.0554C52.57 39.0554 52.75 39.0254 52.89 38.9654C52.96 38.9454 53 38.9054 53.06 38.8654V37.8454H52.23V37.8254Z" fill="#242422"/>
<path d="M57.8901 36.3755C57.8901 36.0955 57.8201 35.8955 57.6801 35.7555C57.5301 35.6255 57.3101 35.5555 57.0201 35.5555C56.9301 35.5555 56.8601 35.5555 56.8001 35.5655C56.7401 35.5755 56.6901 35.5755 56.6401 35.5755V37.2255H56.9801C57.2701 37.2255 57.5101 37.1455 57.6601 37.0055C57.8101 36.8655 57.8901 36.6455 57.8901 36.3755ZM58.9201 36.2755C58.9201 36.6155 58.8401 36.9055 58.6801 37.1455C58.5201 37.3955 58.3001 37.5555 58.0101 37.6755L59.1901 39.6455C59.0001 39.7255 58.8101 39.7655 58.6201 39.7655C58.4401 39.7655 58.3001 39.7355 58.1701 39.6555C58.0501 39.5755 57.9501 39.4555 57.8501 39.2855L57.0301 37.8955H56.6401V39.6955H55.6501V34.9355C56.0601 34.8955 56.4801 34.8655 56.9201 34.8655C57.6001 34.8655 58.1101 34.9755 58.4301 35.2155C58.7701 35.4455 58.9201 35.7955 58.9201 36.2755Z" fill="#242422"/>
<path d="M63.0701 38.9454C63.2601 38.9454 63.4101 38.9854 63.5101 39.0754C63.6101 39.1654 63.6701 39.2854 63.6701 39.4454C63.6701 39.5054 63.6701 39.5454 63.6701 39.5754C63.6701 39.6054 63.6601 39.6554 63.6601 39.6954H60.5701V34.9154H63.5501C63.5601 34.9854 63.5701 35.0754 63.5701 35.1854C63.5701 35.3654 63.5301 35.4954 63.4201 35.5754C63.3301 35.6554 63.1701 35.6854 62.9501 35.6854H61.5401V36.8654H63.0501V37.6254H61.5401V38.9454H63.0701Z" fill="#242422"/>
<path d="M67.5801 38.9454C67.7701 38.9454 67.9201 38.9854 68.0201 39.0754C68.1201 39.1654 68.1801 39.2854 68.1801 39.4454C68.1801 39.5054 68.1801 39.5454 68.1801 39.5754C68.1801 39.6054 68.1801 39.6554 68.1701 39.6954H65.0801V34.9154H68.0601C68.0701 34.9854 68.0801 35.0754 68.0801 35.1854C68.0801 35.3654 68.0401 35.4954 67.9501 35.5754C67.8601 35.6554 67.7001 35.6854 67.4801 35.6854H66.0701V36.8654H67.5801V37.6254H66.0701V38.9454H67.5901H67.5801Z" fill="#242422"/>
<path d="M73.3801 39.6955H72.5501L70.5101 36.5455V39.6955H69.5701V34.9255C69.6901 34.9055 69.8401 34.8855 70.0101 34.8855C70.1401 34.8855 70.2701 34.9055 70.3501 34.9555C70.4401 34.9955 70.5201 35.0755 70.6001 35.2155L72.4501 38.2255V34.9355C72.6001 34.9155 72.7001 34.9055 72.7701 34.9055C73.1701 34.9055 73.3901 35.0955 73.3901 35.4655V39.6955H73.3801Z" fill="#242422"/>
<path d="M48.88 49.2554C48.9 49.2254 48.9 49.1854 48.9 49.1454C48.9 49.1154 48.89 49.0754 48.88 49.0454C48.86 49.0154 48.85 48.9654 48.81 48.9354C48.79 48.9054 48.77 48.8554 48.73 48.8254C48.71 48.7954 48.67 48.7554 48.66 48.7354C48.63 48.7554 48.59 48.7954 48.55 48.8354C48.51 48.8654 48.45 48.9154 48.39 48.9454C48.32 48.9754 48.26 49.0154 48.18 49.0354C48.1 49.0554 48.01 49.0654 47.91 49.0654C47.73 49.0654 47.57 49.0354 47.45 48.9654C47.33 48.8954 47.23 48.8054 47.16 48.6954C47.08 48.5854 47.04 48.4454 47 48.3054C46.97 48.1554 46.96 48.0054 46.96 47.8454C46.96 47.6954 46.97 47.5454 47 47.3954C47.03 47.2454 47.08 47.1154 47.16 47.0054C47.24 46.8954 47.33 46.8054 47.45 46.7254C47.57 46.6554 47.72 46.6254 47.89 46.6254C47.99 46.6254 48.08 46.6354 48.16 46.6554C48.24 46.6754 48.32 46.6954 48.37 46.7354C48.44 46.7654 48.49 46.8054 48.54 46.8454C48.6 46.8854 48.64 46.9354 48.67 46.9654C48.74 46.9054 48.79 46.8454 48.84 46.7754C48.9 46.7054 48.92 46.6454 48.92 46.5754C48.92 46.5354 48.91 46.4854 48.89 46.4554C48.87 46.4254 48.85 46.3854 48.81 46.3554C48.79 46.3354 48.74 46.2954 48.69 46.2654C48.63 46.2354 48.57 46.1954 48.49 46.1654C48.41 46.1354 48.31 46.1054 48.21 46.0754C48.1 46.0554 47.99 46.0454 47.85 46.0454C47.58 46.0454 47.35 46.0854 47.14 46.1754C46.94 46.2654 46.77 46.3854 46.64 46.5554C46.51 46.7154 46.4 46.9154 46.34 47.1254C46.27 47.3454 46.24 47.5854 46.24 47.8554C46.24 48.1154 46.27 48.3554 46.33 48.5754C46.4 48.7854 46.49 48.9754 46.62 49.1454C46.75 49.3054 46.92 49.4254 47.12 49.5154C47.32 49.6054 47.57 49.6454 47.84 49.6454C47.99 49.6454 48.11 49.6354 48.22 49.6154C48.33 49.5954 48.42 49.5754 48.5 49.5354C48.58 49.5054 48.63 49.4654 48.69 49.4454C48.73 49.4154 48.77 49.3854 48.79 49.3654C48.84 49.3154 48.86 49.2854 48.88 49.2554ZM49.77 46.0954C49.7 46.1054 49.65 46.1154 49.61 46.1254L49.35 49.5554H50.02L50.17 47.3354L50.85 48.8354H51.44L52.15 47.2654L52.31 49.5554H52.98L52.73 46.1254C52.7 46.1154 52.64 46.1054 52.58 46.0954C52.51 46.0854 52.45 46.0854 52.38 46.0854C52.29 46.0854 52.2 46.1054 52.13 46.1554C52.06 46.1954 52 46.2754 51.95 46.3954L51.17 48.2254L50.39 46.3754C50.36 46.2854 50.3 46.2154 50.24 46.1654C50.17 46.1054 50.09 46.0854 49.98 46.0854C49.92 46.0854 49.84 46.0854 49.77 46.0954ZM56.27 47.1154C56.21 46.9154 56.11 46.7254 55.98 46.5754C55.85 46.4154 55.67 46.2954 55.43 46.2054C55.21 46.1154 54.91 46.0754 54.58 46.0754C54.47 46.0754 54.33 46.0754 54.18 46.0854C54.02 46.0954 53.83 46.1054 53.62 46.1454V49.5654H54.72C55 49.5654 55.25 49.5254 55.46 49.4154C55.66 49.3254 55.84 49.1954 55.98 49.0354C56.11 48.8754 56.22 48.6854 56.28 48.4654C56.35 48.2554 56.38 48.0154 56.38 47.7754C56.36 47.5354 56.32 47.3254 56.27 47.1154ZM55.58 48.2754C55.55 48.4254 55.49 48.5554 55.42 48.6654C55.34 48.7754 55.24 48.8554 55.11 48.9154C54.98 48.9754 54.81 49.0054 54.61 49.0054H54.33V46.6254C54.44 46.6154 54.54 46.6154 54.64 46.6154C54.83 46.6154 55 46.6454 55.12 46.7054C55.25 46.7654 55.36 46.8554 55.42 46.9554C55.5 47.0554 55.54 47.1754 55.58 47.3254C55.61 47.4754 55.62 47.6154 55.62 47.7754C55.64 47.9654 55.62 48.1254 55.58 48.2754ZM59.14 47.9454C59.11 47.8154 59.04 47.6854 58.97 47.5854C58.89 47.4854 58.79 47.4054 58.67 47.3354C58.55 47.2754 58.4 47.2454 58.23 47.2454C58.07 47.2454 57.93 47.2654 57.82 47.3254C57.7 47.3654 57.61 47.4254 57.55 47.4754C57.57 47.3854 57.62 47.2954 57.67 47.1954C57.73 47.0954 57.79 47.0054 57.88 46.9254C57.97 46.8454 58.06 46.7754 58.18 46.7254C58.29 46.6654 58.43 46.6454 58.58 46.6454C58.64 46.6454 58.68 46.6454 58.73 46.6454C58.76 46.6454 58.81 46.6554 58.85 46.6554C58.86 46.6254 58.86 46.5754 58.86 46.5354C58.86 46.4954 58.86 46.4454 58.86 46.4154C58.86 46.2954 58.83 46.2054 58.76 46.1654C58.69 46.1254 58.59 46.1054 58.46 46.1054C58.26 46.1054 58.05 46.1454 57.84 46.2254C57.64 46.3054 57.46 46.4254 57.29 46.5954C57.13 46.7654 57 46.9754 56.9 47.2354C56.8 47.4954 56.75 47.7954 56.75 48.1454C56.75 48.3854 56.77 48.5854 56.83 48.7754C56.87 48.9654 56.95 49.1254 57.05 49.2454C57.15 49.3754 57.27 49.4854 57.43 49.5454C57.59 49.6154 57.77 49.6454 57.98 49.6454C58.15 49.6454 58.3 49.6254 58.45 49.5654C58.6 49.5054 58.72 49.4354 58.83 49.3154C58.94 49.1954 59.02 49.0654 59.09 48.9154C59.16 48.7554 59.18 48.5654 59.18 48.3654C59.19 48.2154 59.18 48.0754 59.14 47.9454ZM58.35 48.9154C58.26 49.0254 58.16 49.0954 58.01 49.0954C57.9 49.0954 57.81 49.0754 57.74 49.0154C57.67 48.9554 57.62 48.8954 57.58 48.8154C57.55 48.7354 57.51 48.6354 57.5 48.5454C57.49 48.4454 57.48 48.3454 57.48 48.2554C57.48 48.1954 57.48 48.1454 57.48 48.0954C57.48 48.0554 57.49 48.0054 57.49 47.9654C57.51 47.9454 57.53 47.9254 57.57 47.8954C57.61 47.8654 57.65 47.8554 57.69 47.8354C57.73 47.8154 57.78 47.8054 57.84 47.7954C57.88 47.7854 57.94 47.7754 58 47.7754C58.18 47.7754 58.3 47.8354 58.37 47.9454C58.44 48.0554 58.47 48.2154 58.47 48.4254C58.48 48.6254 58.43 48.7954 58.35 48.9154ZM60.47 46.3054C60.43 46.2254 60.37 46.1754 60.3 46.1254C60.23 46.0954 60.15 46.0654 60.04 46.0654C59.98 46.0654 59.93 46.0654 59.86 46.0754C59.8 46.0854 59.76 46.0854 59.73 46.0954V49.5354H60.4V47.2754L61.87 49.5354H62.48V46.4654C62.48 46.3754 62.47 46.3054 62.44 46.2554C62.41 46.1954 62.37 46.1654 62.33 46.1354C62.29 46.1154 62.24 46.0954 62.18 46.0754C62.12 46.0654 62.08 46.0654 62.02 46.0654C62 46.0654 61.98 46.0654 61.95 46.0654C61.92 46.0654 61.91 46.0754 61.88 46.0754C61.85 46.0754 61.82 46.0854 61.8 46.0854V48.4654L60.47 46.3054ZM64.79 46.7054C64.96 46.7054 65.07 46.6754 65.14 46.6054C65.21 46.5354 65.23 46.4354 65.23 46.3254C65.23 46.2954 65.23 46.2554 65.23 46.2254C65.23 46.2054 65.22 46.1654 65.22 46.1254H63.37L63.19 47.8654L63.44 47.9654C63.52 47.9354 63.61 47.8954 63.71 47.8754C63.8 47.8554 63.91 47.8454 64.02 47.8454C64.09 47.8454 64.15 47.8554 64.22 47.8654C64.3 47.8754 64.37 47.9054 64.43 47.9554C64.5 47.9954 64.55 48.0554 64.59 48.1354C64.63 48.2154 64.66 48.3154 64.66 48.4454C64.66 48.5554 64.65 48.6454 64.62 48.7154C64.59 48.7954 64.54 48.8454 64.49 48.9054C64.43 48.9454 64.37 48.9854 64.3 49.0054C64.23 49.0254 64.15 49.0354 64.09 49.0354C63.99 49.0354 63.9 49.0254 63.81 49.0054C63.72 48.9854 63.64 48.9454 63.56 48.9154C63.48 48.8854 63.43 48.8354 63.36 48.8054C63.3 48.7654 63.25 48.7254 63.21 48.6854C63.14 48.7854 63.09 48.8754 63.05 48.9654C63.01 49.0554 62.99 49.1154 62.99 49.1554C62.99 49.1954 63 49.2454 63.03 49.2754C63.05 49.3054 63.09 49.3454 63.12 49.3654C63.14 49.3854 63.19 49.4054 63.23 49.4354C63.29 49.4554 63.34 49.4954 63.42 49.5154C63.5 49.5354 63.59 49.5554 63.7 49.5854C63.81 49.6054 63.94 49.6154 64.08 49.6154C64.29 49.6154 64.48 49.5854 64.64 49.5154C64.8 49.4454 64.93 49.3654 65.03 49.2554C65.13 49.1454 65.21 49.0154 65.27 48.8754C65.33 48.7254 65.35 48.5754 65.35 48.4154C65.35 48.2254 65.33 48.0554 65.27 47.9254C65.21 47.7954 65.14 47.6654 65.03 47.5754C64.92 47.4854 64.81 47.4154 64.67 47.3754C64.54 47.3354 64.38 47.3054 64.21 47.3054C64.14 47.3054 64.06 47.3154 64 47.3254C63.93 47.3354 63.87 47.3454 63.82 47.3554L63.89 46.7054H64.79ZM67.24 48.7354V49.5554H67.95V48.7354H68.35C68.35 48.7154 68.36 48.6754 68.36 48.6454C68.36 48.6254 68.37 48.5854 68.37 48.5554C68.37 48.5254 68.37 48.4954 68.37 48.4654C68.37 48.3854 68.35 48.3354 68.31 48.2854C68.27 48.2454 68.2 48.2154 68.1 48.2154H67.94V46.2054C67.92 46.1854 67.87 46.1754 67.81 46.1454C67.75 46.1354 67.7 46.1254 67.65 46.1254C67.52 46.1254 67.41 46.1554 67.34 46.2254C67.26 46.2954 67.19 46.3554 67.14 46.4354L65.83 48.2554V48.7254L67.24 48.7354ZM66.38 48.2154L67.23 47.0754V48.2154H66.38ZM71.4 46.1654C71.33 46.1454 71.28 46.1254 71.21 46.1054C71.15 46.0954 71.09 46.0854 71.01 46.0854C70.89 46.0854 70.79 46.1054 70.72 46.1654C70.65 46.2254 70.6 46.2854 70.55 46.3654L69.94 47.5554L69.33 46.3554C69.29 46.2654 69.23 46.1954 69.17 46.1554C69.11 46.1154 69.01 46.0854 68.89 46.0854C68.82 46.0854 68.74 46.0954 68.67 46.1154C68.6 46.1354 68.52 46.1554 68.47 46.1854L69.57 48.2454V49.5454H70.28V48.2254L71.4 46.1654ZM72.51 49.0054V48.0554H73.61V47.5054H72.51V46.6554H73.53C73.7 46.6554 73.81 46.6254 73.88 46.5654C73.95 46.5054 73.97 46.4154 73.97 46.2954C73.97 46.2654 73.97 46.2254 73.97 46.1954C73.97 46.1754 73.96 46.1354 73.96 46.0954H71.81V49.5454H74.04C74.04 49.5154 74.05 49.4854 74.05 49.4554C74.05 49.4354 74.05 49.3954 74.05 49.3554C74.05 49.3154 74.04 49.2654 74.03 49.2254C74.02 49.1854 74 49.1354 73.96 49.1054C73.93 49.0754 73.88 49.0354 73.83 49.0254C73.77 49.0054 73.71 48.9954 73.63 48.9954H72.52V49.0054H72.51ZM76.89 49.5554C76.89 49.5254 76.9 49.4954 76.9 49.4654C76.9 49.4454 76.9 49.4054 76.9 49.3654C76.9 49.3254 76.89 49.2754 76.88 49.2354C76.87 49.1954 76.85 49.1554 76.81 49.1254C76.78 49.0954 76.73 49.0554 76.68 49.0454C76.62 49.0354 76.56 49.0154 76.47 49.0154H75.09L76.83 46.5854V46.3254C76.83 46.2454 76.81 46.1954 76.77 46.1554C76.74 46.1254 76.67 46.1154 76.58 46.1154H74.69C74.53 46.1154 74.42 46.1454 74.37 46.2154C74.3 46.2854 74.27 46.3754 74.27 46.4654C74.27 46.4954 74.27 46.5354 74.27 46.5654C74.27 46.5854 74.27 46.6254 74.28 46.6554H75.99L74.25 49.0854V49.5554H76.89Z" fill="#222222"/>
<path d="M47.32 52.3754C47.32 52.3054 47.31 52.2554 47.29 52.2054C47.27 52.1654 47.23 52.1254 47.2 52.1054C47.17 52.0854 47.12 52.0654 47.09 52.0654C47.06 52.0654 47.01 52.0554 46.97 52.0554C46.95 52.0554 46.94 52.0554 46.91 52.0554C46.88 52.0554 46.87 52.0554 46.84 52.0654C46.82 52.0654 46.8 52.0654 46.76 52.0754V54.8354H47.32V53.6354H48.36V54.8354H48.92V52.3854C48.92 52.3154 48.91 52.2654 48.89 52.2154C48.87 52.1754 48.83 52.1354 48.8 52.1154C48.77 52.0954 48.72 52.0854 48.69 52.0754C48.66 52.0654 48.61 52.0654 48.58 52.0654C48.56 52.0654 48.54 52.0654 48.51 52.0654C48.49 52.0654 48.47 52.0654 48.44 52.0754C48.42 52.0754 48.4 52.0754 48.37 52.0854V53.2054H47.33V52.3854H47.32V52.3754ZM51.26 53.4654C51.23 53.3454 51.17 53.2254 51.09 53.1454C51.01 53.0554 50.91 52.9754 50.8 52.9254C50.68 52.8654 50.53 52.8454 50.36 52.8454C50.19 52.8454 50.05 52.8654 49.92 52.9254C49.8 52.9854 49.7 53.0554 49.62 53.1454C49.54 53.2354 49.47 53.3454 49.44 53.4654C49.4 53.5854 49.37 53.7254 49.37 53.8654C49.37 53.9954 49.39 54.1354 49.43 54.2554C49.46 54.3754 49.52 54.4954 49.6 54.5754C49.68 54.6654 49.78 54.7454 49.9 54.7954C50.02 54.8554 50.17 54.8854 50.35 54.8854C50.53 54.8854 50.67 54.8554 50.8 54.7954C50.92 54.7354 51.02 54.6654 51.1 54.5554C51.18 54.4554 51.23 54.3454 51.27 54.2154C51.3 54.0954 51.33 53.9554 51.33 53.8254C51.32 53.7154 51.29 53.5854 51.26 53.4654ZM50.73 54.0854C50.72 54.1654 50.7 54.2354 50.66 54.2854C50.63 54.3454 50.59 54.3954 50.54 54.4354C50.48 54.4654 50.42 54.4954 50.34 54.4954C50.26 54.4954 50.19 54.4754 50.14 54.4354C50.08 54.4054 50.04 54.3554 50.02 54.2854C49.99 54.2254 49.96 54.1654 49.95 54.0854C49.94 54.0054 49.93 53.9354 49.93 53.8654C49.93 53.7854 49.94 53.7154 49.95 53.6454C49.96 53.5754 49.98 53.5154 50.02 53.4554C50.05 53.3954 50.1 53.3554 50.14 53.3254C50.2 53.2954 50.26 53.2654 50.34 53.2654C50.42 53.2654 50.49 53.2854 50.54 53.3254C50.6 53.3554 50.63 53.4054 50.66 53.4554C50.69 53.5154 50.72 53.5754 50.73 53.6454C50.74 53.7254 50.74 53.7954 50.74 53.8654C50.76 53.9354 50.74 54.0054 50.73 54.0854ZM52.99 54.8354H53.55V53.6654C53.55 53.5954 53.55 53.5154 53.54 53.4454C53.54 53.3654 53.53 53.2954 53.52 53.2454C53.5 53.1254 53.43 53.0254 53.34 52.9454C53.25 52.8654 53.1 52.8354 52.9 52.8354C52.82 52.8354 52.75 52.8454 52.69 52.8554C52.62 52.8654 52.58 52.8854 52.52 52.9154C52.48 52.9354 52.43 52.9554 52.4 52.9954C52.37 53.0154 52.34 53.0554 52.32 53.0754V52.2554C52.32 52.1854 52.31 52.1354 52.29 52.0854C52.27 52.0454 52.23 52.0054 52.2 51.9854C52.17 51.9654 52.12 51.9554 52.08 51.9454C52.04 51.9354 51.99 51.9354 51.95 51.9354C51.91 51.9354 51.86 51.9354 51.83 51.9454C51.79 51.9454 51.76 51.9554 51.76 51.9554V54.8554H52.32V53.5254C52.32 53.4554 52.35 53.4154 52.43 53.3654C52.5 53.3254 52.59 53.2954 52.69 53.2954C52.76 53.2954 52.81 53.3054 52.86 53.3254C52.9 53.3454 52.93 53.3654 52.95 53.4154C52.97 53.4454 52.98 53.4954 52.98 53.5454C52.98 53.6054 52.99 53.6554 52.99 53.7154V54.8354ZM54.69 54.3354C54.61 54.2354 54.56 54.1154 54.54 53.9554H55.76C55.76 53.9454 55.76 53.9254 55.77 53.8954C55.77 53.8754 55.77 53.8554 55.77 53.8254C55.77 53.8054 55.77 53.7854 55.77 53.7554C55.77 53.7354 55.77 53.7154 55.77 53.6954C55.77 53.5854 55.76 53.4754 55.73 53.3754C55.7 53.2754 55.65 53.1754 55.58 53.0954C55.51 53.0154 55.42 52.9454 55.32 52.9054C55.21 52.8654 55.08 52.8354 54.93 52.8354C54.81 52.8354 54.69 52.8554 54.58 52.8954C54.47 52.9254 54.37 52.9954 54.28 53.0754C54.19 53.1554 54.12 53.2654 54.07 53.3854C54.01 53.5054 53.99 53.6554 53.99 53.8354C53.99 54.0454 54.02 54.2254 54.08 54.3654C54.14 54.4954 54.21 54.6154 54.32 54.7054C54.42 54.7854 54.53 54.8554 54.66 54.8754C54.78 54.9054 54.92 54.9154 55.04 54.9154C55.19 54.9154 55.31 54.9054 55.41 54.8754C55.51 54.8454 55.6 54.8054 55.66 54.7654C55.73 54.7254 55.76 54.6654 55.76 54.5954C55.76 54.5554 55.74 54.5054 55.7 54.4354C55.67 54.3654 55.63 54.3254 55.6 54.2754C55.58 54.2954 55.54 54.3154 55.52 54.3454C55.49 54.3654 55.45 54.3854 55.41 54.4154C55.37 54.4354 55.32 54.4554 55.26 54.4754C55.2 54.4854 55.15 54.4954 55.08 54.4954C54.9 54.4854 54.78 54.4354 54.69 54.3354ZM54.54 53.6454C54.54 53.4954 54.57 53.3954 54.64 53.3254C54.71 53.2454 54.8 53.2154 54.91 53.2154C55.04 53.2154 55.13 53.2554 55.19 53.3354C55.25 53.4154 55.27 53.5254 55.27 53.6554H54.54V53.6454ZM56.75 53.4954C56.75 53.4254 56.78 53.3854 56.86 53.3354C56.94 53.2954 57.02 53.2654 57.13 53.2654C57.2 53.2654 57.25 53.2754 57.3 53.2954C57.35 53.3154 57.37 53.3354 57.39 53.3854C57.41 53.4154 57.42 53.4654 57.42 53.5154C57.42 53.5754 57.43 53.6254 57.43 53.6854V54.8254H57.99V53.6554C57.99 53.5854 57.99 53.5054 57.98 53.4354C57.98 53.3554 57.97 53.2854 57.96 53.2354C57.94 53.1154 57.87 53.0154 57.78 52.9354C57.69 52.8554 57.54 52.8254 57.34 52.8254C57.17 52.8254 57.05 52.8454 56.95 52.9054C56.85 52.9654 56.78 53.0154 56.74 53.0854C56.73 53.0054 56.68 52.9554 56.62 52.9154C56.56 52.8754 56.49 52.8754 56.4 52.8754C56.37 52.8754 56.34 52.8754 56.32 52.8754C56.3 52.8754 56.28 52.8754 56.26 52.8854C56.24 52.8854 56.23 52.8854 56.22 52.8954V54.8454H56.78V53.4954H56.75ZM59.67 52.9154C59.6 52.8954 59.54 52.8754 59.45 52.8454C59.36 52.8354 59.26 52.8254 59.16 52.8254C59.06 52.8254 58.96 52.8354 58.86 52.8554C58.76 52.8754 58.68 52.9254 58.6 52.9654C58.52 53.0254 58.47 53.0754 58.42 53.1554C58.38 53.2354 58.35 53.3154 58.35 53.4154C58.35 53.5154 58.37 53.5954 58.41 53.6654C58.44 53.7354 58.49 53.7854 58.54 53.8354C58.6 53.8754 58.66 53.9154 58.74 53.9454C58.82 53.9654 58.89 53.9854 58.98 54.0154C59.1 54.0354 59.19 54.0754 59.26 54.1054C59.33 54.1354 59.35 54.1954 59.35 54.2754C59.35 54.3154 59.34 54.3554 59.32 54.3854C59.3 54.4054 59.28 54.4254 59.25 54.4554C59.22 54.4654 59.18 54.4754 59.15 54.4854C59.12 54.4854 59.07 54.4954 59.04 54.4954C58.98 54.4954 58.93 54.4854 58.87 54.4754C58.81 54.4654 58.76 54.4454 58.71 54.4154C58.67 54.3954 58.62 54.3754 58.59 54.3454C58.56 54.3254 58.52 54.3054 58.5 54.2754C58.47 54.3354 58.43 54.3854 58.41 54.4354C58.39 54.4954 58.37 54.5354 58.37 54.5854C58.37 54.6454 58.39 54.6854 58.44 54.7154C58.48 54.7454 58.53 54.7754 58.56 54.7854C58.62 54.8054 58.68 54.8254 58.77 54.8554C58.85 54.8754 58.96 54.8754 59.07 54.8754C59.19 54.8754 59.29 54.8654 59.39 54.8354C59.49 54.8054 59.58 54.7554 59.65 54.7054C59.73 54.6454 59.78 54.5754 59.83 54.4954C59.87 54.4054 59.9 54.3154 59.9 54.2054C59.9 54.0954 59.88 54.0054 59.84 53.9354C59.8 53.8654 59.75 53.8054 59.68 53.7554C59.61 53.7154 59.55 53.6754 59.46 53.6454C59.38 53.6254 59.29 53.6054 59.21 53.5754C59.01 53.5354 58.91 53.4654 58.91 53.3754C58.91 53.3454 58.92 53.3054 58.93 53.2854C58.95 53.2654 58.97 53.2454 59 53.2254C59.02 53.2154 59.06 53.2054 59.09 53.2054C59.12 53.2054 59.16 53.1954 59.18 53.1954C59.24 53.1954 59.29 53.2054 59.35 53.2154C59.41 53.2254 59.45 53.2454 59.51 53.2754C59.55 53.2954 59.6 53.3154 59.64 53.3454C59.68 53.3654 59.72 53.3854 59.74 53.4154C59.77 53.3754 59.8 53.3154 59.83 53.2554C59.85 53.1954 59.86 53.1554 59.86 53.1054C59.86 53.0254 59.8 52.9754 59.67 52.9154ZM60.51 54.7954C60.6 54.8654 60.73 54.8954 60.91 54.8954C61 54.8954 61.08 54.8854 61.16 54.8754C61.24 54.8554 61.29 54.8354 61.35 54.8054C61.41 54.7754 61.44 54.7454 61.47 54.7054C61.5 54.6754 61.51 54.6354 61.51 54.6054C61.51 54.5754 61.5 54.5254 61.48 54.4854C61.46 54.4454 61.42 54.3854 61.39 54.3254C61.38 54.3354 61.37 54.3454 61.35 54.3554C61.33 54.3654 61.31 54.3854 61.28 54.3954C61.25 54.4054 61.22 54.4254 61.19 54.4354C61.16 54.4454 61.12 54.4554 61.08 54.4554C60.92 54.4554 60.84 54.3554 60.84 54.1654V53.2954H61.42V52.8654H60.84V52.5954C60.84 52.5254 60.83 52.4754 60.81 52.4254C60.79 52.3854 60.75 52.3454 60.72 52.3254C60.69 52.3054 60.64 52.2854 60.6 52.2854C60.56 52.2754 60.51 52.2754 60.47 52.2754C60.45 52.2754 60.43 52.2754 60.4 52.2754C60.37 52.2754 60.36 52.2754 60.33 52.2854C60.31 52.2854 60.29 52.2854 60.26 52.2954V54.2154C60.26 54.2754 60.26 54.3354 60.27 54.3954C60.27 54.4554 60.29 54.5154 60.3 54.5654C60.35 54.6554 60.41 54.7354 60.51 54.7954ZM62.45 54.3354C62.37 54.2354 62.32 54.1154 62.3 53.9554H63.52C63.52 53.9454 63.52 53.9254 63.53 53.8954C63.53 53.8754 63.53 53.8554 63.53 53.8254C63.53 53.8054 63.53 53.7854 63.53 53.7554C63.53 53.7354 63.53 53.7154 63.53 53.6954C63.53 53.5854 63.52 53.4754 63.49 53.3754C63.46 53.2754 63.41 53.1754 63.34 53.0954C63.27 53.0154 63.18 52.9454 63.08 52.9054C62.97 52.8654 62.84 52.8354 62.69 52.8354C62.57 52.8354 62.45 52.8554 62.34 52.8954C62.23 52.9254 62.13 52.9954 62.04 53.0754C61.95 53.1554 61.88 53.2654 61.83 53.3854C61.77 53.5054 61.75 53.6554 61.75 53.8354C61.75 54.0454 61.78 54.2254 61.84 54.3654C61.9 54.4954 61.97 54.6154 62.08 54.7054C62.19 54.7954 62.29 54.8554 62.42 54.8754C62.54 54.9054 62.68 54.9154 62.8 54.9154C62.95 54.9154 63.07 54.9054 63.17 54.8754C63.27 54.8454 63.36 54.8054 63.42 54.7654C63.49 54.7254 63.52 54.6654 63.52 54.5954C63.52 54.5554 63.5 54.5054 63.46 54.4354C63.43 54.3654 63.39 54.3254 63.36 54.2754C63.34 54.2954 63.3 54.3154 63.28 54.3454C63.25 54.3654 63.21 54.3854 63.17 54.4154C63.13 54.4354 63.08 54.4554 63.02 54.4754C62.96 54.4854 62.91 54.4954 62.84 54.4954C62.67 54.4854 62.53 54.4354 62.45 54.3354ZM62.31 53.6454C62.31 53.4954 62.34 53.3954 62.41 53.3254C62.48 53.2454 62.57 53.2154 62.68 53.2154C62.81 53.2154 62.9 53.2554 62.96 53.3354C63.02 53.4154 63.04 53.5254 63.04 53.6554H62.31V53.6454ZM64.51 53.1954C64.51 53.1254 64.5 53.0754 64.48 53.0254C64.46 52.9854 64.42 52.9454 64.39 52.9254C64.36 52.9054 64.31 52.8954 64.27 52.8854C64.23 52.8754 64.18 52.8754 64.14 52.8754C64.1 52.8754 64.05 52.8754 64.02 52.8854C63.98 52.8854 63.95 52.8954 63.95 52.8954V54.5454C63.95 54.6154 63.96 54.6654 63.97 54.7154C63.99 54.7554 64.01 54.7954 64.05 54.8154C64.08 54.8354 64.12 54.8554 64.16 54.8754C64.2 54.8854 64.25 54.8854 64.31 54.8854C64.35 54.8854 64.4 54.8854 64.43 54.8854C64.46 54.8854 64.5 54.8754 64.51 54.8754V53.1954ZM64.42 52.0054C64.36 51.9454 64.29 51.9154 64.21 51.9154C64.12 51.9154 64.05 51.9454 64 52.0054C63.94 52.0654 63.91 52.1254 63.91 52.2154C63.91 52.3054 63.94 52.3754 64 52.4254C64.06 52.4854 64.13 52.5054 64.21 52.5054C64.29 52.5054 64.37 52.4854 64.42 52.4254C64.48 52.3654 64.51 52.3054 64.51 52.2154C64.51 52.1454 64.49 52.0654 64.42 52.0054ZM65.6 53.4954C65.6 53.4254 65.63 53.3854 65.71 53.3354C65.79 53.2954 65.87 53.2654 65.98 53.2654C66.05 53.2654 66.1 53.2754 66.15 53.2954C66.2 53.3154 66.22 53.3354 66.24 53.3854C66.26 53.4154 66.27 53.4654 66.27 53.5154C66.27 53.5754 66.28 53.6254 66.28 53.6854V54.8254H66.84V53.6554C66.84 53.5854 66.84 53.5054 66.83 53.4354C66.83 53.3554 66.82 53.2854 66.81 53.2354C66.79 53.1154 66.72 53.0154 66.63 52.9354C66.54 52.8554 66.39 52.8254 66.19 52.8254C66.02 52.8254 65.9 52.8454 65.8 52.9054C65.7 52.9654 65.63 53.0154 65.59 53.0854C65.58 53.0054 65.53 52.9554 65.47 52.9154C65.41 52.8754 65.34 52.8754 65.25 52.8754C65.22 52.8754 65.19 52.8754 65.17 52.8754C65.15 52.8754 65.13 52.8754 65.11 52.8854C65.09 52.8854 65.08 52.8854 65.07 52.8954V54.8454H65.63V53.4954H65.6ZM68.86 52.3754C68.86 52.3054 68.85 52.2554 68.83 52.2054C68.81 52.1654 68.77 52.1254 68.74 52.1054C68.71 52.0854 68.66 52.0654 68.63 52.0654C68.6 52.0654 68.55 52.0554 68.51 52.0554C68.49 52.0554 68.48 52.0554 68.45 52.0554C68.43 52.0554 68.41 52.0554 68.38 52.0654C68.36 52.0654 68.34 52.0654 68.3 52.0754V54.8354H68.86V53.6354H69.9V54.8354H70.46V52.3854C70.46 52.3154 70.45 52.2654 70.43 52.2154C70.41 52.1754 70.37 52.1354 70.34 52.1154C70.31 52.0954 70.26 52.0854 70.23 52.0754C70.2 52.0654 70.15 52.0654 70.12 52.0654C70.1 52.0654 70.08 52.0654 70.05 52.0654C70.03 52.0654 70.01 52.0654 69.98 52.0754C69.96 52.0754 69.94 52.0754 69.91 52.0854V53.2054H68.87V52.3854H68.86V52.3754ZM71.64 54.8354H72.21V52.5354H72.73C72.8 52.5354 72.84 52.5254 72.89 52.5154C72.93 52.5054 72.97 52.4854 72.99 52.4454C73.01 52.4254 73.03 52.3854 73.05 52.3554C73.06 52.3254 73.06 52.2854 73.06 52.2554C73.06 52.1954 73.06 52.1354 73.05 52.0754H71.1C70.98 52.0754 70.89 52.1054 70.83 52.1654C70.77 52.2354 70.75 52.2954 70.75 52.3654C70.75 52.3954 70.75 52.4254 70.75 52.4454C70.75 52.4654 70.75 52.4854 70.76 52.5254H71.62V54.8354H71.64ZM73.99 54.8354H74.56V52.5354H75.08C75.15 52.5354 75.19 52.5254 75.24 52.5154C75.28 52.5054 75.32 52.4854 75.34 52.4454C75.36 52.4254 75.38 52.3854 75.4 52.3554C75.41 52.3254 75.41 52.2854 75.41 52.2554C75.41 52.1954 75.41 52.1354 75.4 52.0754H73.46C73.34 52.0754 73.25 52.1054 73.19 52.1654C73.13 52.2254 73.11 52.2954 73.11 52.3654C73.11 52.3954 73.11 52.4254 73.11 52.4454C73.11 52.4654 73.11 52.4854 73.12 52.5254H73.98V54.8354H73.99ZM76.27 52.3754C76.27 52.3054 76.26 52.2554 76.24 52.2054C76.22 52.1654 76.18 52.1254 76.15 52.1054C76.12 52.0854 76.07 52.0754 76.03 52.0654C75.99 52.0554 75.95 52.0554 75.91 52.0554C75.89 52.0554 75.88 52.0554 75.85 52.0554C75.83 52.0554 75.81 52.0554 75.78 52.0654C75.76 52.0654 75.74 52.0654 75.71 52.0754V54.8354H76.27V52.3754Z" fill="#222222"/>
</svg>
