<svg xmlns="http://www.w3.org/2000/svg" width="80" height="81" fill="none"><mask id="a" width="35" height="35" x="3" y="23" maskUnits="userSpaceOnUse" style="mask-type:luminance"><path fill="#fff" d="M37.25 23.216H3.09v34.16h34.16z"/></mask><g mask="url(#a)"><path fill="#00A688" d="M8.13 52.346c3.66 3.66 8.25 5.03 12.13 5.03 4.75 0 9.53-1.92 12.49-5.33 2.97-3.41 4.49-7.72 4.49-13.8v-15.03H22.23c-6.2 0-10.15 1.89-12.26 3.31-2.18 1.46-6.04 5.37-6.77 11.73-.56 5.01 1.08 10.24 4.93 14.09"/></g><path fill="#fff" d="M11.14 38.265c-.26-.4-.39-.96-.39-1.68 0-.71.13-1.25.39-1.64.26-.39.64-.57 1.14-.57.48 0 .84.19 1.09.57.25.38.38.93.38 1.64 0 .73-.13 1.29-.38 1.68-.26.4-.63.59-1.11.59-.48 0-.86-.19-1.12-.59m3.18.74c.49-.58.74-1.4.74-2.43 0-1.02-.24-1.82-.72-2.39-.48-.57-1.17-.85-2.05-.85-.58 0-1.09.12-1.51.38-.43.26-.76.63-1 1.13-.24.49-.36 1.08-.36 1.74 0 .67.1 1.25.32 1.75.21.5.53.89.94 1.15.41.27.92.4 1.52.4.93-.01 1.63-.3 2.12-.88m5.88.571v-.17c0-.21-.07-.38-.2-.49-.13-.11-.32-.17-.57-.17h-1.98v-1.73h1.97v-1h-1.97v-1.55h1.83c.28 0 .48-.04.61-.15.12-.1.18-.27.18-.5 0-.13-.01-.26-.02-.35h-3.88v6.26h4.02c0-.06 0-.11.01-.15m2.17-3.031c.02.31.18.66.46 1.02l1.37 1.78c.25.32.58.48 1 .48.25 0 .49-.07.73-.21l-2.31-3.15 2.05-2.76a.825.825 0 0 0-.32-.2 1.49 1.49 0 0 0-.43-.08c-.17 0-.32.04-.47.12-.13.08-.28.21-.41.38l-1.28 1.68c-.12.16-.21.3-.27.44-.06.12-.09.26-.11.39v-2.29c0-.48-.28-.73-.83-.73-.1 0-.25.01-.45.04v6.25h1.28v-3.16zm7.63 1.72c-.26.4-.63.59-1.11.59-.48 0-.85-.2-1.12-.61-.26-.4-.39-.96-.39-1.68 0-.71.13-1.25.39-1.64.26-.38.64-.57 1.14-.57.48 0 .84.19 1.09.57.25.38.38.93.38 1.64 0 .73-.13 1.3-.38 1.7m.97-4.08c-.48-.57-1.17-.85-2.05-.85-.58 0-1.09.12-1.51.38-.43.26-.76.63-1 1.13-.24.49-.35 1.08-.35 1.74 0 .67.11 1.25.32 1.75.21.5.53.89.94 1.15.41.27.92.4 1.52.4.91 0 1.61-.29 2.11-.89.49-.58.74-1.4.74-2.43 0-1.01-.24-1.81-.72-2.38m-1.5 10.56c-.66 0-1.21-.55-1.21-1.21 0-.66.54-1.21 1.21-1.21.66 0 1.21.55 1.21 1.21 0 .66-.55 1.21-1.21 1.21m0-2.79a1.581 1.581 0 0 0 0 3.16 1.581 1.581 0 0 0 0-3.16"/><path fill="#fff" d="M29.63 43.416c-.06.04-.12.07-.21.07h-.12v-.54h.13c.09 0 .16.02.2.06.04.04.08.11.08.2-.01.1-.03.17-.08.21m.22.16c.03-.02.07-.06.09-.09.03-.03.06-.08.07-.13.01-.04.02-.11.02-.17a.42.42 0 0 0-.16-.35c-.1-.08-.27-.11-.49-.11h-.19c-.07.01-.15.01-.21.02v1.55h.32v-.58h.12l.26.45c.03.06.07.09.1.12.03.02.09.03.15.03.03 0 .06 0 .09-.01l.09-.03-.38-.64c.05-.02.09-.04.12-.06m-17.25-1.58c-.24 0-.44.06-.57.18-.15.12-.21.28-.21.49 0 .13.01.26.02.37h1.94v5.21h1.28v-5.21h1.17c.24 0 .43-.06.56-.18.13-.11.2-.27.2-.47 0-.13-.01-.27-.03-.4H12.6zm8.4 5.27h-1.98v-1.73h1.97v-1h-1.97v-1.55h1.83c.28 0 .48-.04.61-.15.12-.1.18-.27.18-.5 0-.13-.01-.26-.02-.35h-3.88v6.26h4.02c.01-.06.01-.11.01-.16v-.17c0-.21-.07-.38-.2-.49-.13-.1-.33-.16-.57-.16m6.45-5.121c-.24-.12-.46-.19-.68-.19-.2 0-.36.04-.49.12-.12.08-.26.22-.37.44l-.92 1.59-.9-1.69c-.16-.3-.4-.46-.74-.46-.22 0-.49.07-.81.2l1.64 2.97-1.84 3.13h1.39l1.19-2.06.95 1.6c.12.21.26.36.39.45.13.09.31.12.54.12.22 0 .47-.04.73-.15l-1.82-3.14z"/><path fill="#242422" d="M47.64 27.705c.13 0 .25.03.34.09.09.06.17.17.24.3l1.09 2.55 1.1-2.53c.13-.29.32-.43.59-.43.22 0 .38.02.49.07l.35 4.75h-.94l-.22-3.17-.97 2.17h-.82l-.94-2.08-.2 3.08h-.95l.35-4.75c.13-.03.3-.05.49-.05m7.4.9-.65 2.04h1.28zm1.22 3.92-.4-1.18h-1.65l-.39 1.18h-.97l1.66-4.72c.16-.07.35-.1.57-.1.35 0 .57.15.67.44l1.53 4.37h-1.02zm5.02-2.45c0-.55-.11-.95-.35-1.21-.22-.27-.57-.39-1.04-.39-.13 0-.28.01-.43.02v3.29h.39c.49 0 .85-.13 1.08-.4.23-.28.35-.72.35-1.31m.99-.01c0 .5-.09.94-.28 1.32-.19.38-.45.66-.78.86-.34.19-.74.29-1.21.29h-1.52v-4.75c.45-.06.89-.09 1.34-.09.82 0 1.42.2 1.84.59.42.39.61.99.61 1.78m4 1.711c.19 0 .34.04.44.13.1.09.16.21.16.37v.13c0 .03-.01.08-.01.12h-3.09v-4.78h2.98c.01.07.02.16.02.27 0 .18-.04.31-.13.39-.09.08-.25.11-.47.11h-1.41v1.18h1.51v.76h-1.51v1.32h1.52zm3.85-4.02c.16-.02.27-.03.35-.03.43 0 .64.19.64.56v4.26h-.97v-4.78h-.02zm6.48 4.77h-.83l-2.04-3.15v3.15h-.94v-4.77c.12-.02.27-.04.44-.04.13 0 .25.02.34.07.09.05.17.12.25.26l1.85 3v-3.29c.15-.02.25-.03.32-.03.4 0 .62.19.62.56v4.24zm-24.37 5.299v-.73h1.74v2.14c-.09.11-.22.21-.4.3-.18.09-.38.16-.61.2-.22.04-.46.07-.71.07-.48 0-.89-.1-1.22-.3-.34-.2-.58-.48-.76-.86-.17-.38-.26-.83-.26-1.34 0-.52.09-.96.28-1.34.19-.38.45-.66.8-.86.35-.19.76-.29 1.24-.29.26 0 .52.04.75.12.24.08.43.18.56.29.13.11.2.22.2.35 0 .08-.03.17-.1.26-.07.1-.15.19-.26.28-.19-.18-.38-.3-.56-.37-.18-.08-.38-.11-.59-.11-.44 0-.76.15-.99.44-.22.29-.34.71-.34 1.24 0 .56.11 1 .35 1.29.24.3.57.45 1.01.45.21 0 .39-.03.53-.09.07-.02.11-.06.17-.1v-1.02h-.83zm5.66-1.449c0-.28-.07-.48-.21-.62-.15-.13-.37-.2-.66-.2-.09 0-.16 0-.22.01s-.11.01-.16.01v1.65h.34c.29 0 .53-.08.68-.22.15-.14.23-.36.23-.63m1.03-.1c0 .34-.08.63-.24.87-.16.25-.38.41-.67.53l1.18 1.97c-.19.08-.38.12-.57.12-.18 0-.32-.03-.45-.11-.12-.08-.22-.2-.32-.37l-.82-1.39h-.39v1.8h-.99v-4.76c.41-.04.83-.07 1.27-.07.68 0 1.19.11 1.51.35.34.23.49.58.49 1.06m4.15 2.669c.19 0 .34.04.44.13.1.09.16.21.16.37v.13c0 .03-.01.08-.01.12h-3.09v-4.78h2.98c.01.07.02.16.02.27 0 .18-.04.31-.15.39-.09.08-.25.11-.47.11h-1.41v1.18h1.51v.76h-1.51v1.32zm4.51 0c.19 0 .34.04.44.13.1.09.16.21.16.37v.13c0 .03 0 .08-.01.12h-3.09v-4.78h2.98c.01.07.02.16.02.27 0 .18-.04.31-.13.39-.09.08-.25.11-.47.11h-1.41v1.18h1.51v.76h-1.51v1.32h1.52zm5.8.751h-.83l-2.04-3.15v3.15h-.94v-4.77c.12-.02.27-.04.44-.04.13 0 .26.02.34.07.09.04.17.12.25.26l1.85 3.01v-3.29c.15-.02.25-.03.32-.03.4 0 .62.19.62.56v4.23z"/><path fill="#222" d="M48.88 49.255c.02-.03.02-.07.02-.11 0-.03-.01-.07-.02-.1-.02-.03-.03-.08-.07-.11-.02-.03-.04-.08-.08-.11-.02-.03-.06-.07-.07-.09-.03.02-.07.06-.11.1-.04.03-.1.08-.16.11-.07.03-.13.07-.21.09-.08.02-.17.03-.27.03-.18 0-.34-.03-.46-.1a.838.838 0 0 1-.29-.27c-.08-.11-.12-.25-.16-.39-.03-.15-.04-.3-.04-.46 0-.15.01-.3.04-.45.03-.15.08-.28.16-.39.08-.11.17-.2.29-.28.12-.07.27-.1.44-.1.1 0 .19.01.27.03.08.02.16.04.21.08.07.03.12.07.17.11.06.04.1.09.13.12.07-.06.12-.12.17-.19.06-.07.08-.13.08-.2 0-.04-.01-.09-.03-.12-.02-.03-.04-.07-.08-.1a.735.735 0 0 0-.12-.09c-.06-.03-.12-.07-.2-.1-.08-.03-.18-.06-.28-.09-.11-.02-.22-.03-.36-.03-.27 0-.5.04-.71.13-.2.09-.37.21-.5.38-.13.16-.24.36-.3.57-.07.22-.1.46-.1.73 0 .26.03.5.09.72.07.21.16.4.29.57.13.16.3.28.5.37.2.09.45.13.72.13.15 0 .27-.01.38-.03.11-.02.2-.04.28-.08.08-.03.13-.07.19-.09.04-.03.08-.06.1-.08.05-.05.07-.08.09-.11m.89-3.16c-.07.01-.12.02-.16.03l-.26 3.43h.67l.15-2.22.68 1.5h.59l.71-1.57.16 2.29h.67l-.25-3.43c-.03-.01-.09-.02-.15-.03-.07-.01-.13-.01-.2-.01a.43.43 0 0 0-.25.07c-.07.04-.13.12-.18.24l-.78 1.83-.78-1.85a.474.474 0 0 0-.15-.21c-.07-.06-.15-.08-.26-.08-.06 0-.14 0-.21.01m6.5 1.02c-.06-.2-.16-.39-.29-.54-.13-.16-.31-.28-.55-.37-.22-.09-.52-.13-.85-.13-.11 0-.25 0-.4.01-.16.01-.35.02-.56.06v3.42h1.1c.28 0 .53-.04.74-.15.2-.09.38-.22.52-.38.13-.16.24-.35.3-.57.07-.21.1-.45.1-.69-.02-.24-.06-.45-.11-.66m-.69 1.16c-.03.15-.09.28-.16.39-.08.11-.18.19-.31.25s-.3.09-.5.09h-.28v-2.38c.11-.01.21-.01.31-.01.19 0 .36.03.48.09.13.06.24.15.3.25.08.1.12.22.16.37.03.15.04.29.04.45.02.19 0 .35-.04.5m3.56-.33c-.03-.13-.1-.26-.17-.36-.08-.1-.18-.18-.3-.25a.986.986 0 0 0-.44-.09c-.16 0-.3.02-.41.08-.12.04-.21.1-.27.15.02-.09.07-.18.12-.28a1.091 1.091 0 0 1 .51-.47c.11-.06.25-.08.4-.08h.15c.03 0 .08.01.12.01.01-.03.01-.08.01-.12v-.12c0-.12-.03-.21-.1-.25a.612.612 0 0 0-.3-.06 1.618 1.618 0 0 0-1.17.49c-.16.17-.29.38-.39.64-.1.26-.15.56-.15.91 0 .24.02.44.08.63.04.19.12.35.22.47.1.13.22.24.38.3.16.07.34.1.55.1.17 0 .32-.02.47-.08a.97.97 0 0 0 .38-.25c.11-.12.19-.25.26-.4.07-.16.09-.35.09-.55.01-.15 0-.29-.04-.42m-.79.97c-.09.11-.19.18-.34.18-.11 0-.2-.02-.27-.08a.615.615 0 0 1-.16-.2c-.03-.08-.07-.18-.08-.27-.01-.1-.02-.2-.02-.29v-.16c0-.04.01-.09.01-.13.02-.02.04-.04.08-.07.04-.03.08-.04.12-.06.04-.02.09-.03.15-.04.04-.01.1-.02.16-.02.18 0 .3.06.37.17.07.11.1.27.1.48.01.2-.04.37-.12.49m2.12-2.61a.49.49 0 0 0-.17-.18.623.623 0 0 0-.26-.06c-.06 0-.11 0-.18.01-.06.01-.1.01-.13.02v3.44h.67v-2.26l1.47 2.26h.61v-3.07c0-.09-.01-.16-.04-.21-.03-.06-.07-.09-.11-.12-.04-.02-.09-.04-.15-.06-.06-.01-.1-.01-.16-.01h-.07c-.03 0-.04.01-.07.01-.03 0-.06.01-.08.01v2.38zm4.32.4c.17 0 .28-.03.35-.1.07-.07.09-.17.09-.28v-.1c0-.02-.01-.06-.01-.1h-1.85l-.18 1.74.25.1c.08-.03.17-.07.27-.09.09-.02.2-.03.31-.03.07 0 .13.01.2.02.08.01.15.04.21.09.07.04.12.1.16.18.04.08.07.18.07.31 0 .11-.01.2-.04.27-.03.08-.08.13-.13.19-.06.04-.12.08-.19.1-.07.02-.15.03-.21.03-.1 0-.19-.01-.28-.03-.09-.02-.17-.06-.25-.09-.08-.03-.13-.08-.2-.11a.983.983 0 0 1-.15-.12c-.07.1-.12.19-.16.28-.04.09-.06.15-.06.19 0 .04.01.09.04.12.02.03.06.07.09.09.02.02.07.04.11.07.06.02.11.06.19.08.08.02.17.04.28.07.11.02.24.03.38.03.21 0 .4-.03.56-.1.16-.07.29-.15.39-.26.1-.11.18-.24.24-.38.06-.15.08-.3.08-.46 0-.19-.02-.36-.08-.49a.952.952 0 0 0-.24-.35.981.981 0 0 0-.36-.2 1.361 1.361 0 0 0-.67-.05c-.07.01-.13.02-.18.03l.07-.65zm2.45 2.03v.82h.71v-.82h.4c0-.02.01-.06.01-.09 0-.02.01-.06.01-.09v-.09c0-.08-.02-.13-.06-.18-.04-.04-.11-.07-.21-.07h-.16v-2.01c-.02-.02-.07-.03-.13-.06-.06-.01-.11-.02-.16-.02-.13 0-.24.03-.31.1-.08.07-.15.13-.2.21l-1.31 1.82v.47zm-.86-.52.85-1.14v1.14zm5.02-2.05c-.07-.02-.12-.04-.19-.06-.06-.01-.12-.02-.2-.02-.12 0-.22.02-.29.08a.82.82 0 0 0-.17.2l-.61 1.19-.61-1.2a.473.473 0 0 0-.16-.2.522.522 0 0 0-.28-.07c-.07 0-.15.01-.22.03-.07.02-.15.04-.2.07l1.1 2.06v1.3h.71v-1.32zm1.11 2.84v-.95h1.1v-.55h-1.1v-.85h1.02c.17 0 .28-.03.35-.09.07-.06.09-.15.09-.27v-.1c0-.02-.01-.06-.01-.1h-2.15v3.45h2.23c0-.03.01-.06.01-.09v-.1c0-.04-.01-.09-.02-.13a.213.213 0 0 0-.07-.12.287.287 0 0 0-.13-.08.601.601 0 0 0-.2-.03h-1.11v.01zm4.38.55c0-.03.01-.06.01-.09v-.1c0-.04-.01-.09-.02-.13a.19.19 0 0 0-.07-.11.287.287 0 0 0-.13-.08c-.06-.01-.12-.03-.21-.03h-1.38l1.74-2.43v-.26c0-.08-.02-.13-.06-.17-.03-.03-.1-.04-.19-.04h-1.89c-.16 0-.27.03-.32.1-.07.07-.1.16-.1.25v.1c0 .02 0 .06.01.09h1.71l-1.74 2.43v.47zm-29.57 2.82a.43.43 0 0 0-.03-.17.293.293 0 0 0-.09-.1.246.246 0 0 0-.11-.04c-.03 0-.08-.01-.12-.01h-.06c-.03 0-.04 0-.07.01-.02 0-.04 0-.08.01v2.76h.56v-1.2h1.04v1.2h.56v-2.45a.43.43 0 0 0-.03-.17.293.293 0 0 0-.09-.1c-.03-.02-.08-.03-.11-.04-.03-.01-.08-.01-.11-.01h-.07c-.02 0-.04 0-.07.01-.02 0-.04 0-.07.01v1.12h-1.04v-.82h-.01zm3.94 1.09a.707.707 0 0 0-.17-.32.893.893 0 0 0-.29-.22.99.99 0 0 0-.44-.08c-.17 0-.31.02-.44.08-.12.06-.22.13-.3.22-.08.09-.15.2-.18.32-.04.12-.07.26-.07.4 0 .13.02.27.06.39.03.12.09.24.17.32.08.09.18.17.3.22.12.06.27.09.45.09s.32-.03.45-.09a.78.78 0 0 0 .3-.24c.08-.1.13-.21.17-.34.03-.12.06-.26.06-.39a2.53 2.53 0 0 0-.07-.36m-.53.62c-.01.08-.03.15-.07.2-.03.06-.07.11-.12.15-.06.03-.12.06-.2.06-.08 0-.15-.02-.2-.06a.23.23 0 0 1-.12-.15.591.591 0 0 1-.07-.2c-.01-.08-.02-.15-.02-.22 0-.08.01-.15.02-.22s.03-.13.07-.19c.03-.06.08-.1.12-.13.06-.03.12-.06.2-.06.08 0 .15.02.2.06.06.03.09.08.12.13.03.06.06.12.07.19.01.08.01.15.01.22.02.07 0 .14-.01.22m2.26.75h.56v-1.17c0-.07 0-.15-.01-.22 0-.08-.01-.15-.02-.2a.521.521 0 0 0-.18-.3c-.09-.08-.24-.11-.44-.11-.08 0-.15.01-.21.02-.07.01-.11.03-.17.06-.04.02-.09.04-.12.08-.03.02-.06.06-.08.08v-.82a.43.43 0 0 0-.03-.17.293.293 0 0 0-.09-.1c-.03-.02-.08-.03-.12-.04-.04-.01-.09-.01-.13-.01-.04 0-.09 0-.12.01-.04 0-.07.01-.07.01v2.9h.56v-1.33c0-.07.03-.11.11-.16.07-.04.16-.07.26-.07.07 0 .12.01.17.03.04.02.07.04.09.09.02.03.03.08.03.13 0 .06.01.11.01.17zm1.7-.5a.727.727 0 0 1-.15-.38h1.22c0-.01 0-.03.01-.06v-.2c0-.11-.01-.22-.04-.32a.76.76 0 0 0-.15-.28.7.7 0 0 0-.26-.19c-.11-.04-.24-.07-.39-.07-.12 0-.24.02-.35.06a.851.851 0 0 0-.51.49c-.06.12-.08.27-.08.45 0 .21.03.39.09.53.06.13.13.25.24.34.1.08.21.15.34.17.12.03.26.04.38.04.15 0 .27-.01.37-.04.1-.03.19-.07.25-.11.07-.04.1-.1.1-.17 0-.04-.02-.09-.06-.16-.03-.07-.07-.11-.1-.16-.02.02-.06.04-.08.07-.03.02-.07.04-.11.07-.04.02-.09.04-.15.06-.06.01-.11.02-.18.02-.18-.01-.3-.06-.39-.16m-.15-.69c0-.15.03-.25.1-.32.07-.08.16-.11.27-.11.13 0 .22.04.28.12.06.08.08.19.08.32h-.73zm2.21-.15c0-.07.03-.11.11-.16.08-.04.16-.07.27-.07.07 0 .12.01.17.03.05.02.07.04.09.09.02.03.03.08.03.13 0 .06.01.11.01.17v1.14h.56v-1.17c0-.07 0-.15-.01-.22 0-.08-.01-.15-.02-.2a.521.521 0 0 0-.18-.3c-.09-.08-.24-.11-.44-.11-.17 0-.29.02-.39.08-.1.06-.17.11-.21.18-.01-.08-.06-.13-.12-.17-.06-.04-.13-.04-.22-.04h-.08c-.02 0-.04 0-.06.01-.02 0-.03 0-.04.01v1.95h.56v-1.35zm2.92-.58c-.07-.02-.13-.04-.22-.07-.09-.01-.19-.02-.29-.02-.1 0-.2.01-.3.03-.1.02-.18.07-.26.11a.65.65 0 0 0-.18.19.56.56 0 0 0-.07.26c0 .1.02.18.06.25.03.07.08.12.13.17.06.04.12.08.2.11.08.02.15.04.24.07.12.02.21.06.28.09.07.03.09.09.09.17 0 .04-.01.08-.03.11l-.07.07-.1.03c-.03 0-.08.01-.11.01-.06 0-.11-.01-.17-.02a.442.442 0 0 1-.16-.06c-.04-.02-.09-.04-.12-.07-.03-.02-.07-.04-.09-.07-.03.06-.07.11-.09.16-.02.06-.04.1-.04.15 0 .06.02.1.07.13.04.03.09.06.12.07l.21.07c.08.02.19.02.3.02a.904.904 0 0 0 .58-.17c.08-.06.13-.13.18-.21.04-.09.07-.18.07-.29 0-.11-.02-.2-.06-.27a.548.548 0 0 0-.16-.18c-.07-.04-.13-.08-.22-.11-.08-.02-.17-.04-.25-.07-.2-.04-.3-.11-.3-.2 0-.03.01-.07.02-.09.02-.02.04-.04.07-.06.02-.01.06-.02.09-.02s.07-.01.09-.01c.06 0 .11.01.17.02.06.01.1.03.16.06.04.02.09.04.13.07.04.02.08.04.1.07.03-.04.06-.1.09-.16.02-.06.03-.1.03-.15 0-.08-.06-.13-.19-.19m.84 1.88c.09.07.22.1.4.1.09 0 .17-.01.25-.02.08-.02.13-.04.19-.07.06-.03.09-.06.12-.1.03-.03.04-.07.04-.1s-.01-.08-.03-.12c-.02-.04-.06-.1-.09-.16-.01.01-.02.02-.04.03-.02.01-.04.03-.07.04-.03.01-.06.03-.09.04a.36.36 0 0 1-.11.02c-.16 0-.24-.1-.24-.29v-.87h.58v-.43h-.58v-.27a.43.43 0 0 0-.03-.17.293.293 0 0 0-.09-.1.245.245 0 0 0-.12-.04c-.04-.01-.09-.01-.13-.01h-.07c-.03 0-.04 0-.07.01-.02 0-.04 0-.07.01v1.92c0 .06 0 .12.01.18 0 .06.02.12.03.17.05.09.11.17.21.23m1.94-.46a.727.727 0 0 1-.15-.38h1.22c0-.01 0-.03.01-.06v-.2c0-.11-.01-.22-.04-.32a.76.76 0 0 0-.15-.28.7.7 0 0 0-.26-.19c-.11-.04-.24-.07-.39-.07-.12 0-.24.02-.35.06a.851.851 0 0 0-.51.49c-.06.12-.08.27-.08.45 0 .21.03.39.09.53.06.13.13.25.24.34.11.09.21.15.34.17.12.03.26.04.38.04.15 0 .27-.01.37-.04.1-.03.19-.07.25-.11.07-.04.1-.1.1-.17 0-.04-.02-.09-.06-.16-.03-.07-.07-.11-.1-.16-.02.02-.06.04-.08.07-.03.02-.07.04-.11.07-.04.02-.09.04-.15.06-.06.01-.11.02-.18.02-.17-.01-.31-.06-.39-.16m-.14-.69c0-.15.03-.25.1-.32.07-.08.16-.11.27-.11.13 0 .22.04.28.12.06.08.08.19.08.32h-.73zm2.2-.45a.43.43 0 0 0-.03-.17.293.293 0 0 0-.09-.1c-.03-.02-.08-.03-.12-.04-.04-.01-.09-.01-.13-.01-.04 0-.09 0-.12.01-.04 0-.07.01-.07.01v1.65c0 .07.01.12.02.17.02.04.04.08.08.1.03.02.07.04.11.06.04.01.09.01.15.01h.12c.03 0 .07-.01.08-.01zm-.09-1.19a.288.288 0 0 0-.21-.09c-.09 0-.16.03-.21.09-.06.06-.09.12-.09.21s.03.16.09.21c.06.06.13.08.21.08.08 0 .16-.02.21-.08.06-.06.09-.12.09-.21 0-.07-.02-.15-.09-.21m1.18 1.49c0-.07.03-.11.11-.16.08-.04.16-.07.27-.07.07 0 .12.01.17.03.05.02.07.04.09.09.02.03.03.08.03.13 0 .06.01.11.01.17v1.14h.56v-1.17c0-.07 0-.15-.01-.22 0-.08-.01-.15-.02-.2a.521.521 0 0 0-.18-.3c-.09-.08-.24-.11-.44-.11-.17 0-.29.02-.39.08-.1.06-.17.11-.21.18-.01-.08-.06-.13-.12-.17-.06-.04-.13-.04-.22-.04h-.08c-.02 0-.04 0-.06.01-.02 0-.03 0-.04.01v1.95h.56v-1.35zm3.26-1.12a.43.43 0 0 0-.03-.17.293.293 0 0 0-.09-.1.246.246 0 0 0-.11-.04c-.03 0-.08-.01-.12-.01h-.06c-.02 0-.04 0-.07.01-.02 0-.04 0-.08.01v2.76h.56v-1.2h1.04v1.2h.56v-2.45a.43.43 0 0 0-.03-.17.293.293 0 0 0-.09-.1c-.03-.02-.08-.03-.11-.04-.03-.01-.08-.01-.11-.01h-.07c-.02 0-.04 0-.07.01-.02 0-.04 0-.07.01v1.12h-1.04v-.82h-.01zm2.78 2.46h.57v-2.3h.52c.07 0 .11-.01.16-.02.04-.01.08-.03.1-.07.02-.02.04-.06.06-.09.01-.03.01-.07.01-.1 0-.06 0-.12-.01-.18H71.1c-.12 0-.21.03-.27.09-.06.07-.08.13-.08.2v.08c0 .02 0 .04.01.08h.86v2.31zm2.35 0h.57v-2.3h.52c.07 0 .11-.01.16-.02.04-.01.08-.03.1-.07.02-.02.04-.06.06-.09.01-.03.01-.07.01-.1 0-.06 0-.12-.01-.18h-1.94c-.12 0-.21.03-.27.09a.27.27 0 0 0-.08.2v.08c0 .02 0 .04.01.08h.86v2.31zm2.28-2.46a.43.43 0 0 0-.03-.17.293.293 0 0 0-.09-.1c-.03-.02-.08-.03-.12-.04-.04-.01-.08-.01-.12-.01h-.06c-.02 0-.04 0-.07.01-.02 0-.04 0-.07.01v2.76h.56z"/></svg>