<svg xmlns="http://www.w3.org/2000/svg" width="80" height="81" fill="none"><mask id="a" width="35" height="34" x="1" y="24" maskUnits="userSpaceOnUse" style="mask-type:luminance"><path fill="#fff" d="M35.36 24.445H1.95v33.41h33.41z"/></mask><g mask="url(#a)"><path fill="#00A688" d="M6.88 52.925c3.59 3.58 8.06 4.92 11.87 4.92 4.64 0 9.32-1.88 12.22-5.21 2.9-3.34 4.39-7.55 4.39-13.5v-14.69H20.67c-6.06 0-9.93 1.85-11.99 3.23-2.13 1.43-5.91 5.25-6.62 11.48-.56 4.9 1.05 10.01 4.82 13.77"/></g><path fill="#fff" d="M9.82 39.156c-.25-.39-.38-.94-.38-1.64s.13-1.23.38-1.61c.25-.37.63-.56 1.12-.56.47 0 .82.19 1.07.56.25.37.37.91.37 1.61 0 .71-.13 1.25-.38 1.64-.25.39-.61.59-1.09.59-.48 0-.83-.19-1.09-.59m3.11.73c.48-.57.72-1.37.72-2.38 0-1-.23-1.78-.7-2.33s-1.14-.83-2-.83c-.57 0-1.06.12-1.48.37-.42.25-.74.62-.97 1.1-.23.48-.35 1.05-.35 1.7 0 .65.1 1.22.31 1.71s.52.86.92 1.12c.41.26.9.39 1.49.39.9.01 1.58-.28 2.06-.85m5.75.549v-.17c0-.21-.07-.37-.2-.48-.13-.11-.32-.17-.56-.17h-1.94v-1.69h1.93v-.98h-1.93v-1.51h1.79c.28 0 .48-.05.59-.15.12-.1.18-.26.18-.49 0-.13-.01-.25-.03-.34h-3.79v6.13h3.93c.02-.05.03-.1.03-.15m2.12-2.95c.02.31.17.64.44 1l1.34 1.74c.24.32.57.48.97.48.24 0 .48-.07.72-.21l-2.26-3.08 2.01-2.7a.871.871 0 0 0-.32-.2 1.14 1.14 0 0 0-.41-.07c-.17 0-.32.04-.46.12-.14.08-.27.2-.4.37l-1.24 1.65c-.12.16-.21.3-.27.43-.06.12-.09.25-.1.38v-2.23c0-.48-.27-.71-.81-.71-.1 0-.24.01-.44.04v6.12h1.24v-3.13zm7.46 1.681c-.25.39-.61.59-1.09.59-.47 0-.84-.2-1.09-.59-.25-.39-.38-.94-.38-1.64 0-.69.13-1.23.38-1.6.25-.37.63-.56 1.12-.56.47 0 .82.19 1.07.56.25.37.37.91.37 1.6 0 .7-.13 1.25-.38 1.64m.95-3.99c-.47-.55-1.14-.83-2-.83-.57 0-1.06.12-1.48.37-.42.25-.74.62-.97 1.1-.23.49-.35 1.05-.35 1.7 0 .65.1 1.22.31 1.71s.52.86.92 1.12c.41.26.9.39 1.49.39.89 0 1.58-.29 2.06-.86.48-.57.72-1.37.72-2.38.01-.99-.23-1.76-.7-2.32m-1.47 10.339c-.65 0-1.18-.53-1.18-1.19 0-.66.53-1.19 1.18-1.19a1.19 1.19 0 0 1 0 2.38m0-2.74c-.85 0-1.54.69-1.54 1.55 0 .85.69 1.55 1.54 1.55.85 0 1.54-.69 1.54-1.55 0-.85-.69-1.55-1.54-1.55"/><path fill="#fff" d="M27.9 44.205a.33.33 0 0 1-.21.07h-.11v-.53h.12c.09 0 .15.02.2.06.05.04.07.1.07.2.01.08-.02.15-.07.2m.22.15c.03-.03.07-.05.09-.09a.31.31 0 0 0 .06-.13c.01-.05.02-.1.02-.17 0-.15-.05-.26-.15-.34-.1-.07-.26-.11-.48-.11h-.19c-.07.01-.14.01-.21.02v1.51h.31v-.57h.12l.26.44c.03.05.07.09.1.12.04.03.08.04.14.04.03 0 .06 0 .09-.01l.09-.03-.37-.63c.05-.01.09-.03.12-.05m-16.88-1.54c-.24 0-.42.06-.56.18a.6.6 0 0 0-.21.48c0 .13.01.26.03.37h1.9v5.1h1.25v-5.1h1.15c.24 0 .42-.06.55-.17.13-.11.2-.27.2-.46 0-.13-.01-.27-.03-.39h-4.28zm8.22 5.16h-1.94v-1.69h1.93v-.98h-1.93v-1.51h1.79c.28 0 .48-.05.6-.15.12-.1.18-.26.18-.49 0-.13-.01-.25-.03-.34h-3.79v6.13h3.93c.01-.06.01-.11.01-.15v-.17c0-.21-.07-.37-.2-.48-.12-.12-.3-.17-.55-.17m6.31-5.01c-.23-.12-.45-.18-.66-.18a.9.9 0 0 0-.48.12c-.12.08-.25.22-.37.43l-.9 1.55-.88-1.65a.757.757 0 0 0-.73-.45c-.22 0-.49.07-.79.2l1.6 2.91-1.8 3.05h1.36l1.16-2.02.93 1.56c.12.21.25.35.39.44.14.08.31.12.52.12.22 0 .46-.05.72-.14l-1.77-3.06z"/><path fill="#242422" d="M40.99 32.516c.21.16.41.28.59.35.18.07.37.11.57.11.24 0 .43-.05.57-.16a.56.56 0 0 0 .21-.46.61.61 0 0 0-.13-.39.832.832 0 0 0-.33-.24c-.14-.06-.29-.12-.45-.17-.15-.05-.3-.1-.45-.16-.15-.06-.29-.14-.41-.24-.12-.1-.22-.22-.3-.38-.08-.15-.12-.34-.12-.57 0-.28.07-.53.22-.73.14-.2.34-.36.6-.47.25-.11.54-.16.85-.16.24 0 .48.03.71.09.23.06.4.14.51.22.13.07.2.18.2.31 0 .06-.03.14-.08.23-.05.1-.12.19-.2.28a1.62 1.62 0 0 0-.5-.28c-.19-.07-.37-.11-.54-.11-.23 0-.41.04-.54.14-.14.09-.2.22-.2.4 0 .09.02.18.07.25.04.07.12.14.22.21.1.07.29.15.57.25l.45.18c.15.06.29.15.42.25s.23.23.31.38c.08.15.12.34.12.57 0 .48-.16.85-.47 1.12-.31.27-.74.4-1.28.4-.25 0-.49-.03-.71-.08-.22-.05-.41-.12-.56-.21-.13-.09-.2-.19-.2-.31-.02-.15.08-.36.28-.62m5.13-2.821h-1.46a2.3 2.3 0 0 1-.02-.28c0-.15.05-.28.16-.37.11-.09.25-.14.43-.14h3.28c.01.1.02.2.02.3 0 .15-.05.27-.15.35-.1.09-.24.13-.42.13h-.88v3.9h-.96zm4.74.06-.64 1.99h1.25zm1.2 3.84-.4-1.15h-1.61l-.38 1.15h-.95l1.62-4.61c.15-.06.34-.1.56-.1.34 0 .56.14.66.43l1.5 4.28zm5.87 0h-.81l-1.99-3.07v3.07h-.92v-4.67c.12-.03.26-.04.43-.04.14 0 .25.02.33.07.09.04.17.13.24.25l1.8 2.94v-3.22c.14-.02.24-.04.31-.04.4 0 .6.18.6.54v4.17zm4.47-2.409c0-.53-.11-.93-.34-1.18-.22-.26-.56-.39-1.02-.39-.13 0-.27.01-.42.02v3.22H61c.48 0 .83-.13 1.06-.4.23-.26.34-.69.34-1.27m.98-.01c0 .49-.09.92-.27 1.29-.18.37-.44.65-.77.84-.34.19-.74.29-1.19.29h-1.49v-4.64c.43-.06.87-.08 1.31-.08.8 0 1.4.19 1.8.58.4.38.61.95.61 1.72m2.93-1.421-.64 1.99h1.25zm1.19 3.84-.4-1.15h-1.61l-.38 1.15h-.95l1.62-4.61c.15-.06.34-.1.56-.1.34 0 .56.14.66.43l1.5 4.28zm4.3-3.249c0-.27-.07-.47-.21-.6-.14-.13-.36-.2-.65-.2-.08 0-.16 0-.22.01s-.11.01-.15.01v1.61h.33c.29 0 .51-.07.67-.22.15-.14.23-.34.23-.61m1.01-.09c0 .33-.08.61-.23.85-.16.24-.37.41-.65.51l1.15 1.93c-.18.08-.37.12-.56.12-.17 0-.32-.04-.43-.11-.12-.07-.22-.2-.32-.36l-.8-1.36h-.38v1.76h-.96v-4.65c.4-.05.81-.07 1.24-.07.67 0 1.16.11 1.48.34.3.22.46.57.46 1.04m4.26.93c0-.53-.11-.93-.34-1.18-.22-.26-.56-.39-1.02-.39-.13 0-.27.01-.42.02v3.22h.38c.48 0 .83-.13 1.06-.4.23-.26.34-.69.34-1.27m.98-.01c0 .49-.09.92-.27 1.29-.18.37-.44.65-.77.84-.33.19-.73.29-1.18.29h-1.49v-4.64c.43-.06.87-.08 1.31-.08.8 0 1.4.19 1.8.58.4.38.6.95.6 1.72m-23.08 9.43v-3.53l-.91.46c-.19-.25-.29-.44-.29-.57 0-.13.07-.24.22-.31l.99-.52c.09-.05.18-.09.27-.12.09-.04.18-.05.27-.05.14 0 .28.04.39.11v4.54h-.94zm4.97-2.291c0-.56-.06-.98-.19-1.25-.12-.27-.32-.41-.58-.41-.27 0-.47.13-.59.41-.12.27-.19.69-.19 1.25 0 .55.06.97.19 1.24s.32.41.59.41c.27 0 .46-.13.58-.4.13-.27.19-.68.19-1.25m.94 0c0 .79-.14 1.39-.43 1.79-.29.4-.72.6-1.29.6-.58 0-1.02-.2-1.3-.59-.29-.4-.43-.99-.43-1.8 0-.77.15-1.36.45-1.78.3-.42.74-.63 1.31-.63.57 0 .99.2 1.27.59.28.41.42 1.01.42 1.82m3.73 0c0-.56-.06-.98-.19-1.25-.12-.27-.32-.41-.58-.41-.27 0-.47.13-.59.41-.12.27-.19.69-.19 1.25 0 .55.06.97.19 1.24s.32.41.59.41c.27 0 .46-.13.58-.4.13-.27.19-.68.19-1.25m.95 0c0 .79-.14 1.39-.43 1.79-.29.4-.72.6-1.29.6-.58 0-1.02-.2-1.3-.59-.29-.4-.43-.99-.43-1.8 0-.77.15-1.36.45-1.78.3-.42.74-.63 1.31-.63.57 0 .99.2 1.27.59.28.41.42 1.01.42 1.82"/><path fill="#222" d="M48.74 50.205v-3.27c-.03-.02-.06-.03-.11-.05a.43.43 0 0 0-.17-.03c-.07 0-.13.01-.2.04-.06.03-.13.05-.2.09l-.72.37a.26.26 0 0 0-.12.11c-.03.04-.04.08-.04.12 0 .06.02.13.07.21.05.07.09.14.14.21l.66-.33v2.55h.69zm2.34-.8v.8h.69v-.8h.39c0-.03.01-.06.01-.09s.01-.05.01-.08.01-.06.01-.09a.28.28 0 0 0-.06-.18.282.282 0 0 0-.2-.07h-.16v-1.97a.32.32 0 0 0-.13-.05c-.06-.02-.11-.02-.15-.02-.13 0-.23.03-.31.1-.08.07-.14.14-.19.21l-1.28 1.77v.46h1.37zm-.83-.52.83-1.12v1.12zm2.93.75a.362.362 0 0 0-.27-.1.362.362 0 0 0-.38.36c0 .11.03.2.1.27s.16.11.27.11c.11 0 .2-.04.27-.11s.1-.16.1-.27c.01-.1-.02-.19-.09-.26m2.92-1.81c-.05-.22-.12-.4-.21-.54a.958.958 0 0 0-.38-.34 1.19 1.19 0 0 0-.56-.12c-.21 0-.4.04-.56.12-.16.08-.29.2-.4.35-.11.15-.19.33-.24.55-.05.21-.08.45-.08.72 0 .57.1 1 .31 1.29.21.29.52.43.94.43.42 0 .74-.15.94-.45.2-.3.3-.72.3-1.28 0-.27-.02-.52-.06-.73m-.66 1.29c-.03.15-.06.27-.11.37-.05.09-.11.16-.17.2-.07.04-.15.06-.24.06s-.17-.02-.24-.06a.506.506 0 0 1-.18-.2c-.05-.09-.09-.21-.11-.37-.03-.15-.04-.34-.04-.55 0-.22.01-.41.04-.56.03-.15.06-.28.11-.37.05-.09.11-.16.18-.2.07-.04.15-.06.24-.06s.17.02.24.06c.07.04.13.11.17.2.05.09.08.22.11.37s.04.34.04.56c0 .21-.01.4-.04.55m1.75.52a.362.362 0 0 0-.27-.1.362.362 0 0 0-.38.36c0 .11.03.2.1.27s.16.11.27.11c.11 0 .2-.04.27-.11s.1-.16.1-.27c.02-.1-.02-.19-.09-.26m1.93-.23v.8h.69v-.8h.39c0-.03.01-.06.01-.09s.01-.05.01-.08.01-.06.01-.09a.28.28 0 0 0-.06-.18.282.282 0 0 0-.2-.07h-.17v-1.97a.32.32 0 0 0-.13-.05c-.06-.02-.11-.02-.15-.02-.13 0-.23.03-.31.1-.08.07-.14.14-.19.21l-1.28 1.77v.46h1.38zm-.83-.52.83-1.12v1.12zm2.27-.42c.04.13.1.25.18.35.08.1.18.18.3.24s.27.09.43.09c.14 0 .27-.02.38-.06.11-.04.19-.09.25-.15-.02.09-.05.18-.09.28-.05.09-.11.18-.19.26a.86.86 0 0 1-.31.19c-.12.05-.27.08-.45.08-.07 0-.14-.01-.22-.02-.01.04-.01.08-.02.13s-.01.09-.01.13c0 .06.01.11.03.14.02.04.05.07.09.09.04.02.08.04.12.05.05.01.1.01.15.01.21 0 .42-.04.62-.12.2-.08.38-.2.53-.37.15-.16.28-.37.37-.62.09-.25.14-.55.14-.89 0-.22-.03-.42-.08-.6s-.13-.34-.23-.46a.99.99 0 0 0-.38-.29c-.15-.07-.33-.1-.53-.1-.16 0-.32.03-.46.08s-.26.13-.37.23c-.1.1-.18.23-.24.39-.06.15-.09.33-.09.53.02.14.04.28.08.41m.76-.93c.08-.12.19-.17.33-.17.11 0 .19.03.26.08s.12.12.16.2c.04.08.06.17.08.27.01.1.02.19.02.28 0 .06 0 .11-.01.17 0 .05-.01.1-.02.14-.04.04-.09.07-.17.11-.08.04-.18.06-.29.06-.17 0-.29-.06-.37-.17-.07-.11-.11-.27-.11-.47 0-.22.04-.38.12-.5m4.27 1.09c-.04-.13-.09-.25-.17-.35a.85.85 0 0 0-.29-.24.942.942 0 0 0-.43-.09c-.15 0-.29.02-.41.07s-.2.1-.26.14c.02-.08.06-.17.12-.27s.12-.18.21-.26c.08-.08.18-.15.29-.2a.97.97 0 0 1 .39-.08c.06 0 .1 0 .14.01.04 0 .08.01.12.02.01-.04.01-.08.02-.12 0-.04.01-.08.01-.12 0-.12-.03-.21-.1-.24a.57.57 0 0 0-.29-.06c-.2 0-.4.04-.6.12-.2.08-.38.2-.53.37-.16.16-.28.37-.38.62-.1.25-.15.55-.15.89 0 .23.02.43.07.61s.12.34.22.46c.1.13.22.23.38.29.15.07.33.1.53.1.16 0 .32-.03.46-.08s.26-.13.37-.24c.1-.11.19-.24.25-.39.06-.15.09-.33.09-.54 0-.15-.02-.29-.06-.42m-.77.95a.39.39 0 0 1-.33.17c-.11 0-.2-.03-.27-.08a.526.526 0 0 1-.16-.2.767.767 0 0 1-.07-.27c-.01-.1-.02-.19-.02-.28 0-.06 0-.11.01-.16 0-.05.01-.09.02-.13.02-.02.05-.04.08-.06.03-.02.07-.04.12-.06.04-.02.09-.03.14-.05.05-.01.1-.02.15-.02.17 0 .29.06.36.17.07.11.1.27.1.47-.01.22-.05.39-.13.5m3.6.63c0-.03.01-.06.01-.08v-.09c0-.04-.01-.09-.02-.13a.322.322 0 0 0-.2-.19.562.562 0 0 0-.2-.03h-.96c.08-.07.16-.15.25-.23l.28-.28c.09-.09.18-.19.26-.3.08-.1.16-.21.22-.33.07-.11.12-.23.16-.35.04-.12.06-.24.06-.37 0-.17-.03-.33-.09-.45a.813.813 0 0 0-.23-.31.953.953 0 0 0-.35-.17 1.49 1.49 0 0 0-.43-.06c-.13 0-.25.01-.36.04-.11.03-.2.06-.29.09-.08.04-.15.08-.21.12-.06.04-.11.07-.14.1l-.09.09a.21.21 0 0 0-.04.11c0 .05.02.11.07.18.05.07.1.14.17.22.1-.1.22-.18.35-.26.13-.08.28-.12.45-.12.06 0 .12.01.18.02.06.02.11.04.15.08.05.04.08.08.11.14.03.06.04.14.04.23 0 .15-.04.29-.12.44-.08.14-.18.29-.32.43-.09.1-.18.19-.27.29-.1.1-.19.19-.28.27-.09.09-.18.17-.26.24-.08.07-.16.14-.22.19v.48h2.32zm.44-1.74c.04.13.1.25.18.35.08.1.18.18.3.24s.27.09.43.09c.14 0 .27-.02.38-.06.11-.04.19-.09.25-.15-.02.09-.05.18-.09.28-.05.09-.11.18-.19.26a.86.86 0 0 1-.31.19c-.12.05-.27.08-.45.08-.07 0-.14-.01-.22-.02-.01.04-.01.08-.02.13s-.01.09-.01.13c0 .06.01.11.03.14.02.04.05.07.09.09.04.02.08.04.12.05.05.01.1.01.15.01.21 0 .42-.04.62-.12.2-.08.38-.2.53-.37.15-.16.28-.37.37-.62.09-.25.14-.55.14-.89 0-.22-.03-.42-.08-.6s-.13-.34-.23-.46a.99.99 0 0 0-.38-.29c-.15-.07-.33-.1-.53-.1-.16 0-.32.03-.46.08s-.26.13-.37.23c-.1.1-.18.23-.24.39-.06.15-.09.33-.09.53.02.14.04.28.08.41m.76-.93c.08-.12.19-.17.33-.17.11 0 .19.03.26.08s.12.12.16.2c.04.08.06.17.08.27.01.1.02.19.02.28 0 .06 0 .11-.01.17 0 .05-.01.1-.02.14-.04.04-.09.07-.17.11-.08.04-.18.06-.29.06-.17 0-.29-.06-.37-.17-.07-.11-.11-.27-.11-.47 0-.22.04-.38.12-.5m-24.42 5.44a.35.35 0 0 0-.03-.16.284.284 0 0 0-.09-.1.37.37 0 0 0-.11-.05c-.04-.01-.08-.01-.12-.01h-.06c-.02 0-.04.01-.06.01-.02 0-.05.01-.07.01v2.7h.55v-1.17h1.02v1.17h.55v-2.4a.35.35 0 0 0-.03-.16.196.196 0 0 0-.09-.09.37.37 0 0 0-.11-.05c-.04-.01-.08-.01-.11-.01h-.07c-.02 0-.04.01-.07.01-.02 0-.05.01-.07.01v1.1H45.2zm3.86 1.05a.876.876 0 0 0-.16-.32.825.825 0 0 0-.29-.22 1.1 1.1 0 0 0-.43-.08c-.16 0-.3.03-.42.08s-.22.13-.3.22c-.08.09-.14.2-.18.32-.04.12-.06.25-.06.39 0 .13.02.26.05.39.03.12.09.23.16.32s.17.17.29.22c.12.06.26.08.44.08.17 0 .32-.03.44-.08a.86.86 0 0 0 .3-.23c.08-.09.13-.2.16-.33.03-.12.05-.25.05-.39 0-.12-.02-.25-.05-.37m-.52.61c-.01.07-.03.14-.06.2s-.07.1-.12.14a.423.423 0 0 1-.4 0 .333.333 0 0 1-.12-.14.587.587 0 0 1-.06-.2c-.01-.07-.02-.15-.02-.22s.01-.14.02-.21a.62.62 0 0 1 .07-.19c.03-.06.07-.1.12-.14.05-.03.12-.05.2-.05.08 0 .14.02.19.05.05.03.09.08.12.13s.05.12.06.19c.01.07.02.14.02.22 0 .07-.01.15-.02.22m2.2.74h.55v-1.14c0-.07 0-.14-.01-.21 0-.07-.01-.14-.03-.2a.58.58 0 0 0-.18-.3c-.09-.08-.23-.11-.42-.11-.08 0-.15.01-.21.02s-.11.03-.16.05c-.05.02-.08.05-.12.07-.03.03-.06.05-.08.08v-.8a.35.35 0 0 0-.03-.16c-.02-.04-.05-.07-.08-.1a.334.334 0 0 0-.12-.05c-.04-.01-.09-.01-.13-.01-.04 0-.08 0-.12.01-.04 0-.06.01-.06.01v2.84h.55v-1.31c0-.06.04-.11.11-.16.07-.04.16-.06.26-.06.07 0 .12.01.16.03.04.02.07.05.08.08.02.04.03.08.03.13s.01.11.01.17zm1.67-.49a.642.642 0 0 1-.14-.37h1.19c0-.01 0-.03.01-.05v-.2c0-.11-.01-.22-.04-.32a.867.867 0 0 0-.14-.27.731.731 0 0 0-.26-.19.86.86 0 0 0-.38-.07.974.974 0 0 0-.64.24c-.09.08-.16.18-.21.3-.05.12-.08.27-.08.44 0 .21.03.38.09.51.06.14.14.24.23.32.1.08.2.14.33.17.12.03.25.05.37.05.14 0 .26-.02.36-.05a.9.9 0 0 0 .24-.11c.07-.05.1-.1.1-.16 0-.04-.02-.09-.05-.16-.04-.06-.07-.11-.1-.16-.02.02-.05.05-.08.07-.03.03-.06.05-.11.07-.04.02-.09.04-.14.05-.05.01-.11.02-.18.02-.16.01-.28-.03-.37-.13m-.14-.67c0-.14.03-.24.1-.32.07-.08.15-.11.27-.11.13 0 .22.04.27.12.05.08.08.19.08.31zm2.16-.15c0-.06.04-.11.11-.16.07-.04.16-.06.26-.06.07 0 .13.01.16.03.04.02.07.05.09.08.02.04.03.08.03.13s.01.11.01.17v1.11h.55v-1.14c0-.07 0-.14-.01-.21-.01-.07-.01-.14-.03-.2a.58.58 0 0 0-.18-.3c-.09-.08-.23-.11-.42-.11-.16 0-.29.03-.38.08-.1.05-.17.11-.21.17a.226.226 0 0 0-.12-.16.51.51 0 0 0-.22-.05h-.08c-.02 0-.04 0-.06.01-.02 0-.03.01-.05.01v1.91h.55zm2.86-.57a.709.709 0 0 0-.22-.06c-.08-.02-.18-.02-.29-.02-.1 0-.2.01-.29.04-.09.03-.18.06-.25.11a.52.52 0 0 0-.17.19.39.39 0 0 0-.07.25c0 .1.02.18.05.25.03.07.08.12.14.17.06.04.12.08.19.11s.15.05.23.06c.12.02.21.05.27.09.06.03.09.09.09.17 0 .04-.01.08-.03.1-.02.03-.04.05-.07.06-.03.02-.06.03-.1.03-.04.01-.07.01-.11.01-.06 0-.11-.01-.17-.02a.88.88 0 0 1-.15-.05c-.05-.02-.09-.04-.13-.06a.218.218 0 0 1-.09-.07c-.03.05-.07.11-.09.16-.03.05-.04.1-.04.14 0 .05.02.1.07.13.04.03.09.05.12.07a1.262 1.262 0 0 0 .5.09c.12 0 .22-.01.32-.04s.18-.07.26-.13c.07-.06.13-.13.17-.21.04-.08.06-.18.06-.29a.498.498 0 0 0-.21-.43.698.698 0 0 0-.21-.11c-.08-.03-.16-.05-.24-.06-.2-.04-.29-.11-.29-.2 0-.04.01-.07.03-.09.02-.02.04-.04.06-.05.03-.01.05-.02.09-.02.03 0 .06-.01.09-.01a.875.875 0 0 1 .31.07c.05.02.09.04.13.06.04.02.07.05.1.07.03-.05.06-.1.08-.16.03-.06.04-.1.04-.14 0-.1-.06-.16-.18-.21m.82 1.84c.09.06.22.1.39.1.09 0 .17-.01.24-.03.07-.02.13-.04.19-.07.05-.03.09-.06.12-.09s.04-.07.04-.1c0-.04-.01-.08-.03-.12-.02-.04-.05-.09-.09-.15l-.04.04c-.02.02-.04.03-.07.05-.03.01-.06.03-.09.04a.36.36 0 0 1-.11.02c-.15 0-.23-.09-.23-.28v-.86h.56v-.41h-.56v-.28a.35.35 0 0 0-.03-.16c-.02-.04-.05-.07-.08-.1a.334.334 0 0 0-.12-.05c-.04-.01-.09-.01-.13-.01h-.06c-.02 0-.04 0-.06.01-.02 0-.04.01-.06.01v1.87a1.087 1.087 0 0 0 .05.35c.01.07.07.16.17.22m1.89-.45a.642.642 0 0 1-.14-.37h1.19c0-.01 0-.03.01-.05v-.2c0-.11-.01-.22-.04-.32a.867.867 0 0 0-.14-.27.731.731 0 0 0-.26-.19.86.86 0 0 0-.38-.07.974.974 0 0 0-.64.24c-.09.08-.16.18-.21.3-.05.12-.08.27-.08.44 0 .21.03.38.09.51.06.14.14.24.23.32.1.08.2.14.33.17.12.03.25.05.37.05.14 0 .26-.02.36-.05a.9.9 0 0 0 .24-.11c.07-.05.1-.1.1-.16 0-.04-.02-.09-.05-.16-.04-.06-.07-.11-.1-.16-.02.02-.05.05-.08.07-.03.03-.06.05-.11.07-.04.02-.09.04-.14.05-.05.01-.11.02-.18.02-.16.01-.29-.03-.37-.13m-.14-.67c0-.14.03-.24.1-.32.07-.08.15-.11.27-.11.13 0 .22.04.27.12.05.08.08.19.08.31zm2.16-.45a.35.35 0 0 0-.03-.16c-.02-.04-.05-.07-.08-.1a.334.334 0 0 0-.12-.05c-.04-.01-.09-.01-.13-.01-.04 0-.08 0-.12.01-.04 0-.06.01-.06.01v1.61c0 .07.01.12.03.17.02.04.04.08.07.1.03.03.07.04.11.05.04.01.09.01.15.01h.12c.04 0 .06-.01.07-.01v-1.63zm-.08-1.16a.278.278 0 0 0-.21-.08c-.08 0-.15.03-.21.08-.06.06-.08.13-.08.21 0 .09.03.16.08.21.06.05.13.08.21.08.08 0 .15-.03.21-.08s.09-.12.09-.21a.398.398 0 0 0-.09-.21m1.14 1.46c0-.06.04-.11.11-.16.07-.04.16-.06.26-.06.07 0 .13.01.16.03.04.02.07.05.09.08.02.04.03.08.03.13s.01.11.01.17v1.11h.55v-1.14c0-.07 0-.14-.01-.21-.01-.07-.01-.14-.03-.2a.58.58 0 0 0-.18-.3c-.09-.08-.23-.11-.42-.11-.16 0-.29.03-.38.08-.1.05-.17.11-.21.17a.226.226 0 0 0-.12-.16.51.51 0 0 0-.22-.05h-.08c-.02 0-.04 0-.06.01-.02 0-.03.01-.05.01v1.91h.55zm3.2-1.09a.35.35 0 0 0-.03-.16.284.284 0 0 0-.09-.1.37.37 0 0 0-.11-.05c-.04-.01-.08-.01-.12-.01h-.06c-.02 0-.04.01-.06.01-.02 0-.05.01-.07.01v2.7h.55v-1.17h1.02v1.17h.55v-2.4a.35.35 0 0 0-.03-.16.196.196 0 0 0-.09-.09.37.37 0 0 0-.11-.05c-.04-.01-.08-.01-.11-.01h-.07c-.02 0-.04.01-.07.01-.02 0-.05.01-.07.01v1.1h-1.02v-.81zm2.71 2.4h.56v-2.25h.51c.06 0 .11-.01.16-.02.04-.02.08-.04.1-.06.03-.03.05-.06.06-.09.01-.03.02-.07.02-.1 0-.06 0-.12-.01-.17h-1.9c-.12 0-.21.03-.26.09-.05.06-.08.13-.08.2v.08c0 .02 0 .05.01.08H69v2.24zm2.29 0h.56v-2.25h.51c.06 0 .11-.01.16-.02.04-.02.08-.04.1-.06.03-.03.05-.06.06-.09.01-.03.02-.07.02-.1 0-.06 0-.12-.01-.17h-1.9c-.12 0-.21.03-.26.09-.05.06-.08.13-.08.2v.08c0 .02 0 .05.01.08h.84v2.24zm2.23-2.41c0-.07-.01-.12-.04-.16a.196.196 0 0 0-.09-.09c-.04-.02-.07-.04-.12-.04-.04-.01-.08-.01-.12-.01h-.06c-.02 0-.04.01-.06.01-.02 0-.05.01-.07.01v2.7h.55v-2.42z"/></svg>