<svg xmlns="http://www.w3.org/2000/svg" xmlns:xlink="http://www.w3.org/1999/xlink" xml:space="preserve" id="Ebene_1" width="140" height="140" x="0" y="0" style="enable-background:new 0 0 2000 3000" version="1.1" viewBox="0 450 2000 2000"><style>.st1{font-family:&quot;MyriadPro-Regular&quot;}.st2{font-size:100px}.st4{fill:#fff}</style><path d="M22.22 1841.65h1955.56v389.5H22.22z" style="fill:none"/><text transform="translate(722.555 1912.646)"><tspan x="0" y="0" class="st1 st2">Standard 100</tspan><tspan x="51.55" y="120" class="st1 st2">14.0.49629</tspan><tspan x="-68.85" y="240" class="st1 st2">Hohenstein HTTI</tspan></text><defs><path id="SVGID_1_" d="M115.94 760.56h777.37v777.37H115.94z"/></defs><clipPath id="SVGID_00000181791392490752217520000014193714996262412204_"><use xlink:href="#SVGID_1_" style="overflow:visible"/></clipPath><path d="M230.51 1423.48c83.43 83.33 187.64 114.43 276.19 114.43 108.03 0 216.86-43.7 284.42-121.34 67.54-77.64 102.17-175.58 102.17-314.15V760.55H551.5c-141.05 0-231.06 43.09-278.92 75.09-49.64 33.2-137.48 122.26-154.11 267.06-13.08 114.25 24.43 233.15 112.04 320.78" style="clip-path:url(#SVGID_00000181791392490752217520000014193714996262412204_);fill:#4ea589"/><path d="M299.09 1103.01c-5.92-9.15-8.87-21.88-8.87-38.17 0-16.19 2.96-28.63 8.87-37.35 5.92-8.72 14.58-13.08 26.01-13.08 10.86 0 19.12 4.36 24.83 13.08 5.71 8.72 8.57 21.16 8.57 37.35 0 16.45-2.93 29.2-8.77 38.27-5.86 9.08-14.28 13.64-25.27 13.64-10.99.01-19.46-4.58-25.37-13.74m72.38 16.91c11.22-13.31 16.8-31.77 16.8-55.3 0-23.25-5.46-41.33-16.37-54.26-10.91-12.91-26.43-19.36-46.6-19.36-13.26 0-24.73 2.91-34.45 8.72-9.74 5.84-17.26 14.36-22.62 25.65-5.35 11.27-8.03 24.43-8.03 39.47 0 15.17 2.42 28.43 7.29 39.78 4.84 11.35 12.01 20.07 21.44 26.16 9.43 6.09 20.99 9.15 34.68 9.15 20.71 0 36.67-6.68 47.86-20.01m133.76 12.89c.08-1.07.1-2.37.1-3.93 0-4.84-1.53-8.57-4.54-11.17-3.03-2.63-7.37-3.95-13-3.95h-45.23v-39.37h44.8v-22.74h-44.8v-35.11h41.64c6.48 0 11.09-1.12 13.84-3.39s4.13-6.12 4.13-11.5c0-3.11-.23-5.74-.64-7.88h-88.14v142.56h91.51c.15-1.3.25-2.45.33-3.52m49.35-68.83c.56 7.24 4.03 14.97 10.35 23.2l31.08 40.41c5.63 7.37 13.18 11.07 22.62 11.07 5.63 0 11.22-1.63 16.7-4.9l-52.63-71.7 46.71-62.75c-1.99-1.99-4.49-3.54-7.5-4.69-3.06-1.12-6.25-1.68-9.64-1.68-3.93 0-7.5.92-10.66 2.75-3.16 1.84-6.32 4.74-9.41 8.72l-28.97 38.3c-2.83 3.7-4.9 6.99-6.25 9.89-1.33 2.91-2.14 5.84-2.42 8.82v-51.91c0-11.07-6.27-16.57-18.82-16.57-2.24 0-5.64.33-10.15 1.04v142.33h28.96v-72.33zm173.54 39.14c-5.84 9.08-14.28 13.62-25.27 13.62s-19.45-4.56-25.37-13.72c-5.89-9.15-8.87-21.88-8.87-38.19 0-16.17 2.98-28.61 8.87-37.33 5.92-8.72 14.61-13.08 26.01-13.08 10.86 0 19.12 4.36 24.83 13.08 5.71 8.72 8.57 21.16 8.57 37.33.01 16.44-2.93 29.21-8.77 38.29m22.19-92.76c-10.91-12.9-26.44-19.35-46.61-19.35-13.23 0-24.71 2.91-34.45 8.72-9.71 5.84-17.26 14.36-22.62 25.63-5.35 11.3-8.03 24.45-8.03 39.47 0 15.2 2.42 28.46 7.29 39.8 4.87 11.35 12.01 20.07 21.44 26.16 9.46 6.09 21.01 9.15 34.68 9.15 20.73 0 36.69-6.68 47.88-20.02 11.19-13.31 16.8-31.77 16.8-55.3.01-23.25-5.45-41.33-16.38-54.26m-34.25 240.49c-15.15 0-27.46-12.42-27.46-27.66 0-15.25 12.32-27.66 27.46-27.66 15.17 0 27.51 12.42 27.51 27.66s-12.34 27.66-27.51 27.66m0-63.64c-19.71 0-35.75 16.14-35.75 35.98 0 19.86 16.04 36 35.75 36 19.73 0 35.77-16.14 35.77-36 0-19.84-16.03-35.98-35.77-35.98" class="st4"/><path d="M719.79 1220.4c-1.2.99-2.88 1.56-4.97 1.56h-2.47v-12.24c.33-.05.69-.05 1.17-.1.46-.03.94-.03 1.63-.03 1.99 0 3.54.43 4.72 1.33 1.12.92 1.73 2.45 1.73 4.67 0 2.16-.61 3.76-1.81 4.81m5.15 3.51c.79-.59 1.53-1.27 2.17-2.12.64-.87 1.17-1.89 1.5-2.98.33-1.12.51-2.42.51-3.93 0-3.52-1.17-6.12-3.55-7.85-2.32-1.73-6.04-2.57-11.17-2.57-1.33 0-2.78.03-4.44.1-1.63.13-3.24.23-4.87.41v35.19h7.29v-13.33h2.91l5.97 10.3c.74 1.25 1.53 2.14 2.42 2.7.84.59 1.94.87 3.24.87.66 0 1.35-.1 2.14-.23.74-.15 1.4-.41 2.09-.69l-8.72-14.58c.9-.29 1.74-.72 2.51-1.29m-392.85-35.81c-5.48 0-9.87 1.38-13.11 4.16-3.24 2.75-4.87 6.48-4.87 11.17 0 3.11.2 5.94.64 8.52h44.19v118.69h29.17v-118.69h26.64c5.48 0 9.74-1.33 12.77-3.95 3.03-2.63 4.54-6.2 4.54-10.73 0-3.11-.2-6.17-.64-9.15h-99.33zm191.36 119.98h-45.23v-39.37h44.8v-22.74h-44.8v-35.11h41.64c6.48 0 11.09-1.15 13.85-3.39 2.75-2.27 4.13-6.12 4.13-11.5 0-3.14-.23-5.74-.64-7.88h-88.14v142.56h91.51c.15-1.3.26-2.45.33-3.52.08-1.07.1-2.37.1-3.95 0-4.82-1.53-8.54-4.54-11.14-3.04-2.65-7.37-3.96-13.01-3.96m146.83-116.58c-5.35-2.83-10.5-4.26-15.43-4.26-4.51 0-8.21.94-11.12 2.78-2.88 1.84-5.74 5.18-8.54 10l-20.93 36.16-20.5-38.5c-3.52-6.96-9.15-10.43-16.93-10.43-5.2 0-11.32 1.58-18.38 4.69l37.2 67.65-41.84 71.06h31.72l27.05-47.02 21.75 36.36c2.83 4.82 5.81 8.21 9 10.12 3.16 1.91 7.22 2.88 12.16 2.88 5.2 0 10.76-1.07 16.7-3.21l-41.23-71.27z" class="st4"/><path d="m531.7 1688.09 14.15-38.32h-4.26l13.95 38.32h10.91l20.73-55.61h-15.2l-13.46 40.41 4.49.13-14.05-40.54h-10.81l-13.92 40.54 4.49-.13-13.49-40.41h-15.2l20.73 55.61zm87.84 0 14.18-38.32h-4.26l13.92 38.32h10.94l20.7-55.61h-15.17l-13.49 40.41 4.49.13-14.02-40.54h-10.84l-13.92 40.54 4.49-.13-13.46-40.41h-15.2l20.7 55.61zm87.87 0 14.15-38.32h-4.26l13.92 38.32h10.94l20.73-55.61h-15.2l-13.46 40.41 4.49.13-14.05-40.54h-10.81l-13.95 40.54 4.49-.13-13.46-40.41h-15.2l20.73 55.61zm78.45-1.55c1.81-1.89 2.7-4.16 2.7-6.86 0-2.75-.89-5.02-2.7-6.83-1.81-1.81-4.05-2.7-6.73-2.7-2.83 0-5.15.89-6.91 2.7-1.76 1.81-2.65 4.08-2.65 6.83 0 2.7.89 4.97 2.65 6.86 1.76 1.89 4.08 2.83 6.91 2.83 2.68 0 4.92-.94 6.73-2.83m58.44-1.05c4.51-2.55 8.08-6.07 10.71-10.53 2.6-4.44 3.9-9.38 3.9-14.84 0-5.46-1.33-10.35-3.98-14.74-2.63-4.39-6.2-7.83-10.68-10.35-4.51-2.55-9.59-3.8-15.27-3.8-5.58 0-10.63 1.27-15.12 3.85-4.49 2.57-8.06 6.02-10.66 10.35-2.6 4.33-3.9 9.23-3.9 14.69 0 5.53 1.3 10.5 3.9 14.92 2.6 4.41 6.17 7.9 10.66 10.45 4.49 2.58 9.54 3.88 15.12 3.88 5.68 0 10.78-1.3 15.32-3.88m-22.69-12.24c-2.14-1.33-3.8-3.08-5-5.3-1.2-2.22-1.78-4.79-1.78-7.73 0-2.91.59-5.48 1.78-7.7 1.2-2.22 2.86-3.98 5-5.23 2.17-1.27 4.62-1.91 7.37-1.91 2.85 0 5.33.64 7.45 1.91 2.09 1.25 3.8 3.01 5.05 5.23 1.28 2.22 1.91 4.79 1.91 7.7 0 2.93-.61 5.51-1.78 7.73-1.2 2.22-2.88 3.98-5.07 5.3-2.19 1.3-4.69 1.94-7.55 1.94-2.77 0-5.21-.64-7.38-1.94m87.86 13.7c3.82-1.61 7.16-4.03 10-7.27l-8.98-8.97c-1.68 2.01-3.67 3.47-5.99 4.39-2.29.92-4.87 1.38-7.7 1.38-3.14 0-5.92-.66-8.29-1.96-2.37-1.3-4.21-3.19-5.48-5.69-1.25-2.5-1.89-5.43-1.89-8.82 0-3.29.59-6.14 1.78-8.57 1.2-2.42 2.91-4.28 5.12-5.58 2.22-1.3 4.82-1.96 7.83-1.96 2.83 0 5.23.59 7.14 1.73 1.91 1.15 3.42 2.83 4.49 5.07 1.07 2.22 1.66 4.97 1.73 8.29l6.2-4.72-39.83.1v11.3l46.86-.13c.31-1.22.48-2.35.56-3.39.08-1.04.13-2.07.13-3.06 0-5.35-1.15-10.17-3.47-14.38-2.3-4.23-5.51-7.52-9.66-9.89-4.13-2.4-8.82-3.57-14.05-3.57-5.51 0-10.5 1.25-14.97 3.8-4.44 2.52-7.96 5.97-10.53 10.35-2.58 4.39-3.85 9.33-3.85 14.84 0 5.61 1.3 10.61 3.93 14.97 2.6 4.38 6.2 7.83 10.76 10.38 4.56 2.52 9.77 3.8 15.61 3.8 4.52-.02 8.7-.84 12.55-2.44m78.74 1.14-25.55-32.59-.59 7.37 25.12-30.39h-17.52l-21.29 26.95 21.42 28.66zm-38.68-83.22h-15.07v83.22h15.07zm86.36 80.62c4.51-2.55 8.08-6.07 10.71-10.53 2.6-4.44 3.9-9.38 3.9-14.84 0-5.46-1.33-10.35-3.98-14.74-2.63-4.39-6.2-7.83-10.68-10.35-4.49-2.55-9.59-3.8-15.27-3.8-5.58 0-10.63 1.27-15.12 3.85-4.49 2.57-8.06 6.02-10.66 10.35-2.6 4.33-3.9 9.23-3.9 14.69 0 5.53 1.3 10.5 3.9 14.92 2.6 4.41 6.17 7.9 10.66 10.45 4.49 2.58 9.54 3.88 15.12 3.88 5.68 0 10.78-1.3 15.32-3.88m-22.69-12.24c-2.14-1.33-3.8-3.08-5-5.3-1.2-2.22-1.78-4.79-1.78-7.73 0-2.91.59-5.48 1.78-7.7 1.2-2.22 2.86-3.98 5-5.23 2.17-1.27 4.62-1.91 7.37-1.91 2.86 0 5.33.64 7.45 1.91 2.09 1.25 3.8 3.01 5.05 5.23 1.27 2.22 1.91 4.79 1.91 7.7 0 2.93-.61 5.51-1.79 7.73-1.2 2.22-2.88 3.98-5.07 5.3-2.19 1.3-4.69 1.94-7.55 1.94-2.76 0-5.21-.64-7.37-1.94m90.84-21.41h-39.83v13.82h39.83zm36.85-42.48h-15.07v78.74h15.07zm13 23.12h-41.1v13.23h41.1zm48.14 54.47c3.85-1.61 7.17-4.03 10.02-7.27l-8.98-8.97c-1.71 2.01-3.7 3.47-5.99 4.39s-4.87 1.38-7.73 1.38c-3.14 0-5.89-.66-8.29-1.96-2.37-1.3-4.18-3.19-5.46-5.69-1.28-2.5-1.91-5.43-1.91-8.82 0-3.29.61-6.14 1.78-8.57 1.2-2.42 2.91-4.28 5.12-5.58 2.24-1.3 4.85-1.96 7.83-1.96 2.86 0 5.23.59 7.14 1.73 1.91 1.15 3.42 2.83 4.49 5.07 1.07 2.22 1.66 4.97 1.73 8.29l6.22-4.72-39.83.1v11.3l46.84-.13c.31-1.22.51-2.35.59-3.39.08-1.04.1-2.07.1-3.06 0-5.35-1.15-10.17-3.44-14.38-2.29-4.23-5.53-7.52-9.66-9.89-4.16-2.4-8.85-3.57-14.05-3.57-5.53 0-10.53 1.25-14.97 3.8-4.46 2.52-7.96 5.97-10.53 10.35s-3.85 9.33-3.85 14.84c0 5.61 1.3 10.61 3.9 14.97 2.6 4.38 6.2 7.83 10.76 10.38 4.56 2.52 9.77 3.8 15.6 3.8 4.54-.02 8.72-.84 12.57-2.44m75.98 1.14-22.8-33.15-2.98-2.09-13.46-20.37h-17.98l21.77 30.85 2.98 2.32 14.74 22.44zm-41.2 0 14.28-21.52-8.64-10.25-22.67 31.77zm40.18-55.61h-16.93l-13.23 20.5 8.85 10.12zm27.69 54.06c1.81-1.89 2.7-4.16 2.7-6.86 0-2.75-.89-5.02-2.7-6.83-1.81-1.81-4.05-2.7-6.73-2.7-2.86 0-5.15.89-6.91 2.7-1.76 1.81-2.65 4.08-2.65 6.83 0 2.7.89 4.97 2.65 6.86 1.76 1.89 4.05 2.83 6.91 2.83 2.68 0 4.92-.94 6.73-2.83m55.51.36c3.72-1.66 6.91-4.03 9.61-7.09l-9.69-9.79c-1.53 1.68-3.29 2.98-5.28 3.85-2.01.89-4.26 1.33-6.81 1.33-2.75 0-5.23-.64-7.42-1.94-2.19-1.33-3.9-3.08-5.12-5.3-1.22-2.22-1.84-4.79-1.84-7.73 0-2.91.61-5.48 1.84-7.7 1.22-2.22 2.93-3.98 5.12-5.23 2.19-1.27 4.67-1.91 7.42-1.91 2.47 0 4.72.43 6.73 1.27 2.04.84 3.75 2.09 5.12 3.8l9.92-9.92c-2.78-3.06-5.99-5.38-9.69-6.96-3.67-1.56-7.7-2.35-12.09-2.35-5.66 0-10.79 1.25-15.3 3.8-4.54 2.52-8.11 5.99-10.71 10.4-2.6 4.41-3.93 9.38-3.93 14.92 0 5.38 1.33 10.28 3.93 14.69s6.17 7.9 10.71 10.45c4.51 2.58 9.59 3.88 15.2 3.88 4.45 0 8.56-.84 12.28-2.47m60.05-1.41c4.51-2.55 8.08-6.07 10.68-10.53 2.63-4.44 3.93-9.38 3.93-14.84 0-5.46-1.33-10.35-3.98-14.74s-6.22-7.83-10.71-10.35c-4.49-2.55-9.56-3.8-15.25-3.8-5.61 0-10.63 1.27-15.15 3.85-4.49 2.57-8.03 6.02-10.63 10.35-2.63 4.33-3.93 9.23-3.93 14.69 0 5.53 1.3 10.5 3.93 14.92 2.6 4.41 6.15 7.9 10.63 10.45 4.51 2.58 9.54 3.88 15.15 3.88 5.69 0 10.79-1.3 15.33-3.88m-22.69-12.24c-2.14-1.33-3.82-3.08-5-5.3-1.2-2.22-1.79-4.79-1.79-7.73 0-2.91.59-5.48 1.79-7.7 1.17-2.22 2.85-3.98 5-5.23 2.14-1.27 4.61-1.91 7.37-1.91 2.83 0 5.33.64 7.42 1.91 2.12 1.25 3.8 3.01 5.07 5.23 1.27 2.22 1.89 4.79 1.89 7.7 0 2.93-.59 5.51-1.76 7.73-1.2 2.22-2.88 3.98-5.07 5.3-2.19 1.3-4.72 1.94-7.55 1.94-2.76 0-5.23-.64-7.37-1.94m63.79-40.77h-15.07v55.61h15.07zm36.26 55.61v-35.8c0-4.31-.92-8.01-2.75-11.12-1.86-3.11-4.33-5.53-7.5-7.24-3.14-1.73-6.63-2.6-10.48-2.6-4.05 0-7.7.87-10.94 2.6-3.21 1.71-5.76 4.16-7.65 7.29-1.89 3.16-2.8 6.88-2.8 11.17l5.86 3.01c0-2.22.48-4.1 1.43-5.63.97-1.56 2.24-2.73 3.8-3.52 1.58-.82 3.36-1.22 5.35-1.22 3.01 0 5.48.92 7.5 2.73 1.99 1.78 2.98 4.31 2.98 7.52v32.82h15.2zm36.38 0v-35.11c0-4.54-.99-8.41-2.93-11.63-1.96-3.21-4.59-5.71-7.9-7.42-3.29-1.73-7.01-2.6-11.17-2.6-4.13 0-7.9.92-11.27 2.7-3.39 1.81-6.12 4.33-8.24 7.55-2.12 3.21-3.29 7.09-3.52 11.63l8.64 2.19c0-2.22.48-4.1 1.43-5.63.97-1.56 2.24-2.73 3.8-3.52 1.58-.82 3.42-1.22 5.48-1.22 2.91 0 5.35.92 7.37 2.73 1.99 1.78 2.98 4.31 2.98 7.52v32.82h15.33z" style="fill:#232321"/><path d="M1024.28 947.98c4.87 3.8 9.43 6.5 13.67 8.13 4.21 1.63 8.62 2.45 13.16 2.45 5.53 0 9.94-1.27 13.26-3.82 3.31-2.55 4.95-6.17 4.95-10.81-.1-3.8-1.12-6.81-3.09-9.03-1.94-2.22-4.51-4.08-7.73-5.53-3.19-1.48-6.68-2.81-10.48-3.98-3.47-1.1-6.94-2.37-10.4-3.82-3.47-1.48-6.66-3.34-9.51-5.61-2.88-2.27-5.2-5.2-6.99-8.8-1.78-3.57-2.7-8.01-2.7-13.31 0-6.63 1.68-12.32 5.05-17.08 3.37-4.77 8.01-8.44 13.9-10.96 5.92-2.55 12.49-3.82 19.76-3.82 5.63 0 11.12.71 16.42 2.19 5.3 1.45 9.28 3.16 11.88 5.13 3.03 1.73 4.54 4.16 4.54 7.32 0 1.4-.59 3.21-1.78 5.43-1.2 2.22-2.75 4.36-4.72 6.43-3.37-2.7-7.21-4.9-11.55-6.58-4.33-1.68-8.54-2.52-12.67-2.52-5.3 0-9.54 1.05-12.67 3.16-3.16 2.12-4.72 5.18-4.72 9.2 0 2.17.51 4.11 1.53 5.84 1.05 1.73 2.75 3.37 5.13 4.87 2.4 1.53 6.83 3.49 13.33 5.86 3.47 1.3 6.99 2.7 10.58 4.23 3.57 1.5 6.81 3.44 9.74 5.76 2.93 2.35 5.3 5.25 7.16 8.8 1.84 3.52 2.75 7.93 2.75 13.23 0 11.07-3.65 19.73-10.96 26.03-7.32 6.27-17.26 9.41-29.83 9.41-5.86 0-11.35-.59-16.42-1.78-5.1-1.17-9.43-2.81-13.03-4.87-3.03-2.07-4.54-4.44-4.54-7.17 0-3.15 2.32-7.81 6.98-13.98m119.35-65.69h-33.99c-.33-1.94-.48-4.1-.48-6.5 0-3.57 1.25-6.43 3.75-8.54 2.5-2.12 5.84-3.16 10.07-3.16h76.42c.33 2.27.48 4.62.48 6.99 0 3.47-1.15 6.2-3.49 8.21-2.32 2.01-5.61 3.01-9.84 3.01h-20.47v90.72h-22.44v-90.73zm110.46 1.46-14.79 46.33h29.09zm27.8 89.27-9.26-26.67h-37.56l-8.95 26.67h-22.11l37.71-107.32c3.47-1.5 7.83-2.27 13.03-2.27 8.01 0 13.11 3.36 15.27 10.07l34.96 99.52zm136.57 0h-18.87l-46.33-71.55v71.55h-21.32V864.4c2.83-.64 6.14-.97 9.92-.97 3.16 0 5.74.51 7.73 1.55 2.01 1.02 3.88 2.93 5.61 5.76l41.97 68.46v-74.96c3.24-.54 5.69-.82 7.32-.82 9.31 0 13.97 4.23 13.97 12.67zm104.06-55.94c0-12.37-2.6-21.55-7.8-27.56-5.2-6.02-13.11-9.03-23.74-9.03-3.03 0-6.3.18-9.77.48v74.96h8.95c11.17 0 19.35-3.09 24.55-9.26 5.21-6.18 7.81-16.02 7.81-29.59m22.77-.33c0 11.5-2.12 21.52-6.35 30.09-4.23 8.57-10.22 15.07-17.98 19.51-7.75 4.46-16.93 6.68-27.54 6.68h-34.65V865.04c10.1-1.3 20.27-1.94 30.57-1.94 18.54 0 32.48 4.49 41.87 13.49s14.08 22.39 14.08 40.16m68.26-33-14.79 46.33h29.09zm27.8 89.27-9.26-26.67h-37.56l-8.95 26.67h-22.11l37.71-107.32c3.47-1.5 7.83-2.27 13.03-2.27 8.01 0 13.11 3.36 15.27 10.07l34.96 99.52zm100-75.61c0-6.27-1.63-10.94-4.87-13.97-3.26-3.03-8.29-4.56-15.12-4.56-1.96 0-3.65.05-5.05.15-1.4.13-2.6.23-3.57.33v37.56h7.62c6.73 0 11.91-1.68 15.53-5.02 3.65-3.37 5.46-8.19 5.46-14.49m23.41-2.12c0 7.7-1.81 14.3-5.43 19.84-3.65 5.53-8.72 9.48-15.22 11.88l26.85 44.88c-4.23 1.84-8.57 2.75-13.03 2.75-4 0-7.37-.87-10.07-2.6s-5.2-4.56-7.47-8.47l-18.54-31.54h-8.95V973h-22.44V864.72c9.33-1.07 18.92-1.61 28.79-1.61 15.5 0 26.95 2.63 34.4 7.88 7.41 5.26 11.11 13.37 11.11 24.3m99.19 21.79c0-12.37-2.6-21.55-7.8-27.56-5.2-6.02-13.11-9.03-23.74-9.03-3.03 0-6.3.18-9.77.48v74.96h8.95c11.17 0 19.35-3.09 24.55-9.26 5.21-6.18 7.81-16.02 7.81-29.59m22.77-.33c0 11.5-2.12 21.52-6.35 30.09-4.23 8.57-10.22 15.07-17.98 19.51-7.75 4.46-16.93 6.68-27.54 6.68h-34.65V865.04c10.1-1.3 20.27-1.94 30.57-1.94 18.54 0 32.48 4.49 41.87 13.49 9.38 9 14.08 22.39 14.08 40.16m-536.99 219.44v-82.1l-21.29 10.73c-4.46-5.86-6.68-10.3-6.68-13.34 0-3.03 1.73-5.48 5.2-7.32l23.1-12.04c2.17-1.1 4.26-2.04 6.25-2.86 2.01-.82 4.11-1.22 6.27-1.22 3.34 0 6.4.87 9.1 2.6v105.53h-21.95zm115.61-53.17c0-13.11-1.43-22.82-4.31-29.09-2.88-6.3-7.39-9.43-13.59-9.43-6.27 0-10.89 3.14-13.82 9.43-2.91 6.27-4.39 15.99-4.39 29.09 0 12.9 1.48 22.49 4.39 28.79 2.93 6.27 7.55 9.43 13.82 9.43 6.2 0 10.71-3.11 13.59-9.28 2.88-6.17 4.31-15.84 4.31-28.94m21.95 0c0 18.43-3.37 32.31-10.1 41.61-6.71 9.33-16.68 14-29.91 14-13.54 0-23.66-4.61-30.32-13.82-6.68-9.21-9.99-23.15-9.99-41.79 0-17.87 3.52-31.67 10.56-41.38 7.04-9.69 17.19-14.56 30.42-14.56 13.21 0 23.08 4.62 29.58 13.82 6.49 9.23 9.76 23.25 9.76 42.12m86.82 0c0-13.11-1.43-22.82-4.31-29.09-2.88-6.3-7.39-9.43-13.56-9.43-6.3 0-10.91 3.14-13.85 9.43-2.91 6.27-4.39 15.99-4.39 29.09 0 12.9 1.48 22.49 4.39 28.79 2.93 6.27 7.55 9.43 13.85 9.43 6.17 0 10.68-3.11 13.56-9.28 2.88-6.17 4.31-15.84 4.31-28.94m21.95 0c0 18.43-3.37 32.31-10.1 41.61-6.71 9.33-16.68 14-29.91 14-13.54 0-23.66-4.61-30.32-13.82-6.68-9.21-9.99-23.15-9.99-41.79 0-17.87 3.52-31.67 10.56-41.38 7.04-9.69 17.19-14.56 30.42-14.56 13.21 0 23.07 4.62 29.58 13.82 6.5 9.23 9.76 23.25 9.76 42.12" style="fill:#292827"/><path d="M1204.82 1364.67v-76.12c-.63-.39-1.5-.8-2.6-1.23-1.1-.43-2.44-.65-4.02-.65s-3.09.29-4.55.88c-1.46.59-2.97 1.27-4.55 2.05l-16.66 8.68c-1.33.7-2.29 1.52-2.87 2.46-.59.94-.88 1.88-.88 2.81 0 1.49.53 3.09 1.58 4.81 1.06 1.72 2.13 3.32 3.23 4.81l15.36-7.74v59.23h15.96zm54.43-18.65v18.65h15.95v-18.65h9.15c.08-.62.16-1.29.23-1.99.08-.63.16-1.27.23-1.94.08-.66.12-1.35.12-2.05 0-1.72-.45-3.09-1.35-4.11-.9-1.02-2.48-1.52-4.75-1.52h-3.64v-45.74c-.63-.47-1.6-.88-2.93-1.23s-2.5-.53-3.52-.53c-2.97 0-5.38.78-7.21 2.35-1.84 1.57-3.34 3.17-4.52 4.81l-29.79 41.29v10.67h32.03zm-19.36-11.96 19.35-26.04v26.04zm68.03 17.41c-1.64-1.6-3.71-2.4-6.22-2.4-2.5 0-4.57.8-6.22 2.4-1.64 1.6-2.46 3.66-2.46 6.16s.8 4.59 2.4 6.27c1.6 1.68 3.69 2.52 6.27 2.52 2.66 0 4.77-.84 6.33-2.52 1.56-1.68 2.35-3.77 2.35-6.27.01-2.5-.81-4.55-2.45-6.16m67.96-42.16c-1.06-5-2.72-9.23-4.99-12.67-2.27-3.44-5.21-6.08-8.82-7.92-3.6-1.84-7.95-2.76-13.04-2.76-4.94 0-9.27.94-12.99 2.81-3.72 1.88-6.82 4.57-9.28 8.09-2.47 3.52-4.31 7.76-5.52 12.73-1.21 4.97-1.82 10.54-1.82 16.71 0 13.29 2.39 23.3 7.17 30.03 4.78 6.73 12.1 10.09 21.98 10.09 9.87 0 17.16-3.48 21.86-10.44 4.7-6.96 7.05-16.85 7.05-29.67-.01-6.33-.54-12-1.6-17m-15.24 30.02c-.59 3.52-1.43 6.35-2.53 8.5-1.1 2.15-2.46 3.69-4.06 4.63-1.61.94-3.44 1.41-5.48 1.41-2.04 0-3.89-.49-5.54-1.47s-3.04-2.54-4.18-4.69c-1.14-2.15-2-4.98-2.59-8.5-.59-3.52-.88-7.82-.88-12.9 0-5.16.29-9.52.88-13.08.59-3.56 1.45-6.41 2.59-8.56 1.14-2.15 2.53-3.71 4.18-4.69 1.65-.98 3.49-1.47 5.54-1.47 2.04 0 3.87.49 5.48 1.47 1.61.98 2.97 2.54 4.06 4.69 1.1 2.15 1.94 5 2.53 8.56.59 3.56.88 7.92.88 13.08 0 5.17-.3 9.51-.88 13.02m40.76 12.14c-1.64-1.6-3.71-2.4-6.22-2.4-2.5 0-4.57.8-6.22 2.4-1.64 1.6-2.46 3.66-2.46 6.16s.8 4.59 2.4 6.27c1.6 1.68 3.69 2.52 6.27 2.52 2.66 0 4.77-.84 6.33-2.52 1.56-1.68 2.35-3.77 2.35-6.27.01-2.5-.81-4.55-2.45-6.16m44.8-5.45v18.65h15.95v-18.65h9.15c.08-.62.16-1.29.23-1.99.08-.63.16-1.27.23-1.94.08-.66.12-1.35.12-2.05 0-1.72-.45-3.09-1.35-4.11-.9-1.02-2.48-1.52-4.75-1.52h-3.64v-45.74c-.63-.47-1.6-.88-2.93-1.23s-2.5-.53-3.52-.53c-2.97 0-5.38.78-7.21 2.35-1.84 1.57-3.34 3.17-4.52 4.81l-29.79 41.29v10.67h32.03zm-19.35-11.96 19.35-26.04v26.04zm52.83-9.8c.9 3.09 2.27 5.81 4.1 8.15 1.84 2.35 4.16 4.24 6.98 5.69 2.81 1.45 6.18 2.17 10.09 2.17 3.28 0 6.2-.47 8.74-1.41s4.48-2.07 5.81-3.4c-.39 2.11-1.11 4.26-2.17 6.45-1.06 2.19-2.54 4.2-4.46 6.04-1.92 1.84-4.3 3.34-7.15 4.52-2.86 1.17-6.32 1.76-10.38 1.76-1.64 0-3.32-.12-5.04-.35-.16.86-.29 1.86-.41 2.99-.12 1.13-.18 2.13-.18 2.99 0 1.33.25 2.44.76 3.34.51.9 1.17 1.6 1.99 2.11.82.51 1.78.86 2.87 1.06 1.09.19 2.27.29 3.52.29 4.93 0 9.71-.94 14.37-2.81 4.65-1.88 8.78-4.73 12.37-8.56 3.6-3.83 6.47-8.68 8.62-14.54 2.15-5.86 3.23-12.78 3.23-20.76 0-5.16-.59-9.85-1.76-14.07-1.17-4.22-2.93-7.8-5.28-10.73-2.35-2.93-5.28-5.2-8.8-6.8-3.52-1.6-7.62-2.4-12.32-2.4-3.83 0-7.39.61-10.67 1.82-3.28 1.21-6.12 3.03-8.5 5.45-2.39 2.42-4.26 5.44-5.63 9.03-1.37 3.6-2.05 7.74-2.05 12.43 0 3.27.45 6.46 1.35 9.54m17.83-21.7c1.91-2.7 4.44-4.05 7.56-4.05 2.5 0 4.53.61 6.1 1.82 1.56 1.21 2.77 2.76 3.64 4.63.86 1.88 1.45 3.95 1.76 6.22.31 2.27.47 4.46.47 6.57 0 1.33-.04 2.62-.12 3.87-.08 1.25-.2 2.35-.35 3.28-.86.86-2.21 1.74-4.05 2.64-1.84.9-4.09 1.35-6.74 1.35-3.99 0-6.84-1.31-8.56-3.93-1.72-2.62-2.58-6.27-2.58-10.97 0-4.92.95-8.73 2.87-11.43m99.4 25.34c-.86-3.09-2.17-5.81-3.93-8.15-1.76-2.35-4.03-4.2-6.8-5.57-2.78-1.37-6.08-2.05-9.91-2.05-3.6 0-6.76.57-9.5 1.7s-4.77 2.25-6.1 3.34c.55-1.95 1.47-4.05 2.76-6.27 1.29-2.23 2.89-4.28 4.81-6.16 1.91-1.88 4.2-3.44 6.86-4.69 2.66-1.25 5.71-1.88 9.15-1.88 1.33 0 2.4.04 3.23.12.82.08 1.78.2 2.87.35.16-.86.27-1.8.35-2.81.08-1.02.12-1.95.12-2.81 0-2.89-.76-4.79-2.29-5.69-1.52-.9-3.81-1.35-6.86-1.35-4.69 0-9.34.92-13.96 2.76-4.61 1.84-8.74 4.67-12.37 8.5-3.64 3.83-6.59 8.66-8.86 14.49-2.27 5.83-3.4 12.73-3.4 20.7 0 5.24.57 9.97 1.7 14.19 1.13 4.22 2.85 7.82 5.16 10.79 2.31 2.97 5.22 5.26 8.74 6.86 3.52 1.6 7.66 2.4 12.43 2.4 3.83 0 7.39-.63 10.67-1.88s6.14-3.11 8.56-5.57c2.42-2.46 4.34-5.49 5.75-9.09 1.41-3.6 2.11-7.78 2.11-12.55 0-3.37-.43-6.59-1.29-9.68m-18 22.21c-1.92 2.67-4.44 4-7.56 4-2.58 0-4.65-.61-6.22-1.83-1.56-1.22-2.78-2.77-3.64-4.65-.86-1.88-1.43-3.96-1.7-6.24-.28-2.28-.41-4.47-.41-6.59 0-1.33.04-2.55.12-3.65.08-1.1.19-2.12.35-3.06.47-.47 1.09-.94 1.88-1.41.78-.47 1.68-.92 2.7-1.35 1.02-.43 2.09-.78 3.23-1.06 1.13-.27 2.29-.41 3.46-.41 3.99 0 6.76 1.3 8.33 3.89 1.56 2.59 2.35 6.24 2.35 10.95-.02 4.93-.98 8.74-2.89 11.41m83.68 14.56c.08-.7.14-1.36.18-1.98.04-.62.06-1.35.06-2.21 0-1.01-.16-1.99-.47-2.96-.31-.97-.84-1.86-1.58-2.67-.74-.81-1.72-1.47-2.92-1.98-1.2-.5-2.74-.75-4.6-.75h-22.33c1.8-1.57 3.75-3.39 5.86-5.46 2.11-2.07 4.26-4.25 6.45-6.52 2.1-2.19 4.12-4.5 6.06-6.93 1.94-2.43 3.67-4.97 5.18-7.64 1.51-2.66 2.74-5.38 3.67-8.17.93-2.78 1.4-5.62 1.4-8.52 0-4.07-.66-7.58-1.98-10.52-1.32-2.94-3.11-5.31-5.36-7.11-2.25-1.8-4.93-3.13-8.05-3.99-3.12-.86-6.43-1.29-9.95-1.29-3.05 0-5.85.29-8.39.88-2.54.59-4.77 1.31-6.69 2.17-1.92.86-3.56 1.76-4.93 2.7-1.37.94-2.44 1.72-3.23 2.35-.78.63-1.45 1.33-1.99 2.11-.55.78-.82 1.64-.82 2.58 0 1.1.53 2.46 1.58 4.1 1.06 1.64 2.36 3.36 3.93 5.16 2.42-2.27 5.16-4.3 8.21-6.1 3.05-1.8 6.53-2.7 10.44-2.7 1.41 0 2.77.18 4.11.53 1.33.35 2.52.94 3.58 1.76 1.06.82 1.92 1.94 2.58 3.34.66 1.41 1 3.17 1 5.28 0 3.44-.92 6.82-2.76 10.15-1.84 3.32-4.28 6.67-7.33 10.03-2.03 2.27-4.16 4.52-6.39 6.74s-4.42 4.36-6.57 6.39c-2.15 2.03-4.2 3.91-6.16 5.63-1.96 1.72-3.68 3.17-5.16 4.34v11.26zm10.27-40.41c.9 3.09 2.27 5.81 4.1 8.15 1.84 2.35 4.16 4.24 6.98 5.69 2.81 1.45 6.18 2.17 10.09 2.17 3.28 0 6.2-.47 8.74-1.41s4.48-2.07 5.81-3.4c-.39 2.11-1.11 4.26-2.17 6.45-1.06 2.19-2.54 4.2-4.46 6.04-1.92 1.84-4.3 3.34-7.15 4.52-2.86 1.17-6.32 1.76-10.38 1.76-1.64 0-3.32-.12-5.04-.35-.16.86-.29 1.86-.41 2.99-.12 1.13-.18 2.13-.18 2.99 0 1.33.25 2.44.76 3.34.51.9 1.17 1.6 1.99 2.11.82.51 1.78.86 2.87 1.06 1.09.19 2.27.29 3.52.29 4.93 0 9.71-.94 14.37-2.81 4.65-1.88 8.78-4.73 12.37-8.56 3.6-3.83 6.47-8.68 8.62-14.54 2.15-5.86 3.23-12.78 3.23-20.76 0-5.16-.59-9.85-1.76-14.07-1.17-4.22-2.93-7.8-5.28-10.73-2.35-2.93-5.28-5.2-8.8-6.8-3.52-1.6-7.62-2.4-12.32-2.4-3.83 0-7.39.61-10.67 1.82-3.28 1.21-6.12 3.03-8.5 5.45-2.39 2.42-4.26 5.44-5.63 9.03-1.37 3.6-2.05 7.74-2.05 12.43 0 3.27.45 6.46 1.35 9.54m17.82-21.7c1.92-2.7 4.44-4.05 7.56-4.05 2.5 0 4.53.61 6.1 1.82 1.56 1.21 2.77 2.76 3.64 4.63.86 1.88 1.45 3.95 1.76 6.22.31 2.27.47 4.46.47 6.57 0 1.33-.04 2.62-.12 3.87-.08 1.25-.2 2.35-.35 3.28-.86.86-2.21 1.74-4.05 2.64-1.84.9-4.09 1.35-6.74 1.35-3.99 0-6.84-1.31-8.56-3.93-1.72-2.62-2.58-6.27-2.58-10.97 0-4.92.96-8.73 2.87-11.43m-568.24 126.48c0-1.57-.26-2.83-.79-3.77s-1.2-1.68-2-2.21c-.81-.53-1.69-.89-2.66-1.08-.96-.19-1.91-.28-2.84-.28-.44 0-.89.03-1.35.09-.47.06-.95.13-1.44.19-.56.06-1.12.13-1.68.19v62.77h12.76v-27.21h23.74v27.21h12.76v-55.92c0-1.56-.26-2.81-.79-3.75s-1.2-1.67-2-2.21c-.81-.53-1.69-.89-2.66-1.08-.96-.19-1.85-.28-2.65-.28-.5 0-1.01.03-1.54.09s-1.04.13-1.54.19c-.56.06-1.09.13-1.58.19v25.52h-23.74zm89.66 24.56c-.78-2.81-2.03-5.29-3.74-7.41-1.72-2.13-3.96-3.81-6.74-5.07-2.78-1.25-6.13-1.88-10.06-1.88-3.75 0-7.02.63-9.83 1.88-2.81 1.25-5.13 2.96-6.98 5.11-1.84 2.16-3.23 4.66-4.17 7.51-.94 2.85-1.4 5.86-1.4 9.05 0 3.13.4 6.11 1.22 8.96.81 2.85 2.09 5.35 3.84 7.51s4.01 3.88 6.79 5.16c2.78 1.28 6.16 1.92 10.16 1.92 3.99 0 7.4-.66 10.21-1.97 2.81-1.31 5.1-3.06 6.88-5.25 1.78-2.19 3.06-4.72 3.84-7.6.78-2.88 1.17-5.88 1.17-9.01-.02-3.13-.41-6.1-1.19-8.91m-11.97 14.17c-.25 1.69-.72 3.21-1.41 4.55-.69 1.35-1.64 2.43-2.86 3.24s-2.77 1.22-4.64 1.22c-1.82 0-3.33-.41-4.55-1.22-1.22-.81-2.17-1.89-2.86-3.24-.69-1.34-1.17-2.86-1.45-4.55s-.42-3.38-.42-5.07c0-1.69.16-3.35.47-4.97.31-1.63.83-3.08 1.55-4.36a9.032 9.032 0 0 1 2.91-3.14c1.22-.81 2.74-1.22 4.55-1.22 1.81 0 3.31.39 4.5 1.17 1.19.78 2.13 1.8 2.81 3.05.69 1.25 1.16 2.71 1.41 4.36.25 1.66.38 3.33.38 5.02a36.65 36.65 0 0 1-.39 5.16m51.23 17.17h12.76v-26.46c0-1.63-.05-3.28-.14-4.97-.09-1.69-.3-3.25-.61-4.69-.63-2.88-2-5.19-4.13-6.94s-5.41-2.63-9.85-2.63c-1.81 0-3.42.16-4.83.47-1.41.31-2.64.74-3.71 1.27-1.06.53-1.97 1.11-2.72 1.74-.75.63-1.38 1.22-1.88 1.78v-18.67c0-1.56-.25-2.83-.75-3.8-.5-.97-1.16-1.72-1.97-2.25s-1.72-.89-2.72-1.08c-1-.19-2-.28-3-.28s-1.97.05-2.91.14c-.94.09-1.41.17-1.41.23v66.15h12.76v-30.4c0-1.44.83-2.64 2.49-3.61 1.66-.97 3.64-1.45 5.96-1.45 1.63 0 2.89.23 3.8.7.91.47 1.56 1.13 1.97 1.97.41.84.66 1.86.75 3.05.09 1.19.14 2.47.14 3.85zm38.86-11.4c-1.88-2.28-2.95-5.14-3.2-8.59h27.68c.06-.31.11-.73.14-1.27l.09-1.64c.03-.56.05-1.09.05-1.6v-1.31c0-2.63-.34-5.13-1.03-7.51s-1.8-4.49-3.33-6.33c-1.53-1.84-3.52-3.31-5.96-4.41-2.44-1.09-5.41-1.64-8.91-1.64-2.69 0-5.32.44-7.88 1.31-2.57.88-4.86 2.25-6.9 4.13-2.03 1.88-3.66 4.24-4.88 7.08-1.22 2.85-1.83 6.24-1.83 10.18 0 4.82.69 8.81 2.06 11.96 1.38 3.16 3.17 5.68 5.4 7.55 2.22 1.88 4.75 3.19 7.6 3.94 2.85.75 5.74 1.13 8.68 1.13 3.25 0 6.08-.36 8.49-1.08 2.41-.72 4.27-1.58 5.58-2.58 1.56-1.13 2.35-2.38 2.35-3.75 0-.94-.41-2.14-1.22-3.61-.82-1.47-1.6-2.67-2.35-3.61-.57.5-1.19 1.05-1.88 1.64-.69.6-1.51 1.14-2.45 1.64-.94.5-2.01.92-3.2 1.27-1.19.34-2.57.52-4.14.52-4.1 0-7.08-1.14-8.96-3.42m-3.3-15.63c0-3.19.77-5.68 2.31-7.46 1.54-1.78 3.6-2.67 6.18-2.67 3.02 0 5.11.94 6.28 2.81 1.16 1.88 1.75 4.32 1.75 7.32zm50.2-3.37c0-1.44.83-2.64 2.5-3.61 1.67-.97 3.67-1.45 6-1.45 1.64 0 2.91.23 3.82.7.91.47 1.57 1.13 1.98 1.97.41.84.66 1.86.75 3.05.09 1.19.14 2.47.14 3.85v25.9h12.76v-26.46c0-1.63-.05-3.28-.14-4.97-.09-1.69-.3-3.25-.61-4.69-.63-2.88-2.01-5.19-4.14-6.94s-5.43-2.63-9.88-2.63c-3.7 0-6.67.61-8.9 1.83-2.23 1.22-3.88 2.55-4.94 3.99-.37-1.81-1.29-3.08-2.75-3.8-1.46-.72-3.18-1.08-5.17-1.08-.68 0-1.27.02-1.77.05-.5.03-.93.08-1.3.14-.43.06-.81.13-1.12.19v44.38h12.76v-30.42zm66.53-13.24c-1.44-.62-3.14-1.13-5.11-1.5-1.97-.38-4.21-.56-6.71-.56-2.38 0-4.66.3-6.85.89-2.19.6-4.11 1.49-5.77 2.67-1.66 1.19-2.99 2.63-3.99 4.32-1 1.69-1.5 3.66-1.5 5.91s.39 4.16 1.17 5.72c.78 1.56 1.83 2.86 3.14 3.89 1.31 1.03 2.81 1.86 4.5 2.49 1.69.63 3.44 1.13 5.25 1.5 2.81.56 4.93 1.24 6.33 2.02 1.41.78 2.11 2.08 2.11 3.89 0 1-.22 1.81-.66 2.44-.44.63-.99 1.13-1.64 1.5s-1.42.63-2.3.75c-.88.13-1.72.19-2.53.19-1.31 0-2.6-.16-3.85-.47a22.7 22.7 0 0 1-3.52-1.17c-1.1-.47-2.06-.97-2.91-1.5-.84-.53-1.55-1.05-2.11-1.55a57.17 57.17 0 0 0-2.16 3.61c-.63 1.16-.94 2.27-.94 3.33 0 1.25.52 2.24 1.55 2.96 1.03.72 1.98 1.27 2.86 1.64 1.25.56 2.83 1.05 4.74 1.45 1.91.41 4.24.61 6.99.61 2.69 0 5.18-.34 7.46-1.03 2.28-.69 4.27-1.69 5.96-3a14.03 14.03 0 0 0 3.99-4.88c.97-1.94 1.45-4.16 1.45-6.66 0-2.44-.45-4.47-1.36-6.1a12.27 12.27 0 0 0-3.57-4.03c-1.47-1.06-3.13-1.89-4.97-2.49-1.85-.59-3.71-1.08-5.58-1.45-4.57-1-6.85-2.56-6.85-4.69 0-.88.2-1.58.61-2.11.41-.53.91-.94 1.5-1.22s1.27-.47 2.02-.56 1.47-.14 2.16-.14c1.25 0 2.49.16 3.71.47 1.22.31 2.39.7 3.52 1.17s2.14.97 3.05 1.5c.91.53 1.67 1.05 2.3 1.55.69-1.13 1.33-2.33 1.92-3.61.59-1.28.89-2.39.89-3.33-.11-1.82-1.55-3.29-4.3-4.42m19 42.79c2.16 1.5 5.18 2.25 9.05 2.25 2 0 3.85-.21 5.54-.62 1.69-.41 3.13-.95 4.32-1.61 1.19-.66 2.11-1.39 2.77-2.18.66-.79.99-1.6.99-2.42 0-.88-.25-1.83-.75-2.84-.5-1.01-1.22-2.2-2.16-3.57-.19.19-.52.47-.99.84-.47.38-1.02.74-1.64 1.08-.63.34-1.33.66-2.11.94-.78.28-1.61.42-2.49.42-3.57 0-5.35-2.18-5.35-6.54v-20.01h13.14v-9.57h-13.14v-6.57c0-1.56-.25-2.83-.75-3.8-.5-.97-1.16-1.74-1.97-2.3-.81-.56-1.72-.94-2.72-1.13-1-.19-2-.28-3-.28-.5 0-1 .02-1.5.05-.5.03-.97.08-1.41.14-.5.06-.97.13-1.41.19v43.54c0 1.38.06 2.75.19 4.13.12 1.38.41 2.69.84 3.94.87 2.45 2.39 4.42 4.55 5.92m44.15-10.55c-1.88-2.28-2.95-5.14-3.2-8.59h27.68c.06-.31.11-.73.14-1.27l.09-1.64c.03-.56.05-1.09.05-1.6v-1.31c0-2.63-.34-5.13-1.03-7.51s-1.8-4.49-3.33-6.33c-1.53-1.84-3.52-3.31-5.96-4.41-2.44-1.09-5.41-1.64-8.91-1.64-2.69 0-5.32.44-7.88 1.31-2.57.88-4.86 2.25-6.9 4.13-2.03 1.88-3.66 4.24-4.88 7.08-1.22 2.85-1.83 6.24-1.83 10.18 0 4.82.69 8.81 2.06 11.96 1.38 3.16 3.17 5.68 5.4 7.55 2.22 1.88 4.75 3.19 7.6 3.94 2.85.75 5.74 1.13 8.68 1.13 3.25 0 6.08-.36 8.49-1.08 2.41-.72 4.27-1.58 5.58-2.58 1.56-1.13 2.35-2.38 2.35-3.75 0-.94-.41-2.14-1.22-3.61-.82-1.47-1.6-2.67-2.35-3.61-.57.5-1.19 1.05-1.88 1.64-.69.6-1.51 1.14-2.45 1.64-.94.5-2.01.92-3.2 1.27-1.19.34-2.57.52-4.14.52-4.09 0-7.08-1.14-8.96-3.42m-3.29-15.63c0-3.19.77-5.68 2.31-7.46 1.54-1.78 3.6-2.67 6.18-2.67 3.02 0 5.11.94 6.28 2.81 1.16 1.88 1.75 4.32 1.75 7.32zm50.2-10.32c0-1.56-.25-2.83-.75-3.8-.5-.97-1.16-1.72-1.97-2.25s-1.72-.89-2.72-1.08c-1-.19-2-.28-3-.28s-1.97.05-2.91.14-1.41.17-1.41.23v37.53c0 1.56.2 2.85.61 3.85s.97 1.8 1.69 2.39c.72.6 1.58 1 2.58 1.22 1 .22 2.13.33 3.38.33 1 0 1.94-.03 2.81-.09.88-.06 1.44-.16 1.69-.28zm-1.93-26.97c-1.35-1.28-2.96-1.92-4.83-1.92-1.94 0-3.57.64-4.88 1.92-1.31 1.28-1.97 2.92-1.97 4.93 0 2 .66 3.63 1.97 4.88s2.94 1.88 4.88 1.88c1.88 0 3.49-.62 4.83-1.88 1.34-1.25 2.02-2.88 2.02-4.88 0-2.01-.67-3.65-2.02-4.93m26.7 33.92c0-1.44.83-2.64 2.5-3.61 1.67-.97 3.67-1.45 6-1.45 1.64 0 2.91.23 3.82.7.91.47 1.57 1.13 1.98 1.97.41.84.66 1.86.75 3.05.09 1.19.14 2.47.14 3.85v25.9h12.76v-26.46c0-1.63-.05-3.28-.14-4.97-.09-1.69-.3-3.25-.61-4.69-.63-2.88-2.01-5.19-4.14-6.94s-5.43-2.63-9.88-2.63c-3.7 0-6.67.61-8.9 1.83-2.23 1.22-3.88 2.55-4.94 3.99-.37-1.81-1.29-3.08-2.75-3.8-1.46-.72-3.18-1.08-5.17-1.08-.68 0-1.27.02-1.77.05-.5.03-.93.08-1.3.14-.43.06-.81.13-1.12.19v44.38h12.76v-30.42zm74.31-25.5c0-1.57-.26-2.83-.79-3.77s-1.2-1.68-2-2.21c-.81-.53-1.69-.89-2.66-1.08-.96-.19-1.91-.28-2.84-.28-.44 0-.89.03-1.35.09-.47.06-.95.13-1.44.19-.56.06-1.12.13-1.68.19v62.77h12.76v-27.21h23.74v27.21h12.76v-55.92c0-1.56-.26-2.81-.79-3.75s-1.2-1.67-2-2.21c-.81-.53-1.69-.89-2.66-1.08-.96-.19-1.85-.28-2.65-.28-.5 0-1.01.03-1.54.09s-1.04.13-1.54.19c-.56.06-1.09.13-1.58.19v25.52h-23.74zm63.05 55.9h12.95v-52.36h11.82c1.44 0 2.64-.19 3.61-.56.97-.38 1.77-.86 2.39-1.45.62-.59 1.06-1.28 1.31-2.06s.38-1.58.38-2.39c0-1.38-.09-2.72-.28-4.03h-44.1c-2.88 0-4.93.7-6.15 2.11-1.22 1.41-1.83 2.96-1.83 4.64 0 .69.01 1.28.05 1.78.03.5.11 1.13.23 1.88v.09h19.61v52.35zm53.48 0h12.95v-52.36h11.82c1.44 0 2.64-.19 3.61-.56.97-.38 1.77-.86 2.39-1.45.62-.59 1.06-1.28 1.31-2.06s.38-1.58.38-2.39c0-1.38-.09-2.72-.28-4.03h-44.1c-2.88 0-4.93.7-6.15 2.11-1.22 1.41-1.83 2.96-1.83 4.64 0 .69.01 1.28.05 1.78.03.5.11 1.13.23 1.88v.09h19.61v52.35zm51.8-55.93c0-1.56-.28-2.83-.84-3.8-.56-.97-1.26-1.7-2.1-2.2-.84-.5-1.74-.84-2.7-1.03-.96-.19-1.88-.28-2.75-.28-.44 0-.89.03-1.35.09-.47.06-.95.13-1.44.19-.56.06-1.09.13-1.58.19v62.77h12.76z" style="fill:#222"/></svg>