<svg width="80" height="81" viewBox="0 0 80 81" fill="none" xmlns="http://www.w3.org/2000/svg">
<mask id="mask0_16455_55085" style="mask-type:luminance" maskUnits="userSpaceOnUse" x="1" y="24" width="35" height="34">
<path d="M35.36 24.4454H1.94995V57.8554H35.36V24.4454Z" fill="white"/>
</mask>
<g mask="url(#mask0_16455_55085)">
<path d="M6.88007 52.9254C10.4701 56.5054 14.9401 57.8454 18.7501 57.8454C23.3901 57.8454 28.0701 55.9654 30.9701 52.6354C33.8701 49.2954 35.3601 45.0854 35.3601 39.1354V24.4454H20.6701C14.6101 24.4454 10.7401 26.2954 8.68007 27.6754C6.55007 29.1054 2.77007 32.9254 2.06007 39.1554C1.50007 44.0554 3.11007 49.1654 6.88007 52.9254Z" fill="#00A688"/>
</g>
<path d="M9.8199 39.1555C9.5699 38.7655 9.4399 38.2155 9.4399 37.5155C9.4399 36.8155 9.5699 36.2855 9.8199 35.9055C10.0699 35.5355 10.4499 35.3455 10.9399 35.3455C11.4099 35.3455 11.7599 35.5355 12.0099 35.9055C12.2599 36.2755 12.3799 36.8155 12.3799 37.5155C12.3799 38.2255 12.2499 38.7655 11.9999 39.1555C11.7499 39.5455 11.3899 39.7455 10.9099 39.7455C10.4299 39.7455 10.0799 39.5555 9.8199 39.1555ZM12.9299 39.8855C13.4099 39.3155 13.6499 38.5155 13.6499 37.5055C13.6499 36.5055 13.4199 35.7255 12.9499 35.1755C12.4799 34.6255 11.8099 34.3455 10.9499 34.3455C10.3799 34.3455 9.8899 34.4655 9.4699 34.7155C9.0499 34.9655 8.7299 35.3355 8.4999 35.8155C8.2699 36.2955 8.1499 36.8655 8.1499 37.5155C8.1499 38.1655 8.2499 38.7355 8.4599 39.2255C8.6699 39.7155 8.9799 40.0855 9.3799 40.3455C9.7899 40.6055 10.2799 40.7355 10.8699 40.7355C11.7699 40.7455 12.4499 40.4555 12.9299 39.8855Z" fill="white"/>
<path d="M18.68 40.4354C18.68 40.3854 18.68 40.3354 18.68 40.2654C18.68 40.0554 18.61 39.8954 18.48 39.7854C18.35 39.6754 18.16 39.6154 17.92 39.6154H15.98V37.9254H17.91V36.9454H15.98V35.4354H17.77C18.05 35.4354 18.25 35.3854 18.36 35.2854C18.48 35.1854 18.54 35.0254 18.54 34.7954C18.54 34.6654 18.53 34.5454 18.51 34.4554H14.72V40.5854H18.65C18.67 40.5354 18.68 40.4854 18.68 40.4354Z" fill="white"/>
<path d="M20.8001 37.4854C20.8201 37.7954 20.9701 38.1254 21.2401 38.4854L22.5801 40.2254C22.8201 40.5454 23.1501 40.7054 23.5501 40.7054C23.7901 40.7054 24.0301 40.6354 24.2701 40.4954L22.0101 37.4154L24.0201 34.7154C23.9301 34.6254 23.8301 34.5654 23.7001 34.5154C23.5701 34.4654 23.4301 34.4454 23.2901 34.4454C23.1201 34.4454 22.9701 34.4854 22.8301 34.5654C22.6901 34.6454 22.5601 34.7654 22.4301 34.9354L21.1901 36.5854C21.0701 36.7454 20.9801 36.8854 20.9201 37.0154C20.8601 37.1354 20.8301 37.2654 20.8201 37.3954V35.1654C20.8201 34.6854 20.5501 34.4554 20.0101 34.4554C19.9101 34.4554 19.7701 34.4654 19.5701 34.4954V40.6154H20.8101V37.4854H20.8001Z" fill="white"/>
<path d="M28.2599 39.1655C28.0099 39.5555 27.6499 39.7555 27.1699 39.7555C26.6999 39.7555 26.3299 39.5555 26.0799 39.1655C25.8299 38.7755 25.6999 38.2255 25.6999 37.5255C25.6999 36.8355 25.8299 36.2955 26.0799 35.9255C26.3299 35.5555 26.7099 35.3655 27.1999 35.3655C27.6699 35.3655 28.0199 35.5555 28.2699 35.9255C28.5199 36.2955 28.6399 36.8355 28.6399 37.5255C28.6399 38.2255 28.5099 38.7755 28.2599 39.1655ZM29.2099 35.1755C28.7399 34.6255 28.0699 34.3455 27.2099 34.3455C26.6399 34.3455 26.1499 34.4655 25.7299 34.7155C25.3099 34.9655 24.9899 35.3355 24.7599 35.8155C24.5299 36.3055 24.4099 36.8655 24.4099 37.5155C24.4099 38.1655 24.5099 38.7355 24.7199 39.2255C24.9299 39.7155 25.2399 40.0855 25.6399 40.3455C26.0499 40.6055 26.5399 40.7355 27.1299 40.7355C28.0199 40.7355 28.7099 40.4455 29.1899 39.8755C29.6699 39.3055 29.9099 38.5055 29.9099 37.4955C29.9199 36.5055 29.6799 35.7355 29.2099 35.1755Z" fill="white"/>
<path d="M27.74 45.5154C27.09 45.5154 26.5599 44.9854 26.5599 44.3254C26.5599 43.6654 27.09 43.1354 27.74 43.1354C28.39 43.1354 28.92 43.6654 28.92 44.3254C28.92 44.9754 28.39 45.5154 27.74 45.5154ZM27.74 42.7754C26.89 42.7754 26.2 43.4654 26.2 44.3254C26.2 45.1754 26.89 45.8754 27.74 45.8754C28.59 45.8754 29.28 45.1854 29.28 44.3254C29.28 43.4754 28.59 42.7754 27.74 42.7754Z" fill="white"/>
<path d="M27.9 44.2054C27.85 44.2454 27.78 44.2754 27.69 44.2754H27.58V43.7454C27.59 43.7454 27.61 43.7454 27.63 43.7454C27.65 43.7454 27.67 43.7454 27.7 43.7454C27.79 43.7454 27.85 43.7654 27.9 43.8054C27.95 43.8454 27.97 43.9054 27.97 44.0054C27.98 44.0854 27.95 44.1554 27.9 44.2054ZM28.12 44.3554C28.15 44.3254 28.19 44.3054 28.21 44.2654C28.24 44.2254 28.26 44.1854 28.27 44.1354C28.28 44.0854 28.29 44.0354 28.29 43.9654C28.29 43.8154 28.24 43.7054 28.14 43.6254C28.04 43.5554 27.88 43.5154 27.66 43.5154C27.6 43.5154 27.54 43.5154 27.47 43.5154C27.4 43.5254 27.33 43.5254 27.26 43.5354V45.0454H27.57V44.4754H27.69L27.95 44.9154C27.98 44.9654 28.02 45.0054 28.05 45.0354C28.09 45.0654 28.13 45.0754 28.19 45.0754C28.22 45.0754 28.25 45.0754 28.28 45.0654C28.31 45.0554 28.34 45.0454 28.37 45.0354L28 44.4054C28.05 44.3954 28.09 44.3754 28.12 44.3554Z" fill="white"/>
<path d="M11.24 42.8154C11 42.8154 10.82 42.8754 10.68 42.9954C10.54 43.1154 10.47 43.2754 10.47 43.4754C10.47 43.6054 10.48 43.7354 10.5 43.8454H12.4V48.9454H13.65V43.8454H14.8C15.04 43.8454 15.22 43.7854 15.35 43.6754C15.48 43.5654 15.55 43.4054 15.55 43.2154C15.55 43.0854 15.54 42.9454 15.52 42.8254H11.24V42.8154Z" fill="white"/>
<path d="M19.46 47.9754H17.52V46.2854H19.45V45.3054H17.52V43.7954H19.31C19.59 43.7954 19.79 43.7454 19.91 43.6454C20.03 43.5454 20.09 43.3854 20.09 43.1554C20.09 43.0254 20.08 42.9054 20.06 42.8154H16.27V48.9454H20.2C20.21 48.8854 20.21 48.8354 20.21 48.7954C20.21 48.7454 20.21 48.6954 20.21 48.6254C20.21 48.4154 20.14 48.2554 20.01 48.1454C19.89 48.0254 19.71 47.9754 19.46 47.9754Z" fill="white"/>
<path d="M25.77 42.9654C25.54 42.8454 25.32 42.7854 25.11 42.7854C24.92 42.7854 24.76 42.8254 24.63 42.9054C24.51 42.9854 24.38 43.1254 24.26 43.3354L23.36 44.8854L22.48 43.2354C22.33 42.9354 22.09 42.7854 21.75 42.7854C21.53 42.7854 21.26 42.8554 20.96 42.9854L22.56 45.8954L20.76 48.9454H22.12L23.28 46.9254L24.21 48.4854C24.33 48.6954 24.46 48.8354 24.6 48.9254C24.74 49.0054 24.91 49.0454 25.12 49.0454C25.34 49.0454 25.58 48.9954 25.84 48.9054L24.07 45.8454L25.77 42.9654Z" fill="white"/>
<path d="M40.99 32.5155C41.2 32.6755 41.4 32.7955 41.58 32.8655C41.76 32.9355 41.95 32.9755 42.15 32.9755C42.39 32.9755 42.58 32.9255 42.72 32.8155C42.86 32.7055 42.93 32.5455 42.93 32.3555C42.93 32.1955 42.88 32.0655 42.8 31.9655C42.72 31.8655 42.61 31.7855 42.47 31.7255C42.33 31.6655 42.18 31.6055 42.02 31.5555C41.87 31.5055 41.72 31.4555 41.57 31.3955C41.42 31.3355 41.28 31.2555 41.16 31.1555C41.04 31.0555 40.94 30.9355 40.86 30.7755C40.78 30.6255 40.74 30.4355 40.74 30.2055C40.74 29.9255 40.81 29.6755 40.96 29.4755C41.1 29.2755 41.3 29.1155 41.56 29.0055C41.81 28.8955 42.1 28.8455 42.41 28.8455C42.65 28.8455 42.89 28.8755 43.12 28.9355C43.35 28.9955 43.52 29.0755 43.63 29.1555C43.76 29.2255 43.83 29.3355 43.83 29.4655C43.83 29.5255 43.8 29.6055 43.75 29.6955C43.7 29.7955 43.63 29.8855 43.55 29.9755C43.41 29.8555 43.24 29.7655 43.05 29.6955C42.86 29.6255 42.68 29.5855 42.51 29.5855C42.28 29.5855 42.1 29.6255 41.97 29.7255C41.83 29.8155 41.77 29.9455 41.77 30.1255C41.77 30.2155 41.79 30.3055 41.84 30.3755C41.88 30.4455 41.96 30.5155 42.06 30.5855C42.16 30.6555 42.35 30.7355 42.63 30.8355C42.78 30.8955 42.93 30.9555 43.08 31.0155C43.23 31.0755 43.37 31.1655 43.5 31.2655C43.63 31.3655 43.73 31.4955 43.81 31.6455C43.89 31.7955 43.93 31.9855 43.93 32.2155C43.93 32.6955 43.77 33.0655 43.46 33.3355C43.15 33.6055 42.72 33.7355 42.18 33.7355C41.93 33.7355 41.69 33.7055 41.47 33.6555C41.25 33.6055 41.06 33.5355 40.91 33.4455C40.78 33.3555 40.71 33.2555 40.71 33.1355C40.69 32.9855 40.79 32.7755 40.99 32.5155Z" fill="#242422"/>
<path d="M46.1199 29.6954H44.6599C44.6499 29.6154 44.6399 29.5154 44.6399 29.4154C44.6399 29.2654 44.6899 29.1354 44.7999 29.0454C44.9099 28.9554 45.0499 28.9054 45.2299 28.9054H48.5099C48.5199 29.0054 48.5299 29.1054 48.5299 29.2054C48.5299 29.3554 48.4799 29.4754 48.3799 29.5554C48.2799 29.6454 48.1399 29.6854 47.9599 29.6854H47.0799V33.5854H46.1199V29.6954Z" fill="#242422"/>
<path d="M50.86 29.7554L50.22 31.7454H51.47L50.86 29.7554ZM52.06 33.5954L51.66 32.4454H50.05L49.67 33.5954H48.72L50.34 28.9854C50.49 28.9254 50.68 28.8854 50.9 28.8854C51.24 28.8854 51.46 29.0254 51.56 29.3154L53.06 33.5954H52.06Z" fill="#242422"/>
<path d="M57.93 33.5954H57.12L55.13 30.5254V33.5954H54.21V28.9254C54.33 28.8954 54.47 28.8854 54.64 28.8854C54.78 28.8854 54.89 28.9054 54.97 28.9554C55.06 28.9954 55.14 29.0854 55.21 29.2054L57.01 32.1454V28.9254C57.15 28.9054 57.25 28.8854 57.32 28.8854C57.72 28.8854 57.92 29.0654 57.92 29.4254V33.5954H57.93Z" fill="#242422"/>
<path d="M62.3999 31.1855C62.3999 30.6555 62.2899 30.2555 62.0599 30.0055C61.8399 29.7455 61.4999 29.6155 61.0399 29.6155C60.9099 29.6155 60.7699 29.6255 60.6199 29.6355V32.8555H60.9999C61.4799 32.8555 61.8299 32.7255 62.0599 32.4555C62.2899 32.1955 62.3999 31.7655 62.3999 31.1855ZM63.3799 31.1755C63.3799 31.6655 63.2899 32.0955 63.1099 32.4655C62.9299 32.8355 62.6699 33.1155 62.3399 33.3055C61.9999 33.4955 61.5999 33.5955 61.1499 33.5955H59.6599V28.9555C60.0899 28.8955 60.5299 28.8755 60.9699 28.8755C61.7699 28.8755 62.3699 29.0655 62.7699 29.4555C63.1699 29.8355 63.3799 30.4055 63.3799 31.1755Z" fill="#242422"/>
<path d="M66.3099 29.7554L65.6699 31.7454H66.9199L66.3099 29.7554ZM67.4999 33.5954L67.0999 32.4454H65.4899L65.1099 33.5954H64.1599L65.7799 28.9854C65.9299 28.9254 66.1199 28.8854 66.3399 28.8854C66.6799 28.8854 66.8999 29.0254 66.9999 29.3154L68.4999 33.5954H67.4999Z" fill="#242422"/>
<path d="M71.7999 30.3455C71.7999 30.0755 71.7299 29.8755 71.5899 29.7455C71.4499 29.6155 71.2299 29.5455 70.9399 29.5455C70.8599 29.5455 70.7799 29.5455 70.7199 29.5555C70.6599 29.5655 70.6099 29.5655 70.5699 29.5655V31.1755H70.8999C71.1899 31.1755 71.4099 31.1055 71.5699 30.9555C71.7199 30.8155 71.7999 30.6155 71.7999 30.3455ZM72.8099 30.2555C72.8099 30.5855 72.7299 30.8655 72.5799 31.1055C72.4199 31.3455 72.2099 31.5155 71.9299 31.6155L73.0799 33.5455C72.8999 33.6255 72.7099 33.6655 72.5199 33.6655C72.3499 33.6655 72.1999 33.6255 72.0899 33.5555C71.9699 33.4855 71.8699 33.3555 71.7699 33.1955L70.9699 31.8355H70.5899V33.5955H69.6299V28.9455C70.0299 28.8955 70.4399 28.8755 70.8699 28.8755C71.5399 28.8755 72.0299 28.9855 72.3499 29.2155C72.6499 29.4355 72.8099 29.7855 72.8099 30.2555Z" fill="#242422"/>
<path d="M77.0698 31.1855C77.0698 30.6555 76.9599 30.2555 76.7299 30.0055C76.5099 29.7455 76.1698 29.6155 75.7098 29.6155C75.5798 29.6155 75.4398 29.6255 75.2898 29.6355V32.8555H75.6698C76.1498 32.8555 76.4999 32.7255 76.7299 32.4555C76.9599 32.1955 77.0698 31.7655 77.0698 31.1855ZM78.0499 31.1755C78.0499 31.6655 77.9598 32.0955 77.7798 32.4655C77.5998 32.8355 77.3398 33.1155 77.0098 33.3055C76.6798 33.4955 76.2798 33.5955 75.8298 33.5955H74.3398V28.9555C74.7698 28.8955 75.2098 28.8755 75.6498 28.8755C76.4498 28.8755 77.0498 29.0655 77.4498 29.4555C77.8498 29.8355 78.0499 30.4055 78.0499 31.1755Z" fill="#242422"/>
<path d="M54.97 40.6055V37.0755L54.06 37.5355C53.87 37.2855 53.77 37.0955 53.77 36.9655C53.77 36.8355 53.84 36.7255 53.99 36.6555L54.98 36.1355C55.07 36.0855 55.16 36.0455 55.25 36.0155C55.34 35.9755 55.43 35.9655 55.52 35.9655C55.66 35.9655 55.8 36.0055 55.91 36.0755V40.6155H54.97V40.6055Z" fill="#242422"/>
<path d="M59.9399 38.3154C59.9399 37.7554 59.8799 37.3354 59.7499 37.0654C59.6299 36.7954 59.4299 36.6554 59.1699 36.6554C58.8999 36.6554 58.6999 36.7854 58.5799 37.0654C58.4599 37.3354 58.3899 37.7554 58.3899 38.3154C58.3899 38.8654 58.4499 39.2854 58.5799 39.5554C58.7099 39.8254 58.8999 39.9654 59.1699 39.9654C59.4399 39.9654 59.6299 39.8354 59.7499 39.5654C59.8799 39.2954 59.9399 38.8854 59.9399 38.3154ZM60.8799 38.3154C60.8799 39.1054 60.7399 39.7054 60.4499 40.1054C60.1599 40.5054 59.7299 40.7054 59.1599 40.7054C58.5799 40.7054 58.1399 40.5054 57.8599 40.1154C57.5699 39.7154 57.4299 39.1254 57.4299 38.3154C57.4299 37.5454 57.5799 36.9554 57.8799 36.5354C58.1799 36.1154 58.6199 35.9054 59.1899 35.9054C59.7599 35.9054 60.1799 36.1054 60.4599 36.4954C60.7399 36.9054 60.8799 37.5054 60.8799 38.3154Z" fill="#242422"/>
<path d="M64.6099 38.3154C64.6099 37.7554 64.5499 37.3354 64.4199 37.0654C64.2999 36.7954 64.0999 36.6554 63.8399 36.6554C63.5699 36.6554 63.3699 36.7854 63.2499 37.0654C63.1299 37.3354 63.0599 37.7554 63.0599 38.3154C63.0599 38.8654 63.1199 39.2854 63.2499 39.5554C63.3799 39.8254 63.5699 39.9654 63.8399 39.9654C64.1099 39.9654 64.2999 39.8354 64.4199 39.5654C64.5499 39.2954 64.6099 38.8854 64.6099 38.3154ZM65.5599 38.3154C65.5599 39.1054 65.4199 39.7054 65.1299 40.1054C64.8399 40.5054 64.4099 40.7054 63.8399 40.7054C63.2599 40.7054 62.8199 40.5054 62.5399 40.1154C62.2499 39.7154 62.1099 39.1254 62.1099 38.3154C62.1099 37.5454 62.2599 36.9554 62.5599 36.5354C62.8599 36.1154 63.2999 35.9054 63.8699 35.9054C64.4399 35.9054 64.8599 36.1054 65.1399 36.4954C65.4199 36.9054 65.5599 37.5054 65.5599 38.3154Z" fill="#242422"/>
<path d="M48.7399 50.2054V46.9354C48.7099 46.9154 48.6799 46.9054 48.6299 46.8854C48.5799 46.8654 48.5299 46.8554 48.4599 46.8554C48.3899 46.8554 48.3299 46.8654 48.2599 46.8954C48.1999 46.9254 48.1299 46.9454 48.0599 46.9854L47.3399 47.3554C47.2799 47.3854 47.2399 47.4254 47.2199 47.4654C47.1899 47.5054 47.1799 47.5454 47.1799 47.5854C47.1799 47.6454 47.1999 47.7154 47.2499 47.7954C47.2999 47.8654 47.3399 47.9354 47.3899 48.0054L48.0499 47.6754V50.2254H48.7399V50.2054ZM51.0799 49.4054V50.2054H51.7699V49.4054H52.1599C52.1599 49.3754 52.1699 49.3454 52.1699 49.3154C52.1699 49.2854 52.1799 49.2654 52.1799 49.2354C52.1799 49.2054 52.1899 49.1754 52.1899 49.1454C52.1899 49.0754 52.1699 49.0154 52.1299 48.9654C52.0899 48.9254 52.0199 48.8954 51.9299 48.8954H51.7699V46.9254C51.7399 46.9054 51.6999 46.8854 51.6399 46.8754C51.5799 46.8554 51.5299 46.8554 51.4899 46.8554C51.3599 46.8554 51.2599 46.8854 51.1799 46.9554C51.0999 47.0254 51.0399 47.0954 50.9899 47.1654L49.7099 48.9354V49.3954H51.0799V49.4054ZM50.2499 48.8854L51.0799 47.7654V48.8854H50.2499ZM53.1799 49.6354C53.1099 49.5654 53.0199 49.5354 52.9099 49.5354C52.7999 49.5354 52.7099 49.5654 52.6399 49.6354C52.5699 49.7054 52.5299 49.7954 52.5299 49.8954C52.5299 50.0054 52.5599 50.0954 52.6299 50.1654C52.6999 50.2354 52.7899 50.2754 52.8999 50.2754C53.0099 50.2754 53.0999 50.2354 53.1699 50.1654C53.2399 50.0954 53.2699 50.0054 53.2699 49.8954C53.2799 49.7954 53.2499 49.7054 53.1799 49.6354ZM56.0999 47.8254C56.0499 47.6054 55.9799 47.4254 55.8899 47.2854C55.7899 47.1354 55.6699 47.0254 55.5099 46.9454C55.3599 46.8654 55.1699 46.8254 54.9499 46.8254C54.7399 46.8254 54.5499 46.8654 54.3899 46.9454C54.2299 47.0254 54.0999 47.1454 53.9899 47.2954C53.8799 47.4454 53.7999 47.6254 53.7499 47.8454C53.6999 48.0554 53.6699 48.2954 53.6699 48.5654C53.6699 49.1354 53.7699 49.5654 53.9799 49.8554C54.1899 50.1454 54.4999 50.2854 54.9199 50.2854C55.3399 50.2854 55.6599 50.1354 55.8599 49.8354C56.0599 49.5354 56.1599 49.1154 56.1599 48.5554C56.1599 48.2854 56.1399 48.0354 56.0999 47.8254ZM55.4399 49.1154C55.4099 49.2654 55.3799 49.3854 55.3299 49.4854C55.2799 49.5754 55.2199 49.6454 55.1599 49.6854C55.0899 49.7254 55.0099 49.7454 54.9199 49.7454C54.8299 49.7454 54.7499 49.7254 54.6799 49.6854C54.6099 49.6454 54.5499 49.5754 54.4999 49.4854C54.4499 49.3954 54.4099 49.2754 54.3899 49.1154C54.3599 48.9654 54.3499 48.7754 54.3499 48.5654C54.3499 48.3454 54.3599 48.1554 54.3899 48.0054C54.4199 47.8554 54.4499 47.7254 54.4999 47.6354C54.5499 47.5454 54.6099 47.4754 54.6799 47.4354C54.7499 47.3954 54.8299 47.3754 54.9199 47.3754C55.0099 47.3754 55.0899 47.3954 55.1599 47.4354C55.2299 47.4754 55.2899 47.5454 55.3299 47.6354C55.3799 47.7254 55.4099 47.8554 55.4399 48.0054C55.4699 48.1554 55.4799 48.3454 55.4799 48.5654C55.4799 48.7754 55.4699 48.9654 55.4399 49.1154ZM57.1899 49.6354C57.1199 49.5654 57.0299 49.5354 56.9199 49.5354C56.8099 49.5354 56.7199 49.5654 56.6499 49.6354C56.5799 49.7054 56.5399 49.7954 56.5399 49.8954C56.5399 50.0054 56.5699 50.0954 56.6399 50.1654C56.7099 50.2354 56.7999 50.2754 56.9099 50.2754C57.0199 50.2754 57.1099 50.2354 57.1799 50.1654C57.2499 50.0954 57.2799 50.0054 57.2799 49.8954C57.2999 49.7954 57.2599 49.7054 57.1899 49.6354ZM59.1199 49.4054V50.2054H59.8099V49.4054H60.1999C60.1999 49.3754 60.2099 49.3454 60.2099 49.3154C60.2099 49.2854 60.2199 49.2654 60.2199 49.2354C60.2199 49.2054 60.2299 49.1754 60.2299 49.1454C60.2299 49.0754 60.2099 49.0154 60.1699 48.9654C60.1299 48.9254 60.0599 48.8954 59.9699 48.8954H59.7999V46.9254C59.7699 46.9054 59.7299 46.8854 59.6699 46.8754C59.6099 46.8554 59.5599 46.8554 59.5199 46.8554C59.3899 46.8554 59.2899 46.8854 59.2099 46.9554C59.1299 47.0254 59.0699 47.0954 59.0199 47.1654L57.7399 48.9354V49.3954H59.1199V49.4054ZM58.2899 48.8854L59.1199 47.7654V48.8854H58.2899ZM60.5599 48.4654C60.5999 48.5954 60.6599 48.7154 60.7399 48.8154C60.8199 48.9154 60.9199 48.9954 61.0399 49.0554C61.1599 49.1154 61.3099 49.1454 61.4699 49.1454C61.6099 49.1454 61.7399 49.1254 61.8499 49.0854C61.9599 49.0454 62.0399 48.9954 62.0999 48.9354C62.0799 49.0254 62.0499 49.1154 62.0099 49.2154C61.9599 49.3054 61.8999 49.3954 61.8199 49.4754C61.7399 49.5554 61.6399 49.6154 61.5099 49.6654C61.3899 49.7154 61.2399 49.7454 61.0599 49.7454C60.9899 49.7454 60.9199 49.7354 60.8399 49.7254C60.8299 49.7654 60.8299 49.8054 60.8199 49.8554C60.8099 49.9054 60.8099 49.9454 60.8099 49.9854C60.8099 50.0454 60.8199 50.0954 60.8399 50.1254C60.8599 50.1654 60.8899 50.1954 60.9299 50.2154C60.9699 50.2354 61.0099 50.2554 61.0499 50.2654C61.0999 50.2754 61.1499 50.2754 61.1999 50.2754C61.4099 50.2754 61.6199 50.2354 61.8199 50.1554C62.0199 50.0754 62.1999 49.9554 62.3499 49.7854C62.4999 49.6254 62.6299 49.4154 62.7199 49.1654C62.8099 48.9154 62.8599 48.6154 62.8599 48.2754C62.8599 48.0554 62.8299 47.8554 62.7799 47.6754C62.7299 47.4954 62.6499 47.3354 62.5499 47.2154C62.4499 47.0854 62.3199 46.9954 62.1699 46.9254C62.0199 46.8554 61.8399 46.8254 61.6399 46.8254C61.4799 46.8254 61.3199 46.8554 61.1799 46.9054C61.0399 46.9554 60.9199 47.0354 60.8099 47.1354C60.7099 47.2354 60.6299 47.3654 60.5699 47.5254C60.5099 47.6754 60.4799 47.8554 60.4799 48.0554C60.4999 48.1954 60.5199 48.3354 60.5599 48.4654ZM61.3199 47.5354C61.3999 47.4154 61.5099 47.3654 61.6499 47.3654C61.7599 47.3654 61.8399 47.3954 61.9099 47.4454C61.9799 47.4954 62.0299 47.5654 62.0699 47.6454C62.1099 47.7254 62.1299 47.8154 62.1499 47.9154C62.1599 48.0154 62.1699 48.1054 62.1699 48.1954C62.1699 48.2554 62.1699 48.3054 62.1599 48.3654C62.1599 48.4154 62.1499 48.4654 62.1399 48.5054C62.0999 48.5454 62.0499 48.5754 61.9699 48.6154C61.8899 48.6554 61.7899 48.6754 61.6799 48.6754C61.5099 48.6754 61.3899 48.6154 61.3099 48.5054C61.2399 48.3954 61.1999 48.2354 61.1999 48.0354C61.1999 47.8154 61.2399 47.6554 61.3199 47.5354ZM65.5899 48.6254C65.5499 48.4954 65.4999 48.3754 65.4199 48.2754C65.3399 48.1754 65.2499 48.0954 65.1299 48.0354C65.0099 47.9754 64.8699 47.9454 64.6999 47.9454C64.5499 47.9454 64.4099 47.9654 64.2899 48.0154C64.1699 48.0654 64.0899 48.1154 64.0299 48.1554C64.0499 48.0754 64.0899 47.9854 64.1499 47.8854C64.2099 47.7854 64.2699 47.7054 64.3599 47.6254C64.4399 47.5454 64.5399 47.4754 64.6499 47.4254C64.7599 47.3754 64.8999 47.3454 65.0399 47.3454C65.0999 47.3454 65.1399 47.3454 65.1799 47.3554C65.2199 47.3554 65.2599 47.3654 65.2999 47.3754C65.3099 47.3354 65.3099 47.2954 65.3199 47.2554C65.3199 47.2154 65.3299 47.1754 65.3299 47.1354C65.3299 47.0154 65.2999 46.9254 65.2299 46.8954C65.1599 46.8554 65.0699 46.8354 64.9399 46.8354C64.7399 46.8354 64.5399 46.8754 64.3399 46.9554C64.1399 47.0354 63.9599 47.1554 63.8099 47.3254C63.6499 47.4854 63.5299 47.6954 63.4299 47.9454C63.3299 48.1954 63.2799 48.4954 63.2799 48.8354C63.2799 49.0654 63.2999 49.2654 63.3499 49.4454C63.3999 49.6254 63.4699 49.7854 63.5699 49.9054C63.6699 50.0354 63.7899 50.1354 63.9499 50.1954C64.0999 50.2654 64.2799 50.2954 64.4799 50.2954C64.6399 50.2954 64.7999 50.2654 64.9399 50.2154C65.0799 50.1654 65.1999 50.0854 65.3099 49.9754C65.4099 49.8654 65.4999 49.7354 65.5599 49.5854C65.6199 49.4354 65.6499 49.2554 65.6499 49.0454C65.6499 48.8954 65.6299 48.7554 65.5899 48.6254ZM64.8199 49.5754C64.7399 49.6854 64.6299 49.7454 64.4899 49.7454C64.3799 49.7454 64.2899 49.7154 64.2199 49.6654C64.1499 49.6154 64.0999 49.5454 64.0599 49.4654C64.0199 49.3854 63.9999 49.2954 63.9899 49.1954C63.9799 49.0954 63.9699 49.0054 63.9699 48.9154C63.9699 48.8554 63.9699 48.8054 63.9799 48.7554C63.9799 48.7054 63.9899 48.6654 63.9999 48.6254C64.0199 48.6054 64.0499 48.5854 64.0799 48.5654C64.1099 48.5454 64.1499 48.5254 64.1999 48.5054C64.2399 48.4854 64.2899 48.4754 64.3399 48.4554C64.3899 48.4454 64.4399 48.4354 64.4899 48.4354C64.6599 48.4354 64.7799 48.4954 64.8499 48.6054C64.9199 48.7154 64.9499 48.8754 64.9499 49.0754C64.9399 49.2954 64.8999 49.4654 64.8199 49.5754ZM68.4199 50.2054C68.4199 50.1754 68.4299 50.1454 68.4299 50.1254C68.4299 50.0954 68.4299 50.0654 68.4299 50.0354C68.4299 49.9954 68.4199 49.9454 68.4099 49.9054C68.3999 49.8654 68.3699 49.8254 68.3399 49.7954C68.3099 49.7654 68.2699 49.7354 68.2099 49.7154C68.1599 49.6954 68.0899 49.6854 68.0099 49.6854H67.0499C67.1299 49.6154 67.2099 49.5354 67.2999 49.4554C67.3899 49.3654 67.4799 49.2754 67.5799 49.1754C67.6699 49.0854 67.7599 48.9854 67.8399 48.8754C67.9199 48.7754 67.9999 48.6654 68.0599 48.5454C68.1299 48.4354 68.1799 48.3154 68.2199 48.1954C68.2599 48.0754 68.2799 47.9554 68.2799 47.8254C68.2799 47.6554 68.2499 47.4954 68.1899 47.3754C68.1299 47.2454 68.0599 47.1454 67.9599 47.0654C67.8599 46.9854 67.7499 46.9354 67.6099 46.8954C67.4799 46.8554 67.3299 46.8354 67.1799 46.8354C67.0499 46.8354 66.9299 46.8454 66.8199 46.8754C66.7099 46.9054 66.6199 46.9354 66.5299 46.9654C66.4499 47.0054 66.3799 47.0454 66.3199 47.0854C66.2599 47.1254 66.2099 47.1554 66.1799 47.1854C66.1499 47.2154 66.1199 47.2454 66.0899 47.2754C66.0699 47.3054 66.0499 47.3454 66.0499 47.3854C66.0499 47.4354 66.0699 47.4954 66.1199 47.5654C66.1699 47.6354 66.2199 47.7054 66.2899 47.7854C66.3899 47.6854 66.5099 47.6054 66.6399 47.5254C66.7699 47.4454 66.9199 47.4054 67.0899 47.4054C67.1499 47.4054 67.2099 47.4154 67.2699 47.4254C67.3299 47.4454 67.3799 47.4654 67.4199 47.5054C67.4699 47.5454 67.4999 47.5854 67.5299 47.6454C67.5599 47.7054 67.5699 47.7854 67.5699 47.8754C67.5699 48.0254 67.5299 48.1654 67.4499 48.3154C67.3699 48.4554 67.2699 48.6054 67.1299 48.7454C67.0399 48.8454 66.9499 48.9354 66.8599 49.0354C66.7599 49.1354 66.6699 49.2254 66.5799 49.3054C66.4899 49.3954 66.3999 49.4754 66.3199 49.5454C66.2399 49.6154 66.1599 49.6854 66.0999 49.7354V50.2154H68.4199V50.2054ZM68.8599 48.4654C68.8999 48.5954 68.9599 48.7154 69.0399 48.8154C69.1199 48.9154 69.2199 48.9954 69.3399 49.0554C69.4599 49.1154 69.6099 49.1454 69.7699 49.1454C69.9099 49.1454 70.0399 49.1254 70.1499 49.0854C70.2599 49.0454 70.3399 48.9954 70.3999 48.9354C70.3799 49.0254 70.3499 49.1154 70.3099 49.2154C70.2599 49.3054 70.1999 49.3954 70.1199 49.4754C70.0399 49.5554 69.9399 49.6154 69.8099 49.6654C69.6899 49.7154 69.5399 49.7454 69.3599 49.7454C69.2899 49.7454 69.2199 49.7354 69.1399 49.7254C69.1299 49.7654 69.1299 49.8054 69.1199 49.8554C69.1099 49.9054 69.1099 49.9454 69.1099 49.9854C69.1099 50.0454 69.1199 50.0954 69.1399 50.1254C69.1599 50.1654 69.1899 50.1954 69.2299 50.2154C69.2699 50.2354 69.3099 50.2554 69.3499 50.2654C69.3999 50.2754 69.4499 50.2754 69.4999 50.2754C69.7099 50.2754 69.9199 50.2354 70.1199 50.1554C70.3199 50.0754 70.4999 49.9554 70.6499 49.7854C70.7999 49.6254 70.9299 49.4154 71.0199 49.1654C71.1099 48.9154 71.1599 48.6154 71.1599 48.2754C71.1599 48.0554 71.1299 47.8554 71.0799 47.6754C71.0299 47.4954 70.9499 47.3354 70.8499 47.2154C70.7499 47.0854 70.6199 46.9954 70.4699 46.9254C70.3199 46.8554 70.1399 46.8254 69.9399 46.8254C69.7799 46.8254 69.6199 46.8554 69.4799 46.9054C69.3399 46.9554 69.2199 47.0354 69.1099 47.1354C69.0099 47.2354 68.9299 47.3654 68.8699 47.5254C68.8099 47.6754 68.7799 47.8554 68.7799 48.0554C68.7999 48.1954 68.8199 48.3354 68.8599 48.4654ZM69.6199 47.5354C69.6999 47.4154 69.8099 47.3654 69.9499 47.3654C70.0599 47.3654 70.1399 47.3954 70.2099 47.4454C70.2799 47.4954 70.3299 47.5654 70.3699 47.6454C70.4099 47.7254 70.4299 47.8154 70.4499 47.9154C70.4599 48.0154 70.4699 48.1054 70.4699 48.1954C70.4699 48.2554 70.4699 48.3054 70.4599 48.3654C70.4599 48.4154 70.4499 48.4654 70.4399 48.5054C70.3999 48.5454 70.3499 48.5754 70.2699 48.6154C70.1899 48.6554 70.0899 48.6754 69.9799 48.6754C69.8099 48.6754 69.6899 48.6154 69.6099 48.5054C69.5399 48.3954 69.4999 48.2354 69.4999 48.0354C69.4999 47.8154 69.5399 47.6554 69.6199 47.5354Z" fill="#222222"/>
<path d="M45.1999 52.9754C45.1999 52.9054 45.1899 52.8554 45.1699 52.8154C45.1499 52.7754 45.1199 52.7454 45.0799 52.7154C45.0499 52.6954 45.0099 52.6754 44.9699 52.6654C44.9299 52.6554 44.8899 52.6554 44.8499 52.6554C44.8299 52.6554 44.8099 52.6554 44.7899 52.6554C44.7699 52.6554 44.7499 52.6654 44.7299 52.6654C44.7099 52.6654 44.6799 52.6754 44.6599 52.6754V55.3754H45.2099V54.2054H46.2299V55.3754H46.7799V52.9754C46.7799 52.9054 46.7699 52.8554 46.7499 52.8154C46.7299 52.7754 46.6999 52.7454 46.6599 52.7254C46.6299 52.7054 46.5899 52.6854 46.5499 52.6754C46.5099 52.6654 46.4699 52.6654 46.4399 52.6654C46.4199 52.6654 46.3999 52.6654 46.3699 52.6654C46.3499 52.6654 46.3299 52.6754 46.2999 52.6754C46.2799 52.6754 46.2499 52.6854 46.2299 52.6854V53.7854H45.1999V52.9754ZM49.0599 54.0254C49.0299 53.9054 48.9699 53.7954 48.8999 53.7054C48.8299 53.6154 48.7299 53.5454 48.6099 53.4854C48.4899 53.4354 48.3499 53.4054 48.1799 53.4054C48.0199 53.4054 47.8799 53.4354 47.7599 53.4854C47.6399 53.5354 47.5399 53.6154 47.4599 53.7054C47.3799 53.7954 47.3199 53.9054 47.2799 54.0254C47.2399 54.1454 47.2199 54.2754 47.2199 54.4154C47.2199 54.5454 47.2399 54.6754 47.2699 54.8054C47.2999 54.9254 47.3599 55.0354 47.4299 55.1254C47.4999 55.2154 47.5999 55.2954 47.7199 55.3454C47.8399 55.4054 47.9799 55.4254 48.1599 55.4254C48.3299 55.4254 48.4799 55.3954 48.5999 55.3454C48.7199 55.2854 48.8199 55.2154 48.8999 55.1154C48.9799 55.0254 49.0299 54.9154 49.0599 54.7854C49.0899 54.6654 49.1099 54.5354 49.1099 54.3954C49.1099 54.2754 49.0899 54.1454 49.0599 54.0254ZM48.5399 54.6354C48.5299 54.7054 48.5099 54.7754 48.4799 54.8354C48.4499 54.8954 48.4099 54.9354 48.3599 54.9754C48.3099 55.0054 48.2399 55.0254 48.1599 55.0254C48.0799 55.0254 48.0199 55.0054 47.9599 54.9754C47.9099 54.9454 47.8699 54.8954 47.8399 54.8354C47.8099 54.7754 47.7899 54.7154 47.7799 54.6354C47.7699 54.5654 47.7599 54.4854 47.7599 54.4154C47.7599 54.3454 47.7699 54.2754 47.7799 54.2054C47.7899 54.1354 47.8199 54.0754 47.8499 54.0154C47.8799 53.9554 47.9199 53.9154 47.9699 53.8754C48.0199 53.8454 48.0899 53.8254 48.1699 53.8254C48.2499 53.8254 48.3099 53.8454 48.3599 53.8754C48.4099 53.9054 48.4499 53.9554 48.4799 54.0054C48.5099 54.0554 48.5299 54.1254 48.5399 54.1954C48.5499 54.2654 48.5599 54.3354 48.5599 54.4154C48.5599 54.4854 48.5499 54.5654 48.5399 54.6354ZM50.7399 55.3754H51.2899V54.2354C51.2899 54.1654 51.2899 54.0954 51.2799 54.0254C51.2799 53.9554 51.2699 53.8854 51.2499 53.8254C51.2199 53.7054 51.1599 53.6054 51.0699 53.5254C50.9799 53.4454 50.8399 53.4154 50.6499 53.4154C50.5699 53.4154 50.4999 53.4254 50.4399 53.4354C50.3799 53.4454 50.3299 53.4654 50.2799 53.4854C50.2299 53.5054 50.1999 53.5354 50.1599 53.5554C50.1299 53.5854 50.0999 53.6054 50.0799 53.6354V52.8354C50.0799 52.7654 50.0699 52.7154 50.0499 52.6754C50.0299 52.6354 49.9999 52.6054 49.9699 52.5754C49.9399 52.5554 49.8999 52.5354 49.8499 52.5254C49.8099 52.5154 49.7599 52.5154 49.7199 52.5154C49.6799 52.5154 49.6399 52.5154 49.5999 52.5254C49.5599 52.5254 49.5399 52.5354 49.5399 52.5354V55.3754H50.0899V54.0654C50.0899 54.0054 50.1299 53.9554 50.1999 53.9054C50.2699 53.8654 50.3599 53.8454 50.4599 53.8454C50.5299 53.8454 50.5799 53.8554 50.6199 53.8754C50.6599 53.8954 50.6899 53.9254 50.6999 53.9554C50.7199 53.9954 50.7299 54.0354 50.7299 54.0854C50.7299 54.1354 50.7399 54.1954 50.7399 54.2554V55.3754ZM52.4099 54.8854C52.3299 54.7854 52.2799 54.6654 52.2699 54.5154H53.4599C53.4599 54.5054 53.4599 54.4854 53.4699 54.4654C53.4699 54.4454 53.4699 54.4154 53.4699 54.3954C53.4699 54.3754 53.4699 54.3454 53.4699 54.3254C53.4699 54.3054 53.4699 54.2854 53.4699 54.2654C53.4699 54.1554 53.4599 54.0454 53.4299 53.9454C53.3999 53.8454 53.3499 53.7554 53.2899 53.6754C53.2199 53.5954 53.1399 53.5354 53.0299 53.4854C52.9299 53.4354 52.7999 53.4154 52.6499 53.4154C52.5299 53.4154 52.4199 53.4354 52.3099 53.4754C52.1999 53.5154 52.0999 53.5754 52.0099 53.6554C51.9199 53.7354 51.8499 53.8354 51.7999 53.9554C51.7499 54.0754 51.7199 54.2254 51.7199 54.3954C51.7199 54.6054 51.7499 54.7754 51.8099 54.9054C51.8699 55.0454 51.9499 55.1454 52.0399 55.2254C52.1399 55.3054 52.2399 55.3654 52.3699 55.3954C52.4899 55.4254 52.6199 55.4454 52.7399 55.4454C52.8799 55.4454 52.9999 55.4254 53.0999 55.3954C53.1999 55.3654 53.2799 55.3254 53.3399 55.2854C53.4099 55.2354 53.4399 55.1854 53.4399 55.1254C53.4399 55.0854 53.4199 55.0354 53.3899 54.9654C53.3499 54.9054 53.3199 54.8554 53.2899 54.8054C53.2699 54.8254 53.2399 54.8554 53.2099 54.8754C53.1799 54.9054 53.1499 54.9254 53.0999 54.9454C53.0599 54.9654 53.0099 54.9854 52.9599 54.9954C52.9099 55.0054 52.8499 55.0154 52.7799 55.0154C52.6199 55.0254 52.4999 54.9854 52.4099 54.8854ZM52.2699 54.2154C52.2699 54.0754 52.2999 53.9754 52.3699 53.8954C52.4399 53.8154 52.5199 53.7854 52.6399 53.7854C52.7699 53.7854 52.8599 53.8254 52.9099 53.9054C52.9599 53.9854 52.9899 54.0954 52.9899 54.2154H52.2699ZM54.4299 54.0654C54.4299 54.0054 54.4699 53.9554 54.5399 53.9054C54.6099 53.8654 54.6999 53.8454 54.7999 53.8454C54.8699 53.8454 54.9299 53.8554 54.9599 53.8754C54.9999 53.8954 55.0299 53.9254 55.0499 53.9554C55.0699 53.9954 55.0799 54.0354 55.0799 54.0854C55.0799 54.1354 55.0899 54.1954 55.0899 54.2554V55.3654H55.6399V54.2254C55.6399 54.1554 55.6399 54.0854 55.6299 54.0154C55.6199 53.9454 55.6199 53.8754 55.5999 53.8154C55.5699 53.6954 55.5099 53.5954 55.4199 53.5154C55.3299 53.4354 55.1899 53.4054 54.9999 53.4054C54.8399 53.4054 54.7099 53.4354 54.6199 53.4854C54.5199 53.5354 54.4499 53.5954 54.4099 53.6554C54.3899 53.5754 54.3499 53.5254 54.2899 53.4954C54.2299 53.4654 54.1499 53.4454 54.0699 53.4454C54.0399 53.4454 54.0199 53.4454 53.9899 53.4454C53.9699 53.4454 53.9499 53.4454 53.9299 53.4554C53.9099 53.4554 53.8999 53.4654 53.8799 53.4654V55.3754H54.4299V54.0654ZM57.2899 53.4954C57.2299 53.4654 57.1499 53.4454 57.0699 53.4354C56.9899 53.4154 56.8899 53.4154 56.7799 53.4154C56.6799 53.4154 56.5799 53.4254 56.4899 53.4554C56.3999 53.4854 56.3099 53.5154 56.2399 53.5654C56.1699 53.6154 56.1099 53.6754 56.0699 53.7554C56.0199 53.8154 55.9999 53.9054 55.9999 54.0054C55.9999 54.1054 56.0199 54.1854 56.0499 54.2554C56.0799 54.3254 56.1299 54.3754 56.1899 54.4254C56.2499 54.4654 56.3099 54.5054 56.3799 54.5354C56.4499 54.5654 56.5299 54.5854 56.6099 54.5954C56.7299 54.6154 56.8199 54.6454 56.8799 54.6854C56.9399 54.7154 56.9699 54.7754 56.9699 54.8554C56.9699 54.8954 56.9599 54.9354 56.9399 54.9554C56.9199 54.9854 56.8999 55.0054 56.8699 55.0154C56.8399 55.0354 56.8099 55.0454 56.7699 55.0454C56.7299 55.0554 56.6999 55.0554 56.6599 55.0554C56.5999 55.0554 56.5499 55.0454 56.4899 55.0354C56.4399 55.0254 56.3899 55.0054 56.3399 54.9854C56.2899 54.9654 56.2499 54.9454 56.2099 54.9254C56.1699 54.9054 56.1399 54.8854 56.1199 54.8554C56.0899 54.9054 56.0499 54.9654 56.0299 55.0154C55.9999 55.0654 55.9899 55.1154 55.9899 55.1554C55.9899 55.2054 56.0099 55.2554 56.0599 55.2854C56.0999 55.3154 56.1499 55.3354 56.1799 55.3554C56.2299 55.3754 56.2999 55.3954 56.3799 55.4154C56.4599 55.4354 56.5599 55.4454 56.6799 55.4454C56.7999 55.4454 56.8999 55.4354 56.9999 55.4054C57.0999 55.3754 57.1799 55.3354 57.2599 55.2754C57.3299 55.2154 57.3899 55.1454 57.4299 55.0654C57.4699 54.9854 57.4899 54.8854 57.4899 54.7754C57.4899 54.6754 57.4699 54.5854 57.4299 54.5154C57.3899 54.4454 57.3399 54.3854 57.2799 54.3454C57.2199 54.2954 57.1499 54.2654 57.0699 54.2354C56.9899 54.2054 56.9099 54.1854 56.8299 54.1754C56.6299 54.1354 56.5399 54.0654 56.5399 53.9754C56.5399 53.9354 56.5499 53.9054 56.5699 53.8854C56.5899 53.8654 56.6099 53.8454 56.6299 53.8354C56.6599 53.8254 56.6799 53.8154 56.7199 53.8154C56.7499 53.8154 56.7799 53.8054 56.8099 53.8054C56.8599 53.8054 56.9199 53.8154 56.9699 53.8254C57.0199 53.8354 57.0699 53.8554 57.1199 53.8754C57.1699 53.8954 57.2099 53.9154 57.2499 53.9354C57.2899 53.9554 57.3199 53.9854 57.3499 54.0054C57.3799 53.9554 57.4099 53.9054 57.4299 53.8454C57.4599 53.7854 57.4699 53.7454 57.4699 53.7054C57.4699 53.6054 57.4099 53.5454 57.2899 53.4954ZM58.1099 55.3354C58.1999 55.3954 58.3299 55.4354 58.4999 55.4354C58.5899 55.4354 58.6699 55.4254 58.7399 55.4054C58.8099 55.3854 58.8699 55.3654 58.9299 55.3354C58.9799 55.3054 59.0199 55.2754 59.0499 55.2454C59.0799 55.2154 59.0899 55.1754 59.0899 55.1454C59.0899 55.1054 59.0799 55.0654 59.0599 55.0254C59.0399 54.9854 59.0099 54.9354 58.9699 54.8754C58.9599 54.8854 58.9499 54.8954 58.9299 54.9154C58.9099 54.9354 58.8899 54.9454 58.8599 54.9654C58.8299 54.9754 58.7999 54.9954 58.7699 55.0054C58.7399 55.0154 58.6999 55.0254 58.6599 55.0254C58.5099 55.0254 58.4299 54.9354 58.4299 54.7454V53.8854H58.9899V53.4754H58.4299V53.1954C58.4299 53.1254 58.4199 53.0754 58.3999 53.0354C58.3799 52.9954 58.3499 52.9654 58.3199 52.9354C58.2899 52.9154 58.2499 52.8954 58.1999 52.8854C58.1599 52.8754 58.1099 52.8754 58.0699 52.8754C58.0499 52.8754 58.0299 52.8754 58.0099 52.8754C57.9899 52.8754 57.9699 52.8754 57.9499 52.8854C57.9299 52.8854 57.9099 52.8954 57.8899 52.8954V54.7654C57.8899 54.8254 57.8899 54.8854 57.8999 54.9454C57.9099 55.0054 57.9199 55.0654 57.9399 55.1154C57.9499 55.1854 58.0099 55.2754 58.1099 55.3354ZM59.9999 54.8854C59.9199 54.7854 59.8699 54.6654 59.8599 54.5154H61.0499C61.0499 54.5054 61.0499 54.4854 61.0599 54.4654C61.0599 54.4454 61.0599 54.4154 61.0599 54.3954C61.0599 54.3754 61.0599 54.3454 61.0599 54.3254C61.0599 54.3054 61.0599 54.2854 61.0599 54.2654C61.0599 54.1554 61.0499 54.0454 61.0199 53.9454C60.9899 53.8454 60.9399 53.7554 60.8799 53.6754C60.8099 53.5954 60.7299 53.5354 60.6199 53.4854C60.5199 53.4354 60.3899 53.4154 60.2399 53.4154C60.1199 53.4154 60.0099 53.4354 59.8999 53.4754C59.7899 53.5154 59.6899 53.5754 59.5999 53.6554C59.5099 53.7354 59.4399 53.8354 59.3899 53.9554C59.3399 54.0754 59.3099 54.2254 59.3099 54.3954C59.3099 54.6054 59.3399 54.7754 59.3999 54.9054C59.4599 55.0454 59.5399 55.1454 59.6299 55.2254C59.7299 55.3054 59.8299 55.3654 59.9599 55.3954C60.0799 55.4254 60.2099 55.4454 60.3299 55.4454C60.4699 55.4454 60.5899 55.4254 60.6899 55.3954C60.7899 55.3654 60.8699 55.3254 60.9299 55.2854C60.9999 55.2354 61.0299 55.1854 61.0299 55.1254C61.0299 55.0854 61.0099 55.0354 60.9799 54.9654C60.9399 54.9054 60.9099 54.8554 60.8799 54.8054C60.8599 54.8254 60.8299 54.8554 60.7999 54.8754C60.7699 54.9054 60.7399 54.9254 60.6899 54.9454C60.6499 54.9654 60.5999 54.9854 60.5499 54.9954C60.4999 55.0054 60.4399 55.0154 60.3699 55.0154C60.2099 55.0254 60.0799 54.9854 59.9999 54.8854ZM59.8599 54.2154C59.8599 54.0754 59.8899 53.9754 59.9599 53.8954C60.0299 53.8154 60.1099 53.7854 60.2299 53.7854C60.3599 53.7854 60.4499 53.8254 60.4999 53.9054C60.5499 53.9854 60.5799 54.0954 60.5799 54.2154H59.8599ZM62.0199 53.7654C62.0199 53.6954 62.0099 53.6454 61.9899 53.6054C61.9699 53.5654 61.9399 53.5354 61.9099 53.5054C61.8799 53.4854 61.8399 53.4654 61.7899 53.4554C61.7499 53.4454 61.6999 53.4454 61.6599 53.4454C61.6199 53.4454 61.5799 53.4454 61.5399 53.4554C61.4999 53.4554 61.4799 53.4654 61.4799 53.4654V55.0754C61.4799 55.1454 61.4899 55.1954 61.5099 55.2454C61.5299 55.2854 61.5499 55.3254 61.5799 55.3454C61.6099 55.3754 61.6499 55.3854 61.6899 55.3954C61.7299 55.4054 61.7799 55.4054 61.8399 55.4054C61.8799 55.4054 61.9199 55.4054 61.9599 55.4054C61.9999 55.4054 62.0199 55.3954 62.0299 55.3954V53.7654H62.0199ZM61.9399 52.6054C61.8799 52.5454 61.8099 52.5254 61.7299 52.5254C61.6499 52.5254 61.5799 52.5554 61.5199 52.6054C61.4599 52.6654 61.4399 52.7354 61.4399 52.8154C61.4399 52.9054 61.4699 52.9754 61.5199 53.0254C61.5799 53.0754 61.6499 53.1054 61.7299 53.1054C61.8099 53.1054 61.8799 53.0754 61.9399 53.0254C61.9999 52.9754 62.0299 52.9054 62.0299 52.8154C62.0199 52.7354 61.9899 52.6654 61.9399 52.6054ZM63.0799 54.0654C63.0799 54.0054 63.1199 53.9554 63.1899 53.9054C63.2599 53.8654 63.3499 53.8454 63.4499 53.8454C63.5199 53.8454 63.5799 53.8554 63.6099 53.8754C63.6499 53.8954 63.6799 53.9254 63.6999 53.9554C63.7199 53.9954 63.7299 54.0354 63.7299 54.0854C63.7299 54.1354 63.7399 54.1954 63.7399 54.2554V55.3654H64.2899V54.2254C64.2899 54.1554 64.2899 54.0854 64.2799 54.0154C64.2699 53.9454 64.2699 53.8754 64.2499 53.8154C64.2199 53.6954 64.1599 53.5954 64.0699 53.5154C63.9799 53.4354 63.8399 53.4054 63.6499 53.4054C63.4899 53.4054 63.3599 53.4354 63.2699 53.4854C63.1699 53.5354 63.0999 53.5954 63.0599 53.6554C63.0399 53.5754 62.9999 53.5254 62.9399 53.4954C62.8799 53.4654 62.7999 53.4454 62.7199 53.4454C62.6899 53.4454 62.6699 53.4454 62.6399 53.4454C62.6199 53.4454 62.5999 53.4454 62.5799 53.4554C62.5599 53.4554 62.5499 53.4654 62.5299 53.4654V55.3754H63.0799V54.0654ZM66.2799 52.9754C66.2799 52.9054 66.2699 52.8554 66.2499 52.8154C66.2299 52.7754 66.1999 52.7454 66.1599 52.7154C66.1299 52.6954 66.0899 52.6754 66.0499 52.6654C66.0099 52.6554 65.9699 52.6554 65.9299 52.6554C65.9099 52.6554 65.8899 52.6554 65.8699 52.6554C65.8499 52.6554 65.8299 52.6654 65.8099 52.6654C65.7899 52.6654 65.7599 52.6754 65.7399 52.6754V55.3754H66.2899V54.2054H67.3099V55.3754H67.8599V52.9754C67.8599 52.9054 67.8499 52.8554 67.8299 52.8154C67.8099 52.7754 67.7799 52.7454 67.7399 52.7254C67.7099 52.7054 67.6699 52.6854 67.6299 52.6754C67.5899 52.6654 67.5499 52.6654 67.5199 52.6654C67.4999 52.6654 67.4799 52.6654 67.4499 52.6654C67.4299 52.6654 67.4099 52.6754 67.3799 52.6754C67.3599 52.6754 67.3299 52.6854 67.3099 52.6854V53.7854H66.2899V52.9754H66.2799ZM68.9899 55.3754H69.5499V53.1254H70.0599C70.1199 53.1254 70.1699 53.1154 70.2199 53.1054C70.2599 53.0854 70.2999 53.0654 70.3199 53.0454C70.3499 53.0154 70.3699 52.9854 70.3799 52.9554C70.3899 52.9254 70.3999 52.8854 70.3999 52.8554C70.3999 52.7954 70.3999 52.7354 70.3899 52.6854H68.4899C68.3699 52.6854 68.2799 52.7154 68.2299 52.7754C68.1799 52.8354 68.1499 52.9054 68.1499 52.9754C68.1499 53.0054 68.1499 53.0354 68.1499 53.0554C68.1499 53.0754 68.1499 53.1054 68.1599 53.1354H68.9999V55.3754H68.9899ZM71.2799 55.3754H71.8399V53.1254H72.3499C72.4099 53.1254 72.4599 53.1154 72.5099 53.1054C72.5499 53.0854 72.5899 53.0654 72.6099 53.0454C72.6399 53.0154 72.6599 52.9854 72.6699 52.9554C72.6799 52.9254 72.6899 52.8854 72.6899 52.8554C72.6899 52.7954 72.6899 52.7354 72.6799 52.6854H70.7799C70.6599 52.6854 70.5699 52.7154 70.5199 52.7754C70.4699 52.8354 70.4399 52.9054 70.4399 52.9754C70.4399 53.0054 70.4399 53.0354 70.4399 53.0554C70.4399 53.0754 70.4399 53.1054 70.4499 53.1354H71.2899V55.3754H71.2799ZM73.5099 52.9654C73.5099 52.8954 73.4999 52.8454 73.4699 52.8054C73.4499 52.7654 73.4199 52.7354 73.3799 52.7154C73.3399 52.6954 73.3099 52.6754 73.2599 52.6754C73.2199 52.6654 73.1799 52.6654 73.1399 52.6654C73.1199 52.6654 73.0999 52.6654 73.0799 52.6654C73.0599 52.6654 73.0399 52.6754 73.0199 52.6754C72.9999 52.6754 72.9699 52.6854 72.9499 52.6854V55.3854H73.4999V52.9654H73.5099Z" fill="#222222"/>
</svg>
