<svg width="80" height="81" viewBox="0 0 80 81" fill="none" xmlns="http://www.w3.org/2000/svg">
<g clip-path="url(#clip0_16455_55086)">
<mask id="mask0_16455_55086" style="mask-type:luminance" maskUnits="userSpaceOnUse" x="6" y="4" width="68" height="68">
<path d="M6.91992 37.9354C6.91992 56.1954 21.7299 71.0054 39.9899 71.0054C58.2499 71.0054 73.0599 56.1954 73.0599 37.9354C73.0599 19.6754 58.2499 4.86536 39.9899 4.86536C21.7199 4.86536 6.91992 19.6754 6.91992 37.9354Z" fill="white"/>
</mask>
<g mask="url(#mask0_16455_55086)">
<path d="M73.0599 37.9353H6.91992V71.0053H73.0599V37.9353Z" fill="#4A4546"/>
</g>
<mask id="mask1_16455_55086" style="mask-type:luminance" maskUnits="userSpaceOnUse" x="6" y="4" width="68" height="68">
<path d="M6.91992 37.9354C6.91992 56.1954 21.7299 71.0054 39.9899 71.0054C58.2499 71.0054 73.0599 56.1954 73.0599 37.9354C73.0599 19.6754 58.2499 4.86536 39.9899 4.86536C21.7199 4.86536 6.91992 19.6754 6.91992 37.9354Z" fill="white"/>
</mask>
<g mask="url(#mask1_16455_55086)">
<path d="M73.0599 4.86536H6.91992V37.9354H73.0599V4.86536Z" fill="#058F39"/>
</g>
<mask id="mask2_16455_55086" style="mask-type:luminance" maskUnits="userSpaceOnUse" x="6" y="4" width="68" height="68">
<path d="M6.29004 37.9654C6.45004 56.1254 21.42 71.3954 40.03 71.3954C58.64 71.3954 73.7 56.6254 73.7 37.9754C73.7 19.3154 58.61 4.19543 40 4.19543C21.39 4.19543 6.29004 19.3154 6.29004 37.9654Z" fill="white"/>
</mask>
<g mask="url(#mask2_16455_55086)">
<path d="M61.8102 37.9355C61.8102 49.9855 52.0402 59.7655 39.9902 59.7655C27.9402 59.7655 18.1602 49.9955 18.1602 37.9355C18.1602 25.8755 27.9302 16.1055 39.9902 16.1055C52.0402 16.1055 61.8102 25.8855 61.8102 37.9355Z" fill="white"/>
</g>
<mask id="mask3_16455_55086" style="mask-type:luminance" maskUnits="userSpaceOnUse" x="6" y="4" width="68" height="68">
<path d="M6.29004 37.9654C6.45004 56.1254 21.42 71.3954 40.03 71.3954C58.64 71.3954 73.7 56.6254 73.7 37.9754C73.7 19.3154 58.61 4.19543 40 4.19543C21.39 4.19543 6.29004 19.3154 6.29004 37.9654Z" fill="white"/>
</mask>
<g mask="url(#mask3_16455_55086)">
<path d="M28.86 40.9454C28.7 41.7654 28.59 42.6054 28.55 43.4554C28.53 43.8654 28.54 44.2954 28.57 44.7254C28.62 45.3554 28.73 45.9854 28.88 46.5754C28.91 46.6954 28.94 46.8054 28.97 46.9254C29.53 48.8354 30.82 50.6554 32.52 51.7154C32.69 51.8154 32.86 51.9154 33.04 52.0054C34.11 52.6154 35.56 52.8754 36.58 52.9954C36.36 54.6854 35.42 57.3654 35.42 57.3654C35.42 57.3654 37.68 58.3654 37.7 57.6054C37.72 56.8854 38.15 53.3954 38.19 53.0854C38.76 53.0954 39.33 53.0854 39.86 53.0654C43.99 52.8454 48.34 50.1754 50.24 46.4754C51.41 44.2154 51.57 41.7554 51.2 39.3254C51.06 38.4154 50.85 37.5054 50.59 36.6054C50.14 35.0554 49.54 33.5454 48.91 32.1354C48.71 31.6754 48.49 31.2254 48.28 30.7754C47.39 28.9154 46.38 27.1254 45.31 25.3654C43.91 23.0854 42.4 20.8754 40.88 18.6754C39.73 20.6554 38.5 22.5854 37.26 24.5154C36.1 26.3054 34.93 28.0854 33.8 29.8954C33.7 30.0554 33.6 30.2154 33.5 30.3854C32.23 32.4554 31.01 34.6054 30.1 36.8654C29.57 38.1954 29.14 39.5554 28.86 40.9454Z" fill="#058F39"/>
</g>
<mask id="mask4_16455_55086" style="mask-type:luminance" maskUnits="userSpaceOnUse" x="6" y="4" width="68" height="68">
<path d="M6.29004 37.9654C6.45004 56.1254 21.42 71.3954 40.03 71.3954C58.64 71.3954 73.7 56.6254 73.7 37.9754C73.7 19.3154 58.61 4.19543 40 4.19543C21.39 4.19543 6.29004 19.3154 6.29004 37.9654Z" fill="white"/>
</mask>
<g mask="url(#mask4_16455_55086)">
<path d="M40.33 30.3654C40.24 31.9654 40.17 33.8654 40.19 35.8254C37.91 33.6954 37.34 31.5354 37.23 31.5354C37.23 31.5354 37.53 35.5454 40.15 37.5654C40.13 37.7754 40.1 37.9854 40.08 38.1954V38.2054C39.88 39.8654 39.56 41.6154 39.28 42.8654C39.17 43.3554 39.06 43.7654 38.97 44.0654C38.84 43.9754 36.93 42.7354 35.13 40.1854C35.13 40.1854 35.13 40.1854 35.13 40.1754C34.55 39.3554 33.98 38.3954 33.49 37.3054C33.49 37.3054 33.8 38.3454 34.38 39.6954C35.25 41.7254 36.72 44.4754 38.62 45.4354C38.31 46.4654 37.98 47.1554 37.67 47.9954V48.0054C37.34 48.8954 37.03 49.9454 36.75 51.7254C36.69 52.1254 36.63 52.5654 36.57 53.0454L38.18 53.1454C38.52 50.8454 39.13 49.4754 40.1 45.8754C40.1 45.8754 40.12 45.8254 40.12 45.7954C40.15 45.7854 40.22 45.7754 40.22 45.7754C42.19 45.2554 43.91 43.2054 44.99 41.5854C45.76 40.4454 46.2 39.5254 46.2 39.5254C44.09 42.0654 42.24 43.4054 41.08 44.0254C40.82 44.1654 40.6 44.2654 40.41 44.3354C40.43 44.2754 40.48 44.0454 40.55 43.6954C40.83 42.3154 41.43 39.0954 41.44 37.5154C44.12 35.7254 44.68 31.9254 44.68 31.9254C44.57 31.9154 43.96 33.8754 41.54 35.7854C41.53 35.4154 41.52 35.0554 41.51 34.7054V34.6954C41.46 33.1154 41.36 31.6754 41.25 30.4254C41.01 27.6254 40.72 25.8254 40.72 25.8254C40.72 25.8254 40.49 27.6754 40.33 30.3654Z" fill="white"/>
</g>
<mask id="mask5_16455_55086" style="mask-type:luminance" maskUnits="userSpaceOnUse" x="6" y="4" width="68" height="68">
<path d="M6.29004 37.9654C6.45004 56.1254 21.42 71.3954 40.03 71.3954C58.64 71.3954 73.7 56.6254 73.7 37.9754C73.7 19.3154 58.61 4.19543 40 4.19543C21.39 4.19543 6.29004 19.3154 6.29004 37.9654Z" fill="white"/>
</mask>
<g mask="url(#mask5_16455_55086)">
<path d="M13.07 43.7455C13.26 43.6855 13.42 43.5955 13.55 43.4655C13.73 43.2755 13.79 43.0255 13.73 42.7155C13.65 42.2655 13.37 41.9955 12.9 41.9155C12.65 41.8655 12.33 41.8855 11.93 41.9555C11.56 42.0255 11.26 42.1155 11.05 42.2455C10.65 42.4855 10.49 42.8155 10.57 43.2555C10.62 43.5655 10.75 43.7755 10.94 43.8755C11.13 43.9755 11.36 44.0155 11.64 43.9955L11.88 45.3555C11.47 45.3955 11.06 45.3155 10.65 45.1155C9.99997 44.7955 9.59998 44.2355 9.45998 43.4155C9.30998 42.5955 9.44998 41.9455 9.86998 41.4755C10.29 41.0055 10.88 40.6955 11.66 40.5555C12.53 40.4055 13.25 40.4955 13.82 40.8355C14.38 41.1755 14.73 41.7255 14.86 42.4755C14.97 43.1155 14.92 43.6655 14.71 44.1255C14.49 44.5855 14.03 44.9155 13.32 45.1155L13.07 43.7455Z" fill="white"/>
</g>
<mask id="mask6_16455_55086" style="mask-type:luminance" maskUnits="userSpaceOnUse" x="6" y="4" width="68" height="68">
<path d="M6.29004 37.9654C6.45004 56.1254 21.42 71.3954 40.03 71.3954C58.64 71.3954 73.7 56.6254 73.7 37.9754C73.7 19.3154 58.61 4.19543 40 4.19543C21.39 4.19543 6.29004 19.3154 6.29004 37.9654Z" fill="white"/>
</mask>
<g mask="url(#mask6_16455_55086)">
<path d="M12.8 51.2254C12.13 51.0254 11.63 50.5154 11.29 49.6954C10.95 48.8754 10.95 48.1554 11.28 47.5454C11.61 46.9354 12.13 46.4854 12.83 46.1954C13.52 45.9154 14.2 45.8654 14.87 46.0654C15.54 46.2654 16.05 46.7754 16.39 47.5954C16.73 48.4154 16.73 49.1354 16.39 49.7454C16.05 50.3554 15.53 50.8054 14.84 51.0854C14.15 51.3754 13.46 51.4254 12.8 51.2254ZM13.08 49.9354C13.42 50.0254 13.83 49.9654 14.31 49.7754C14.79 49.5754 15.12 49.3254 15.3 49.0254C15.48 48.7254 15.49 48.3854 15.34 48.0254C15.19 47.6554 14.94 47.4354 14.6 47.3354C14.26 47.2454 13.85 47.2954 13.37 47.4954C12.89 47.6954 12.56 47.9454 12.38 48.2454C12.2 48.5454 12.19 48.8854 12.34 49.2554C12.49 49.6254 12.74 49.8454 13.08 49.9354Z" fill="white"/>
</g>
<mask id="mask7_16455_55086" style="mask-type:luminance" maskUnits="userSpaceOnUse" x="6" y="4" width="68" height="68">
<path d="M6.29004 37.9654C6.45004 56.1254 21.42 71.3954 40.03 71.3954C58.64 71.3954 73.7 56.6254 73.7 37.9754C73.7 19.3154 58.61 4.19543 40 4.19543C21.39 4.19543 6.29004 19.3154 6.29004 37.9654Z" fill="white"/>
</mask>
<g mask="url(#mask7_16455_55086)">
<path d="M19.8101 54.3654C19.7801 54.8054 19.4901 55.2054 18.9601 55.5854L16.1001 57.5854L15.3001 56.4454L17.8801 54.6354C18.1001 54.4754 18.2501 54.3254 18.3301 54.1854C18.4701 53.9254 18.4401 53.6454 18.2201 53.3354C17.9601 52.9654 17.6201 52.8154 17.2001 52.9054C16.9801 52.9554 16.7401 53.0654 16.4801 53.2454L14.1801 54.8554L13.4001 53.7454L17.6301 50.7754L18.3801 51.8454L17.7901 52.2954C18.1101 52.2854 18.3601 52.3054 18.5401 52.3654C18.8701 52.4754 19.1601 52.7054 19.4001 53.0454C19.7101 53.4854 19.8401 53.9254 19.8101 54.3654Z" fill="white"/>
</g>
<mask id="mask8_16455_55086" style="mask-type:luminance" maskUnits="userSpaceOnUse" x="6" y="4" width="68" height="68">
<path d="M6.29004 37.9654C6.45004 56.1254 21.42 71.3954 40.03 71.3954C58.64 71.3954 73.7 56.6254 73.7 37.9754C73.7 19.3154 58.61 4.19543 40 4.19543C21.39 4.19543 6.29004 19.3154 6.29004 37.9654Z" fill="white"/>
</mask>
<g mask="url(#mask8_16455_55086)">
<path d="M20.05 55.7254L20.73 55.0454L21.24 55.5554L22.26 54.5354L23.21 55.4854L22.19 56.5054L22.78 57.0954L22.1 57.7754L21.51 57.1854L19.58 59.1154C19.43 59.2654 19.36 59.3754 19.36 59.4554C19.36 59.5354 19.46 59.6654 19.66 59.8554C19.69 59.8854 19.72 59.9154 19.76 59.9454C19.79 59.9754 19.83 60.0054 19.86 60.0354L19.14 60.7554L18.67 60.3154C18.2 59.8754 17.97 59.4954 17.98 59.1554C17.98 58.9354 18.1 58.7154 18.33 58.4854L20.58 56.2354L20.05 55.7254Z" fill="white"/>
</g>
<mask id="mask9_16455_55086" style="mask-type:luminance" maskUnits="userSpaceOnUse" x="6" y="4" width="68" height="68">
<path d="M6.29004 37.9654C6.45004 56.1254 21.42 71.3954 40.03 71.3954C58.64 71.3954 73.7 56.6254 73.7 37.9754C73.7 19.3154 58.61 4.19543 40 4.19543C21.39 4.19543 6.29004 19.3154 6.29004 37.9654Z" fill="white"/>
</mask>
<g mask="url(#mask9_16455_55086)">
<path d="M26.0201 59.6254C26.2201 59.9654 26.3101 60.3454 26.3001 60.7654C26.2901 61.1354 26.2001 61.5054 26.0101 61.8754C25.9001 62.0954 25.7101 62.3754 25.4501 62.7354L22.3801 60.5454C22.0901 60.9754 22.0301 61.3854 22.1801 61.7454C22.2701 61.9754 22.4401 62.1654 22.6701 62.3354C22.9201 62.5154 23.1701 62.5954 23.4201 62.5754C23.5501 62.5654 23.7001 62.5254 23.8501 62.4454L24.9701 63.2454C24.7601 63.4754 24.4501 63.6354 24.0201 63.7154C23.3501 63.8554 22.6801 63.6854 22.0001 63.1954C21.4401 62.7954 21.0701 62.2654 20.8901 61.6154C20.7101 60.9654 20.9001 60.2454 21.4601 59.4654C21.9801 58.7354 22.5801 58.3154 23.2401 58.2054C23.9101 58.0954 24.5501 58.2554 25.1601 58.6954C25.5401 58.9754 25.8201 59.2854 26.0201 59.6254ZM23.6901 59.3954C23.4201 59.4454 23.1701 59.5954 22.9301 59.8354L24.8301 61.1954C25.0201 60.8854 25.0801 60.5954 25.0101 60.3254C24.9401 60.0454 24.7801 59.8154 24.5201 59.6354C24.2401 59.4254 23.9601 59.3454 23.6901 59.3954Z" fill="white"/>
</g>
<mask id="mask10_16455_55086" style="mask-type:luminance" maskUnits="userSpaceOnUse" x="6" y="4" width="68" height="68">
<path d="M6.29004 37.9654C6.45004 56.1254 21.42 71.3954 40.03 71.3954C58.64 71.3954 73.7 56.6254 73.7 37.9754C73.7 19.3154 58.61 4.19543 40 4.19543C21.39 4.19543 6.29004 19.3154 6.29004 37.9654Z" fill="white"/>
</mask>
<g mask="url(#mask10_16455_55086)">
<path d="M31.3601 62.4754C31.5601 62.8654 31.5301 63.3654 31.2701 63.9554L29.8901 67.1554L28.6201 66.6054L29.8701 63.7154C29.9801 63.4654 30.0301 63.2554 30.0201 63.0954C30.0001 62.7954 29.8301 62.5754 29.4901 62.4254C29.0701 62.2454 28.7101 62.2954 28.4001 62.5854C28.2401 62.7354 28.0901 62.9654 27.9701 63.2554L26.8601 65.8254L25.6201 65.2854L27.6701 60.5454L28.8701 61.0654L28.5701 61.7554C28.8301 61.5854 29.0601 61.4654 29.2501 61.4254C29.5901 61.3454 29.9501 61.3854 30.3401 61.5554C30.8101 61.7854 31.1601 62.0854 31.3601 62.4754Z" fill="white"/>
</g>
<mask id="mask11_16455_55086" style="mask-type:luminance" maskUnits="userSpaceOnUse" x="6" y="4" width="68" height="68">
<path d="M6.29004 37.9654C6.45004 56.1254 21.42 71.3954 40.03 71.3954C58.64 71.3954 73.7 56.6254 73.7 37.9754C73.7 19.3154 58.61 4.19543 40 4.19543C21.39 4.19543 6.29004 19.3154 6.29004 37.9654Z" fill="white"/>
</mask>
<g mask="url(#mask11_16455_55086)">
<path d="M32.27 63.5054L32.5 62.5654L33.2 62.7354L33.54 61.3354L34.84 61.6454L34.5 63.0454L35.32 63.2454L35.09 64.1854L34.27 63.9854L33.63 66.6454C33.58 66.8454 33.58 66.9854 33.61 67.0454C33.65 67.1054 33.8 67.1755 34.07 67.2355C34.11 67.2455 34.15 67.2554 34.2 67.2654C34.25 67.2854 34.3 67.2954 34.34 67.2954L34.1 68.2854L33.47 68.1554C32.84 68.0254 32.44 67.8155 32.27 67.5255C32.16 67.3355 32.14 67.0855 32.22 66.7755L32.97 63.6754L32.27 63.5054Z" fill="white"/>
</g>
<mask id="mask12_16455_55086" style="mask-type:luminance" maskUnits="userSpaceOnUse" x="6" y="4" width="68" height="68">
<path d="M6.29004 37.9654C6.45004 56.1254 21.42 71.3954 40.03 71.3954C58.64 71.3954 73.7 56.6254 73.7 37.9754C73.7 19.3154 58.61 4.19543 40 4.19543C21.39 4.19543 6.29004 19.3154 6.29004 37.9654Z" fill="white"/>
</mask>
<g mask="url(#mask12_16455_55086)">
<path d="M39.7901 67.1354C39.8301 67.3754 39.8901 67.5454 39.9901 67.6454C40.1601 67.8154 40.4801 67.9054 40.9301 67.8954C41.2001 67.8854 41.4101 67.8454 41.5601 67.7554C41.7201 67.6754 41.7901 67.5554 41.7901 67.3954C41.7901 67.2454 41.7201 67.1254 41.5901 67.0554C41.4601 66.9754 40.9901 66.8554 40.1601 66.6854C39.5701 66.5554 39.1501 66.3854 38.9001 66.1754C38.6501 65.9654 38.5201 65.6554 38.5101 65.2554C38.5001 64.7754 38.6701 64.3654 39.0401 64.0054C39.4101 63.6554 39.9301 63.4654 40.6101 63.4454C41.2601 63.4254 41.7901 63.5454 42.2001 63.7854C42.6201 64.0354 42.8601 64.4754 42.9401 65.1054L41.5901 65.1454C41.5701 64.9754 41.5101 64.8354 41.4301 64.7354C41.2801 64.5554 41.0201 64.4754 40.6601 64.4854C40.3601 64.4954 40.1601 64.5454 40.0301 64.6454C39.9101 64.7454 39.8501 64.8454 39.8501 64.9754C39.8501 65.1354 39.9201 65.2454 40.0601 65.3054C40.1901 65.3754 40.6701 65.4854 41.4801 65.6454C42.0201 65.7554 42.4301 65.9354 42.7101 66.1854C42.9801 66.4354 43.1301 66.7554 43.1401 67.1454C43.1501 67.6554 42.9701 68.0854 42.6001 68.4154C42.2301 68.7454 41.6401 68.9254 40.8401 68.9554C40.0201 68.9754 39.4201 68.8254 39.0201 68.4854C38.6201 68.1554 38.4201 67.7154 38.4001 67.1854L39.7901 67.1354Z" fill="white"/>
</g>
<mask id="mask13_16455_55086" style="mask-type:luminance" maskUnits="userSpaceOnUse" x="6" y="4" width="68" height="68">
<path d="M6.29004 37.9654C6.45004 56.1254 21.42 71.3954 40.03 71.3954C58.64 71.3954 73.7 56.6254 73.7 37.9754C73.7 19.3154 58.61 4.19543 40 4.19543C21.39 4.19543 6.29004 19.3154 6.29004 37.9654Z" fill="white"/>
</mask>
<g mask="url(#mask13_16455_55086)">
<path d="M43.5701 64.4054L43.3901 63.4554L44.1001 63.3154L43.8201 61.8954L45.1301 61.6454L45.4101 63.0654L46.2301 62.9054L46.4101 63.8554L45.5801 64.0154L46.1001 66.7054C46.1401 66.9154 46.1901 67.0354 46.2501 67.0754C46.3101 67.1154 46.4801 67.1154 46.7501 67.0554C46.7901 67.0454 46.8301 67.0354 46.8801 67.0254C46.9301 67.0154 46.9701 67.0054 47.0101 66.9954L47.2001 67.9854L46.5801 68.1354C45.9601 68.2754 45.5101 68.2554 45.2301 68.0554C45.0501 67.9354 44.9301 67.7154 44.8701 67.3954L44.2601 64.2654L43.5701 64.4054Z" fill="white"/>
</g>
<mask id="mask14_16455_55086" style="mask-type:luminance" maskUnits="userSpaceOnUse" x="6" y="4" width="68" height="68">
<path d="M6.29004 37.9654C6.45004 56.1254 21.42 71.3954 40.03 71.3954C58.64 71.3954 73.7 56.6254 73.7 37.9754C73.7 19.3154 58.61 4.19543 40 4.19543C21.39 4.19543 6.29004 19.3154 6.29004 37.9654Z" fill="white"/>
</mask>
<g mask="url(#mask14_16455_55086)">
<path d="M49.56 63.9054C49.78 63.7854 49.94 63.6854 50.03 63.6054C50.18 63.4554 50.23 63.3054 50.17 63.1454C50.1 62.9454 49.97 62.8354 49.81 62.8154C49.64 62.7954 49.42 62.8354 49.15 62.9354C48.85 63.0454 48.66 63.2054 48.59 63.3954C48.54 63.5454 48.54 63.7154 48.57 63.9054L47.35 64.3554C47.22 63.9254 47.21 63.5254 47.32 63.1754C47.5 62.6254 48 62.1954 48.82 61.8854C49.35 61.6854 49.87 61.6154 50.36 61.6754C50.85 61.7354 51.21 62.0554 51.42 62.6354L52.25 64.8654C52.31 65.0154 52.38 65.2054 52.47 65.4254C52.54 65.5854 52.61 65.6954 52.67 65.7354C52.73 65.7754 52.82 65.8054 52.91 65.8154L52.98 66.0054L51.6 66.5154C51.53 66.4354 51.47 66.3454 51.42 66.2654C51.37 66.1854 51.32 66.0954 51.27 65.9854C51.16 66.2454 51.02 66.4754 50.84 66.6954C50.62 66.9554 50.34 67.1454 50 67.2754C49.56 67.4354 49.15 67.4454 48.76 67.3054C48.38 67.1654 48.1 66.8654 47.93 66.3954C47.71 65.7954 47.78 65.2854 48.15 64.8454C48.35 64.6054 48.69 64.3654 49.16 64.1154L49.56 63.9054ZM50.56 64.2154C50.5 64.2954 50.43 64.3654 50.36 64.4254C50.29 64.4854 50.19 64.5554 50.05 64.6354L49.78 64.7954C49.53 64.9454 49.35 65.0754 49.26 65.1854C49.1 65.3754 49.07 65.5954 49.16 65.8354C49.24 66.0554 49.36 66.1854 49.52 66.2354C49.68 66.2854 49.84 66.2754 50.02 66.2154C50.3 66.1154 50.52 65.9354 50.7 65.6954C50.87 65.4454 50.89 65.1154 50.74 64.6854L50.56 64.2154Z" fill="white"/>
</g>
<mask id="mask15_16455_55086" style="mask-type:luminance" maskUnits="userSpaceOnUse" x="6" y="4" width="68" height="68">
<path d="M6.29004 37.9654C6.45004 56.1254 21.42 71.3954 40.03 71.3954C58.64 71.3954 73.7 56.6254 73.7 37.9754C73.7 19.3154 58.61 4.19543 40 4.19543C21.39 4.19543 6.29004 19.3154 6.29004 37.9654Z" fill="white"/>
</mask>
<g mask="url(#mask15_16455_55086)">
<path d="M55.4901 58.8354C55.9301 58.8854 56.3201 59.1954 56.6701 59.7354L58.5401 62.6754L57.3701 63.4154L55.6801 60.7554C55.5301 60.5254 55.3901 60.3654 55.2501 60.2854C55.0001 60.1354 54.7101 60.1554 54.4001 60.3554C54.0101 60.5954 53.8601 60.9354 53.9201 61.3554C53.9601 61.5754 54.0601 61.8254 54.2301 62.0954L55.7301 64.4654L54.5901 65.1954L51.8201 60.8354L52.9301 60.1354L53.3301 60.7754C53.3301 60.4554 53.3701 60.2054 53.4401 60.0254C53.5601 59.7054 53.8001 59.4254 54.1601 59.1954C54.6101 58.8954 55.0501 58.7754 55.4901 58.8354Z" fill="white"/>
</g>
<mask id="mask16_16455_55086" style="mask-type:luminance" maskUnits="userSpaceOnUse" x="6" y="4" width="68" height="68">
<path d="M6.29004 37.9654C6.45004 56.1254 21.42 71.3954 40.03 71.3954C58.64 71.3954 73.7 56.6254 73.7 37.9754C73.7 19.3154 58.61 4.19543 40 4.19543C21.39 4.19543 6.29004 19.3154 6.29004 37.9654Z" fill="white"/>
</mask>
<g mask="url(#mask16_16455_55086)">
<path d="M58.5801 55.7454C58.8501 55.6654 59.1201 55.6654 59.4001 55.7254L57.6401 53.9854L58.6001 53.0054L63.5701 57.9254L62.6401 58.8654L62.1301 58.3654C62.2101 58.7154 62.2201 59.0354 62.1401 59.3054C62.0701 59.5754 61.9001 59.8454 61.6401 60.1054C61.2101 60.5354 60.6801 60.7254 60.0401 60.6754C59.4001 60.6254 58.8101 60.3354 58.2601 59.7954C57.6301 59.1754 57.2801 58.5354 57.2001 57.8954C57.1301 57.2454 57.3301 56.6854 57.8101 56.1954C58.0701 55.9654 58.3101 55.8154 58.5801 55.7454ZM61.4401 58.0954C61.3801 57.7554 61.1901 57.4254 60.8601 57.1054C60.4101 56.6654 59.9701 56.4554 59.5601 56.4954C59.3101 56.5154 59.0901 56.6254 58.9001 56.8054C58.6201 57.0854 58.5201 57.3954 58.6101 57.7454C58.6901 58.0854 58.8901 58.4154 59.2101 58.7254C59.5501 59.0654 59.8901 59.2654 60.2201 59.3354C60.5601 59.4054 60.8601 59.2954 61.1301 59.0254C61.4001 58.7454 61.5001 58.4354 61.4401 58.0954Z" fill="white"/>
</g>
<mask id="mask17_16455_55086" style="mask-type:luminance" maskUnits="userSpaceOnUse" x="6" y="4" width="68" height="68">
<path d="M6.29004 37.9654C6.45004 56.1254 21.42 71.3954 40.03 71.3954C58.64 71.3954 73.7 56.6254 73.7 37.9754C73.7 19.3154 58.61 4.19543 40 4.19543C21.39 4.19543 6.29004 19.3154 6.29004 37.9654Z" fill="white"/>
</mask>
<g mask="url(#mask17_16455_55086)">
<path d="M63.3501 52.7954C63.4601 52.5654 63.5201 52.3954 63.5401 52.2754C63.5701 52.0654 63.5201 51.9154 63.3701 51.8254C63.1901 51.7154 63.0301 51.6954 62.8801 51.7754C62.7301 51.8554 62.5801 52.0254 62.4301 52.2654C62.2601 52.5354 62.2001 52.7754 62.2601 52.9754C62.3101 53.1254 62.4101 53.2554 62.5601 53.3954L61.8601 54.5054C61.4901 54.2354 61.2501 53.9354 61.1201 53.5854C60.9301 53.0354 61.0701 52.3954 61.5301 51.6554C61.8301 51.1754 62.2001 50.8054 62.6301 50.5554C63.0601 50.3054 63.5301 50.3454 64.0601 50.6754L66.0701 51.9454C66.2101 52.0354 66.3801 52.1354 66.5801 52.2554C66.7301 52.3454 66.8501 52.3854 66.9301 52.3754C67.0101 52.3754 67.0901 52.3454 67.1701 52.2854L67.3401 52.3954L66.5501 53.6354C66.4401 53.6154 66.3401 53.5854 66.2501 53.5454C66.1601 53.5054 66.0701 53.4654 65.9601 53.4054C66.0301 53.6754 66.0601 53.9454 66.0501 54.2354C66.0301 54.5754 65.9301 54.8954 65.7301 55.2054C65.4801 55.6054 65.1601 55.8654 64.7701 55.9754C64.3801 56.0954 63.9801 56.0154 63.5601 55.7554C63.0201 55.4154 62.7701 54.9554 62.7901 54.3854C62.8001 54.0754 62.9201 53.6754 63.1501 53.1954L63.3501 52.7954ZM64.3201 52.4354C64.3201 52.5354 64.3101 52.6354 64.2901 52.7254C64.2701 52.8154 64.2301 52.9354 64.1701 53.0854L64.0501 53.3754C63.9401 53.6454 63.8801 53.8554 63.8701 53.9954C63.8601 54.2454 63.9701 54.4354 64.1901 54.5754C64.3901 54.6954 64.5601 54.7354 64.7201 54.6754C64.8801 54.6254 65.0101 54.5154 65.1001 54.3554C65.2601 54.1054 65.3301 53.8254 65.3201 53.5254C65.3101 53.2254 65.1201 52.9454 64.7401 52.6954L64.3201 52.4354Z" fill="white"/>
</g>
<mask id="mask18_16455_55086" style="mask-type:luminance" maskUnits="userSpaceOnUse" x="6" y="4" width="68" height="68">
<path d="M6.29004 37.9654C6.45004 56.1254 21.42 71.3954 40.03 71.3954C58.64 71.3954 73.7 56.6254 73.7 37.9754C73.7 19.3154 58.61 4.19543 40 4.19543C21.39 4.19543 6.29004 19.3154 6.29004 37.9654Z" fill="white"/>
</mask>
<g mask="url(#mask18_16455_55086)">
<path d="M64.19 46.2155C64.2 46.1955 64.2099 46.1655 64.2399 46.1155L65.5199 46.6455C65.4799 46.7155 65.4399 46.7855 65.4199 46.8455C65.3999 46.9055 65.3699 46.9555 65.3499 46.9955C65.1399 47.4955 65.1699 47.9055 65.4199 48.2155C65.5699 48.3855 65.8299 48.5555 66.2099 48.7155L68.5 49.6655L67.98 50.9255L63.2 48.9455L63.6899 47.7555L64.5199 48.1055C64.2799 47.7855 64.13 47.5255 64.08 47.3255C63.98 47.0055 64.01 46.6655 64.16 46.2855C64.18 46.2455 64.18 46.2255 64.19 46.2155Z" fill="white"/>
</g>
<mask id="mask19_16455_55086" style="mask-type:luminance" maskUnits="userSpaceOnUse" x="6" y="4" width="68" height="68">
<path d="M6.29004 37.9654C6.45004 56.1254 21.42 71.3954 40.03 71.3954C58.64 71.3954 73.7 56.6254 73.7 37.9754C73.7 19.3154 58.61 4.19543 40 4.19543C21.39 4.19543 6.29004 19.3154 6.29004 37.9654Z" fill="white"/>
</mask>
<g mask="url(#mask19_16455_55086)">
<path d="M65.25 42.8954C65.44 42.6854 65.67 42.5354 65.93 42.4354L63.51 41.9154L63.8 40.5754L70.64 42.0354L70.37 43.3254L69.67 43.1754C69.93 43.4254 70.1 43.6954 70.19 43.9654C70.28 44.2354 70.28 44.5554 70.2 44.9054C70.07 45.4954 69.73 45.9454 69.16 46.2454C68.59 46.5454 67.94 46.6154 67.19 46.4554C66.33 46.2754 65.69 45.9254 65.28 45.4254C64.87 44.9254 64.74 44.3354 64.88 43.6654C64.93 43.3554 65.06 43.0954 65.25 42.8954ZM68.92 43.3354C68.68 43.0854 68.34 42.9054 67.9 42.8154C67.28 42.6854 66.81 42.7454 66.47 43.0054C66.27 43.1654 66.14 43.3654 66.09 43.6254C66.01 44.0154 66.09 44.3254 66.35 44.5754C66.6 44.8154 66.95 44.9854 67.38 45.0754C67.85 45.1754 68.24 45.1654 68.56 45.0354C68.88 44.9154 69.08 44.6654 69.16 44.2854C69.24 43.9054 69.16 43.5954 68.92 43.3354Z" fill="white"/>
</g>
<mask id="mask20_16455_55086" style="mask-type:luminance" maskUnits="userSpaceOnUse" x="6" y="4" width="68" height="68">
<path d="M6.29004 37.9654C6.45004 56.1254 21.42 71.3954 40.03 71.3954C58.64 71.3954 73.7 56.6254 73.7 37.9754C73.7 19.3154 58.61 4.19543 40 4.19543C21.39 4.19543 6.29004 19.3154 6.29004 37.9654Z" fill="white"/>
</mask>
<g mask="url(#mask20_16455_55086)">
<path d="M14.5501 27.8054C12.6801 26.7754 12.1301 24.8754 13.0601 23.1754C13.9901 21.4754 15.9001 20.9154 17.7701 21.9354C19.6401 22.9654 20.1901 24.8654 19.2601 26.5654C18.3201 28.2654 16.4201 28.8354 14.5501 27.8054ZM15.2001 26.6154C16.3901 27.2654 17.5701 27.1554 18.2101 25.9954C18.8501 24.8354 18.3101 23.7754 17.1201 23.1254C15.9301 22.4754 14.7501 22.5854 14.1101 23.7454C13.4801 24.9054 14.0101 25.9654 15.2001 26.6154Z" fill="white"/>
</g>
<mask id="mask21_16455_55086" style="mask-type:luminance" maskUnits="userSpaceOnUse" x="6" y="4" width="68" height="68">
<path d="M6.29004 37.9654C6.45004 56.1254 21.42 71.3954 40.03 71.3954C58.64 71.3954 73.7 56.6254 73.7 37.9754C73.7 19.3154 58.61 4.19543 40 4.19543C21.39 4.19543 6.29004 19.3154 6.29004 37.9654Z" fill="white"/>
</mask>
<g mask="url(#mask21_16455_55086)">
<path d="M23.9801 20.2754L21.1901 19.5354L20.3201 20.4454L22.1401 22.1954L21.2801 23.0954L16.3801 18.3854L18.1001 16.5954C19.0101 15.6554 20.0701 15.2454 21.1401 16.2654C21.8901 16.9954 21.9201 17.7354 21.7701 18.4754L24.8901 19.3454L23.9801 20.2754ZM17.9801 18.2154L19.4701 19.6454L20.1001 18.9854C20.8801 18.1754 20.7301 17.6854 20.2901 17.2654C19.8401 16.8254 19.3901 16.7454 18.6501 17.5154L17.9801 18.2154Z" fill="white"/>
</g>
<mask id="mask22_16455_55086" style="mask-type:luminance" maskUnits="userSpaceOnUse" x="6" y="4" width="68" height="68">
<path d="M6.29004 37.9654C6.45004 56.1254 21.42 71.3954 40.03 71.3954C58.64 71.3954 73.7 56.6254 73.7 37.9754C73.7 19.3154 58.61 4.19543 40 4.19543C21.39 4.19543 6.29004 19.3154 6.29004 37.9654Z" fill="white"/>
</mask>
<g mask="url(#mask22_16455_55086)">
<path d="M23.14 16.4054C22.01 14.6054 22.46 12.6754 24.15 11.6254C24.71 11.2754 25.54 10.9454 26.09 10.8854L26.6 11.9654C26.04 12.0654 25.32 12.3054 24.8 12.6254C23.6 13.3754 23.58 14.5554 24.28 15.6754C25.01 16.8554 26.13 17.3054 27.33 16.5654C27.57 16.4154 27.82 16.2154 28.06 15.9854L27.42 14.9554L26.78 15.3554L26.24 14.4854L27.93 13.4354L29.53 16.0054C29.26 16.5054 28.48 17.2654 27.82 17.6754C26.22 18.6554 24.27 18.2254 23.14 16.4054Z" fill="white"/>
</g>
<mask id="mask23_16455_55086" style="mask-type:luminance" maskUnits="userSpaceOnUse" x="6" y="4" width="68" height="68">
<path d="M6.29004 37.9654C6.45004 56.1254 21.42 71.3954 40.03 71.3954C58.64 71.3954 73.7 56.6254 73.7 37.9754C73.7 19.3154 58.61 4.19543 40 4.19543C21.39 4.19543 6.29004 19.3154 6.29004 37.9654Z" fill="white"/>
</mask>
<g mask="url(#mask23_16455_55086)">
<path d="M34.79 14.6555L33.75 13.2655L31.59 13.9355L31.52 15.6755L30.29 16.0655L30.57 8.85549L31.69 8.50549L36.02 14.2655L34.79 14.6555ZM31.71 10.5555L31.64 12.6655L32.98 12.2455L31.71 10.5555Z" fill="white"/>
</g>
<mask id="mask24_16455_55086" style="mask-type:luminance" maskUnits="userSpaceOnUse" x="6" y="4" width="68" height="68">
<path d="M6.29004 37.9654C6.45004 56.1254 21.42 71.3954 40.03 71.3954C58.64 71.3954 73.7 56.6254 73.7 37.9754C73.7 19.3154 58.61 4.19543 40 4.19543C21.39 4.19543 6.29004 19.3154 6.29004 37.9654Z" fill="white"/>
</mask>
<g mask="url(#mask24_16455_55086)">
<path d="M41.3101 14.1354L38.1401 9.52544L38.2101 14.1854L36.9701 14.2054L36.8701 7.40544L38.0901 7.38544L41.0501 11.7354L40.9901 7.34544L42.2301 7.32544L42.3301 14.1254L41.3101 14.1354Z" fill="white"/>
</g>
<mask id="mask25_16455_55086" style="mask-type:luminance" maskUnits="userSpaceOnUse" x="24" y="-46" width="68" height="68">
<path d="M89.9937 -0.792312C96.0829 -17.903 87.2758 -37.3794 69.8032 -43.7765C52.3208 -50.1753 33.1069 -41.474 26.7011 -23.9522C20.2854 -6.43214 29.2595 12.962 46.7436 19.3511C64.2162 25.7482 83.5878 16.7295 89.9937 -0.792312Z" fill="white"/>
</mask>
<g mask="url(#mask25_16455_55086)">
<path d="M44.6907 7.72405L43.5059 14.4102L44.7269 14.6265L45.9117 7.94043L44.6907 7.72405Z" fill="white"/>
</g>
<mask id="mask26_16455_55086" style="mask-type:luminance" maskUnits="userSpaceOnUse" x="6" y="4" width="68" height="68">
<path d="M6.29004 37.9654C6.45004 56.1254 21.42 71.3954 40.03 71.3954C58.64 71.3954 73.7 56.6254 73.7 37.9754C73.7 19.3154 58.61 4.19543 40 4.19543C21.39 4.19543 6.29004 19.3154 6.29004 37.9654Z" fill="white"/>
</mask>
<g mask="url(#mask26_16455_55086)">
<path d="M46.7101 11.4854C47.4301 9.47542 49.2301 8.63542 51.0601 9.29542C51.7301 9.53542 52.3601 9.92542 52.7401 10.3254L52.2101 11.3954C51.7601 10.9954 51.3201 10.6654 50.6501 10.4254C49.4101 9.97542 48.4501 10.6754 47.9901 11.9554C47.5301 13.2354 47.8301 14.3854 49.0701 14.8254C49.7401 15.0654 50.2801 15.0854 50.8901 15.0654L50.6201 16.2254C50.0701 16.2854 49.3301 16.1854 48.6701 15.9454C46.8401 15.2854 45.9901 13.4854 46.7101 11.4854Z" fill="white"/>
</g>
<mask id="mask27_16455_55086" style="mask-type:luminance" maskUnits="userSpaceOnUse" x="6" y="4" width="68" height="68">
<path d="M6.29004 37.9654C6.45004 56.1254 21.42 71.3954 40.03 71.3954C58.64 71.3954 73.7 56.6254 73.7 37.9754C73.7 19.3154 58.61 4.19543 40 4.19543C21.39 4.19543 6.29004 19.3154 6.29004 37.9654Z" fill="white"/>
</mask>
<g mask="url(#mask27_16455_55086)">
<path d="M53.4299 18.3254L56.3399 14.2154C56.0399 14.2054 55.7399 14.1454 55.4399 14.0054L55.9599 13.0854C56.3499 13.2554 57.1699 13.2154 57.5899 12.9454L58.3699 13.4954L54.4399 19.0354L53.4299 18.3254Z" fill="white"/>
</g>
<mask id="mask28_16455_55086" style="mask-type:luminance" maskUnits="userSpaceOnUse" x="6" y="4" width="68" height="68">
<path d="M6.29004 37.9654C6.45004 56.1254 21.42 71.3954 40.03 71.3954C58.64 71.3954 73.7 56.6254 73.7 37.9754C73.7 19.3154 58.61 4.19543 40 4.19543C21.39 4.19543 6.29004 19.3154 6.29004 37.9654Z" fill="white"/>
</mask>
<g mask="url(#mask28_16455_55086)">
<path d="M57.8799 17.4354C59.4599 15.9654 61.4099 15.8854 62.5299 17.0854C63.6299 18.2654 63.3899 20.1054 61.8899 21.4954C60.3099 22.9654 58.4699 23.0954 57.2799 21.8054C56.1299 20.5854 56.3699 18.8354 57.8799 17.4354ZM58.7299 18.3454C57.5399 19.4454 57.4999 20.4154 58.1099 21.0654C58.7599 21.7654 59.7699 21.7954 61.0599 20.6054C62.2399 19.5054 62.2799 18.4254 61.7199 17.8154C61.1499 17.2154 59.9999 17.1654 58.7299 18.3454Z" fill="white"/>
</g>
<mask id="mask29_16455_55086" style="mask-type:luminance" maskUnits="userSpaceOnUse" x="6" y="4" width="68" height="68">
<path d="M6.29004 37.9654C6.45004 56.1254 21.42 71.3954 40.03 71.3954C58.64 71.3954 73.7 56.6254 73.7 37.9754C73.7 19.3154 58.61 4.19543 40 4.19543C21.39 4.19543 6.29004 19.3154 6.29004 37.9654Z" fill="white"/>
</mask>
<g mask="url(#mask29_16455_55086)">
<path d="M62.7 22.9454C64.61 21.9554 66.52 22.4054 67.27 23.8554C68.01 25.2854 67.29 26.9954 65.47 27.9354C63.56 28.9254 61.75 28.5654 60.94 26.9954C60.17 25.5054 60.87 23.8854 62.7 22.9454ZM63.27 24.0454C61.83 24.7854 61.53 25.7154 61.94 26.5054C62.38 27.3454 63.35 27.6554 64.91 26.8554C66.34 26.1154 66.67 25.0854 66.29 24.3454C65.91 23.6054 64.82 23.2454 63.27 24.0454Z" fill="white"/>
</g>
<path d="M22.5 68.7955C23.51 69.3355 23.89 70.5855 23.35 71.5955C22.81 72.6055 21.56 72.9855 20.55 72.4455C19.54 71.9055 19.16 70.6555 19.7 69.6455C20.24 68.6355 21.49 68.2655 22.5 68.7955ZM23.03 71.4255C23.48 70.5755 23.18 69.5355 22.35 69.0955C21.52 68.6555 20.48 68.9755 20.03 69.8255C19.58 70.6755 19.88 71.7155 20.72 72.1555C21.54 72.5955 22.57 72.2655 23.03 71.4255ZM22.32 71.5455C21.98 72.0155 21.43 72.0555 20.94 71.7955C20.27 71.4355 20.11 70.7555 20.47 70.0855C20.83 69.4155 21.48 69.1755 22.15 69.5255C22.64 69.7855 22.92 70.2555 22.71 70.8055L22.41 70.6455C22.49 70.3555 22.35 70.0155 21.99 69.8155C21.53 69.5655 21.04 69.7855 20.79 70.2555C20.54 70.7155 20.63 71.2455 21.1 71.4955C21.46 71.6955 21.83 71.6155 22.02 71.3855L22.32 71.5455Z" fill="#4A4546"/>
<path d="M26.9299 70.8954L26.6799 71.5054L25.8699 71.1754L24.6099 74.2554L23.8699 73.9554L25.1299 70.8754L24.3199 70.5454L24.5699 69.9354L26.9299 70.8954Z" fill="#4A4546"/>
<path d="M26.78 73.5755L26.71 73.8055C26.6 74.1355 26.58 74.4955 26.85 74.5855C27.09 74.6655 27.26 74.5155 27.42 74.1755L28.08 74.3955C27.83 75.0455 27.39 75.3155 26.7 75.0855C25.64 74.7355 25.87 73.9055 26.11 73.1955C26.36 72.4355 26.75 71.7755 27.73 72.1055C28.58 72.3855 28.58 73.0255 28.29 73.8955L28.24 74.0555L26.78 73.5755ZM27.67 73.3955C27.8 72.9555 27.83 72.6955 27.52 72.5955C27.23 72.4955 27.04 72.7755 26.95 73.0355L26.91 73.1455L27.67 73.3955Z" fill="#4A4546"/>
<path d="M30.6501 73.0255L31.4301 73.2255L30.3201 74.4455L30.7301 76.1455L29.9501 75.9455L29.7601 74.8855L29.0901 75.7255L28.3101 75.5255L29.4801 74.2255L29.0801 72.6255L29.8601 72.8255L30.0401 73.8055L30.6501 73.0255Z" fill="#4A4546"/>
<path d="M32.2699 72.5055L33.0299 72.6455L32.8699 73.4855L33.3099 73.5655L33.2099 74.0855L32.7699 74.0055L32.4699 75.6055C32.4299 75.8355 32.4599 75.9355 32.6799 75.9755C32.7399 75.9855 32.7999 75.9955 32.8499 75.9955L32.7499 76.5255C32.5799 76.5155 32.4299 76.4955 32.2499 76.4655C31.6599 76.3555 31.5799 76.1555 31.6899 75.5555L32.0099 73.8655L31.6299 73.7955L31.7299 73.2755L32.1099 73.3455L32.2699 72.5055Z" fill="#4A4546"/>
<path d="M33.7999 73.6455L34.5599 73.7555L34.1399 76.7255L33.3799 76.6155L33.7999 73.6455ZM33.9499 72.6255L34.7099 72.7355L34.6199 73.3855L33.8599 73.2755L33.9499 72.6255Z" fill="#4A4546"/>
<path d="M35.4401 72.8655L36.2101 72.9355L35.8301 76.8955L35.0601 76.8255L35.4401 72.8655Z" fill="#4A4546"/>
<path d="M37.44 75.6255L37.43 75.8655C37.42 76.2155 37.5 76.5655 37.78 76.5755C38.04 76.5855 38.15 76.3955 38.21 76.0255L38.9 76.0555C38.85 76.7455 38.5 77.1255 37.77 77.0955C36.66 77.0555 36.64 76.1955 36.67 75.4455C36.7 74.6455 36.89 73.9055 37.92 73.9455C38.82 73.9755 38.99 74.5855 38.96 75.5055L38.95 75.6755L37.44 75.6255ZM38.24 75.1955C38.24 74.7355 38.19 74.4755 37.88 74.4655C37.57 74.4555 37.47 74.7655 37.46 75.0455V75.1655L38.24 75.1955Z" fill="#4A4546"/>
<path d="M39.6399 73.0855L41.6999 73.0155L41.7199 73.4555L40.1499 73.5055L40.1899 74.7555L41.6699 74.7055L41.6899 75.1455L40.2099 75.1955L40.2599 76.6255L41.8899 76.5655L41.9099 77.0055L39.7899 77.0755L39.6399 73.0855Z" fill="#4A4546"/>
<path d="M42.22 73.9655L42.73 73.9155L43.38 74.9155L43.81 73.7955L44.32 73.7455L43.69 75.2555L44.66 76.7155L44.15 76.7655L43.43 75.6555L42.98 76.8955L42.47 76.9455L43.12 75.3155L42.22 73.9655Z" fill="#4A4546"/>
<path d="M46.43 74.3154C46.38 74.0254 46.21 73.7254 45.86 73.7854C45.57 73.8354 45.31 74.0254 45.5 75.1054C45.57 75.4954 45.71 76.2554 46.26 76.1654C46.66 76.0954 46.67 75.6654 46.61 75.3454L47.07 75.2654C47.15 75.7354 47.03 76.4054 46.3 76.5354C45.58 76.6554 45.19 76.2154 45.01 75.2054C44.88 74.4654 44.88 73.5954 45.78 73.4354C46.58 73.2954 46.83 73.9054 46.89 74.2454L46.43 74.3154Z" fill="#4A4546"/>
<path d="M47.1599 72.2255L47.6099 72.1155L47.9299 73.4055H47.9399C47.9999 73.1355 48.2799 72.8855 48.5299 72.8255C49.2799 72.6355 49.4199 73.2155 49.5099 73.5555L50.0299 75.6055L49.5799 75.7155L49.0799 73.7155C49.0199 73.4955 48.9199 73.1355 48.5099 73.2355C48.2699 73.2955 47.9799 73.5455 48.0799 73.9655L48.5799 75.9655L48.1299 76.0755L47.1599 72.2255Z" fill="#4A4546"/>
<path d="M50.2999 73.3655C50.0799 72.7255 50.2699 72.3455 50.9399 72.1155C51.7999 71.8255 51.9799 72.3455 52.0699 72.6455L52.5899 74.2255C52.6299 74.3455 52.6599 74.4555 52.7999 74.4055C52.8599 74.3855 52.8799 74.3655 52.8999 74.3455L52.9999 74.6655C52.9699 74.6855 52.8599 74.7355 52.7499 74.7755C52.5799 74.8355 52.3699 74.9055 52.2299 74.5455H52.2199C52.1599 74.8455 51.9399 75.0955 51.6699 75.1755C51.1399 75.3455 50.7899 75.1155 50.6199 74.6055C50.4899 74.2055 50.5699 73.8755 50.8899 73.6455L51.4299 73.2655C51.7199 73.0555 51.6899 72.9655 51.6099 72.7255C51.5199 72.4555 51.3099 72.3555 51.0199 72.4555C50.5299 72.6155 50.6799 73.0755 50.7199 73.1755L50.7299 73.2055L50.2999 73.3655ZM51.8199 73.3455C51.7099 73.5755 51.3299 73.7455 51.1699 73.9355C51.0599 74.0755 51.0199 74.2055 51.0999 74.4555C51.1999 74.7455 51.3599 74.9055 51.6599 74.8055C51.9499 74.7055 52.1499 74.3655 52.0499 74.0755L51.8199 73.3455Z" fill="#4A4546"/>
<path d="M52.6099 71.6154L53.0199 71.4454L53.1599 71.7654H53.1699C53.1799 71.4654 53.4099 71.2054 53.6699 71.0954C54.3999 70.7954 54.6299 71.3454 54.7599 71.6654L55.5799 73.6254L55.1499 73.8054L54.3599 71.9054C54.2699 71.6954 54.1099 71.3554 53.7199 71.5154C53.4899 71.6154 53.2399 71.8954 53.4099 72.2954L54.1999 74.1954L53.7699 74.3754L52.6099 71.6154Z" fill="#4A4546"/>
<path d="M58.18 72.1255C58.58 72.9155 58.36 73.3955 57.83 73.6655C57.67 73.7455 57.02 74.0755 56.62 73.4455L57.04 73.2355C57.18 73.4655 57.42 73.4655 57.64 73.3555C58.18 73.0855 57.95 72.6755 57.85 72.4955L57.67 72.1455H57.66C57.68 72.4155 57.5 72.6755 57.24 72.8055C56.46 73.2055 55.92 72.2455 55.74 71.8955C55.37 71.1755 55.22 70.3955 55.9 70.0555C56.19 69.9055 56.52 69.9855 56.68 70.1655H56.69L56.52 69.8255L56.92 69.6255L58.18 72.1255ZM56.17 71.6855C56.39 72.1155 56.73 72.6255 57.15 72.4155C57.6 72.1855 57.47 71.7155 57.2 71.1655C56.94 70.6455 56.58 70.1655 56.13 70.3955C55.74 70.5855 55.85 71.0455 56.17 71.6855Z" fill="#4A4546"/>
<path d="M58.75 70.3655C58.99 70.7555 59.34 71.3455 59.84 71.0555C60.22 70.8255 60.03 70.3955 59.91 70.2055L60.31 69.9655C60.47 70.2355 60.7 70.9655 60 71.3955C59.38 71.7755 58.85 71.4955 58.32 70.6255C57.93 69.9855 57.61 69.1655 58.4 68.6955C59.18 68.2255 59.67 68.8655 60 69.4055L60.1 69.5655L58.75 70.3655ZM59.49 69.4855L59.41 69.3455C59.24 69.0555 58.94 68.7755 58.59 68.9855C58.17 69.2355 58.43 69.7855 58.53 69.9355L58.59 70.0355L59.49 69.4855Z" fill="#4A4546"/>
</g>
<defs>
<clipPath id="clip0_16455_55086">
<rect width="80" height="80" fill="white" transform="translate(0 0.29541)"/>
</clipPath>
</defs>
</svg>
