<svg width="80" height="81" viewBox="0 0 80 81" fill="none" xmlns="http://www.w3.org/2000/svg">
<mask id="mask0_16455_55084" style="mask-type:luminance" maskUnits="userSpaceOnUse" x="6" y="3" width="68" height="68">
<path d="M73.5099 36.8054C73.5099 55.4054 58.4299 70.4954 39.8299 70.4954C21.2299 70.4954 6.13989 55.4154 6.13989 36.8054C6.13989 18.1954 21.2199 3.11542 39.8199 3.11542C58.4299 3.11542 73.5099 18.1954 73.5099 36.8054Z" fill="white"/>
</mask>
<g mask="url(#mask0_16455_55084)">
<path d="M73.5099 3.11542H6.13989V70.4854H73.5099V3.11542Z" fill="white"/>
</g>
<mask id="mask1_16455_55084" style="mask-type:luminance" maskUnits="userSpaceOnUse" x="6" y="3" width="68" height="68">
<path d="M73.5099 36.8054C73.5099 55.4054 58.4299 70.4954 39.8299 70.4954C21.2299 70.4954 6.13989 55.4154 6.13989 36.8054C6.13989 18.1954 21.2199 3.11542 39.8199 3.11542C58.4299 3.11542 73.5099 18.1954 73.5099 36.8054Z" fill="white"/>
</mask>
<g mask="url(#mask1_16455_55084)">
<path d="M39.8199 3.11542C21.2199 3.11542 6.13989 18.1954 6.13989 36.7954C6.13989 55.3954 21.2199 70.4854 39.8299 70.4854C58.4399 70.4854 73.5099 55.4054 73.5099 36.7954C73.5099 18.1954 58.4299 3.11542 39.8199 3.11542ZM39.8199 69.8854C21.5499 69.8854 6.73989 55.0754 6.73989 36.8054C6.73989 18.5354 21.5499 3.72542 39.8199 3.72542C58.0899 3.72542 72.8999 18.5254 72.8999 36.8054C72.8999 55.0854 58.0899 69.8854 39.8199 69.8854Z" fill="#058F39"/>
</g>
<mask id="mask2_16455_55084" style="mask-type:luminance" maskUnits="userSpaceOnUse" x="6" y="3" width="68" height="68">
<path d="M73.5099 36.8054C73.5099 55.4054 58.4299 70.4954 39.8299 70.4954C21.2299 70.4954 6.13989 55.4154 6.13989 36.8054C6.13989 18.1954 21.2199 3.11542 39.8199 3.11542C58.4299 3.11542 73.5099 18.1954 73.5099 36.8054Z" fill="white"/>
</mask>
<g mask="url(#mask2_16455_55084)">
<path d="M73.5099 36.8054H6.13989V70.4954H73.5099V36.8054Z" fill="#4A4546"/>
</g>
<path d="M39.8198 59.0354C52.0971 59.0354 62.0498 49.0827 62.0498 36.8054C62.0498 24.5281 52.0971 14.5754 39.8198 14.5754C27.5426 14.5754 17.5898 24.5281 17.5898 36.8054C17.5898 49.0827 27.5426 59.0354 39.8198 59.0354Z" fill="white"/>
<path d="M51.0599 38.2254C51.0399 37.6954 50.9999 37.1754 50.9299 36.6554C50.7899 35.6154 50.5499 34.5854 50.2599 33.5854L50.2299 33.5054C49.9399 32.5154 49.5899 31.5454 49.1999 30.5954C48.9999 30.1054 48.7999 29.6154 48.5799 29.1354C48.4699 28.8954 48.3599 28.6554 48.2499 28.4154L47.9199 27.6954C47.4599 26.7354 46.9699 25.8054 46.4599 24.8754C45.9499 23.9554 45.4199 23.0454 44.8699 22.1554L44.8599 22.1354C43.4299 19.8154 41.8899 17.5554 40.3299 15.3254L40.2699 15.2454L40.2199 15.3254C39.0599 17.3454 37.7999 19.3154 36.5399 21.2754L36.6299 21.3354L37.6399 19.9054C37.9799 19.4254 38.3099 18.9454 38.6399 18.4654C39.2999 17.4954 39.6399 16.9854 40.2599 15.9954L42.1899 18.9854L42.7299 19.8554L43.2599 20.7254C43.6099 21.2954 43.9499 21.8654 44.2899 22.4454L44.3099 22.4754C44.8399 23.3854 45.3499 24.2954 45.8299 25.2254C46.0699 25.6854 46.3099 26.1554 46.5399 26.6254L46.8799 27.3254L47.0499 27.6754L47.2099 28.0254L47.5299 28.7554L47.6899 29.1154L47.7699 29.2954L47.7999 29.3754L47.8399 29.4654C48.0399 29.9454 48.2399 30.4254 48.4199 30.9154C48.7899 31.8854 49.1199 32.8654 49.3899 33.8554L49.4199 33.9754C49.5399 34.4254 49.6499 34.8754 49.7399 35.3254C49.8399 35.8154 49.9299 36.3054 49.9899 36.8054C50.0499 37.2954 50.0899 37.7854 50.0999 38.2854C50.1099 38.7754 50.0899 39.2654 50.0399 39.7454C49.9899 40.2254 49.9099 40.7054 49.7899 41.1654C49.6699 41.6254 49.5199 42.0854 49.3399 42.5154L49.1999 42.8254C49.1499 42.9354 49.0799 43.0554 49.0299 43.1754L48.9999 43.2254L48.9699 43.2854L48.8799 43.4454L48.6999 43.7554C48.6399 43.8554 48.5699 43.9554 48.5099 44.0554L48.3099 44.3554C48.2499 44.4554 48.1699 44.5454 48.0999 44.6454L47.8799 44.9254C47.5699 45.2954 47.2499 45.6554 46.8999 45.9854C46.7299 46.1554 46.5399 46.3054 46.3599 46.4654C46.1799 46.6254 45.9799 46.7754 45.7899 46.9154C45.6899 46.9854 45.5999 47.0654 45.4999 47.1354L45.1999 47.3354L44.8999 47.5354L44.5799 47.7154L44.2599 47.9054C44.1499 47.9654 44.0399 48.0154 43.9399 48.0754C43.7199 48.1854 43.5099 48.2954 43.2799 48.3954C43.0599 48.4854 42.8399 48.5954 42.6099 48.6754C42.3799 48.7554 42.1599 48.8554 41.9199 48.9154L41.5699 49.0154L41.3999 49.0654L41.1999 49.0954L40.8499 49.1754L40.6699 49.2154C40.6099 49.2254 40.5599 49.2354 40.4999 49.2454L40.1599 49.2954C40.0499 49.3154 39.9399 49.3354 39.7999 49.3454L39.4099 49.3854L39.2199 49.4054H39.1799H39.1599H39.0699C38.7199 49.4254 38.3699 49.4254 38.0199 49.4254C38.3199 47.4954 38.5999 46.3654 39.4999 43.0354C39.4999 43.0354 39.5099 42.9754 39.5199 42.9554C39.5499 42.9454 39.6199 42.9254 39.6199 42.9254C41.6299 42.3954 43.3799 40.2954 44.4799 38.6554C45.2599 37.4954 45.7199 36.5554 45.7199 36.5554C43.5699 39.1454 41.6799 40.5154 40.4999 41.1454C40.2399 41.2854 40.0099 41.3854 39.8199 41.4554C39.8399 41.3954 39.8899 41.1554 39.9599 40.7954C40.2499 39.3854 40.8499 36.1054 40.8599 34.4954C43.5899 32.6754 44.1599 28.8054 44.1599 28.8054C44.0399 28.7954 43.4299 30.7954 40.9599 32.7454C40.9499 32.3754 40.9399 32.0054 40.9299 31.6454C40.9299 31.6454 40.9299 31.6454 40.9299 31.6354C40.8699 30.0254 40.7699 28.5554 40.6699 27.2854C40.4199 24.4254 40.1299 22.5954 40.1299 22.5954C40.1299 22.5954 39.8899 24.4954 39.7299 27.2254C39.6399 28.8554 39.5699 30.7854 39.5899 32.7854C37.2699 30.6054 36.6799 28.4154 36.5699 28.4154C36.5699 28.4154 36.8699 32.5054 39.5399 34.5554C39.5199 34.7654 39.4999 34.9854 39.4699 35.1954V35.2054C39.2699 36.8954 38.9399 38.6854 38.6499 39.9454C38.5299 40.4454 38.4299 40.8654 38.3299 41.1654C38.1999 41.0754 36.2499 39.8054 34.4199 37.2154L32.7499 34.2854C32.7499 34.2854 33.0699 35.3454 33.6599 36.7254C34.5499 38.7954 36.0499 41.5954 37.9799 42.5754C37.6599 43.6254 37.3299 44.3254 37.0099 45.1854V45.1954C36.7299 45.9354 36.0699 48.2754 35.8099 49.3554C35.1799 49.2854 34.5499 49.1754 33.9599 49.0054C33.6399 48.9154 33.3199 48.8054 33.0399 48.6754C32.9699 48.6454 32.9199 48.6254 32.8299 48.5754L32.7099 48.5154L32.6099 48.4554L32.3699 48.3254L32.2499 48.2554L32.2199 48.2354L32.1699 48.2054C31.8899 48.0354 31.6299 47.8354 31.3699 47.6254C31.1199 47.4054 30.8799 47.1754 30.6499 46.9254C30.4299 46.6754 30.2099 46.4154 30.0199 46.1354C29.8299 45.8554 29.6399 45.5754 29.4899 45.2754C29.4099 45.1254 29.3399 44.9754 29.2599 44.8254C29.1899 44.6654 29.1199 44.5154 29.0699 44.3654C29.0399 44.2954 29.0099 44.2154 28.9799 44.1254L28.8999 43.8954L28.8199 43.6254L28.7899 43.5154L28.7599 43.3854C28.5899 42.7154 28.4799 42.0254 28.4499 41.3354C28.4099 40.6554 28.4699 39.9454 28.5499 39.2354C28.5899 38.8754 28.6399 38.5154 28.6999 38.1554C28.7499 37.8354 28.8299 37.4854 28.9199 37.1354C29.0999 36.4354 29.3099 35.7254 29.5299 35.0254C29.6399 34.6754 29.7499 34.3154 29.8599 33.9854C29.9699 33.6654 30.1199 33.3254 30.2599 32.9954C30.8599 31.6554 31.5099 30.3254 32.1899 29.0254C32.3599 28.6954 32.5399 28.3754 32.7099 28.0554L32.9799 27.5754L33.2499 27.0954L34.3799 25.1854C34.7599 24.5454 35.1399 23.9054 35.5099 23.2654L36.6299 21.3354L36.5399 21.2754L34.1299 25.0154L32.9299 26.8854C32.5299 27.5154 32.1599 28.1554 31.7899 28.8054C31.4199 29.4554 31.0699 30.1054 30.7199 30.7654C30.3699 31.4254 30.0299 32.0854 29.7199 32.7554C29.5599 33.0954 29.3999 33.4254 29.2699 33.7754C29.1399 34.1254 29.0199 34.4754 28.8999 34.8254C28.6599 35.5254 28.4299 36.2354 28.2299 36.9554C28.1299 37.3154 28.0299 37.6754 27.9699 38.0454C27.9099 38.4154 27.8499 38.7754 27.7899 39.1454C27.6899 39.8854 27.6099 40.6254 27.6399 41.3754C27.6699 42.1254 27.7699 42.8654 27.9399 43.5954C28.0999 44.3254 28.3699 45.0354 28.7099 45.7054C29.0499 46.3754 29.4699 46.9954 29.9699 47.5654C30.2199 47.8454 30.4799 48.1154 30.7599 48.3554C31.0399 48.5954 31.3399 48.8354 31.6599 49.0354C31.8199 49.1454 31.9799 49.2254 32.1499 49.3154C32.3099 49.4054 32.4699 49.4954 32.6499 49.5754C32.9899 49.7354 33.3499 49.8554 33.6999 49.9654C34.3299 50.1554 34.9699 50.2754 35.6199 50.3554L34.8899 53.9654C34.8099 54.2154 34.7199 54.4754 34.6399 54.7254L34.6099 54.8154L34.6899 54.8454C34.9699 54.9654 35.2499 55.0754 35.5399 55.1654C35.8299 55.2554 36.1199 55.3454 36.4299 55.3754C36.5899 55.3854 36.7499 55.4054 36.9199 55.3354C37.0099 55.3054 37.0999 55.2154 37.1199 55.1154C37.1499 55.0054 37.1399 54.9454 37.1499 54.8654C37.1699 54.5754 37.1999 54.2754 37.2299 53.9754C37.2899 53.4554 37.3399 52.9354 37.4099 52.4154L37.8299 50.5054C38.2599 50.5054 38.6899 50.5054 39.1199 50.4854C39.3899 50.4754 39.6399 50.4454 39.9099 50.4254C40.0399 50.4154 40.1699 50.3954 40.2999 50.3754L40.6899 50.3154C41.2099 50.2154 41.7199 50.0954 42.2199 49.9354C42.4699 49.8654 42.7199 49.7654 42.9699 49.6754C43.2199 49.5854 43.4599 49.4754 43.6999 49.3754C43.9399 49.2754 44.1799 49.1554 44.4099 49.0354C44.5299 48.9754 44.6499 48.9154 44.7599 48.8554L45.0999 48.6554L45.4399 48.4554L45.7699 48.2354L46.0999 48.0154C46.2099 47.9454 46.3099 47.8554 46.4199 47.7754C46.6299 47.6154 46.8399 47.4554 47.0399 47.2854C47.2399 47.1154 47.4399 46.9454 47.6299 46.7554C48.0099 46.3954 48.3699 46.0054 48.6999 45.5954L48.9399 45.2854C49.0199 45.1854 49.0999 45.0754 49.1699 44.9654L49.3899 44.6354C49.4599 44.5254 49.5399 44.4154 49.5999 44.3054C49.7299 44.0754 49.8699 43.8554 49.9799 43.6154C50.0399 43.4954 50.0999 43.3854 50.1499 43.2654L50.3099 42.8954C50.5099 42.4054 50.6699 41.9054 50.7899 41.3854C50.9199 40.8754 50.9899 40.3554 51.0399 39.8254C51.0599 39.2754 51.0799 38.7454 51.0599 38.2254Z" fill="#058F39"/>
<path d="M11.6899 34.5754C9.76985 34.2054 8.75986 32.7054 9.08986 30.9654C9.41986 29.2254 10.9199 28.1954 12.8399 28.5654C14.7599 28.9354 15.7699 30.4354 15.4399 32.1754C15.0999 33.9154 13.6099 34.9454 11.6899 34.5754ZM11.9199 33.3554C13.1399 33.5854 14.1399 33.1554 14.3599 31.9654C14.5799 30.7754 13.8199 30.0054 12.5999 29.7754C11.3799 29.5454 10.3799 29.9754 10.1599 31.1654C9.92985 32.3554 10.6999 33.1254 11.9199 33.3554Z" fill="#058F39"/>
<path d="M17.6498 25.2754L15.0198 25.5054L14.5498 26.5554L16.6598 27.4954L16.1998 28.5354L10.5298 25.9954L11.4598 23.9154C11.9498 22.8254 12.7398 22.1454 13.9698 22.6954C14.8498 23.0854 15.0998 23.7154 15.1898 24.3954L18.1498 24.1754L17.6498 25.2754ZM11.8498 25.3554L13.5798 26.1254L13.9198 25.3654C14.3398 24.4254 14.0598 24.0554 13.5498 23.8254C13.0198 23.5854 12.6098 23.6554 12.2098 24.5554L11.8498 25.3554Z" fill="#058F39"/>
<path d="M15.6897 22.2454C14.1297 21.0954 13.8597 19.3054 14.9397 17.8354C15.2997 17.3454 15.8897 16.7854 16.3397 16.5554L17.1397 17.2954C16.6997 17.5654 16.1597 18.0254 15.8397 18.4654C15.0697 19.5054 15.4497 20.5154 16.4197 21.2354C17.4397 21.9854 18.5497 21.9954 19.3097 20.9654C19.4597 20.7554 19.6097 20.5054 19.7397 20.2254L18.8497 19.5654L18.4397 20.1154L17.6797 19.5554L18.7597 18.0954L20.9897 19.7354C20.9297 20.2554 20.5197 21.1554 20.0997 21.7254C19.0697 23.1254 17.2697 23.4154 15.6897 22.2454Z" fill="#058F39"/>
<path d="M24.9699 16.6954L23.5999 15.8854L22.0199 17.2154L22.5799 18.7054L21.6799 19.4654L19.3699 13.2854L20.1899 12.5954L25.8799 15.9254L24.9699 16.6954ZM20.9199 14.3254L21.5999 16.1254L22.5899 15.2954L20.9199 14.3254Z" fill="#058F39"/>
<path d="M30.1999 13.7354L25.7699 11.1554L27.6399 14.9854L26.6199 15.4854L23.8899 9.90542L24.8999 9.41542L29.0499 11.8554L27.2899 8.24542L28.3099 7.74542L31.0399 13.3254L30.1999 13.7354Z" fill="#058F39"/>
<path d="M32.1198 13.0854L30.2498 7.16538L31.3298 6.82538L33.1998 12.7454L32.1198 13.0854Z" fill="#058F39"/>
<path d="M33.51 9.36539C33.23 7.43539 34.33 5.98539 36.08 5.73539C36.72 5.64539 37.4 5.68539 37.88 5.84539L37.91 6.93539C37.37 6.80539 36.87 6.72539 36.23 6.81539C35.03 6.98539 34.55 7.95539 34.73 9.18539C34.91 10.4154 35.64 11.2154 36.83 11.0454C37.47 10.9554 37.93 10.7354 38.41 10.4654L38.69 11.5154C38.27 11.7954 37.63 12.0354 36.99 12.1254C35.24 12.3854 33.79 11.2954 33.51 9.36539Z" fill="#058F39"/>
<path d="M41.2698 11.8054L42.1498 5.6554L43.8098 5.8954C45.2298 6.0954 46.1298 6.4554 45.9398 7.8154C45.8598 8.3654 45.6398 8.77539 45.2398 9.02539C45.9098 9.4054 46.2098 9.87539 46.0998 10.6554C45.8998 12.0754 44.6698 12.2954 43.6398 12.1454L41.2698 11.8054ZM42.7998 9.1754L42.5398 11.0154L43.6498 11.1754C44.3698 11.2754 44.8598 11.1254 44.9598 10.4254C45.0598 9.7154 44.6098 9.4354 43.9798 9.3454L42.7998 9.1754ZM43.1398 6.7754L42.9198 8.2854L44.0198 8.44539C44.3398 8.49539 44.7898 8.4154 44.8698 7.8354C44.9598 7.1954 44.6498 6.9954 44.1298 6.9254L43.1398 6.7754Z" fill="#058F39"/>
<path d="M46.47 12.7154L48.49 6.83539L49.57 7.20539L47.9 12.0454L50.32 12.8754L49.96 13.9154L46.47 12.7154Z" fill="#058F39"/>
<path d="M50.3999 14.1354L53.4399 8.71539L56.9099 10.6554L56.3699 11.6154L53.9099 10.2454L53.2599 11.3954L55.1599 12.4654L54.6199 13.4254L52.7199 12.3554L51.9399 13.7454L54.4699 15.1654L53.9299 16.1254L50.3999 14.1354Z" fill="#058F39"/>
<path d="M57.4898 19.1254L58.1798 14.0554L55.3598 17.2454L54.5098 16.4954L58.6198 11.8354L59.4598 12.5754L58.7898 17.3454L61.4498 14.3354L62.2998 15.0854L58.1898 19.7454L57.4898 19.1254Z" fill="#058F39"/>
<path d="M58.8699 20.5054L63.9699 16.9654L65.2999 18.8754C66.3099 20.3354 66.0999 22.0454 64.4899 23.1654C62.8799 24.2754 61.1999 23.8754 60.1899 22.4254L58.8699 20.5054ZM63.7299 18.5154L60.4199 20.8154L61.0999 21.7954C61.7899 22.7854 62.7699 22.8454 63.7899 22.1454C64.8099 21.4354 65.0999 20.4954 64.4099 19.5054L63.7299 18.5154Z" fill="#058F39"/>
<path d="M62.1799 25.5954L67.9299 23.2354L69.4399 26.9154L68.4199 27.3354L67.3499 24.7354L66.1299 25.2354L66.9599 27.2554L65.9399 27.6754L65.1099 25.6554L63.6399 26.2554L64.7399 28.9454L63.7199 29.3654L62.1799 25.5954Z" fill="#058F39"/>
<path d="M63.9399 29.9954L70.0599 28.9054L70.4699 31.1954C70.7799 32.9454 69.8699 34.4154 67.9499 34.7554C66.0299 35.0954 64.6599 34.0354 64.3499 32.2854L63.9399 29.9954ZM69.1799 30.2154L65.2099 30.9154L65.4199 32.0854C65.6299 33.2754 66.4999 33.7454 67.7199 33.5254C68.9399 33.3054 69.5999 32.5754 69.3899 31.3754L69.1799 30.2154Z" fill="#058F39"/>
<path d="M12.4 42.7254C12.59 42.6654 12.75 42.5654 12.89 42.4354C13.07 42.2454 13.14 41.9854 13.08 41.6654C13 41.2054 12.72 40.9354 12.23 40.8454C11.97 40.7954 11.65 40.8154 11.25 40.8854C10.87 40.9554 10.57 41.0554 10.36 41.1854C9.96 41.4254 9.79 41.7654 9.88 42.2154C9.94 42.5354 10.06 42.7454 10.26 42.8454C10.45 42.9454 10.69 42.9954 10.97 42.9754L11.22 44.3654C10.8 44.4054 10.38 44.3254 9.97 44.1254C9.3 43.8054 8.89 43.2254 8.74 42.3854C8.59 41.5454 8.73 40.8854 9.15 40.4054C9.58 39.9254 10.18 39.6154 10.97 39.4754C11.86 39.3154 12.59 39.4154 13.17 39.7554C13.74 40.1054 14.1 40.6554 14.23 41.4254C14.35 42.0754 14.29 42.6354 14.08 43.1054C13.86 43.5754 13.39 43.9054 12.66 44.1154L12.4 42.7254Z" fill="white"/>
<path d="M12.1299 50.3355C11.4499 50.1355 10.9399 49.6155 10.5999 48.7755C10.2599 47.9355 10.2499 47.2055 10.5899 46.5855C10.9299 45.9655 11.4599 45.5055 12.1699 45.2155C12.8699 44.9255 13.5699 44.8855 14.2499 45.0855C14.9399 45.2855 15.4499 45.8055 15.7999 46.6455C16.1499 47.4855 16.1499 48.2155 15.7999 48.8355C15.4499 49.4555 14.9299 49.9155 14.2199 50.2055C13.4999 50.4955 12.8099 50.5455 12.1299 50.3355ZM12.4099 49.0255C12.7599 49.1155 13.1699 49.0555 13.6599 48.8655C14.1499 48.6655 14.4799 48.4055 14.6699 48.1055C14.8499 47.7955 14.8599 47.4555 14.7099 47.0855C14.5599 46.7155 14.3099 46.4755 13.9599 46.3855C13.6099 46.2955 13.1999 46.3455 12.7099 46.5455C12.2199 46.7455 11.8899 47.0055 11.6999 47.3155C11.5199 47.6255 11.4999 47.9655 11.6599 48.3455C11.8099 48.7055 12.0599 48.9355 12.4099 49.0255Z" fill="white"/>
<path d="M19.27 53.5354C19.24 53.9854 18.95 54.3954 18.4 54.7754L15.49 56.8154L14.68 55.6554L17.31 53.8154C17.54 53.6554 17.69 53.5054 17.77 53.3554C17.91 53.0854 17.88 52.8054 17.66 52.4954C17.39 52.1154 17.05 51.9654 16.62 52.0554C16.4 52.1054 16.15 52.2154 15.89 52.4054L13.55 54.0454L12.76 52.9154L17.07 49.8954L17.84 50.9854L17.21 51.4254C17.53 51.4154 17.79 51.4354 17.98 51.4954C18.32 51.6054 18.61 51.8354 18.86 52.1954C19.17 52.6454 19.3 53.0954 19.27 53.5354Z" fill="white"/>
<path d="M19.52 54.9254L20.22 54.2254L20.74 54.7454L21.78 53.7054L22.75 54.6654L21.71 55.7054L22.31 56.3054L21.61 57.0054L21.01 56.4054L19.04 58.3754C18.89 58.5254 18.81 58.6454 18.81 58.7154C18.81 58.7954 18.91 58.9254 19.11 59.1254C19.14 59.1554 19.17 59.1854 19.2 59.2154C19.23 59.2454 19.27 59.2754 19.3 59.3054L18.57 60.0354L18.09 59.5954C17.61 59.1554 17.38 58.7554 17.39 58.4154C17.39 58.1954 17.51 57.9654 17.74 57.7354L20.04 55.4354L19.52 54.9254Z" fill="white"/>
<path d="M25.5999 58.8955C25.7999 59.2455 25.8999 59.6355 25.8899 60.0655C25.8799 60.4455 25.7899 60.8255 25.5999 61.1955C25.4899 61.4155 25.2999 61.7055 25.0299 62.0755L21.9099 59.8355C21.6199 60.2755 21.5499 60.6855 21.7099 61.0655C21.7999 61.2955 21.9699 61.4955 22.2099 61.6655C22.4599 61.8455 22.7199 61.9355 22.9699 61.9155C23.1099 61.9055 23.2499 61.8655 23.4099 61.7855L24.5499 62.6055C24.3399 62.8355 24.0099 62.9955 23.5799 63.0855C22.8999 63.2255 22.2099 63.0555 21.5199 62.5555C20.9499 62.1455 20.5699 61.6055 20.3899 60.9455C20.1999 60.2855 20.3999 59.5555 20.9599 58.7655C21.4899 58.0255 22.0999 57.5955 22.7699 57.4755C23.4499 57.3655 24.0999 57.5255 24.7299 57.9755C25.0999 58.2355 25.3899 58.5455 25.5999 58.8955ZM23.2199 58.6655C22.9399 58.7155 22.6899 58.8655 22.4499 59.1155L24.3799 60.4955C24.5699 60.1855 24.6299 59.8855 24.5699 59.6055C24.4999 59.3255 24.3399 59.0855 24.0699 58.8955C23.7799 58.6955 23.4999 58.6155 23.2199 58.6655Z" fill="white"/>
<path d="M31.0299 61.8055C31.2299 62.2055 31.1999 62.7055 30.9399 63.3155L29.5299 66.5755L28.2299 66.0155L29.4999 63.0755C29.6099 62.8255 29.6599 62.6055 29.6499 62.4455C29.6299 62.1455 29.4499 61.9155 29.1099 61.7655C28.6799 61.5755 28.3099 61.6355 27.9999 61.9355C27.8399 62.0955 27.6899 62.3155 27.5599 62.6155L26.4299 65.2355L25.1599 64.6855L27.2499 59.8555L28.4799 60.3855L28.1699 61.0955C28.4399 60.9155 28.6699 60.8055 28.8599 60.7555C29.1999 60.6755 29.5799 60.7155 29.9699 60.8855C30.4799 61.0955 30.8299 61.4055 31.0299 61.8055Z" fill="white"/>
<path d="M31.97 62.8454L32.2 61.8954L32.92 62.0654L33.27 60.6354L34.6 60.9554L34.25 62.3854L35.08 62.5854L34.85 63.5354L34.02 63.3354L33.37 66.0454C33.32 66.2554 33.31 66.3954 33.36 66.4554C33.4 66.5154 33.56 66.5854 33.83 66.6454C33.87 66.6554 33.91 66.6654 33.96 66.6754C34.01 66.6854 34.05 66.6954 34.1 66.7054L33.86 67.7054L33.22 67.5754C32.58 67.4454 32.18 67.2254 32 66.9354C31.89 66.7454 31.87 66.4954 31.94 66.1754L32.7 63.0154L31.97 62.8454Z" fill="white"/>
<path d="M39.63 66.5455C39.67 66.7855 39.73 66.9655 39.83 67.0655C40.01 67.2455 40.33 67.3255 40.79 67.3155C41.06 67.3055 41.28 67.2655 41.44 67.1755C41.6 67.0855 41.67 66.9655 41.67 66.8055C41.67 66.6455 41.6 66.5355 41.47 66.4555C41.34 66.3755 40.85 66.2555 40.02 66.0755C39.42 65.9455 38.99 65.7655 38.74 65.5555C38.49 65.3455 38.36 65.0255 38.35 64.6155C38.34 64.1255 38.52 63.7055 38.89 63.3455C39.26 62.9855 39.8 62.7955 40.49 62.7755C41.15 62.7555 41.69 62.8755 42.11 63.1255C42.53 63.3755 42.78 63.8255 42.86 64.4655L41.48 64.5055C41.45 64.3255 41.4 64.1855 41.32 64.0855C41.16 63.9055 40.9 63.8155 40.54 63.8255C40.24 63.8355 40.03 63.8855 39.9 63.9855C39.77 64.0855 39.71 64.1955 39.72 64.3155C39.72 64.4755 39.8 64.5855 39.93 64.6555C40.07 64.7255 40.55 64.8455 41.38 64.9955C41.93 65.1055 42.35 65.2955 42.63 65.5455C42.91 65.8055 43.05 66.1255 43.06 66.5255C43.07 67.0455 42.89 67.4755 42.51 67.8255C42.13 68.1655 41.53 68.3455 40.72 68.3755C39.89 68.3955 39.27 68.2455 38.87 67.9055C38.46 67.5655 38.25 67.1255 38.24 66.5855L39.63 66.5455Z" fill="white"/>
<path d="M43.47 63.7755L43.28 62.8155L44 62.6655L43.72 61.2255L45.06 60.9655L45.34 62.4055L46.18 62.2455L46.37 63.2055L45.53 63.3655L46.06 66.1055C46.1 66.3155 46.15 66.4455 46.22 66.4855C46.28 66.5255 46.45 66.5255 46.73 66.4655C46.77 66.4555 46.81 66.4455 46.86 66.4355C46.91 66.4255 46.95 66.4155 46.99 66.4055L47.19 67.4155L46.55 67.5655C45.92 67.7155 45.46 67.6855 45.17 67.4855C44.99 67.3555 44.86 67.1355 44.8 66.8155L44.18 63.6255L43.47 63.7755Z" fill="white"/>
<path d="M49.58 63.2654C49.81 63.1454 49.97 63.0454 50.05 62.9554C50.21 62.8054 50.25 62.6554 50.19 62.4854C50.12 62.2854 49.99 62.1654 49.82 62.1454C49.65 62.1254 49.43 62.1554 49.15 62.2654C48.84 62.3854 48.65 62.5354 48.58 62.7354C48.53 62.8854 48.52 63.0554 48.56 63.2554L47.31 63.7154C47.18 63.2754 47.17 62.8754 47.28 62.5154C47.46 61.9554 47.97 61.5154 48.8 61.2054C49.34 61.0054 49.87 60.9354 50.37 60.9854C50.87 61.0454 51.23 61.3654 51.45 61.9654L52.29 64.2354C52.35 64.3954 52.42 64.5854 52.51 64.8054C52.58 64.9754 52.65 65.0754 52.72 65.1254C52.78 65.1654 52.87 65.1955 52.97 65.2055L53.04 65.3954L51.63 65.9154C51.55 65.8254 51.49 65.7454 51.44 65.6654C51.39 65.5854 51.34 65.4854 51.29 65.3854C51.18 65.6454 51.04 65.8854 50.85 66.1154C50.63 66.3754 50.34 66.5755 49.99 66.7055C49.54 66.8755 49.12 66.8854 48.73 66.7354C48.34 66.5854 48.06 66.2854 47.89 65.8154C47.67 65.2054 47.74 64.6754 48.11 64.2354C48.31 63.9954 48.65 63.7454 49.13 63.4954L49.58 63.2654ZM50.6 63.5654C50.54 63.6454 50.47 63.7254 50.4 63.7854C50.33 63.8454 50.22 63.9154 50.08 64.0054L49.81 64.1654C49.55 64.3154 49.38 64.4454 49.28 64.5654C49.12 64.7554 49.09 64.9754 49.18 65.2254C49.26 65.4454 49.38 65.5854 49.54 65.6354C49.7 65.6854 49.87 65.6754 50.05 65.6154C50.33 65.5154 50.56 65.3354 50.74 65.0754C50.92 64.8254 50.93 64.4754 50.78 64.0454L50.6 63.5654Z" fill="white"/>
<path d="M55.6199 58.0855C56.0599 58.1455 56.4599 58.4455 56.8199 59.0055L58.7199 62.0055L57.5299 62.7655L55.8099 60.0555C55.6599 59.8255 55.5199 59.6655 55.3699 59.5755C55.1099 59.4155 54.8199 59.4455 54.4999 59.6455C54.1099 59.8955 53.9499 60.2355 54.0099 60.6555C54.0499 60.8755 54.1499 61.1255 54.3299 61.4055L55.8599 63.8155L54.6999 64.5555L51.8799 60.1155L53.0099 59.3955L53.4199 60.0455C53.4199 59.7255 53.4599 59.4655 53.5299 59.2855C53.6599 58.9555 53.8999 58.6755 54.2599 58.4355C54.7199 58.1555 55.1699 58.0355 55.6199 58.0855Z" fill="white"/>
<path d="M58.7701 54.9355C59.0401 54.8555 59.3201 54.8455 59.6101 54.9155L57.8201 53.1455L58.8001 52.1555L63.8701 57.1655L62.9301 58.1155L62.4101 57.6055C62.4901 57.9655 62.5001 58.2855 62.4201 58.5655C62.3401 58.8455 62.1701 59.1155 61.9101 59.3855C61.4801 59.8255 60.9301 60.0155 60.2801 59.9655C59.6301 59.9155 59.0301 59.6155 58.4701 59.0655C57.8301 58.4355 57.4701 57.7855 57.3901 57.1255C57.3101 56.4655 57.5201 55.8955 58.0101 55.3955C58.2501 55.1755 58.5001 55.0155 58.7701 54.9355ZM61.6801 57.3355C61.6201 56.9855 61.4201 56.6455 61.0901 56.3255C60.6301 55.8755 60.1901 55.6655 59.7601 55.6955C59.5001 55.7255 59.2801 55.8255 59.0901 56.0155C58.8101 56.3055 58.7101 56.6155 58.7901 56.9655C58.8701 57.3155 59.0801 57.6455 59.4001 57.9655C59.7501 58.3055 60.0901 58.5155 60.4301 58.5855C60.7701 58.6555 61.0801 58.5555 61.3501 58.2755C61.6401 58.0055 61.7401 57.6855 61.6801 57.3355Z" fill="white"/>
<path d="M63.62 51.9354C63.73 51.7054 63.79 51.5254 63.81 51.4054C63.84 51.1954 63.79 51.0354 63.64 50.9454C63.46 50.8254 63.29 50.8154 63.14 50.8954C62.99 50.9754 62.83 51.1454 62.68 51.3954C62.5 51.6754 62.45 51.9154 62.51 52.1154C62.56 52.2654 62.66 52.4054 62.81 52.5354L62.1 53.6554C61.72 53.3854 61.47 53.0754 61.35 52.7154C61.15 52.1554 61.29 51.5054 61.77 50.7454C62.08 50.2554 62.45 49.8854 62.89 49.6254C63.33 49.3654 63.81 49.4054 64.35 49.7454L66.39 51.0454C66.53 51.1354 66.71 51.2454 66.91 51.3654C67.07 51.4554 67.19 51.4954 67.26 51.4954C67.33 51.4954 67.42 51.4654 67.5 51.4054L67.67 51.5154L66.87 52.7854C66.76 52.7654 66.66 52.7354 66.57 52.6954C66.48 52.6554 66.38 52.6154 66.28 52.5554C66.35 52.8254 66.38 53.1054 66.37 53.3954C66.35 53.7354 66.25 54.0654 66.05 54.3854C65.79 54.7954 65.47 55.0554 65.07 55.1754C64.67 55.2954 64.26 55.2154 63.84 54.9554C63.29 54.6054 63.03 54.1454 63.05 53.5654C63.06 53.2454 63.19 52.8454 63.42 52.3554L63.62 51.9354ZM64.62 51.5754C64.62 51.6754 64.61 51.7754 64.59 51.8754C64.57 51.9654 64.53 52.0954 64.47 52.2354L64.35 52.5354C64.24 52.8154 64.18 53.0254 64.17 53.1754C64.16 53.4254 64.27 53.6254 64.49 53.7654C64.69 53.8954 64.87 53.9254 65.03 53.8654C65.19 53.8054 65.32 53.7054 65.42 53.5454C65.58 53.2954 65.66 53.0054 65.64 52.7054C65.62 52.4054 65.43 52.1154 65.05 51.8654L64.62 51.5754Z" fill="white"/>
<path d="M64.48 45.2354C64.49 45.2154 64.51 45.1854 64.53 45.1254L65.84 45.6654C65.8 45.7454 65.76 45.8154 65.73 45.8754C65.7 45.9354 65.68 45.9854 65.66 46.0254C65.45 46.5354 65.47 46.9554 65.73 47.2654C65.88 47.4454 66.15 47.6154 66.54 47.7754L68.87 48.7354L68.34 50.0154L63.47 47.9954L63.97 46.7754L64.82 47.1254C64.58 46.7954 64.43 46.5254 64.37 46.3354C64.27 46.0154 64.3 45.6654 64.46 45.2854C64.47 45.2654 64.48 45.2454 64.48 45.2354Z" fill="white"/>
<path d="M65.56 41.8455C65.75 41.6355 65.9801 41.4755 66.2601 41.3755L63.8 40.8455L64.09 39.4755L71.06 40.9655L70.78 42.2755L70.07 42.1255C70.33 42.3855 70.51 42.6455 70.6 42.9255C70.69 43.2055 70.6901 43.5255 70.6101 43.8855C70.4801 44.4855 70.1301 44.9455 69.5501 45.2455C68.9801 45.5555 68.3101 45.6255 67.5401 45.4655C66.6601 45.2755 66.01 44.9255 65.59 44.4155C65.17 43.9055 65.03 43.3055 65.18 42.6255C65.24 42.3255 65.37 42.0655 65.56 41.8455ZM69.3001 42.3055C69.0601 42.0455 68.7101 41.8655 68.2601 41.7755C67.6301 41.6455 67.14 41.7055 66.81 41.9655C66.6 42.1255 66.47 42.3355 66.42 42.5955C66.34 42.9855 66.42 43.3155 66.68 43.5555C66.94 43.8055 67.2901 43.9755 67.7301 44.0655C68.2101 44.1655 68.61 44.1555 68.93 44.0255C69.26 43.8955 69.4601 43.6455 69.5401 43.2655C69.6201 42.8855 69.5401 42.5655 69.3001 42.3055Z" fill="white"/>
<path d="M21.7999 68.3054C22.8299 68.8554 23.2199 70.1354 22.6699 71.1654C22.1199 72.1954 20.8399 72.5854 19.8099 72.0354C18.7799 71.4854 18.3899 70.2054 18.9399 69.1754C19.4899 68.1454 20.7699 67.7554 21.7999 68.3054ZM22.3399 70.9854C22.7999 70.1254 22.4899 69.0554 21.6399 68.6054C20.7899 68.1554 19.7399 68.4854 19.2699 69.3454C18.8099 70.2054 19.1199 71.2754 19.9699 71.7254C20.8199 72.1854 21.8799 71.8454 22.3399 70.9854ZM21.6199 71.1054C21.2799 71.5754 20.7099 71.6254 20.2199 71.3554C19.5399 70.9954 19.3699 70.2954 19.7399 69.6154C20.0999 68.9354 20.7699 68.6854 21.4599 69.0454C21.9599 69.3154 22.2399 69.7954 22.0299 70.3554L21.7299 70.1954C21.8199 69.8954 21.6699 69.5454 21.2999 69.3554C20.8299 69.1054 20.3299 69.3254 20.0799 69.7954C19.8299 70.2654 19.9199 70.8054 20.3899 71.0554C20.7599 71.2554 21.1399 71.1854 21.3299 70.9454L21.6199 71.1054Z" fill="#4A4546"/>
<path d="M26.32 70.4454L26.07 71.0654L25.25 70.7254L23.97 73.8654L23.21 73.5554L24.49 70.4154L23.67 70.0754L23.92 69.4554L26.32 70.4454Z" fill="#4A4546"/>
<path d="M26.1699 73.1854L26.0899 73.4154C25.9799 73.7554 25.9599 74.1154 26.2299 74.2154C26.4799 74.2954 26.6399 74.1454 26.8099 73.8054L27.4799 74.0254C27.2299 74.6954 26.7799 74.9654 26.0799 74.7254C24.9999 74.3654 25.2299 73.5154 25.4799 72.7954C25.7399 72.0154 26.1299 71.3454 27.1399 71.6854C27.9999 71.9654 27.9999 72.6154 27.6999 73.5054L27.6399 73.6754L26.1699 73.1854ZM27.0799 72.9954C27.2099 72.5454 27.2399 72.2854 26.9299 72.1754C26.6299 72.0754 26.4399 72.3554 26.3499 72.6254L26.3099 72.7354L27.0799 72.9954Z" fill="#4A4546"/>
<path d="M30.12 72.6154L30.91 72.8154L29.77 74.0554L30.19 75.7854L29.4 75.5854L29.21 74.5054L28.52 75.3654L27.73 75.1654L28.92 73.8354L28.51 72.1954L29.3 72.3954L29.48 73.3954L30.12 72.6154Z" fill="#4A4546"/>
<path d="M31.7699 72.0854L32.5399 72.2254L32.3799 73.0854L32.8299 73.1655L32.7299 73.6954L32.2799 73.6154L31.9799 75.2454C31.9399 75.4754 31.9699 75.5855 32.1899 75.6255C32.2499 75.6355 32.3199 75.6454 32.3699 75.6454L32.2699 76.1854C32.0999 76.1754 31.9399 76.1555 31.7599 76.1255C31.1599 76.0155 31.0799 75.8054 31.1899 75.1954L31.5099 73.4754L31.1199 73.4054L31.2199 72.8755L31.6099 72.9454L31.7699 72.0854Z" fill="#4A4546"/>
<path d="M33.3399 73.2454L34.1199 73.3554L33.6999 76.3854L32.9199 76.2754L33.3399 73.2454ZM33.4799 72.2054L34.2599 72.3154L34.1699 72.9754L33.3899 72.8654L33.4799 72.2054Z" fill="#4A4546"/>
<path d="M35.0099 72.4554L35.7899 72.5354L35.3999 76.5854L34.6199 76.5054L35.0099 72.4554Z" fill="#4A4546"/>
<path d="M37.05 75.2754L37.04 75.5254C37.03 75.8854 37.11 76.2354 37.4 76.2554C37.66 76.2654 37.78 76.0654 37.84 75.6954L38.54 75.7254C38.48 76.4354 38.13 76.8154 37.39 76.7954C36.25 76.7554 36.24 75.8754 36.27 75.1154C36.3 74.2954 36.49 73.5354 37.55 73.5854C38.47 73.6154 38.65 74.2454 38.61 75.1854L38.6 75.3654L37.05 75.2754ZM37.87 74.8354C37.87 74.3654 37.82 74.1054 37.5 74.0954C37.19 74.0854 37.08 74.4054 37.07 74.6854V74.8054L37.87 74.8354Z" fill="#4A4546"/>
<path d="M39.2998 72.6754L41.3998 72.6054L41.4198 73.0454L39.8198 73.1054L39.8598 74.3754L41.3698 74.3254L41.3898 74.7654L39.8798 74.8154L39.9298 76.2754L41.5998 76.2154L41.6198 76.6554L39.4498 76.7354L39.2998 72.6754Z" fill="#4A4546"/>
<path d="M41.9299 73.5754L42.4499 73.5154L43.1099 74.5354L43.5499 73.3954L44.0699 73.3354L43.4299 74.8755L44.4199 76.3654L43.8999 76.4254L43.1699 75.2854L42.7099 76.5454L42.1899 76.6054L42.8499 74.9354L41.9299 73.5754Z" fill="#4A4546"/>
<path d="M46.2198 73.9354C46.1698 73.6454 45.9898 73.3354 45.6298 73.3954C45.3398 73.4454 45.0698 73.6454 45.2598 74.7454C45.3298 75.1354 45.4698 75.9254 46.0398 75.8254C46.4398 75.7554 46.4598 75.3154 46.3998 74.9854L46.8698 74.9054C46.9498 75.3854 46.8298 76.0654 46.0798 76.1954C45.3498 76.3254 44.9498 75.8654 44.7698 74.8354C44.6398 74.0854 44.6298 73.1954 45.5598 73.0254C46.3798 72.8854 46.6298 73.5054 46.6898 73.8454L46.2198 73.9354Z" fill="#4A4546"/>
<path d="M46.97 71.8054L47.43 71.6854L47.76 73.0054H47.77C47.83 72.7354 48.11 72.4754 48.38 72.4154C49.14 72.2254 49.29 72.8154 49.38 73.1654L49.91 75.2654L49.45 75.3854L48.94 73.3454C48.88 73.1154 48.77 72.7554 48.35 72.8554C48.1 72.9154 47.81 73.1654 47.91 73.5954L48.42 75.6354L47.96 75.7554L46.97 71.8054Z" fill="#4A4546"/>
<path d="M50.1699 72.9654C49.9499 72.3054 50.1399 71.9254 50.8299 71.6954C51.7099 71.4054 51.8899 71.9354 51.9899 72.2354L52.5299 73.8454C52.5699 73.9654 52.6099 74.0754 52.7499 74.0354C52.8099 74.0154 52.8299 73.9954 52.8499 73.9754L52.9399 74.2954C52.9099 74.3154 52.7999 74.3754 52.6899 74.4154C52.5199 74.4754 52.2999 74.5454 52.1599 74.1754H52.1499C52.0899 74.4854 51.8599 74.7354 51.5899 74.8254C51.0499 75.0054 50.6899 74.7654 50.5199 74.2454C50.3899 73.8354 50.4599 73.5054 50.7999 73.2654L51.3499 72.8754C51.6499 72.6654 51.6099 72.5754 51.5399 72.3254C51.4499 72.0554 51.2399 71.9554 50.9299 72.0554C50.4299 72.2154 50.5899 72.6854 50.6199 72.7854L50.6299 72.8154L50.1699 72.9654ZM51.7199 72.9454C51.6099 73.1754 51.2199 73.3554 51.0599 73.5454C50.9399 73.6854 50.9099 73.8254 50.9899 74.0754C51.0899 74.3654 51.2599 74.5354 51.5599 74.4354C51.8599 74.3354 52.0599 73.9854 51.9599 73.6954L51.7199 72.9454Z" fill="#4A4546"/>
<path d="M52.5298 71.1854L52.9498 71.0054L53.0898 71.3354H53.0998C53.1098 71.0254 53.3398 70.7654 53.6098 70.6454C54.3498 70.3354 54.5898 70.8954 54.7198 71.2254L55.5498 73.2254L55.1098 73.4054L54.2998 71.4654C54.2098 71.2454 54.0498 70.9054 53.6498 71.0754C53.4098 71.1754 53.1598 71.4654 53.3298 71.8754L54.1398 73.8154L53.6998 73.9954L52.5298 71.1854Z" fill="#4A4546"/>
<path d="M58.2098 71.7054C58.6198 72.5154 58.3998 73.0054 57.8498 73.2854C57.6798 73.3754 57.0298 73.7054 56.6098 73.0654L57.0398 72.8454C57.1898 73.0854 57.4298 73.0854 57.6498 72.9654C58.1998 72.6854 57.9598 72.2754 57.8698 72.0854L57.6898 71.7354H57.6798C57.7098 72.0154 57.5198 72.2754 57.2498 72.4154C56.4598 72.8154 55.8998 71.8454 55.7198 71.4854C55.3498 70.7454 55.1898 69.9554 55.8798 69.6054C56.1698 69.4554 56.5198 69.5354 56.6798 69.7254H56.6898L56.5098 69.3754L56.9198 69.1654L58.2098 71.7054ZM56.1598 71.2554C56.3798 71.6954 56.7298 72.2154 57.1598 71.9954C57.6198 71.7654 57.4898 71.2754 57.2098 70.7154C56.9398 70.1854 56.5798 69.6954 56.1198 69.9254C55.7198 70.1354 55.8298 70.6054 56.1598 71.2554Z" fill="#4A4546"/>
<path d="M58.7999 69.8954C59.0399 70.2954 59.4099 70.8954 59.9099 70.5954C60.2999 70.3554 60.0999 69.9154 59.9899 69.7254L60.3999 69.4754C60.5699 69.7554 60.7899 70.4954 60.0799 70.9254C59.4399 71.3154 58.9099 71.0254 58.3599 70.1354C57.9599 69.4854 57.6299 68.6454 58.4399 68.1654C59.2399 67.6854 59.7299 68.3354 60.0699 68.8954L60.1699 69.0654L58.7999 69.8954ZM59.5499 69.0054L59.4599 68.8654C59.2799 68.5754 58.9799 68.2854 58.6199 68.5054C58.1899 68.7654 58.4599 69.3254 58.5599 69.4754L58.6199 69.5754L59.5499 69.0054Z" fill="#4A4546"/>
</svg>
