<svg width="80" height="81" viewBox="0 0 80 81" fill="none" xmlns="http://www.w3.org/2000/svg">
<mask id="mask0_16455_55083" style="mask-type:luminance" maskUnits="userSpaceOnUse" x="6" y="3" width="68" height="69">
<path d="M40.29 71.0054C58.8136 71.0054 73.83 55.989 73.83 37.4654C73.83 18.9418 58.8136 3.92542 40.29 3.92542C21.7664 3.92542 6.75 18.9418 6.75 37.4654C6.75 55.989 21.7664 71.0054 40.29 71.0054Z" fill="white"/>
</mask>
<g mask="url(#mask0_16455_55083)">
<path d="M73.83 37.4654H6.75V71.0054H73.83V37.4654Z" fill="#4A4546"/>
</g>
<mask id="mask1_16455_55083" style="mask-type:luminance" maskUnits="userSpaceOnUse" x="6" y="3" width="68" height="69">
<path d="M40.29 71.0054C58.8136 71.0054 73.83 55.989 73.83 37.4654C73.83 18.9418 58.8136 3.92542 40.29 3.92542C21.7664 3.92542 6.75 18.9418 6.75 37.4654C6.75 55.989 21.7664 71.0054 40.29 71.0054Z" fill="white"/>
</mask>
<g mask="url(#mask1_16455_55083)">
<path d="M73.83 3.91541H6.75V37.4554H73.83V3.91541Z" fill="#058295"/>
</g>
<path d="M40.3099 59.6054C52.5375 59.6054 62.4499 49.693 62.4499 37.4654C62.4499 25.2379 52.5375 15.3254 40.3099 15.3254C28.0823 15.3254 18.1699 25.2379 18.1699 37.4654C18.1699 49.693 28.0823 59.6054 40.3099 59.6054Z" fill="white"/>
<path d="M28.9101 48.3054C28.8701 48.5754 28.8401 48.8454 28.8401 49.1154C28.8401 51.4754 29.6001 52.6554 31.1201 52.6554H39.9201V43.5154H31.4501C30.4101 45.0054 29.7601 46.0154 29.4901 46.5354C29.1901 47.1154 29.0101 47.7054 28.9101 48.3054Z" fill="#058295"/>
<path d="M34.8401 33.5254L39.4001 26.4654C39.0501 25.6554 38.6801 24.9354 38.3201 24.2954C36.9401 21.8654 35.4901 20.6454 33.9801 20.6454C33.6201 20.6454 33.3101 20.6754 33.0201 20.7454C32.3901 20.8854 31.9301 21.1754 31.6501 21.6154L27.3401 28.5054L34.8401 33.5254Z" fill="#058295"/>
<path d="M50.6699 42.0454H54.4599C55.3699 42.0454 56.3099 41.6454 57.2799 40.8554C58.3199 40.0254 58.8399 39.1554 58.8399 38.2254C58.8399 37.7954 58.6999 37.3754 58.4199 36.9654L53.9099 30.0754L46.1499 34.5854L50.6699 42.0454Z" fill="#058295"/>
<path d="M56.0901 42.8355C55.3001 43.0955 54.1601 43.2355 52.6901 43.2355L46.3301 43.2655V41.9555C46.3301 41.4455 46.2101 41.1855 45.9601 41.1855C45.7801 41.1855 45.6401 41.2555 45.5601 41.3855L41.5601 48.3155L45.7201 54.7055C46.0401 55.1855 46.3101 55.3755 46.5401 55.2755C46.7701 55.2155 46.8901 55.0855 46.8901 54.9055V52.7255H50.4101C51.7001 52.7255 52.6101 52.2355 53.1401 51.2655L58.8401 40.9055C58.0001 41.8555 57.0801 42.5055 56.0901 42.8355Z" fill="#058295"/>
<path d="M34.38 38.8454L30.9 32.3154L22.77 32.5154C22.41 32.5354 22.22 32.7254 22.22 33.0854C22.22 33.1654 22.34 33.2854 22.57 33.4354L24.25 34.4454L23.33 35.8654L22.47 37.2154C21.98 38.0054 21.73 38.6654 21.73 39.1754C21.73 39.6354 21.89 40.1554 22.22 40.7354L27.74 50.3754C27.61 49.7654 27.54 49.1854 27.54 48.6454C27.54 48.2254 27.6 47.8154 27.71 47.4054C27.86 46.8554 28.11 46.3154 28.45 45.7754L32.62 39.2254L32.66 39.1554L32.98 39.3554L32.99 39.3654L34.32 40.1754C34.53 40.1754 34.66 40.1154 34.71 39.9854C34.73 39.9454 34.74 39.8954 34.74 39.8354C34.74 39.6854 34.67 39.4854 34.54 39.2154L34.38 38.8454Z" fill="#058295"/>
<path d="M42.7599 31.3254L49.2099 31.8454L53.1199 25.2554C53.2499 25.0254 53.3199 24.7854 53.3199 24.5354C53.3199 24.2354 53.2199 24.0854 53.0199 24.0854C53.0499 24.0854 52.9199 24.1354 52.6199 24.2354L50.8399 25.0554L49.1999 21.8054C48.7999 20.9954 48.1599 20.4254 47.3099 20.0654C46.6299 19.7754 45.8099 19.6254 44.8399 19.6254H34.6699C35.9099 20.0054 36.7499 20.3754 37.1999 20.7454C38.0499 21.4254 38.9199 22.5954 39.8099 24.2454C40.0099 24.6054 40.1999 24.9854 40.3999 25.3954L42.4299 29.6554L40.9199 30.3754C40.7699 30.4454 40.6999 30.5754 40.6999 30.7754C40.6999 31.0254 40.8599 31.1654 41.1699 31.1954L42.7699 31.3254H42.7599Z" fill="#058295"/>
<path d="M18.7601 26.4654L15.8501 26.7654L15.3501 27.9454L17.7001 28.9554L17.2001 30.1154L10.8701 27.3954L11.8601 25.0754C12.3801 23.8554 13.2501 23.0854 14.6201 23.6754C15.6001 24.0954 15.8901 24.7854 16.0001 25.5454L19.2701 25.2554L18.7601 26.4654ZM12.3301 26.6554L14.2601 27.4854L14.6301 26.6354C15.0801 25.5854 14.7601 25.1854 14.1901 24.9354C13.6001 24.6854 13.1501 24.7654 12.7201 25.7654L12.3301 26.6554Z" fill="white"/>
<path d="M19.6301 24.8554L14.0701 20.7854L16.6701 17.2254L17.6501 17.9454L15.8101 20.4654L17.0001 21.3254L18.4301 19.3654L19.4101 20.0854L17.9801 22.0454L19.4001 23.0854L21.3001 20.4854L22.2801 21.2054L19.6301 24.8554Z" fill="white"/>
<path d="M20.1702 18.4355C18.7502 16.8055 18.8902 14.7955 20.3702 13.5055C20.9102 13.0355 21.5702 12.6655 22.1102 12.5255L22.8002 13.5255C22.2202 13.7255 21.7102 13.9555 21.1702 14.4255C20.1602 15.3055 20.3002 16.5055 21.2102 17.5355C22.1202 18.5655 23.2802 18.8755 24.2902 17.9955C24.8302 17.5255 25.1202 17.0455 25.4002 16.4955L26.2902 17.3055C26.0702 17.8255 25.6202 18.4255 25.0802 18.8955C23.6002 20.1955 21.6002 20.0655 20.1702 18.4355Z" fill="white"/>
<path d="M28.1401 13.1554L29.5601 15.8554L28.4401 16.4454L27.0201 13.7454L23.1201 11.4654L24.3001 10.8354L27.0501 12.4554L27.2601 9.27545L28.4401 8.64545L28.1401 13.1554Z" fill="white"/>
<path d="M30.47 11.5754C29.9 9.49542 30.9 7.74542 32.8 7.22542C33.49 7.03542 34.25 6.99542 34.8 7.09542L34.98 8.29542C34.37 8.22542 33.81 8.20542 33.12 8.39542C31.83 8.74542 31.44 9.88542 31.8 11.2154C32.16 12.5454 33.08 13.3254 34.37 12.9754C35.06 12.7854 35.53 12.4854 36.02 12.1154L36.47 13.2354C36.05 13.6054 35.38 13.9554 34.69 14.1454C32.79 14.6554 31.04 13.6654 30.47 11.5754Z" fill="white"/>
<path d="M37.2801 13.4755L36.9001 6.59545L38.1601 6.52545L38.4701 12.1855L41.3001 12.0255L41.3701 13.2455L37.2801 13.4755Z" fill="white"/>
<path d="M41.8701 13.3054L42.9001 6.49542L47.2601 7.15542L47.0801 8.36542L43.9901 7.89542L43.7701 9.34542L46.1601 9.70542L45.9801 10.9154L43.5901 10.5554L43.3201 12.2954L46.5001 12.7754L46.3201 13.9854L41.8701 13.3054Z" fill="white"/>
<path d="M47 14.1355L49.66 7.77545L52.04 8.76545C53.86 9.52545 54.68 11.2555 53.85 13.2555C53.02 15.2555 51.2 15.8855 49.39 15.1255L47 14.1355ZM50.36 9.38545L48.64 13.5055L49.86 14.0155C51.1 14.5355 52.05 14.0055 52.58 12.7355C53.11 11.4655 52.81 10.4155 51.58 9.89545L50.36 9.38545Z" fill="white"/>
<path d="M55.3201 18.5954L58.5701 14.6454C58.2701 14.6154 57.9701 14.5254 57.6801 14.3654L58.2701 13.4754C58.6501 13.6754 59.4901 13.6954 59.9301 13.4554L60.6801 14.0654L56.3001 19.3854L55.3201 18.5954Z" fill="white"/>
<path d="M59.8901 18.0154C61.5901 16.6454 63.5701 16.7054 64.6201 18.0054C65.6401 19.2754 65.2701 21.1254 63.6501 22.4254C61.9501 23.7954 60.0801 23.7954 58.9601 22.4054C57.8901 21.0754 58.2601 19.3254 59.8901 18.0154ZM60.6801 18.9954C59.4001 20.0254 59.2901 21.0054 59.8501 21.7054C60.4501 22.4554 61.4801 22.5654 62.8701 21.4554C64.1401 20.4354 64.2601 19.3354 63.7401 18.6854C63.2101 18.0354 62.0501 17.8954 60.6801 18.9954Z" fill="white"/>
<path d="M64.3701 23.9454C66.3801 23.0854 68.2701 23.6754 68.9301 25.2054C69.5701 26.7054 68.7201 28.3854 66.8101 29.2054C64.8001 30.0654 63.0001 29.5654 62.3001 27.9254C61.6201 26.3554 62.4501 24.7754 64.3701 23.9454ZM64.8601 25.1054C63.3501 25.7554 62.9801 26.6654 63.3401 27.4954C63.7201 28.3854 64.6801 28.7654 66.3101 28.0654C67.8101 27.4254 68.2201 26.3954 67.8901 25.6254C67.5601 24.8554 66.4801 24.4054 64.8601 25.1054Z" fill="white"/>
<path d="M14.6099 48.1254L13.9399 46.8754C14.1899 46.7454 14.3599 46.5754 14.4399 46.3754C14.5199 46.1754 14.5199 45.9454 14.4399 45.6954C14.3299 45.3554 14.1299 45.1354 13.8299 45.0054C13.5299 44.8854 13.1099 44.9054 12.5699 45.0854C11.9699 45.2854 11.5699 45.5254 11.3899 45.8054C11.2099 46.0854 11.1699 46.4054 11.2799 46.7454C11.3599 47.0054 11.4999 47.1854 11.6999 47.3054C11.8999 47.4254 12.1899 47.4554 12.5599 47.4054L12.7699 48.7954C12.1199 48.8554 11.5799 48.7454 11.1399 48.4554C10.6999 48.1654 10.3799 47.6954 10.1599 47.0454C9.9199 46.3054 9.9599 45.6354 10.2799 45.0354C10.5999 44.4354 11.1799 44.0054 12.0099 43.7354C12.8499 43.4654 13.5699 43.4754 14.1899 43.7654C14.7999 44.0554 15.2299 44.5754 15.4799 45.3354C15.6799 45.9554 15.7099 46.4854 15.5599 46.9454C15.4299 47.3954 15.0999 47.7854 14.6099 48.1254Z" fill="white"/>
<path d="M11.8599 50.8954L18.4199 47.5154L19.0699 48.7754L12.5099 52.1454L11.8599 50.8954Z" fill="white"/>
<path d="M17.18 52.7154L16.61 51.5454C17.11 51.3554 17.57 51.3254 17.98 51.4654C18.39 51.6054 18.8 51.9554 19.21 52.5054C19.58 53.0154 19.8 53.4354 19.87 53.7754C19.93 54.1154 19.91 54.4054 19.8 54.6354C19.69 54.8754 19.39 55.1754 18.89 55.5354L17.55 56.5054C17.17 56.7854 16.91 57.0054 16.75 57.1754C16.6 57.3454 16.46 57.5554 16.32 57.8054L15.49 56.6754C15.54 56.5854 15.63 56.4754 15.75 56.3154C15.8 56.2454 15.84 56.1954 15.85 56.1754C15.52 56.1154 15.22 56.0154 14.96 55.8654C14.7 55.7154 14.48 55.5154 14.3 55.2654C13.97 54.8254 13.84 54.3854 13.89 53.9554C13.94 53.5254 14.15 53.1754 14.52 52.9054C14.76 52.7254 15.02 52.6254 15.3 52.6054C15.58 52.5854 15.84 52.6354 16.1 52.7754C16.36 52.9154 16.67 53.1454 17.03 53.4854C17.52 53.9454 17.89 54.2454 18.12 54.3854L18.23 54.2954C18.45 54.1354 18.57 53.9654 18.58 53.7854C18.59 53.6054 18.49 53.3654 18.27 53.0654C18.12 52.8654 17.96 52.7354 17.8 52.6754C17.64 52.6254 17.43 52.6354 17.18 52.7154ZM17.38 54.9154C17.22 54.8054 17 54.6154 16.7 54.3454C16.4 54.0754 16.18 53.9154 16.04 53.8754C15.83 53.8054 15.64 53.8254 15.47 53.9454C15.31 54.0654 15.22 54.2254 15.19 54.4254C15.16 54.6254 15.22 54.8254 15.35 55.0054C15.5 55.2054 15.71 55.3554 15.98 55.4454C16.18 55.5054 16.38 55.5054 16.56 55.4454C16.68 55.4054 16.88 55.2854 17.15 55.0854L17.38 54.9154Z" fill="white"/>
<path d="M17.5999 59.0754L21.3599 55.2754L22.3699 56.2654L18.6099 60.0654L17.5999 59.0754ZM21.8699 54.7554L22.7899 53.8254L23.7999 54.8154L22.8799 55.7454L21.8699 54.7554Z" fill="white"/>
<path d="M23.07 57.2755L24.18 57.9655L23.79 58.5855C24.49 58.3555 25.11 58.4055 25.65 58.7455C25.94 58.9255 26.16 59.1455 26.29 59.3955C26.43 59.6455 26.49 59.9355 26.48 60.2655C26.83 60.1455 27.16 60.1055 27.46 60.1255C27.77 60.1555 28.05 60.2455 28.31 60.4055C28.64 60.6155 28.88 60.8555 29.03 61.1355C29.18 61.4155 29.23 61.7155 29.17 62.0555C29.13 62.3055 28.98 62.6355 28.71 63.0755L26.9 65.9755L25.7 65.2255L27.32 62.6355C27.6 62.1855 27.74 61.8655 27.74 61.6855C27.74 61.4455 27.62 61.2555 27.39 61.1055C27.22 60.9955 27.03 60.9555 26.82 60.9655C26.61 60.9755 26.41 61.0555 26.22 61.2155C26.03 61.3755 25.8 61.6655 25.54 62.0955L24.18 64.2755L22.98 63.5255L24.53 61.0355C24.81 60.5955 24.96 60.2955 25 60.1455C25.04 59.9955 25.03 59.8555 24.98 59.7355C24.93 59.6155 24.83 59.5055 24.67 59.4155C24.49 59.2955 24.29 59.2455 24.08 59.2555C23.87 59.2655 23.67 59.3455 23.49 59.4855C23.31 59.6355 23.08 59.9255 22.81 60.3655L21.43 62.5655L20.23 61.8155L23.07 57.2755Z" fill="white"/>
<path d="M32.46 66.2354L33.9 66.2654C33.91 66.5454 34 66.7754 34.15 66.9454C34.31 67.1154 34.55 67.2354 34.88 67.2954C35.24 67.3554 35.52 67.3454 35.73 67.2354C35.87 67.1654 35.95 67.0554 35.98 66.8954C36 66.7854 35.98 66.6954 35.93 66.6154C35.87 66.5354 35.73 66.4454 35.5 66.3554C34.42 65.9054 33.75 65.5554 33.48 65.2954C33.11 64.9354 32.97 64.5054 33.06 64.0054C33.14 63.5454 33.39 63.1954 33.8 62.9454C34.21 62.6954 34.8 62.6454 35.56 62.7754C36.28 62.9054 36.8 63.1154 37.1 63.4054C37.4 63.6954 37.59 64.0954 37.64 64.5754L36.28 64.5854C36.26 64.3754 36.18 64.1954 36.04 64.0554C35.9 63.9154 35.69 63.8254 35.4 63.7754C35.03 63.7154 34.76 63.7154 34.59 63.7954C34.47 63.8554 34.4 63.9354 34.38 64.0554C34.36 64.1554 34.39 64.2454 34.47 64.3354C34.58 64.4554 34.99 64.6554 35.7 64.9554C36.41 65.2554 36.89 65.5554 37.14 65.8454C37.39 66.1454 37.47 66.5154 37.39 66.9554C37.3 67.4354 37.03 67.8154 36.57 68.0954C36.11 68.3754 35.48 68.4454 34.69 68.2954C33.97 68.1654 33.43 67.9254 33.06 67.5554C32.7 67.2054 32.5 66.7554 32.46 66.2354Z" fill="white"/>
<path d="M41.6098 63.3254V64.4554H40.6398V66.6154C40.6398 67.0554 40.6498 67.3054 40.6698 67.3754C40.6898 67.4454 40.7298 67.5054 40.7998 67.5554C40.8698 67.6054 40.9398 67.6254 41.0398 67.6254C41.1698 67.6254 41.3598 67.5754 41.6098 67.4854L41.7298 68.5854C41.3998 68.7254 41.0298 68.7954 40.6098 68.7954C40.3498 68.7954 40.1198 68.7554 39.9198 68.6654C39.7198 68.5754 39.5698 68.4654 39.4698 68.3354C39.3698 68.1954 39.3098 68.0154 39.2698 67.7854C39.2398 67.6254 39.2198 67.2854 39.2198 66.7854V64.4554H38.5698V63.3254H39.2198V62.2654L40.6398 61.4354V63.3254H41.6098Z" fill="white"/>
<path d="M43.76 64.7654L42.46 64.7454C42.52 64.2154 42.7 63.7954 43.01 63.4954C43.32 63.1954 43.82 62.9854 44.5 62.8754C45.12 62.7754 45.6 62.7754 45.93 62.8654C46.26 62.9654 46.5 63.1154 46.67 63.3254C46.83 63.5354 46.96 63.9354 47.06 64.5454L47.31 66.1754C47.39 66.6354 47.46 66.9754 47.54 67.1854C47.62 67.3954 47.74 67.6154 47.91 67.8554L46.53 68.0854C46.48 67.9954 46.41 67.8654 46.33 67.6954C46.29 67.6154 46.27 67.5654 46.25 67.5354C46.05 67.8054 45.82 68.0254 45.57 68.1854C45.32 68.3454 45.04 68.4454 44.73 68.5054C44.19 68.5954 43.73 68.5154 43.37 68.2754C43.01 68.0354 42.79 67.6854 42.72 67.2354C42.67 66.9354 42.7 66.6554 42.8 66.4054C42.9 66.1454 43.07 65.9354 43.31 65.7754C43.55 65.6054 43.9 65.4354 44.37 65.2654C45 65.0354 45.43 64.8454 45.67 64.7054L45.65 64.5654C45.61 64.2954 45.51 64.1154 45.36 64.0254C45.21 63.9354 44.95 63.9154 44.58 63.9754C44.33 64.0154 44.15 64.0954 44.02 64.2154C43.89 64.3154 43.81 64.5054 43.76 64.7654ZM45.81 65.5954C45.64 65.6854 45.37 65.8054 45 65.9454C44.63 66.0954 44.39 66.2154 44.28 66.3154C44.12 66.4754 44.05 66.6554 44.09 66.8554C44.12 67.0554 44.22 67.2054 44.39 67.3254C44.56 67.4454 44.76 67.4854 44.98 67.4454C45.23 67.4054 45.46 67.2854 45.66 67.0754C45.81 66.9254 45.89 66.7454 45.92 66.5554C45.94 66.4354 45.92 66.2054 45.86 65.8654L45.81 65.5954Z" fill="white"/>
<path d="M54.4499 65.4354L53.1399 65.9654L52.1099 63.4354C51.8899 62.9054 51.7199 62.5654 51.5999 62.4354C51.4799 62.3054 51.3399 62.2154 51.1799 62.1754C51.0199 62.1354 50.8499 62.1554 50.6699 62.2354C50.4399 62.3254 50.2699 62.4754 50.1299 62.6654C49.9999 62.8654 49.9399 63.0754 49.9599 63.3054C49.9799 63.5354 50.0999 63.9354 50.3199 64.4854L51.2299 66.7254L49.9199 67.2554L47.9099 62.3054L49.1299 61.8154L49.4299 62.5454C49.6299 61.8054 50.0599 61.3054 50.7199 61.0454C51.0099 60.9254 51.2999 60.8754 51.5799 60.8754C51.8599 60.8854 52.0999 60.9454 52.2899 61.0554C52.4799 61.1654 52.6399 61.3154 52.7699 61.5054C52.8999 61.6954 53.0499 61.9754 53.1999 62.3554L54.4499 65.4354Z" fill="white"/>
<path d="M60.6398 61.3754L59.5698 62.1354L59.1098 61.4954C59.1098 61.8654 59.0298 62.2054 58.8798 62.4954C58.7198 62.7854 58.5198 63.0254 58.2798 63.1954C57.7798 63.5554 57.2098 63.6554 56.5598 63.5054C55.9098 63.3554 55.3398 62.9254 54.8198 62.1954C54.2898 61.4554 54.0698 60.7754 54.1398 60.1454C54.2098 59.5154 54.5098 59.0054 55.0498 58.6354C55.5398 58.2854 56.0998 58.1954 56.7498 58.3454L55.2098 56.1854L56.3598 55.3654L60.6398 61.3754ZM55.9398 61.2954C56.2698 61.7554 56.5698 62.0454 56.8498 62.1654C57.2498 62.3354 57.6198 62.2954 57.9498 62.0654C58.2098 61.8754 58.3598 61.6054 58.3798 61.2454C58.4098 60.8854 58.2598 60.4854 57.9398 60.0354C57.5798 59.5354 57.2398 59.2354 56.8998 59.1454C56.5598 59.0554 56.2498 59.1054 55.9698 59.3054C55.6998 59.5054 55.5398 59.7754 55.5098 60.1154C55.4998 60.4754 55.6398 60.8654 55.9398 61.2954Z" fill="white"/>
<path d="M60.34 56.4754L59.31 57.2754C59.02 56.8254 58.9 56.3854 58.95 55.9554C59 55.5254 59.26 55.0554 59.72 54.5354C60.14 54.0654 60.51 53.7654 60.83 53.6354C61.15 53.5054 61.43 53.4654 61.69 53.5254C61.95 53.5854 62.3 53.8154 62.76 54.2254L63.98 55.3354C64.33 55.6454 64.6 55.8654 64.8 55.9754C65 56.0954 65.23 56.1854 65.5 56.2654L64.57 57.3054C64.48 57.2754 64.34 57.2154 64.17 57.1254C64.09 57.0854 64.04 57.0654 64.01 57.0554C64.02 57.3954 63.98 57.7054 63.89 57.9854C63.8 58.2654 63.64 58.5254 63.43 58.7554C63.06 59.1654 62.66 59.3854 62.23 59.4254C61.8 59.4654 61.41 59.3254 61.07 59.0254C60.84 58.8254 60.69 58.5954 60.61 58.3254C60.53 58.0654 60.53 57.7854 60.61 57.5154C60.69 57.2354 60.86 56.8854 61.12 56.4554C61.47 55.8754 61.69 55.4654 61.78 55.1954L61.67 55.1054C61.47 54.9254 61.28 54.8454 61.1 54.8654C60.93 54.8854 60.71 55.0354 60.46 55.3154C60.29 55.5054 60.2 55.6854 60.18 55.8554C60.17 56.0454 60.22 56.2454 60.34 56.4754ZM62.46 55.8354C62.38 56.0054 62.25 56.2754 62.05 56.6154C61.85 56.9654 61.74 57.2054 61.72 57.3554C61.69 57.5854 61.76 57.7554 61.91 57.8954C62.06 58.0254 62.23 58.0854 62.44 58.0754C62.65 58.0654 62.82 57.9654 62.98 57.7954C63.15 57.6054 63.25 57.3654 63.28 57.0854C63.3 56.8754 63.26 56.6854 63.16 56.5254C63.1 56.4154 62.94 56.2454 62.68 56.0254L62.46 55.8354Z" fill="white"/>
<path d="M67.27 53.5354L66.53 54.7454L61.98 51.9454L62.67 50.8254L63.32 51.2254C63.13 50.8454 63.04 50.5454 63.03 50.3354C63.03 50.1254 63.09 49.9154 63.2 49.7254C63.37 49.4554 63.61 49.2354 63.92 49.0754L64.74 50.0954C64.48 50.2154 64.3 50.3654 64.19 50.5354C64.09 50.7054 64.05 50.8754 64.07 51.0554C64.09 51.2354 64.2 51.4254 64.4 51.6454C64.6 51.8654 65.09 52.2054 65.87 52.6854L67.27 53.5354Z" fill="white"/>
<path d="M70.7498 45.8754L70.2898 47.1054L69.5498 46.8254C69.7598 47.1354 69.8798 47.4554 69.9198 47.7854C69.9598 48.1154 69.9198 48.4254 69.8098 48.7054C69.5898 49.2854 69.1798 49.6854 68.5598 49.9154C67.9398 50.1454 67.2198 50.1154 66.3898 49.7954C65.5398 49.4754 64.9698 49.0354 64.6798 48.4654C64.3898 47.8954 64.3598 47.3154 64.5898 46.7054C64.7998 46.1454 65.2198 45.7554 65.8298 45.5154L63.3398 44.5754L63.8398 43.2554L70.7498 45.8754ZM66.8098 48.4254C67.3398 48.6254 67.7598 48.6954 68.0498 48.6354C68.4798 48.5554 68.7598 48.3154 68.9098 47.9354C69.0298 47.6354 68.9898 47.3254 68.8098 47.0154C68.6298 46.7054 68.2798 46.4554 67.7698 46.2554C67.1898 46.0354 66.7398 45.9854 66.4098 46.0954C66.0798 46.2054 65.8498 46.4254 65.7298 46.7454C65.6098 47.0654 65.6398 47.3654 65.8098 47.6754C65.9798 47.9954 66.3098 48.2354 66.8098 48.4254Z" fill="white"/>
<path d="M22.38 68.7454C23.4 69.2954 23.79 70.5554 23.24 71.5854C22.69 72.6054 21.43 72.9954 20.4 72.4454C19.38 71.8954 18.99 70.6354 19.54 69.6054C20.09 68.5954 21.36 68.2054 22.38 68.7454ZM22.91 71.4154C23.37 70.5554 23.06 69.5054 22.22 69.0554C21.38 68.6054 20.33 68.9354 19.87 69.7954C19.41 70.6554 19.72 71.7054 20.56 72.1554C21.41 72.6054 22.45 72.2654 22.91 71.4154ZM22.2 71.5254C21.86 71.9954 21.3 72.0354 20.81 71.7754C20.13 71.4154 19.97 70.7154 20.33 70.0454C20.69 69.3754 21.36 69.1154 22.03 69.4854C22.52 69.7454 22.81 70.2254 22.6 70.7854L22.3 70.6254C22.39 70.3354 22.24 69.9854 21.87 69.7854C21.4 69.5354 20.91 69.7554 20.66 70.2254C20.41 70.6954 20.5 71.2354 20.97 71.4754C21.34 71.6754 21.71 71.6054 21.91 71.3654L22.2 71.5254Z" fill="#4A4546"/>
<path d="M26.87 70.8754L26.62 71.4954L25.8 71.1654L24.53 74.2854L23.78 73.9754L25.05 70.8554L24.23 70.5254L24.48 69.9054L26.87 70.8754Z" fill="#4A4546"/>
<path d="M26.7199 73.5954L26.6399 73.8254C26.5299 74.1654 26.5099 74.5254 26.7799 74.6154C27.0299 74.6954 27.1899 74.5454 27.3499 74.2054L28.0099 74.4254C27.7599 75.0854 27.3099 75.3554 26.6199 75.1254C25.5499 74.7654 25.7799 73.9254 26.0199 73.2054C26.2799 72.4354 26.6699 71.7654 27.6599 72.0954C28.5199 72.3854 28.5199 73.0254 28.2299 73.9054L28.1699 74.0754L26.7199 73.5954ZM27.6199 73.4054C27.7499 72.9654 27.7799 72.6954 27.4699 72.5954C27.1799 72.4954 26.9899 72.7754 26.8999 73.0454L26.8599 73.1554L27.6199 73.4054Z" fill="#4A4546"/>
<path d="M30.64 73.0354L31.43 73.2354L30.3 74.4754L30.72 76.1954L29.93 75.9954L29.74 74.9254L29.06 75.7754L28.27 75.5754L29.45 74.2554L29.05 72.6354L29.84 72.8354L30.02 73.8254L30.64 73.0354Z" fill="#4A4546"/>
<path d="M32.2801 72.5054L33.0501 72.6454L32.8901 73.5054L33.3301 73.5854L33.2301 74.1054L32.7901 74.0254L32.4901 75.6454C32.4501 75.8754 32.4801 75.9854 32.7001 76.0254C32.7601 76.0354 32.8201 76.0454 32.8701 76.0454L32.7701 76.5754C32.6001 76.5654 32.4401 76.5454 32.2601 76.5154C31.6601 76.4054 31.5801 76.1954 31.7001 75.5954L32.0201 73.8854L31.6301 73.8154L31.7301 73.2954L32.1201 73.3654L32.2801 72.5054Z" fill="#4A4546"/>
<path d="M33.8299 73.6554L34.5999 73.7654L34.1799 76.7754L33.4099 76.6654L33.8299 73.6554ZM33.9799 72.6254L34.7499 72.7354L34.6599 73.3954L33.8899 73.2854L33.9799 72.6254Z" fill="#4A4546"/>
<path d="M35.4901 72.8654L36.2701 72.9454L35.8801 76.9654L35.1001 76.8854L35.4901 72.8654Z" fill="#4A4546"/>
<path d="M37.52 75.6654L37.51 75.9054C37.5 76.2654 37.58 76.6154 37.87 76.6254C38.13 76.6354 38.24 76.4454 38.3 76.0754L39 76.1054C38.94 76.8054 38.59 77.1954 37.86 77.1654C36.73 77.1254 36.72 76.2454 36.75 75.4954C36.78 74.6854 36.97 73.9354 38.02 73.9754C38.93 74.0054 39.11 74.6254 39.07 75.5554L39.06 75.7254L37.52 75.6654ZM38.33 75.2354C38.33 74.7754 38.28 74.5154 37.96 74.4954C37.65 74.4854 37.55 74.8054 37.54 75.0854V75.2054L38.33 75.2354Z" fill="#4A4546"/>
<path d="M39.75 73.0954L41.83 73.0254L41.85 73.4654L40.26 73.5254L40.3 74.7954L41.8 74.7454L41.82 75.1854L40.32 75.2354L40.37 76.6854L42.02 76.6254L42.04 77.0654L39.89 77.1454L39.75 73.0954Z" fill="#4A4546"/>
<path d="M42.3601 73.9854L42.8801 73.9254L43.5401 74.9454L43.9801 73.8154L44.5001 73.7554L43.8701 75.2854L44.8501 76.7654L44.3301 76.8254L43.6001 75.6954L43.1501 76.9454L42.6301 77.0054L43.2901 75.3454L42.3601 73.9854Z" fill="#4A4546"/>
<path d="M46.6299 74.3354C46.5799 74.0454 46.3999 73.7354 46.0499 73.7954C45.7599 73.8454 45.4899 74.0454 45.6799 75.1354C45.7499 75.5254 45.8899 76.3054 46.4499 76.2054C46.8499 76.1354 46.8699 75.6954 46.8099 75.3754L47.2799 75.2954C47.3599 75.7654 47.2399 76.4454 46.4999 76.5754C45.7699 76.7054 45.3799 76.2554 45.1999 75.2254C45.0699 74.4754 45.0599 73.5954 45.9799 73.4354C46.7899 73.2954 47.0399 73.9054 47.0999 74.2554L46.6299 74.3354Z" fill="#4A4546"/>
<path d="M47.3701 72.2254L47.8301 72.1054L48.1601 73.4154H48.1701C48.2301 73.1454 48.5101 72.8954 48.7701 72.8254C49.5301 72.6354 49.6701 73.2254 49.7601 73.5654L50.2801 75.6454L49.8201 75.7654L49.3101 73.7354C49.2501 73.5054 49.1401 73.1454 48.7301 73.2554C48.4801 73.3154 48.1901 73.5654 48.3001 73.9954L48.8101 76.0254L48.3501 76.1454L47.3701 72.2254Z" fill="#4A4546"/>
<path d="M50.5499 73.3754C50.3299 72.7254 50.5199 72.3354 51.1999 72.1054C52.0699 71.8154 52.2499 72.3354 52.3499 72.6454L52.8799 74.2454C52.9199 74.3654 52.9599 74.4754 53.0999 74.4254C53.1599 74.4054 53.1799 74.3854 53.1999 74.3654L53.3099 74.6854C53.2799 74.7054 53.1699 74.7654 53.0599 74.8054C52.8899 74.8654 52.6699 74.9354 52.5299 74.5754H52.5199C52.4599 74.8854 52.2299 75.1254 51.9699 75.2154C51.4299 75.3954 51.0799 75.1554 50.9099 74.6354C50.7799 74.2354 50.8499 73.8954 51.1899 73.6654L51.7399 73.2854C52.0299 73.0754 51.9999 72.9854 51.9199 72.7454C51.8299 72.4754 51.6199 72.3754 51.3199 72.4754C50.8299 72.6354 50.9799 73.1054 51.0099 73.2054L50.9999 73.2254L50.5499 73.3754ZM52.0799 73.3554C51.9699 73.5854 51.5899 73.7554 51.4199 73.9454C51.2999 74.0854 51.2699 74.2254 51.3499 74.4754C51.4499 74.7654 51.6199 74.9354 51.9199 74.8354C52.2099 74.7354 52.4099 74.3954 52.3199 74.0954L52.0799 73.3554Z" fill="#4A4546"/>
<path d="M52.8801 71.6054L53.3001 71.4354L53.4401 71.7654H53.4501C53.4601 71.4654 53.6901 71.1954 53.9601 71.0854C54.7001 70.7754 54.9301 71.3354 55.0601 71.6654L55.8901 73.6454L55.4501 73.8254L54.6401 71.8954C54.5501 71.6854 54.3901 71.3354 53.9901 71.5054C53.7601 71.6054 53.5001 71.8954 53.6701 72.2954L54.4801 74.2254L54.0401 74.4054L52.8801 71.6054Z" fill="#4A4546"/>
<path d="M58.5299 72.1254C58.9399 72.9354 58.7199 73.4154 58.1699 73.6854C57.9999 73.7754 57.3499 74.0954 56.9399 73.4654L57.3599 73.2454C57.4999 73.4854 57.7499 73.4754 57.9699 73.3654C58.5199 73.0854 58.2799 72.6754 58.1899 72.4954L58.0099 72.1454H57.9999C58.0299 72.4154 57.8399 72.6854 57.5699 72.8154C56.7799 73.2154 56.2299 72.2454 56.0499 71.8954C55.6799 71.1654 55.5199 70.3754 56.2099 70.0254C56.4999 69.8754 56.8399 69.9554 56.9999 70.1454H57.0099L56.8399 69.8054L57.2399 69.6054L58.5299 72.1254ZM56.4899 71.6754C56.7099 72.1154 57.0599 72.6254 57.4799 72.4154C57.9399 72.1854 57.8099 71.7054 57.5299 71.1454C57.2599 70.6254 56.8999 70.1354 56.4499 70.3654C56.0599 70.5654 56.1699 71.0354 56.4899 71.6754Z" fill="#4A4546"/>
<path d="M59.1101 70.3354C59.3501 70.7354 59.7101 71.3354 60.2101 71.0254C60.6001 70.7954 60.4001 70.3554 60.2901 70.1654L60.6901 69.9154C60.8601 70.1954 61.0801 70.9354 60.3701 71.3554C59.7401 71.7354 59.2001 71.4554 58.6701 70.5754C58.2801 69.9254 57.9501 69.1054 58.7501 68.6154C59.5401 68.1354 60.0301 68.7854 60.3701 69.3354L60.4701 69.5054L59.1101 70.3354ZM59.8501 69.4454L59.7601 69.3054C59.5901 69.0154 59.2801 68.7254 58.9301 68.9454C58.5001 69.2054 58.7701 69.7554 58.8701 69.9054L58.9301 70.0054L59.8501 69.4454Z" fill="#4A4546"/>
</svg>
