<svg xmlns="http://www.w3.org/2000/svg" width="80" height="81" fill="none"><mask id="a" width="68" height="69" x="6" y="3" maskUnits="userSpaceOnUse" style="mask-type:luminance"><path fill="#fff" d="M40.29 71.005c18.524 0 33.54-15.016 33.54-33.54 0-18.523-15.016-33.54-33.54-33.54S6.75 18.942 6.75 37.465c0 18.524 15.016 33.54 33.54 33.54"/></mask><g mask="url(#a)"><path fill="#4A4546" d="M73.83 37.465H6.75v33.54h67.08z"/></g><mask id="b" width="68" height="69" x="6" y="3" maskUnits="userSpaceOnUse" style="mask-type:luminance"><path fill="#fff" d="M40.29 71.005c18.524 0 33.54-15.016 33.54-33.54 0-18.523-15.016-33.54-33.54-33.54S6.75 18.942 6.75 37.465c0 18.524 15.016 33.54 33.54 33.54"/></mask><g mask="url(#b)"><path fill="#058295" d="M73.83 3.915H6.75v33.54h67.08z"/></g><path fill="#fff" d="M40.31 59.605c12.228 0 22.14-9.912 22.14-22.14 0-12.227-9.913-22.14-22.14-22.14-12.228 0-22.14 9.913-22.14 22.14 0 12.228 9.912 22.14 22.14 22.14"/><path fill="#058295" d="M28.91 48.305c-.04.27-.07.54-.07.81 0 2.36.76 3.54 2.28 3.54h8.8v-9.14h-8.47c-1.04 1.49-1.69 2.5-1.96 3.02-.3.58-.48 1.17-.58 1.77m5.93-14.78 4.56-7.06c-.35-.81-.72-1.53-1.08-2.17-1.38-2.43-2.83-3.65-4.34-3.65-.36 0-.67.03-.96.1-.63.14-1.09.43-1.37.87l-4.31 6.89zm15.83 8.52h3.79c.91 0 1.85-.4 2.82-1.19 1.04-.83 1.56-1.7 1.56-2.63 0-.43-.14-.85-.42-1.26l-4.51-6.89-7.76 4.51z"/><path fill="#058295" d="M56.09 42.836c-.79.26-1.93.4-3.4.4l-6.36.03v-1.31c0-.51-.12-.77-.37-.77-.18 0-.32.07-.4.2l-4 6.93 4.16 6.39c.32.48.59.67.82.57.23-.06.35-.19.35-.37v-2.18h3.52c1.29 0 2.2-.49 2.73-1.46l5.7-10.36c-.84.95-1.76 1.6-2.75 1.93m-21.71-3.991-3.48-6.53-8.13.2c-.36.02-.55.21-.55.57 0 .08.12.2.35.35l1.68 1.01-.92 1.42-.86 1.35c-.49.79-.74 1.45-.74 1.96 0 .46.16.98.49 1.56l5.52 9.64a8.36 8.36 0 0 1-.2-1.73c0-.42.06-.83.17-1.24.15-.55.4-1.09.74-1.63l4.17-6.55.04-.07.32.2.01.01 1.33.81c.21 0 .34-.06.39-.19.02-.04.03-.09.03-.15 0-.15-.07-.35-.2-.62zm8.38-7.52 6.45.52 3.91-6.59c.13-.23.2-.47.2-.72 0-.3-.1-.45-.3-.45.03 0-.1.05-.4.15l-1.78.82-1.64-3.25c-.4-.81-1.04-1.38-1.89-1.74-.68-.29-1.5-.44-2.47-.44H34.67c1.24.38 2.08.75 2.53 1.12.85.68 1.72 1.85 2.61 3.5.2.36.39.74.59 1.15l2.03 4.26-1.51.72c-.15.07-.22.2-.22.4 0 .25.16.39.47.42l1.6.13z"/><path fill="#fff" d="m18.76 26.465-2.91.3-.5 1.18 2.35 1.01-.5 1.16-6.33-2.72.99-2.32c.52-1.22 1.39-1.99 2.76-1.4.98.42 1.27 1.11 1.38 1.87l3.27-.29zm-6.43.19 1.93.83.37-.85c.45-1.05.13-1.45-.44-1.7-.59-.25-1.04-.17-1.47.83zm7.3-1.8-5.56-4.07 2.6-3.56.98.72-1.84 2.52 1.19.86 1.43-1.96.98.72-1.43 1.96 1.42 1.04 1.9-2.6.98.72zm.54-6.419c-1.42-1.63-1.28-3.64.2-4.93.54-.47 1.2-.84 1.74-.98l.69 1c-.58.2-1.09.43-1.63.9-1.01.88-.87 2.08.04 3.11.91 1.03 2.07 1.34 3.08.46.54-.47.83-.95 1.11-1.5l.89.81c-.22.52-.67 1.12-1.21 1.59-1.48 1.3-3.48 1.17-4.91-.46m7.97-5.281 1.42 2.7-1.12.59-1.42-2.7-3.9-2.28 1.18-.63 2.75 1.62.21-3.18 1.18-.63zm2.33-1.58c-.57-2.08.43-3.83 2.33-4.35.69-.19 1.45-.23 2-.13l.18 1.2c-.61-.07-1.17-.09-1.86.1-1.29.35-1.68 1.49-1.32 2.82.36 1.33 1.28 2.11 2.57 1.76.69-.19 1.16-.49 1.65-.86l.45 1.12c-.42.37-1.09.72-1.78.91-1.9.51-3.65-.48-4.22-2.57m6.81 1.901-.38-6.88 1.26-.07.31 5.66 2.83-.16.07 1.22zm4.59-.171 1.03-6.81 4.36.66-.18 1.21-3.09-.47-.22 1.45 2.39.36-.18 1.21-2.39-.36-.27 1.74 3.18.48-.18 1.21zm5.13.831 2.66-6.36 2.38.99c1.82.76 2.64 2.49 1.81 4.49-.83 2-2.65 2.63-4.46 1.87zm3.36-4.75-1.72 4.12 1.22.51c1.24.52 2.19-.01 2.72-1.28.53-1.27.23-2.32-1-2.84zm4.96 9.209 3.25-3.95c-.3-.03-.6-.12-.89-.28l.59-.89c.38.2 1.22.22 1.66-.02l.75.61-4.38 5.32zm4.57-.58c1.7-1.37 3.68-1.31 4.73-.01 1.02 1.27.65 3.12-.97 4.42-1.7 1.37-3.57 1.37-4.69-.02-1.07-1.33-.7-3.08.93-4.39m.79.98c-1.28 1.03-1.39 2.01-.83 2.71.6.75 1.63.86 3.02-.25 1.27-1.02 1.39-2.12.87-2.77-.53-.65-1.69-.79-3.06.31m3.69 4.95c2.01-.86 3.9-.27 4.56 1.26.64 1.5-.21 3.18-2.12 4-2.01.86-3.81.36-4.51-1.28-.68-1.57.15-3.15 2.07-3.98m.49 1.16c-1.51.65-1.88 1.56-1.52 2.39.38.89 1.34 1.27 2.97.57 1.5-.64 1.91-1.67 1.58-2.44-.33-.77-1.41-1.22-3.03-.52m-50.25 23.02-.67-1.25c.25-.13.42-.3.5-.5.08-.2.08-.43 0-.68-.11-.34-.31-.56-.61-.69-.3-.12-.72-.1-1.26.08-.6.2-1 .44-1.18.72-.18.28-.22.6-.11.94.08.26.22.44.42.56.2.12.49.15.86.1l.21 1.39c-.65.06-1.19-.05-1.63-.34-.44-.29-.76-.76-.98-1.41-.24-.74-.2-1.41.12-2.01.32-.6.9-1.03 1.73-1.3.84-.27 1.56-.26 2.18.03.61.29 1.04.81 1.29 1.57.2.62.23 1.15.08 1.61-.13.45-.46.84-.95 1.18m-2.75 2.77 6.56-3.38.65 1.26-6.56 3.37zm5.32 1.82-.57-1.17c.5-.19.96-.22 1.37-.08.41.14.82.49 1.23 1.04.37.51.59.93.66 1.27.06.34.04.63-.07.86-.11.24-.41.54-.91.9l-1.34.97c-.38.28-.64.5-.8.67-.15.17-.29.38-.43.63l-.83-1.13c.05-.09.14-.2.26-.36.05-.07.09-.12.1-.14-.33-.06-.63-.16-.89-.31s-.48-.35-.66-.6c-.33-.44-.46-.88-.41-1.31.05-.43.26-.78.63-1.05a1.452 1.452 0 0 1 1.58-.13c.26.14.57.37.93.71.49.46.86.76 1.09.9l.11-.09c.22-.16.34-.33.35-.51.01-.18-.09-.42-.31-.72-.15-.2-.31-.33-.47-.39-.16-.05-.37-.04-.62.04m.2 2.2c-.16-.11-.38-.3-.68-.57-.3-.27-.52-.43-.66-.47a.604.604 0 0 0-.57.07c-.16.12-.25.28-.28.48-.03.2.03.4.16.58.15.2.36.35.63.44.2.06.4.06.58 0 .12-.04.32-.16.59-.36zm.22 4.16 3.76-3.8 1.01.99-3.76 3.8zm4.27-4.32.92-.93 1.01.99-.92.93zm1.2 2.521 1.11.69-.39.62c.7-.23 1.32-.18 1.86.16.29.18.51.4.64.65.14.25.2.54.19.87.35-.12.68-.16.98-.14.31.03.59.12.85.28.33.21.57.45.72.73.15.28.2.58.14.92-.04.25-.19.58-.46 1.02l-1.81 2.9-1.2-.75 1.62-2.59c.28-.45.42-.77.42-.95 0-.24-.12-.43-.35-.58a.934.934 0 0 0-.57-.14.99.99 0 0 0-.6.25c-.19.16-.42.45-.68.88l-1.36 2.18-1.2-.75 1.55-2.49c.28-.44.43-.74.47-.89a.63.63 0 0 0-.02-.41.676.676 0 0 0-.31-.32.96.96 0 0 0-.59-.16c-.21.01-.41.09-.59.23-.18.15-.41.44-.68.88l-1.38 2.2-1.2-.75zm9.39 8.959 1.44.03c.01.28.1.51.25.68.16.17.4.29.73.35.36.06.64.05.85-.06.14-.07.22-.18.25-.34.02-.11 0-.2-.05-.28-.06-.08-.2-.17-.43-.26-1.08-.45-1.75-.8-2.02-1.06-.37-.36-.51-.79-.42-1.29.08-.46.33-.81.74-1.06s1-.3 1.76-.17c.72.13 1.24.34 1.54.63.3.29.49.69.54 1.17l-1.36.01a.842.842 0 0 0-.24-.53c-.14-.14-.35-.23-.64-.28-.37-.06-.64-.06-.81.02-.12.06-.19.14-.21.26-.02.1.01.19.09.28.11.12.52.32 1.23.62s1.19.6 1.44.89c.25.3.33.67.25 1.11-.09.48-.36.86-.82 1.14-.46.28-1.09.35-1.88.2-.72-.13-1.26-.37-1.63-.74-.36-.35-.56-.8-.6-1.32m9.15-2.91v1.13h-.97v2.16c0 .44.01.69.03.76.02.07.06.13.13.18.07.05.14.07.24.07.13 0 .32-.05.57-.14l.12 1.1c-.33.14-.7.21-1.12.21-.26 0-.49-.04-.69-.13-.2-.09-.35-.2-.45-.33-.1-.14-.16-.32-.2-.55-.03-.16-.05-.5-.05-1v-2.33h-.65v-1.13h.65v-1.06l1.42-.83v1.89zm2.15 1.44-1.3-.02c.06-.53.24-.95.55-1.25.31-.3.81-.51 1.49-.62.62-.1 1.1-.1 1.43-.01.33.1.57.25.74.46.16.21.29.61.39 1.22l.25 1.63c.08.46.15.8.23 1.01.08.21.2.43.37.67l-1.38.23c-.05-.09-.12-.22-.2-.39-.04-.08-.06-.13-.08-.16-.2.27-.43.49-.68.65-.25.16-.53.26-.84.32-.54.09-1 .01-1.36-.23a1.47 1.47 0 0 1-.65-1.04c-.05-.3-.02-.58.08-.83.1-.26.27-.47.51-.63.24-.17.59-.34 1.06-.51.63-.23 1.06-.42 1.3-.56l-.02-.14c-.04-.27-.14-.45-.29-.54-.15-.09-.41-.11-.78-.05-.25.04-.43.12-.56.24-.13.1-.21.29-.26.55m2.05.83c-.17.09-.44.21-.81.35-.37.15-.61.27-.72.37-.16.16-.23.34-.19.54.03.2.13.35.3.47.17.12.37.16.59.12.25-.04.48-.16.68-.37.15-.15.23-.33.26-.52.02-.12 0-.35-.06-.69zm8.64-.16-1.31.53-1.03-2.53c-.22-.53-.39-.87-.51-1a.851.851 0 0 0-.42-.26.772.772 0 0 0-.51.06c-.23.09-.4.24-.54.43-.13.2-.19.41-.17.64.02.23.14.63.36 1.18l.91 2.24-1.31.53-2.01-4.95 1.22-.49.3.73c.2-.74.63-1.24 1.29-1.5.29-.12.58-.17.86-.17.28.01.52.07.71.18.19.11.35.26.48.45s.28.47.43.85zm6.19-4.06-1.07.76-.46-.64c0 .37-.08.71-.23 1-.16.29-.36.53-.6.7-.5.36-1.07.46-1.72.31-.65-.15-1.22-.58-1.74-1.31-.53-.74-.75-1.42-.68-2.05.07-.63.37-1.14.91-1.51.49-.35 1.05-.44 1.7-.29l-1.54-2.16 1.15-.82zm-4.7-.08c.33.46.63.75.91.87.4.17.77.13 1.1-.1.26-.19.41-.46.43-.82.03-.36-.12-.76-.44-1.21-.36-.5-.7-.8-1.04-.89-.34-.09-.65-.04-.93.16-.27.2-.43.47-.46.81-.01.36.13.75.43 1.18m4.4-4.82-1.03.8c-.29-.45-.41-.89-.36-1.32.05-.43.31-.9.77-1.42.42-.47.79-.77 1.11-.9.32-.13.6-.17.86-.11.26.06.61.29 1.07.7l1.22 1.11c.35.31.62.53.82.64.2.12.43.21.7.29l-.93 1.04c-.09-.03-.23-.09-.4-.18-.08-.04-.13-.06-.16-.07.01.34-.03.65-.12.93s-.25.54-.46.77c-.37.41-.77.63-1.2.67-.43.04-.82-.1-1.16-.4-.23-.2-.38-.43-.46-.7-.08-.26-.08-.54 0-.81.08-.28.25-.63.51-1.06.35-.58.57-.99.66-1.26l-.11-.09c-.2-.18-.39-.26-.57-.24-.17.02-.39.17-.64.45-.17.19-.26.37-.28.54-.01.19.04.39.16.62m2.12-.64c-.08.17-.21.44-.41.78-.2.35-.31.59-.33.74-.03.23.04.4.19.54.15.13.32.19.53.18.21-.01.38-.11.54-.28.17-.19.27-.43.3-.71.02-.21-.02-.4-.12-.56-.06-.11-.22-.28-.48-.5zm4.81-2.3-.74 1.21-4.55-2.8.69-1.12.65.4c-.19-.38-.28-.68-.29-.89 0-.21.06-.42.17-.61.17-.27.41-.49.72-.65l.82 1.02c-.26.12-.44.27-.55.44-.1.17-.14.34-.12.52.02.18.13.37.33.59.2.22.69.56 1.47 1.04zm3.48-7.66-.46 1.23-.74-.28c.21.31.33.63.37.96.04.33 0 .64-.11.92-.22.58-.63.98-1.25 1.21-.62.23-1.34.2-2.17-.12-.85-.32-1.42-.76-1.71-1.33-.29-.57-.32-1.15-.09-1.76.21-.56.63-.95 1.24-1.19l-2.49-.94.5-1.32zm-3.94 2.55c.53.2.95.27 1.24.21.43-.08.71-.32.86-.7.12-.3.08-.61-.1-.92-.18-.31-.53-.56-1.04-.76-.58-.22-1.03-.27-1.36-.16-.33.11-.56.33-.68.65s-.09.62.08.93c.17.32.5.56 1 .75"/><path fill="#4A4546" d="M22.38 68.745c1.02.55 1.41 1.81.86 2.84a2.096 2.096 0 0 1-2.84.86 2.096 2.096 0 0 1-.86-2.84c.55-1.01 1.82-1.4 2.84-.86m.53 2.67c.46-.86.15-1.91-.69-2.36-.84-.45-1.89-.12-2.35.74-.46.86-.15 1.91.69 2.36.85.45 1.89.11 2.35-.74m-.71.11c-.34.47-.9.51-1.39.25-.68-.36-.84-1.06-.48-1.73.36-.67 1.03-.93 1.7-.56.49.26.78.74.57 1.3l-.3-.16c.09-.29-.06-.64-.43-.84-.47-.25-.96-.03-1.21.44s-.16 1.01.31 1.25c.37.2.74.13.94-.11zm4.67-.65-.25.62-.82-.33-1.27 3.12-.75-.31 1.27-3.12-.82-.33.25-.62zm-.15 2.72-.08.23c-.11.34-.13.7.14.79.25.08.41-.07.57-.41l.66.22c-.25.66-.7.93-1.39.7-1.07-.36-.84-1.2-.6-1.92.26-.77.65-1.44 1.64-1.11.86.29.86.93.57 1.81l-.06.17zm.9-.19c.13-.44.16-.71-.15-.81-.29-.1-.48.18-.57.45l-.04.11zm3.02-.37.79.2-1.13 1.24.42 1.72-.79-.2-.19-1.07-.68.85-.79-.2 1.18-1.32-.4-1.62.79.2.18.99zm1.64-.53.77.14-.16.86.44.08-.1.52-.44-.08-.3 1.62c-.04.23-.01.34.21.38.06.01.12.02.17.02l-.1.53c-.17-.01-.33-.03-.51-.06-.6-.11-.68-.32-.56-.92l.32-1.71-.39-.07.1-.52.39.07zm1.55 1.15.77.11-.42 3.01-.77-.11zm.15-1.03.77.11-.09.66-.77-.11zm1.51.24.78.08-.39 4.02-.78-.08zm2.03 2.8-.01.24c-.01.36.07.71.36.72.26.01.37-.18.43-.55l.7.03c-.06.7-.41 1.09-1.14 1.06-1.13-.04-1.14-.92-1.11-1.67.03-.81.22-1.56 1.27-1.52.91.03 1.09.65 1.05 1.58l-.01.17zm.81-.43c0-.46-.05-.72-.37-.74-.31-.01-.41.31-.42.59v.12zm1.42-2.14 2.08-.07.02.44-1.59.06.04 1.27 1.5-.05.02.44-1.5.05.05 1.45 1.65-.06.02.44-2.15.08zm2.61.89.52-.06.66 1.02.44-1.13.52-.06-.63 1.53.98 1.48-.52.06-.73-1.13-.45 1.25-.52.06.66-1.66zm4.27.35c-.05-.29-.23-.6-.58-.54-.29.05-.56.25-.37 1.34.07.39.21 1.17.77 1.07.4-.07.42-.51.36-.83l.47-.08c.08.47-.04 1.15-.78 1.28-.73.13-1.12-.32-1.3-1.35-.13-.75-.14-1.63.78-1.79.81-.14 1.06.47 1.12.82zm.74-2.11.46-.12.33 1.31h.01c.06-.27.34-.52.6-.59.76-.19.9.4.99.74l.52 2.08-.46.12-.51-2.03c-.06-.23-.17-.59-.58-.48-.25.06-.54.31-.43.74l.51 2.03-.46.12zm3.18 1.15c-.22-.65-.03-1.04.65-1.27.87-.29 1.05.23 1.15.54l.53 1.6c.04.12.08.23.22.18.06-.02.08-.04.1-.06l.11.32c-.03.02-.14.08-.25.12-.17.06-.39.13-.53-.23h-.01c-.06.31-.29.55-.55.64-.54.18-.89-.06-1.06-.58-.13-.4-.06-.74.28-.97l.55-.38c.29-.21.26-.3.18-.54-.09-.27-.3-.37-.6-.27-.49.16-.34.63-.31.73l-.01.02zm1.53-.02c-.11.23-.49.4-.66.59-.12.14-.15.28-.07.53.1.29.27.46.57.36.29-.1.49-.44.4-.74zm.8-1.75.42-.17.14.33h.01c.01-.3.24-.57.51-.68.74-.31.97.25 1.1.58l.83 1.98-.44.18-.81-1.93c-.09-.21-.25-.56-.65-.39-.23.1-.49.39-.32.79l.81 1.93-.44.18zm5.65.52c.41.81.19 1.29-.36 1.56-.17.09-.82.41-1.23-.22l.42-.22c.14.24.39.23.61.12.55-.28.31-.69.22-.87l-.18-.35H58c.03.27-.16.54-.43.67-.79.4-1.34-.57-1.52-.92-.37-.73-.53-1.52.16-1.87.29-.15.63-.07.79.12h.01l-.17-.34.4-.2zm-2.04-.45c.22.44.57.95.99.74.46-.23.33-.71.05-1.27-.27-.52-.63-1.01-1.08-.78-.39.2-.28.67.04 1.31m2.62-1.34c.24.4.6 1 1.1.69.39-.23.19-.67.08-.86l.4-.25c.17.28.39 1.02-.32 1.44-.63.38-1.17.1-1.7-.78-.39-.65-.72-1.47.08-1.96.79-.48 1.28.17 1.62.72l.1.17zm.74-.89-.09-.14c-.17-.29-.48-.58-.83-.36-.43.26-.16.81-.06.96l.06.1z"/></svg>