<svg xmlns="http://www.w3.org/2000/svg" xmlns:xlink="http://www.w3.org/1999/xlink" xml:space="preserve" id="Ebene_1" width="140" height="140" x="0" y="0" style="enable-background:new 0 0 2000 3000" version="1.1" viewBox="100 500 2000 2000"><style>.st1{font-family:&quot;MyriadPro-Regular&quot;}.st2{font-size:100px}.st5{fill:#fff}.st6{fill:#008192}</style><path d="M22.22 2278.65h1955.56v294.44H22.22z" style="fill:none"/><text transform="translate(169.866 2349.647)"><tspan x="0" y="0" class="st1 st2">Zertifiziert von ECOCERT Greenlife S.A.S.</tspan><tspan x="364.2" y="120" class="st1 st2">Lizenznr. TE-00152026</tspan></text><defs><path id="SVGID_1_" d="M1715.14 1253.65c0 394.79-320.04 714.83-714.83 714.83s-714.83-320.04-714.83-714.83 320.04-714.83 714.83-714.83 714.83 320.04 714.83 714.83"/></defs><clipPath id="SVGID_00000044140442870050274180000018015533064175090336_"><use xlink:href="#SVGID_1_" style="overflow:visible"/></clipPath><path d="M1715.14 1968.48H285.48v-714.83h1429.66z" style="clip-path:url(#SVGID_00000044140442870050274180000018015533064175090336_);fill:#494546"/><path d="M1715.14 1253.65H285.48V538.82h1429.66z" style="clip-path:url(#SVGID_00000044140442870050274180000018015533064175090336_);fill:#008192"/><path d="M1472.56 1253.65c0 260.57-211.22 471.79-471.79 471.79-260.56 0-471.79-211.22-471.79-471.79 0-260.56 211.23-471.79 471.79-471.79 260.57 0 471.79 211.23 471.79 471.79" class="st5"/><path d="M757.84 1484.69c-.88 5.7-1.47 11.42-1.47 17.2 0 50.34 16.18 75.5 48.56 75.5h187.43v-194.81H811.81c-22.18 31.66-36.09 53.19-41.71 64.42-6.33 12.36-10.3 24.93-12.26 37.63m126.3-314.81 97.14-150.47c-7.56-17.24-15.24-32.57-23-46.23l-.01-.01c-29.45-51.8-60.32-77.83-92.62-77.83-7.63 0-14.39.74-20.45 2.05h-.03c-13.53 2.95-23.29 9.08-29.13 18.54l-91.88 146.78zm337.34 181.55h80.8c19.34 0 39.39-8.44 60.17-25.33 22.19-17.6 33.26-36.24 33.26-55.97 0-9.13-3.01-18.11-8.98-26.93l-96.07-146.77-165.28 96.11z" class="st6"/><path d="M1337.01 1368.12c-16.9 5.65-41.04 8.45-72.35 8.45l-135.5.74v-27.98c0-10.9-2.64-16.37-7.92-16.37-3.89 0-6.72 1.44-8.45 4.22l-85.16 147.62 88.68 136.22c6.7 10.22 12.49 14.25 17.43 12.12 4.91-1.39 7.4-4.01 7.4-7.9v-46.46h74.96c27.46 0 46.8-10.38 58.07-31.14l121.44-220.69c-17.95 20.42-37.5 34.14-58.6 41.17m-462.61-84.93-.08-.15-74.06-139.11-173.18 4.23c-7.75.37-11.61 4.41-11.61 12.15 0 1.76 2.45 4.22 7.38 7.4l35.9 21.62-19.51 30.37-.04.06-18.45 28.7c-10.56 16.91-15.84 30.85-15.84 41.74 0 9.88 3.49 20.95 10.56 33.27L733.2 1528.8c-2.82-12.99-4.21-25.33-4.21-36.95 0-8.89 1.26-17.74 3.66-26.5l.01-.05c3.18-11.67 8.41-23.24 15.84-34.68l88.84-139.51.93-1.45 6.8 4.17.29.17 28.28 17.3c4.47 0 7.25-1.39 8.4-4.14l.02-.01c.37-.92.55-2 .55-3.24 0-3.15-1.44-7.55-4.22-13.2zm178.58-160.27 137.45 10.99 83.4-140.44c2.81-4.91 4.21-10.03 4.21-15.31 0-6.33-2.11-9.5-6.31-9.5.67 0-2.13 1.06-8.46 3.18l-38 17.41-34.84-69.16c-8.6-17.16-22.14-29.4-40.24-37.06l-.09-.05c-14.53-6.11-31.94-9.35-52.6-9.35H880.52c26.39 8.1 44.33 16.02 53.84 23.75 18.18 14.44 36.71 39.44 55.58 74.65l.01.03c4.16 7.75 8.32 15.82 12.5 24.58l43.3 90.81-32.22 15.33c-3.17 1.42-4.75 4.21-4.75 8.43 0 5.27 3.33 8.3 10.03 8.98l34.02 2.72z" class="st6"/><path d="m404.47 1023.32 41.07 17.62 7.77-18.12c9.59-22.37 2.79-31-9.36-36.21-12.53-5.38-22.2-3.58-31.3 17.63zm137.09-3.99-62.13 6.46-10.75 25.07 50.14 21.5-10.58 24.68-134.98-57.88 21.17-49.37c11.16-26.03 29.57-42.34 58.88-29.76 20.83 8.93 27.05 23.7 29.5 39.81l69.76-6.16zm18.51-34.38-118.53-86.74 55.52-75.85 20.99 15.36-39.28 53.67L504 909.86l30.48-41.65 21 15.36L525 925.22l30.3 22.18 40.52-55.37 21 15.37zm11.48-136.81c-30.35-34.78-27.29-77.55 4.32-105.13 11.54-10.07 25.6-17.89 37.12-20.97l14.61 21.22c-12.34 4.37-23.22 9.13-34.76 19.2-21.5 18.76-18.47 44.24.84 66.37 19.31 22.14 44.15 28.58 65.65 9.82 11.54-10.07 17.73-20.21 23.73-31.84l19.05 17.35c-4.62 10.99-14.26 23.86-25.8 33.93-31.62 27.58-74.41 24.83-104.76-9.95m169.81-112.52 30.35 57.53-23.75 12.53-30.35-57.52-83.1-48.67 25.24-13.32 58.57 34.57 4.52-67.86 25.24-13.32zm49.62-33.57c-12.18-44.52 9.2-81.69 49.67-92.76 14.77-4.04 30.84-4.95 42.54-2.72l3.92 25.46c-13.01-1.44-24.88-1.9-39.65 2.14-27.52 7.53-35.9 31.79-28.15 60.12s27.3 44.95 54.83 37.43c14.77-4.04 24.76-10.47 35.22-18.33l9.59 23.92c-8.94 7.88-23.23 15.27-38 19.31-40.48 11.07-77.8-10.04-89.97-54.57m145.14 40.42-8.08-146.65 26.81-1.48 6.66 120.67 60.33-3.32 1.43 25.97zm97.77-3.53 21.97-145.23 92.94 14.07-3.89 25.72-65.77-9.94-4.67 30.9 51.03 7.73-3.89 25.72-51.04-7.72-5.61 37.14 67.84 10.26-3.89 25.73zm180.92-83.74-36.72 87.88 25.94 10.83c26.33 11.01 46.72-.26 58.04-27.36 11.32-27.1 5-49.52-21.32-60.52zm-71.44 101.33 56.62-135.5 50.71 21.19c38.72 16.18 56.27 53.06 38.48 95.65-17.79 42.59-56.38 56.02-95.09 39.85zm177.21 95.16 69.17-84.11c-6.48-.71-12.91-2.47-19.06-5.9l12.61-18.97c8.17 4.27 25.96 4.77 35.44-.47l15.88 13.06-93.29 113.45zm114.2 8.54c-27.31 21.94-29.72 42.72-17.64 57.78 12.88 16.02 34.71 18.4 64.31-5.39 27.15-21.81 29.69-45.12 18.52-59.02-11.17-13.9-35.91-16.89-65.19 6.63m-16.82-20.93c36.31-29.18 78.55-27.86 100.76-.22 21.82 27.15 13.81 66.42-20.7 94.15-36.31 29.18-76.15 29.16-99.94-.44-22.74-28.29-14.79-65.63 19.88-93.49m105.99 150.99c-32.2 13.83-40.08 33.21-32.47 50.94 8.12 18.9 28.51 27.03 63.41 12.04 32-13.74 40.69-35.52 33.65-51.9-7.04-16.39-30.09-25.9-64.59-11.08m-10.61-24.67c42.8-18.39 83.15-5.81 97.15 26.77 13.74 32-4.49 67.7-45.17 85.17-42.8 18.39-81.19 7.7-96.17-27.19-14.33-33.35 3.33-67.2 44.19-84.75M453.03 1480.86l-14.32-26.59c5.33-2.79 8.87-6.33 10.63-10.63 1.76-4.3 1.76-9.13.01-14.5-2.33-7.14-6.65-12.03-12.97-14.67-6.31-2.64-15.25-2.07-26.81 1.7-12.85 4.19-21.22 9.31-25.12 15.35-3.9 6.05-4.66 12.71-2.28 19.99 1.77 5.44 4.77 9.38 9 11.84 4.22 2.46 10.34 3.17 18.35 2.13l4.39 29.72c-13.87 1.29-25.46-1.13-34.76-7.28-9.3-6.15-16.23-16.18-20.77-30.12-5.17-15.85-4.29-30.11 2.63-42.78 6.92-12.68 19.22-21.9 36.9-27.66 17.88-5.84 33.34-5.66 46.39.54 13.04 6.21 22.19 17.36 27.45 33.48 4.3 13.19 4.89 24.61 1.75 34.24-3.12 9.63-9.95 18.05-20.47 25.24m-58.6 59.12 139.84-71.95 13.8 26.8-139.84 71.95zm117.5 85.67c-3.32-2.35-8.19-6.37-14.58-12.04-6.4-5.68-11.05-9.05-13.96-10.11-4.58-1.52-8.59-1-12.05 1.54-3.4 2.5-5.41 5.93-6.02 10.29-.61 4.35.52 8.49 3.4 12.41 3.22 4.38 7.73 7.5 13.53 9.36 4.35 1.33 8.45 1.29 12.3-.12 2.54-.89 6.72-3.48 12.54-7.76zm-4.18-46.98-12.23-24.96c10.69-4.05 20.4-4.61 29.11-1.7s17.45 10.33 26.22 22.26c7.97 10.83 12.61 19.84 13.94 27.02 1.33 7.19.82 13.32-1.54 18.38-2.36 5.06-8.81 11.47-19.35 19.23l-28.54 20.58c-8.07 5.94-13.73 10.7-16.99 14.29-3.26 3.59-6.3 8.07-9.11 13.42l-17.66-24.03c1.14-1.82 2.97-4.35 5.46-7.61 1.14-1.47 1.88-2.45 2.22-2.96-7.08-1.19-13.37-3.4-18.86-6.64-5.49-3.24-10.21-7.54-14.15-12.9-6.95-9.46-9.86-18.78-8.73-28 1.12-9.22 5.6-16.7 13.44-22.47 5.18-3.81 10.72-5.98 16.6-6.48 5.88-.51 11.55.67 16.99 3.55 5.44 2.88 12.06 7.93 19.86 15.15 10.48 9.79 18.25 16.2 23.31 19.22l2.42-1.77c4.67-3.44 7.15-7.03 7.44-10.8.29-3.77-1.91-8.85-6.61-15.24-3.18-4.32-6.51-7.06-9.98-8.24-3.48-1.18-7.9-.94-13.26.7m99.95 43.61 19.59-19.85 21.45 21.18-19.59 19.85zm-90.89 92.07 80.04-81.08 21.45 21.18-80.04 81.08zM633.33 1676l23.57 14.71-8.23 13.2c14.83-5 28.07-3.86 39.72 3.41 6.19 3.86 10.77 8.49 13.73 13.88 2.96 5.39 4.29 11.57 3.99 18.54 7.46-2.51 14.45-3.5 20.96-2.99 6.5.51 12.54 2.52 18.13 6 7.1 4.43 12.21 9.62 15.33 15.56 3.11 5.95 4.14 12.47 3.09 19.57-.81 5.22-4.1 12.45-9.85 21.67l-38.55 61.8-25.58-15.96 34.47-55.25c5.98-9.59 8.96-16.32 8.94-20.22-.1-5.11-2.6-9.21-7.51-12.27-3.58-2.23-7.63-3.24-12.15-3.02-4.52.21-8.79 2-12.82 5.34-4.03 3.35-8.88 9.57-14.55 18.68l-28.96 46.42-25.58-15.96 33.04-52.97c5.87-9.4 9.2-15.76 9.99-19.06.79-3.29.65-6.21-.43-8.74-1.08-2.52-3.25-4.81-6.53-6.85-3.94-2.46-8.16-3.62-12.64-3.46-4.48.16-8.65 1.81-12.51 4.97-3.86 3.15-8.69 9.37-14.48 18.66l-29.29 46.97-25.58-15.96zm200.05 190.89 30.59.7c.25 6 2.05 10.84 5.4 14.51 3.35 3.68 8.51 6.13 15.48 7.36 7.68 1.35 13.7.96 18.07-1.18 2.95-1.51 4.72-3.93 5.3-7.24.39-2.25.01-4.24-1.13-5.97-1.23-1.67-4.31-3.56-9.24-5.65-23.01-9.5-37.35-16.99-42.99-22.49-7.81-7.62-10.76-16.82-8.87-27.6 1.71-9.72 6.99-17.22 15.83-22.48 8.84-5.27 21.32-6.49 37.46-3.65 15.35 2.7 26.32 7.21 32.91 13.52 6.58 6.32 10.43 14.61 11.52 24.9l-28.91.25c-.43-4.57-2.11-8.32-5.05-11.24-2.94-2.91-7.5-4.91-13.7-6-7.82-1.38-13.61-1.27-17.37.32-2.53 1.16-4.01 2.97-4.45 5.43-.37 2.11.3 4.08 2.01 5.91 2.33 2.44 11.08 6.85 26.26 13.22 15.18 6.38 25.45 12.73 30.8 19.04 5.26 6.38 7.07 14.28 5.41 23.72-1.81 10.27-7.66 18.36-17.55 24.25-9.9 5.88-23.26 7.34-40.1 4.38-15.28-2.69-26.83-7.92-34.65-15.68-7.81-7.77-12.16-17.21-13.03-28.33m195.11-62.06.04 24.03-20.6.03.08 45.91c.02 9.3.23 14.72.62 16.25.39 1.54 1.29 2.8 2.69 3.8s3.1 1.5 5.1 1.5c2.79-.01 6.82-.99 12.12-2.92l2.61 23.38c-7 3.02-14.94 4.53-23.8 4.55-5.44.01-10.34-.89-14.7-2.71-4.37-1.81-7.57-4.17-9.62-7.06-2.04-2.9-3.46-6.81-4.25-11.74-.65-3.5-.99-10.58-1-21.24l-.09-49.67-13.83.02-.04-24.03 13.84-.02-.04-22.63 30.22-17.65.07 40.23zm89.56 48.36c-3.61 1.89-9.39 4.39-17.36 7.5-7.97 3.12-13.09 5.72-15.36 7.83-3.43 3.38-4.8 7.2-4.11 11.43.68 4.17 2.82 7.51 6.42 10.04 3.6 2.52 7.79 3.4 12.6 2.62 5.36-.88 10.19-3.48 14.49-7.8 3.16-3.27 4.99-6.94 5.49-11.01.36-2.67-.04-7.56-1.2-14.69zm-43.75-17.64-27.79-.46c1.26-11.37 5.17-20.26 11.73-26.7 6.56-6.43 17.15-10.84 31.75-13.23 13.27-2.16 23.41-2.21 30.42-.12 7 2.08 12.22 5.32 15.66 9.73 3.44 4.41 6.21 13.06 8.32 25.98l5.35 34.78c1.61 9.88 3.28 17.09 5 21.63 1.72 4.53 4.32 9.27 7.81 14.21l-29.44 4.8c-1.1-1.84-2.53-4.62-4.29-8.32-.78-1.69-1.32-2.79-1.63-3.32-4.27 5.77-9.1 10.37-14.49 13.77-5.39 3.42-11.36 5.66-17.92 6.73-11.58 1.89-21.21.24-28.91-4.96-7.69-5.19-12.32-12.59-13.89-22.19-1.03-6.36-.45-12.27 1.78-17.74 2.22-5.47 5.85-9.97 10.89-13.51 5.04-3.54 12.55-7.14 22.53-10.79 13.48-4.88 22.72-8.89 27.71-12.02l-.48-2.97c-.93-5.72-3.01-9.56-6.23-11.54-3.23-1.97-8.74-2.32-16.58-1.04-5.29.87-9.25 2.58-11.88 5.15-2.63 2.56-4.44 6.61-5.42 12.13m227.72 14.33-27.93 11.35-21.89-53.87c-4.63-11.4-8.22-18.52-10.77-21.38-2.55-2.86-5.55-4.68-8.99-5.44-3.44-.77-7.04-.38-10.82 1.15-4.84 1.97-8.64 5.05-11.41 9.26-2.76 4.22-3.97 8.79-3.62 13.74.35 4.96 2.93 13.33 7.71 25.12l19.43 47.81-27.93 11.35-42.88-105.55 25.94-10.54 6.3 15.5c4.36-15.67 13.53-26.34 27.51-32.02 6.16-2.5 12.24-3.68 18.25-3.54 6 .15 11.01 1.42 15.03 3.8s7.43 5.55 10.23 9.5c2.81 3.96 5.87 10.01 9.18 18.16zm31.86-88.21c7.05 9.9 13.53 16.09 19.42 18.56 8.52 3.59 16.34 2.85 23.45-2.22 5.65-4.02 8.74-9.85 9.28-17.47.53-7.63-2.6-16.22-9.41-25.77-7.59-10.66-14.98-16.96-22.17-18.92-7.19-1.95-13.77-.79-19.77 3.49-5.82 4.15-9.05 9.95-9.69 17.37-.62 7.44 2.34 15.75 8.89 24.96m100.02 1.72-22.8 16.24-9.71-13.63c-.01 8-1.67 15.13-4.98 21.4-3.31 6.26-7.59 11.26-12.82 14.99-10.66 7.59-22.85 9.81-36.57 6.63-13.73-3.17-26.07-12.46-37.02-27.83-11.2-15.73-16.02-30.31-14.46-43.77 1.56-13.45 8-24.21 19.3-32.25 10.37-7.39 22.41-9.47 36.13-6.24l-32.87-46.13 24.55-17.49zm38.93-118.19c-1.62 3.74-4.55 9.32-8.81 16.73-4.25 7.43-6.6 12.67-7.05 15.73-.54 4.79.78 8.62 3.98 11.48 3.15 2.82 6.91 4.08 11.3 3.79 4.39-.29 8.2-2.25 11.45-5.87 3.63-4.04 5.75-9.1 6.39-15.16.41-4.53-.47-8.54-2.63-12.02-1.39-2.29-4.77-5.86-10.15-10.69zm-45.14 13.7-21.94 17.08c-6.14-9.65-8.68-19.03-7.61-28.16 1.07-9.12 6.55-19.2 16.44-30.22 8.98-10.01 16.84-16.39 23.6-19.18 6.76-2.77 12.86-3.52 18.3-2.25 5.44 1.27 13.03 6.28 22.77 15.01l25.98 23.73c7.46 6.69 13.27 11.26 17.46 13.72 4.19 2.45 9.19 4.51 14.99 6.17l-19.91 22.21c-2.02-.76-4.87-2.01-8.56-3.79-1.67-.82-2.78-1.34-3.35-1.57.29 7.18-.59 13.78-2.64 19.82-2.05 6.03-5.29 11.53-9.74 16.49-7.83 8.73-16.37 13.49-25.62 14.27-9.25.78-17.49-2.07-24.74-8.57-4.79-4.29-8.04-9.27-9.74-14.93-1.71-5.65-1.71-11.44 0-17.36 1.7-5.92 5.29-13.43 10.77-22.54 7.44-12.25 12.12-21.17 14.04-26.74l-2.24-2c-4.31-3.87-8.34-5.56-12.09-5.08-3.75.49-8.26 3.68-13.56 9.59-3.58 4-5.59 7.81-6.02 11.46-.42 3.64.71 7.92 3.41 12.84m147.55-62.68-15.79 25.67-97.04-59.7 14.68-23.85 13.79 8.49c-4.01-8.09-6.04-14.41-6.11-18.94-.06-4.53 1.18-8.87 3.73-13.01 3.6-5.85 8.68-10.49 15.24-13.92l17.5 21.73c-5.47 2.6-9.34 5.75-11.63 9.47-2.21 3.59-3.09 7.24-2.65 10.96.44 3.72 2.81 7.88 7.11 12.5 4.29 4.62 14.7 12 31.21 22.16zm-9.78-108.91c11.38 4.28 20.21 5.81 26.48 4.58 9.07-1.77 15.15-6.75 18.22-14.92 2.44-6.49 1.76-13.05-2.05-19.69-3.8-6.63-11.2-12.01-22.18-16.14-12.25-4.61-21.9-5.73-28.95-3.33-7.05 2.39-11.88 7.03-14.47 13.92-2.52 6.7-1.97 13.3 1.65 19.82 3.63 6.53 10.73 11.79 21.3 15.76m83.96-54.36-9.86 26.21-15.66-5.9c4.46 6.65 7.06 13.49 7.8 20.53.74 7.04-.01 13.58-2.28 19.61-4.61 12.24-13.49 20.88-26.66 25.9-13.16 5.02-28.58 4.2-46.24-2.45-18.08-6.8-30.21-16.23-36.42-28.26-6.2-12.04-6.86-24.55-1.98-37.54 4.49-11.91 13.32-20.35 26.5-25.33l-53.01-19.95 10.62-28.21z" class="st5"/><path d="M614.7 1979.68c-7.27 10.04-19.2 10.91-29.72 5.3-14.45-7.72-17.88-22.5-10.23-36.85 7.65-14.34 21.86-19.73 36.3-12.02 10.52 5.62 16.55 15.79 12.15 27.64l-6.37-3.4c1.83-6.25-1.31-13.66-9.18-17.86-9.99-5.33-20.56-.59-25.89 9.39-5.33 9.99-3.37 21.4 6.62 26.73 7.87 4.19 15.77 2.68 19.95-2.33zm15.26-2.51c9.75-18.28 3.18-40.75-14.77-50.33-17.96-9.58-40.29-2.51-50.04 15.76s-3.18 40.75 14.78 50.33c17.95 9.58 40.28 2.52 50.03-15.76m-11.38-56.7c21.78 11.62 30 38.66 18.39 60.45-11.62 21.78-38.67 30.01-60.45 18.4-21.79-11.63-30.01-38.67-18.39-60.45 11.62-21.8 38.67-30.03 60.45-18.4m95.63 45.25-5.37 13.15-17.39-7.11-27.17 66.43-16.06-6.57 27.17-66.42-17.38-7.12 5.38-13.15zm16.08 53.97c2.78-9.49 3.39-15.12-3.12-17.29-6.29-2.09-10.28 3.81-12.19 9.52l-.8 2.4zm-19.24 3.99-1.64 4.91c-2.4 7.2-2.83 14.93 3 16.87 5.25 1.75 8.75-1.52 12.2-8.76l14.16 4.73c-5.33 14.09-14.86 19.8-29.71 14.85-22.85-7.63-17.89-25.52-12.78-40.83 5.49-16.45 13.79-30.69 35.04-23.6 18.39 6.14 18.39 19.85 12.09 38.7l-1.18 3.54zm83.58-11.9 16.81 4.25-24.05 26.33 8.85 36.65-16.81-4.25-4.13-22.91-14.54 18.18-16.82-4.26 25.24-28.02-8.64-34.6 16.82 4.25 3.85 21.1zm34.88-11.32 16.33 3.06-3.41 18.23 9.48 1.77-2.08 11.13-9.48-1.77-6.45 34.45c-.93 4.97-.24 7.18 4.49 8.07 1.3.25 2.63.37 3.72.45l-2.12 11.36c-3.62-.31-7-.57-10.79-1.28-12.78-2.4-14.42-6.74-12-19.65l6.82-36.46-8.28-1.55 2.08-11.13 8.28 1.55zm36.25 2.65 16.47 2.3-1.97 14.07-16.46-2.3zm-3.06 21.95 16.46 2.29-8.95 64.17-16.47-2.3zm35.28-16.82 16.55 1.6-8.3 85.59-16.55-1.61zm60.54 50.43c.02-9.88-.97-15.46-7.83-15.73-6.62-.26-8.8 6.53-9.04 12.54l-.1 2.52zm-17.35 9.21-.2 5.18c-.29 7.57 1.46 15.12 7.59 15.35 5.53.22 7.99-3.91 9.26-11.81l14.92.58c-1.19 15.02-8.74 23.16-24.38 22.56-24.07-.94-24.31-19.5-23.69-35.63.67-17.32 4.67-33.32 27.05-32.45 19.37.76 23.2 13.92 22.43 33.77l-.15 3.73zm47.59-54.91 44.41-1.55.32 9.38-33.81 1.19.94 26.96 31.89-1.12.32 9.39-31.88 1.11 1.06 30.81 35.26-1.23.34 9.39-45.85 1.6zm55.62 19.08 11.02-1.16 14.04 21.65 9.31-24.12 11.02-1.16-13.52 32.55 20.9 31.58-11.02 1.16-15.49-24.03-9.66 26.69-11.01 1.16 14.07-35.27zm90.95 7.47c-1.08-6.17-4.8-12.74-12.39-11.41-6.17 1.08-11.92 5.26-7.85 28.51 1.46 8.31 4.48 24.89 16.46 22.79 8.54-1.49 8.86-10.84 7.66-17.72l9.96-1.75c1.77 10.08-.83 24.59-16.73 27.37-15.54 2.72-23.95-6.93-27.77-28.76-2.78-15.9-2.92-34.82 16.66-38.24 17.32-3.03 22.67 10.09 23.96 17.44zm15.77-44.97 9.81-2.47 7.02 27.91.23-.06c1.28-5.78 7.26-11.14 12.86-12.55 16.12-4.05 19.26 8.45 21.11 15.81l11.15 44.38-9.81 2.47-10.86-43.21c-1.2-4.79-3.52-12.53-12.4-10.3-5.26 1.32-11.5 6.62-9.22 15.73l10.86 43.22-9.81 2.47zm100.47 24.08c-2.29 4.96-10.48 8.56-13.96 12.62-2.44 2.98-3.24 5.9-1.46 11.28 2.05 6.17 5.67 9.79 12.18 7.63 6.29-2.09 10.56-9.47 8.47-15.76zm-32.71.46c-4.63-13.95-.74-22.09 13.89-26.95 18.63-6.19 22.35 5.01 24.47 11.41l11.35 34.17c.83 2.51 1.63 4.92 4.6 3.93 1.25-.42 1.75-.83 2.1-1.32l2.27 6.85c-.65.34-3.01 1.63-5.42 2.43-3.66 1.22-8.22 2.74-11.29-5l-.23.07c-1.26 6.51-6.11 11.8-11.82 13.7-11.43 3.79-18.97-1.31-22.61-12.29-2.85-8.57-1.16-15.73 5.93-20.74l11.62-8.18c6.25-4.49 5.61-6.43 3.9-11.57-1.89-5.72-6.42-7.9-12.82-5.77-10.51 3.49-7.25 13.32-6.53 15.49l.19.57zm49.8-37.74 8.9-3.7 2.92 7 .22-.09c.18-6.47 5.1-12.17 10.89-14.58 15.67-6.53 20.63 5.37 23.54 12.37l17.6 42.24-9.34 3.89-17.13-41.13c-1.9-4.56-5.34-11.87-13.78-8.35-5 2.08-10.4 8.25-6.78 16.91l17.13 41.13-9.33 3.89zm76.91 1.44c4.75 9.34 12.09 20.33 21.11 15.75 9.77-4.97 7.01-15.18 1-26.99-5.68-11.16-13.39-21.56-23.05-16.65-8.37 4.25-6.04 14.15.94 27.89m43.37 9.57c8.74 17.18 3.96 27.44-7.64 33.33-3.54 1.8-17.39 8.84-26.21-4.77l9.02-4.59c3.1 5.04 8.22 5.01 12.94 2.6 11.59-5.9 6.63-14.58 4.61-18.55l-3.82-7.51-.21.11c.52 5.81-3.38 11.44-9.06 14.33-16.75 8.52-28.57-12.08-32.45-19.71-7.91-15.57-11.21-32.4 3.39-39.83 6.23-3.17 13.46-1.44 16.93 2.48l.22-.11-3.71-7.3 8.59-4.37zm28.28-57.03-1.8-2.99c-3.74-6.18-10.13-12.31-17.75-7.7-9.07 5.49-3.36 17.24-1.37 20.53l1.25 2.06zm-15.87 18.9c5.12 8.45 12.85 21.22 23.46 14.8 8.24-4.99 4.13-14.33 1.64-18.45l8.65-5.24c3.55 5.86 8.35 21.69-6.7 30.79-13.5 8.17-24.83 2.23-36.31-16.73-8.36-13.8-15.34-31.4 1.66-41.69 16.89-10.23 27.35 3.57 34.52 15.42l2.12 3.5z" style="fill:#484546"/></svg>