<svg width="80" height="81" viewBox="0 0 80 81" fill="none" xmlns="http://www.w3.org/2000/svg">
<mask id="mask0_16455_55082" style="mask-type:luminance" maskUnits="userSpaceOnUse" x="5" y="2" width="70" height="70">
<path d="M74.7701 36.9854C74.7701 56.1554 59.2301 71.6854 40.0701 71.6854C20.9001 71.6854 5.37012 56.1454 5.37012 36.9854C5.37012 17.8254 20.9101 2.2854 40.0701 2.2854C59.2401 2.2854 74.7701 17.8254 74.7701 36.9854Z" fill="white"/>
</mask>
<g mask="url(#mask0_16455_55082)">
<path d="M74.7701 2.2854H5.37012V71.6854H74.7701V2.2854Z" fill="white"/>
</g>
<mask id="mask1_16455_55082" style="mask-type:luminance" maskUnits="userSpaceOnUse" x="5" y="2" width="70" height="70">
<path d="M74.7701 36.9854C74.7701 56.1554 59.2301 71.6854 40.0701 71.6854C20.9001 71.6854 5.37012 56.1454 5.37012 36.9854C5.37012 17.8254 20.9101 2.2854 40.0701 2.2854C59.2401 2.2854 74.7701 17.8254 74.7701 36.9854Z" fill="white"/>
</mask>
<g mask="url(#mask1_16455_55082)">
<path d="M40.0701 2.2854C20.9001 2.2854 5.37012 17.8254 5.37012 36.9854C5.37012 56.1554 20.9101 71.6854 40.0701 71.6854C59.2301 71.6854 74.7701 56.1454 74.7701 36.9854C74.7701 17.8254 59.2401 2.2854 40.0701 2.2854ZM40.0701 71.0654C21.2501 71.0654 6.00012 55.8054 6.00012 36.9854C6.00012 18.1654 21.2501 2.9154 40.0701 2.9154C58.8901 2.9154 74.1401 18.1754 74.1401 36.9854C74.1401 55.7954 58.8901 71.0654 40.0701 71.0654Z" fill="#058295"/>
</g>
<mask id="mask2_16455_55082" style="mask-type:luminance" maskUnits="userSpaceOnUse" x="5" y="2" width="70" height="70">
<path d="M74.7701 36.9854C74.7701 56.1554 59.2301 71.6854 40.0701 71.6854C20.9001 71.6854 5.37012 56.1454 5.37012 36.9854C5.37012 17.8254 20.9101 2.2854 40.0701 2.2854C59.2401 2.2854 74.7701 17.8254 74.7701 36.9854Z" fill="white"/>
</mask>
<g mask="url(#mask2_16455_55082)">
<path d="M74.7701 36.9854H5.37012V71.6854H74.7701V36.9854Z" fill="#4A4546"/>
</g>
<path d="M40.0702 59.8854C52.7175 59.8854 62.9702 49.6327 62.9702 36.9854C62.9702 24.3381 52.7175 14.0854 40.0702 14.0854C27.4228 14.0854 17.1702 24.3381 17.1702 36.9854C17.1702 49.6327 27.4228 59.8854 40.0702 59.8854Z" fill="white"/>
<path d="M28.2902 48.1454C28.2502 48.4254 28.2202 48.7054 28.2202 48.9754C28.2202 51.4154 29.0102 52.6454 30.5802 52.6454H39.6802V43.1954H30.9102C29.8302 44.7354 29.1602 45.7754 28.8902 46.3254C28.5802 46.9154 28.3902 47.5254 28.2902 48.1454Z" fill="#058295"/>
<path d="M34.4202 32.8654L39.1402 25.5654C38.7702 24.7254 38.4002 23.9854 38.0202 23.3254C36.5902 20.8054 35.0902 19.5454 33.5302 19.5454C33.1602 19.5454 32.8302 19.5854 32.5402 19.6454C31.8802 19.7854 31.4102 20.0854 31.1302 20.5454L26.6702 27.6654L34.4202 32.8654Z" fill="#058295"/>
<path d="M50.8001 41.6754H54.7201C55.6601 41.6754 56.6301 41.2654 57.6401 40.4454C58.7201 39.5854 59.2601 38.6854 59.2601 37.7254C59.2601 37.2854 59.1101 36.8454 58.8201 36.4154L54.1501 29.2954L46.1301 33.9654L50.8001 41.6754Z" fill="#058295"/>
<path d="M56.4001 42.4954C55.5801 42.7654 54.4101 42.9054 52.8901 42.9054L46.3101 42.9454V41.5854C46.3101 41.0554 46.1801 40.7954 45.9301 40.7954C45.7401 40.7954 45.6001 40.8654 45.5201 40.9954L41.3801 48.1654L45.6801 54.7754C46.0101 55.2754 46.2901 55.4654 46.5301 55.3654C46.7701 55.2954 46.8901 55.1654 46.8901 54.9854V52.7254H50.5301C51.8601 52.7254 52.8001 52.2254 53.3501 51.2154L59.2501 40.5054C58.3801 41.4854 57.4301 42.1454 56.4001 42.4954Z" fill="#058295"/>
<path d="M33.9501 38.3654L30.3501 31.6054L21.9401 31.8054C21.5601 31.8254 21.3801 32.0154 21.3801 32.3954C21.3801 32.4854 21.5001 32.5954 21.7401 32.7554L23.4801 33.8054L22.5301 35.2754L21.6301 36.6654C21.1201 37.4854 20.8601 38.1654 20.8601 38.6954C20.8601 39.1754 21.0301 39.7154 21.3701 40.3054L27.0901 50.2954C26.9501 49.6654 26.8901 49.0654 26.8901 48.5054C26.8901 48.0754 26.9501 47.6454 27.0701 47.2154C27.2201 46.6454 27.4801 46.0854 27.8401 45.5354L32.1501 38.7654L32.2001 38.6954L32.5301 38.8954L32.5401 38.9054L33.9101 39.7454C34.1301 39.7454 34.2601 39.6754 34.3201 39.5454C34.3401 39.4954 34.3501 39.4454 34.3501 39.3854C34.3501 39.2354 34.2801 39.0154 34.1501 38.7454L33.9501 38.3654Z" fill="#058295"/>
<path d="M42.62 30.5854L49.29 31.1154L53.34 24.2954C53.48 24.0554 53.54 23.8054 53.54 23.5554C53.54 23.2454 53.44 23.0954 53.23 23.0954C53.26 23.0954 53.13 23.1454 52.82 23.2454L50.98 24.0954L49.29 20.7354C48.87 19.9054 48.22 19.3054 47.34 18.9354C46.63 18.6354 45.79 18.4854 44.79 18.4854H34.25C35.53 18.8754 36.4 19.2654 36.86 19.6354C37.74 20.3354 38.64 21.5554 39.56 23.2554C39.76 23.6354 39.96 24.0254 40.17 24.4454L42.27 28.8554L40.71 29.5954C40.56 29.6654 40.48 29.7954 40.48 30.0054C40.48 30.2654 40.64 30.4054 40.97 30.4454L42.62 30.5854Z" fill="#058295"/>
<path d="M14.9601 31.3654L12.5101 32.2454L12.3201 33.3654L14.5601 33.7354L14.3801 34.8454L8.34009 33.8454L8.70009 31.6354C8.89009 30.4754 9.48009 29.6254 10.7901 29.8454C11.7201 29.9954 12.1201 30.5354 12.3801 31.1654L15.1401 30.2254L14.9601 31.3654ZM9.45009 32.8954L11.2901 33.1954L11.4201 32.3854C11.5901 31.3854 11.2201 31.1054 10.6801 31.0154C10.1201 30.9254 9.75009 31.0954 9.59009 32.0354L9.45009 32.8954Z" fill="#058295"/>
<path d="M15.3501 29.7454L9.61011 27.6154L10.9701 23.9454L12.0001 24.3154L11.0301 26.9154L12.2501 27.3654L13.0001 25.3554L14.0201 25.7354L13.2701 27.7554L14.7401 28.2954L15.7401 25.6154L16.7601 25.9954L15.3501 29.7454Z" fill="#058295"/>
<path d="M14.22 24.1854C12.57 23.1954 12.15 21.4554 13.05 19.9554C13.38 19.4054 13.84 18.9154 14.25 18.6454L15.1 19.3054C14.67 19.6354 14.29 19.9654 13.97 20.5154C13.36 21.5354 13.8 22.5054 14.85 23.1354C15.9 23.7654 16.97 23.7054 17.58 22.6854C17.91 22.1354 18.03 21.6554 18.11 21.1154L19.09 21.5654C19.05 22.0654 18.83 22.6954 18.5 23.2454C17.6 24.7354 15.87 25.1754 14.22 24.1854Z" fill="#058295"/>
<path d="M19.3902 17.5054L21.4002 19.3254L20.6502 20.1554L18.6402 18.3354L14.6902 17.6154L15.4902 16.7354L18.2802 17.2554L17.4902 14.5254L18.2902 13.6454L19.3902 17.5054Z" fill="#058295"/>
<path d="M20.8102 15.5054C19.6502 13.9754 19.9002 12.2054 21.2902 11.1454C21.8002 10.7554 22.4002 10.4754 22.8902 10.3754L23.4402 11.2954C22.9102 11.4454 22.4502 11.6054 21.9402 11.9954C20.9902 12.7154 21.0502 13.7854 21.7902 14.7554C22.5302 15.7254 23.5502 16.0654 24.4902 15.3554C25.0002 14.9654 25.2902 14.5654 25.5702 14.0954L26.3102 14.8754C26.0902 15.3154 25.6502 15.8254 25.1402 16.2154C23.7402 17.2754 21.9702 17.0354 20.8102 15.5054Z" fill="#058295"/>
<path d="M27.06 14.7754L24.29 9.31542L25.29 8.80542L27.57 13.2954L29.82 12.1554L30.31 13.1254L27.06 14.7754Z" fill="#058295"/>
<path d="M30.7602 12.9854L28.9102 7.14539L32.6402 5.96539L32.9702 6.99539L30.3302 7.83539L30.7202 9.07539L32.7702 8.42539L33.1002 9.45539L31.0502 10.1054L31.5202 11.5954L34.2502 10.7354L34.5802 11.7654L30.7602 12.9854Z" fill="#058295"/>
<path d="M35.2402 11.6354L34.6702 5.53539L36.9502 5.32539C38.6902 5.16539 40.0602 6.17539 40.2402 8.09539C40.4202 10.0154 39.2602 11.2654 37.5202 11.4254L35.2402 11.6354ZM35.8902 6.50539L36.2602 10.4554L37.4302 10.3454C38.6102 10.2354 39.1502 9.42539 39.0302 8.20539C38.9102 6.98539 38.2402 6.28539 37.0602 6.39539L35.8902 6.50539Z" fill="#058295"/>
<path d="M43.0701 11.3854L44.2701 5.38538L45.8901 5.70538C47.2701 5.98538 48.1501 6.37538 47.8801 7.70538C47.7701 8.24538 47.5301 8.63538 47.1201 8.85538C47.7601 9.25538 48.0301 9.74538 47.8801 10.5054C47.6001 11.8954 46.3901 12.0454 45.3801 11.8454L43.0701 11.3854ZM44.7101 8.87538L44.3501 10.6654L45.4301 10.8854C46.1301 11.0254 46.6201 10.9054 46.7601 10.2254C46.9001 9.52538 46.4701 9.22538 45.8501 9.10538L44.7101 8.87538ZM45.1801 6.53538L44.8801 8.00538L45.9501 8.21538C46.2601 8.27538 46.7101 8.23538 46.8201 7.65538C46.9501 7.02538 46.6501 6.81538 46.1401 6.71538L45.1801 6.53538Z" fill="#058295"/>
<path d="M48.1401 12.5454L50.4001 6.85541L51.4401 7.26541L49.5801 11.9454L51.9201 12.8754L51.5201 13.8854L48.1401 12.5454Z" fill="#058295"/>
<path d="M51.9402 14.1354L55.1302 8.91541L58.4702 10.9554L57.9002 11.8754L55.5402 10.4254L54.8602 11.5354L56.6902 12.6554L56.1202 13.5754L54.2902 12.4554L53.4702 13.7854L55.9202 15.2954L55.3502 16.2154L51.9402 14.1354Z" fill="#058295"/>
<path d="M58.7601 19.2954L59.5901 14.3154L56.7201 17.3754L55.9001 16.6054L60.0901 12.1454L60.8901 12.9054L60.0901 17.5754L62.7901 14.6954L63.6101 15.4654L59.4201 19.9254L58.7601 19.2954Z" fill="#058295"/>
<path d="M60.0901 20.6954L65.1901 17.3054L66.4601 19.2154C67.4301 20.6754 67.1801 22.3554 65.5801 23.4254C63.9801 24.4854 62.3301 24.0654 61.3601 22.6054L60.0901 20.6954ZM64.9201 18.8354L61.6101 21.0354L62.2601 22.0154C62.9201 23.0054 63.8801 23.0854 64.9101 22.4154C65.9301 21.7354 66.2301 20.8154 65.5701 19.8254L64.9201 18.8354Z" fill="#058295"/>
<path d="M63.26 25.7754L68.95 23.5154L70.4 27.1554L69.39 27.5554L68.37 24.9854L67.16 25.4654L67.96 27.4654L66.95 27.8654L66.15 25.8654L64.69 26.4454L65.75 29.1054L64.74 29.5054L63.26 25.7754Z" fill="#058295"/>
<path d="M64.9502 30.1354L70.9802 29.0754L71.3802 31.3354C71.6802 33.0554 70.7802 34.5054 68.8902 34.8354C67.0002 35.1654 65.6602 34.1154 65.3602 32.3954L64.9502 30.1354ZM70.1102 30.3654L66.2002 31.0554L66.4002 32.2054C66.6002 33.3754 67.4602 33.8354 68.6702 33.6254C69.8802 33.4154 70.5202 32.6854 70.3202 31.5154L70.1102 30.3654Z" fill="#058295"/>
<path d="M13.3802 47.8654L12.6802 46.5754C12.9402 46.4354 13.1102 46.2654 13.2002 46.0554C13.2902 45.8454 13.2902 45.6154 13.2002 45.3454C13.0902 44.9954 12.8802 44.7654 12.5702 44.6354C12.2602 44.5054 11.8302 44.5354 11.2702 44.7154C10.6502 44.9154 10.2402 45.1654 10.0502 45.4654C9.86023 45.7554 9.82023 46.0854 9.94023 46.4354C10.0302 46.6954 10.1702 46.8854 10.3802 47.0154C10.5802 47.1354 10.8802 47.1654 11.2702 47.1154L11.4802 48.5554C10.8102 48.6154 10.2402 48.5054 9.79023 48.2054C9.34023 47.9054 9.00023 47.4154 8.78023 46.7454C8.53023 45.9754 8.57023 45.2854 8.91023 44.6654C9.25023 44.0554 9.84023 43.6054 10.7002 43.3254C11.5702 43.0454 12.3202 43.0554 12.9502 43.3554C13.5802 43.6554 14.0302 44.1954 14.2802 44.9754C14.4902 45.6154 14.5202 46.1654 14.3702 46.6354C14.2202 47.1054 13.8902 47.5154 13.3802 47.8654Z" fill="white"/>
<path d="M10.5303 50.7254L17.3203 47.2354L17.9903 48.5354L11.2003 52.0254L10.5303 50.7254Z" fill="white"/>
<path d="M16.0302 52.6054L15.4402 51.3954C15.9602 51.1954 16.4302 51.1754 16.8502 51.3154C17.2702 51.4554 17.7002 51.8154 18.1202 52.3954C18.5102 52.9254 18.7302 53.3554 18.8002 53.7054C18.8602 54.0554 18.8402 54.3554 18.7302 54.5954C18.6202 54.8454 18.3002 55.1554 17.7902 55.5254L16.4002 56.5254C16.0102 56.8154 15.7302 57.0454 15.5802 57.2154C15.4202 57.3854 15.2802 57.6054 15.1402 57.8654L14.2802 56.6954C14.3302 56.6054 14.4202 56.4854 14.5402 56.3254C14.5902 56.2554 14.6302 56.2054 14.6502 56.1854C14.3102 56.1254 14.0002 56.0254 13.7402 55.8654C13.4702 55.7054 13.2402 55.4954 13.0502 55.2354C12.7102 54.7754 12.5702 54.3254 12.6302 53.8754C12.6902 53.4254 12.9002 53.0654 13.2802 52.7854C13.5302 52.5954 13.8002 52.4954 14.0902 52.4754C14.3802 52.4554 14.6502 52.5054 14.9102 52.6454C15.1702 52.7854 15.5002 53.0354 15.8702 53.3854C16.3802 53.8554 16.7602 54.1754 17.0002 54.3154L17.1202 54.2254C17.3502 54.0554 17.4702 53.8854 17.4802 53.7054C17.4902 53.5254 17.3902 53.2754 17.1602 52.9654C17.0102 52.7554 16.8402 52.6254 16.6802 52.5654C16.5102 52.5154 16.2902 52.5254 16.0302 52.6054ZM16.2302 54.8854C16.0702 54.7754 15.8302 54.5754 15.5202 54.3054C15.2102 54.0254 14.9802 53.8654 14.8402 53.8154C14.6202 53.7454 14.4202 53.7654 14.2502 53.8854C14.0902 54.0054 13.9902 54.1754 13.9602 54.3854C13.9302 54.5954 13.9902 54.7954 14.1202 54.9854C14.2802 55.1954 14.5002 55.3454 14.7802 55.4354C14.9902 55.4954 15.1902 55.4954 15.3802 55.4354C15.5002 55.3954 15.7102 55.2654 15.9902 55.0554L16.2302 54.8854Z" fill="white"/>
<path d="M16.4702 59.1954L20.3602 55.2554L21.4002 56.2854L17.5102 60.2254L16.4702 59.1954ZM20.8802 54.7254L21.8302 53.7654L22.8702 54.7954L21.9202 55.7554L20.8802 54.7254Z" fill="white"/>
<path d="M22.1302 57.3354L23.2702 58.0454L22.8702 58.6854C23.5902 58.4454 24.2302 58.4954 24.8002 58.8454C25.1002 59.0354 25.3202 59.2554 25.4702 59.5154C25.6102 59.7754 25.6802 60.0754 25.6602 60.4154C26.0202 60.2954 26.3602 60.2454 26.6802 60.2654C27.0002 60.2954 27.2902 60.3854 27.5602 60.5554C27.9102 60.7654 28.1502 61.0254 28.3002 61.3154C28.4502 61.6054 28.5002 61.9254 28.4502 62.2654C28.4102 62.5154 28.2502 62.8754 27.9702 63.3154L26.1002 66.3154L24.8602 65.5454L26.5302 62.8654C26.8202 62.4054 26.9702 62.0754 26.9602 61.8854C26.9602 61.6354 26.8302 61.4354 26.6002 61.2854C26.4302 61.1754 26.2302 61.1254 26.0102 61.1354C25.7902 61.1454 25.5802 61.2354 25.3902 61.3954C25.1902 61.5554 24.9602 61.8554 24.6802 62.3054L23.2702 64.5554L22.0302 63.7854L23.6302 61.2154C23.9202 60.7554 24.0802 60.4554 24.1202 60.2954C24.1602 60.1354 24.1502 59.9954 24.1002 59.8754C24.0502 59.7554 23.9402 59.6454 23.7802 59.5454C23.5902 59.4254 23.3802 59.3654 23.1702 59.3754C22.9502 59.3854 22.7502 59.4654 22.5602 59.6154C22.3702 59.7654 22.1402 60.0654 21.8602 60.5254L20.4402 62.8054L19.2002 62.0354L22.1302 57.3354Z" fill="white"/>
<path d="M31.8403 66.6054L33.3203 66.6354C33.3303 66.9254 33.4203 67.1654 33.5803 67.3454C33.7403 67.5254 33.9903 67.6454 34.3303 67.7054C34.7003 67.7654 34.9903 67.7554 35.2103 67.6454C35.3503 67.5754 35.4403 67.4554 35.4703 67.2954C35.4903 67.1854 35.4703 67.0954 35.4203 67.0054C35.3603 66.9254 35.2103 66.8354 34.9703 66.7354C33.8503 66.2754 33.1603 65.9154 32.8803 65.6454C32.5003 65.2754 32.3603 64.8254 32.4503 64.3054C32.5303 63.8354 32.7903 63.4654 33.2203 63.2154C33.6503 62.9654 34.2603 62.9054 35.0403 63.0354C35.7903 63.1654 36.3203 63.3854 36.6403 63.6954C36.9603 64.0054 37.1403 64.4054 37.2003 64.9054L35.8003 64.9154C35.7803 64.6954 35.7003 64.5154 35.5503 64.3654C35.4103 64.2254 35.1903 64.1254 34.8903 64.0754C34.5103 64.0054 34.2303 64.0154 34.0503 64.0854C33.9303 64.1454 33.8503 64.2254 33.8403 64.3454C33.8203 64.4454 33.8503 64.5454 33.9403 64.6354C34.0503 64.7554 34.4803 64.9654 35.2103 65.2754C35.9503 65.5854 36.4503 65.8954 36.7103 66.1954C36.9603 66.5054 37.0503 66.8854 36.9703 67.3454C36.8803 67.8454 36.6003 68.2354 36.1203 68.5254C35.6403 68.8154 34.9903 68.8854 34.1703 68.7354C33.4303 68.6054 32.8703 68.3554 32.4903 67.9754C32.0903 67.5954 31.8803 67.1354 31.8403 66.6054Z" fill="white"/>
<path d="M41.3102 63.5854V64.7554H40.3102V66.9854C40.3102 67.4354 40.3202 67.6954 40.3402 67.7754C40.3602 67.8454 40.4002 67.9154 40.4702 67.9654C40.5402 68.0154 40.6202 68.0354 40.7202 68.0354C40.8602 68.0354 41.0502 67.9854 41.3102 67.8954L41.4402 69.0254C41.1002 69.1754 40.7202 69.2454 40.2802 69.2454C40.0202 69.2454 39.7802 69.2054 39.5702 69.1154C39.3602 69.0254 39.2002 68.9154 39.1002 68.7754C39.0002 68.6354 38.9302 68.4454 38.8902 68.2054C38.8602 68.0354 38.8402 67.6954 38.8402 67.1754V64.7654H38.1702V63.5954H38.8402V62.4954L40.3102 61.6354V63.5854H41.3102Z" fill="white"/>
<path d="M43.5302 65.0754L42.1802 65.0554C42.2402 64.5054 42.4302 64.0754 42.7502 63.7554C43.0702 63.4454 43.5802 63.2254 44.2902 63.1154C44.9302 63.0154 45.4302 63.0054 45.7702 63.1054C46.1102 63.2054 46.3602 63.3654 46.5302 63.5754C46.7002 63.7854 46.8302 64.2054 46.9302 64.8354L47.1902 66.5254C47.2702 67.0054 47.3502 67.3554 47.4302 67.5754C47.5102 67.7954 47.6402 68.0254 47.8102 68.2654L46.3802 68.4954C46.3302 68.4054 46.2602 68.2754 46.1702 68.0954C46.1302 68.0154 46.1102 67.9554 46.0902 67.9354C45.8802 68.2154 45.6502 68.4354 45.3902 68.6054C45.1302 68.7754 44.8402 68.8754 44.5202 68.9354C43.9602 69.0254 43.4902 68.9454 43.1202 68.6954C42.7502 68.4454 42.5202 68.0854 42.4502 67.6154C42.4002 67.3054 42.4302 67.0154 42.5402 66.7554C42.6502 66.4954 42.8202 66.2754 43.0702 66.0954C43.3202 65.9254 43.6802 65.7454 44.1602 65.5754C44.8202 65.3354 45.2602 65.1454 45.5102 64.9954L45.4902 64.8554C45.4402 64.5754 45.3402 64.3954 45.1902 64.2954C45.0302 64.1954 44.7702 64.1854 44.3802 64.2454C44.1202 64.2854 43.9302 64.3754 43.8002 64.4954C43.6702 64.6154 43.5802 64.8054 43.5302 65.0754ZM45.6602 65.9354C45.4902 66.0254 45.2102 66.1454 44.8202 66.2954C44.4302 66.4454 44.1802 66.5754 44.0702 66.6754C43.9002 66.8354 43.8402 67.0254 43.8702 67.2354C43.9002 67.4354 44.0102 67.5954 44.1802 67.7254C44.3502 67.8454 44.5602 67.8854 44.7902 67.8554C45.0502 67.8154 45.2902 67.6854 45.4902 67.4754C45.6402 67.3154 45.7302 67.1354 45.7602 66.9454C45.7802 66.8154 45.7602 66.5754 45.7002 66.2354L45.6602 65.9354Z" fill="white"/>
<path d="M54.5903 65.7754L53.2303 66.3254L52.1703 63.7054C51.9503 63.1554 51.7703 62.8054 51.6503 62.6654C51.5303 62.5254 51.3803 62.4354 51.2103 62.4054C51.0403 62.3654 50.8703 62.3854 50.6803 62.4654C50.4403 62.5654 50.2603 62.7154 50.1303 62.9154C50.0003 63.1154 49.9403 63.3454 49.9503 63.5854C49.9703 63.8254 50.0903 64.2354 50.3203 64.8054L51.2603 67.1254L49.9003 67.6754L47.8203 62.5554L49.0803 62.0454L49.3803 62.7954C49.5903 62.0354 50.0403 61.5154 50.7203 61.2354C51.0203 61.1154 51.3203 61.0554 51.6103 61.0654C51.9003 61.0754 52.1403 61.1354 52.3403 61.2454C52.5403 61.3654 52.7003 61.5154 52.8403 61.7054C52.9803 61.8954 53.1203 62.1954 53.2903 62.5854L54.5903 65.7754Z" fill="white"/>
<path d="M60.9902 61.5754L59.8802 62.3654L59.4102 61.7054C59.4102 62.0954 59.3302 62.4354 59.1702 62.7454C59.0102 63.0454 58.8002 63.2954 58.5502 63.4754C58.0302 63.8454 57.4402 63.9554 56.7802 63.7954C56.1102 63.6454 55.5202 63.1854 54.9802 62.4454C54.4402 61.6854 54.2002 60.9754 54.2802 60.3254C54.3602 59.6754 54.6702 59.1554 55.2202 58.7654C55.7202 58.4054 56.3102 58.3054 56.9702 58.4654L55.3702 56.2254L56.5602 55.3754L60.9902 61.5754ZM56.1402 61.4954C56.4802 61.9754 56.8002 62.2754 57.0802 62.3954C57.4902 62.5654 57.8702 62.5354 58.2202 62.2854C58.4902 62.0854 58.6402 61.8054 58.6702 61.4354C58.7002 61.0654 58.5402 60.6454 58.2102 60.1854C57.8402 59.6654 57.4802 59.3654 57.1302 59.2654C56.7802 59.1654 56.4602 59.2254 56.1702 59.4354C55.8902 59.6354 55.7302 59.9154 55.7002 60.2754C55.6702 60.6454 55.8202 61.0454 56.1402 61.4954Z" fill="white"/>
<path d="M60.6903 56.5054L59.6303 57.3354C59.3303 56.8654 59.2103 56.4154 59.2603 55.9654C59.3103 55.5254 59.5803 55.0354 60.0603 54.4954C60.5003 54.0054 60.8803 53.6954 61.2103 53.5654C61.5403 53.4354 61.8303 53.3954 62.1003 53.4554C62.3603 53.5154 62.7303 53.7554 63.2103 54.1854L64.4703 55.3354C64.8303 55.6554 65.1103 55.8854 65.3203 55.9954C65.5203 56.1154 65.7703 56.2154 66.0503 56.2954L65.0803 57.3754C64.9803 57.3354 64.8403 57.2754 64.6703 57.1954C64.5903 57.1554 64.5303 57.1354 64.5103 57.1154C64.5203 57.4654 64.4803 57.7854 64.3803 58.0754C64.2803 58.3654 64.1203 58.6354 63.9103 58.8754C63.5303 59.2954 63.1103 59.5354 62.6703 59.5654C62.2203 59.6054 61.8203 59.4654 61.4703 59.1454C61.2403 58.9354 61.0803 58.6954 61.0003 58.4254C60.9203 58.1554 60.9203 57.8654 61.0003 57.5854C61.0803 57.2954 61.2603 56.9354 61.5203 56.4954C61.8803 55.8954 62.1103 55.4654 62.2003 55.1954L62.0903 55.0954C61.8803 54.9054 61.6903 54.8254 61.5003 54.8454C61.3203 54.8654 61.1003 55.0254 60.8403 55.3054C60.6703 55.4954 60.5703 55.6854 60.5503 55.8654C60.5003 56.0554 60.5603 56.2654 60.6903 56.5054ZM62.8803 55.8354C62.8003 56.0154 62.6603 56.2854 62.4503 56.6454C62.2403 57.0054 62.1303 57.2554 62.1103 57.4054C62.0803 57.6354 62.1503 57.8254 62.3003 57.9654C62.4503 58.1054 62.6403 58.1654 62.8503 58.1454C63.0603 58.1354 63.2503 58.0354 63.4103 57.8654C63.5903 57.6654 63.6903 57.4254 63.7203 57.1254C63.7403 56.9054 63.7003 56.7154 63.5903 56.5454C63.5203 56.4354 63.3603 56.2554 63.1003 56.0254L62.8803 55.8354Z" fill="white"/>
<path d="M67.8501 53.4554L67.0801 54.7054L62.3701 51.8054L63.0801 50.6454L63.7501 51.0554C63.5501 50.6654 63.4601 50.3554 63.4501 50.1354C63.4501 49.9154 63.5101 49.7054 63.6301 49.5054C63.8001 49.2254 64.0501 48.9954 64.3701 48.8254L65.2201 49.8854C64.9601 50.0154 64.7701 50.1654 64.6601 50.3454C64.5501 50.5154 64.5101 50.6954 64.5301 50.8754C64.5501 51.0554 64.6701 51.2554 64.8801 51.4854C65.0901 51.7054 65.5901 52.0654 66.3901 52.5654L67.8501 53.4554Z" fill="white"/>
<path d="M71.4503 45.5354L70.9703 46.8054L70.2103 46.5154C70.4303 46.8354 70.5503 47.1754 70.5903 47.5154C70.6303 47.8554 70.5903 48.1754 70.4803 48.4654C70.2603 49.0654 69.8203 49.4754 69.1903 49.7254C68.5603 49.9754 67.8003 49.9254 66.9503 49.6054C66.0703 49.2754 65.4803 48.8154 65.1803 48.2354C64.8803 47.6554 64.8503 47.0454 65.0803 46.4154C65.3003 45.8354 65.7303 45.4254 66.3703 45.1854L63.8003 44.2154L64.3103 42.8454L71.4503 45.5354ZM67.3803 48.1754C67.9303 48.3854 68.3603 48.4554 68.6703 48.3954C69.1103 48.3054 69.4103 48.0654 69.5503 47.6754C69.6703 47.3654 69.6403 47.0454 69.4503 46.7154C69.2603 46.3954 68.9103 46.1354 68.3703 45.9354C67.7703 45.7154 67.3103 45.6554 66.9603 45.7754C66.6203 45.8954 66.3803 46.1154 66.2603 46.4554C66.1403 46.7754 66.1603 47.1054 66.3403 47.4154C66.5203 47.7254 66.8603 47.9754 67.3803 48.1754Z" fill="white"/>
<path d="M21.3701 69.6654C22.4301 70.2254 22.8301 71.5454 22.2601 72.6054C21.7001 73.6654 20.3801 74.0654 19.3201 73.4954C18.2601 72.9354 17.8601 71.6154 18.4301 70.5554C18.9901 69.5054 20.3101 69.1054 21.3701 69.6654ZM21.9201 72.4254C22.3901 71.5354 22.0701 70.4454 21.2001 69.9754C20.3301 69.5154 19.2401 69.8554 18.7701 70.7354C18.3001 71.6254 18.6201 72.7154 19.4901 73.1854C20.3601 73.6554 21.4401 73.3154 21.9201 72.4254ZM21.1801 72.5454C20.8301 73.0354 20.2501 73.0754 19.7401 72.8054C19.0401 72.4354 18.8701 71.7154 19.2401 71.0154C19.6101 70.3154 20.3001 70.0554 21.0101 70.4354C21.5201 70.7054 21.8201 71.2054 21.6001 71.7754L21.2901 71.6154C21.3801 71.3154 21.2301 70.9554 20.8401 70.7454C20.3501 70.4854 19.8401 70.7154 19.5801 71.2054C19.3201 71.6954 19.4201 72.2454 19.9001 72.5054C20.2801 72.7054 20.6701 72.6354 20.8701 72.3954L21.1801 72.5454Z" fill="#4A4546"/>
<path d="M26.01 71.8654L25.75 72.5054L24.9 72.1554L23.58 75.3854L22.8 75.0654L24.1201 71.8354L23.2701 71.4854L23.5301 70.8454L26.01 71.8654Z" fill="#4A4546"/>
<path d="M25.8602 74.6854L25.7802 74.9254C25.6602 75.2754 25.6402 75.6454 25.9302 75.7454C26.1802 75.8354 26.3602 75.6754 26.5202 75.3154L27.2102 75.5454C26.9502 76.2354 26.4902 76.5054 25.7702 76.2654C24.6602 75.8954 24.9002 75.0254 25.1502 74.2854C25.4202 73.4854 25.8202 72.7954 26.8502 73.1354C27.7402 73.4354 27.7402 74.0954 27.4402 75.0154L27.3802 75.1854L25.8602 74.6854ZM26.7902 74.4954C26.9302 74.0354 26.9502 73.7654 26.6402 73.6554C26.3402 73.5554 26.1402 73.8454 26.0502 74.1154L26.0102 74.2354L26.7902 74.4954Z" fill="#4A4546"/>
<path d="M29.9202 74.1054L30.7402 74.3154L29.5702 75.5954L30.0002 77.3754L29.1802 77.1654L28.9802 76.0554L28.2702 76.9354L27.4502 76.7254L28.6802 75.3654L28.2602 73.6854L29.0802 73.8954L29.2702 74.9154L29.9202 74.1054Z" fill="#4A4546"/>
<path d="M31.6202 73.5554L32.4102 73.7054L32.2402 74.5954L32.7002 74.6854L32.6002 75.2254L32.1402 75.1354L31.8302 76.8054C31.7802 77.0454 31.8202 77.1554 32.0502 77.1954C32.1102 77.2054 32.1802 77.2154 32.2302 77.2154L32.1302 77.7654C31.9502 77.7554 31.7902 77.7354 31.6102 77.7054C30.9902 77.5854 30.9102 77.3754 31.0302 76.7454L31.3602 74.9754L30.9602 74.8954L31.0602 74.3554L31.4602 74.4354L31.6202 73.5554Z" fill="#4A4546"/>
<path d="M33.23 74.7554L34.03 74.8654L33.59 77.9854L32.79 77.8754L33.23 74.7554ZM33.38 73.6854L34.18 73.7954L34.08 74.4754L33.28 74.3654L33.38 73.6854Z" fill="#4A4546"/>
<path d="M34.94 73.9354L35.75 74.0154L35.35 78.1754L34.54 78.0954L34.94 73.9354Z" fill="#4A4546"/>
<path d="M37.0401 76.8354L37.0301 77.0854C37.0201 77.4554 37.1001 77.8154 37.4001 77.8354C37.6701 77.8454 37.7901 77.6454 37.8501 77.2654L38.5701 77.2954C38.5101 78.0254 38.1501 78.4154 37.3901 78.3954C36.2201 78.3454 36.2101 77.4454 36.2401 76.6654C36.2701 75.8254 36.4701 75.0454 37.5501 75.0854C38.4901 75.1254 38.6801 75.7654 38.6401 76.7254L38.6301 76.9054L37.0401 76.8354ZM37.8801 76.3854C37.8801 75.9054 37.8301 75.6354 37.5001 75.6254C37.1801 75.6154 37.0701 75.9454 37.0601 76.2354V76.3554L37.8801 76.3854Z" fill="#4A4546"/>
<path d="M39.3501 74.1654L41.5101 74.0854L41.5301 74.5454L39.8901 74.6054L39.9401 75.9154L41.4901 75.8654L41.5101 76.3254L39.9601 76.3754L40.0101 77.8754L41.7201 77.8154L41.7401 78.2754L39.5101 78.3554L39.3501 74.1654Z" fill="#4A4546"/>
<path d="M42.0601 75.0954L42.6001 75.0354L43.2801 76.0854L43.7301 74.9154L44.2701 74.8554L43.6101 76.4354L44.6201 77.9654L44.0801 78.0254L43.3301 76.8554L42.8601 78.1554L42.3201 78.2154L43.0001 76.4954L42.0601 75.0954Z" fill="#4A4546"/>
<path d="M46.48 75.4554C46.43 75.1554 46.25 74.8354 45.88 74.8954C45.58 74.9454 45.3 75.1454 45.5 76.2854C45.57 76.6854 45.72 77.4954 46.3 77.3954C46.71 77.3254 46.73 76.8654 46.67 76.5354L47.15 76.4454C47.24 76.9354 47.11 77.6454 46.34 77.7754C45.58 77.9054 45.18 77.4354 44.99 76.3754C44.85 75.6054 44.85 74.6854 45.8 74.5154C46.64 74.3654 46.9 75.0054 46.96 75.3654L46.48 75.4554Z" fill="#4A4546"/>
<path d="M47.24 73.2654L47.72 73.1454L48.06 74.5054H48.07C48.13 74.2254 48.42 73.9654 48.69 73.8954C49.47 73.6954 49.63 74.3054 49.72 74.6654L50.26 76.8254L49.78 76.9454L49.25 74.8454C49.19 74.6154 49.08 74.2354 48.65 74.3454C48.4 74.4054 48.09 74.6654 48.2 75.1054L48.73 77.2054L48.25 77.3254L47.24 73.2654Z" fill="#4A4546"/>
<path d="M50.54 74.4654C50.31 73.7854 50.5 73.3954 51.21 73.1554C52.12 72.8554 52.3 73.3954 52.4 73.7154L52.95 75.3754C52.99 75.4954 53.03 75.6154 53.17 75.5654C53.23 75.5454 53.26 75.5254 53.27 75.5054L53.38 75.8354C53.35 75.8554 53.23 75.9154 53.12 75.9554C52.94 76.0154 52.72 76.0854 52.57 75.7154H52.56C52.5 76.0354 52.26 76.2854 51.99 76.3754C51.43 76.5554 51.07 76.3154 50.89 75.7754C50.75 75.3554 50.83 75.0154 51.18 74.7654L51.74 74.3654C52.04 74.1454 52.01 74.0554 51.93 73.8054C51.84 73.5254 51.62 73.4254 51.31 73.5254C50.8 73.6954 50.96 74.1754 50.99 74.2754L51 74.3054L50.54 74.4654ZM52.12 74.4354C52.01 74.6754 51.61 74.8554 51.44 75.0454C51.32 75.1954 51.28 75.3354 51.37 75.5954C51.47 75.8954 51.65 76.0754 51.96 75.9654C52.26 75.8654 52.47 75.5054 52.37 75.2054L52.12 74.4354Z" fill="#4A4546"/>
<path d="M52.9602 72.6254L53.3902 72.4454L53.5302 72.7854H53.5402C53.5502 72.4754 53.7902 72.1954 54.0702 72.0754C54.8302 71.7554 55.0702 72.3354 55.2102 72.6754L56.0702 74.7254L55.6202 74.9154L54.7902 72.9154C54.7002 72.6954 54.5302 72.3354 54.1202 72.5154C53.8802 72.6154 53.6202 72.9154 53.7902 73.3354L54.6202 75.3354L54.1702 75.5254L52.9602 72.6254Z" fill="#4A4546"/>
<path d="M58.8001 73.1654C59.2201 73.9954 58.9901 74.4954 58.4301 74.7854C58.2601 74.8754 57.5801 75.2154 57.1601 74.5554L57.6001 74.3354C57.7501 74.5854 58.0001 74.5754 58.2301 74.4654C58.7901 74.1754 58.5501 73.7554 58.4501 73.5654L58.2601 73.2054H58.2501C58.2801 73.4854 58.0901 73.7654 57.8101 73.9054C57.0001 74.3054 56.4201 73.2954 56.2301 72.9254C55.8501 72.1654 55.6801 71.3554 56.3901 70.9954C56.6901 70.8454 57.0501 70.9254 57.2101 71.1154H57.2201L57.0401 70.7654L57.4601 70.5554L58.8001 73.1654ZM56.6901 72.6954C56.9201 73.1454 57.2801 73.6854 57.7201 73.4554C58.1901 73.2154 58.0601 72.7154 57.7701 72.1454C57.4901 71.6054 57.1201 71.0954 56.6501 71.3354C56.2401 71.5454 56.3501 72.0354 56.6901 72.6954Z" fill="#4A4546"/>
<path d="M59.4002 71.3054C59.6502 71.7154 60.0202 72.3354 60.5402 72.0254C60.9402 71.7854 60.7402 71.3254 60.6202 71.1254L61.0402 70.8754C61.2102 71.1654 61.4402 71.9254 60.7102 72.3754C60.0502 72.7754 59.5002 72.4854 58.9402 71.5654C58.5302 70.8954 58.1902 70.0354 59.0202 69.5454C59.8402 69.0454 60.3502 69.7154 60.7002 70.2954L60.8002 70.4654L59.4002 71.3054ZM60.1802 70.3954L60.0902 70.2454C59.9102 69.9454 59.6002 69.6454 59.2302 69.8754C58.7902 70.1454 59.0702 70.7154 59.1602 70.8754L59.2202 70.9754L60.1802 70.3954Z" fill="#4A4546"/>
</svg>
