<svg xmlns="http://www.w3.org/2000/svg" width="80" height="81" fill="none"><mask id="a" width="70" height="70" x="5" y="2" maskUnits="userSpaceOnUse" style="mask-type:luminance"><path fill="#fff" d="M74.77 36.985c0 19.17-15.54 34.7-34.7 34.7-19.17 0-34.7-15.54-34.7-34.7 0-19.16 15.54-34.7 34.7-34.7 19.17 0 34.7 15.54 34.7 34.7"/></mask><g mask="url(#a)"><path fill="#fff" d="M74.77 2.285H5.37v69.4h69.4z"/></g><mask id="b" width="70" height="70" x="5" y="2" maskUnits="userSpaceOnUse" style="mask-type:luminance"><path fill="#fff" d="M74.77 36.985c0 19.17-15.54 34.7-34.7 34.7-19.17 0-34.7-15.54-34.7-34.7 0-19.16 15.54-34.7 34.7-34.7 19.17 0 34.7 15.54 34.7 34.7"/></mask><g mask="url(#b)"><path fill="#058295" d="M40.07 2.285c-19.17 0-34.7 15.54-34.7 34.7 0 19.17 15.54 34.7 34.7 34.7 19.16 0 34.7-15.54 34.7-34.7 0-19.16-15.53-34.7-34.7-34.7m0 68.78C21.25 71.065 6 55.805 6 36.985s15.25-34.07 34.07-34.07 34.07 15.26 34.07 34.07c0 18.81-15.25 34.08-34.07 34.08"/></g><mask id="c" width="70" height="70" x="5" y="2" maskUnits="userSpaceOnUse" style="mask-type:luminance"><path fill="#fff" d="M74.77 36.985c0 19.17-15.54 34.7-34.7 34.7-19.17 0-34.7-15.54-34.7-34.7 0-19.16 15.54-34.7 34.7-34.7 19.17 0 34.7 15.54 34.7 34.7"/></mask><g mask="url(#c)"><path fill="#4A4546" d="M74.77 36.985H5.37v34.7h69.4z"/></g><path fill="#fff" d="M40.07 59.885c12.648 0 22.9-10.252 22.9-22.9 0-12.647-10.252-22.9-22.9-22.9-12.647 0-22.9 10.253-22.9 22.9 0 12.648 10.253 22.9 22.9 22.9"/><path fill="#058295" d="M28.29 48.145c-.04.28-.07.56-.07.83 0 2.44.79 3.67 2.36 3.67h9.1v-9.45h-8.77c-1.08 1.54-1.75 2.58-2.02 3.13a5.9 5.9 0 0 0-.6 1.82m6.13-15.28 4.72-7.3c-.37-.84-.74-1.58-1.12-2.24-1.43-2.52-2.93-3.78-4.49-3.78-.37 0-.7.04-.99.1-.66.14-1.13.44-1.41.9l-4.46 7.12zm16.38 8.81h3.92c.94 0 1.91-.41 2.92-1.23 1.08-.86 1.62-1.76 1.62-2.72 0-.44-.15-.88-.44-1.31l-4.67-7.12-8.02 4.67z"/><path fill="#058295" d="M56.4 42.495c-.82.27-1.99.41-3.51.41l-6.58.04v-1.36c0-.53-.13-.79-.38-.79-.19 0-.33.07-.41.2l-4.14 7.17 4.3 6.61c.33.5.61.69.85.59.24-.07.36-.2.36-.38v-2.26h3.64c1.33 0 2.27-.5 2.82-1.51l5.9-10.71c-.87.98-1.82 1.64-2.85 1.99m-22.45-4.13-3.6-6.76-8.41.2c-.38.02-.56.21-.56.59 0 .09.12.2.36.36l1.74 1.05-.95 1.47-.9 1.39c-.51.82-.77 1.5-.77 2.03 0 .48.17 1.02.51 1.61l5.72 9.99c-.14-.63-.2-1.23-.2-1.79 0-.43.06-.86.18-1.29.15-.57.41-1.13.77-1.68l4.31-6.77.05-.07.33.2.01.01 1.37.84c.22 0 .35-.07.41-.2.02-.05.03-.1.03-.16 0-.15-.07-.37-.2-.64zm8.67-7.78 6.67.53 4.05-6.82c.14-.24.2-.49.2-.74 0-.31-.1-.46-.31-.46.03 0-.1.05-.41.15l-1.84.85-1.69-3.36c-.42-.83-1.07-1.43-1.95-1.8-.71-.3-1.55-.45-2.55-.45H34.25c1.28.39 2.15.78 2.61 1.15.88.7 1.78 1.92 2.7 3.62.2.38.4.77.61 1.19l2.1 4.41-1.56.74c-.15.07-.23.2-.23.41 0 .26.16.4.49.44zm-27.66.78-2.45.88-.19 1.12 2.24.37-.18 1.11-6.04-1 .36-2.21c.19-1.16.78-2.01 2.09-1.79.93.15 1.33.69 1.59 1.32l2.76-.94zm-5.51 1.53 1.84.3.13-.81c.17-1-.2-1.28-.74-1.37-.56-.09-.93.08-1.09 1.02zm5.9-3.15-5.74-2.13 1.36-3.67 1.03.37-.97 2.6 1.22.45.75-2.01 1.02.38-.75 2.02 1.47.54 1-2.68 1.02.38zm-1.13-5.56c-1.65-.99-2.07-2.73-1.17-4.23.33-.55.79-1.04 1.2-1.31l.85.66c-.43.33-.81.66-1.13 1.21-.61 1.02-.17 1.99.88 2.62 1.05.63 2.12.57 2.73-.45.33-.55.45-1.03.53-1.57l.98.45c-.04.5-.26 1.13-.59 1.68-.9 1.49-2.63 1.93-4.28.94m5.17-6.68 2.01 1.82-.75.83-2.01-1.82-3.95-.72.8-.88 2.79.52-.79-2.73.8-.88zm1.42-2c-1.16-1.53-.91-3.3.48-4.36.51-.39 1.11-.67 1.6-.77l.55.92c-.53.15-.99.31-1.5.7-.95.72-.89 1.79-.15 2.76.74.97 1.76 1.31 2.7.6.51-.39.8-.79 1.08-1.26l.74.78c-.22.44-.66.95-1.17 1.34-1.4 1.06-3.17.82-4.33-.71m6.25-.73-2.77-5.46 1-.51 2.28 4.49 2.25-1.14.49.97zm3.7-1.79-1.85-5.84 3.73-1.18.33 1.03-2.64.84.39 1.24 2.05-.65.33 1.03-2.05.65.47 1.49 2.73-.86.33 1.03zm4.48-1.35-.57-6.1 2.28-.21c1.74-.16 3.11.85 3.29 2.77.18 1.92-.98 3.17-2.72 3.33zm.65-5.13.37 3.95 1.17-.11c1.18-.11 1.72-.92 1.6-2.14-.12-1.22-.79-1.92-1.97-1.81zm7.18 4.88 1.2-6 1.62.32c1.38.28 2.26.67 1.99 2-.11.54-.35.93-.76 1.15.64.4.91.89.76 1.65-.28 1.39-1.49 1.54-2.5 1.34zm1.64-2.51-.36 1.79 1.08.22c.7.14 1.19.02 1.33-.66.14-.7-.29-1-.91-1.12zm.47-2.34-.3 1.47 1.07.21c.31.06.76.02.87-.56.13-.63-.17-.84-.68-.94zm2.96 6.01 2.26-5.69 1.04.41-1.86 4.68 2.34.93-.4 1.01zm3.8 1.59 3.19-5.22 3.34 2.04-.57.92-2.36-1.45-.68 1.11 1.83 1.12-.57.92-1.83-1.12-.82 1.33 2.45 1.51-.57.92zm6.82 5.16.83-4.98-2.87 3.06-.82-.77 4.19-4.46.8.76-.8 4.67 2.7-2.88.82.77-4.19 4.46zm1.33 1.4 5.1-3.39 1.27 1.91c.97 1.46.72 3.14-.88 4.21-1.6 1.06-3.25.64-4.22-.82zm4.83-1.86-3.31 2.2.65.98c.66.99 1.62 1.07 2.65.4 1.02-.68 1.32-1.6.66-2.59zm-1.66 6.94 5.69-2.26 1.45 3.64-1.01.4-1.02-2.57-1.21.48.8 2-1.01.4-.8-2-1.46.58 1.06 2.66-1.01.4zm1.69 4.36 6.03-1.06.4 2.26c.3 1.72-.6 3.17-2.49 3.5-1.89.33-3.23-.72-3.53-2.44zm5.16.23-3.91.69.2 1.15c.2 1.17 1.06 1.63 2.27 1.42 1.21-.21 1.85-.94 1.65-2.11z"/><path fill="#fff" d="m13.38 47.865-.7-1.29c.26-.14.43-.31.52-.52.09-.21.09-.44 0-.71-.11-.35-.32-.58-.63-.71s-.74-.1-1.3.08c-.62.2-1.03.45-1.22.75-.19.29-.23.62-.11.97.09.26.23.45.44.58.2.12.5.15.89.1l.21 1.44c-.67.06-1.24-.05-1.69-.35-.45-.3-.79-.79-1.01-1.46-.25-.77-.21-1.46.13-2.08.34-.61.93-1.06 1.79-1.34.87-.28 1.62-.27 2.25.03.63.3 1.08.84 1.33 1.62.21.64.24 1.19.09 1.66s-.48.88-.99 1.23m-2.85 2.86 6.79-3.49.67 1.3-6.79 3.49zm5.5 1.88-.59-1.21c.52-.2.99-.22 1.41-.08.42.14.85.5 1.27 1.08.39.53.61.96.68 1.31.06.35.04.65-.07.89-.11.25-.43.56-.94.93l-1.39 1c-.39.29-.67.52-.82.69-.16.17-.3.39-.44.65l-.86-1.17c.05-.09.14-.21.26-.37.05-.07.09-.12.11-.14-.34-.06-.65-.16-.91-.32-.27-.16-.5-.37-.69-.63-.34-.46-.48-.91-.42-1.36.06-.45.27-.81.65-1.09.25-.19.52-.29.81-.31.29-.02.56.03.82.17.26.14.59.39.96.74.51.47.89.79 1.13.93l.12-.09c.23-.17.35-.34.36-.52.01-.18-.09-.43-.32-.74-.15-.21-.32-.34-.48-.4-.17-.05-.39-.04-.65.04m.2 2.28c-.16-.11-.4-.31-.71-.58-.31-.28-.54-.44-.68-.49-.22-.07-.42-.05-.59.07-.16.12-.26.29-.29.5-.03.21.03.41.16.6.16.21.38.36.66.45.21.06.41.06.6 0 .12-.04.33-.17.61-.38zm.24 4.31 3.89-3.94 1.04 1.03-3.89 3.94zm4.41-4.47.95-.96 1.04 1.03-.95.96zm1.25 2.61 1.14.71-.4.64c.72-.24 1.36-.19 1.93.16.3.19.52.41.67.67.14.26.21.56.19.9.36-.12.7-.17 1.02-.15.32.03.61.12.88.29.35.21.59.47.74.76.15.29.2.61.15.95-.04.25-.2.61-.48 1.05l-1.87 3-1.24-.77 1.67-2.68c.29-.46.44-.79.43-.98 0-.25-.13-.45-.36-.6a.984.984 0 0 0-.59-.15c-.22.01-.43.1-.62.26-.2.16-.43.46-.71.91l-1.41 2.25-1.24-.77 1.6-2.57c.29-.46.45-.76.49-.92.04-.16.03-.3-.02-.42s-.16-.23-.32-.33c-.19-.12-.4-.18-.61-.17-.22.01-.42.09-.61.24s-.42.45-.7.91l-1.42 2.28-1.24-.77zm9.71 9.27 1.48.03c.01.29.1.53.26.71.16.18.41.3.75.36.37.06.66.05.88-.06.14-.07.23-.19.26-.35.02-.11 0-.2-.05-.29-.06-.08-.21-.17-.45-.27-1.12-.46-1.81-.82-2.09-1.09-.38-.37-.52-.82-.43-1.34.08-.47.34-.84.77-1.09.43-.25 1.04-.31 1.82-.18.75.13 1.28.35 1.6.66.32.31.5.71.56 1.21l-1.4.01c-.02-.22-.1-.4-.25-.55-.14-.14-.36-.24-.66-.29-.38-.07-.66-.06-.84.01-.12.06-.2.14-.21.26-.02.1.01.2.1.29.11.12.54.33 1.27.64.74.31 1.24.62 1.5.92.25.31.34.69.26 1.15-.09.5-.37.89-.85 1.18-.48.29-1.13.36-1.95.21-.74-.13-1.3-.38-1.68-.76-.4-.38-.61-.84-.65-1.37m9.47-3.02v1.17h-1v2.23c0 .45.01.71.03.79.02.07.06.14.13.19.07.05.15.07.25.07.14 0 .33-.05.59-.14l.13 1.13c-.34.15-.72.22-1.16.22-.26 0-.5-.04-.71-.13-.21-.09-.37-.2-.47-.34-.1-.14-.17-.33-.21-.57-.03-.17-.05-.51-.05-1.03v-2.41h-.67v-1.17h.67v-1.1l1.47-.86v1.95zm2.22 1.49-1.35-.02c.06-.55.25-.98.57-1.3.32-.31.83-.53 1.54-.64.64-.1 1.14-.11 1.48-.01.34.1.59.26.76.47.17.21.3.63.4 1.26l.26 1.69c.08.48.16.83.24 1.05.08.22.21.45.38.69l-1.43.23c-.05-.09-.12-.22-.21-.4-.04-.08-.06-.14-.08-.16-.21.28-.44.5-.7.67-.26.17-.55.27-.87.33-.56.09-1.03.01-1.4-.24-.37-.25-.6-.61-.67-1.08-.05-.31-.02-.6.09-.86s.28-.48.53-.66c.25-.17.61-.35 1.09-.52.66-.24 1.1-.43 1.35-.58l-.02-.14c-.05-.28-.15-.46-.3-.56-.16-.1-.42-.11-.81-.05-.26.04-.45.13-.58.25-.13.12-.22.31-.27.58m2.13.86c-.17.09-.45.21-.84.36-.39.15-.64.28-.75.38-.17.16-.23.35-.2.56.03.2.14.36.31.49.17.12.38.16.61.13.26-.04.5-.17.7-.38a1 1 0 0 0 .27-.53c.02-.13 0-.37-.06-.71zm8.93-.16-1.36.55-1.06-2.62c-.22-.55-.4-.9-.52-1.04a.747.747 0 0 0-.44-.26.83.83 0 0 0-.53.06c-.24.1-.42.25-.55.45-.13.2-.19.43-.18.67.02.24.14.65.37 1.22l.94 2.32-1.36.55-2.08-5.12 1.26-.51.3.75c.21-.76.66-1.28 1.34-1.56.3-.12.6-.18.89-.17.29.01.53.07.73.18.2.12.36.27.5.46s.28.49.45.88zm6.4-4.2-1.11.79-.47-.66c0 .39-.08.73-.24 1.04-.16.3-.37.55-.62.73-.52.37-1.11.48-1.77.32-.67-.15-1.26-.61-1.8-1.35-.54-.76-.78-1.47-.7-2.12.08-.65.39-1.17.94-1.56.5-.36 1.09-.46 1.75-.3l-1.6-2.24 1.19-.85zm-4.85-.08c.34.48.66.78.94.9.41.17.79.14 1.14-.11.27-.2.42-.48.45-.85.03-.37-.13-.79-.46-1.25-.37-.52-.73-.82-1.08-.92-.35-.1-.67-.04-.96.17-.28.2-.44.48-.47.84-.03.37.12.77.44 1.22m4.55-4.99-1.06.83c-.3-.47-.42-.92-.37-1.37.05-.44.32-.93.8-1.47.44-.49.82-.8 1.15-.93.33-.13.62-.17.89-.11.26.06.63.3 1.11.73l1.26 1.15c.36.32.64.55.85.66.2.12.45.22.73.3l-.97 1.08c-.1-.04-.24-.1-.41-.18-.08-.04-.14-.06-.16-.08.01.35-.03.67-.13.96-.1.29-.26.56-.47.8-.38.42-.8.66-1.24.69-.45.04-.85-.1-1.2-.42-.23-.21-.39-.45-.47-.72a1.5 1.5 0 0 1 0-.84c.08-.29.26-.65.52-1.09.36-.6.59-1.03.68-1.3l-.11-.1c-.21-.19-.4-.27-.59-.25-.18.02-.4.18-.66.46-.17.19-.27.38-.29.56-.05.19.01.4.14.64m2.19-.67c-.08.18-.22.45-.43.81-.21.36-.32.61-.34.76-.03.23.04.42.19.56.15.14.34.2.55.18.21-.01.4-.11.56-.28.18-.2.28-.44.31-.74a.88.88 0 0 0-.13-.58c-.07-.11-.23-.29-.49-.52zm4.97-2.38-.77 1.25-4.71-2.9.71-1.16.67.41c-.2-.39-.29-.7-.3-.92 0-.22.06-.43.18-.63.17-.28.42-.51.74-.68l.85 1.06c-.26.13-.45.28-.56.46-.11.17-.15.35-.13.53.02.18.14.38.35.61.21.22.71.58 1.51 1.08zm3.6-7.92-.48 1.27-.76-.29c.22.32.34.66.38 1 .04.34 0 .66-.11.95-.22.6-.66 1.01-1.29 1.26s-1.39.2-2.24-.12c-.88-.33-1.47-.79-1.77-1.37-.3-.58-.33-1.19-.1-1.82.22-.58.65-.99 1.29-1.23l-2.57-.97.51-1.37zm-4.07 2.64c.55.21.98.28 1.29.22.44-.09.74-.33.88-.72.12-.31.09-.63-.1-.96-.19-.32-.54-.58-1.08-.78-.6-.22-1.06-.28-1.41-.16-.34.12-.58.34-.7.68-.12.32-.1.65.08.96.18.31.52.56 1.04.76"/><path fill="#4A4546" d="M21.37 69.665c1.06.56 1.46 1.88.89 2.94a2.164 2.164 0 0 1-2.94.89 2.164 2.164 0 0 1-.89-2.94 2.182 2.182 0 0 1 2.94-.89m.55 2.76c.47-.89.15-1.98-.72-2.45-.87-.46-1.96-.12-2.43.76-.47.89-.15 1.98.72 2.45.87.47 1.95.13 2.43-.76m-.74.12c-.35.49-.93.53-1.44.26-.7-.37-.87-1.09-.5-1.79s1.06-.96 1.77-.58c.51.27.81.77.59 1.34l-.31-.16c.09-.3-.06-.66-.45-.87-.49-.26-1-.03-1.26.46s-.16 1.04.32 1.3c.38.2.77.13.97-.11zm4.83-.68-.26.64-.85-.35-1.32 3.23-.78-.32 1.32-3.23-.85-.35.26-.64zm-.15 2.82-.08.24c-.12.35-.14.72.15.82.25.09.43-.07.59-.43l.69.23c-.26.69-.72.96-1.44.72-1.11-.37-.87-1.24-.62-1.98.27-.8.67-1.49 1.7-1.15.89.3.89.96.59 1.88l-.06.17zm.93-.19c.14-.46.16-.73-.15-.84-.3-.1-.5.19-.59.46l-.04.12zm3.13-.39.82.21-1.17 1.28.43 1.78-.82-.21-.2-1.11-.71.88-.82-.21 1.23-1.36-.42-1.68.82.21.19 1.02zm1.7-.55.79.15-.17.89.46.09-.1.54-.46-.09-.31 1.67c-.05.24-.01.35.22.39.06.01.13.02.18.02l-.1.55a4.6 4.6 0 0 1-.52-.06c-.62-.12-.7-.33-.58-.96l.33-1.77-.4-.08.1-.54.4.08zm1.61 1.2.8.11-.44 3.12-.8-.11zm.15-1.07.8.11-.1.68-.8-.11zm1.56.25.81.08-.4 4.16-.81-.08zm2.1 2.9-.01.25c-.01.37.07.73.37.75.27.01.39-.19.45-.57l.72.03c-.06.73-.42 1.12-1.18 1.1-1.17-.05-1.18-.95-1.15-1.73.03-.84.23-1.62 1.31-1.58.94.04 1.13.68 1.09 1.64l-.01.18zm.84-.45c0-.48-.05-.75-.38-.76-.32-.01-.43.32-.44.61v.12zm1.47-2.22 2.16-.08.02.46-1.64.06.05 1.31 1.55-.05.02.46-1.55.05.05 1.5 1.71-.06.02.46-2.23.08zm2.71.93.54-.06.68 1.05.45-1.17.54-.06-.66 1.58 1.01 1.53-.54.06-.75-1.17-.47 1.3-.54.06.68-1.72zm4.42.36c-.05-.3-.23-.62-.6-.56-.3.05-.58.25-.38 1.39.07.4.22 1.21.8 1.11.41-.07.43-.53.37-.86l.48-.09c.09.49-.04 1.2-.81 1.33-.76.13-1.16-.34-1.35-1.4-.14-.77-.14-1.69.81-1.86.84-.15 1.1.49 1.16.85zm.76-2.19.48-.12.34 1.36h.01c.06-.28.35-.54.62-.61.78-.2.94.41 1.03.77l.54 2.16-.48.12-.53-2.1c-.06-.23-.17-.61-.6-.5-.25.06-.56.32-.45.76l.53 2.1-.48.12zm3.3 1.2c-.23-.68-.04-1.07.67-1.31.91-.3 1.09.24 1.19.56l.55 1.66c.04.12.08.24.22.19.06-.02.09-.04.1-.06l.11.33c-.03.02-.15.08-.26.12-.18.06-.4.13-.55-.24h-.01c-.06.32-.3.57-.57.66-.56.18-.92-.06-1.1-.6-.14-.42-.06-.76.29-1.01l.56-.4c.3-.22.27-.31.19-.56-.09-.28-.31-.38-.62-.28-.51.17-.35.65-.32.75l.01.03zm1.58-.03c-.11.24-.51.42-.68.61-.12.15-.16.29-.07.55.1.3.28.48.59.37.3-.1.51-.46.41-.76zm.84-1.81.43-.18.14.34h.01c.01-.31.25-.59.53-.71.76-.32 1 .26 1.14.6l.86 2.05-.45.19-.83-2c-.09-.22-.26-.58-.67-.4-.24.1-.5.4-.33.82l.83 2-.45.19zm5.84.54c.42.83.19 1.33-.37 1.62-.17.09-.85.43-1.27-.23l.44-.22c.15.25.4.24.63.13.56-.29.32-.71.22-.9l-.19-.36h-.01c.03.28-.16.56-.44.7-.81.4-1.39-.61-1.58-.98-.38-.76-.55-1.57.16-1.93.3-.15.66-.07.82.12h.01l-.18-.35.42-.21zm-2.11-.47c.23.45.59.99 1.03.76.47-.24.34-.74.05-1.31-.28-.54-.65-1.05-1.12-.81-.41.21-.3.7.04 1.36m2.71-1.39c.25.41.62 1.03 1.14.72.4-.24.2-.7.08-.9l.42-.25c.17.29.4 1.05-.33 1.5-.66.4-1.21.11-1.77-.81-.41-.67-.75-1.53.08-2.02.82-.5 1.33.17 1.68.75l.1.17zm.78-.91-.09-.15c-.18-.3-.49-.6-.86-.37-.44.27-.16.84-.07 1l.06.1z"/></svg>