<svg xmlns="http://www.w3.org/2000/svg" width="24" height="24" fill="none" viewBox="0 0 32 32"><path fill="#000" d="M12.534 13.301h-1.332l-3.34 5.037v.807h3.502v1.857h1.17v-1.857h.962v-.94h-.962zm-1.17 1.922v2.981H9.006l2.095-3.163c.133-.236.221-.412.264-.527h.021c-.015.261-.022.498-.022.709m5.738-2.051c-.884 0-1.561.349-2.029 1.047-.47.698-.704 1.728-.704 3.088 0 1.239.225 2.187.674 2.842s1.075.982 1.878.982c.859 0 1.527-.342 2.006-1.027.478-.687.717-1.682.717-2.984-.001-2.633-.848-3.948-2.542-3.948m-.086 6.971c-.916 0-1.375-.963-1.375-2.889 0-2.06.468-3.089 1.402-3.089.885 0 1.326 1.013 1.326 3.04 0 1.959-.451 2.938-1.353 2.938m5.184-6.95c-.416 0-.769.143-1.059.43-.29.286-.436.637-.436 1.053 0 .422.147.78.441 1.074.293.293.649.439 1.068.439.415 0 .77-.146 1.063-.439a1.46 1.46 0 0 0 .44-1.074c0-.412-.147-.762-.443-1.051a1.476 1.476 0 0 0-1.074-.432m.556 2.046a.753.753 0 0 1-.551.236c-.215 0-.396-.077-.545-.233s-.224-.344-.224-.562c0-.215.076-.397.229-.548s.336-.226.551-.226c.211 0 .393.074.545.224a.739.739 0 0 1 .229.55.774.774 0 0 1-.234.559"/><path fill="#000" d="M27.609 9.951c-.533-.106-.868-.417-1.256-.805C25.843 8.636 25.207 8 24 8s-1.843.636-2.354 1.146C21.17 9.623 20.793 10 20 10s-1.17-.377-1.646-.854C17.843 8.636 17.207 8 16 8s-1.843.636-2.354 1.146C13.17 9.623 12.793 10 12 10s-1.17-.377-1.646-.854C9.843 8.636 9.207 8 8 8s-1.843.636-2.354 1.146c-.387.388-.722.699-1.255.805L4 8H1l4 18h22l4-18h-3zM25 23H7L4.588 10.938c.836-.167 1.346-.665 1.766-1.085C6.83 9.377 7.207 9 8 9s1.17.377 1.646.854C10.157 10.364 10.793 11 12 11s1.843-.636 2.354-1.146C14.83 9.377 15.207 9 16 9s1.17.377 1.646.854C18.157 10.364 18.793 11 20 11s1.843-.636 2.354-1.146C22.83 9.377 23.207 9 24 9s1.17.377 1.646.854c.42.42.93.918 1.766 1.085z"/></svg>