<svg xmlns="http://www.w3.org/2000/svg" width="24" height="24" fill="none" viewBox="0 0 32 32"><path fill="#000" d="M11 27h10v2H11zm0 3h10v2H11zm1.534-16.703h-1.332l-3.34 5.039v.805h3.502V21h1.17v-1.859h.962v-.939h-.962zm-1.17 1.924v2.98H9.006l2.095-3.164c.133-.236.221-.411.264-.525h.021c-.015.26-.022.497-.022.709m5.738-2.053c-.884 0-1.561.35-2.029 1.048-.47.698-.704 1.728-.704 3.089 0 1.238.225 2.186.674 2.841s1.075.983 1.878.983c.859 0 1.527-.344 2.006-1.029.478-.686.717-1.68.717-2.983-.001-2.633-.848-3.949-2.542-3.949m-.086 6.973c-.916 0-1.375-.964-1.375-2.891 0-2.059.468-3.088 1.402-3.088.885 0 1.326 1.014 1.326 3.04 0 1.958-.451 2.939-1.353 2.939m5.184-6.952c-.416 0-.769.144-1.059.43-.29.287-.436.638-.436 1.053 0 .423.147.781.441 1.074.293.294.649.441 1.068.441.415 0 .77-.147 1.063-.441.294-.293.44-.651.44-1.074 0-.411-.147-.762-.443-1.049a1.473 1.473 0 0 0-1.074-.434m.556 2.047a.749.749 0 0 1-.551.236.724.724 0 0 1-.545-.234.783.783 0 0 1-.224-.561c0-.215.076-.397.229-.548s.336-.226.551-.226c.211 0 .393.074.545.223s.229.332.229.551a.775.775 0 0 1-.234.559"/><path fill="#000" d="M27.609 9.951c-.533-.106-.868-.417-1.256-.805C25.843 8.636 25.207 8 24 8s-1.843.636-2.354 1.146C21.17 9.623 20.793 10 20 10s-1.17-.377-1.646-.854C17.843 8.636 17.207 8 16 8s-1.843.636-2.354 1.146C13.17 9.623 12.793 10 12 10s-1.17-.377-1.646-.854C9.843 8.636 9.207 8 8 8s-1.843.636-2.354 1.146c-.387.388-.722.699-1.255.805L4 8H1l4 18h22l4-18h-3zM25 23H7L4.588 10.938c.836-.167 1.346-.665 1.766-1.085C6.83 9.377 7.207 9 8 9s1.17.377 1.646.854C10.157 10.364 10.793 11 12 11s1.843-.636 2.354-1.146C14.83 9.377 15.207 9 16 9s1.17.377 1.646.854C18.157 10.364 18.793 11 20 11s1.843-.636 2.354-1.146C22.83 9.377 23.207 9 24 9s1.17.377 1.646.854c.42.42.93.918 1.766 1.085z"/></svg>