<svg xmlns="http://www.w3.org/2000/svg" width="24" height="24" fill="none" viewBox="0 0 32 32"><path fill="#000" d="M11.307 16.27c-.798 0-1.371.322-1.719.967h-.022c0-.893.197-1.604.592-2.133.394-.529.918-.795 1.573-.795.423 0 .825.102 1.208.307v-1.08c-.325-.146-.768-.221-1.326-.221-.995 0-1.795.403-2.398 1.209s-.904 1.883-.904 3.233c0 1.114.23 1.979.692 2.595.462.615 1.1.924 1.912.924.734 0 1.34-.242 1.818-.726.478-.483.717-1.108.717-1.874 0-.73-.193-1.314-.58-1.752-.387-.437-.907-.654-1.563-.654m.548 3.589a1.124 1.124 0 0 1-.914.428c-.396 0-.716-.164-.955-.492-.24-.328-.36-.723-.36-1.184 0-.369.121-.689.362-.959.242-.271.557-.406.943-.406.404 0 .718.136.939.406.222.27.333.645.333 1.125.001.438-.115.797-.348 1.082m5.227-6.545c-.884 0-1.561.35-2.029 1.048-.47.698-.704 1.728-.704 3.089 0 1.238.225 2.186.674 2.841s1.075.983 1.878.983c.859 0 1.527-.344 2.006-1.029.478-.686.717-1.68.717-2.983-.001-2.632-.848-3.949-2.542-3.949m-.086 6.973c-.916 0-1.375-.964-1.375-2.891 0-2.059.468-3.088 1.402-3.088.885 0 1.326 1.014 1.326 3.04.001 1.959-.451 2.939-1.353 2.939m5.186-6.951c-.416 0-.769.144-1.059.43-.29.287-.436.638-.436 1.053 0 .423.147.781.441 1.074.293.294.649.441 1.068.441.415 0 .77-.147 1.063-.441.294-.293.44-.651.44-1.074 0-.411-.147-.762-.443-1.049a1.47 1.47 0 0 0-1.074-.434m.555 2.047a.749.749 0 0 1-.551.236.724.724 0 0 1-.545-.234.783.783 0 0 1-.224-.561c0-.215.076-.397.229-.548s.336-.226.551-.226c.211 0 .393.074.545.223s.229.332.229.551a.769.769 0 0 1-.234.559M11 27.146h10v2H11z"/><path fill="#000" d="M27.609 9.951c-.533-.106-.868-.417-1.256-.805C25.843 8.636 25.207 8 24 8s-1.843.636-2.354 1.146C21.17 9.623 20.793 10 20 10s-1.17-.377-1.646-.854C17.843 8.636 17.207 8 16 8s-1.843.636-2.354 1.146C13.17 9.623 12.793 10 12 10s-1.17-.377-1.646-.854C9.843 8.636 9.207 8 8 8s-1.843.636-2.354 1.146c-.387.388-.722.699-1.255.805L4 8H1l4 18h22l4-18h-3zM25 23H7L4.588 10.938c.836-.167 1.346-.665 1.766-1.085C6.83 9.377 7.207 9 8 9s1.17.377 1.646.854C10.157 10.364 10.793 11 12 11s1.843-.636 2.354-1.146C14.83 9.377 15.207 9 16 9s1.17.377 1.646.854C18.157 10.364 18.793 11 20 11s1.843-.636 2.354-1.146C22.83 9.377 23.207 9 24 9s1.17.377 1.646.854c.42.42.93.918 1.766 1.085z"/></svg>