<svg xmlns="http://www.w3.org/2000/svg" width="24" height="24" fill="none" viewBox="0 0 32 32"><path fill="#000" d="M11.104 13.168c-.756 0-1.377.244-1.864.73-.486.487-.73 1.11-.73 1.869 0 .713.207 1.296.621 1.748.413.453.94.68 1.582.68.791 0 1.346-.297 1.664-.891.008.003.015.003.021 0 0 .905-.188 1.604-.563 2.098-.376.492-.902.738-1.579.738-.466 0-.906-.122-1.321-.365v1.079c.397.183.868.274 1.413.274 1.031 0 1.836-.385 2.416-1.155s.871-1.864.871-3.282c0-1.148-.224-2.023-.669-2.623-.446-.599-1.067-.9-1.862-.9m.868 3.656a1.217 1.217 0 0 1-.899.373c-.408 0-.731-.137-.97-.408-.238-.272-.356-.648-.356-1.129 0-.433.121-.791.365-1.074.243-.282.546-.424.907-.424.391 0 .708.163.953.488.245.326.368.745.368 1.258 0 .362-.123.666-.368.916m4.885-.556c-.2 0-.417.008-.649.021v-1.928h2.862v-1.064h-3.958v4.051c.562-.043.946-.064 1.154-.064.605 0 1.069.121 1.394.365.324.243.486.583.486 1.02 0 .444-.159.8-.478 1.066-.319.268-.74.4-1.263.4-.52 0-1.031-.17-1.536-.51v1.197c.369.211.93.316 1.682.316.891 0 1.592-.229 2.103-.689.51-.461.765-1.072.765-1.834 0-.728-.223-1.301-.668-1.719-.446-.419-1.077-.628-1.894-.628m5.028-3.079c-.416 0-.769.144-1.059.43-.29.287-.436.638-.436 1.053 0 .423.147.781.441 1.074.293.294.649.441 1.068.441.415 0 .77-.147 1.063-.441.294-.293.44-.651.44-1.074 0-.411-.147-.762-.443-1.049a1.473 1.473 0 0 0-1.074-.434m.555 2.047a.749.749 0 0 1-.551.236.724.724 0 0 1-.545-.234.783.783 0 0 1-.224-.561c0-.215.076-.397.229-.548s.336-.226.551-.226c.211 0 .393.074.545.223s.229.332.229.551a.767.767 0 0 1-.234.559"/><path fill="#000" d="M27.609 9.951c-.533-.106-.868-.417-1.256-.805C25.843 8.636 25.207 8 24 8s-1.843.636-2.354 1.146C21.17 9.623 20.793 10 20 10s-1.17-.377-1.646-.854C17.843 8.636 17.207 8 16 8s-1.843.636-2.354 1.146C13.17 9.623 12.793 10 12 10s-1.17-.377-1.646-.854C9.843 8.636 9.207 8 8 8s-1.843.636-2.354 1.146c-.387.388-.722.699-1.255.805L4 8H1l4 18h22l4-18h-3zM25 23H7L4.588 10.938c.836-.167 1.346-.665 1.766-1.085C6.83 9.377 7.207 9 8 9s1.17.377 1.646.854C10.157 10.364 10.793 11 12 11s1.843-.636 2.354-1.146C14.83 9.377 15.207 9 16 9s1.17.377 1.646.854C18.157 10.364 18.793 11 20 11s1.843-.636 2.354-1.146C22.83 9.377 23.207 9 24 9s1.17.377 1.646.854c.42.42.93.918 1.766 1.085z"/></svg>