<svg xmlns="http://www.w3.org/2000/svg" width="24" height="24" fill="none" viewBox="0 0 32 32"><path fill="#000" d="M10 13c0 1.61 1.128 2.275 2 1.895V19c0 1.947 1.645 2.491 2.5 1.526.557.627 1.443.627 2 0a1.34 1.34 0 0 0 1 .474c.745 0 1.5-.688 1.5-2v-3.105c.56.242 1.202.044 1.588-.47.269-.36.412-.853.412-1.425v-4c0-3.093-.463-5.038-.775-6h-1.06c.252.679.835 2.615.835 6v4c0 .35-.075.643-.213.825-.285.386-.787.095-.787-.825v-2.5h-1V19c0 1.299-1 1.299-1 0v-6.5h-1V19c0 1.299-1 1.299-1 0v-6.5h-1V19c0 1.299-1 1.299-1 0v-9h-1v3c0 1.299-1 1.299-1 0V9c0-1.771 2.534-4.115 3.669-5h-1.543C11.88 5.13 10 7.143 10 9z"/><path fill="#000" d="M27.609 9.951c-.533-.106-.868-.417-1.256-.805C25.843 8.636 25.207 8 24 8c-.947 0-1.541.392-2 .808v1.385c.126-.113.243-.229.354-.339C22.83 9.377 23.207 9 24 9s1.17.377 1.646.854c.42.42.93.918 1.766 1.085L25 23H7L4.588 10.938c.836-.167 1.346-.665 1.766-1.085C6.83 9.377 7.207 9 8 9c.429 0 .733.115 1 .292V8.178A2.77 2.77 0 0 0 8 8c-1.207 0-1.843.636-2.354 1.146-.387.388-.722.699-1.255.805L4 8H1l4 18h22l4-18h-3z"/></svg>