<svg xmlns="http://www.w3.org/2000/svg" width="24" height="24" fill="none" viewBox="0 0 32 32"><path fill="#000" d="m31 15-1-2.333-4.027 1.979L25 11s0-2-3-2H6l1 2s12 1 14 1 2 2 2 2l.324 1.947-.107.053H12c-.913 0-1.731.136-2.471.366L2 12.667 1 15l5.884 2.84c-3.137 2.701-3.803 7.481-3.876 8.09L1 26.916 2 29l6.214-3h15.572L30 29l1-2.084-2.021-.993-2.351-8.812zm-11.854 3L16 19.546 12.854 18zM5.451 24c.502-1.708 1.515-3.969 3.485-5.169l4.296 2.074L6.935 24zm6.906 0L16 22.241 19.643 24zm12.275-.213-5.864-2.882L23.75 18.5z"/></svg>