<svg xmlns="http://www.w3.org/2000/svg" width="24" height="24" fill="none" viewBox="0 0 32 32"><path fill="#000" d="m4 25 3.779-2.709C9.795 24.562 12.726 26 16 26a10.96 10.96 0 0 0 8.2-3.686L28 25l1-2.084-3.449-2.472a10.945 10.945 0 0 0 0-10.888L29 7.084 28 5l-3.8 2.686A10.96 10.96 0 0 0 16 4c-3.274 0-6.205 1.438-8.221 3.709L4 5 3 7.332l3.358 2.374C5.494 11.276 5 13.08 5 15s.494 3.724 1.358 5.294L3 22.668zm12-1a8.966 8.966 0 0 1-6.586-2.88l6.502-4.66 6.64 4.692A8.966 8.966 0 0 1 16 24m9-9a8.965 8.965 0 0 1-1.079 4.275L17.954 15l5.967-4.275A8.965 8.965 0 0 1 25 15m-9-9a8.966 8.966 0 0 1 6.556 2.848l-6.64 4.692-6.502-4.66A8.966 8.966 0 0 1 16 6m-9 9c0-1.489.368-2.891 1.009-4.129L13.85 15l-5.841 4.129A8.953 8.953 0 0 1 7 15"/></svg>