<svg xmlns="http://www.w3.org/2000/svg" width="24" height="24" fill="none" viewBox="0 0 32 32"><path fill="#000" d="M31 9.333 30 7l-2 1.098V4H4v4.098L2 7 1 9.333l3 1.621V21.27l-3 1.646L2 25l2-1.08V28h24v-4.08L30 25l1-2.084-3-1.646V10.954zM7 7h18v2.744l-1.738.954C21.624 8.46 18.985 7 16 7s-5.624 1.46-7.262 3.698L7 9.744zm17 9c0 .984-.187 1.923-.512 2.794l-4.96-2.723 5.017-2.711c.29.828.455 1.714.455 2.64M8 16c0-.926.165-1.812.455-2.64l5.017 2.711-4.96 2.723A7.972 7.972 0 0 1 8 16m8 1.437 6.342 3.427a7.979 7.979 0 0 1-12.684-.001zm0-2.753-6.377-3.5C11.084 9.253 13.393 8 16 8s4.916 1.253 6.377 3.184zM7 16v-3.426l.566.307A8.983 8.983 0 0 0 7 16c0 1.158.227 2.263.625 3.279L7 19.623zm18 9H7v-2.701l1.77-.956a8.974 8.974 0 0 0 14.46 0l1.77.956zm0-9v3.623l-.625-.344A8.972 8.972 0 0 0 25 16a8.96 8.96 0 0 0-.566-3.119l.566-.307z"/></svg>