<svg xmlns="http://www.w3.org/2000/svg" width="24" height="24" fill="none" viewBox="0 0 32 32"><path fill="#000" d="M32 10.084 31 8h-3l-.351 1.75-.255.133c-.41-.14-.71-.405-1.041-.736C25.843 8.636 25.207 8 24 8s-1.843.636-2.354 1.146C21.17 9.623 20.793 10 20 10s-1.17-.377-1.646-.854C17.843 8.636 17.207 8 16 8s-1.843.636-2.354 1.146C13.17 9.623 12.793 10 12 10s-1.17-.377-1.646-.854C9.843 8.636 9.207 8 8 8s-1.843.636-2.354 1.146c-.331.332-.63.597-1.041.737l-.254-.133L4 8H1l-1 2.084 1.658.88 2.461 11.074L1 23.667 2 26l2.684-1.424L5 26h22l.316-1.424L30 26l1-2.333-3.119-1.629 2.461-11.074zm-25.646-.23C6.83 9.377 7.207 9 8 9s1.17.377 1.646.854C10.157 10.364 10.793 11 12 11s1.843-.636 2.354-1.146C14.83 9.377 15.207 9 16 9s1.17.377 1.646.854C18.157 10.364 18.793 11 20 11s1.843-.636 2.354-1.146C22.83 9.377 23.207 9 24 9s1.17.377 1.646.854c.195.195.413.404.671.592L16 15.834 5.683 10.445c.257-.187.475-.396.671-.591m-1.413 2.851 8.457 4.487-6.845 3.574zM7.654 23 16 18.572 24.346 23zm17.792-2.233-6.845-3.574 8.457-4.487z"/></svg>