<svg xmlns="http://www.w3.org/2000/svg" width="24" height="24" fill="none" viewBox="0 0 32 32"><path fill="#000" d="M16 26c6.075 0 11-4.925 11-11S22.075 4 16 4 5 8.925 5 15s4.925 11 11 11m0-20c4.971 0 9 4.029 9 9s-4.029 9-9 9-9-4.029-9-9 4.029-9 9-9"/><path fill="#000" d="M14.56 16.73h1.492c1.261 0 2.261-.346 3-1.039.739-.692 1.109-1.583 1.109-2.672 0-1.088-.354-1.932-1.062-2.531-.708-.598-1.706-.898-2.993-.898h-3.398v11.203h1.852zm0-5.609h1.352c1.531 0 2.297.659 2.297 1.977 0 .672-.208 1.193-.625 1.562-.417.37-1.023.555-1.82.555H14.56z"/></svg>