<svg xmlns="http://www.w3.org/2000/svg" width="24" height="24" fill="none" viewBox="0 0 32 32"><path fill="#000" d="M16 4C9.925 4 5 8.925 5 15s4.925 11 11 11 11-4.925 11-11S22.075 4 16 4m0 20c-4.971 0-9-4.029-9-9s4.029-9 9-9 9 4.029 9 9-4.029 9-9 9"/><path fill="#000" d="m20.93 10.99-1.743 7.205a5.298 5.298 0 0 0-.157.902h-.027a5.614 5.614 0 0 0-.144-.875L17 10.99h-1.675l-2.01 7.178a5.354 5.354 0 0 0-.191.943h-.034a5.188 5.188 0 0 0-.137-.943l-1.777-7.178H9.391l2.741 9.803h1.88l1.873-6.871a4.55 4.55 0 0 0 .164-.943h.027c.019.347.066.666.144.957l1.866 6.857h1.839l2.687-9.803z"/></svg>